<svg xmlns="http://www.w3.org/2000/svg" width="40" height="29" viewBox="0 0 40 29" fill="none">
<rect x="-0.0078125" width="40" height="29" rx="14.5" fill="#FAEC57"/>
<path d="M25.8621 5H14.4573C13.4061 5.00122 12.3982 5.41936 11.6549 6.1627C10.9115 6.90605 10.4934 7.91389 10.4922 8.96514V20.3699C10.4934 21.4212 10.9115 22.429 11.6549 23.1724C12.3982 23.9157 13.4061 24.3339 14.4573 24.3351H25.8621C26.9134 24.3339 27.9212 23.9157 28.6646 23.1724C29.4079 22.429 29.826 21.4212 29.8273 20.3699V8.96514C29.826 7.91389 29.4079 6.90605 28.6646 6.1627C27.9212 5.41936 26.9134 5.00122 25.8621 5ZM28.6945 20.3699C28.6936 21.1208 28.3949 21.8407 27.8639 22.3716C27.3329 22.9026 26.613 23.2012 25.8621 23.202H14.4573C13.7064 23.2012 12.9865 22.9026 12.4556 22.3716C11.9246 21.8407 11.6259 21.1208 11.625 20.3699V8.96514C11.6259 8.21425 11.9246 7.49438 12.4556 6.96344C12.9865 6.43251 13.7064 6.13387 14.4573 6.13304H25.8621C26.613 6.13387 27.3329 6.43251 27.8639 6.96344C28.3949 7.49438 28.6936 8.21425 28.6945 8.96514V20.3699Z" fill="#52379D"/>
<path d="M22.0408 9.66465C21.9925 9.48428 21.8917 9.32228 21.7514 9.19915C21.611 9.07602 21.4372 8.99729 21.2521 8.97292C21.0669 8.94855 20.8787 8.97963 20.7113 9.06223C20.5438 9.14484 20.4046 9.27525 20.3112 9.43698L20.1662 9.68858L20.0212 9.43698C19.8958 9.22036 19.6896 9.06233 19.4478 8.99754C19.2061 8.93274 18.9485 8.96649 18.7316 9.09137C18.515 9.21677 18.3569 9.42297 18.2921 9.66473C18.2273 9.9065 18.2611 10.1641 18.386 10.381L19.0762 11.5769L16.5279 15.9892H14.6707C14.4203 15.9892 14.1802 16.0886 14.0031 16.2657C13.826 16.4428 13.7266 16.6829 13.7266 16.9333C13.7266 17.1837 13.826 17.4239 14.0031 17.6009C14.1802 17.778 14.4203 17.8775 14.6707 17.8775H21.8406L20.7504 15.9894H18.7081L21.9467 10.3822C22.0092 10.2748 22.0496 10.1561 22.0658 10.0329C22.0819 9.90969 22.0734 9.78452 22.0408 9.66465Z" fill="#52379D"/>
<path d="M25.6599 15.9898H23.8027L21.6916 12.333L20.6016 14.2213L23.8796 19.8991C23.9413 20.0067 24.0237 20.1009 24.1222 20.1764C24.2206 20.2519 24.333 20.3072 24.4529 20.3389C24.533 20.3605 24.6157 20.3715 24.6987 20.3716C24.8642 20.3712 25.0268 20.3272 25.1701 20.2442C25.3133 20.1612 25.4322 20.0419 25.5149 19.8985C25.5976 19.755 25.6411 19.5923 25.6411 19.4267C25.6411 19.2612 25.5975 19.0985 25.5148 18.955L24.893 17.8781H25.6601C25.9105 17.8781 26.1506 17.7786 26.3276 17.6016C26.5047 17.4245 26.6041 17.1844 26.6041 16.934C26.6041 16.6837 26.5047 16.4435 26.3276 16.2665C26.1506 16.0895 25.9105 15.99 25.6601 15.99L25.6599 15.9898Z" fill="#52379D"/>
<path d="M15.7183 17.8774L15.5327 18.1991C15.4075 18.416 15.3736 18.6737 15.4384 18.9155C15.5032 19.1574 15.6615 19.3636 15.8783 19.4888C16.0952 19.614 16.3529 19.6479 16.5947 19.5831C16.8366 19.5183 17.0428 19.36 17.168 19.1432L17.8986 17.8774H15.7183Z" fill="#52379D"/>
</svg>
