<svg width="49" height="35" viewBox="0 0 49 35" fill="none" xmlns="http://www.w3.org/2000/svg">
<rect y="-0.000488281" width="48.2759" height="35" rx="17.5" fill="#FAEC57"/>
<path d="M33.7034 15.7857L17.7281 7.54704C17.3301 7.3446 16.8896 7.23969 16.443 7.24098C15.9964 7.24226 15.5566 7.3497 15.1597 7.55443C14.783 7.74011 14.4644 8.02552 14.2386 8.3796C14.0128 8.73369 13.8884 9.1429 13.8789 9.56275V26.0398C13.8885 26.4598 14.0131 26.869 14.2391 27.223C14.4651 27.5771 14.7839 27.8624 15.1607 28.0479C15.5576 28.2528 15.9975 28.3603 16.4442 28.3616C16.8908 28.363 17.3314 28.2581 17.7294 28.0556L33.7032 19.8171C34.0898 19.6409 34.4176 19.3571 34.6475 18.9997C34.8774 18.6423 34.9996 18.2264 34.9996 17.8014C34.9996 17.3765 34.8774 16.9605 34.6475 16.6031C34.4176 16.2457 34.0901 15.962 33.7034 15.7857ZM26.7807 13.8376L24.5872 16.5941L19.3408 10.0007L26.7807 13.8376ZM16.3502 26.9457C16.208 26.9344 16.0695 26.8952 15.9425 26.8303C15.7942 26.7573 15.6688 26.645 15.5798 26.5057C15.4908 26.3664 15.4418 26.2054 15.438 26.0401V9.56275C15.4418 9.39743 15.4908 9.23631 15.5798 9.09694C15.6688 8.95757 15.7944 8.84528 15.9428 8.7723C16.0692 8.70718 16.2072 8.66736 16.3489 8.65508L23.6267 17.8014L16.3502 26.9457ZM19.3405 25.6021L24.5872 19.0087L26.7807 21.7653L19.3405 25.6021ZM32.9288 18.5935L28.1428 21.0625L25.5488 17.8014L28.1439 14.5401L32.9288 17.0094C33.0811 17.0786 33.2102 17.1902 33.3007 17.3309C33.3913 17.4715 33.4394 17.6352 33.4394 17.8025C33.4394 17.9697 33.3913 18.1335 33.3007 18.2741C33.2102 18.4147 33.0811 18.5263 32.9288 18.5956V18.5935Z" fill="#52379D"/>
</svg>
