<svg width="247" height="438" viewBox="0 0 247 438" fill="none" xmlns="http://www.w3.org/2000/svg">
<path d="M221.92 117.871C204.378 119.512 193.149 123.773 190.771 115.992C188.394 108.212 204.198 75.5048 223.891 79.0272C243.585 82.5496 285.048 125.686 269.544 130.081C254.04 134.476 239.463 116.229 221.92 117.871Z" fill="#FFEA17"/>
<path opacity="0.299" d="M220.01 122.32C202.468 123.961 191.239 128.222 188.861 120.441C186.483 112.661 202.288 79.954 221.981 83.4764C241.674 86.9988 283.137 130.135 267.634 134.53C252.13 138.926 237.553 120.679 220.01 122.32Z" fill="#FFEA17"/>
<path d="M162.661 228.132C129.87 195.13 101.014 179.27 116.179 161.672C131.344 144.074 237.403 122.592 261.069 168.438C284.736 214.285 247.04 369.393 210.845 345.056C174.65 320.719 195.452 261.133 162.661 228.132Z" fill="#52379D"/>
<path opacity="0.299" d="M147.661 230.953C114.87 197.951 86.0143 182.091 101.179 164.494C116.344 146.896 222.403 125.413 246.069 171.26C269.736 217.106 232.04 372.215 195.845 347.878C159.65 323.541 180.452 263.955 147.661 230.953Z" fill="#52379D"/>
</svg>
