<svg width="45" height="11" viewBox="0 0 45 11" fill="none" xmlns="http://www.w3.org/2000/svg">
<path d="M16.3787 5.54492C16.2602 5.54492 16.1577 5.55973 16.0711 5.58936C15.9184 5.64404 15.8034 5.74544 15.7259 5.89355L14.8509 5.85254L15.1995 3.11475H17.9305V3.94189H15.9036L15.7259 5.02539C15.8763 4.92741 15.9936 4.86247 16.0779 4.83057C16.2192 4.77816 16.3913 4.75195 16.5941 4.75195C17.0042 4.75195 17.362 4.88981 17.6673 5.16553C17.9726 5.44124 18.1253 5.84229 18.1253 6.36865C18.1253 6.82666 17.9783 7.23568 17.6844 7.5957C17.3904 7.95573 16.9507 8.13574 16.365 8.13574C15.8934 8.13574 15.506 8.00928 15.2029 7.75635C14.8999 7.50342 14.7313 7.14453 14.6971 6.67969H15.6678C15.7065 6.8916 15.7806 7.05566 15.89 7.17188C15.9993 7.28581 16.1588 7.34277 16.3685 7.34277C16.61 7.34277 16.7934 7.25846 16.9188 7.08984C17.0464 6.91895 17.1102 6.70475 17.1102 6.44727C17.1102 6.19434 17.0509 5.98128 16.9324 5.80811C16.8139 5.63265 16.6294 5.54492 16.3787 5.54492ZM22.032 7.88281C21.754 8.05371 21.4122 8.13916 21.0066 8.13916C20.339 8.13916 19.7921 7.90788 19.366 7.44531C18.9217 6.98047 18.6995 6.34473 18.6995 5.53809C18.6995 4.72233 18.924 4.06836 19.3729 3.57617C19.8218 3.08398 20.4153 2.83789 21.1536 2.83789C21.7939 2.83789 22.3078 3.00081 22.6951 3.32666C23.0848 3.65023 23.3081 4.05469 23.365 4.54004H22.3294C22.2497 4.19596 22.0548 3.95557 21.7449 3.81885C21.5718 3.74365 21.3792 3.70605 21.1673 3.70605C20.7617 3.70605 20.4279 3.85986 20.1658 4.16748C19.9061 4.47282 19.7762 4.93311 19.7762 5.54834C19.7762 6.16813 19.9175 6.60677 20.2 6.86426C20.4826 7.12174 20.8039 7.25049 21.1639 7.25049C21.5171 7.25049 21.8065 7.14909 22.032 6.94629C22.2576 6.74121 22.3966 6.47347 22.449 6.14307H21.2835V5.30225H23.3821V8.00586H22.6849L22.5789 7.37695C22.3761 7.61621 22.1938 7.78483 22.032 7.88281Z" fill="black"/>
<rect x="0.542969" y="5.98633" width="2.08382" height="3.12573" fill="black"/>
<rect x="3.66797" y="4.94434" width="2.08382" height="4.16764" fill="black"/>
<rect x="6.79297" y="3.38184" width="2.08382" height="5.73051" fill="black"/>
<rect x="9.92188" y="1.29785" width="2.08382" height="7.81433" fill="black"/>
<path d="M29.7163 1.81885H41.6982C41.8364 1.81885 41.9689 1.87373 42.0666 1.97143C42.1643 2.06913 42.2192 2.20164 42.2192 2.3398V8.59126C42.2192 8.72943 42.1643 8.86194 42.0666 8.95963C41.9689 9.05733 41.8364 9.11222 41.6982 9.11222H29.7163C29.5781 9.11222 29.4456 9.05733 29.3479 8.95963C29.2502 8.86194 29.1953 8.72943 29.1953 8.59126V2.3398C29.1953 2.20164 29.2502 2.06913 29.3479 1.97143C29.4456 1.87373 29.5781 1.81885 29.7163 1.81885ZM42.7401 3.90267H43.7821V7.0284H42.7401V3.90267Z" fill="black" stroke="black" stroke-width="2"/>
<path d="M29.7163 2.31885H41.6982C41.7038 2.31885 41.7091 2.32106 41.7131 2.32499C41.717 2.32891 41.7192 2.33424 41.7192 2.3398V8.59126C41.7192 8.59682 41.717 8.60215 41.7131 8.60608C41.7091 8.61001 41.7038 8.61222 41.6982 8.61222H29.7163C29.7107 8.61222 29.7054 8.61001 29.7014 8.60608C29.6975 8.60215 29.6953 8.59682 29.6953 8.59126V2.3398C29.6953 2.33425 29.6975 2.32892 29.7015 2.32499C29.7054 2.32106 29.7107 2.31885 29.7163 2.31885ZM43.2401 4.40267H43.2821V6.5284H43.2401V4.40267Z" stroke="white"/>
</svg>
