<svg width="19" height="9" viewBox="0 0 19 9" fill="none" xmlns="http://www.w3.org/2000/svg">
<path d="M2.44618 8.08496C1.91558 8.08496 1.43869 7.92871 1.01552 7.61621C0.592339 7.30046 0.349826 6.84147 0.287977 6.23926H1.6747C1.70725 6.44759 1.79514 6.61686 1.93837 6.74707C2.0816 6.87728 2.27203 6.94238 2.50966 6.94238C2.96864 6.94238 3.29091 6.68848 3.47645 6.18066C3.57737 5.90072 3.64084 5.49219 3.66688 4.95508C3.53993 5.11458 3.40484 5.23665 3.26161 5.32129C3.00119 5.47754 2.68056 5.55566 2.2997 5.55566C1.73654 5.55566 1.23687 5.36198 0.800673 4.97461C0.364475 4.58398 0.146376 4.02246 0.146376 3.29004C0.146376 2.53158 0.364475 1.91797 0.800673 1.44922C1.24013 0.977214 1.80979 0.741211 2.50966 0.741211C3.58713 0.741211 4.32606 1.2181 4.72645 2.17188C4.95432 2.71224 5.06825 3.4235 5.06825 4.30566C5.06825 5.16178 4.9592 5.8763 4.7411 6.44922C4.32444 7.53971 3.55946 8.08496 2.44618 8.08496ZM1.9579 2.10352C1.69097 2.31185 1.55751 2.66504 1.55751 3.16309C1.55751 3.58301 1.64214 3.89876 1.81141 4.11035C1.98394 4.31868 2.24761 4.42285 2.60243 4.42285C2.79449 4.42285 2.97515 4.36751 3.14442 4.25684C3.46018 4.05501 3.61806 3.70508 3.61806 3.20703C3.61806 2.80664 3.52365 2.48926 3.33485 2.25488C3.14931 2.02051 2.89377 1.90332 2.56825 1.90332C2.33062 1.90332 2.12717 1.97005 1.9579 2.10352ZM8.02724 6.4248V7.87988H6.54774V6.4248H8.02724ZM6.54774 4.22266V2.76758H8.02724V4.22266H6.54774ZM13.9745 5.26758V6.35645H13.1737V7.87988H11.8114V6.35645H9.00868V5.14062L11.6112 0.84375H13.1737V5.26758H13.9745ZM10.039 5.26758H11.8114V2.21094L10.039 5.26758ZM18.0956 7.87988H16.6698V2.99707H15.0048V2.0498C15.4442 2.03027 15.7518 2.00098 15.9276 1.96191C16.2076 1.90007 16.4354 1.77637 16.6112 1.59082C16.7317 1.46387 16.8228 1.2946 16.8847 1.08301C16.9205 0.956055 16.9384 0.861654 16.9384 0.799805H18.0956V7.87988Z" fill="black"/>
</svg>
