<svg xmlns="http://www.w3.org/2000/svg" width="41" height="41" viewBox="0 0 41 41" fill="none">
    <path fill-rule="evenodd" clip-rule="evenodd" d="M20.4922 41C31.814 41 40.9922 31.8218 40.9922 20.5C40.9922 9.17816 31.814 0 20.4922 0C9.17035 0 -0.0078125 9.17816 -0.0078125 20.5C-0.0078125 31.8218 9.17035 41 20.4922 41Z" fill="white"/>
    <path fill-rule="evenodd" clip-rule="evenodd" d="M23.5293 16.2992C23.2092 16.1955 22.8411 16.1263 22.5051 16.1263C22.089 16.1263 21.1928 16.4202 21.1928 16.9907V18.3564H23.3212V20.6556H21.1928V27H19.0484V20.6556H17.9922V18.3564H19.0484V17.1981C19.0484 15.4521 19.7845 14 21.5609 14C22.169 14 23.2572 14.0346 23.8493 14.2593L23.5293 16.2992Z" fill="#080809"/>
</svg>