<svg xmlns="http://www.w3.org/2000/svg" width="41" height="41" viewBox="0 0 41 41" fill="none">
    <path fill-rule="evenodd" clip-rule="evenodd" d="M20.4922 41C31.814 41 40.9922 31.8218 40.9922 20.5C40.9922 9.17816 31.814 0 20.4922 0C9.17035 0 -0.0078125 9.17816 -0.0078125 20.5C-0.0078125 31.8218 9.17035 41 20.4922 41Z" fill="white"/>
    <path d="M24.9864 27H16.9979C15.894 27 14.9922 26.0982 14.9922 24.9943V17.0057C14.9922 15.9018 15.894 15 16.9979 15H24.9864C26.0903 15 26.9922 15.9018 26.9922 17.0057V24.9943C26.9922 26.1031 26.0953 27 24.9864 27Z" fill="black"/>
    <path d="M20.9981 24.0825C20.1751 24.0825 19.4013 23.7622 18.8198 23.1807C18.2383 22.5992 17.918 21.8254 17.918 21.0024C17.918 20.1794 18.2383 19.4057 18.8198 18.8242C19.4013 18.2427 20.1751 17.9224 20.9981 17.9224C21.821 17.9224 22.5948 18.2427 23.1763 18.8242C23.7578 19.4057 24.0781 20.1794 24.0781 21.0024C24.0781 21.8254 23.7578 22.5992 23.1763 23.1807C22.5898 23.7622 21.821 24.0825 20.9981 24.0825ZM20.9981 18.5778C19.6625 18.5778 18.5734 19.662 18.5734 21.0024C18.5734 22.338 19.6576 23.4271 20.9981 23.4271C22.3336 23.4271 23.4227 22.3429 23.4227 21.0024C23.4178 19.6669 22.3336 18.5778 20.9981 18.5778Z" fill="white"/>
    <path d="M24.6734 17.8215C25 17.8215 25.2648 17.5567 25.2648 17.2301C25.2648 16.9034 25 16.6387 24.6734 16.6387C24.3468 16.6387 24.082 16.9034 24.082 17.2301C24.082 17.5567 24.3468 17.8215 24.6734 17.8215Z" fill="white"/>
</svg>