<svg xmlns="http://www.w3.org/2000/svg" width="41" height="41" viewBox="0 0 41 41" fill="none">
    <path fill-rule="evenodd" clip-rule="evenodd" d="M20.4922 41C31.814 41 40.9922 31.8218 40.9922 20.5C40.9922 9.17816 31.814 0 20.4922 0C9.17035 0 -0.0078125 9.17816 -0.0078125 20.5C-0.0078125 31.8218 9.17035 41 20.4922 41Z" fill="white"/>
    <path d="M22.2 18.5498C21.7848 18.5484 21.3735 18.6288 20.9894 18.7866C20.6054 18.9443 20.2562 19.1762 19.9619 19.469C19.6676 19.7618 19.4339 20.1098 19.2742 20.493C19.1145 20.8762 19.032 21.2872 19.0312 21.7023V24.8873C19.0312 25.0166 19.0826 25.1406 19.174 25.232C19.2655 25.3235 19.3895 25.3748 19.5187 25.3748H20.6562C20.7855 25.3748 20.9095 25.3235 21.001 25.232C21.0924 25.1406 21.1437 25.0166 21.1437 24.8873V21.7023C21.1436 21.5547 21.1747 21.4086 21.2348 21.2738C21.2949 21.1389 21.3827 21.0182 21.4926 20.9196C21.6025 20.8209 21.7319 20.7466 21.8725 20.7013C22.013 20.6561 22.1615 20.6409 22.3083 20.6569C22.5716 20.6901 22.8135 20.8187 22.9882 21.0184C23.163 21.2181 23.2583 21.4749 23.2563 21.7402V24.8873C23.2563 25.0166 23.3076 25.1406 23.399 25.232C23.4905 25.3235 23.6145 25.3748 23.7438 25.3748H24.8813C25.0105 25.3748 25.1345 25.3235 25.226 25.232C25.3174 25.1406 25.3688 25.0166 25.3688 24.8873V21.7023C25.368 21.2872 25.2855 20.8762 25.1258 20.493C24.9661 20.1098 24.7324 19.7618 24.4381 19.469C24.1438 19.1762 23.7946 18.9443 23.4106 18.7866C23.0265 18.6288 22.6152 18.5484 22.2 18.5498Z" fill="#231F20"/>
    <path d="M17.5672 19.0376H16.1047C15.8354 19.0376 15.6172 19.2559 15.6172 19.5251V24.8876C15.6172 25.1568 15.8354 25.3751 16.1047 25.3751H17.5672C17.8364 25.3751 18.0547 25.1568 18.0547 24.8876V19.5251C18.0547 19.2559 17.8364 19.0376 17.5672 19.0376Z" fill="#231F20"/>
    <path d="M16.8359 18.0625C17.509 18.0625 18.0547 17.5168 18.0547 16.8438C18.0547 16.1707 17.509 15.625 16.8359 15.625C16.1628 15.625 15.6172 16.1707 15.6172 16.8438C15.6172 17.5168 16.1628 18.0625 16.8359 18.0625Z" fill="#231F20"/>
</svg>