<svg xmlns="http://www.w3.org/2000/svg" width="41" height="41" viewBox="0 0 41 41" fill="none">
    <path fill-rule="evenodd" clip-rule="evenodd" d="M20.4922 41C31.814 41 40.9922 31.8218 40.9922 20.5C40.9922 9.17816 31.814 0 20.4922 0C9.17035 0 -0.0078125 9.17816 -0.0078125 20.5C-0.0078125 31.8218 9.17035 41 20.4922 41Z" fill="white"/>
    <path fill-rule="evenodd" clip-rule="evenodd" d="M20.2325 22.8847C20.644 22.8979 21.0158 23.4422 22.1043 23.4422C24.1487 23.4555 25.5559 21.889 25.994 19.8313C27.5206 12.7025 17.1261 12.1317 16.0641 17.9994C15.8118 19.38 16.2234 20.973 17.2987 21.4908C18.1217 21.889 18.1748 20.7473 17.9226 20.2562C16.8075 18.079 18.1483 16.1143 19.9006 15.5567C21.5468 15.0257 22.715 15.4638 23.6044 16.3798C24.7461 17.5613 24.2284 20.7739 22.8743 21.7961C22.3964 22.1545 21.5202 22.2342 21.0689 21.8094C20.1396 20.9465 21.5733 19.1145 21.3609 17.7737C21.1485 16.4461 19.051 16.6453 18.9448 18.5967C18.8917 19.5924 19.1838 19.8844 18.9581 20.8801C18.5997 22.4731 17.5111 25.7256 18.281 27C19.4094 26.469 19.967 23.2829 20.2325 22.8847Z" fill="black"/>
</svg>