<svg xmlns="http://www.w3.org/2000/svg" width="41" height="41" viewBox="0 0 41 41" fill="none">
    <path fill-rule="evenodd" clip-rule="evenodd" d="M20.4922 41C31.814 41 40.9922 31.8218 40.9922 20.5C40.9922 9.17816 31.814 0 20.4922 0C9.17035 0 -0.0078125 9.17816 -0.0078125 20.5C-0.0078125 31.8218 9.17035 41 20.4922 41Z" fill="white"/>
    <path d="M14.9922 17.9842L15.575 18.6941C15.575 18.6941 16.6716 17.7246 16.9312 18.3709C17.1908 19.0173 18.9339 24.5113 18.9339 24.5113C18.9339 24.5113 19.4531 26 20.6133 26C21.6676 26 22.5418 25.0199 23.2199 24.3311C25.0477 22.4822 26.9444 20.1987 27.294 17.5286C27.453 16.3153 26.8543 15.0385 25.5033 15.0014C24.8093 14.9803 24.0941 15.1922 23.5272 15.5842C22.7431 16.1299 22.2981 17.0041 22.102 17.9206C22.102 17.9206 23.1351 17.2107 23.6543 18.0478C23.9669 18.5564 23.7497 19.208 23.506 19.7007C23.2729 20.1723 23.008 20.6332 22.7219 21.0782C22.5206 21.3908 22.208 21.9259 21.7789 21.9259C21.2597 21.9259 21.0795 20.6597 21.0054 20.3153C20.7299 19.1021 20.7405 17.8412 20.3749 16.6491C20.1577 15.9339 19.6862 14.8266 18.7431 15.0703C16.7405 15.5895 14.9922 17.9842 14.9922 17.9842Z" fill="black"/>
</svg>