<svg width="41" height="41" viewBox="0 0 41 41" fill="none" xmlns="http://www.w3.org/2000/svg">
    <path fill-rule="evenodd" clip-rule="evenodd" d="M20.5 41C31.8218 41 41 31.8218 41 20.5C41 9.17816 31.8218 0 20.5 0C9.17816 0 0 9.17816 0 20.5C0 31.8218 9.17816 41 20.5 41Z" fill="white"/>
    <path fill-rule="evenodd" clip-rule="evenodd" d="M25.37 16.3841C25.9076 16.5286 26.3328 16.9538 26.4772 17.4913C26.742 18.4702 26.75 20.5 26.75 20.5C26.75 20.5 26.75 22.5379 26.4852 23.5087C26.3408 24.0462 25.9156 24.4714 25.378 24.6159C24.4073 24.8806 20.5 24.8806 20.5 24.8806C20.5 24.8806 16.5927 24.8806 15.622 24.6159C15.0844 24.4714 14.6592 24.0462 14.5148 23.5087C14.25 22.5298 14.25 20.5 14.25 20.5C14.25 20.5 14.25 18.4702 14.5067 17.4994C14.6512 16.9618 15.0764 16.5366 15.6139 16.3922C16.5847 16.1274 20.492 16.1194 20.492 16.1194C20.492 16.1194 24.3992 16.1194 25.37 16.3841ZM22.4897 20.5L19.2484 22.3774V18.6226L22.4897 20.5Z" fill="black"/>
</svg>
