<svg xmlns="http://www.w3.org/2000/svg" width="167" height="152" viewBox="0 0 167 152" fill="none">
  <path d="M5.42578 69.1318L11.2559 84.3789H28.0033C28.0033 84.3789 23.2163 82.1354 21.2729 80.042C19.3296 77.9486 10.5128 69.1318 10.5128 69.1318H5.42578Z" fill="white"/>
  <path d="M7.65625 84.3843H109.222C111.355 84.3681 113.474 84.7344 115.478 85.4659C116.068 85.6858 116.641 85.9469 117.194 86.2474C117.667 86.5099 118.061 86.8921 118.339 87.3557C118.616 87.8193 118.767 88.3479 118.775 88.8881C118.783 89.4284 118.649 89.9612 118.385 90.4329C118.122 90.9047 117.739 91.2987 117.275 91.5752C115.649 92.5242 112.98 93.4174 108.705 93.4174C99.6096 93.4174 29.351 92.0916 29.351 92.0916C29.351 92.0916 8.66458 88.8921 7.65625 84.3843Z" fill="white"/>
  <path d="M28.9141 86.7354C28.9141 86.7354 29.0083 87.496 30.0899 87.5588H52.2557V86.7354H28.9141Z" fill="white"/>
  <path d="M85.2763 86.748H57.1094V87.5749H85.2763V86.748Z" fill="white"/>
  <path d="M106.709 86.748H90.2266V87.5749H106.709V86.748Z" fill="white"/>
  <path d="M113.211 86.4814V87.4095H118.27C117.919 86.9522 117.494 86.5581 117.01 86.2441L113.211 86.4814Z" fill="white"/>
  <path d="M107.817 93.4121H106.969V96.2661H107.817V93.4121Z" fill="white"/>
  <path d="M107.817 93.5279C107.817 93.5279 107.119 90.6808 98.4736 90.6808H28.7803C27.5172 90.4854 18.2469 89.6934 18.6621 84.2715H7.4972C7.4972 84.2715 6.79939 85.3182 12.3155 87.9629C15.2359 89.3585 23.7526 91.8008 27.287 92.1044C28.6826 92.223 29.6281 92.1986 30.605 92.216L107.817 93.5279Z" fill="white"/>
  <path d="M62.6327 89.2259C62.6327 89.2259 50.0722 88.6956 50.1525 93.1162C50.1525 93.1162 49.5628 96.9855 62.6327 96.2249V89.2259Z" fill="white"/>
  <path d="M62.0234 91.8827C62.0234 91.8827 65.8055 91.7397 66.4336 92.7236C64.997 93.133 63.5162 93.3673 62.0234 93.4214V91.8827Z" fill="white"/>
  <path d="M62.6204 96.2222C62.6144 96.1782 62.6144 96.1336 62.6204 96.0896C62.6204 95.9884 62.6204 95.8628 62.6204 95.7128C62.6204 95.3639 62.6204 94.8789 62.5959 94.2893C62.5959 93.0472 62.5785 91.3341 62.5645 89.3384L62.6448 89.4221C61.5388 89.3698 60.335 89.2686 59.0755 89.2407C58.3773 89.2193 57.6784 89.2368 56.9821 89.293C56.3122 89.3593 55.6598 89.4605 55.0492 89.5721C53.9607 89.7508 52.912 90.1192 51.9509 90.6607C51.1415 91.1317 50.5239 91.6202 50.3146 92.1052C50.2125 92.3557 50.158 92.6231 50.1541 92.8937C50.1382 92.8239 50.1312 92.7524 50.1331 92.6809C50.1296 92.4735 50.1701 92.2678 50.2518 92.0772C50.4506 91.5574 51.0752 91.0305 51.8846 90.549C52.8543 89.9831 53.918 89.5966 55.0247 89.4081C55.6423 89.2895 56.2878 89.1883 56.9716 89.1151C57.6759 89.0559 58.383 89.0372 59.0895 89.0592C60.356 89.0871 61.5632 89.1918 62.6657 89.2546H62.746V89.3349C62.746 91.3306 62.7215 93.0437 62.7111 94.2858C62.7111 94.8755 62.7111 95.3534 62.6867 95.7093C62.6867 95.8594 62.6867 95.985 62.6867 96.0861C62.6867 96.1873 62.6204 96.2222 62.6204 96.2222Z" fill="white"/>
  <path d="M60.5247 96.277C60.4327 95.1071 60.4024 93.9332 60.434 92.7601C60.4024 91.587 60.4327 90.4131 60.5247 89.2432C60.6146 90.4132 60.6448 91.587 60.6154 92.7601C60.6448 93.9332 60.6146 95.107 60.5247 96.277Z" fill="white"/>
  <path d="M59.5391 96.3226C59.4492 95.1397 59.4189 93.9531 59.4484 92.7672C59.4189 91.5814 59.4492 90.3947 59.5391 89.2119C59.629 90.3947 59.6593 91.5814 59.6298 92.7672C59.6593 93.9531 59.629 95.1397 59.5391 96.3226Z" fill="white"/>
  <path d="M116.977 70.1435C116.977 70.1923 93.2512 70.2342 63.9434 70.2342C34.6355 70.2342 10.9102 70.1923 10.9102 70.1435C10.9102 70.0946 34.6355 70.0527 63.9434 70.0527C93.2512 70.0527 116.977 70.0946 116.977 70.1435Z" fill="white"/>
  <path d="M123.149 20.8708C123.435 18.7983 120.512 17.0957 118.313 16.9177C117.267 16.834 116.178 16.991 115.173 16.6456C113.035 15.9094 112.176 13.1182 110.062 12.232C108.495 11.5725 106.688 12.1622 105.177 12.9298C103.667 13.6974 102.152 14.6743 100.453 14.7685C98.9773 14.8627 97.3723 14.3149 96.0779 15.0371C95.1149 15.5745 94.609 16.684 93.7228 17.3399C92.8366 17.9958 91.7201 18.1145 90.642 18.1738C89.5639 18.2331 88.4474 18.2436 87.4635 18.6936C86.4796 19.1437 85.6701 20.18 85.876 21.2406L123.149 20.8708Z" fill="#F5F5F5"/>
  <path d="M56.7656 70.1437L69.1726 66.1244H74.469L91.0349 63.8356L110.04 62.105L118.759 58.0996L142.09 62.4469L149.033 63.0924L152.773 65.437L157.982 70.1437H56.7656Z" fill="white"/>
  <path d="M90.1187 47.9326C90.4885 45.2461 86.6959 43.048 83.8384 42.8072C82.4812 42.6991 81.0716 42.9049 79.7841 42.4583C76.9929 41.4884 75.8799 37.8842 73.155 36.7363C71.1209 35.878 68.7798 36.6421 66.805 37.6365C64.8302 38.6309 62.8833 39.8765 60.6817 40.0195C58.7662 40.1416 56.6833 39.4299 55.0051 40.3684C53.756 41.0662 53.1035 42.5037 51.9522 43.355C50.8008 44.2063 49.3528 44.3599 47.9572 44.4366C46.5616 44.5134 45.1102 44.5273 43.8367 45.11C42.5632 45.6927 41.513 47.0394 41.7747 48.4141L90.1187 47.9326Z" fill="white"/>
  <path d="M160.161 151.909C160.161 151.958 124.922 152 81.4767 152C38.0313 152 2.78516 151.958 2.78516 151.909C2.78516 151.86 38.0243 151.818 81.4767 151.818C124.929 151.818 160.161 151.857 160.161 151.909Z" fill="#263238"/>
  <path d="M38.5728 0H35.7188V113.805H38.5728V0Z" fill="#455A64"/>
  <path d="M134.909 1.28809H132.055V115.093H134.909V1.28809Z" fill="#455A64"/>
  <path d="M155.688 112.441H3.21094V115.17H155.688V112.441Z" fill="#455A64"/>
  <path d="M95.3702 31.1936C95.3981 31.2319 86.8953 37.7529 76.3759 45.7568C65.8565 53.7606 57.3014 60.2223 57.2735 60.1769C57.2456 60.1316 65.7449 53.6175 76.2678 45.6102C86.7907 37.6029 95.3388 31.1517 95.3702 31.1936Z" fill="#263238"/>
  <path d="M99.0895 23.5085C99.1209 23.5469 93.5071 28.0443 86.529 33.5325C79.5509 39.0208 73.8987 43.4518 73.8673 43.4135C73.8359 43.3751 79.4498 38.8777 86.4278 33.3895C93.4059 27.9012 99.0581 23.4702 99.0895 23.5085Z" fill="#263238"/>
  <path d="M28.1969 57.7767C28.2283 57.815 21.955 63.1114 14.1815 69.6045C6.40791 76.0975 0.0822999 81.3276 0.0508986 81.2892C0.0194974 81.2508 6.29277 75.9545 14.0663 69.4579C21.8399 62.9614 28.1655 57.7313 28.1969 57.7767Z" fill="#263238"/>
  <path d="M31.6169 49.7126C31.6483 49.751 26.167 54.4054 19.3739 60.1065C12.5808 65.8075 7.04716 70.4026 7.01576 70.3642C6.98436 70.3258 12.4621 65.6715 19.2588 59.9669C26.0554 54.2623 31.596 49.6743 31.6169 49.7126Z" fill="#263238"/>
  <path d="M163.224 77.4651C163.256 77.5034 156.982 82.7998 149.209 89.2929C141.435 95.7859 135.11 101.019 135.078 100.981C135.047 100.943 141.32 95.6499 149.094 89.1533C156.867 82.6567 163.193 77.4267 163.224 77.4651Z" fill="#263238"/>
  <path d="M166.633 69.4128C166.664 69.4512 161.183 74.1056 154.39 79.8067C147.596 85.5077 142.063 90.1028 142.031 90.0644C142 90.026 147.478 85.3716 154.274 79.6671C161.071 73.9625 166.615 69.3745 166.633 69.4128Z" fill="#263238"/>
  <path d="M28.7386 84.3843H10.8398V115.28H28.7386V84.3843Z" fill="#263238"/>
  <path d="M24.5996 88.2236H14.8652C14.0983 88.2236 13.4766 88.8453 13.4766 89.6123V91.6708C13.4766 92.4377 14.0983 93.0594 14.8652 93.0594H24.5996C25.3665 93.0594 25.9882 92.4377 25.9882 91.6708V89.6123C25.9882 88.8453 25.3665 88.2236 24.5996 88.2236Z" fill="#455A64"/>
  <path d="M28.8753 96.2914C28.8753 96.3437 24.8664 96.3821 19.9259 96.3821C14.9855 96.3821 10.9766 96.3437 10.9766 96.2914C10.9766 96.2391 14.982 96.2007 19.9259 96.2007C24.8699 96.2007 28.8753 96.2426 28.8753 96.2914Z" fill="#455A64"/>
  <path d="M28.8753 111.251C28.8753 111.303 24.8664 111.345 19.9259 111.345C14.9855 111.345 10.9766 111.303 10.9766 111.251C10.9766 111.199 14.982 111.16 19.9259 111.16C24.8699 111.16 28.8753 111.202 28.8753 111.251Z" fill="#455A64"/>
  <path d="M86.0268 53.6925C86.3581 53.3967 86.6274 53.038 86.8191 52.6374C87.0107 52.2367 87.1209 51.802 87.1433 51.3584C87.1602 50.9143 87.069 50.4727 86.8775 50.0716C86.6861 49.6705 86.4002 49.3219 86.0443 49.0556C85.6816 48.798 85.253 48.649 84.8088 48.6261C84.3645 48.6033 83.9229 48.7075 83.5357 48.9265C82.8693 49.3313 82.4052 50.1058 81.6411 50.2384C80.877 50.371 80.1129 49.8895 79.5093 50.2872C79.1604 50.5175 79.0313 50.9571 78.7278 51.2328C78.337 51.5817 77.7578 51.6096 77.2659 51.8085C76.922 51.9537 76.6223 52.1868 76.3969 52.4844C76.1715 52.782 76.0284 53.1337 75.9819 53.5041C75.8947 54.2961 76.2576 55.0567 76.5646 55.7894C76.8716 56.5221 77.1228 57.363 76.8228 58.0992" fill="#263238"/>
  <path d="M77.8691 68.2213L76.5781 54.3734L76.9445 54.0524C79.4217 51.8927 80.5661 50.675 83.6609 51.7845C84.3581 52.0883 84.9656 52.5661 85.425 53.1722C85.8845 53.7783 86.1805 54.4923 86.2846 55.2456C86.5358 57.0564 86.8394 59.4325 86.9126 60.9083C87.0382 63.5146 83.9818 64.0938 83.9818 64.0938L84.4703 68.661L77.8691 68.2213Z" fill="#FFBE9D"/>
  <path d="M85.1547 56.8581C85.0971 56.8113 85.0546 56.7484 85.0326 56.6775C85.0106 56.6066 85.01 56.5307 85.0309 56.4595C85.0519 56.3882 85.0934 56.3247 85.1503 56.277C85.2073 56.2293 85.277 56.1995 85.3508 56.1913C85.4246 56.1831 85.4992 56.1969 85.5652 56.2309C85.6312 56.265 85.6857 56.3178 85.7218 56.3827C85.7579 56.4476 85.774 56.5218 85.7681 56.5958C85.7621 56.6698 85.7345 56.7405 85.6885 56.7988C85.6576 56.8381 85.6192 56.8708 85.5755 56.8951C85.5318 56.9194 85.4837 56.9348 85.4341 56.9403C85.3844 56.9458 85.3341 56.9414 85.2861 56.9273C85.2382 56.9132 85.1935 56.8897 85.1547 56.8581Z" fill="#263238"/>
  <path d="M86.1936 56.1738C86.1552 56.2192 85.8865 56.0377 85.5306 56.0587C85.1748 56.0796 84.9235 56.282 84.8782 56.2366C84.8328 56.1912 84.8956 56.1354 85.0038 56.0412C85.1492 55.9197 85.3308 55.8498 85.5202 55.8423C85.7081 55.8332 85.894 55.8846 86.0505 55.9889C86.1691 56.0726 86.211 56.1494 86.1936 56.1738Z" fill="#263238"/>
  <path d="M81.8156 56.7315C81.8822 56.7666 81.9369 56.8208 81.9727 56.887C82.0085 56.9533 82.0238 57.0286 82.0167 57.1036C82.0096 57.1786 81.9805 57.2498 81.9329 57.3081C81.8853 57.3665 81.8214 57.4094 81.7494 57.4315C81.6774 57.4535 81.6005 57.4537 81.5284 57.4319C81.4563 57.4102 81.3923 57.3676 81.3444 57.3094C81.2966 57.2513 81.2671 57.1802 81.2597 57.1053C81.2522 57.0303 81.2672 56.9549 81.3027 56.8885C81.3501 56.7998 81.4307 56.7336 81.5268 56.7042C81.6229 56.6747 81.7267 56.6846 81.8156 56.7315Z" fill="#263238"/>
  <path d="M82.4292 56.6687C82.3908 56.7176 82.1256 56.5361 81.7663 56.5571C81.4069 56.578 81.1592 56.7769 81.1173 56.735C81.0755 56.6931 81.1173 56.6303 81.2394 56.5396C81.3849 56.4181 81.5665 56.3482 81.7558 56.3407C81.945 56.3301 82.1324 56.3815 82.2896 56.4873C82.4048 56.5675 82.4501 56.6478 82.4292 56.6687Z" fill="#263238"/>
  <path d="M83.9676 59.6543C84.1491 59.5693 84.3438 59.5161 84.5433 59.4973C84.634 59.4798 84.7073 59.4554 84.7108 59.4031C84.709 59.3085 84.6799 59.2164 84.6271 59.1379C84.5189 58.9076 84.4108 58.6738 84.2991 58.4401C83.9926 57.8405 83.7471 57.2116 83.5664 56.563C83.9321 57.1282 84.2395 57.7291 84.484 58.3563L84.798 59.0751C84.8663 59.1919 84.8933 59.3283 84.8748 59.4624C84.8637 59.4994 84.844 59.5332 84.8173 59.5611C84.7906 59.589 84.7577 59.6101 84.7213 59.6229C84.6704 59.6391 84.6176 59.6485 84.5643 59.6508C84.3671 59.6868 84.1652 59.688 83.9676 59.6543Z" fill="#263238"/>
  <path d="M83.9766 64.0927C83.9766 64.0927 82.8182 64.2741 81.0039 63.2832C81.0039 63.2832 81.468 65.1568 84.0498 64.766L83.9766 64.0927Z" fill="#EB996E"/>
  <path d="M84.5717 55.4082C84.6206 55.5862 84.8927 55.6594 85.1858 55.6594C85.3174 55.6691 85.4495 55.6501 85.573 55.6038C85.6965 55.5574 85.8084 55.4847 85.9011 55.3908C86.0197 55.2198 85.779 54.9756 85.3184 54.9826C84.8578 54.9895 84.5194 55.2373 84.5717 55.4082Z" fill="#263238"/>
  <path d="M80.5969 55.9232C80.726 56.0628 81.0958 56.0105 81.4622 55.9511C81.8983 55.8535 82.2821 55.7697 82.3902 55.6022C82.474 55.508 82.4635 55.3894 82.324 55.3022C82.0949 55.192 81.8346 55.1648 81.5878 55.2254C81.2953 55.2764 81.0191 55.3959 80.7818 55.5743C80.6004 55.7244 80.5445 55.8535 80.5969 55.9232Z" fill="#263238"/>
  <path d="M82.4747 59.7248C82.4189 59.7248 82.5236 60.168 82.9527 60.461C83.3819 60.7541 83.8215 60.6983 83.8075 60.6425C83.7936 60.5866 83.4377 60.5378 83.0748 60.2936C82.712 60.0493 82.534 59.7004 82.4747 59.7248Z" fill="#263238"/>
  <path d="M86.0244 53.6921C85.2289 54.2713 83.8088 54.1945 82.9191 53.7723C82.2911 53.4758 81.7049 52.928 81.0176 53.0292C80.3826 53.1234 80.0511 53.6049 79.8906 54.2259C79.7908 54.5598 79.5648 54.8416 79.2606 55.0117C78.9564 55.1817 78.598 55.2265 78.2613 55.1365C78.3624 56.4065 78.5474 57.3486 78.1705 58.5209C78.1043 58.7302 77.8216 58.8942 77.6507 59.0373C77.5728 59.114 77.4716 59.1628 77.3631 59.1761C77.2545 59.1893 77.1447 59.1663 77.0506 59.1105C76.9761 59.0338 76.9187 58.9423 76.8821 58.8419C76.8454 58.7415 76.8303 58.6345 76.8377 58.5279C76.7575 57.2683 76.4888 55.9216 76.4225 54.662C76.412 54.2039 76.5266 53.7515 76.754 53.3536C77.0371 52.8976 77.4469 52.5339 77.9333 52.3069C78.8206 51.7274 79.7756 51.2588 80.7769 50.9113C81.7861 50.5672 82.8861 50.6019 83.8716 51.009C84.8311 51.4556 85.965 52.3139 85.8953 53.3676" fill="#263238"/>
  <path d="M77.6243 57.5574C77.579 57.5365 75.7577 57.2469 75.9566 59.0333C76.131 60.5789 77.8023 60.1917 77.8058 60.1393C77.8093 60.087 77.6243 57.5574 77.6243 57.5574Z" fill="#FFBE9D"/>
  <path d="M77.1934 59.4341C77.1934 59.4341 77.1689 59.4341 77.1236 59.476C77.0597 59.5014 76.9886 59.5014 76.9247 59.476C76.8245 59.4161 76.7422 59.3305 76.6863 59.228C76.6305 59.1255 76.6032 59.01 76.6072 58.8933C76.5982 58.7634 76.6197 58.6331 76.67 58.513C76.7154 58.3979 76.7851 58.3176 76.8654 58.3037C76.8957 58.295 76.9281 58.2968 76.9572 58.3088C76.9863 58.3208 77.0106 58.3424 77.0259 58.37C77.0468 58.4118 77.0259 58.4432 77.0468 58.4467C77.0678 58.4502 77.0782 58.4188 77.0468 58.356C77.0353 58.3193 77.0135 58.2866 76.984 58.2618C76.9403 58.2315 76.8866 58.219 76.834 58.2269C76.7718 58.2415 76.7142 58.2715 76.6666 58.3142C76.6191 58.3569 76.583 58.4108 76.5618 58.4711C76.5019 58.6059 76.4744 58.7529 76.4816 58.9003C76.4786 59.0361 76.5152 59.1699 76.5871 59.2852C76.659 59.4004 76.763 59.4922 76.8863 59.5493C76.9273 59.5595 76.9701 59.5608 77.0117 59.5529C77.0532 59.5451 77.0926 59.5284 77.1271 59.5039C77.1934 59.469 77.2003 59.4376 77.1934 59.4341Z" fill="#EB996E"/>
  <path d="M99.0625 143.897L102.175 151.921L112.16 148.083C111.735 147.152 105.838 147.211 105.838 147.211L104.055 141.999L99.0625 143.897Z" fill="#8354BE"/>
  <g opacity="0.6">
    <path d="M102.586 147.964C102.501 148.03 102.443 148.125 102.425 148.231C102.406 148.336 102.427 148.445 102.484 148.536C102.546 148.624 102.64 148.684 102.745 148.704C102.851 148.724 102.96 148.703 103.05 148.644C103.139 148.574 103.2 148.474 103.22 148.362C103.24 148.249 103.218 148.134 103.158 148.037C103.083 147.953 102.978 147.901 102.865 147.893C102.753 147.884 102.641 147.92 102.554 147.992" fill="white"/>
  </g>
  <g opacity="0.6">
    <path d="M102.177 151.906L101.895 151.086L111.573 147.729C111.573 147.729 112.093 147.754 112.163 148.078L102.177 151.906Z" fill="white"/>
  </g>
  <path d="M105.981 147.095C105.981 147.144 105.761 147.259 105.58 147.51C105.398 147.762 105.353 148.013 105.301 148.009C105.248 148.006 105.214 147.699 105.437 147.402C105.66 147.106 105.974 147.053 105.981 147.095Z" fill="#263238"/>
  <path d="M107.191 147.14C107.222 147.182 107.041 147.346 106.954 147.615C106.866 147.883 106.905 148.121 106.856 148.138C106.807 148.156 106.668 147.89 106.783 147.555C106.898 147.22 107.173 147.098 107.191 147.14Z" fill="#263238"/>
  <path d="M108.262 148.163C108.224 148.187 108.06 147.971 108.084 147.657C108.109 147.343 108.294 147.148 108.332 147.179C108.371 147.21 108.28 147.409 108.266 147.668C108.252 147.926 108.322 148.142 108.262 148.163Z" fill="#263238"/>
  <path d="M105.441 145.964C105.441 146.016 105.19 146.033 104.921 146.155C104.652 146.278 104.471 146.449 104.429 146.417C104.387 146.386 104.527 146.131 104.848 145.991C105.169 145.852 105.451 145.915 105.441 145.964Z" fill="#263238"/>
  <path d="M104.756 144.866C104.756 144.887 104.585 144.991 104.257 145.054C104.064 145.092 103.867 145.104 103.671 145.093C103.554 145.089 103.437 145.075 103.322 145.051C103.254 145.041 103.188 145.021 103.127 144.991C103.082 144.969 103.045 144.932 103.023 144.886C103.001 144.841 102.995 144.79 103.005 144.74C103.016 144.697 103.038 144.657 103.067 144.624C103.097 144.591 103.134 144.565 103.176 144.548C103.239 144.523 103.306 144.508 103.374 144.503C103.49 144.491 103.607 144.491 103.723 144.503C103.92 144.516 104.114 144.558 104.299 144.628C104.613 144.754 104.76 144.908 104.749 144.925C104.739 144.942 104.561 144.838 104.257 144.751C104.081 144.701 103.899 144.674 103.716 144.67C103.609 144.669 103.502 144.676 103.395 144.691C103.277 144.691 103.189 144.737 103.179 144.796C103.169 144.855 103.179 144.824 103.21 144.848C103.256 144.868 103.304 144.882 103.353 144.89C103.461 144.914 103.569 144.931 103.678 144.942C103.863 144.958 104.048 144.958 104.233 144.942C104.405 144.903 104.58 144.877 104.756 144.866Z" fill="#263238"/>
  <path d="M104.713 144.963C104.713 144.963 104.535 144.841 104.396 144.53C104.317 144.349 104.27 144.155 104.256 143.958C104.243 143.842 104.243 143.725 104.256 143.609C104.258 143.532 104.279 143.457 104.319 143.391C104.358 143.325 104.413 143.271 104.48 143.232C104.524 143.217 104.573 143.214 104.619 143.225C104.665 143.235 104.707 143.258 104.741 143.291C104.789 143.341 104.83 143.396 104.863 143.455C104.924 143.565 104.967 143.682 104.992 143.804C105.035 144.002 105.029 144.206 104.975 144.401C104.877 144.75 104.699 144.872 104.689 144.858C104.678 144.844 104.797 144.68 104.849 144.373C104.882 144.197 104.875 144.016 104.828 143.843C104.802 143.743 104.762 143.646 104.71 143.557C104.654 143.459 104.581 143.386 104.546 143.414C104.511 143.442 104.441 143.543 104.431 143.644C104.415 143.749 104.409 143.855 104.413 143.961C104.418 144.144 104.449 144.325 104.507 144.499C104.616 144.781 104.738 144.945 104.713 144.963Z" fill="#263238"/>
  <path d="M65.1992 139.462C65.1992 139.151 78.3808 120.394 78.3808 120.394L85.6624 123.185L69.0511 142.326L65.1992 139.462Z" fill="#FFBE9D"/>
  <path d="M65.202 139.46L65.0834 139.613L62.8225 142.562L60.0312 144.484L63.7854 151.713H67.9164C67.9164 151.713 67.6164 150.723 65.6311 150.206L65.4986 146.239L69.0678 142.317" fill="#8354BE"/>
  <g opacity="0.6">
    <path d="M60.0234 144.485L63.7776 151.714L67.9086 151.718L67.4446 151.097L64.0847 150.908L60.6201 144.077L60.0234 144.485Z" fill="white"/>
  </g>
  <path d="M65.5854 148.394C65.5574 148.435 65.3167 148.299 64.9992 148.31C64.6817 148.32 64.4444 148.453 64.413 148.411C64.3816 148.369 64.6084 148.132 64.9957 148.128C65.383 148.125 65.6237 148.362 65.5854 148.394Z" fill="#263238"/>
  <path d="M65.5261 147.411C65.4843 147.443 65.2994 147.199 64.9714 147.132C64.6434 147.066 64.3783 147.22 64.3503 147.178C64.3224 147.136 64.3852 147.087 64.5004 147.024C64.6564 146.944 64.8349 146.92 65.0067 146.955C65.1784 146.99 65.3332 147.082 65.4459 147.216C65.5261 147.317 65.5436 147.401 65.5261 147.411Z" fill="#263238"/>
  <path d="M65.5472 146.15C65.5018 146.17 65.3588 145.933 65.0727 145.832C64.7866 145.731 64.5249 145.832 64.504 145.78C64.4831 145.727 64.5459 145.703 64.661 145.661C64.8133 145.606 64.9798 145.606 65.132 145.661C65.2849 145.716 65.415 145.82 65.5019 145.958C65.5612 146.052 65.5681 146.139 65.5472 146.15Z" fill="#263238"/>
  <path d="M66.6573 145.17C66.6085 145.17 66.4899 144.954 66.2352 144.787C65.9805 144.619 65.7223 144.595 65.7188 144.546C65.7153 144.497 66.0258 144.427 66.3363 144.636C66.6469 144.846 66.7062 145.167 66.6573 145.17Z" fill="#263238"/>
  <path d="M67.1995 144.305C67.1786 144.305 67.0425 144.151 66.8506 143.872L66.5017 143.377C66.4208 143.27 66.3561 143.153 66.3098 143.028C66.2863 142.944 66.295 142.854 66.3342 142.776C66.359 142.733 66.396 142.697 66.4406 142.675C66.4852 142.652 66.5356 142.642 66.5854 142.647C66.7299 142.675 66.8632 142.744 66.9692 142.846C67.0659 142.929 67.1504 143.026 67.2204 143.132C67.3367 143.312 67.4107 143.516 67.4368 143.729C67.4802 143.922 67.4465 144.125 67.3426 144.294C67.3444 144.112 67.3339 143.93 67.3112 143.75C67.252 143.45 67.092 143.179 66.8576 142.982C66.7765 142.908 66.6782 142.855 66.5715 142.829C66.5566 142.825 66.5411 142.827 66.5272 142.833C66.5134 142.84 66.502 142.85 66.4947 142.864C66.4806 142.902 66.4806 142.944 66.4947 142.982C66.5376 143.083 66.5914 143.179 66.6552 143.268L66.9727 143.788C67.0758 143.947 67.1524 144.121 67.1995 144.305Z" fill="#263238"/>
  <path d="M67.3476 144.442C67.3266 144.442 67.3476 144.226 67.5674 143.978C67.7207 143.815 67.9224 143.705 68.1429 143.665C68.3634 143.625 68.5909 143.656 68.792 143.755C68.8125 143.774 68.8286 143.798 68.8395 143.823C68.8503 143.849 68.8555 143.877 68.8548 143.905C68.8539 143.953 68.8366 143.998 68.806 144.034C68.7634 144.086 68.7127 144.131 68.656 144.167C68.5653 144.231 68.4683 144.286 68.3664 144.331C68.1945 144.411 68.0106 144.463 67.8221 144.484C67.5011 144.519 67.3057 144.456 67.3127 144.435C67.3197 144.415 67.5081 144.435 67.8011 144.355C67.9722 144.319 68.1377 144.261 68.2931 144.181C68.3841 144.134 68.4716 144.08 68.5548 144.02C68.5949 143.995 68.6303 143.963 68.6594 143.926C68.6804 143.891 68.6594 143.902 68.6594 143.891C68.6214 143.87 68.5802 143.854 68.5373 143.846C68.4868 143.834 68.4355 143.826 68.3838 143.821C68.2856 143.816 68.1871 143.823 68.0907 143.842C67.9257 143.881 67.7725 143.959 67.6441 144.069C67.4348 144.265 67.3755 144.456 67.3476 144.442Z" fill="#263238"/>
  <g opacity="0.6">
    <path d="M62.8283 144.855C63.0981 144.855 63.3168 144.636 63.3168 144.366C63.3168 144.097 63.0981 143.878 62.8283 143.878C62.5585 143.878 62.3398 144.097 62.3398 144.366C62.3398 144.636 62.5585 144.855 62.8283 144.855Z" fill="white"/>
  </g>
  <path d="M105.354 81.5789H107.86C109.028 81.537 109.677 81.5579 110.023 81.2683C110.48 80.881 109.908 80.4379 109.908 80.4379C109.908 80.4379 110.766 80.2007 110.717 79.6843C110.686 79.3354 110.288 79.2691 110.288 79.2691C110.288 79.2691 111.049 79.0249 111.213 78.7248C111.436 78.3131 110.926 78.0584 110.926 78.0584C111.973 77.4967 111.921 76.8756 111.691 76.7989C111.46 76.7221 110.644 77.0396 110.644 77.0396C109.967 77.1897 108.118 77.6363 108.85 76.6733C109.583 75.7103 109.785 74.6985 109.649 74.3845C109.609 74.319 109.55 74.2674 109.479 74.2363C109.409 74.2053 109.331 74.1964 109.255 74.2108C109.179 74.2252 109.11 74.2621 109.056 74.3168C109.002 74.3715 108.965 74.4413 108.952 74.5171C108.823 74.9044 108.641 75.272 108.411 75.6091C108.235 75.8868 108.015 76.1333 107.758 76.3383C107.458 76.5721 107.197 76.7605 106.966 76.9175L104.398 78.1666L105.354 81.5789Z" fill="#FFBE9D"/>
  <path d="M106.703 75.793L108.039 82.4291L111.305 82.0942L111.399 75.3115L106.703 75.793Z" fill="#F4F4F4"/>
  <path d="M106.616 74.9254C106.44 75.196 106.364 75.519 106.399 75.8395L111.706 75.2952C111.716 75.1312 111.686 74.9672 111.617 74.818C111.548 74.6688 111.443 74.539 111.312 74.4404L106.616 74.9254Z" fill="#455A64"/>
  <path d="M107.155 74.2474L107.043 74.9277L111.055 74.5474L110.717 73.874L107.155 74.2474Z" fill="#455A64"/>
  <path d="M106.805 77.4773C106.805 77.5401 107.541 80.8093 107.541 80.8093L111.532 80.4011L111.567 76.9854L106.805 77.4773Z" fill="#455A64"/>
  <path d="M112.931 76.8746C112.975 76.8395 113.004 76.7885 113.011 76.7324C113.018 76.6763 113.003 76.6196 112.969 76.5745C112.896 76.4869 112.793 76.4307 112.679 76.4175C112.209 76.3868 111.742 76.5159 111.354 76.7839C110.937 76.983 110.554 77.2441 110.216 77.5584C110.125 77.6526 110.035 77.7852 110.084 77.9073C110.109 77.9544 110.146 77.9942 110.191 78.0229C110.237 78.0516 110.288 78.0683 110.342 78.0713C110.585 78.1115 110.834 78.0592 111.04 77.9248C110.703 78.0306 110.402 78.2274 110.171 78.4935C110.123 78.5376 110.087 78.592 110.064 78.6525C110.041 78.713 110.032 78.778 110.038 78.8424C110.061 78.9148 110.108 78.977 110.172 79.0179C110.236 79.0587 110.312 79.0757 110.387 79.0657C110.536 79.045 110.677 78.9887 110.799 78.9017C110.493 78.9662 110.216 79.1262 110.007 79.3588C109.94 79.4189 109.898 79.5027 109.892 79.5925C109.892 79.767 110.101 79.8717 110.276 79.8612C110.448 79.829 110.623 79.8103 110.799 79.8054C110.62 79.8148 110.446 79.8674 110.292 79.9585C110.137 80.0496 110.007 80.1766 109.913 80.3287C109.843 80.4474 109.801 80.6148 109.913 80.7021C109.949 80.7266 109.99 80.7436 110.033 80.752C110.076 80.7604 110.121 80.76 110.164 80.7509L110.541 80.7265C110.745 80.724 110.948 80.6875 111.141 80.6183C111.237 80.5839 111.324 80.5265 111.393 80.4511C111.462 80.3757 111.512 80.2846 111.539 80.1857C111.559 80.0859 111.541 79.9818 111.486 79.8957C111.431 79.8097 111.345 79.7485 111.245 79.7251C111.506 79.6385 111.728 79.4632 111.874 79.2297C111.905 79.1706 111.924 79.1055 111.929 79.0386C111.934 78.9717 111.924 78.9046 111.901 78.8416C111.878 78.7786 111.842 78.7213 111.795 78.6733C111.748 78.6253 111.692 78.5878 111.629 78.5633C111.828 78.2737 112.327 78.2737 112.449 77.9387C112.522 77.7154 112.365 77.4887 112.215 77.3037C112.369 77.2785 112.516 77.2206 112.645 77.134C112.774 77.0473 112.884 76.9339 112.966 76.8013" fill="#FFBE9D"/>
  <path d="M112.313 77.3177C112.132 77.4585 111.934 77.5758 111.724 77.6666C111.498 77.7819 111.265 77.8821 111.026 77.9667C110.884 78.0149 110.74 78.0557 110.593 78.0888C110.508 78.1048 110.42 78.1048 110.335 78.0888C110.284 78.081 110.235 78.0619 110.192 78.0329C110.15 78.004 110.114 77.9658 110.087 77.9213C110.047 77.834 110.036 77.7359 110.057 77.642C110.078 77.5481 110.129 77.4636 110.203 77.4014C110.319 77.3036 110.445 77.2182 110.579 77.1467L111.225 76.7734C111.415 76.6454 111.62 76.5412 111.835 76.4629C111.667 76.6196 111.481 76.7555 111.281 76.8676L110.656 77.2723C110.533 77.3423 110.416 77.4229 110.307 77.5131C110.256 77.5533 110.22 77.6094 110.204 77.6726C110.188 77.7358 110.194 77.8024 110.22 77.862C110.272 77.9632 110.422 77.9736 110.569 77.9457C110.708 77.9164 110.846 77.8791 110.981 77.8341C111.218 77.7595 111.451 77.6722 111.678 77.5724C111.881 77.4659 112.094 77.3806 112.313 77.3177Z" fill="#EB996E"/>
  <path d="M111.844 78.4743C111.705 78.5731 111.552 78.6507 111.39 78.7046L110.877 78.9174L110.574 79.0361C110.452 79.0908 110.316 79.1042 110.187 79.0745C110.148 79.0626 110.112 79.0433 110.081 79.0175C110.05 78.9918 110.024 78.9601 110.005 78.9244C109.977 78.8526 109.977 78.773 110.005 78.7011C110.048 78.5857 110.123 78.4851 110.221 78.4115C110.36 78.285 110.512 78.1739 110.675 78.0801C110.817 77.9789 110.981 77.9131 111.153 77.8882C111.02 77.9932 110.88 78.0888 110.734 78.1743C110.587 78.2798 110.448 78.3965 110.319 78.5232C110.245 78.5831 110.187 78.6612 110.152 78.75C110.145 78.768 110.142 78.7873 110.143 78.8066C110.144 78.826 110.149 78.8448 110.158 78.862C110.167 78.8792 110.179 78.8942 110.194 78.9062C110.21 78.9182 110.227 78.9268 110.246 78.9314C110.413 78.9803 110.654 78.8407 110.843 78.7884L111.359 78.6069C111.513 78.5393 111.677 78.4946 111.844 78.4743Z" fill="#EB996E"/>
  <path d="M111.406 79.5308C111.267 79.6666 111.095 79.7639 110.908 79.8134C110.71 79.8838 110.503 79.9273 110.293 79.9425C110.223 79.9509 110.152 79.945 110.085 79.9252C110.017 79.9054 109.954 79.8721 109.899 79.8274C109.837 79.7733 109.797 79.6992 109.784 79.618C109.778 79.5747 109.781 79.5306 109.793 79.4886C109.805 79.4466 109.826 79.4075 109.854 79.3738C109.952 79.2681 110.071 79.1837 110.203 79.1261C110.311 79.0633 110.419 79.0074 110.524 78.9551C110.73 78.8504 110.921 78.7632 111.085 78.6969C111.256 78.6118 111.438 78.553 111.626 78.5225C111.473 78.6335 111.306 78.726 111.131 78.7981C110.974 78.8749 110.782 78.9725 110.59 79.0807L110.279 79.2586C110.173 79.3117 110.076 79.3824 109.993 79.468C109.979 79.4858 109.967 79.5063 109.961 79.5285C109.954 79.5506 109.951 79.5739 109.954 79.597C109.956 79.62 109.963 79.6424 109.974 79.6628C109.985 79.6832 110 79.7012 110.018 79.7157C110.098 79.7778 110.199 79.8077 110.3 79.7994C110.5 79.7913 110.698 79.7597 110.89 79.7052C111.204 79.6145 111.396 79.5099 111.406 79.5308Z" fill="#EB996E"/>
  <path d="M110.077 80.8074C110.077 80.8074 110.042 80.8319 109.982 80.8074C109.941 80.7912 109.903 80.7654 109.874 80.732C109.844 80.6987 109.823 80.6588 109.811 80.6155C109.797 80.5511 109.797 80.4841 109.813 80.4199C109.829 80.3557 109.859 80.2961 109.902 80.2457C109.996 80.1329 110.116 80.0443 110.251 79.9875C110.56 79.8054 110.899 79.6801 111.252 79.6177C110.965 79.8222 110.655 79.992 110.328 80.1236C110.21 80.1728 110.103 80.2451 110.014 80.3364C109.982 80.3704 109.957 80.4105 109.941 80.4542C109.925 80.498 109.917 80.5445 109.92 80.5911C109.93 80.7516 110.077 80.7795 110.077 80.8074Z" fill="#EB996E"/>
  <path d="M62.9962 98.5161L62.881 99.357L60.7632 100.404C60.5253 100.477 60.3201 100.63 60.1827 100.837C60.0453 101.045 59.9841 101.294 60.0096 101.541L60.1491 102.867C60.1725 103.109 60.2686 103.339 60.4249 103.526C60.5812 103.713 60.7903 103.848 61.0249 103.914L64.2313 104.821C64.3078 104.842 64.3879 104.849 64.4668 104.839C64.5458 104.83 64.622 104.804 64.6912 104.765C64.7603 104.726 64.821 104.673 64.8696 104.61C64.9182 104.547 64.9539 104.475 64.9744 104.399C65.0097 104.26 64.9939 104.113 64.9299 103.985C64.8658 103.857 64.7578 103.756 64.6255 103.701L62.1623 102.703C62.1301 102.49 62.1763 102.272 62.2925 102.091C62.4086 101.909 62.5868 101.776 62.7938 101.716L65.0687 101.042L65.3513 102.787C65.3729 102.941 65.4493 103.083 65.5664 103.186C65.6836 103.289 65.8337 103.347 65.9898 103.348C66.0321 103.352 66.0746 103.346 66.1146 103.332C66.1546 103.318 66.1912 103.296 66.2219 103.266C66.2525 103.237 66.2766 103.201 66.2925 103.162C66.3085 103.123 66.3159 103.08 66.3142 103.038C66.3631 102.441 66.5794 99.1406 66.5794 99.1406L62.9962 98.5161Z" fill="#FFBE9D"/>
  <path d="M52.9072 149.695C53.0014 150.027 52.9949 150.38 52.8886 150.709C52.7823 151.037 52.5809 151.327 52.3099 151.54C52.0389 151.754 51.7106 151.883 51.3664 151.91C51.0222 151.938 50.6777 151.862 50.3764 151.693C50.0752 151.525 49.8308 151.27 49.6742 150.963C49.5176 150.655 49.4558 150.308 49.4966 149.965C49.5375 149.622 49.6791 149.299 49.9037 149.037C50.1282 148.774 50.4255 148.585 50.758 148.492C51.2026 148.367 51.6785 148.424 52.0813 148.649C52.4842 148.875 52.7812 149.251 52.9072 149.695Z" fill="#263238"/>
  <path d="M51.5981 150.131L52.3587 147.828L51.7656 147.549L51.0469 149.946L51.5981 150.131Z" fill="#455A64"/>
  <path d="M57.7773 122.171L62.0374 104.314L63.3563 104.772L59.2741 122.447L57.7773 122.171Z" fill="#263238"/>
  <path d="M57.4351 118.023L59.0254 118.423C60.3374 118.753 61.4645 119.591 62.1589 120.752C62.8532 121.913 63.0579 123.303 62.7279 124.614L56.7485 148.384C56.6862 148.632 56.528 148.845 56.3088 148.976C56.0896 149.107 55.8273 149.146 55.5797 149.083L45.9634 146.664C45.7158 146.602 45.503 146.444 45.3719 146.225C45.2408 146.006 45.2022 145.743 45.2645 145.496L51.2439 121.726C51.4073 121.076 51.6971 120.465 52.0966 119.927C52.4962 119.39 52.9978 118.936 53.5727 118.592C54.1476 118.248 54.7846 118.021 55.4473 117.924C56.11 117.826 56.7855 117.86 57.4351 118.023Z" fill="#8354BE"/>
  <path d="M60.9453 108.893L62.32 109.253L63.9494 102.784L62.47 102.355L60.9453 108.893Z" fill="#263238"/>
  <path d="M56.7224 148.756C56.7224 148.756 56.7224 148.703 56.7538 148.602C56.7852 148.501 56.8131 148.344 56.855 148.152C56.9527 147.754 57.0887 147.175 57.2667 146.432C57.6156 144.932 58.1529 142.775 58.8018 140.11C59.4508 137.444 60.2323 134.262 61.0976 130.738C61.5303 128.973 61.9838 127.124 62.4583 125.205C62.577 124.723 62.6956 124.242 62.8073 123.753C62.9329 123.273 62.9329 122.768 62.8073 122.288C62.6797 121.797 62.4221 121.35 62.0616 120.994C61.7011 120.638 61.2511 120.385 60.7591 120.263C60.2671 120.141 59.7513 120.155 59.2662 120.302C58.7811 120.449 58.3446 120.724 58.0029 121.098C57.6699 121.468 57.438 121.917 57.3295 122.403C57.2074 122.891 57.0887 123.373 56.9806 123.854L55.6129 129.384C54.7371 132.908 53.9451 136.083 53.2822 138.749C52.6193 141.415 52.0785 143.564 51.7017 145.061L51.2655 146.774C51.2132 146.966 51.1748 147.123 51.1469 147.22C51.119 147.318 51.1016 147.37 51.1016 147.37C51.1016 147.37 51.1016 147.318 51.133 147.217C51.1644 147.116 51.1923 146.959 51.2341 146.767C51.3318 146.369 51.4679 145.79 51.6459 145.047C51.9948 143.546 52.5321 141.39 53.181 138.725C53.83 136.059 54.6115 132.88 55.4768 129.353C55.9094 127.588 56.3665 125.738 56.8375 123.819C56.9562 123.338 57.0725 122.853 57.1864 122.364C57.2986 121.857 57.5388 121.386 57.8842 120.997C58.2435 120.596 58.7052 120.3 59.2198 120.141C59.7345 119.982 60.2826 119.966 60.8057 120.094C61.3287 120.223 61.8068 120.492 62.1889 120.871C62.571 121.251 62.8426 121.727 62.9747 122.249C63.1056 122.754 63.1056 123.283 62.9747 123.788C62.8526 124.276 62.734 124.761 62.6258 125.239C62.1513 127.158 61.6943 129.008 61.2546 130.77C60.3824 134.293 59.5904 137.468 58.9309 140.134C58.2715 142.8 57.7237 144.949 57.3469 146.446L56.9108 148.159C56.8585 148.351 56.8201 148.508 56.7922 148.605C56.7643 148.703 56.7224 148.756 56.7224 148.756Z" fill="#263238"/>
  <path d="M55.0752 131.556C55.0752 131.622 53.7389 131.294 52.12 130.819C50.5011 130.345 49.1927 129.909 49.2032 129.842C49.2137 129.776 50.5395 130.104 52.1619 130.579C53.7843 131.053 55.0892 131.489 55.0752 131.556Z" fill="#263238"/>
  <path d="M62.0215 104.184C61.786 104.156 61.5577 104.085 61.3481 103.974C61.2374 103.927 61.1312 103.869 61.0306 103.803C60.9649 103.764 60.908 103.712 60.8631 103.65C60.825 103.586 60.7923 103.52 60.7654 103.451C60.6689 103.151 60.6057 102.841 60.577 102.526C60.5316 102.205 60.4933 101.902 60.4514 101.609C60.4271 101.471 60.42 101.33 60.4305 101.19C60.4348 101.117 60.4576 101.046 60.4968 100.984C60.5334 100.934 60.5769 100.89 60.6258 100.852C60.8024 100.687 61.0231 100.578 61.2609 100.538C61.2609 100.562 61.0236 100.67 60.7131 100.949C60.674 100.981 60.6399 101.019 60.6119 101.061C60.5914 101.106 60.5807 101.155 60.5805 101.204C60.5791 101.333 60.5919 101.462 60.6189 101.588C60.6607 101.877 60.7061 102.181 60.7549 102.502C60.784 102.803 60.8401 103.101 60.9224 103.392C60.9428 103.453 60.9697 103.511 61.0027 103.566C61.0337 103.611 61.0727 103.65 61.1178 103.681C61.2087 103.749 61.3056 103.809 61.4074 103.859C61.6192 103.953 61.8244 104.062 62.0215 104.184Z" fill="#EB996E"/>
  <path d="M75.1431 96.3085C74.9058 94.2151 74.8221 86.0752 74.8221 86.0752C74.5255 82.2791 74.3825 78.1411 74.1592 75.3883C73.3951 66.0656 79.9998 66.5227 79.9998 66.5227L82.3549 66.5541C85.1461 66.7634 87.2395 68.6475 87.6478 71.2503L93.0383 95.8061L75.1431 96.3085Z" fill="#8354BE"/>
  <path d="M77.1927 67.4439L77.0532 65.6645C77.0447 65.5592 77.0587 65.4533 77.0942 65.3537C77.1297 65.2542 77.1859 65.1634 77.2591 65.0872C77.3323 65.011 77.4208 64.9512 77.5189 64.9118C77.6169 64.8724 77.7222 64.8542 77.8278 64.8585L84.1603 65.1062C84.3529 65.1135 84.5352 65.1948 84.6691 65.3333C84.8031 65.4718 84.8783 65.6567 84.8791 65.8494V67.9149L77.1927 67.4439Z" fill="#8354BE"/>
  <path d="M70.5492 82.8656L79.5543 74.7571C79.5543 74.7571 82.5235 69.3247 77.0492 67.3046C77.0492 67.3046 77.105 67.1231 72.6356 70.975C69.9421 73.2987 67.2311 75.6573 65.5075 77.1646C64.9238 77.673 64.4481 78.2936 64.1089 78.9895C63.7697 79.6853 63.5737 80.4423 63.5327 81.2153L62.5977 98.4476L68.6232 99.4943L70.5492 82.8656Z" fill="#8354BE"/>
  <path d="M89.4925 70.3973L94.1887 79.235L105.05 77.3509L106.411 83.0415L93.7421 86.3386C93.1601 86.5225 92.5392 86.5454 91.9453 86.4049C91.3806 86.2704 90.8597 85.9937 90.4322 85.601C90.0047 85.2083 89.6848 84.7127 89.503 84.1615L84.88 72.1418C84.4578 71.0497 83.5786 68.7993 84.4439 68.0038L83.8438 67.8468C85.2498 66.5349 88.5679 68.3039 89.4925 70.3973Z" fill="#8354BE"/>
  <path d="M93.3513 82.964C93.2289 82.7981 93.1476 82.6056 93.114 82.4023C93.0037 81.9189 93.0037 81.4168 93.114 80.9334C93.2223 80.4492 93.4368 79.9952 93.742 79.6041C93.9828 79.311 94.1782 79.1784 94.1921 79.1959C94.0861 79.3647 93.9696 79.5267 93.8432 79.6808C93.5804 80.0733 93.3924 80.511 93.2885 80.9718C93.1915 81.4308 93.1785 81.9037 93.2501 82.3674C93.2967 82.5638 93.3306 82.7631 93.3513 82.964Z" fill="#263238"/>
  <path d="M70.5542 82.9426C70.3184 82.5956 70.0584 82.2657 69.7762 81.9552C69.4535 81.6889 69.1118 81.4463 68.7539 81.2295C69.1857 81.3145 69.5844 81.5208 69.9032 81.8242C70.2221 82.1276 70.4479 82.5155 70.5542 82.9426Z" fill="#263238"/>
  <path d="M91.0311 72.8383C91.0311 72.8871 86.457 72.929 80.8222 72.929C75.1874 72.929 70.6133 72.8871 70.6133 72.8383C70.6133 72.7894 75.1839 72.7476 80.8222 72.7476C86.4604 72.7476 91.0311 72.779 91.0311 72.8383Z" fill="#FAFAFA"/>
  <path d="M71.9883 71.5247H90.2289L86.9736 69.7209L84.0464 71.3538L80.355 69.5604L77.0474 71.277L74.4655 69.3999L71.9883 71.5247Z" fill="#FAFAFA"/>
  <path d="M93.0537 77.2689C93.0537 77.3178 86.8851 77.3597 79.279 77.3597C71.6729 77.3597 65.5078 77.3178 65.5078 77.2689C65.5078 77.2201 71.6729 77.1782 79.279 77.1782C86.8851 77.1782 93.0537 77.2201 93.0537 77.2689Z" fill="#FAFAFA"/>
  <path d="M70.875 75.9599H89.7088L86.4535 74.156L83.5262 75.7924L79.8383 73.999L76.5272 75.7121L73.7011 73.999L70.875 75.9599Z" fill="#FAFAFA"/>
  <path d="M91.3848 73.999L89.7031 75.9599H92.4281L91.3848 73.999Z" fill="#FAFAFA"/>
  <path d="M70.9519 75.9602L69.2178 73.9365L66.8906 75.9602H70.9519Z" fill="#FAFAFA"/>
  <path d="M78.9266 75.7407C78.8411 75.8541 78.7414 75.9561 78.63 76.0443L77.7717 76.8153C77.039 77.4573 76.0272 78.34 74.8933 79.3065C73.7594 80.273 72.7301 81.1348 71.98 81.7488L71.0833 82.4745C70.9763 82.5696 70.8593 82.6526 70.7344 82.7223C70.8199 82.6089 70.9196 82.5069 71.0309 82.4187L71.8927 81.6476C72.6219 81.0057 73.6372 80.1229 74.7677 79.16C75.8981 78.197 76.9274 77.3282 77.681 76.7177L78.5777 75.9884C78.6846 75.8934 78.8016 75.8103 78.9266 75.7407Z" fill="#263238"/>
  <path d="M85.3923 67.2973L74.6914 92.4497L75.0124 95.4189L86.9763 67.9114C86.8033 67.6631 86.5601 67.472 86.278 67.3626C85.9958 67.2532 85.6874 67.2305 85.3923 67.2973Z" fill="#455A64"/>
  <path d="M75.3418 92.4546H74.0125C73.5027 92.4554 73.0123 92.6502 72.6409 92.9995C72.2696 93.3488 72.0452 93.8264 72.0133 94.3352L71.3399 105.088C71.3221 105.371 71.3646 105.654 71.4644 105.92C71.5642 106.185 71.7192 106.426 71.919 106.626C72.1189 106.827 72.359 106.983 72.6237 107.085C72.8883 107.186 73.1714 107.23 73.4542 107.213C73.9646 107.184 74.4443 106.96 74.7953 106.589C75.1462 106.217 75.3417 105.725 75.3418 105.214V92.4546Z" fill="#455A64"/>
  <path d="M76.0701 93.015C76.0875 93.015 75.92 93.343 75.6688 93.8699C75.5397 94.1315 75.3897 94.442 75.2118 94.7875C75.1198 94.9815 74.9864 95.153 74.821 95.2899C74.7258 95.3711 74.6083 95.4219 74.4839 95.4356C74.3595 95.4493 74.2338 95.4253 74.1232 95.3666C74.0205 95.2999 73.9341 95.211 73.8701 95.1066C73.8061 95.0022 73.7662 94.8848 73.7534 94.763C73.7385 94.5476 73.7731 94.3316 73.8545 94.1315C74.0011 93.7617 74.1546 93.4581 74.2767 93.1895C74.3958 92.8964 74.5418 92.6149 74.7128 92.3486C74.6366 92.6561 74.5303 92.9553 74.3953 93.2418C74.2907 93.5105 74.1441 93.835 74.015 94.1873C73.9455 94.3636 73.9169 94.5532 73.9313 94.7421C73.942 94.8362 73.9731 94.9268 74.0226 95.0076C74.072 95.0883 74.1385 95.1573 74.2174 95.2096C74.2977 95.2525 74.3892 95.2698 74.4796 95.2592C74.5701 95.2486 74.6551 95.2106 74.7233 95.1503C74.8705 95.0298 74.9896 94.8786 75.0722 94.7072L75.5642 93.8105C75.6937 93.5224 75.864 93.2545 76.0701 93.015Z" fill="#263238"/>
  <path d="M74.3755 95.2671C74.4037 95.4271 74.4142 95.5897 74.407 95.7521C74.407 96.101 74.407 96.5441 74.407 97.0779C74.407 98.1979 74.4069 99.7435 74.3825 101.453C74.3825 102.304 74.3581 103.117 74.3441 103.861C74.3729 104.524 74.3 105.187 74.1278 105.828C73.9939 106.265 73.7237 106.648 73.3568 106.92C73.2577 106.99 73.1497 107.047 73.0358 107.088C72.996 107.105 72.9535 107.116 72.9102 107.119C73.0498 107.041 73.1849 106.955 73.3149 106.861C73.6511 106.583 73.8945 106.21 74.0127 105.79C74.1624 105.158 74.2199 104.509 74.1837 103.861C74.1837 103.114 74.1837 102.304 74.2081 101.45C74.229 99.7435 74.2569 98.1979 74.2883 97.0779C74.3058 96.5441 74.3197 96.101 74.3302 95.7521C74.3323 95.5894 74.3474 95.4273 74.3755 95.2671Z" fill="#263238"/>
  <path d="M74.9207 94.3446C74.9214 94.4104 74.9025 94.475 74.8663 94.53C74.8302 94.5851 74.7784 94.6281 74.7177 94.6536C74.657 94.6791 74.5901 94.686 74.5255 94.6733C74.4608 94.6606 74.4015 94.629 74.3549 94.5824C74.3083 94.5359 74.2767 94.4765 74.264 94.4119C74.2513 94.3473 74.2582 94.2803 74.2837 94.2196C74.3092 94.1589 74.3523 94.1072 74.4073 94.071C74.4623 94.0349 74.5269 94.0159 74.5927 94.0166C74.6797 94.0166 74.7631 94.0512 74.8247 94.1127C74.8862 94.1742 74.9207 94.2576 74.9207 94.3446Z" fill="#263238"/>
  <path d="M91.9262 90.7426C91.8973 90.6864 91.8762 90.6265 91.8634 90.5646C91.825 90.4285 91.7796 90.2576 91.7203 90.0482C91.6017 89.5982 91.4377 88.9457 91.2423 88.1363C90.8516 86.5208 90.3456 84.2774 89.8223 81.7932C89.2989 79.309 88.8488 77.0516 88.5313 75.4187C88.3813 74.6198 88.2557 73.9673 88.1824 73.4823C88.1441 73.2695 88.1162 73.0951 88.0917 72.9555C88.0754 72.8941 88.0683 72.8306 88.0708 72.7671C88.0965 72.8252 88.1152 72.8861 88.1266 72.9485L88.2522 73.4684C88.3569 73.9499 88.4999 74.5988 88.6744 75.3943C89.0233 77.0446 89.4943 79.2811 90.0177 81.7548C90.541 84.2285 91.026 86.4825 91.3854 88.1083L91.8075 90.0308L91.9157 90.5576C91.9277 90.6185 91.9313 90.6807 91.9262 90.7426Z" fill="#263238"/>
  <path d="M84.9003 67.331C84.9003 67.3833 83.1733 67.4252 81.0624 67.4252C78.9515 67.4252 77.207 67.3833 77.207 67.331C77.207 67.2786 78.9341 67.2402 81.0624 67.2402C83.1907 67.2402 84.9003 67.2821 84.9003 67.331Z" fill="#263238"/>
  <path d="M78.4696 67.2989C78.3487 66.5104 78.3487 65.708 78.4696 64.9194C78.5906 65.708 78.5906 66.5104 78.4696 67.2989Z" fill="#263238"/>
  <path d="M80.204 67.2999C80.083 66.5277 80.083 65.7414 80.204 64.9692C80.325 65.7414 80.325 66.5277 80.204 67.2999Z" fill="#263238"/>
  <path d="M81.7352 67.2531C81.6143 66.5114 81.6143 65.7549 81.7352 65.0132C81.8562 65.7549 81.8562 66.5114 81.7352 67.2531Z" fill="#263238"/>
  <path d="M83.5555 67.3669C83.4346 66.6099 83.4346 65.8385 83.5555 65.0815C83.6765 65.8385 83.6765 66.6099 83.5555 67.3669Z" fill="#263238"/>
  <path d="M83.2656 95.9357L98.8372 146.164L105.637 143.01L92.9547 95.4229L83.2656 95.9357Z" fill="#263238"/>
  <path d="M75.1481 96.311L75.9576 122.461L63.3203 140.091L70.1623 144.487L85.1861 126.278C85.9435 125.363 86.3548 124.211 86.3479 123.023L86.2188 95.8086L75.1481 96.311Z" fill="#263238"/>
  <path d="M79.2898 96.1196C79.2898 96.1196 79.3387 96.1929 79.384 96.3429C79.4487 96.5554 79.4908 96.7741 79.5096 96.9954C79.57 97.731 79.4288 98.4692 79.1014 99.1307C78.7856 99.7976 78.2979 100.368 77.6884 100.784C77.4484 100.971 77.173 101.106 76.8789 101.182C76.8789 101.154 77.179 101.015 77.6116 100.683C78.175 100.251 78.6291 99.6933 78.9374 99.0539C79.2514 98.4168 79.4036 97.7122 79.3805 97.0024C79.3666 96.4581 79.2584 96.1266 79.2898 96.1196Z" fill="#455A64"/>
  <path d="M93.4238 99.1441C93.2083 99.1076 93.0034 99.0242 92.8237 98.8999C91.9032 98.3636 91.2312 97.4861 90.9536 96.4575C90.8875 96.248 90.8649 96.0272 90.8873 95.8086C91.0818 96.5023 91.392 97.1581 91.8049 97.7485C92.2603 98.3033 92.808 98.7754 93.4238 99.1441Z" fill="#455A64"/>
  <path d="M82.4092 96.0513C82.4129 96.0954 82.4129 96.1397 82.4092 96.1839C82.4092 96.2781 82.4266 96.4072 82.4406 96.5676C82.4615 96.9166 82.4964 97.4155 82.5348 98.054C82.615 99.3414 82.7232 101.194 82.8244 103.514C82.9256 105.834 83.0093 108.57 82.9918 111.626C82.9918 113.151 82.943 114.766 82.8732 116.417C82.8034 118.067 82.7371 119.812 82.2557 121.528C81.7742 123.245 80.7868 124.721 79.8133 126.064C78.8399 127.407 77.8316 128.656 76.893 129.863C75.0229 132.274 73.3133 134.427 71.8653 136.227C70.4174 138.028 69.2346 139.472 68.4112 140.467L67.4552 141.608L67.204 141.901C67.1769 141.936 67.1466 141.969 67.1133 141.998C67.1366 141.961 67.1622 141.925 67.19 141.89L67.4273 141.583L68.3554 140.421C69.1683 139.406 70.3302 137.948 71.7642 136.147C73.1981 134.347 74.9043 132.177 76.7604 129.762L79.6703 125.959C80.6577 124.633 81.6346 123.189 82.0952 121.497C82.5557 119.805 82.6429 118.081 82.7127 116.424C82.7825 114.766 82.8279 113.165 82.8418 111.64C82.8697 108.591 82.7999 105.841 82.7127 103.535C82.6255 101.229 82.5383 99.3728 82.4824 98.0749C82.4545 97.4364 82.4371 96.9375 82.4196 96.5886C82.4196 96.4246 82.4196 96.299 82.4196 96.2013C82.4113 96.1517 82.4078 96.1015 82.4092 96.0513Z" fill="#455A64"/>
  <path d="M102.418 144.089C102.369 144.089 99.3367 133.273 95.6453 119.878C91.954 106.484 89.0162 95.6297 89.0511 95.6157C89.086 95.6018 92.1319 106.432 95.8233 119.83C99.5147 133.227 102.466 144.075 102.418 144.089Z" fill="#455A64"/>
  <path d="M157.147 98.7334H137.766V101.396H157.147V98.7334Z" fill="#263238"/>
  <path d="M157.174 101.428H137.719V98.6963H157.174V101.428ZM137.792 101.362H157.107V98.7626H137.785L137.792 101.362Z" fill="#263238"/>
  <path d="M139.562 100.507L142.354 114.272H152.678L155.375 101.394L139.562 100.507Z" fill="#263238"/>
  <path d="M139.562 112.97L141.052 115.015H153.599L155.375 112.97H139.562Z" fill="#263238"/>
  <path d="M146.71 100.912C146.672 100.912 146.623 94.5371 146.602 86.6729C146.581 78.8086 146.602 72.4307 146.63 72.4307C146.658 72.4307 146.717 78.8051 146.742 86.6729C146.766 94.5406 146.756 100.912 146.71 100.912Z" fill="#263238"/>
  <path d="M151.033 84.9502C151.021 85.0008 151.004 85.05 150.981 85.0967L150.807 85.5119L150.681 85.8085C150.643 85.9201 150.597 86.0423 150.552 86.1574C150.506 86.2725 150.454 86.4261 150.402 86.5726C150.349 86.7191 150.311 86.8796 150.259 87.0436C150.028 87.8221 149.847 88.6145 149.718 89.4161C149.566 90.3999 149.465 91.391 149.418 92.3853C149.346 94.194 149.397 96.0055 149.571 97.8073C149.634 98.5051 149.697 99.0563 149.742 99.4436C149.76 99.625 149.777 99.7716 149.791 99.8902C149.797 99.9424 149.797 99.9951 149.791 100.047C149.774 99.9975 149.762 99.946 149.756 99.8937C149.735 99.7786 149.711 99.632 149.68 99.4506C149.62 99.0668 149.54 98.5085 149.467 97.8177C149.263 96.0122 149.198 94.1938 149.271 92.3783C149.321 91.379 149.426 90.3831 149.585 89.3952C149.724 88.5903 149.915 87.7954 150.158 87.0157C150.213 86.8517 150.259 86.6912 150.311 86.5412C150.363 86.3912 150.423 86.2586 150.472 86.1295L150.615 85.7806C150.66 85.6724 150.709 85.5747 150.751 85.484L150.95 85.0828C150.972 85.0353 151 84.9907 151.033 84.9502Z" fill="#263238"/>
  <path d="M150.553 79.7979C150.537 79.869 150.516 79.939 150.49 80.0072L150.288 80.6003L150.141 81.026L149.984 81.5424C149.872 81.9122 149.74 82.3309 149.635 82.8019C149.576 83.0392 149.51 83.2834 149.443 83.5381L149.262 84.3475C149.126 84.9023 149.028 85.5024 148.913 86.1339C148.7 87.4004 148.512 88.7995 148.383 90.2754C148.254 91.7513 148.205 93.1678 148.187 94.4622C148.17 95.7567 148.187 96.9046 148.254 97.8745C148.271 98.3595 148.299 98.7991 148.327 99.1864C148.355 99.5737 148.372 99.9016 148.397 100.174C148.421 100.446 148.432 100.641 148.445 100.798C148.449 100.872 148.449 100.945 148.445 101.018C148.426 100.947 148.415 100.875 148.411 100.802C148.39 100.645 148.365 100.453 148.337 100.177C148.309 99.9016 148.271 99.5772 148.243 99.1899C148.215 98.8026 148.17 98.3665 148.149 97.8815C148.083 96.908 148.055 95.7497 148.055 94.4622C148.055 93.1748 148.114 91.7582 148.236 90.2754C148.358 88.7926 148.561 87.39 148.78 86.12C148.91 85.4919 149.011 84.8883 149.154 84.3301C149.217 84.051 149.283 83.7823 149.342 83.5241C149.401 83.2659 149.482 83.0217 149.544 82.7879C149.67 82.3169 149.806 81.8982 149.928 81.5284L150.096 81.0155L150.256 80.5933L150.483 80.0072C150.5 79.9354 150.523 79.8653 150.553 79.7979Z" fill="#263238"/>
  <path d="M145.494 102.042C145.49 102.016 145.49 101.99 145.494 101.965L145.477 101.745C145.477 101.543 145.442 101.26 145.418 100.901C145.372 100.157 145.306 99.1003 145.226 97.7954C145.055 95.1751 144.814 91.55 144.371 87.569C144.144 85.5768 143.886 83.6857 143.614 81.9866C143.467 81.1318 143.338 80.3153 143.188 79.5443C143.038 78.7732 142.905 78.0824 142.769 77.4508C142.633 76.8193 142.501 76.2297 142.386 75.7063C142.27 75.183 142.166 74.7608 142.075 74.4049C141.984 74.049 141.922 73.7839 141.873 73.585C141.852 73.4978 141.838 73.428 141.824 73.3687C141.819 73.3445 141.819 73.3196 141.824 73.2954C141.824 73.2954 141.824 73.3198 141.848 73.3652L141.911 73.578C141.963 73.7734 142.04 74.0455 142.138 74.3945C142.236 74.7434 142.351 75.183 142.487 75.6889C142.623 76.1948 142.755 76.774 142.888 77.4334C143.021 78.0928 143.185 78.7802 143.324 79.5268C143.464 80.2735 143.614 81.1004 143.764 81.9691C144.043 83.6857 144.308 85.5803 144.531 87.5725C144.974 91.5605 145.201 95.1856 145.344 97.8128C145.418 99.1247 145.466 100.185 145.498 100.922C145.498 101.27 145.519 101.564 145.529 101.766C145.529 101.857 145.529 101.93 145.529 101.986C145.52 102.006 145.508 102.024 145.494 102.042Z" fill="#263238"/>
  <path d="M146.569 75.4934C146.485 74.5898 145.571 73.9059 144.664 73.8989C144.21 73.9186 143.766 74.0416 143.366 74.2587C142.967 74.4757 142.622 74.7811 142.358 75.1515C141.835 75.8953 141.458 76.731 141.245 77.6147C140.581 79.7348 140.344 81.9654 140.547 84.1776C140.763 86.4061 141.726 88.4962 143.279 90.1089C143.39 90.2514 143.533 90.3651 143.697 90.4404C143.861 90.5157 144.041 90.5504 144.221 90.5416C144.409 90.4826 144.58 90.377 144.716 90.2346C146.266 88.8217 147.496 87.0934 148.323 85.1658C149.15 83.2383 149.555 81.1561 149.51 79.0592C149.538 78.218 149.332 77.3857 148.914 76.6553C148.45 75.9574 147.372 75.2178 146.583 75.5004" fill="#FED150"/>
  <path d="M139.789 68.2448L138.512 70.558C138.484 70.6104 138.442 70.6732 138.382 70.6767C138.323 70.6802 138.264 70.6208 138.229 70.5615L134.852 65.3908L135.63 64.9512L139.789 68.2448Z" fill="#FAEC57"/>
  <g opacity="0.2">
    <path d="M139.804 68.2443L138.527 70.5576C138.499 70.6099 138.457 70.6727 138.398 70.6762C138.339 70.6797 138.279 70.6204 138.245 70.561L134.867 65.3903L135.645 64.9507L139.804 68.2443Z" fill="black"/>
  </g>
  <path d="M146.639 72.4324L135.125 65.6323C135.006 65.5625 134.877 65.4822 134.842 65.3497C134.807 65.2171 134.926 65.0007 135.048 64.8856C135.84 64.0638 136.801 63.4224 137.863 63.0052C138.926 62.5879 140.066 62.4046 141.206 62.4677C142.348 62.5478 143.453 62.9047 144.425 63.5078C145.398 64.1109 146.209 64.9418 146.789 65.9288C147.898 67.9176 147.936 70.5448 146.659 72.4324" fill="#FED150"/>
  <path d="M136.789 63.4563C136.789 63.4563 136.838 63.4563 136.939 63.4354C137.04 63.4145 137.183 63.4145 137.375 63.4145C137.911 63.4093 138.446 63.4525 138.973 63.5436C139.759 63.6778 140.525 63.9123 141.252 64.2414C142.143 64.6416 142.966 65.1771 143.694 65.8289C145.007 67.0329 145.956 68.5815 146.433 70.2983C146.576 70.8155 146.671 71.3445 146.719 71.8789C146.74 72.0673 146.736 72.2278 146.74 72.3115C146.746 72.3625 146.746 72.414 146.74 72.465C146.705 72.2722 146.681 72.0777 146.666 71.8823C146.601 71.3557 146.492 70.8353 146.342 70.3262C145.858 68.6341 144.91 67.1113 143.606 65.9304C142.301 64.7494 140.691 63.9577 138.959 63.6448C138.438 63.5462 137.909 63.4902 137.379 63.4773C136.998 63.4598 136.789 63.4668 136.789 63.4563Z" fill="#263238"/>
  <path d="M145.078 67.7383C144.895 67.8487 144.699 67.9377 144.495 68.0035C144.147 68.1465 143.616 68.3314 143.044 68.5128C142.472 68.6943 141.942 68.8408 141.558 68.935C141.354 69.0016 141.143 69.0414 140.93 69.0536C141.124 68.9644 141.326 68.8931 141.533 68.8408L143.002 68.3838L144.464 67.9092C144.662 67.8303 144.868 67.773 145.078 67.7383Z" fill="#263238"/>
  <path d="M143.267 62.8604C143.427 63.7096 143.449 64.5789 143.334 65.4353C143.277 65.0086 143.255 64.578 143.267 64.1478C143.234 63.7193 143.234 63.2888 143.267 62.8604Z" fill="#263238"/>
  <path d="M135.023 65.4966C135.294 65.375 135.574 65.2769 135.861 65.2035C136.384 65.0396 137.113 64.8546 137.926 64.6418C138.739 64.429 139.479 64.2929 140.02 64.1987C140.309 64.1348 140.603 64.0951 140.899 64.0801C140.619 64.1746 140.332 64.2469 140.041 64.2964C139.507 64.415 138.767 64.579 137.947 64.7744C137.127 64.9698 136.405 65.1582 135.875 65.2977C135.596 65.3832 135.311 65.4497 135.023 65.4966Z" fill="#263238"/>
  <path d="M141.334 73.3525C140.343 72.5988 139.297 72.4523 138.055 72.5012C136.809 72.5846 135.591 72.8993 134.461 73.4292C132.518 74.2806 130.693 75.5227 129.531 77.309C128.369 79.0954 127.968 81.4331 128.833 83.3695C128.901 83.5718 129.042 83.742 129.227 83.8475C129.443 83.9076 129.672 83.8903 129.876 83.7986C132.085 83.0764 134.311 82.3472 136.345 81.2202C138.379 80.0933 140.225 78.5197 141.317 76.4682C141.598 75.9841 141.776 75.4472 141.84 74.8911C141.87 74.6132 141.84 74.3319 141.753 74.0665C141.665 73.8011 141.521 73.5576 141.331 73.3525" fill="#FED150"/>
  <path d="M141.363 73.1273C141.313 73.154 141.26 73.1751 141.206 73.1901L140.742 73.3505L140.393 73.4622L139.998 73.6157C139.719 73.7274 139.395 73.8425 139.053 74.0065L138.512 74.2542C138.324 74.3414 138.135 74.4461 137.936 74.5473C137.539 74.7462 137.131 74.9974 136.701 75.2451C135.78 75.8233 134.906 76.4719 134.085 77.185C133.273 77.9099 132.517 78.6948 131.824 79.5331C131.517 79.9309 131.217 80.3007 130.969 80.6705C130.843 80.8554 130.714 81.0194 130.62 81.2043C130.526 81.3893 130.404 81.5533 130.306 81.7103C130.097 82.0278 129.957 82.3348 129.797 82.6C129.723 82.7325 129.654 82.8512 129.594 82.9489L129.441 83.2699C129.35 83.4478 129.28 83.5943 129.224 83.706C129.201 83.7586 129.173 83.8088 129.141 83.856C129.152 83.8002 129.17 83.7462 129.196 83.6955C129.249 83.5804 129.312 83.4304 129.392 83.2454C129.437 83.1477 129.483 83.0396 129.535 82.921C129.587 82.8023 129.657 82.6802 129.727 82.5441C129.87 82.279 130.016 81.965 130.222 81.644C130.32 81.48 130.421 81.2951 130.529 81.1276C130.637 80.9601 130.767 80.7787 130.878 80.5903C131.122 80.2135 131.422 79.8367 131.729 79.4354C133.103 77.7229 134.764 76.2624 136.639 75.1195C137.075 74.8648 137.483 74.6171 137.888 74.4217C138.09 74.324 138.278 74.2193 138.47 74.1321L139.018 73.8948C139.367 73.7309 139.691 73.6262 139.978 73.518L140.375 73.375L140.724 73.2738L141.195 73.1412C141.25 73.1304 141.307 73.1257 141.363 73.1273Z" fill="#263238"/>
  <path d="M133.611 77.3149C132.823 77.6202 132.018 77.88 131.2 78.093C130.398 78.3517 129.583 78.5672 128.758 78.7385C129.547 78.4351 130.351 78.1753 131.169 77.9604C131.971 77.7032 132.786 77.4877 133.611 77.3149Z" fill="#263238"/>
  <path d="M133.499 82.6337C133.458 82.3857 133.441 82.1347 133.446 81.8835C133.446 81.4195 133.446 80.7775 133.446 80.0692C133.446 79.361 133.502 78.719 133.54 78.255C133.546 78.0033 133.579 77.753 133.638 77.5083C133.658 77.7591 133.658 78.0111 133.638 78.2619C133.638 78.7713 133.603 79.3889 133.582 80.0727C133.561 80.7566 133.551 81.3741 133.537 81.8835C133.549 82.1342 133.536 82.3855 133.499 82.6337Z" fill="#263238"/>
  <path d="M138.065 80.3152C138.026 80.3152 137.904 79.0138 137.793 77.4018C137.681 75.7899 137.622 74.4815 137.66 74.478C137.698 74.4745 137.821 75.7794 137.932 77.3914C138.044 79.0033 138.103 80.3117 138.065 80.3152Z" fill="#263238"/>
  <path d="M132.414 74.3489C132.67 74.3158 132.928 74.3076 133.185 74.3244C133.663 74.3244 134.319 74.3244 135.045 74.3663C135.771 74.4082 136.44 74.4186 136.904 74.4466C137.154 74.4484 137.403 74.4741 137.648 74.5233C137.392 74.5517 137.134 74.5587 136.877 74.5442C136.399 74.5442 135.739 74.5268 135.013 74.5059C134.288 74.4849 133.618 74.45 133.154 74.4221C132.906 74.4184 132.658 74.3938 132.414 74.3489Z" fill="#263238"/>
  <path d="M143.795 90.7142C143.782 90.663 143.776 90.6101 143.778 90.5572C143.778 90.4385 143.778 90.2885 143.757 90.1036C143.739 89.7128 143.736 89.1406 143.757 88.4393C143.778 87.738 143.816 86.8972 143.9 85.9691C143.983 85.041 144.119 84.0257 144.304 82.9685C144.489 81.9114 144.727 80.91 144.96 80.0098C145.194 79.1097 145.449 78.3072 145.679 77.6443C145.909 76.9814 146.112 76.4441 146.262 76.0812C146.335 75.9102 146.391 75.7742 146.436 75.6625C146.454 75.6134 146.477 75.5665 146.506 75.5229C146.499 75.5746 146.485 75.6251 146.464 75.673C146.422 75.7846 146.373 75.9277 146.314 76.1021C146.175 76.4685 145.99 77.0058 145.773 77.6757C145.557 78.3456 145.32 79.1446 145.075 80.0412C144.831 80.9379 144.622 81.9393 144.43 82.993C144.238 84.0466 144.112 85.0585 144.015 85.9831C143.917 86.9076 143.868 87.7276 143.844 88.4254C143.819 89.1232 143.805 89.6954 143.809 90.0896C143.809 90.2746 143.809 90.4385 143.809 90.5432C143.81 90.6005 143.805 90.6578 143.795 90.7142Z" fill="#263238"/>
  <path d="M144.391 82.8535C144.257 83.0379 144.102 83.2064 143.93 83.3559C143.634 83.656 143.208 84.0537 142.727 84.4759C142.245 84.8981 141.792 85.2679 141.46 85.5226C141.287 85.6707 141.099 85.8005 140.898 85.9099C141.051 85.7407 141.218 85.5854 141.397 85.4459L142.636 84.3712L143.864 83.2827C144.025 83.1224 144.201 82.9786 144.391 82.8535Z" fill="#263238"/>
  <path d="M148.044 85.7936C147.865 85.5792 147.702 85.3518 147.556 85.1132L146.418 83.4525L145.257 81.8091C145.083 81.5887 144.927 81.3555 144.789 81.1113C144.988 81.3082 145.171 81.5218 145.333 81.7498C145.654 82.1545 146.08 82.7267 146.53 83.3757C146.98 84.0247 147.367 84.6213 147.64 85.0609C147.797 85.2919 147.933 85.5372 148.044 85.7936Z" fill="#263238"/>
  <path d="M146.132 76.5507C146.153 76.5856 144.939 77.3986 143.425 78.3755C141.91 79.3524 140.665 80.12 140.633 80.0781C140.602 80.0363 141.823 79.2303 143.341 78.2569C144.859 77.2834 146.111 76.5193 146.132 76.5507Z" fill="#263238"/>
  <path d="M149.553 80.2414C148.91 79.7129 148.299 79.1479 147.721 78.5492C147.106 77.9851 146.523 77.3863 145.977 76.7559C146.618 77.2863 147.23 77.8524 147.808 78.4515C148.424 79.014 149.006 79.6117 149.553 80.2414Z" fill="#263238"/>
  <path d="M150.406 80.1652L151.453 80.078C152.189 80.0175 152.903 79.7985 153.546 79.436C153.863 79.2519 154.19 79.0876 154.527 78.944C155.814 78.4277 157.248 78.5219 158.63 78.4521C160.897 78.3368 163.118 77.7685 165.161 76.7808C165.281 76.7271 165.38 76.6366 165.444 76.5226C165.66 76.1354 165.263 75.7865 164.921 75.5771C163.176 74.499 161.386 73.4035 159.397 72.8696C157.409 72.3358 155.155 72.423 153.466 73.5884C151.474 74.9596 150.752 77.7752 150.413 80.1652" fill="#FED150"/>
  <path d="M165.47 76.3988C165.41 76.3759 165.351 76.3478 165.296 76.315L164.8 76.0568C164.375 75.8335 163.753 75.4986 162.979 75.1288C162.075 74.6825 161.132 74.3182 160.163 74.0402C158.977 73.7016 157.736 73.6008 156.51 73.7436C155.283 73.8825 154.124 74.38 153.178 75.1741C152.437 75.8614 151.843 76.6924 151.434 77.6164C151.151 78.2361 150.899 78.8696 150.68 79.5145C150.603 79.7308 150.541 79.9052 150.495 80.0378C150.475 80.0999 150.451 80.1606 150.422 80.2192C150.431 80.1552 150.447 80.0922 150.467 80.0308L150.628 79.497C150.828 78.8435 151.068 78.2026 151.346 77.5781C151.747 76.6348 152.342 75.7861 153.091 75.0869C154.05 74.2678 155.232 73.7549 156.486 73.6145C157.729 73.4685 158.989 73.5741 160.191 73.925C161.167 74.2103 162.114 74.5852 163.021 75.045C163.795 75.4323 164.416 75.7777 164.825 76.0185L165.306 76.2976C165.365 76.3239 165.42 76.3579 165.47 76.3988Z" fill="#263238"/>
  <path d="M162.974 77.7405C162.954 77.7719 161.579 76.8927 159.935 75.7762C158.292 74.6597 156.956 73.7282 156.977 73.6828C156.998 73.6374 158.372 74.5306 160.016 75.6471C161.659 76.7636 162.995 77.7091 162.974 77.7405Z" fill="#263238"/>
  <path d="M155.567 72.4678C155.31 73.0838 154.969 73.6615 154.555 74.1844C154.661 73.8672 154.811 73.5665 155.001 73.2912C155.151 72.9919 155.341 72.7148 155.567 72.4678Z" fill="#263238"/>
  <path d="M156.786 78.5434C156.556 78.4501 156.336 78.3331 156.13 78.1945C155.74 77.9572 155.206 77.6083 154.641 77.1966C154.075 76.7849 153.573 76.3941 153.214 76.108C153.01 75.9645 152.821 75.8021 152.648 75.623C152.868 75.7412 153.077 75.8778 153.273 76.0313L154.721 77.078C155.286 77.4862 155.806 77.849 156.183 78.1072C156.396 78.235 156.598 78.3809 156.786 78.5434Z" fill="#263238"/>
  <path d="M151.953 84.5879C150.962 84.3262 149.779 85.2857 149.573 86.2941C149.367 87.3024 149.748 88.3282 150.187 89.2562C151.132 91.3319 152.535 93.1665 154.29 94.6224C156.062 96.0803 158.276 96.8945 160.571 96.9321C160.152 94.9852 160.682 92.9476 160.448 90.9693C160.242 89.2256 159.45 87.6035 158.202 86.3682C156.954 85.133 155.324 84.3577 153.579 84.1692C152.947 84.0995 152.214 84.0018 151.96 84.5879" fill="#FED150"/>
  <path d="M160.548 96.9335C160.499 96.9174 160.452 96.8951 160.409 96.8672C160.277 96.7961 160.152 96.7132 160.036 96.6195C159.62 96.2565 159.285 95.8093 159.055 95.3077C158.898 95.0006 158.706 94.6692 158.549 94.2993L158.015 93.12C157.824 92.6855 157.605 92.2637 157.359 91.857C157.091 91.4257 156.789 91.0162 156.456 90.6324C155.779 89.8334 155.06 89.1425 154.418 88.4831C153.847 87.9067 153.326 87.2822 152.862 86.6165C152.551 86.1648 152.296 85.6775 152.101 85.165C152.039 84.9836 151.993 84.8406 151.969 84.7394C151.954 84.6905 151.943 84.6402 151.938 84.5894C151.938 84.5894 152.007 84.7917 152.15 85.1476C152.364 85.6453 152.629 86.119 152.942 86.5607C153.412 87.215 153.936 87.8289 154.509 88.3959C155.144 89.0483 155.877 89.7357 156.56 90.5416C156.899 90.931 157.205 91.3476 157.475 91.7872C157.721 92.1991 157.94 92.6269 158.131 93.0677L158.654 94.2505C158.818 94.6203 159.003 94.9483 159.142 95.2658C159.361 95.7606 159.677 96.2066 160.07 96.5777C160.36 96.8289 160.555 96.9196 160.548 96.9335Z" fill="#263238"/>
  <path d="M155.414 95.3154C155.418 95.0904 155.448 94.8667 155.505 94.649C155.582 94.2408 155.711 93.6791 155.882 93.0685C156.053 92.4579 156.23 91.9101 156.384 91.5228C156.45 91.3069 156.541 91.0996 156.656 90.9053C156.617 91.1265 156.557 91.3437 156.478 91.5542C156.353 91.9485 156.185 92.4963 156.014 93.1034C155.843 93.7104 155.7 94.2687 155.599 94.6699C155.556 94.8901 155.494 95.1061 155.414 95.3154Z" fill="#263238"/>
  <path d="M160.353 90.5342C160.116 90.5005 159.883 90.4468 159.655 90.3737C159.226 90.262 158.636 90.1085 157.98 89.9585C157.324 89.8085 156.724 89.6968 156.292 89.6096C156.055 89.5807 155.821 89.5293 155.594 89.4561C155.834 89.4502 156.073 89.4701 156.309 89.5154C156.749 89.5712 157.356 89.6724 158.015 89.8224C158.675 89.9724 159.264 90.1399 159.686 90.276C159.917 90.3372 160.141 90.4238 160.353 90.5342Z" fill="#263238"/>
  <path d="M151.734 91.9191C151.741 91.6579 151.776 91.3983 151.839 91.1446C151.926 90.6735 152.066 90.0211 152.251 89.3093C152.436 88.5976 152.635 87.9626 152.792 87.5055C152.862 87.2549 152.956 87.0118 153.074 86.7798C153.031 87.0369 152.967 87.2901 152.882 87.5369C152.753 87.9974 152.572 88.6359 152.387 89.3442C152.202 90.0525 152.038 90.698 151.937 91.1655C151.888 91.4215 151.821 91.6734 151.734 91.9191Z" fill="#263238"/>
  <path d="M158.082 86.3622C158.082 86.4006 156.84 86.2994 155.315 86.1389C153.791 85.9784 152.559 85.8145 152.563 85.79C153.488 85.8166 154.412 85.8911 155.329 86.0133C156.854 86.1634 158.086 86.3239 158.082 86.3622Z" fill="#263238"/>
  <path d="M157.198 101.392C157.198 101.43 152.844 101.461 147.474 101.461C142.104 101.461 137.75 101.43 137.75 101.392C137.75 101.353 142.104 101.322 147.474 101.322C152.844 101.322 157.198 101.346 157.198 101.392Z" fill="#455A64"/>
  <path d="M154.152 106.973C154.152 107.011 151.217 107.043 147.599 107.043C143.981 107.043 141.047 107.011 141.047 106.973C141.047 106.935 143.981 106.903 147.599 106.903C151.217 106.903 154.152 106.949 154.152 106.973Z" fill="#455A64"/>
  <path d="M154.265 107.785C154.265 107.823 151.335 107.855 147.716 107.855C144.098 107.855 141.164 107.823 141.164 107.785C141.164 107.747 144.098 107.719 147.716 107.719C151.335 107.719 154.265 107.747 154.265 107.785Z" fill="#455A64"/>
  <path d="M154.27 106.326C154.27 106.361 151.238 106.392 147.494 106.392C143.751 106.392 140.719 106.361 140.719 106.326C140.719 106.291 143.751 106.256 147.494 106.256C151.238 106.256 154.27 106.274 154.27 106.326Z" fill="#455A64"/>
  <path d="M8.61527 122.218C9.22966 122.268 9.82772 122.441 10.3738 122.727C10.9199 123.013 11.4028 123.405 11.7938 123.882C12.5706 124.842 13.1172 125.968 13.3917 127.172C13.9884 129.478 13.5871 132.189 12.9103 134.471C10.4296 133.561 8.91881 130.891 8.23497 129.489C7.15686 127.273 6.55325 122.616 8.61527 122.218Z" fill="#8354BE"/>
  <path d="M16.4614 137.289C16.0927 136.707 15.8847 136.038 15.8583 135.349C15.832 134.66 15.9883 133.977 16.3113 133.368C16.6436 132.766 17.0923 132.236 17.6314 131.808C18.1705 131.381 18.7892 131.066 19.4515 130.88C20.0585 130.699 20.7668 130.625 21.2902 130.985C21.5257 131.167 21.7083 131.409 21.8193 131.686C21.9303 131.963 21.9656 132.264 21.9217 132.558C21.823 133.147 21.5715 133.699 21.1925 134.16C19.9678 135.789 18.4815 137.139 16.4509 137.3" fill="#8354BE"/>
  <g opacity="0.3">
    <path d="M16.4653 137.289C16.0966 136.707 15.8886 136.037 15.8622 135.348C15.8359 134.66 15.9922 133.976 16.3152 133.367C16.6475 132.765 17.0962 132.235 17.6353 131.808C18.1744 131.381 18.7931 131.065 19.4554 130.88C20.0625 130.698 20.7707 130.625 21.2941 130.984C21.5296 131.167 21.7122 131.409 21.8232 131.685C21.9342 131.962 21.9695 132.263 21.9256 132.558C21.8269 133.146 21.5754 133.699 21.1964 134.159C19.9717 135.789 18.4854 137.139 16.4548 137.299" fill="white"/>
  </g>
  <path d="M13.8128 139.728C13.039 138.498 11.9831 137.469 10.7326 136.727C9.48214 135.986 8.073 135.553 6.62191 135.465C5.88573 135.426 5.003 135.569 4.68899 136.236C4.37498 136.902 4.83204 137.68 5.34144 138.214C6.43151 139.307 7.82073 140.052 9.33391 140.357C10.8471 140.661 12.4165 140.51 13.8442 139.924" fill="#8354BE"/>
  <g opacity="0.3">
    <path d="M13.8167 139.727C13.0429 138.497 11.987 137.468 10.7365 136.726C9.48604 135.985 8.0769 135.552 6.62582 135.464C5.88963 135.425 5.00691 135.568 4.6929 136.235C4.37888 136.901 4.83595 137.679 5.34534 138.213C6.43541 139.306 7.82463 140.051 9.33782 140.356C10.851 140.66 12.4204 140.509 13.8481 139.923" fill="white"/>
  </g>
  <path d="M16.4801 145.197C16.4332 145.037 16.3993 144.874 16.3789 144.709C16.3231 144.395 16.2498 143.934 16.1731 143.366C15.9456 141.883 15.9116 140.377 16.0719 138.886C16.2471 137.382 16.8204 135.952 17.7327 134.744C18.0142 134.386 18.3375 134.063 18.6956 133.781C18.7929 133.704 18.8942 133.631 18.9992 133.565C19.0324 133.537 19.0702 133.514 19.1108 133.499C18.6359 133.89 18.2043 134.331 17.8234 134.814C16.9493 136.019 16.3991 137.428 16.2254 138.907C16.0676 140.386 16.0863 141.88 16.2812 143.355C16.344 143.903 16.3964 144.356 16.4347 144.702C16.4641 144.865 16.4793 145.031 16.4801 145.197Z" fill="#263238"/>
  <path d="M9.38281 125.727C9.42125 125.787 9.45395 125.852 9.48051 125.918L9.73172 126.477C9.94455 126.958 10.2481 127.666 10.6144 128.539C11.3471 130.283 12.331 132.726 13.3533 135.423C14.3756 138.12 15.2479 140.6 15.855 142.401C16.155 143.301 16.3958 144.03 16.5528 144.536C16.626 144.777 16.6853 144.969 16.7342 145.119C16.7567 145.186 16.7741 145.255 16.7865 145.324C16.7504 145.263 16.7223 145.197 16.7028 145.129L16.4935 144.553C16.312 144.037 16.0573 143.318 15.7433 142.439C15.1118 140.653 14.2256 138.189 13.2033 135.482C12.181 132.774 11.2146 130.343 10.5098 128.584C10.1609 127.719 9.87477 127.011 9.6724 126.491C9.5782 126.257 9.50493 126.068 9.4491 125.922C9.42032 125.859 9.3981 125.794 9.38281 125.727Z" fill="#263238"/>
  <path d="M7.79302 137.376C7.95169 137.372 8.11042 137.382 8.26753 137.404C8.45404 137.417 8.63943 137.442 8.82228 137.481C9.06731 137.519 9.30969 137.573 9.548 137.642L9.96669 137.757C10.1097 137.799 10.2563 137.858 10.4063 137.91C10.7316 138.027 11.0507 138.161 11.3623 138.311C12.0695 138.668 12.7382 139.096 13.358 139.588C13.9684 140.093 14.524 140.66 15.0153 141.281C15.2251 141.554 15.4207 141.838 15.6015 142.132C15.6852 142.271 15.7759 142.401 15.8457 142.533L16.0411 142.917C16.1571 143.143 16.2596 143.376 16.3481 143.615C16.4233 143.786 16.4862 143.962 16.5365 144.142C16.5918 144.291 16.6338 144.445 16.6621 144.602C16.6272 144.602 16.4493 143.953 15.9434 142.987L15.741 142.61C15.6678 142.481 15.577 142.355 15.4933 142.219C15.3293 141.944 15.113 141.675 14.9002 141.389C14.4093 140.782 13.8588 140.225 13.2568 139.728C12.6477 139.241 11.9907 138.816 11.296 138.461C10.9924 138.299 10.6802 138.154 10.3609 138.025C10.2109 137.97 10.0714 137.907 9.92831 137.865L9.52009 137.739C8.46989 137.45 7.78604 137.411 7.79302 137.376Z" fill="#263238"/>
  <path d="M11.7578 142.969H20.6967V147.62C20.6967 148.757 20.2449 149.848 19.4408 150.652C18.6366 151.456 17.5459 151.908 16.4087 151.908H16.0598C15.4955 151.91 14.9364 151.8 14.4145 151.586C13.8927 151.371 13.4183 151.056 13.0187 150.657C12.619 150.259 12.3019 149.785 12.0855 149.264C11.8692 148.743 11.7578 148.184 11.7578 147.62V142.969Z" fill="#8354BE"/>
  <path opacity="0.3" d="M11.7578 142.969H20.6967V147.62C20.6967 148.757 20.2449 149.848 19.4408 150.652C18.6366 151.456 17.5459 151.908 16.4087 151.908H16.0598C15.4955 151.91 14.9364 151.8 14.4145 151.586C13.8927 151.371 13.4183 151.056 13.0187 150.657C12.619 150.259 12.3019 149.785 12.0855 149.264C11.8692 148.743 11.7578 148.184 11.7578 147.62V142.969Z" fill="black"/>
  <path d="M17.8016 142.988C17.7834 143.082 17.7492 143.171 17.7004 143.253C17.5866 143.485 17.4536 143.707 17.3027 143.916C16.805 144.617 16.1453 145.187 15.3798 145.577C14.6144 145.968 13.7658 146.168 12.9065 146.16C12.6492 146.16 12.3924 146.138 12.1389 146.093C12.0434 146.085 11.95 146.061 11.8633 146.02C11.8633 145.992 12.2645 146.072 12.91 146.051C13.7449 146.021 14.5636 145.812 15.3104 145.437C16.053 145.053 16.7031 144.511 17.2154 143.85C17.6062 143.344 17.7772 142.978 17.8016 142.988Z" fill="#FAFAFA"/>
  <path d="M20.6141 149.01C20.515 149.004 20.4175 148.983 20.3245 148.948C20.0666 148.867 19.8194 148.756 19.5884 148.616C18.8079 148.159 18.2164 147.438 17.9202 146.584C17.6241 145.729 17.6428 144.797 17.9729 143.955C18.0676 143.702 18.193 143.462 18.3463 143.239C18.3976 143.155 18.4611 143.079 18.5347 143.013C18.3607 143.329 18.208 143.656 18.0776 143.993C17.7844 144.815 17.7799 145.712 18.0646 146.536C18.3494 147.36 18.9065 148.063 19.6442 148.529C19.9566 148.711 20.2806 148.871 20.6141 149.01Z" fill="#FAFAFA"/>
  <path d="M18.3173 151.665C18.3101 151.218 18.2468 150.773 18.1289 150.342C17.983 149.883 17.7574 149.453 17.4625 149.072C17.0995 148.607 16.6506 148.216 16.1402 147.921C15.196 147.397 14.1095 147.188 13.0384 147.324C12.5954 147.392 12.1571 147.489 11.7266 147.614C11.8344 147.545 11.952 147.493 12.0755 147.46C12.3881 147.345 12.7121 147.263 13.0419 147.216C14.1375 147.045 15.2588 147.249 16.2239 147.795C16.7523 148.102 17.2147 148.509 17.5846 148.995C17.8858 149.391 18.1085 149.841 18.2406 150.321C18.3326 150.643 18.3749 150.977 18.3662 151.312C18.3641 151.431 18.3477 151.549 18.3173 151.665Z" fill="#FAFAFA"/>
</svg>
