<svg xmlns="http://www.w3.org/2000/svg" width="188" height="140" viewBox="0 0 188 140" fill="none">
  <path d="M94.0501 140C145.716 140 187.6 115.818 187.6 85.9877C187.6 56.1576 145.716 31.9756 94.0501 31.9756C42.3838 31.9756 0.5 56.1576 0.5 85.9877C0.5 115.818 42.3838 140 94.0501 140Z" fill="#F5F5F5"/>
  <path d="M13.2539 66.6275L125.688 131.543L178.055 101.309L65.6242 36.3999L13.2539 66.6275Z" fill="#E0E0E0"/>
  <path d="M22.8893 95.1871C27.1148 95.1871 30.5402 93.2088 30.5402 90.7684C30.5402 88.328 27.1148 86.3496 22.8893 86.3496C18.6637 86.3496 15.2383 88.328 15.2383 90.7684C15.2383 93.2088 18.6637 95.1871 22.8893 95.1871Z" fill="#E0E0E0"/>
  <path d="M136.484 60.8243C146.352 60.8243 154.351 56.2067 154.351 50.5105C154.351 44.8144 146.352 40.1968 136.484 40.1968C126.616 40.1968 118.617 44.8144 118.617 50.5105C118.617 56.2067 126.616 60.8243 136.484 60.8243Z" fill="#E0E0E0"/>
  <path d="M152.405 47.7723C161.2 38.9776 161.2 24.7186 152.405 15.924C143.611 7.12927 129.352 7.12927 120.557 15.924C111.762 24.7186 111.762 38.9776 120.557 47.7723C129.352 56.567 143.611 56.567 152.405 47.7723Z" fill="#8354BE"/>
  <path opacity="0.3" d="M152.405 47.7723C161.2 38.9776 161.2 24.7186 152.405 15.924C143.611 7.12927 129.352 7.12927 120.557 15.924C111.762 24.7186 111.762 38.9776 120.557 47.7723C129.352 56.567 143.611 56.567 152.405 47.7723Z" fill="black"/>
  <path opacity="0.1" d="M130.773 12.7811C128.668 13.8096 126.59 15.7073 126.791 18.0402C126.878 18.6669 127.088 19.2702 127.409 19.8155C127.73 20.3607 128.155 20.8371 128.661 21.2173C129.676 21.9697 130.787 22.5839 131.965 23.0435L143.817 28.2787C144.962 28.8453 146.177 29.255 147.431 29.4966C148.059 29.6128 148.705 29.6006 149.328 29.4609C149.952 29.3213 150.541 29.0569 151.059 28.6839C152.67 27.3882 152.827 24.9838 152.439 22.9532C150.564 13.1875 139.437 8.53797 130.773 12.7811Z" fill="white"/>
  <g opacity="0.2">
    <path d="M126.102 14.3738C126.276 14.9768 126.609 15.522 127.066 15.9524C127.522 16.3829 128.086 16.6828 128.699 16.8208C130.32 17.2713 132.025 17.3331 133.675 17.0015C135.326 16.6698 136.874 15.9539 138.196 14.9118C138.707 14.5472 139.111 14.0525 139.367 13.4792C139.622 12.9058 139.72 12.2746 139.65 11.6508C139.499 11.1083 139.214 10.6124 138.822 10.2089C138.429 9.80533 137.941 9.5071 137.403 9.34169C136.92 9.32162 136.437 9.31786 135.949 9.34169C136.281 9.4016 136.608 9.48544 136.928 9.59254C137.495 9.65884 138.026 9.90311 138.446 10.2903C138.865 10.6774 139.151 11.1875 139.263 11.7474C139.374 12.3072 139.305 12.888 139.066 13.4063C138.827 13.9246 138.43 14.3537 137.931 14.6322C136.664 15.6331 135.178 16.3206 133.594 16.6386C132.011 16.9566 130.375 16.8961 128.819 16.4621C128.273 16.3398 127.768 16.0769 127.354 15.6994C126.941 15.3218 126.634 14.8428 126.462 14.3098C126.404 13.7545 126.495 13.1935 126.728 12.6859C126.961 12.1783 127.326 11.7428 127.786 11.425C128.112 11.1422 128.465 10.8902 128.838 10.6725C128.355 10.8418 127.883 11.0337 127.421 11.2344C126.948 11.599 126.578 12.0799 126.347 12.6301C126.116 13.1804 126.032 13.7812 126.102 14.3738Z" fill="black"/>
    <path d="M156.684 21.897C156.719 21.9672 156.75 22.0387 156.785 22.1052L156.684 21.897Z" fill="black"/>
    <path d="M157.847 38.9521C156.952 40.5197 155.792 41.9201 154.418 43.0912C147.073 49.5557 133.555 52.2774 124.294 49.1631C122.571 48.6129 120.958 47.766 119.527 46.6608C119.94 47.1362 120.371 47.5877 120.819 48.0242C121.88 48.6401 123.001 49.1445 124.166 49.5293C129.377 50.9729 134.855 51.1705 140.157 50.1062C145.459 49.0418 150.436 46.7454 154.687 43.4023C155.611 42.5969 156.45 41.6978 157.189 40.7194C157.427 40.1299 157.647 39.5567 157.847 38.9521Z" fill="black"/>
    <path d="M153.877 36.3477C146.147 43.1546 131.928 46.0055 122.17 42.7144C118.462 41.4601 115.838 39.4859 114.57 37.0275C114.672 37.4716 114.786 37.9055 114.916 38.3433C116.748 40.6199 119.237 42.2768 122.044 43.0881C127.525 44.6123 133.287 44.822 138.863 43.7C144.44 42.5781 149.673 40.1562 154.137 36.6312C156.413 34.7956 158.068 32.3038 158.878 29.4945C158.831 29.0505 158.768 28.6027 158.694 28.1587C158.461 30.9281 156.811 33.7677 153.877 36.3477Z" fill="black"/>
    <path d="M158.977 32.9995C158.98 33.0903 158.974 33.1811 158.957 33.2704C158.965 33.1801 158.968 33.0898 158.977 32.9995Z" fill="black"/>
    <path d="M122.075 29.4957C126.649 30.7659 131.458 30.9406 136.111 30.0058C140.765 29.0709 145.133 27.0528 148.861 24.115C151.556 21.7582 152.993 19.0979 153.017 16.5505C152.884 16.4051 152.746 16.2683 152.624 16.1304C152.766 18.6953 151.37 21.3983 148.618 23.8202C142.165 29.4882 130.323 31.8801 122.201 29.1308C118.717 27.953 116.392 26.0089 115.524 23.5844C115.454 23.765 115.379 23.9457 115.312 24.13C116.33 26.468 118.67 28.3456 122.075 29.4957Z" fill="black"/>
    <path d="M114.081 29.7164C115.066 32.5761 117.777 34.8588 121.822 36.2247C126.929 37.6447 132.299 37.841 137.496 36.7976C142.693 35.7542 147.571 33.5005 151.735 30.2193C154.943 27.3998 156.554 24.2415 156.358 21.2213C156.192 20.9153 156.024 20.613 155.844 20.3145C156.471 23.4802 154.921 26.893 151.476 29.9296C144.277 36.2611 131.032 38.9201 121.949 35.856C117.596 34.3872 114.848 31.8423 114.204 28.6841C114.152 29.0253 114.113 29.3677 114.078 29.7126L114.081 29.7164Z" fill="black"/>
    <path d="M113.982 30.7949C113.977 30.6488 113.986 30.5027 114.009 30.3584C113.998 30.5039 113.989 30.6494 113.982 30.7949Z" fill="black"/>
    <path d="M124.009 22.7643C127.503 23.7358 131.178 23.8705 134.734 23.1575C138.291 22.4445 141.629 20.9039 144.479 18.6604C146.737 16.6649 147.846 14.426 147.641 12.2975C147.496 12.2147 147.359 12.132 147.214 12.0542C147.54 14.14 146.487 16.3751 144.221 18.3656C139.329 22.6865 130.314 24.4814 124.135 22.3956C121.276 21.4298 119.422 19.7792 118.939 17.7335C118.837 17.8589 118.735 17.9931 118.637 18.1261C119.263 20.1605 121.144 21.8023 124.009 22.7643Z" fill="black"/>
    <path d="M117.797 19.271C117.742 19.35 117.691 19.4315 117.637 19.5143L117.797 19.271Z" fill="black"/>
  </g>
  <path opacity="0.1" d="M130.743 44.7432C117.322 39.5907 115.323 29.6921 116.384 21.7163C114.901 24.661 114.082 27.8955 113.986 31.1913C113.89 34.4871 114.519 37.7638 115.828 40.7899C117.137 43.8161 119.095 46.5178 121.563 48.7043C124.031 50.8908 126.949 52.5086 130.111 53.4436C133.273 54.3786 136.601 54.6079 139.861 54.1153C143.122 53.6226 146.234 52.4201 148.978 50.5927C151.723 48.7652 154.032 46.3575 155.744 43.5394C157.456 40.7214 158.528 37.5618 158.885 34.284C157.841 41.1811 144.147 49.8932 130.743 44.7432Z" fill="black"/>
  <path d="M13.2539 63.8071L125.688 128.723L178.055 98.4886L65.6242 33.5732L13.2539 63.8071Z" fill="#8354BE"/>
  <path opacity="0.8" d="M13.2539 63.8071L125.688 128.723L178.055 98.4886L65.6242 33.5732L13.2539 63.8071Z" fill="white"/>
  <path opacity="0.05" d="M130.575 106.312C131.787 106.387 132.98 106.652 134.11 107.097C134.805 107.568 135.462 108.093 136.074 108.669C137.992 110.456 140.522 111.44 143.143 111.418C145.625 111.477 151.363 109.847 151.391 106.614C151.418 104.608 149.176 103.473 147.314 102.687C136.721 98.3522 127.435 91.3419 120.363 82.342C117.735 78.9844 115.316 75.2718 111.647 73.0881C109.232 71.8308 106.659 70.9059 103.996 70.3388C89.6747 66.4718 76.0059 60.5022 63.4359 52.6249C65.76 48.0455 67.3754 43.1398 68.2272 38.0755C65.1718 37.0069 62.2143 39.6471 59.1965 40.8248C56.9315 41.6378 54.4881 41.8198 52.1275 41.3516L42.1198 47.1287C42.5362 48.5975 43.2035 50.0273 43.6588 51.4923C44.3574 53.7236 44.4439 56.4843 42.6892 58.0433C41.6016 58.8427 40.3231 59.3422 38.9817 59.492L33.483 60.5844C31.9114 60.8942 30.0965 61.3934 29.4844 62.8747C28.7319 64.6859 30.3285 66.6174 32.0017 67.6409C35.116 69.5536 38.8274 70.1707 42.2603 71.4237C50.3076 74.3574 56.6077 80.6927 64.1019 84.8443C69.3107 87.7247 75.0489 89.5205 80.9705 90.1235C87.0862 90.7506 93.3186 90.0884 99.3478 91.2623C104.089 92.1855 108.912 93.4811 113.557 94.8796C116.084 95.5929 118.504 96.6402 120.753 97.9939C121.874 98.6874 122.913 99.504 123.852 100.428C124.679 101.405 125.447 102.43 126.154 103.496C127.199 104.981 128.788 105.993 130.575 106.312Z" fill="black"/>
  <path d="M13.2539 63.8076V64.8286L125.688 129.739V128.722L13.2539 63.8076Z" fill="#8354BE"/>
  <path opacity="0.6" d="M13.2539 63.8076V64.8286L125.688 129.739V128.722L13.2539 63.8076Z" fill="white"/>
  <path d="M125.688 128.725L178.053 98.4907V99.5117L125.688 129.747V128.725Z" fill="#8354BE"/>
  <path opacity="0.45" d="M125.688 128.725L178.053 98.4907V99.5117L125.688 129.747V128.725Z" fill="white"/>
  <path d="M28.2735 81.3328C28.0528 80.5327 27.7528 79.7566 27.3779 79.0161C27.3428 78.9333 27.2989 78.8506 27.2525 78.7653C26.8959 78.0735 26.7153 77.3045 26.7269 76.5263C26.7385 75.748 26.9419 74.9847 27.319 74.3039C27.3428 74.2562 27.3704 74.2098 27.398 74.1622C27.8614 73.3721 28.1004 72.4705 28.0891 71.5546C28.0608 71.0487 27.9088 70.5574 27.6464 70.124C27.384 69.6905 27.0192 69.3282 26.584 69.0686C26.3603 68.9406 26.1281 68.8278 25.8891 68.7312C25.6673 68.6453 25.4766 68.4943 25.3423 68.2979C25.2079 68.1016 25.1362 67.8692 25.1366 67.6313V66.2666H20.7893V67.625C20.789 67.8639 20.716 68.0971 20.58 68.2936C20.444 68.49 20.2515 68.6405 20.028 68.725C19.7872 68.8174 19.5537 68.9276 19.3293 69.0548C18.8933 69.312 18.5269 69.672 18.2619 70.1033C17.9969 70.5346 17.8415 71.0243 17.8092 71.5295C17.7892 72.4521 18.0212 73.3628 18.4802 74.1634C18.504 74.2111 18.5316 74.2537 18.5542 74.2964C18.9272 74.9825 19.1256 75.7499 19.1317 76.5308C19.1378 77.3118 18.9516 78.0822 18.5893 78.7741C18.5467 78.8568 18.5066 78.9396 18.4639 79.0249C18.0828 79.761 17.7761 80.5333 17.5483 81.3302C17.3929 82.1059 17.3218 82.8961 17.3363 83.687L17.3125 90.026C17.3557 90.5147 17.5284 90.9829 17.8128 91.3826C18.0972 91.7823 18.483 92.099 18.9305 92.3C19.8984 92.8314 20.9707 93.1451 22.0724 93.2194C22.5954 93.2624 23.121 93.2624 23.644 93.2194C24.7433 93.1492 25.8148 92.8438 26.7859 92.3238C27.2349 92.1269 27.6233 91.814 27.9112 91.4172C28.1991 91.0204 28.3761 90.5541 28.424 90.0662V85.4831C28.424 84.9137 28.4516 84.3053 28.4516 83.7196C28.4822 82.9198 28.4224 82.1191 28.2735 81.3328Z" fill="#8354BE"/>
  <path opacity="0.3" d="M28.2735 81.3328C28.0528 80.5327 27.7528 79.7566 27.3779 79.0161C27.3428 78.9333 27.2989 78.8506 27.2525 78.7653C26.8959 78.0735 26.7153 77.3045 26.7269 76.5263C26.7385 75.748 26.9419 74.9847 27.319 74.3039C27.3428 74.2562 27.3704 74.2098 27.398 74.1622C27.8614 73.3721 28.1004 72.4705 28.0891 71.5546C28.0608 71.0487 27.9088 70.5574 27.6464 70.124C27.384 69.6905 27.0192 69.3282 26.584 69.0686C26.3603 68.9406 26.1281 68.8278 25.8891 68.7312C25.6673 68.6453 25.4766 68.4943 25.3423 68.2979C25.2079 68.1016 25.1362 67.8692 25.1366 67.6313V66.2666H20.7893V67.625C20.789 67.8639 20.716 68.0971 20.58 68.2936C20.444 68.49 20.2515 68.6405 20.028 68.725C19.7872 68.8174 19.5537 68.9276 19.3293 69.0548C18.8933 69.312 18.5269 69.672 18.2619 70.1033C17.9969 70.5346 17.8415 71.0243 17.8092 71.5295C17.7892 72.4521 18.0212 73.3628 18.4802 74.1634C18.504 74.2111 18.5316 74.2537 18.5542 74.2964C18.9272 74.9825 19.1256 75.7499 19.1317 76.5308C19.1378 77.3118 18.9516 78.0822 18.5893 78.7741C18.5467 78.8568 18.5066 78.9396 18.4639 79.0249C18.0828 79.761 17.7761 80.5333 17.5483 81.3302C17.3929 82.1059 17.3218 82.8961 17.3363 83.687L17.3125 90.026C17.3557 90.5147 17.5284 90.9829 17.8128 91.3826C18.0972 91.7823 18.483 92.099 18.9305 92.3C19.8984 92.8314 20.9707 93.1451 22.0724 93.2194C22.5954 93.2624 23.121 93.2624 23.644 93.2194C24.7433 93.1492 25.8148 92.8438 26.7859 92.3238C27.2349 92.1269 27.6233 91.814 27.9112 91.4172C28.1991 91.0204 28.3761 90.5541 28.424 90.0662V85.4831C28.424 84.9137 28.4516 84.3053 28.4516 83.7196C28.4822 82.9198 28.4224 82.1191 28.2735 81.3328Z" fill="black"/>
  <path opacity="0.1" d="M27.3229 74.3016C27.3467 74.2552 27.3743 74.2075 27.4019 74.1598C27.7912 73.4827 28.0183 72.7245 28.0654 71.9448C27.9722 72.2597 27.8403 72.5618 27.6728 72.8441C27.1373 73.6327 26.4733 74.3258 25.7086 74.8948C24.8799 75.4011 24.2821 76.2114 24.043 77.1525C24.0439 77.6207 24.1646 78.0808 24.3936 78.4891C24.6226 78.8974 24.9522 79.2404 25.3512 79.4854C26.1458 79.9727 26.909 80.5093 27.6364 81.0921C27.9202 81.3801 28.1725 81.6976 28.389 82.0391C28.363 81.8044 28.3249 81.5712 28.2748 81.3405C28.0523 80.5371 27.7498 79.7581 27.3718 79.0151C27.3366 78.9323 27.2927 78.8495 27.2463 78.7642C26.891 78.0715 26.7121 77.3018 26.7254 76.5233C26.7388 75.7449 26.944 74.9817 27.3229 74.3016Z" fill="black"/>
  <path d="M20.0508 67.7493V68.4792C20.0732 68.7403 20.1647 68.9908 20.3159 69.2048C20.4671 69.4188 20.6726 69.5888 20.9112 69.6971C21.5605 70.0245 22.2774 70.195 23.0046 70.195C23.7317 70.195 24.4487 70.0245 25.0979 69.6971C25.3537 69.5595 25.5753 69.3662 25.7464 69.1315C25.8851 68.9467 25.9619 68.7228 25.9659 68.4918V67.7493C25.966 67.6829 25.958 67.6168 25.942 67.5524C25.8845 67.3324 25.7799 67.1275 25.6354 66.9519C25.491 66.7763 25.3102 66.6341 25.1054 66.5351L25.0628 66.5113C24.4195 66.1923 23.7113 66.0264 22.9933 66.0264C22.2753 66.0264 21.567 66.1923 20.9237 66.5113C20.7194 66.6089 20.5381 66.7489 20.3919 66.9219C20.2457 67.0948 20.138 67.2969 20.0759 67.5147C20.0602 67.5919 20.0518 67.6705 20.0508 67.7493Z" fill="#8354BE"/>
  <path opacity="0.1" d="M20.0508 67.7493V68.4792C20.0732 68.7403 20.1647 68.9908 20.3159 69.2048C20.4671 69.4188 20.6726 69.5888 20.9112 69.6971C21.5605 70.0245 22.2774 70.195 23.0046 70.195C23.7317 70.195 24.4487 70.0245 25.0979 69.6971C25.3537 69.5595 25.5753 69.3662 25.7464 69.1315C25.8851 68.9467 25.9619 68.7228 25.9659 68.4918V67.7493C25.966 67.6829 25.958 67.6168 25.942 67.5524C25.8845 67.3324 25.7799 67.1275 25.6354 66.9519C25.491 66.7763 25.3102 66.6341 25.1054 66.5351L25.0628 66.5113C24.4195 66.1923 23.7113 66.0264 22.9933 66.0264C22.2753 66.0264 21.567 66.1923 20.9237 66.5113C20.7194 66.6089 20.5381 66.7489 20.3919 66.9219C20.2457 67.0948 20.138 67.2969 20.0759 67.5147C20.0602 67.5919 20.0518 67.6705 20.0508 67.7493Z" fill="black"/>
  <path opacity="0.2" d="M25.093 68.9672C26.2707 68.3074 26.2707 67.2237 25.093 66.5552C24.4462 66.2239 23.7306 66.0494 23.0039 66.046C22.2772 66.0425 21.5599 66.2101 20.91 66.5351C19.7549 67.1987 19.7323 68.2786 20.91 68.9508C21.5568 69.2825 22.2727 69.4568 22.9995 69.4596C23.7264 69.4624 24.4436 69.2937 25.093 68.9672Z" fill="black"/>
  <path d="M20.0566 66.8946V67.3348C20.0488 67.404 20.0488 67.4738 20.0566 67.543C20.1163 67.7609 20.2222 67.9633 20.3673 68.1364C20.5123 68.3096 20.693 68.4494 20.897 68.5464C21.4655 68.8571 22.0994 69.029 22.747 69.0481C23.5556 69.1073 24.3647 68.9401 25.0837 68.5652C25.3443 68.4326 25.5732 68.2452 25.7547 68.0159C25.8497 67.8861 25.9152 67.7371 25.9466 67.5794C25.9642 67.5127 25.9722 67.4439 25.9704 67.3749V66.9234C25.9478 66.6629 25.8561 66.413 25.7049 66.1997C25.5537 65.9863 25.3483 65.817 25.11 65.7093L24.9532 65.6227C24.3191 65.3319 23.6278 65.1873 22.9303 65.1994C22.2328 65.2116 21.5469 65.3803 20.9233 65.693C20.6853 65.7985 20.4796 65.9653 20.3273 66.1765C20.1751 66.3876 20.0816 66.6354 20.0566 66.8946Z" fill="#8354BE"/>
  <path opacity="0.1" d="M20.0566 66.8946V67.3348C20.0488 67.404 20.0488 67.4738 20.0566 67.543C20.1163 67.7609 20.2222 67.9633 20.3673 68.1364C20.5123 68.3096 20.693 68.4494 20.897 68.5464C21.4655 68.8571 22.0994 69.029 22.747 69.0481C23.5556 69.1073 24.3647 68.9401 25.0837 68.5652C25.3443 68.4326 25.5732 68.2452 25.7547 68.0159C25.8497 67.8861 25.9152 67.7371 25.9466 67.5794C25.9642 67.5127 25.9722 67.4439 25.9704 67.3749V66.9234C25.9478 66.6629 25.8561 66.413 25.7049 66.1997C25.5537 65.9863 25.3483 65.817 25.11 65.7093L24.9532 65.6227C24.3191 65.3319 23.6278 65.1873 22.9303 65.1994C22.2328 65.2116 21.5469 65.3803 20.9233 65.693C20.6853 65.7985 20.4796 65.9653 20.3273 66.1765C20.1751 66.3876 20.0816 66.6354 20.0566 66.8946Z" fill="black"/>
  <path d="M20.0547 66.878C20.0547 67.8212 21.3742 68.5863 23.0085 68.5901C24.6428 68.5938 25.9698 67.8375 25.9735 66.9006C25.9773 65.9637 24.6541 65.1961 23.0198 65.1885C21.3855 65.181 20.0585 65.9423 20.0547 66.878Z" fill="#8354BE"/>
  <path d="M21.995 65.1356V66.667C21.9912 66.692 21.9912 66.7173 21.995 66.7423C22.0157 66.818 22.0524 66.8884 22.1026 66.9488C22.1528 67.0092 22.2153 67.0581 22.286 67.0922C22.4832 67.1982 22.702 67.2574 22.9257 67.2653C23.2058 67.2841 23.4856 67.2255 23.7347 67.096C23.8225 67.0472 23.8986 66.9801 23.9579 66.8991C23.9917 66.8548 24.0156 66.804 24.0282 66.7498C24.0301 66.7264 24.0301 66.7029 24.0282 66.6796V65.1443C24.0211 65.0539 23.9896 64.967 23.937 64.893C23.8844 64.819 23.8128 64.7606 23.7297 64.7242L23.6745 64.6928C23.4549 64.5928 23.2157 64.543 22.9744 64.5471C22.7331 64.5512 22.4958 64.6091 22.2797 64.7166C22.2002 64.756 22.1321 64.8152 22.0822 64.8886C22.0323 64.962 22.0023 65.0471 21.995 65.1356Z" fill="#8354BE"/>
  <path opacity="0.1" d="M21.995 65.1356V66.667C21.9912 66.692 21.9912 66.7173 21.995 66.7423C22.0157 66.818 22.0524 66.8884 22.1026 66.9488C22.1528 67.0092 22.2153 67.0581 22.286 67.0922C22.4832 67.1982 22.702 67.2574 22.9257 67.2653C23.2058 67.2841 23.4856 67.2255 23.7347 67.096C23.8225 67.0472 23.8986 66.9801 23.9579 66.8991C23.9917 66.8548 24.0156 66.804 24.0282 66.7498C24.0301 66.7264 24.0301 66.7029 24.0282 66.6796V65.1443C24.0211 65.0539 23.9896 64.967 23.937 64.893C23.8844 64.819 23.8128 64.7606 23.7297 64.7242L23.6745 64.6928C23.4549 64.5928 23.2157 64.543 22.9744 64.5471C22.7331 64.5512 22.4958 64.6091 22.2797 64.7166C22.2002 64.756 22.1321 64.8152 22.0822 64.8886C22.0323 64.962 22.0023 65.0471 21.995 65.1356Z" fill="black"/>
  <path d="M21.9961 65.1326C21.9961 65.4587 22.4514 65.7221 23.0208 65.7259C23.5902 65.7296 24.0455 65.4662 24.0455 65.1401C24.0455 64.814 23.5903 64.5469 23.0246 64.5469C22.4589 64.5469 21.9999 64.8065 21.9961 65.1326Z" fill="#8354BE"/>
  <path opacity="0.5" d="M22.6641 65.1423C22.6641 65.2564 22.8246 65.3505 23.0253 65.3505C23.226 65.3505 23.3903 65.2602 23.3903 65.1423C23.3903 65.0244 23.2297 64.9341 23.0253 64.9341C22.8208 64.9341 22.6641 65.0169 22.6641 65.1423Z" fill="#8354BE"/>
  <path opacity="0.3" d="M22.6641 65.1423C22.6641 65.2564 22.8246 65.3505 23.0253 65.3505C23.226 65.3505 23.3903 65.2602 23.3903 65.1423C23.3903 65.0244 23.2297 64.9341 23.0253 64.9341C22.8208 64.9341 22.6641 65.0169 22.6641 65.1423Z" fill="black"/>
  <path d="M72.3711 54.3811C72.3711 54.3811 75.0853 32.3237 74.4682 24.2689C74.1547 20.1411 72.1591 19.2017 69.1038 19.4375C66.0484 19.6733 48.5703 28.9623 48.5703 28.9623L51.045 34.9715L65.6044 30.4035C65.6044 30.4035 64.1231 38.9851 63.782 40.6156C63.4408 42.2462 62.7221 44.4411 62.1514 46.409C61.8363 47.3301 61.6128 48.28 61.4842 49.2449C61.4892 50.6811 72.3711 54.3811 72.3711 54.3811Z" fill="#FFA8A7"/>
  <path d="M65.6032 30.401C67.4049 30.1003 69.0543 29.2058 70.2891 27.8599C69.9599 28.9331 69.2355 29.8414 68.2623 30.401C67.3384 30.9979 66.3598 31.5057 65.3398 31.9174L65.6032 30.401Z" fill="#F28F8F"/>
  <path d="M99.8817 53.9973C99.5757 52.8685 97.604 51.692 91.729 50.7024C85.8541 49.7127 80.5084 50.7024 80.4808 51.3972C80.4533 52.0921 81.9295 56.7429 88.7013 57.587C95.473 58.4311 100.499 56.4556 99.8817 53.9973Z" fill="#263238"/>
  <path d="M82.2049 63.5412C82.2049 63.5412 78.3757 38.6994 78.925 33.6284C79.4945 28.3894 81.4824 25.9574 84.82 25.6162C89.1761 28.1498 91.4965 34.1941 94.2822 40.1481C97.0679 46.102 100.087 58.8867 100.244 64.9937C100.4 71.1006 95.5778 75.4492 90.103 76.2456C84.6281 77.0421 82.2049 63.5412 82.2049 63.5412Z" fill="#FFA8A7"/>
  <path d="M88.2208 44.0957C86.4522 42.6746 85.2581 40.6611 84.8594 38.4277L90.3229 36.5225L94.0192 39.5979C94.0543 39.6769 94.0894 39.7547 94.1296 39.8337L94.2713 40.1435C94.3779 40.3668 94.4833 40.6076 94.5899 40.8547L94.684 41.0666L94.9273 41.6561L95.0101 41.8606C95.1167 42.1353 95.2258 42.4099 95.3324 42.7009C95.439 42.9882 95.5482 43.2816 95.6548 43.5789C95.6664 43.6461 95.6888 43.7109 95.7212 43.7708C95.8153 44.0417 95.9094 44.3127 96.0035 44.5961C96.0113 44.6393 96.0244 44.6814 96.0423 44.7215C96.2656 45.385 96.4826 46.0761 96.6983 46.7873L96.7334 46.9014C96.835 47.2514 96.9416 47.6051 97.0432 47.9575C93.8309 47.4108 90.8017 46.0848 88.2208 44.0957Z" fill="#F28F8F"/>
  <path d="M83.6792 25.832C85.7563 25.0067 88.2936 26.932 89.6332 27.7962C92.3511 29.5396 108.996 42.5086 112.877 45.5489C113.717 46.0506 114.574 46.5524 115.446 47.0102L110.874 54.1594C110.498 53.1317 109.909 52.1948 109.146 51.4101C104.998 48.4488 96.9706 46.8346 91.8018 44.824C87.7882 43.2524 86.9428 42.3732 85.5844 40.0754C84.5321 38.2717 80.7894 27.1916 83.6792 25.832Z" fill="#FFA8A7"/>
  <path d="M82.1223 63.6738L80.4805 51.3921C80.4805 51.3921 81.953 54.7786 89.5575 55.6691C97.1621 56.5596 100.076 55.2765 99.8826 53.9922C99.8826 53.9922 101.869 61.6783 101.1 66.6777C100.332 71.6772 92.707 76.9915 92.707 76.9915L82.1223 63.6738Z" fill="#37474F"/>
  <path opacity="0.15" d="M85.4837 65.345C84.7888 65.345 84.1329 65.3876 83.5195 65.4278L91.972 76.0639H93.9361C96.1236 74.3204 100.522 70.4122 101.097 66.6807C101.659 63.0158 100.743 57.911 100.219 55.4438C100.515 58.2722 94.1744 65.1769 85.4837 65.345Z" fill="black"/>
  <path d="M123.554 36.6238C120.805 36.1134 119.528 38.0926 118.511 39.7306C117.493 41.3687 115.8 44.3714 115.046 44.8831C114.293 45.3949 113.869 44.8831 112.789 45.6959C111.709 46.5086 110.919 48.0526 111.253 48.6146L112.039 49.9779C111.587 49.9309 111.131 49.9898 110.706 50.15C110.281 50.3103 109.9 50.5675 109.592 50.9011C108.414 52.0788 109.026 52.2807 109.689 52.943C110.353 53.6052 111.912 56.6267 113.476 57.452C116.499 56.3001 119.053 54.1767 120.738 51.4153C123.79 46.6366 123.554 36.6238 123.554 36.6238Z" fill="#8354BE"/>
  <path d="M114.333 58.0864C114.171 58.0575 114.018 57.9952 113.882 57.9037C113.747 57.8121 113.632 57.6932 113.544 57.5547C113.457 57.4161 113.4 57.2609 113.376 57.0989C113.352 56.9369 113.362 56.7718 113.406 56.614C113.875 55.141 114.576 53.7525 115.484 52.5012C116.544 51.0049 118.524 48.1803 118.858 46.6413C119.192 45.1024 119.91 40.7739 121.084 38.9628C122.258 37.1516 123.467 36.1068 125.011 36.6888C126.555 37.2708 121.673 48.8639 120.245 50.8281C118.818 52.7922 114.333 58.0864 114.333 58.0864Z" fill="#37474F"/>
  <path d="M115.238 57.8325C118.124 56.5132 120.38 54.1169 121.522 51.1561C122.661 48.5485 125.336 46.1328 126.024 43.7886C126.711 41.4444 126.79 35.4302 124.131 36.8902C121.472 38.3501 120.919 43.7246 119.747 46.8314C118.576 49.9382 111.444 59.8544 115.238 57.8325Z" fill="#263238"/>
  <path d="M91.9875 64.1942C93.7585 63.927 97.1563 64.657 100.236 68.9604C103.547 73.5836 104.163 81.6497 102.089 82.3145C99.2812 81.9634 96.5426 81.1886 93.9667 80.0167C90.6643 78.2896 85.0966 66.566 91.9875 64.1942Z" fill="#263238"/>
  <path d="M148.47 102.667C143.506 100.557 139.077 97.3634 135.508 93.3193C132.59 89.3483 120.069 72.3619 117.893 69.97C116.558 68.2725 114.735 67.0239 112.669 66.3916C103.53 64.4513 86.6184 64.7222 86.6184 64.7222L80.1138 63.626L67.1523 75.8249C69.2688 77.9891 71.7414 79.7735 74.4622 81.1003C77.9867 83.1 82.034 83.9859 86.0716 83.6414C95.6466 82.8324 101.389 80.1295 106.516 78.9279C108.001 78.5818 109.54 78.2644 110.706 80.6989C111.873 83.1335 111.967 84.3513 115.42 86.9439C119.85 90.2664 127.156 93.9815 130.346 97.9412C130.872 98.9114 131.185 99.9825 131.265 101.083C131.567 105.255 135.07 104.437 137.895 106.252C139.43 107.238 140.578 108.439 142.432 108.852C144.12 109.199 145.864 109.167 147.538 108.758C149.324 108.384 150.9 107.341 151.944 105.844C152.912 103.893 149.938 103.248 148.47 102.667Z" fill="#FFA8A7"/>
  <path d="M148.47 102.667C143.506 100.557 139.077 97.3634 135.508 93.3193C132.59 89.3483 120.069 72.3619 117.893 69.97C116.558 68.2725 114.735 67.0239 112.669 66.3916C103.53 64.4513 86.6184 64.7222 86.6184 64.7222L80.1138 63.626L67.1523 75.8249C69.2688 77.9891 71.7414 79.7735 74.4622 81.1003C77.9867 83.1 82.034 83.9859 86.0716 83.6414C95.6466 82.8324 101.389 80.1295 106.516 78.9279C108.001 78.5818 109.54 78.2644 110.706 80.6989C111.873 83.1335 111.967 84.3513 115.42 86.9439C119.85 90.2664 127.156 93.9815 130.346 97.9412C130.872 98.9114 131.185 99.9825 131.265 101.083C131.567 105.255 135.07 104.437 137.895 106.252C139.43 107.238 140.578 108.439 142.432 108.852C144.12 109.199 145.864 109.167 147.538 108.758C149.324 108.384 150.9 107.341 151.944 105.844C152.912 103.893 149.938 103.248 148.47 102.667Z" fill="#FFA8A7"/>
  <path d="M115.117 84.9689C114.142 83.8911 113.403 82.6214 112.948 81.2412C112.596 80.0904 112.143 78.9731 111.594 77.9024C109.999 75.153 99.4184 78.6549 94.7325 80.0973C94.0559 80.8802 93.4671 81.7349 92.9766 82.646C98.6558 81.4908 102.741 79.8026 106.499 78.9271C107.984 78.5809 109.523 78.2636 110.689 80.6981C111.856 83.1326 111.95 84.3505 115.403 86.943C117.201 88.2901 119.479 89.6924 121.762 91.1774C119.392 89.2803 117.17 87.2048 115.117 84.9689Z" fill="#F28F8F"/>
  <path d="M81.1128 63.626C81.1128 63.626 90.4131 64.0775 91.9884 64.1916C91.9884 64.1916 88.4928 65.1386 92.7498 73.739C97.0067 82.3395 102.094 82.3006 102.094 82.3006C95.4176 84.4329 91.9496 86.8335 83.4382 85.8351C77.1264 84.7696 71.371 81.5714 67.1328 76.7744L81.1128 63.626Z" fill="#455A64"/>
  <path opacity="0.15" d="M102.065 82.3007L101.833 82.2806C99.6621 81.8686 97.7035 80.7116 96.295 79.0095C94.2962 79.552 92.2676 79.9783 90.2194 80.2863C82.6349 81.3976 76.9406 80.0619 68.4643 75.5415L67.1523 76.7707C70.5184 80.5663 74.8366 83.3946 79.6611 84.9635C79.9558 85.0576 80.2543 85.1441 80.5604 85.2307C80.8476 85.3097 81.1336 85.3799 81.4283 85.4501L81.5023 85.4702C81.7732 85.5329 82.0479 85.5881 82.3226 85.6395L82.4681 85.6709C82.7867 85.7298 83.1128 85.785 83.4427 85.8315C83.9732 85.8942 84.4874 85.9456 84.9829 85.9807C85.4783 86.0158 85.9524 86.0434 86.4127 86.0559H87.7523C88.3729 86.0502 88.9929 86.0133 89.6098 85.9456C90.0024 85.9067 90.395 85.859 90.7876 85.8001C91.6943 85.6624 92.5926 85.4736 93.478 85.2344C93.8241 85.1403 94.1653 85.0425 94.5065 84.9397C95.3594 84.68 96.1997 84.3865 97.0639 84.0755L98.1125 83.6829C99.3492 83.2276 100.657 82.7485 102.119 82.2806L102.065 82.3007Z" fill="black"/>
  <path d="M50.0222 51.9157C46.2444 53.2314 42.6697 55.5217 45.6787 62.237C50.0222 71.9261 69.5824 82.6914 79.6403 84.9779C74.5342 77.2529 78.7836 69.0639 82.1149 63.6831L81.2369 57.1246C78.4032 55.6101 75.7192 53.8308 73.221 51.8103C68.2252 47.9459 66.1595 46.8974 58.7167 49.1676C53.6119 50.7053 50.0222 51.9157 50.0222 51.9157Z" fill="#8354BE"/>
  <path opacity="0.05" d="M65.3268 73.8191C55.0419 67.9241 51.8122 62.68 47.7785 57.6392L45.1445 60.8639C45.2156 61.0704 45.2942 61.2824 45.3803 61.4998V61.5349C45.4706 61.7632 45.5647 61.9902 45.6713 62.2297C47.5728 66.4679 52.3841 70.913 58.0396 74.7723C58.849 75.3225 59.6726 75.8594 60.5105 76.3828C60.9306 76.6462 61.3508 76.9008 61.771 77.168C64.651 78.898 67.6309 80.456 70.695 81.8338C73.5699 83.1584 76.5627 84.2103 79.6341 84.9757C78.5154 83.3151 77.768 81.4327 77.4429 79.457C73.2072 78.034 69.1433 76.1431 65.3268 73.8191Z" fill="black"/>
  <path d="M47.1866 53.2234C47.1866 53.2234 34.5048 46.4504 32.498 45.5335L43.5819 39.0176L41.2251 32.9019C41.2251 32.9019 24.7291 38.7655 21.5872 40.4512C19.9416 41.3392 19.2305 42.0818 19.2305 43.336C19.2305 45.4407 21.2373 48.1787 24.0142 50.5468C29.9293 55.5864 37.949 60.2748 45.7568 64.5794C47.5479 65.9064 49.4129 67.5758 49.4129 67.5758C51.4875 68.5993 54.4751 59.0983 47.1866 53.2234Z" fill="#FFA8A7"/>
  <path d="M59.0586 29.6661C58.2517 27.8493 56.761 26.424 54.9098 25.6995C53.0586 24.975 50.9964 25.0098 49.1707 25.7962C47.345 26.5827 45.903 28.0574 45.1578 29.9003C44.4126 31.7433 44.4243 33.8057 45.1903 35.6402C45.2454 35.7656 45.3082 35.8797 45.3671 35.9976L43.4468 40.1693L40.6348 34.9491C40.6348 34.5372 40.4823 34.14 40.2067 33.834C39.9311 33.528 39.5518 33.335 39.1422 33.2922C38.9345 33.2751 38.7255 33.3003 38.5279 33.3663C38.3302 33.4324 38.148 33.5378 37.9923 33.6763C37.8366 33.8148 37.7106 33.9834 37.6219 34.172C37.5333 34.3606 37.4838 34.5652 37.4766 34.7735L39.6402 34.9579C39.1678 35.2749 38.8054 35.7306 38.6029 36.2623C38.0849 37.6056 39.876 40.3436 42.2791 42.7468C43.5889 44.6427 44.9968 46.4689 46.4972 48.2179C47.0286 48.6221 47.6947 48.8075 48.3585 48.7359L48.563 39.3101C49.9424 40.0551 51.5197 40.3518 53.0756 40.1591C54.6314 39.9663 56.0886 39.2936 57.2445 38.2345C58.4005 37.1754 59.1978 35.7825 59.5256 34.2494C59.8534 32.7163 59.6954 31.1191 59.0736 29.6799L59.0586 29.6661Z" fill="#263238"/>
  <path d="M45.1182 41.8025C44.8034 42.239 43.8451 41.6846 43.0876 41.3623C42.7805 41.2158 42.4413 41.1497 42.1017 41.1703C41.7621 41.191 41.4333 41.2976 41.1463 41.4802C40.8592 41.6628 40.6233 41.9153 40.4606 42.2142C40.298 42.513 40.214 42.8483 40.2166 43.1885C40.1375 45.3521 42.8003 47.1156 44.3293 46.9512C46.9632 46.6803 46.686 45.046 46.686 45.046L50.5742 53.5888C55.0482 56.0434 63.3739 52.1865 58.3782 49.7633L57.2745 47.2184C58.2286 46.9613 59.1509 46.5978 60.0238 46.1347C60.7744 45.5931 61.3468 44.8404 61.6685 43.9725C61.9901 43.1046 62.0463 42.1606 61.83 41.2607C61.3822 37.9381 60.6522 35.4083 57.4513 29.8708C53.9168 23.8139 46.454 26.9483 43.5441 31.2065C40.6342 35.4648 45.1182 41.8025 45.1182 41.8025Z" fill="#FFA8A7"/>
  <path d="M45.4267 42.5211C45.2148 42.6152 43.8238 41.618 43.07 41.3659C42.049 41.0122 40.3959 34.5754 40.3959 34.5754C39.9775 34.1371 39.6969 33.5858 39.5888 32.9897C39.4807 32.3935 39.5498 31.7787 39.7876 31.2215C40.3997 29.4467 42.6473 28.2639 44.2026 27.4788C47.0071 26.0615 50.1415 24.4422 51.5199 21.4734C51.6265 21.2414 51.7871 20.9717 52.0417 20.9717C52.2054 20.9896 52.3559 21.07 52.4619 21.1962C53.1073 21.9237 53.472 22.8577 53.4904 23.8301C53.4904 23.9242 53.5179 24.0346 53.6045 24.0622C53.691 24.0898 53.765 24.0145 53.8165 23.9518C54.1028 23.6036 54.32 23.2038 54.4561 22.7741C54.648 22.1883 55.6339 23.6771 55.7104 23.8816C55.9422 24.5284 56.0422 25.2151 56.0045 25.9012C55.9668 26.5872 55.7922 27.2588 55.4909 27.8764C54.757 29.0352 53.7062 29.9593 52.4631 30.5392C50.037 31.8063 47.4978 32.8439 44.8786 33.6384C44.0458 33.8705 44.2026 34.7033 44.6779 36.9735C45.1132 38.9552 46.1341 42.195 45.4267 42.5211Z" fill="#263238"/>
  <path d="M57.2548 47.2248C55.2056 47.6849 53.1203 47.9661 51.0224 48.0651C50.0646 47.9923 49.1506 47.6341 48.3984 47.0366C48.9339 47.7272 49.6016 48.3041 50.3626 48.7336C51.8677 49.5589 57.6837 48.2382 57.6837 48.2382L57.2548 47.2248Z" fill="#F28F8F"/>
  <path d="M50.0612 35.2731L48.6815 36.7619C48.4848 36.5704 48.3696 36.3104 48.36 36.036C48.3504 35.7616 48.4472 35.4942 48.6301 35.2894C48.7211 35.1914 48.8311 35.1128 48.9534 35.0586C49.0757 35.0044 49.2077 34.9757 49.3415 34.9742C49.4753 34.9727 49.608 34.9984 49.7315 35.0498C49.855 35.1012 49.968 35.1771 50.0612 35.2731Z" fill="#263238"/>
  <path d="M54.4727 42.8815L56.4958 42.7837C56.5087 42.917 56.4945 43.0515 56.454 43.1792C56.4136 43.3069 56.3477 43.4251 56.2604 43.5267C56.1732 43.6282 56.0662 43.7111 55.9461 43.7703C55.826 43.8295 55.6951 43.8638 55.5614 43.8711C55.2871 43.8792 55.0204 43.7806 54.8173 43.596C54.6143 43.4114 54.4907 43.1553 54.4727 42.8815Z" fill="#F28F8F"/>
  <path d="M58.3899 32.904L56.4258 32.4023C56.4522 32.2719 56.5049 32.1483 56.5806 32.039C56.6564 31.9297 56.7537 31.8371 56.8665 31.7666C56.9793 31.6962 57.1053 31.6495 57.2368 31.6294C57.3682 31.6093 57.5024 31.6162 57.6311 31.6497C57.8932 31.7234 58.1174 31.894 58.2583 32.1269C58.3992 32.3599 58.4463 32.6377 58.3899 32.904Z" fill="#263238"/>
  <path d="M54.2031 35.9785L55.5427 40.7974L57.8957 39.3675L54.2031 35.9785Z" fill="#F28F8F"/>
  <path d="M50.4531 38.1353C50.4531 38.3089 50.5046 38.4787 50.6011 38.6231C50.6976 38.7675 50.8347 38.88 50.9951 38.9464C51.1556 39.0129 51.3321 39.0303 51.5024 38.9964C51.6727 38.9625 51.8291 38.8789 51.9519 38.7561C52.0747 38.6333 52.1583 38.4769 52.1922 38.3066C52.2261 38.1363 52.2087 37.9597 52.1422 37.7993C52.0758 37.6389 51.9633 37.5018 51.8189 37.4053C51.6745 37.3088 51.5048 37.2573 51.3311 37.2573C51.0982 37.2573 50.8749 37.3498 50.7103 37.5145C50.5456 37.6791 50.4531 37.9024 50.4531 38.1353Z" fill="#263238"/>
  <path d="M56.8438 35.6457C56.8438 35.8134 56.8935 35.9773 56.9867 36.1168C57.0798 36.2562 57.2122 36.3649 57.3672 36.4291C57.5221 36.4932 57.6926 36.51 57.8571 36.4773C58.0215 36.4446 58.1726 36.3639 58.2912 36.2453C58.4098 36.1267 58.4905 35.9756 58.5232 35.8111C58.5559 35.6467 58.5392 35.4762 58.475 35.3213C58.4108 35.1663 58.3021 35.0339 58.1627 34.9407C58.0233 34.8476 57.8593 34.7979 57.6916 34.7979C57.4668 34.7979 57.2511 34.8872 57.0921 35.0462C56.9331 35.2052 56.8438 35.4209 56.8438 35.6457Z" fill="#263238"/>
  <path d="M130.749 101.959C130.416 102.188 130.93 103.629 131.232 103.978C131.86 104.592 132.639 105.031 133.49 105.251C135.036 105.727 136.481 106.483 137.754 107.482C139.318 108.753 141.139 109.67 143.092 110.169C145.643 110.585 148.257 110.041 150.428 108.641C152.879 107.187 152.651 105.801 152.31 104.871L130.749 101.959Z" fill="#37474F"/>
  <path d="M136.047 93.895C136.832 94.7316 141.105 98.9534 144.385 100.033C146.993 100.89 150.394 101.703 151.879 103.294C153.427 104.951 151.127 107.072 147.952 108.286C144.645 109.554 142.398 108.53 140.204 107.43C138.66 106.645 136.386 105.073 135.243 104.441C134.1 103.809 131.982 103.459 131.104 102.521C130.52 101.535 130.161 100.433 130.055 99.2921C129.863 98.1144 129.086 97.0457 129.482 96.983L130.122 97.6867C133.107 98.2624 136.22 95.4854 136.047 93.895Z" fill="#8354BE"/>
  <path d="M32.4977 45.5322C30.6216 46.5463 28.5955 47.2543 26.4961 47.6293C29.0307 48.0565 31.6338 47.5364 33.8097 46.1681L32.4977 45.5322Z" fill="#F28F8F"/>
</svg>
