<svg xmlns="http://www.w3.org/2000/svg" width="78" height="59" viewBox="0 0 78 59" fill="none">
  <path d="M38.8201 58.0954C60.2599 58.0954 77.6402 48.0607 77.6402 35.6822C77.6402 23.3038 60.2599 13.269 38.8201 13.269C17.3804 13.269 0 23.3038 0 35.6822C0 48.0607 17.3804 58.0954 38.8201 58.0954Z" fill="#F5F5F5"/>
  <path d="M5.29297 27.6484L51.9493 54.5861L73.6797 42.0401L27.0249 15.105L5.29297 27.6484Z" fill="#E0E0E0"/>
  <path d="M9.29208 39.4998C11.0455 39.4998 12.467 38.6788 12.467 37.6662C12.467 36.6535 11.0455 35.8325 9.29208 35.8325C7.53864 35.8325 6.11719 36.6535 6.11719 37.6662C6.11719 38.6788 7.53864 39.4998 9.29208 39.4998Z" fill="#E0E0E0"/>
  <path d="M56.4298 25.2404C60.5245 25.2404 63.8439 23.3242 63.8439 20.9605C63.8439 18.5968 60.5245 16.6807 56.4298 16.6807C52.3351 16.6807 49.0156 18.5968 49.0156 20.9605C49.0156 23.3242 52.3351 25.2404 56.4298 25.2404Z" fill="#E0E0E0"/>
  <path d="M63.031 19.8238C66.6805 16.1743 66.6805 10.2573 63.031 6.60782C59.3815 2.95833 53.4645 2.95833 49.815 6.60782C46.1655 10.2573 46.1655 16.1743 49.815 19.8238C53.4645 23.4733 59.3815 23.4733 63.031 19.8238Z" fill="#8354BE"/>
  <path opacity="0.3" d="M63.031 19.8238C66.6805 16.1743 66.6805 10.2573 63.031 6.60782C59.3815 2.95833 53.4645 2.95833 49.815 6.60782C46.1655 10.2573 46.1655 16.1743 49.815 19.8238C53.4645 23.4733 59.3815 23.4733 63.031 19.8238Z" fill="black"/>
  <path opacity="0.1" d="M54.0565 5.30359C53.1832 5.73038 52.3207 6.51786 52.404 7.48594C52.4401 7.74599 52.5272 7.99634 52.6604 8.22259C52.7936 8.44885 52.9702 8.64654 53.18 8.8043C53.6014 9.11655 54.0624 9.37139 54.551 9.56211L59.4695 11.7346C59.9443 11.9697 60.4487 12.1397 60.9689 12.24C61.2297 12.2881 61.4975 12.2831 61.7563 12.2251C62.015 12.1672 62.2594 12.0575 62.4747 11.9027C63.143 11.365 63.208 10.3673 63.0472 9.52464C62.2691 5.47222 57.652 3.54282 54.0565 5.30359Z" fill="white"/>
  <g opacity="0.2">
    <path d="M52.1155 5.96462C52.1877 6.21484 52.3258 6.44108 52.5153 6.61971C52.7048 6.79833 52.9388 6.92279 53.1929 6.98006C53.8658 7.16698 54.5734 7.19266 55.2581 7.05502C55.9428 6.91739 56.5855 6.62032 57.1339 6.1879C57.3459 6.03657 57.5137 5.83131 57.6197 5.59339C57.7258 5.35547 57.7663 5.09352 57.7372 4.83467C57.6747 4.60955 57.5566 4.40378 57.3936 4.23632C57.2307 4.06887 57.0283 3.94511 56.805 3.87647C56.6046 3.86815 56.4042 3.86658 56.2018 3.87647C56.3394 3.90133 56.4751 3.93612 56.6077 3.98057C56.843 4.00808 57.0635 4.10944 57.2376 4.2701C57.4116 4.43075 57.5303 4.64243 57.5766 4.87475C57.6228 5.10707 57.5943 5.34807 57.495 5.56314C57.3958 5.77822 57.2309 5.95631 57.0241 6.07184C56.4981 6.48719 55.8815 6.77247 55.2244 6.90443C54.5674 7.03639 53.8884 7.0113 53.2429 6.83121C53.0161 6.78047 52.8066 6.67136 52.6351 6.5147C52.4635 6.35804 52.3359 6.15926 52.2649 5.93808C52.2405 5.70762 52.2787 5.47486 52.3753 5.26422C52.4719 5.05359 52.6234 4.87285 52.814 4.74098C52.9496 4.62361 53.0958 4.51906 53.2507 4.4287C53.0503 4.49896 52.8546 4.57859 52.6625 4.66187C52.4665 4.81317 52.313 5.01273 52.2171 5.24107C52.1213 5.46941 52.0862 5.7187 52.1155 5.96462Z" fill="black"/>
    <path d="M64.8047 9.08691C64.8193 9.11606 64.8323 9.14572 64.8468 9.17331L64.8047 9.08691Z" fill="black"/>
    <path d="M65.2883 16.1641C64.9168 16.8145 64.4353 17.3957 63.8653 17.8816C60.8174 20.5642 55.2077 21.6936 51.3645 20.4012C50.6498 20.1729 49.9805 19.8215 49.3867 19.3629C49.558 19.5602 49.737 19.7475 49.9228 19.9287C50.3629 20.1842 50.8282 20.3935 51.3114 20.5532C53.474 21.1523 55.7472 21.2343 57.9473 20.7926C60.1474 20.3509 62.2128 19.398 63.9767 18.0107C64.3603 17.6765 64.7083 17.3034 65.015 16.8974C65.1139 16.6528 65.205 16.4149 65.2883 16.1641Z" fill="black"/>
    <path d="M63.6432 15.0832C60.4355 17.9078 54.5349 19.0909 50.4856 17.7252C48.9471 17.2047 47.8582 16.3855 47.332 15.3653C47.3742 15.5496 47.4216 15.7297 47.4757 15.9113C48.2358 16.8561 49.2687 17.5436 50.4335 17.8803C52.7076 18.5128 55.0988 18.5998 57.4129 18.1342C59.7269 17.6686 61.8984 16.6636 63.7509 15.2009C64.6953 14.4392 65.3822 13.4052 65.7183 12.2394C65.6985 12.0551 65.6725 11.8693 65.6418 11.6851C65.545 12.8343 64.8606 14.0126 63.6432 15.0832Z" fill="black"/>
    <path d="M65.7583 13.6934C65.7596 13.731 65.7568 13.7687 65.75 13.8058C65.7531 13.7683 65.7547 13.7308 65.7583 13.6934Z" fill="black"/>
    <path d="M50.447 12.2395C52.3449 12.7666 54.3403 12.8391 56.2714 12.4512C58.2026 12.0633 60.0151 11.2258 61.5623 10.0067C62.6802 9.02873 63.2767 7.9248 63.2866 6.86772C63.2314 6.80734 63.1742 6.75061 63.1237 6.69336C63.1825 7.75773 62.6032 8.87935 61.4613 9.88439C58.7835 12.2364 53.8696 13.229 50.4991 12.0881C49.0532 11.5994 48.0887 10.7926 47.7286 9.78654C47.6994 9.86149 47.6682 9.93644 47.6406 10.0129C48.0627 10.9831 49.0339 11.7623 50.447 12.2395Z" fill="black"/>
    <path d="M47.13 12.3312C47.539 13.5178 48.6638 14.4651 50.3423 15.0319C52.4616 15.6212 54.6899 15.7026 56.8466 15.2696C59.0033 14.8367 61.0275 13.9015 62.7551 12.5399C64.0865 11.3698 64.7548 10.0593 64.6736 8.80599C64.6049 8.679 64.5351 8.55356 64.4602 8.42969C64.7204 9.74337 64.0771 11.1596 62.6479 12.4196C59.6604 15.047 54.1642 16.1504 50.3949 14.8789C48.5888 14.2694 47.4485 13.2134 47.181 11.9028C47.1596 12.0444 47.1435 12.1865 47.1289 12.3296L47.13 12.3312Z" fill="black"/>
    <path d="M47.0864 12.7788C47.0845 12.7182 47.0884 12.6575 47.0979 12.5977C47.0932 12.658 47.0895 12.7184 47.0864 12.7788Z" fill="black"/>
    <path d="M51.2487 9.44629C52.6989 9.84941 54.2237 9.9053 55.6995 9.60943C57.1753 9.31357 58.5606 8.67426 59.7434 7.74329C60.6802 6.91522 61.1403 5.98617 61.0555 5.10293C60.9951 5.06857 60.9384 5.03422 60.878 5.00195C61.0133 5.8675 60.5767 6.79499 59.6362 7.62098C57.6063 9.41401 53.8651 10.1588 51.3013 9.29326C50.1146 8.8925 49.3453 8.20756 49.145 7.35866C49.1028 7.41071 49.0601 7.4664 49.0195 7.52157C49.2792 8.36578 50.06 9.04708 51.2487 9.44629Z" fill="black"/>
    <path d="M48.6682 7.99707C48.6453 8.02986 48.6239 8.06369 48.6016 8.09804L48.6682 7.99707Z" fill="black"/>
  </g>
  <path opacity="0.1" d="M54.0435 18.5671C48.4744 16.429 47.6447 12.3214 48.0851 9.01172C47.4695 10.2337 47.1298 11.5759 47.0899 12.9435C47.05 14.3112 47.3109 15.6709 47.8542 16.9266C48.3975 18.1824 49.2099 19.3035 50.234 20.2108C51.2582 21.1181 52.469 21.7895 53.7811 22.1775C55.0932 22.5655 56.4744 22.6606 57.8273 22.4562C59.1802 22.2518 60.4716 21.7528 61.6105 20.9944C62.7493 20.2361 63.7078 19.237 64.4181 18.0676C65.1284 16.8982 65.5733 15.5871 65.7214 14.2269C65.2883 17.089 59.6058 20.7042 54.0435 18.5671Z" fill="black"/>
  <path d="M5.29297 26.4777L51.9493 53.4154L73.6797 40.8693L27.0249 13.9316L5.29297 26.4777Z" fill="#8354BE"/>
  <path opacity="0.8" d="M5.29297 26.4777L51.9493 53.4154L73.6797 40.8693L27.0249 13.9316L5.29297 26.4777Z" fill="white"/>
  <path opacity="0.05" d="M53.9779 44.1157C54.4808 44.1468 54.9757 44.2568 55.4446 44.4415C55.7333 44.6366 56.0059 44.8547 56.2596 45.0936C57.0555 45.8351 58.1053 46.2434 59.193 46.2345C60.223 46.259 62.6042 45.5824 62.6157 44.2411C62.6271 43.4083 61.6965 42.9373 60.9241 42.6115C56.5283 40.8125 52.6747 37.9035 49.7402 34.1689C48.6498 32.7756 47.6458 31.235 46.1234 30.3288C45.1214 29.807 44.0534 29.4233 42.9485 29.1879C37.0056 27.5832 31.3335 25.1061 26.1174 21.8373C27.0818 19.937 27.7522 17.9013 28.1056 15.7998C26.8377 15.3563 25.6104 16.4519 24.3582 16.9406C23.4183 17.278 22.4043 17.3535 21.4248 17.1592L17.2719 19.5565C17.4447 20.166 17.7216 20.7594 17.9105 21.3673C18.2004 22.2932 18.2364 23.4388 17.5082 24.0857C17.0569 24.4174 16.5263 24.6247 15.9697 24.6869L13.6879 25.1402C13.0358 25.2688 12.2826 25.4759 12.0287 26.0906C11.7164 26.8421 12.3789 27.6437 13.0733 28.0684C14.3656 28.8621 15.9057 29.1182 17.3302 29.6381C20.6696 30.8555 23.2839 33.4844 26.3938 35.2072C28.5552 36.4025 30.9364 37.1477 33.3936 37.3979C35.9315 37.6581 38.5177 37.3833 41.0196 37.8705C42.987 38.2536 44.9882 38.7912 46.9161 39.3715C47.9645 39.6675 48.9686 40.1021 49.902 40.6639C50.367 40.9516 50.7984 41.2905 51.1881 41.6741C51.531 42.0795 51.8499 42.5046 52.1432 42.9472C52.5769 43.5632 53.2362 43.9832 53.9779 44.1157Z" fill="black"/>
  <path d="M5.29297 26.478V26.9017L51.9493 53.8373V53.4152L5.29297 26.478Z" fill="#8354BE"/>
  <path opacity="0.6" d="M5.29297 26.478V26.9017L51.9493 53.8373V53.4152L5.29297 26.478Z" fill="white"/>
  <path d="M51.9492 53.4162L73.679 40.8701V41.2938L51.9492 53.8404V53.4162Z" fill="#8354BE"/>
  <path opacity="0.45" d="M51.9492 53.4162L73.679 40.8701V41.2938L51.9492 53.8404V53.4162Z" fill="white"/>
  <path d="M11.5289 33.7505C11.4373 33.4185 11.3128 33.0964 11.1573 32.7892C11.1427 32.7548 11.1245 32.7205 11.1052 32.6851C10.9572 32.398 10.8823 32.0789 10.8871 31.7559C10.892 31.433 10.9763 31.1163 11.1328 30.8337C11.1427 30.814 11.1542 30.7947 11.1656 30.7749C11.3579 30.4471 11.4571 30.0729 11.4524 29.6929C11.4407 29.4829 11.3776 29.2791 11.2687 29.0992C11.1598 28.9194 11.0084 28.769 10.8278 28.6613C10.735 28.6081 10.6386 28.5614 10.5395 28.5213C10.4474 28.4856 10.3683 28.4229 10.3126 28.3415C10.2568 28.26 10.2271 28.1635 10.2272 28.0648V27.4985H8.42323V28.0622C8.42308 28.1614 8.39279 28.2581 8.33636 28.3397C8.27993 28.4212 8.20004 28.4836 8.1073 28.5187C8.00739 28.557 7.91049 28.6028 7.81739 28.6556C7.63646 28.7623 7.48438 28.9116 7.37443 29.0906C7.26448 29.2696 7.19998 29.4728 7.18658 29.6824C7.17828 30.0653 7.27455 30.4432 7.46503 30.7754C7.47492 30.7952 7.48637 30.8129 7.49574 30.8306C7.65053 31.1153 7.73283 31.4338 7.73537 31.7578C7.73792 32.0819 7.66062 32.4016 7.51031 32.6887C7.49262 32.7231 7.47596 32.7574 7.45827 32.7928C7.30013 33.0983 7.17286 33.4187 7.07832 33.7494C7.01382 34.0713 6.98433 34.3992 6.99036 34.7274L6.98047 37.3579C6.9984 37.5607 7.07007 37.755 7.18808 37.9208C7.3061 38.0867 7.46619 38.2181 7.65188 38.3015C8.05354 38.522 8.49849 38.6522 8.95567 38.683C9.17269 38.7009 9.39081 38.7009 9.60782 38.683C10.064 38.6539 10.5086 38.5272 10.9116 38.3114C11.0979 38.2297 11.2591 38.0998 11.3786 37.9352C11.498 37.7705 11.5715 37.577 11.5914 37.3745V35.4727C11.5914 35.2364 11.6028 34.984 11.6028 34.7409C11.6155 34.4091 11.5907 34.0768 11.5289 33.7505Z" fill="#8354BE"/>
  <path opacity="0.3" d="M11.5289 33.7505C11.4373 33.4185 11.3128 33.0964 11.1573 32.7892C11.1427 32.7548 11.1245 32.7205 11.1052 32.6851C10.9572 32.398 10.8823 32.0789 10.8871 31.7559C10.892 31.433 10.9763 31.1163 11.1328 30.8337C11.1427 30.814 11.1542 30.7947 11.1656 30.7749C11.3579 30.4471 11.4571 30.0729 11.4524 29.6929C11.4407 29.4829 11.3776 29.2791 11.2687 29.0992C11.1598 28.9194 11.0084 28.769 10.8278 28.6613C10.735 28.6081 10.6386 28.5614 10.5395 28.5213C10.4474 28.4856 10.3683 28.4229 10.3126 28.3415C10.2568 28.26 10.2271 28.1635 10.2272 28.0648V27.4985H8.42323V28.0622C8.42308 28.1614 8.39279 28.2581 8.33636 28.3397C8.27993 28.4212 8.20004 28.4836 8.1073 28.5187C8.00739 28.557 7.91049 28.6028 7.81739 28.6556C7.63646 28.7623 7.48438 28.9116 7.37443 29.0906C7.26448 29.2696 7.19998 29.4728 7.18658 29.6824C7.17828 30.0653 7.27455 30.4432 7.46503 30.7754C7.47492 30.7952 7.48637 30.8129 7.49574 30.8306C7.65053 31.1153 7.73283 31.4338 7.73537 31.7578C7.73792 32.0819 7.66062 32.4016 7.51031 32.6887C7.49262 32.7231 7.47596 32.7574 7.45827 32.7928C7.30013 33.0983 7.17286 33.4187 7.07832 33.7494C7.01382 34.0713 6.98433 34.3992 6.99036 34.7274L6.98047 37.3579C6.9984 37.5607 7.07007 37.755 7.18808 37.9208C7.3061 38.0867 7.46619 38.2181 7.65188 38.3015C8.05354 38.522 8.49849 38.6522 8.95567 38.683C9.17269 38.7009 9.39081 38.7009 9.60782 38.683C10.064 38.6539 10.5086 38.5272 10.9116 38.3114C11.0979 38.2297 11.2591 38.0998 11.3786 37.9352C11.498 37.7705 11.5715 37.577 11.5914 37.3745V35.4727C11.5914 35.2364 11.6028 34.984 11.6028 34.7409C11.6155 34.4091 11.5907 34.0768 11.5289 33.7505Z" fill="black"/>
  <path opacity="0.1" d="M11.1345 30.8325C11.1444 30.8132 11.1558 30.7934 11.1673 30.7736C11.3288 30.4926 11.4231 30.178 11.4426 29.8545C11.4039 29.9851 11.3492 30.1105 11.2797 30.2277C11.0575 30.5549 10.782 30.8425 10.4646 31.0786C10.1207 31.2887 9.87268 31.625 9.77344 32.0155C9.77384 32.2098 9.82393 32.4007 9.91894 32.5701C10.014 32.7396 10.1507 32.8819 10.3163 32.9836C10.646 33.1858 10.9628 33.4085 11.2646 33.6503C11.3824 33.7698 11.4871 33.9015 11.5769 34.0433C11.5661 33.9459 11.5503 33.8491 11.5295 33.7534C11.4372 33.42 11.3116 33.0967 11.1548 32.7884C11.1402 32.7541 11.122 32.7197 11.1027 32.6843C10.9553 32.3969 10.881 32.0774 10.8866 31.7544C10.8921 31.4314 10.9773 31.1147 11.1345 30.8325Z" fill="black"/>
  <path d="M8.11719 28.1134V28.4163C8.12649 28.5246 8.16446 28.6286 8.22721 28.7174C8.28996 28.8062 8.37522 28.8767 8.47423 28.9217C8.74365 29.0575 9.04118 29.1283 9.34291 29.1283C9.64464 29.1283 9.94216 29.0575 10.2116 28.9217C10.3177 28.8646 10.4097 28.7843 10.4807 28.6869C10.5382 28.6103 10.5701 28.5174 10.5717 28.4215V28.1134C10.5718 28.0858 10.5685 28.0584 10.5619 28.0317C10.538 27.9404 10.4946 27.8554 10.4346 27.7825C10.3747 27.7096 10.2997 27.6506 10.2147 27.6096L10.197 27.5997C9.93008 27.4673 9.63617 27.3984 9.33822 27.3984C9.04028 27.3984 8.74637 27.4673 8.47944 27.5997C8.39464 27.6402 8.31941 27.6982 8.25875 27.77C8.19809 27.8418 8.15339 27.9257 8.1276 28.0161C8.12108 28.0481 8.11759 28.0807 8.11719 28.1134Z" fill="#8354BE"/>
  <path opacity="0.1" d="M8.11719 28.1134V28.4163C8.12649 28.5246 8.16446 28.6286 8.22721 28.7174C8.28996 28.8062 8.37522 28.8767 8.47423 28.9217C8.74365 29.0575 9.04118 29.1283 9.34291 29.1283C9.64464 29.1283 9.94216 29.0575 10.2116 28.9217C10.3177 28.8646 10.4097 28.7843 10.4807 28.6869C10.5382 28.6103 10.5701 28.5174 10.5717 28.4215V28.1134C10.5718 28.0858 10.5685 28.0584 10.5619 28.0317C10.538 27.9404 10.4946 27.8554 10.4346 27.7825C10.3747 27.7096 10.2997 27.6506 10.2147 27.6096L10.197 27.5997C9.93008 27.4673 9.63617 27.3984 9.33822 27.3984C9.04028 27.3984 8.74637 27.4673 8.47944 27.5997C8.39464 27.6402 8.31941 27.6982 8.25875 27.77C8.19809 27.8418 8.15339 27.9257 8.1276 28.0161C8.12108 28.0481 8.11759 28.0807 8.11719 28.1134Z" fill="black"/>
  <path opacity="0.2" d="M10.2082 28.619C10.6969 28.3452 10.6969 27.8955 10.2082 27.6181C9.93981 27.4806 9.64284 27.4082 9.3413 27.4068C9.03976 27.4053 8.7421 27.4749 8.47241 27.6098C7.99306 27.8851 7.98369 28.3332 8.47241 28.6122C8.74081 28.7498 9.03788 28.8221 9.3395 28.8233C9.64111 28.8245 9.93874 28.7545 10.2082 28.619Z" fill="black"/>
  <path d="M8.1196 27.7589V27.9416C8.11638 27.9703 8.11638 27.9993 8.1196 28.028C8.14436 28.1184 8.18833 28.2024 8.24851 28.2742C8.3087 28.3461 8.38367 28.4041 8.46832 28.4443C8.70424 28.5733 8.96729 28.6446 9.23602 28.6525C9.57157 28.6771 9.90733 28.6077 10.2057 28.4522C10.3138 28.3971 10.4088 28.3193 10.4841 28.2242C10.5235 28.1703 10.5507 28.1085 10.5637 28.0431C10.571 28.0154 10.5744 27.9868 10.5736 27.9582V27.7709C10.5642 27.6627 10.5262 27.5591 10.4634 27.4705C10.4007 27.382 10.3155 27.3117 10.2166 27.267L10.1515 27.2311C9.8884 27.1105 9.60152 27.0504 9.31208 27.0555C9.02263 27.0605 8.73802 27.1305 8.47925 27.2603C8.38049 27.3041 8.29515 27.3733 8.23195 27.4609C8.16875 27.5485 8.12998 27.6514 8.1196 27.7589Z" fill="#8354BE"/>
  <path opacity="0.1" d="M8.1196 27.7589V27.9416C8.11638 27.9703 8.11638 27.9993 8.1196 28.028C8.14436 28.1184 8.18833 28.2024 8.24851 28.2742C8.3087 28.3461 8.38367 28.4041 8.46832 28.4443C8.70424 28.5733 8.96729 28.6446 9.23602 28.6525C9.57157 28.6771 9.90733 28.6077 10.2057 28.4522C10.3138 28.3971 10.4088 28.3193 10.4841 28.2242C10.5235 28.1703 10.5507 28.1085 10.5637 28.0431C10.571 28.0154 10.5744 27.9868 10.5736 27.9582V27.7709C10.5642 27.6627 10.5262 27.5591 10.4634 27.4705C10.4007 27.382 10.3155 27.3117 10.2166 27.267L10.1515 27.2311C9.8884 27.1105 9.60152 27.0504 9.31208 27.0555C9.02263 27.0605 8.73802 27.1305 8.47925 27.2603C8.38049 27.3041 8.29515 27.3733 8.23195 27.4609C8.16875 27.5485 8.12998 27.6514 8.1196 27.7589Z" fill="black"/>
  <path d="M8.11719 27.7524C8.11719 28.1438 8.66473 28.4613 9.3429 28.4628C10.0211 28.4644 10.5717 28.1505 10.5733 27.7617C10.5749 27.3729 10.0258 27.0544 9.34759 27.0513C8.66941 27.0482 8.11875 27.3641 8.11719 27.7524Z" fill="#8354BE"/>
  <path d="M8.92305 27.029V27.6645C8.92148 27.6748 8.92148 27.6853 8.92305 27.6957C8.93164 27.7271 8.94686 27.7563 8.96769 27.7814C8.98852 27.8064 9.01447 27.8267 9.0438 27.8409C9.12561 27.8849 9.21643 27.9094 9.30925 27.9127C9.42547 27.9205 9.5416 27.8962 9.64495 27.8425C9.68137 27.8222 9.71298 27.7944 9.7376 27.7607C9.75159 27.7424 9.76152 27.7213 9.76674 27.6988C9.76754 27.6891 9.76754 27.6794 9.76674 27.6697V27.0326C9.7638 26.995 9.75072 26.959 9.72891 26.9283C9.70709 26.8976 9.67736 26.8734 9.64287 26.8582L9.61997 26.8452C9.52884 26.8037 9.42959 26.7831 9.32947 26.7848C9.22934 26.7865 9.13086 26.8105 9.0412 26.8551C9.00818 26.8714 8.97994 26.896 8.95924 26.9265C8.93854 26.9569 8.92607 26.9922 8.92305 27.029Z" fill="#8354BE"/>
  <path opacity="0.1" d="M8.92305 27.029V27.6645C8.92148 27.6748 8.92148 27.6853 8.92305 27.6957C8.93164 27.7271 8.94686 27.7563 8.96769 27.7814C8.98852 27.8064 9.01447 27.8267 9.0438 27.8409C9.12561 27.8849 9.21643 27.9094 9.30925 27.9127C9.42547 27.9205 9.5416 27.8962 9.64495 27.8425C9.68137 27.8222 9.71298 27.7944 9.7376 27.7607C9.75159 27.7424 9.76152 27.7213 9.76674 27.6988C9.76754 27.6891 9.76754 27.6794 9.76674 27.6697V27.0326C9.7638 26.995 9.75072 26.959 9.72891 26.9283C9.70709 26.8976 9.67736 26.8734 9.64287 26.8582L9.61997 26.8452C9.52884 26.8037 9.42959 26.7831 9.32947 26.7848C9.22934 26.7865 9.13086 26.8105 9.0412 26.8551C9.00818 26.8714 8.97994 26.896 8.95924 26.9265C8.93854 26.9569 8.92607 26.9922 8.92305 27.029Z" fill="black"/>
  <path d="M8.92188 27.0277C8.92188 27.1631 9.1108 27.2724 9.3471 27.2739C9.58339 27.2755 9.77233 27.1662 9.77233 27.0308C9.77233 26.8955 9.5834 26.7847 9.34866 26.7847C9.11393 26.7847 8.92344 26.8924 8.92188 27.0277Z" fill="#8354BE"/>
  <path opacity="0.5" d="M9.20312 27.0317C9.20312 27.0791 9.26975 27.1181 9.35302 27.1181C9.4363 27.1181 9.50448 27.0806 9.50448 27.0317C9.50448 26.9828 9.43786 26.9453 9.35302 26.9453C9.26819 26.9453 9.20312 26.9797 9.20312 27.0317Z" fill="#8354BE"/>
  <path opacity="0.3" d="M9.20312 27.0317C9.20312 27.0791 9.26975 27.1181 9.35302 27.1181C9.4363 27.1181 9.50448 27.0806 9.50448 27.0317C9.50448 26.9828 9.43786 26.9453 9.35302 26.9453C9.26819 26.9453 9.20312 26.9797 9.20312 27.0317Z" fill="black"/>
  <path d="M29.8218 22.5661C29.8218 22.5661 30.9482 13.4131 30.6921 10.0706C30.562 8.35771 29.7339 7.96788 28.466 8.06573C27.1981 8.16358 19.9453 12.0182 19.9453 12.0182L20.9722 14.5118L27.0139 12.6162C27.0139 12.6162 26.3992 16.1773 26.2576 16.8539C26.1161 17.5306 25.8178 18.4414 25.581 19.258C25.4502 19.6402 25.3575 20.0344 25.3041 20.4348C25.3062 21.0308 29.8218 22.5661 29.8218 22.5661Z" fill="#FFA8A7"/>
  <path d="M27.0116 12.6155C27.7593 12.4907 28.4437 12.1196 28.9561 11.561C28.8195 12.0064 28.5189 12.3833 28.1151 12.6155C27.7317 12.8632 27.3256 13.0739 26.9023 13.2448L27.0116 12.6155Z" fill="#F28F8F"/>
  <path d="M41.2384 22.4068C41.1114 21.9384 40.2932 21.4502 37.8553 21.0395C35.4174 20.6289 33.1991 21.0395 33.1877 21.3279C33.1762 21.6162 33.7888 23.5461 36.5988 23.8964C39.4089 24.2467 41.4944 23.427 41.2384 22.4068Z" fill="#263238"/>
  <path d="M33.9029 26.367C33.9029 26.367 32.3139 16.0585 32.5419 13.9542C32.7782 11.7802 33.6032 10.771 34.9881 10.6294C36.7957 11.6808 37.7586 14.1889 38.9146 16.6596C40.0706 19.1303 41.3234 24.4355 41.3884 26.9697C41.4535 29.5039 39.4522 31.3084 37.1804 31.6389C34.9085 31.9694 33.9029 26.367 33.9029 26.367Z" fill="#FFA8A7"/>
  <path d="M36.3988 18.2979C35.6649 17.7082 35.1693 16.8727 35.0039 15.9459L37.2711 15.1553L38.8049 16.4315C38.8195 16.4643 38.8341 16.4965 38.8507 16.5293L38.9095 16.6579C38.9538 16.7505 38.9975 16.8505 39.0417 16.953L39.0808 17.041L39.1818 17.2856L39.2161 17.3704C39.2603 17.4844 39.3056 17.5984 39.3499 17.7191C39.3941 17.8383 39.4394 17.9601 39.4836 18.0835C39.4884 18.1113 39.4977 18.1382 39.5112 18.1631C39.5502 18.2755 39.5893 18.3879 39.6283 18.5056C39.6316 18.5235 39.637 18.541 39.6445 18.5576C39.7371 18.8329 39.8271 19.1197 39.9167 19.4148L39.9312 19.4622C39.9734 19.6074 40.0176 19.7542 40.0598 19.9004C38.7268 19.6735 37.4698 19.1233 36.3988 18.2979Z" fill="#F28F8F"/>
  <path d="M34.512 10.7192C35.3739 10.3767 36.4268 11.1757 36.9827 11.5343C38.1105 12.2577 45.0178 17.6394 46.6281 18.9011C46.9768 19.1093 47.3323 19.3175 47.694 19.5074L45.7969 22.4741C45.6407 22.0476 45.3963 21.6589 45.0797 21.3332C43.3585 20.1044 40.0274 19.4346 37.8826 18.6002C36.217 17.9481 35.8662 17.5832 35.3026 16.6297C34.8659 15.8813 33.3128 11.2834 34.512 10.7192Z" fill="#FFA8A7"/>
  <path d="M33.8688 26.4222L33.1875 21.3257C33.1875 21.3257 33.7985 22.731 36.9542 23.1005C40.1098 23.47 41.3189 22.9376 41.2387 22.4046C41.2387 22.4046 42.0632 25.5941 41.7441 27.6687C41.4251 29.7433 38.2611 31.9486 38.2611 31.9486L33.8688 26.4222Z" fill="#37474F"/>
  <path opacity="0.15" d="M35.2643 27.1159C34.9759 27.1159 34.7037 27.1336 34.4492 27.1503L37.9567 31.5639H38.7718C39.6795 30.8405 41.5048 29.2187 41.7431 27.6703C41.9763 26.1494 41.5964 24.0311 41.3788 23.0073C41.5016 24.181 38.8706 27.0462 35.2643 27.1159Z" fill="black"/>
  <path d="M51.0585 15.1971C49.9176 14.9852 49.3878 15.8065 48.9657 16.4863C48.5436 17.166 47.8409 18.412 47.5281 18.6244C47.2153 18.8367 47.0394 18.6244 46.5913 18.9616C46.1431 19.2989 45.8152 19.9396 45.9542 20.1728L46.28 20.7385C46.0926 20.719 45.9033 20.7435 45.727 20.81C45.5507 20.8765 45.3924 20.9832 45.2646 21.1216C44.7759 21.6103 45.0298 21.6941 45.3052 21.9689C45.5805 22.2438 46.2275 23.4976 46.8765 23.84C48.1308 23.362 49.1909 22.4809 49.89 21.335C51.1563 19.352 51.0585 15.1971 51.0585 15.1971Z" fill="#8354BE"/>
  <path d="M47.2343 24.1035C47.1674 24.0915 47.1038 24.0657 47.0475 24.0277C46.9911 23.9897 46.9433 23.9404 46.9072 23.8829C46.871 23.8254 46.8472 23.7609 46.8373 23.6937C46.8273 23.6265 46.8316 23.558 46.8496 23.4925C47.0443 22.8813 47.3354 22.3051 47.7121 21.7858C48.1519 21.1649 48.9737 19.9928 49.1122 19.3542C49.2506 18.7156 49.5488 16.9194 50.036 16.1678C50.5232 15.4163 51.0249 14.9827 51.6656 15.2242C52.3063 15.4657 50.2801 20.2765 49.6878 21.0915C49.0955 21.9066 47.2343 24.1035 47.2343 24.1035Z" fill="#37474F"/>
  <path d="M47.6133 23.9983C48.811 23.4509 49.7469 22.4565 50.2209 21.2279C50.6935 20.1458 51.8037 19.1433 52.0889 18.1706C52.3741 17.1978 52.4069 14.7021 51.3035 15.308C50.2001 15.9138 49.9705 18.144 49.4844 19.4333C48.9983 20.7225 46.0389 24.8373 47.6133 23.9983Z" fill="#263238"/>
  <path d="M37.9622 26.6384C38.6971 26.5275 40.1071 26.8304 41.3848 28.6162C42.7589 30.5346 43.0144 33.8818 42.1541 34.1577C40.9888 34.012 39.8524 33.6905 38.7835 33.2042C37.4131 32.4875 35.1027 27.6226 37.9622 26.6384Z" fill="#263238"/>
  <path d="M61.4002 42.6032C59.3403 41.7276 57.5026 40.4022 56.0216 38.7241C54.8105 37.0762 49.6151 30.0274 48.712 29.0349C48.1578 28.3305 47.4014 27.8123 46.5443 27.55C42.7516 26.7448 35.734 26.8572 35.734 26.8572L33.0348 26.4023L27.6562 31.4645C28.5345 32.3625 29.5605 33.103 30.6896 33.6536C32.1521 34.4834 33.8316 34.851 35.5071 34.7081C39.4804 34.3724 41.8631 33.2508 43.9908 32.7521C44.6071 32.6085 45.2457 32.4768 45.7297 33.487C46.2138 34.4973 46.2528 35.0027 47.6857 36.0785C49.524 37.4572 52.5557 38.9989 53.8793 40.642C54.0976 41.0446 54.2276 41.4891 54.2608 41.9458C54.3863 43.6769 55.84 43.3375 57.0121 44.0907C57.6491 44.4998 58.1253 44.9984 58.8946 45.1696C59.5951 45.3138 60.3188 45.3004 61.0135 45.1306C61.7547 44.9752 62.4087 44.5428 62.8419 43.9215C63.2437 43.1117 62.0097 42.8441 61.4002 42.6032Z" fill="#FFA8A7"/>
  <path d="M61.4002 42.6032C59.3403 41.7276 57.5026 40.4022 56.0216 38.7241C54.8105 37.0762 49.6151 30.0274 48.712 29.0349C48.1578 28.3305 47.4014 27.8123 46.5443 27.55C42.7516 26.7448 35.734 26.8572 35.734 26.8572L33.0348 26.4023L27.6562 31.4645C28.5345 32.3625 29.5605 33.103 30.6896 33.6536C32.1521 34.4834 33.8316 34.851 35.5071 34.7081C39.4804 34.3724 41.8631 33.2508 43.9908 32.7521C44.6071 32.6085 45.2457 32.4768 45.7297 33.487C46.2138 34.4973 46.2528 35.0027 47.6857 36.0785C49.524 37.4572 52.5557 38.9989 53.8793 40.642C54.0976 41.0446 54.2276 41.4891 54.2608 41.9458C54.3863 43.6769 55.84 43.3375 57.0121 44.0907C57.6491 44.4998 58.1253 44.9984 58.8946 45.1696C59.5951 45.3138 60.3188 45.3004 61.0135 45.1306C61.7547 44.9752 62.4087 44.5428 62.8419 43.9215C63.2437 43.1117 62.0097 42.8441 61.4002 42.6032Z" fill="#FFA8A7"/>
  <path d="M47.5585 35.2589C47.154 34.8117 46.8474 34.2848 46.6586 33.7121C46.5125 33.2345 46.3244 32.7709 46.0965 32.3266C45.435 31.1857 41.0442 32.6388 39.0998 33.2374C38.819 33.5623 38.5746 33.9169 38.3711 34.295C40.7278 33.8156 42.423 33.1151 43.9823 32.7518C44.5986 32.6081 45.2372 32.4764 45.7212 33.4867C46.2053 34.4969 46.2443 35.0023 47.6772 36.0781C48.4235 36.6371 49.3687 37.219 50.316 37.8353C49.3325 37.048 48.4107 36.1867 47.5585 35.2589Z" fill="#F28F8F"/>
  <path d="M33.4496 26.4023C33.4496 26.4023 37.309 26.5897 37.9627 26.6371C37.9627 26.6371 36.5121 27.03 38.2786 30.5989C40.0451 34.1678 42.1561 34.1517 42.1561 34.1517C39.3857 35.0365 37.9465 36.0327 34.4146 35.6184C31.7954 35.1762 29.4071 33.8491 27.6484 31.8585L33.4496 26.4023Z" fill="#455A64"/>
  <path opacity="0.15" d="M42.1437 34.1515L42.0474 34.1432C41.1467 33.9722 40.3339 33.4921 39.7495 32.7858C38.92 33.0109 38.0782 33.1878 37.2283 33.3156C34.081 33.7768 31.718 33.2225 28.2007 31.3467L27.6562 31.8568C29.053 33.4318 30.845 34.6054 32.8469 35.2565C32.9693 35.2955 33.0931 35.3314 33.2201 35.3673C33.3393 35.4001 33.458 35.4293 33.5803 35.4584L33.611 35.4667C33.7234 35.4928 33.8374 35.5157 33.9514 35.537L34.0118 35.55C34.144 35.5745 34.2793 35.5974 34.4162 35.6167C34.6363 35.6427 34.8497 35.664 35.0553 35.6786C35.2609 35.6932 35.4576 35.7046 35.6487 35.7098H36.2045C36.4621 35.7074 36.7193 35.6921 36.9753 35.664C37.1383 35.6479 37.3012 35.6281 37.4641 35.6036C37.8403 35.5465 38.2131 35.4681 38.5805 35.3689C38.7241 35.3299 38.8657 35.2893 39.0073 35.2466C39.3612 35.1389 39.7099 35.0171 40.0685 34.888L40.5036 34.7251C41.0168 34.5361 41.5597 34.3373 42.166 34.1432L42.1437 34.1515Z" fill="black"/>
  <path d="M20.5501 21.543C18.9824 22.089 17.4991 23.0394 18.7477 25.826C20.5501 29.8467 28.6669 34.3139 32.8406 35.2627C30.7217 32.0571 32.4851 28.6589 33.8675 26.4261L33.5031 23.7045C32.3272 23.0761 31.2135 22.3377 30.1768 21.4993C28.1037 19.8957 27.2465 19.4606 24.158 20.4026C22.0397 21.0408 20.5501 21.543 20.5501 21.543Z" fill="#8354BE"/>
  <path opacity="0.05" d="M26.8984 30.6321C22.6305 28.1859 21.2903 26.0098 19.6164 23.918L18.5234 25.2561C18.5529 25.3418 18.5855 25.4298 18.6213 25.52V25.5346C18.6588 25.6293 18.6978 25.7235 18.742 25.8229C19.5311 27.5816 21.5276 29.4262 23.8744 31.0277C24.2103 31.256 24.5521 31.4787 24.8998 31.6959C25.0741 31.8052 25.2485 31.9109 25.4228 32.0218C26.6179 32.7397 27.8545 33.3862 29.126 33.9579C30.319 34.5076 31.5609 34.9441 32.8354 35.2617C32.3712 34.5726 32.0611 33.7915 31.9262 32.9716C30.1685 32.3812 28.4821 31.5965 26.8984 30.6321Z" fill="black"/>
  <path d="M19.3704 22.0856C19.3704 22.0856 14.1079 19.275 13.2751 18.8945L17.8745 16.1907L16.8966 13.6528C16.8966 13.6528 10.0513 16.086 8.7475 16.7856C8.06464 17.1541 7.76953 17.4622 7.76953 17.9827C7.76953 18.856 8.60229 19.9922 9.75462 20.9749C12.2092 23.0661 15.5371 25.0117 18.777 26.7979C19.5203 27.3486 20.2942 28.0414 20.2942 28.0414C21.1551 28.4661 22.3949 24.5235 19.3704 22.0856Z" fill="#FFA8A7"/>
  <path d="M24.2956 12.3102C23.9608 11.5563 23.3422 10.9649 22.574 10.6642C21.8059 10.3636 20.9501 10.378 20.1925 10.7044C19.4349 11.0307 18.8365 11.6427 18.5273 12.4074C18.2181 13.1722 18.2229 14.028 18.5408 14.7893C18.5637 14.8413 18.5897 14.8887 18.6141 14.9376L17.8173 16.6687L16.6504 14.5025C16.6504 14.3316 16.5871 14.1667 16.4728 14.0398C16.3584 13.9128 16.201 13.8327 16.031 13.8149C15.9449 13.8078 15.8581 13.8183 15.7761 13.8457C15.6941 13.8731 15.6185 13.9169 15.5539 13.9743C15.4892 14.0318 15.437 14.1018 15.4002 14.18C15.3634 14.2583 15.3429 14.3432 15.3398 14.4296L16.2377 14.5061C16.0416 14.6377 15.8912 14.8268 15.8072 15.0474C15.5923 15.6049 16.3355 16.741 17.3327 17.7383C17.8763 18.525 18.4605 19.2828 19.0831 20.0086C19.3036 20.1764 19.58 20.2533 19.8555 20.2235L19.9403 16.3122C20.5127 16.6213 21.1673 16.7445 21.8129 16.6645C22.4585 16.5845 23.0632 16.3053 23.5429 15.8658C24.0226 15.4264 24.3534 14.8483 24.4894 14.2122C24.6255 13.576 24.5599 12.9132 24.3019 12.316L24.2956 12.3102Z" fill="#263238"/>
  <path d="M18.5113 17.3464C18.3807 17.5276 17.983 17.2975 17.6686 17.1638C17.5412 17.103 17.4005 17.0755 17.2595 17.0841C17.1186 17.0927 16.9822 17.1369 16.8631 17.2127C16.7439 17.2884 16.646 17.3933 16.5786 17.5173C16.5111 17.6413 16.4762 17.7804 16.4773 17.9216C16.4445 18.8194 17.5495 19.5512 18.1839 19.483C19.2769 19.3706 19.1619 18.6924 19.1619 18.6924L20.7754 22.2373C22.6319 23.2559 26.0868 21.6554 24.0137 20.6499L23.5557 19.5938C23.9517 19.4872 24.3344 19.3363 24.6966 19.1442C25.0081 18.9194 25.2456 18.6071 25.3791 18.2469C25.5125 17.8868 25.5359 17.495 25.4461 17.1216C25.2603 15.7429 24.9574 14.6931 23.6291 12.3952C22.1624 9.8818 19.0656 11.1825 17.8581 12.9495C16.6506 14.7165 18.5113 17.3464 18.5113 17.3464Z" fill="#FFA8A7"/>
  <path d="M18.6424 17.6444C18.5544 17.6835 17.9772 17.2697 17.6644 17.1651C17.2408 17.0183 16.5548 14.3472 16.5548 14.3472C16.3812 14.1654 16.2647 13.9366 16.2198 13.6892C16.175 13.4418 16.2037 13.1867 16.3023 12.9555C16.5563 12.219 17.489 11.7282 18.1344 11.4024C19.2982 10.8142 20.5989 10.1423 21.1709 8.91034C21.2151 8.81406 21.2817 8.70215 21.3874 8.70215C21.4553 8.7096 21.5178 8.74297 21.5617 8.79531C21.8296 9.09722 21.9809 9.48479 21.9885 9.88831C21.9885 9.92735 22 9.97315 22.0359 9.9846C22.0718 9.99605 22.1025 9.96482 22.1239 9.9388C22.2427 9.79431 22.3328 9.62842 22.3893 9.45008C22.4689 9.20701 22.878 9.82482 22.9098 9.90965C23.006 10.1781 23.0475 10.463 23.0318 10.7477C23.0162 11.0324 22.9437 11.3111 22.8187 11.5674C22.5141 12.0482 22.0781 12.4317 21.5623 12.6723C20.5555 13.1982 19.5018 13.6287 18.415 13.9584C18.0694 14.0547 18.1344 14.4003 18.3317 15.3424C18.5123 16.1647 18.9359 17.5091 18.6424 17.6444Z" fill="#263238"/>
  <path d="M23.5462 19.5966C22.6958 19.7876 21.8305 19.9043 20.9599 19.9453C20.5625 19.9151 20.1832 19.7665 19.8711 19.5186C20.0933 19.8051 20.3704 20.0445 20.6862 20.2228C21.3107 20.5652 23.7242 20.0172 23.7242 20.0172L23.5462 19.5966Z" fill="#F28F8F"/>
  <path d="M20.5656 14.6368L19.9931 15.2546C19.9114 15.1751 19.8636 15.0672 19.8596 14.9533C19.8557 14.8395 19.8958 14.7285 19.9717 14.6435C20.0095 14.6028 20.0551 14.5702 20.1059 14.5478C20.1566 14.5253 20.2114 14.5134 20.2669 14.5127C20.3224 14.5121 20.3775 14.5228 20.4287 14.5441C20.48 14.5654 20.5269 14.5969 20.5656 14.6368Z" fill="#263238"/>
  <path d="M22.3945 17.794L23.2341 17.7534C23.2394 17.8087 23.2335 17.8646 23.2167 17.9176C23.1999 17.9705 23.1726 18.0196 23.1364 18.0617C23.1002 18.1039 23.0558 18.1383 23.006 18.1628C22.9561 18.1874 22.9018 18.2016 22.8463 18.2047C22.7325 18.208 22.6218 18.1671 22.5376 18.0905C22.4533 18.0139 22.402 17.9076 22.3945 17.794Z" fill="#F28F8F"/>
  <path d="M24.0182 13.6537L23.2031 13.4455C23.2141 13.3914 23.2359 13.3401 23.2674 13.2948C23.2988 13.2494 23.3392 13.211 23.386 13.1817C23.4328 13.1525 23.4851 13.1331 23.5397 13.1248C23.5942 13.1164 23.6499 13.1193 23.7033 13.1332C23.812 13.1638 23.9051 13.2346 23.9636 13.3312C24.022 13.4279 24.0416 13.5432 24.0182 13.6537Z" fill="#263238"/>
  <path d="M22.2812 14.9297L22.8371 16.9293L23.8135 16.336L22.2812 14.9297Z" fill="#F28F8F"/>
  <path d="M20.7266 15.8243C20.7266 15.8963 20.7479 15.9668 20.788 16.0267C20.828 16.0866 20.8849 16.1333 20.9515 16.1609C21.018 16.1885 21.0913 16.1957 21.162 16.1816C21.2326 16.1676 21.2976 16.1329 21.3485 16.0819C21.3995 16.031 21.4342 15.966 21.4482 15.8954C21.4623 15.8247 21.4551 15.7514 21.4275 15.6849C21.3999 15.6183 21.3532 15.5614 21.2933 15.5214C21.2334 15.4813 21.163 15.46 21.0909 15.46C20.9943 15.46 20.9016 15.4983 20.8333 15.5667C20.765 15.635 20.7266 15.7277 20.7266 15.8243Z" fill="#263238"/>
  <path d="M23.375 14.7913C23.375 14.8609 23.3956 14.9289 23.4343 14.9868C23.473 15.0446 23.5279 15.0897 23.5922 15.1163C23.6565 15.143 23.7272 15.1499 23.7955 15.1364C23.8637 15.1228 23.9264 15.0893 23.9756 15.0401C24.0248 14.9909 24.0583 14.9282 24.0719 14.8599C24.0855 14.7917 24.0785 14.7209 24.0519 14.6566C24.0253 14.5924 23.9802 14.5374 23.9223 14.4987C23.8645 14.4601 23.7964 14.4395 23.7268 14.4395C23.6335 14.4395 23.544 14.4765 23.4781 14.5425C23.4121 14.6085 23.375 14.698 23.375 14.7913Z" fill="#263238"/>
  <path d="M54.045 42.3096C53.9066 42.4043 54.12 43.0023 54.2454 43.147C54.5062 43.402 54.8292 43.5841 55.1823 43.6753C55.8239 43.8729 56.4237 44.1867 56.9519 44.6012C57.6009 45.1288 58.3567 45.5092 59.167 45.7161C60.2253 45.889 61.31 45.6631 62.2113 45.0821C63.2283 44.4789 63.1336 43.9038 62.992 43.5176L54.045 42.3096Z" fill="#37474F"/>
  <path d="M56.2429 38.9629C56.5687 39.31 58.342 41.062 59.703 41.5101C60.7851 41.8656 62.1966 42.2028 62.8128 42.8633C63.4551 43.5509 62.5005 44.431 61.1832 44.9348C59.8107 45.461 58.8786 45.0358 57.9677 44.5793C57.327 44.2535 56.3834 43.6014 55.9093 43.339C55.4351 43.0767 54.556 42.9315 54.1917 42.5422C53.9492 42.1334 53.8006 41.6758 53.7566 41.2025C53.6769 40.7138 53.3543 40.2703 53.5187 40.2443L53.7842 40.5363C55.0229 40.7752 56.3147 39.6229 56.2429 38.9629Z" fill="#8354BE"/>
  <path d="M13.2756 18.8945C12.4971 19.3153 11.6563 19.6091 10.7852 19.7648C11.8369 19.942 12.9171 19.7262 13.82 19.1584L13.2756 18.8945Z" fill="#F28F8F"/>
</svg>
