<svg width="583" height="757" viewBox="0 0 583 757" fill="none" xmlns="http://www.w3.org/2000/svg">
<path d="M88 727C19.2 767.4 2 765 -2.5 727L-2.5 357.5L-2.49999 54.9996L27.8711 37.6725C106.803 -7.35922 202.515 -11.9126 285.366 25.4226C328.441 44.8338 375.678 53.1952 422.799 49.7498L477.566 45.7453C535.01 41.5451 584.641 86.6379 582.12 144.18C578.876 218.243 569.564 301.2 545 348C497.5 438.5 421 397.5 381 472.5C341 547.5 235.5 504.5 195.5 530.5C155.5 556.5 174 676.5 88 727Z" fill="#F9F9F9"/>
</svg>
