
                  <svg xmlns="http://www.w3.org/2000/svg" width="66" height="68" viewBox="0 0 66 68" fill="none">
                    <path d="M25.332 61.4248V67.3123H33.9423H43.4378V61.4248H25.332Z" fill="#F5F5F5" />
                    <path d="M24.5703 59.7773V61.4239H44.0688V59.7773H33.9404H24.5703Z" fill="#E0E0E0" />
                    <path
                      d="M34.3206 67.3113H43.4369V61.4239H44.0698V59.7773H33.9414V61.2716L34.3206 67.3113Z"
                      fill="#E0E0E0"
                    />
                    <path d="M31.5394 62.3735H27.8672V63.2602H31.5394V62.3735Z" fill="#E0E0E0" />
                    <path d="M32.1048 64.3687H27.3906V66.2406H32.1048V64.3687Z" fill="white" />
                    <path d="M26.6797 53.8979V59.7854H35.29H44.7855V53.8979H26.6797Z" fill="#F5F5F5" />
                    <path d="M26.0078 52.2529V53.898H45.5063V52.2529H35.3779H26.0078Z" fill="#EBEBEB" />
                    <path
                      d="M35.6682 59.7854H44.8711V53.898H45.4175V52.2529H35.2891V53.7457L35.6682 59.7854Z"
                      fill="#EBEBEB"
                    />
                    <path d="M32.8831 54.8491H29.2109V55.7358H32.8831V54.8491Z" fill="#E0E0E0" />
                    <path d="M33.4563 56.8418H28.7422V58.7137H33.4563V56.8418Z" fill="white" />
                    <path d="M63.7367 0H41.7109V31.9243H63.7367V0Z" fill="#E0E0E0" />
                    <path d="M62.6273 0H40.6016V31.9243H62.6273V0Z" fill="#F5F5F5" />
                    <path d="M59.8917 3.45801H43.3398V28.4678H59.8917V3.45801Z" fill="white" />
                    <path
                      d="M59.8961 28.4725C59.8961 28.4725 59.8961 28.4292 59.8961 28.3501C59.8961 28.271 59.8961 28.1501 59.8961 27.9949C59.8961 27.6814 59.8961 27.2216 59.8886 26.623C59.8886 25.4288 59.8886 23.6778 59.8737 21.4715C59.8737 17.0618 59.8588 10.8161 59.8468 3.46271L59.9021 3.51794H43.3518L43.4115 3.45823C43.4115 12.8925 43.4025 21.5924 43.3995 28.4681L43.3518 28.4203L55.3999 28.4457L58.7273 28.4576H59.602C59.7991 28.4576 59.9006 28.4576 59.9006 28.4576C59.9006 28.4576 59.8036 28.4576 59.6095 28.4576H58.7437L55.4268 28.4696L43.3488 28.4949H43.301V28.4725C43.301 21.5969 43.2935 12.897 43.2891 3.46271V3.39404H43.3503H59.9006H59.9528V3.44928C59.9424 10.8176 59.9319 17.0753 59.926 21.4939C59.926 23.6957 59.914 25.4377 59.911 26.6334C59.911 27.2306 59.911 27.6784 59.911 27.9949C59.911 28.1441 59.911 28.2621 59.911 28.3427C59.911 28.4233 59.8961 28.4725 59.8961 28.4725Z"
                      fill="#E0E0E0"
                    />
                    <path
                      d="M62.6904 0C62.5761 0.200988 62.4448 0.39177 62.2978 0.570237C62.041 0.912081 61.6783 1.37782 61.2633 1.88089C60.8483 2.38395 60.4617 2.83029 60.1751 3.14675C60.0289 3.32552 59.867 3.49088 59.6914 3.64086C59.8152 3.44696 59.9555 3.26416 60.1109 3.09451C60.4094 2.73624 60.7692 2.29438 61.1722 1.80774C61.5753 1.3211 61.9365 0.87924 62.2306 0.520976C62.3689 0.334653 62.5227 0.160373 62.6904 0Z"
                      fill="#E0E0E0"
                    />
                    <path
                      d="M59.9766 28.3877C60.7993 29.6966 61.7678 30.908 62.8636 31.9987L59.9766 28.3877Z"
                      fill="white"
                    />
                    <path
                      d="M62.8636 31.9978C62.68 31.8629 62.511 31.7093 62.359 31.5396C61.5918 30.7573 60.906 29.899 60.3124 28.978C60.1795 28.7915 60.0669 28.5913 59.9766 28.3809C60.125 28.5518 60.2607 28.7334 60.3826 28.9242C60.6244 29.2661 60.9663 29.7318 61.3648 30.2304C61.7634 30.729 62.1426 31.1634 62.4217 31.4754C62.5821 31.638 62.7298 31.8127 62.8636 31.9978Z"
                      fill="#E0E0E0"
                    />
                    <path d="M40.6016 31.9054L43.4871 28.3467L40.6016 31.9054Z" fill="white" />
                    <path
                      d="M43.4872 28.3401C43.5126 28.361 42.8901 29.1746 42.0914 30.1568C41.2928 31.1391 40.6285 31.9198 40.5987 31.8989C40.5688 31.878 41.1958 31.0644 41.9959 30.0822C42.796 29.1 43.4618 28.3222 43.4872 28.3401Z"
                      fill="#E0E0E0"
                    />
                    <path
                      d="M40.6024 0.000426711C40.6278 -0.020472 41.2548 0.728897 42.0027 1.67382C42.7505 2.61874 43.3342 3.40244 43.3088 3.42185C43.2835 3.44126 42.655 2.69338 41.9086 1.74846C41.1622 0.803536 40.5756 0.0198327 40.6024 0.000426711Z"
                      fill="#E0E0E0"
                    />
                    <path d="M54.738 8.53564H49.1953V24.2724H54.738V8.53564Z" fill="#E0E0E0" />
                    <path
                      d="M65.8597 67.3625C65.8597 67.3849 51.1993 67.4014 33.1189 67.4014C15.0385 67.4014 0.375 67.3849 0.375 67.3625C0.375 67.3402 15.031 67.3237 33.1189 67.3237C51.2067 67.3237 65.8597 67.3416 65.8597 67.3625Z"
                      fill="#263238"
                    />
                    <path
                      d="M2.625 37.9958C2.625 37.9958 5.1627 40.132 5.58367 40.1006C5.86986 40.0847 6.15693 40.0977 6.44051 40.1394L3.71323 37.6182L2.625 37.9958Z"
                      fill="#8354BE"
                    />
                    <path
                      d="M31.6549 41.2781L5.81064 40.1555C5.73207 40.1523 5.65492 40.1335 5.58362 40.1004C5.51232 40.0672 5.44826 40.0203 5.39514 39.9623C5.34202 39.9043 5.30087 39.8364 5.27406 39.7625C5.24725 39.6886 5.2353 39.6101 5.23891 39.5315C5.6748 25.2965 6.38088 8.40137 6.7884 3.40657C6.79916 3.2508 6.87049 3.10545 6.98713 3.00165C7.10377 2.89785 7.25642 2.84386 7.41238 2.85126L33.2746 3.97382C33.3541 3.97685 33.4322 3.99574 33.5042 4.02937C33.5763 4.06301 33.641 4.1107 33.6944 4.16967C33.7478 4.22863 33.7889 4.29766 33.8152 4.37272C33.8416 4.44778 33.8526 4.52735 33.8478 4.60675L32.2804 40.6959C32.2742 40.8559 32.2049 41.0069 32.0877 41.116C31.9705 41.2251 31.8149 41.2833 31.6549 41.2781Z"
                      fill="#8354BE"
                    />
                    <path
                      d="M31.3202 40.7069L5.5073 39.7755L3.47266 38.217L4.69822 1.24414L31.4367 3.06681L32.7578 4.54764L31.3202 40.7069Z"
                      fill="white"
                    />
                    <path
                      d="M31.3159 40.7068L28.9141 38.5587L30.998 2.6875L32.7535 4.54749L31.3159 40.7068Z"
                      fill="#E0E0E0"
                    />
                    <path
                      d="M29.254 39.3369L3.05894 38.1994C2.89976 38.1931 2.74943 38.1245 2.64048 38.0083C2.53153 37.8921 2.47271 37.7376 2.47676 37.5784C2.90966 23.3418 3.61574 6.44819 4.02625 1.45339C4.03922 1.29713 4.11225 1.15197 4.23 1.04842C4.34775 0.944866 4.50105 0.890981 4.65769 0.898084L30.8722 2.03557C31.033 2.04294 31.1843 2.11364 31.2931 2.23224C31.4019 2.35084 31.4594 2.50769 31.4529 2.66851L29.887 38.7577C29.8796 38.9183 29.8088 39.0695 29.6902 39.1781C29.5716 39.2866 29.4147 39.3437 29.254 39.3369Z"
                      fill="#8354BE"
                    />
                    <path
                      d="M4.7237 38.2724C4.7013 38.2724 5.04315 29.9965 5.4865 19.7919C5.92985 9.58737 6.30752 1.31296 6.32842 1.31445C6.34932 1.31595 6.00748 9.58887 5.56412 19.7964C5.12077 30.004 4.7446 38.2724 4.7237 38.2724Z"
                      fill="#263238"
                    />
                    <g opacity="0.3">
                      <path
                        d="M27.5889 37.3127L6.49609 36.3976L7.95453 2.8208L29.0473 3.73736L27.5889 37.3127ZM7.11858 35.8199L27.0187 36.6842L28.4248 4.30163L8.52476 3.44329L7.11858 35.8199Z"
                        fill="black"
                      />
                    </g>
                    <g opacity="0.3">
                      <path
                        d="M19.1423 33.9132L14.7383 33.7217L14.6846 34.9565L19.0886 35.148L19.1423 33.9132Z"
                        fill="black"
                      />
                    </g>
                    <g opacity="0.3">
                      <path
                        d="M19.7318 5.25721L17.6797 5.16797L17.626 6.40281L19.6781 6.49205L19.7318 5.25721Z"
                        fill="black"
                      />
                    </g>
                    <g opacity="0.3">
                      <path
                        d="M25.9615 11.1481L10.4961 10.4756L10.2563 15.9891L25.7217 16.6617L25.9615 11.1481Z"
                        fill="black"
                      />
                    </g>
                    <g opacity="0.3">
                      <path
                        d="M23.4276 17.9951L12.0273 17.5391L11.9344 19.8633L23.3346 20.3193L23.4276 17.9951Z"
                        fill="black"
                      />
                    </g>
                    <g opacity="0.3">
                      <path
                        d="M5.27914 6.147L3.69531 6.07812L3.65193 7.07584L5.23575 7.14472L5.27914 6.147Z"
                        fill="black"
                      />
                    </g>
                    <g opacity="0.3">
                      <path
                        d="M5.20492 7.68997L3.62109 7.62109L3.57771 8.61881L5.16153 8.68769L5.20492 7.68997Z"
                        fill="black"
                      />
                    </g>
                    <g opacity="0.3">
                      <path
                        d="M4.05194 34.3601L2.58594 34.2964L2.54255 35.2941L4.00856 35.3579L4.05194 34.3601Z"
                        fill="black"
                      />
                    </g>
                    <g opacity="0.3">
                      <path
                        d="M5.04867 11.4458L3.46484 11.377L2.71864 28.5365L4.30246 28.6054L5.04867 11.4458Z"
                        fill="black"
                      />
                    </g>
                    <path
                      d="M32.097 3.92432C32.097 3.92432 32.097 3.97806 32.097 4.08554C32.097 4.19301 32.0881 4.35125 32.0806 4.55725C32.0642 4.97373 32.0403 5.58427 32.009 6.37246C31.9433 7.94882 31.8478 10.2298 31.7313 13.0451C31.4895 18.6818 31.1551 26.4666 30.7864 35.0635C30.7103 36.8294 30.6371 38.5595 30.5625 40.2165V40.2553H30.5237L11.9954 39.4373L6.52295 39.188L5.04959 39.1178L4.66744 39.0969L4.53906 39.088H4.66893L5.04959 39.0999L6.52444 39.1581L11.9969 39.3835L30.5267 40.1762L30.4863 40.212C30.5595 38.555 30.6356 36.8234 30.7103 35.059C31.0879 26.4621 31.4298 18.6788 31.6776 13.0421C31.806 10.2253 31.909 7.94583 31.9761 6.36947C32.0135 5.58278 32.0418 4.97075 32.0612 4.55426C32.0717 4.34826 32.0806 4.19152 32.0866 4.08255C32.0926 3.97358 32.097 3.92432 32.097 3.92432Z"
                      fill="#263238"
                    />
                    <path
                      d="M9.75296 52.7689C9.81388 52.9209 9.83989 53.0847 9.82909 53.2481C9.86728 53.0555 9.9412 52.8717 10.047 52.7062C10.0858 52.6435 10.1485 52.5779 10.2187 52.5958C10.2889 52.6137 10.3127 52.7033 10.3157 52.7764C10.3229 52.9792 10.2771 53.1803 10.1829 53.3601C10.3138 53.1938 10.4834 53.062 10.677 52.9764C10.6928 52.9669 10.7106 52.9612 10.7291 52.9599C10.7475 52.9586 10.766 52.9617 10.783 52.969C10.8203 52.9914 10.8218 53.0451 10.8158 53.0884C10.7894 53.258 10.7197 53.4179 10.6136 53.5528C10.5075 53.6878 10.3684 53.7931 10.2097 53.8587L10.1053 53.8736C9.88008 53.8114 9.6865 53.6668 9.56291 53.4685C9.43932 53.2703 9.39473 53.0328 9.43799 52.8033C9.45441 52.7167 9.50367 52.6152 9.58726 52.6137C9.67086 52.6122 9.7231 52.6958 9.75296 52.7689Z"
                      fill="#8354BE"
                    />
                    <path
                      d="M12.0968 57.4482C11.7924 57.2568 11.4562 57.1213 11.1041 57.0482C11.3135 56.333 11.3233 55.5742 11.1325 54.8538C11.0652 54.5675 10.9386 54.2984 10.7608 54.0641C10.6715 53.9473 10.5592 53.8501 10.4308 53.7785C10.3024 53.7069 10.1607 53.6623 10.0144 53.6476C9.85629 53.6447 9.69957 53.6777 9.55606 53.7442C9.41255 53.8106 9.28599 53.9088 9.18593 54.0313L8.81871 54.8792C8.79758 55.0027 8.78312 55.1273 8.77542 55.2524C8.73237 56.0766 8.91728 56.8968 9.30983 57.6229C8.92917 58.0438 8.51568 58.7693 8.63958 59.6098H12.9925C13.0686 58.8037 12.7611 57.9289 12.0968 57.4482Z"
                      fill="#455A64"
                    />
                    <path
                      d="M9.11719 57.8925C9.12617 57.8753 9.13719 57.8592 9.15003 57.8447C9.18417 57.8011 9.22054 57.7592 9.259 57.7193C9.40014 57.5727 9.56271 57.4484 9.74116 57.3506C10.0063 57.2034 10.2981 57.1105 10.5995 57.0774C10.97 57.0323 11.3459 57.0837 11.6907 57.2267C12.0313 57.3791 12.3272 57.616 12.5506 57.9149C12.7327 58.1572 12.8651 58.4332 12.9402 58.7269C12.9922 58.924 13.0134 59.128 13.0029 59.3315C13.0006 59.3865 12.9952 59.4413 12.9864 59.4957C12.9855 59.5151 12.9815 59.5343 12.9745 59.5524C12.9904 59.2788 12.9637 59.0043 12.8954 58.7389C12.8162 58.4536 12.6824 58.1864 12.5013 57.9522C12.2863 57.6598 11.9975 57.4297 11.6643 57.2857C11.3312 57.1417 10.9658 57.0889 10.6055 57.1327C10.3111 57.1631 10.0253 57.2497 9.76356 57.3879C9.52355 57.522 9.30556 57.6922 9.11719 57.8925Z"
                      fill="#263238"
                    />
                    <path
                      d="M8.75234 55.562C8.73656 55.4668 8.73405 55.3698 8.74488 55.2739C8.75107 55.0402 8.79027 54.8085 8.86132 54.5857C8.93389 54.3587 9.06219 54.1534 9.23451 53.9886C9.30278 53.9197 9.3868 53.8685 9.47932 53.8394C9.47932 53.8483 9.38826 53.9021 9.26586 54.0274C9.11142 54.1936 8.9948 54.3912 8.92401 54.6066C8.85541 54.825 8.81086 55.0503 8.79116 55.2784C8.78675 55.3739 8.77376 55.4688 8.75234 55.562Z"
                      fill="#263238"
                    />
                    <path
                      d="M11.2695 59.0568C11.3946 58.9079 11.5309 58.7686 11.6771 58.6403C11.8068 58.4963 11.947 58.3621 12.0965 58.2388C11.9958 58.4063 11.8699 58.5573 11.7233 58.6866C11.5917 58.8322 11.4387 58.9571 11.2695 59.0568Z"
                      fill="#263238"
                    />
                    <path
                      d="M10.7812 58.8039C10.7846 58.6575 10.8087 58.5122 10.8529 58.3725C10.8766 58.2278 10.9219 58.0874 10.9873 57.9561C10.9627 58.2476 10.8932 58.5336 10.7812 58.8039Z"
                      fill="#263238"
                    />
                    <path
                      d="M9.5 58.3271C9.70082 58.567 9.83243 58.857 9.88066 59.1661C9.80549 59.0319 9.74061 58.8921 9.6866 58.7481C9.61342 58.6129 9.55103 58.4722 9.5 58.3271Z"
                      fill="#263238"
                    />
                    <path
                      d="M10.8867 56.2884C10.9672 56.1272 11.0675 55.9768 11.1853 55.8405C11.2836 55.6919 11.4004 55.5565 11.5331 55.4375C11.4514 55.5979 11.3512 55.7482 11.2345 55.8853C11.1354 56.0333 11.0186 56.1687 10.8867 56.2884Z"
                      fill="#263238"
                    />
                    <path
                      d="M10.582 54.9269C10.6743 54.7345 10.7858 54.552 10.9149 54.3821C11.0271 54.2004 11.1571 54.0304 11.303 53.8745C11.2112 54.0671 11.0996 54.2497 10.9702 54.4194C10.8584 54.6013 10.7284 54.7714 10.582 54.9269Z"
                      fill="#263238"
                    />
                    <path
                      d="M10.0955 55.2842C10.1366 55.4345 10.1572 55.5896 10.1567 55.7454C10.1782 55.8999 10.1782 56.0567 10.1567 56.2112C10.1137 56.0612 10.0926 55.9059 10.094 55.7499C10.0723 55.5954 10.0729 55.4386 10.0955 55.2842Z"
                      fill="#263238"
                    />
                    <path
                      d="M8.14062 55.9038C8.35737 55.9841 8.56382 56.0898 8.75565 56.2188C8.95856 56.3309 9.14747 56.4667 9.31842 56.6233C9.11138 56.5217 8.91184 56.4055 8.72131 56.2755C8.51959 56.1648 8.32559 56.0407 8.14062 55.9038Z"
                      fill="#263238"
                    />
                    <g opacity="0.3">
                      <path
                        d="M9.7058 57.0746C9.92316 56.9605 10.1649 56.9006 10.4104 56.9C10.6642 56.888 10.9478 56.9134 11.1194 57.1V57.1089C10.4741 57.0689 9.83649 57.2676 9.32812 57.6672C9.33386 57.5441 9.37174 57.4246 9.438 57.3206C9.50426 57.2166 9.59658 57.1318 9.7058 57.0746Z"
                        fill="black"
                      />
                    </g>
                    <path
                      d="M11.7729 48.5288C11.8975 48.4948 12.0282 48.4897 12.1551 48.5139C12.0079 48.4655 11.8708 48.3906 11.7505 48.293C11.7057 48.2556 11.6609 48.2004 11.6804 48.1437C11.6998 48.087 11.7744 48.081 11.8296 48.0855C11.9901 48.0983 12.1445 48.1528 12.2775 48.2437C12.1607 48.1258 12.0741 47.9813 12.0252 47.8227C12.0185 47.8096 12.015 47.795 12.015 47.7802C12.015 47.7654 12.0185 47.7508 12.0252 47.7377C12.0461 47.7108 12.0879 47.7153 12.1207 47.7242C12.2508 47.7609 12.3692 47.8305 12.4646 47.9262C12.56 48.0218 12.6292 48.1404 12.6656 48.2706V48.3542C12.5956 48.5233 12.465 48.6603 12.2993 48.7382C12.1336 48.816 11.9448 48.8292 11.7699 48.7751C11.7042 48.7542 11.6311 48.7065 11.6371 48.6378C11.643 48.5691 11.7132 48.5437 11.7729 48.5288Z"
                      fill="#8354BE"
                    />
                    <path
                      d="M20.5456 42.9668C20.5681 43.0934 20.5619 43.2234 20.5277 43.3474C20.5878 43.2049 20.6738 43.0748 20.7815 42.9638C20.8218 42.9235 20.8815 42.8817 20.9308 42.907C20.98 42.9324 20.986 43.0041 20.9771 43.0563C20.9494 43.2139 20.8821 43.3619 20.7815 43.4862C20.9103 43.3777 21.0643 43.3033 21.2293 43.2698C21.2431 43.2647 21.2579 43.2629 21.2724 43.2648C21.287 43.2666 21.3009 43.2719 21.3129 43.2802C21.3383 43.3041 21.3293 43.3444 21.3129 43.3773C21.2649 43.5047 21.1847 43.6175 21.08 43.7047C20.9754 43.7918 20.8499 43.8503 20.7158 43.8744H20.6337C20.4702 43.7907 20.344 43.6488 20.2801 43.4765C20.2162 43.3043 20.2194 43.1144 20.2889 42.9444C20.3158 42.8802 20.3695 42.81 20.4382 42.8234C20.5068 42.8369 20.5456 42.9055 20.5456 42.9668Z"
                      fill="#8354BE"
                    />
                    <path
                      d="M14.4356 54.3463C14.5013 54.3463 14.561 54.3553 14.6222 54.3613C14.7356 53.1178 14.358 51.8564 14.7386 50.6682L14.6879 50.7323C14.2299 50.8044 13.7613 50.7623 13.3235 50.6099C13.1057 50.5324 12.9059 50.4115 12.7363 50.2545C12.5667 50.0974 12.4308 49.9075 12.3367 49.6964C12.247 49.4828 12.2192 49.2484 12.2564 49.0198C12.2936 48.7912 12.3944 48.5777 12.5472 48.4036C12.9771 47.9558 13.7414 47.9782 14.2759 48.2872C14.8103 48.5962 15.1611 49.0888 15.5044 49.5829C15.6846 49.4389 15.886 49.3236 16.1015 49.2411C15.5044 48.4156 14.9222 47.5483 14.7326 46.5541C14.5251 45.4629 14.9327 44.1657 15.9463 43.7178C16.8091 43.3297 17.8869 43.6805 18.4989 44.4045C18.5452 44.462 18.5885 44.5218 18.6288 44.5836L18.6094 44.5239C18.7582 44.1392 19.0526 43.8286 19.4289 43.6596C19.6166 43.5789 19.8202 43.542 20.0243 43.5518C20.2284 43.5617 20.4276 43.6179 20.6067 43.7163C20.7835 43.8191 20.9301 43.9666 21.0317 44.144C21.1334 44.3214 21.1866 44.5225 21.1859 44.7269C21.1678 44.9563 21.0892 45.1768 20.9581 45.3659C20.827 45.555 20.648 45.7059 20.4395 45.8032C20.0338 45.9834 19.5801 46.0254 19.1482 45.9226C19.2032 46.3075 19.2007 46.6984 19.1408 47.0825C19.0064 47.9498 18.6183 48.7574 18.1585 49.5098C18.2866 49.5938 18.4052 49.6914 18.5123 49.8009C19.2945 50.6204 19.3453 51.934 18.9348 52.9894C18.5243 54.0448 17.4077 54.8151 16.6404 55.6406C16.9591 56.2139 17.162 56.8444 17.2375 57.4961C17.3736 57.2143 17.5852 56.9759 17.8487 56.8072C18.1123 56.6385 18.4174 56.5463 18.7303 56.5407C19.0676 56.5407 19.4438 56.69 19.5468 57.0109C19.6394 57.2931 19.4841 57.5976 19.2841 57.8155C19.0308 58.0698 18.7174 58.2561 18.3729 58.3571C18.0285 58.4581 17.6642 58.4705 17.3136 58.3932L17.3062 58.1872C17.3322 58.6601 17.3207 59.1343 17.2718 59.6054H12.2964C12.2964 59.6054 10.9694 54.218 14.4356 54.3463Z"
                      fill="#455A64"
                    />
                    <path d="M6.60199 61.6938H18.3516V59.6114H6.60199V61.6938Z" fill="#8354BE" />
                    <path d="M17.476 61.2793L16.046 67.5012H9.0434L7.48047 61.2793H17.476Z" fill="#8354BE" />
                    <path
                      d="M6.61328 61.6946C6.61328 61.7185 9.26294 61.7364 12.5321 61.7364C15.8013 61.7364 18.4509 61.7185 18.4509 61.6946C18.4509 61.6707 15.8013 61.6543 12.5321 61.6543C9.26294 61.6543 6.61328 61.6722 6.61328 61.6946Z"
                      fill="#263238"
                    />
                    <path
                      d="M13.5156 54.55C13.5371 54.5348 13.5601 54.5218 13.5843 54.5112C13.6504 54.4763 13.7193 54.4468 13.7903 54.4231C14.0534 54.3351 14.3321 54.3031 14.6083 54.3291C15.0188 54.3656 15.4138 54.5036 15.7578 54.7306C16.1738 55.0167 16.5132 55.4007 16.746 55.8487C16.9809 56.2926 17.1408 56.7723 17.2192 57.2683C17.279 57.672 17.306 58.0799 17.2998 58.4879C17.2998 58.8343 17.2864 59.1149 17.2789 59.309C17.2789 59.4 17.2789 59.4732 17.2699 59.5314C17.2724 59.5572 17.2724 59.5832 17.2699 59.609C17.2663 59.5833 17.2663 59.5571 17.2699 59.5314C17.2699 59.4732 17.2699 59.4 17.2699 59.309C17.2699 59.1059 17.2699 58.8283 17.2699 58.4879C17.2695 58.0831 17.2386 57.679 17.1774 57.2788C17.097 56.7901 16.9377 56.3177 16.7057 55.8801C16.4776 55.4418 16.1474 55.065 15.7428 54.7814C15.4075 54.5573 15.0228 54.4179 14.6218 54.3754C14.351 54.3465 14.0771 54.3708 13.8157 54.447C13.6141 54.5037 13.5276 54.5575 13.5156 54.55Z"
                      fill="#263238"
                    />
                    <path
                      d="M14.5698 51.9086C14.5631 51.8894 14.5601 51.8692 14.5608 51.8489C14.5579 51.7927 14.5579 51.7364 14.5608 51.6802C14.5616 51.4706 14.5861 51.2618 14.6339 51.0577C14.702 50.7535 14.8184 50.4622 14.9788 50.1949C15.0724 50.0362 15.1841 49.889 15.3117 49.756C15.4467 49.6102 15.6033 49.4859 15.7759 49.3873C15.9493 49.2888 16.1365 49.2168 16.3312 49.1738C16.5125 49.1381 16.6974 49.1241 16.8821 49.132C17.1936 49.1518 17.4995 49.2245 17.7867 49.347C17.9794 49.4276 18.1635 49.5277 18.336 49.6456C18.3987 49.6859 18.442 49.7232 18.4733 49.7471C18.5047 49.7709 18.5181 49.7844 18.5166 49.7859C18.4498 49.7497 18.385 49.7099 18.3226 49.6665C18.1464 49.5579 17.9611 49.465 17.7688 49.3888C17.4833 49.2734 17.1806 49.2068 16.8731 49.1917C16.6939 49.1858 16.5146 49.2003 16.3387 49.235C16.151 49.2781 15.9705 49.348 15.8028 49.4425C15.6367 49.5387 15.4858 49.6589 15.355 49.7993C15.23 49.928 15.1203 50.0708 15.028 50.2247C14.8684 50.4858 14.7496 50.7697 14.6757 51.0667C14.6248 51.2671 14.5938 51.4721 14.5832 51.6787C14.5698 51.8325 14.5698 51.9086 14.5698 51.9086Z"
                      fill="#263238"
                    />
                    <path
                      d="M19.1802 46.6604C19.1537 46.5291 19.1397 46.3957 19.1384 46.2618C19.1279 46.1394 19.116 45.9931 19.0891 45.8334C19.0602 45.6597 19.0101 45.4903 18.9398 45.3288C18.8174 45.0342 18.6675 44.7518 18.492 44.4854C18.3562 44.2794 18.2546 44.166 18.2621 44.16C18.2696 44.154 18.2935 44.1809 18.3427 44.2317C18.4104 44.303 18.4732 44.3788 18.5308 44.4586C18.7219 44.7212 18.8817 45.0053 19.007 45.305C19.0771 45.4709 19.1243 45.6457 19.1473 45.8244C19.1673 45.969 19.1793 46.1145 19.1831 46.2603C19.1925 46.3936 19.1915 46.5273 19.1802 46.6604Z"
                      fill="#263238"
                    />
                    <path
                      d="M18.543 57.8257C18.6682 57.8912 18.7825 57.9758 18.8818 58.0765C18.9967 58.1594 19.0975 58.2602 19.1804 58.375C19.0551 58.3095 18.9408 58.2249 18.8415 58.1242C18.7274 58.0404 18.6268 57.9398 18.543 57.8257Z"
                      fill="#263238"
                    />
                    <path
                      d="M18.957 57.4107C19.2337 57.3393 19.5197 57.3111 19.8049 57.3271C19.6695 57.3743 19.5274 57.3995 19.384 57.4018C19.243 57.4269 19.0989 57.4299 18.957 57.4107Z"
                      fill="#263238"
                    />
                    <path
                      d="M18.6406 56.685C18.7096 56.5699 18.7885 56.461 18.8765 56.3596C18.9462 56.2446 19.0256 56.1357 19.1138 56.0342C19.0312 56.2969 18.865 56.5254 18.6406 56.685Z"
                      fill="#263238"
                    />
                    <path
                      d="M18.0848 56.3418C18.0812 56.5047 18.0556 56.6664 18.0087 56.8225C17.9807 56.9839 17.9305 57.1406 17.8594 57.2882C17.8898 56.9645 17.9631 56.6462 18.0773 56.3418H18.0848Z"
                      fill="#263238"
                    />
                    <path
                      d="M17.7082 58.0202C17.6963 58.0067 17.7754 57.9171 17.8844 57.8186C17.9933 57.7201 18.0919 57.6514 18.1038 57.6693C18.1157 57.6873 18.0366 57.7738 17.9277 57.8724C17.8187 57.9709 17.7276 58.0291 17.7082 58.0202Z"
                      fill="#263238"
                    />
                    <path
                      d="M15.9895 57.6955C15.9761 57.6821 16.0716 57.5611 16.2015 57.4253C16.3314 57.2895 16.4493 57.188 16.4627 57.2014C16.338 57.3948 16.1773 57.5625 15.9895 57.6955Z"
                      fill="#263238"
                    />
                    <path
                      d="M15.6211 56.1013C15.6531 55.9844 15.7067 55.8745 15.7793 55.7774C15.833 55.6688 15.9064 55.5711 15.9958 55.4893C15.9084 55.714 15.7815 55.9213 15.6211 56.1013Z"
                      fill="#263238"
                    />
                    <path
                      d="M14.5127 54.8027C14.5472 54.9377 14.5603 55.0772 14.5515 55.2162C14.5642 55.3551 14.5551 55.4951 14.5247 55.6312C14.4893 55.4964 14.4762 55.3567 14.4858 55.2177C14.4735 55.0788 14.4825 54.9389 14.5127 54.8027Z"
                      fill="#263238"
                    />
                    <path
                      d="M12.207 55.2432C12.3266 55.3615 12.4364 55.4893 12.5354 55.6253C12.6502 55.7487 12.7551 55.8809 12.8489 56.0209C12.7077 55.9254 12.584 55.8062 12.4832 55.6686C12.367 55.544 12.2736 55.4 12.207 55.2432Z"
                      fill="#263238"
                    />
                    <path
                      d="M11.9102 57.5096C12.0485 57.5024 12.1871 57.5175 12.3207 57.5543C12.4585 57.57 12.593 57.6073 12.7192 57.6648C12.5809 57.672 12.4423 57.6569 12.3087 57.62C12.1708 57.6046 12.0363 57.5673 11.9102 57.5096Z"
                      fill="#263238"
                    />
                    <path
                      d="M14.3047 58.2995C14.3265 58.141 14.3803 57.9886 14.4629 57.8517C14.5267 57.7028 14.619 57.5679 14.7346 57.4546C14.6748 57.602 14.604 57.7448 14.5226 57.8815C14.4599 58.0258 14.3871 58.1655 14.3047 58.2995Z"
                      fill="#263238"
                    />
                    <path
                      d="M13.5073 57.2103C13.4728 57.1024 13.4592 56.9889 13.467 56.8759C13.4537 56.7634 13.4623 56.6493 13.4924 56.54C13.5286 56.6475 13.5424 56.7614 13.5327 56.8744C13.5468 56.9869 13.5382 57.1012 13.5073 57.2103Z"
                      fill="#263238"
                    />
                    <path
                      d="M16.082 59.1276C16.0959 59.0007 16.1422 58.8794 16.2164 58.7754C16.2743 58.6609 16.36 58.5629 16.4657 58.4902C16.4113 58.6024 16.3469 58.7093 16.2731 58.8097C16.2197 58.9215 16.1557 59.028 16.082 59.1276Z"
                      fill="#263238"
                    />
                    <path
                      d="M13.3463 59.2855C13.2694 59.1888 13.2093 59.0798 13.1687 58.9631C13.1092 58.8545 13.0693 58.7362 13.0508 58.6138C13.1281 58.7102 13.1882 58.8193 13.2284 58.9362C13.2881 59.0447 13.3281 59.163 13.3463 59.2855Z"
                      fill="#263238"
                    />
                    <path
                      d="M17.5977 54.2321C17.7479 54.205 17.9011 54.199 18.053 54.2142C18.2037 54.2093 18.3544 54.2254 18.5008 54.262C18.3508 54.291 18.1973 54.297 18.0455 54.2799C17.8947 54.2856 17.7439 54.2695 17.5977 54.2321Z"
                      fill="#263238"
                    />
                    <path
                      d="M18.5898 52.538C18.7215 52.4045 18.8683 52.2867 19.0272 52.1872C19.1734 52.0698 19.3327 51.9696 19.5019 51.8887C19.3708 52.0218 19.2245 52.139 19.066 52.238C18.9199 52.3568 18.7601 52.4575 18.5898 52.538Z"
                      fill="#263238"
                    />
                    <path
                      d="M18.4844 50.3614C18.5963 50.2734 18.7151 50.1945 18.8397 50.1255C18.9524 50.0387 19.0712 49.9599 19.1949 49.8896C19.1128 50.0098 19.0039 50.1095 18.877 50.1807C18.7615 50.27 18.6273 50.3317 18.4844 50.3614Z"
                      fill="#263238"
                    />
                    <path
                      d="M17.375 49.5904C17.3853 49.4104 17.4179 49.2324 17.472 49.0604C17.5041 48.8824 17.5578 48.709 17.6318 48.5439C17.5902 48.9016 17.504 49.2527 17.375 49.5889V49.5904Z"
                      fill="#263238"
                    />
                    <path
                      d="M15.5234 49.041C15.6126 49.1346 15.6853 49.2426 15.7384 49.3605C15.8111 49.4673 15.8647 49.586 15.8966 49.7113C15.8075 49.6177 15.7348 49.5097 15.6817 49.3918C15.6089 49.285 15.5554 49.1663 15.5234 49.041Z"
                      fill="#263238"
                    />
                    <path
                      d="M13.9219 52.7163C13.9338 52.7014 14.1458 52.8656 14.4234 53.0342C14.7011 53.2029 14.9414 53.3238 14.9325 53.3328C14.7381 53.2824 14.5541 53.198 14.3891 53.0835C14.2133 52.9891 14.0552 52.8648 13.9219 52.7163Z"
                      fill="#263238"
                    />
                    <path
                      d="M16.5156 53.5419C16.715 53.3677 16.942 53.2279 17.1874 53.1284C17.0941 53.2231 16.9862 53.3022 16.8679 53.3628C16.7615 53.442 16.6424 53.5026 16.5156 53.5419Z"
                      fill="#263238"
                    />
                    <path
                      d="M16.9461 51.7847C16.9327 51.7697 17.0954 51.6055 17.2551 51.3652C17.4148 51.1248 17.4969 50.9069 17.5148 50.9174C17.4387 51.2675 17.2362 51.5774 16.9461 51.7876V51.7847Z"
                      fill="#263238"
                    />
                    <path
                      d="M16.0951 51.387C16.0674 51.2468 16.0629 51.1031 16.0817 50.9615C16.0773 50.8189 16.0949 50.6764 16.1339 50.5391C16.1599 50.6794 16.1644 50.8228 16.1474 50.9645C16.1518 51.1072 16.1341 51.2497 16.0951 51.387Z"
                      fill="#263238"
                    />
                    <path
                      d="M15.6252 53.1247C15.5766 52.9862 15.5484 52.8413 15.5416 52.6947C15.5138 52.5501 15.5083 52.4021 15.5252 52.2559C15.6013 52.5389 15.635 52.8317 15.6252 53.1247Z"
                      fill="#263238"
                    />
                    <path
                      d="M14.314 47.8926C14.3696 48.0513 14.4155 48.2134 14.4513 48.3777C14.5086 48.5366 14.555 48.6992 14.5901 48.8644C14.494 48.7222 14.4257 48.5632 14.3886 48.3956C14.3313 48.2344 14.3059 48.0635 14.314 47.8926Z"
                      fill="#263238"
                    />
                    <path
                      d="M13.3906 50.942C13.5098 50.8395 13.6365 50.7462 13.7698 50.6629C13.8901 50.5614 14.0178 50.469 14.1519 50.3867C13.9533 50.6375 13.6901 50.8295 13.3906 50.942Z"
                      fill="#263238"
                    />
                    <path
                      d="M12.1289 50.0072C12.2803 49.9633 12.4351 49.9318 12.5917 49.9132C12.7443 49.8723 12.9001 49.8444 13.0574 49.8296C12.9192 49.9078 12.7671 49.9585 12.6096 49.9789C12.4528 50.0202 12.2894 50.0299 12.1289 50.0072Z"
                      fill="#263238"
                    />
                    <path
                      d="M13.3523 48.96C13.4487 48.9836 13.5389 49.0279 13.6165 49.0898C13.7538 49.1779 13.8554 49.26 13.8464 49.2764C13.7493 49.2525 13.6587 49.2076 13.5807 49.1451C13.4448 49.0585 13.3418 48.9749 13.3523 48.96Z"
                      fill="#263238"
                    />
                    <path
                      d="M12.7422 47.8301C12.9692 47.9639 13.1467 48.1676 13.2482 48.4108C13.1543 48.323 13.0688 48.2265 12.993 48.1227C12.9009 48.0327 12.817 47.9348 12.7422 47.8301Z"
                      fill="#263238"
                    />
                    <path
                      d="M11.9102 48.9053C12.0558 48.9285 12.1992 48.9645 12.3386 49.0127C12.4835 49.04 12.6254 49.081 12.7625 49.1352C12.6108 49.145 12.4586 49.1247 12.3147 49.0754C12.1698 49.0465 12.0322 48.9886 11.9102 48.9053Z"
                      fill="#263238"
                    />
                    <path
                      d="M17.6758 47.4579C17.7905 47.26 17.9161 47.0687 18.052 46.8846C18.1689 46.6891 18.2959 46.4997 18.4326 46.3174C18.353 46.5332 18.2435 46.7367 18.1072 46.922C17.9882 47.1192 17.8431 47.2995 17.6758 47.4579Z"
                      fill="#263238"
                    />
                    <path
                      d="M17.3053 46.1398C17.2938 45.9754 17.3043 45.8103 17.3367 45.6487C17.3475 45.4839 17.3802 45.3213 17.4337 45.165C17.4453 45.3294 17.4347 45.4946 17.4024 45.6562C17.3915 45.821 17.3589 45.9836 17.3053 46.1398Z"
                      fill="#263238"
                    />
                    <path
                      d="M16.0273 46.3447C16.0467 46.3447 16.1005 46.594 16.2274 46.8851C16.3543 47.1762 16.4991 47.3882 16.4841 47.4001C16.3423 47.2632 16.2336 47.0957 16.1662 46.9105C16.0787 46.7345 16.0312 46.5413 16.0273 46.3447Z"
                      fill="#263238"
                    />
                    <path
                      d="M14.5195 46.6637C14.536 46.6517 14.7225 46.8726 14.9823 47.1115C15.242 47.3503 15.4719 47.528 15.46 47.5444C15.0792 47.3302 14.7564 47.0263 14.5195 46.6592V46.6637Z"
                      fill="#263238"
                    />
                    <path
                      d="M15.1055 43.9297C15.1234 43.9297 15.1816 44.2044 15.2861 44.5372C15.3906 44.8701 15.4966 45.1344 15.4787 45.1344C15.3615 44.9553 15.2747 44.7581 15.2219 44.5507C15.1489 44.3516 15.1096 44.1417 15.1055 43.9297Z"
                      fill="#263238"
                    />
                    <path
                      d="M16.8379 43.0312C16.9015 43.3525 16.9215 43.6809 16.8976 44.0075C16.834 43.6862 16.814 43.3579 16.8379 43.0312Z"
                      fill="#263238"
                    />
                    <path
                      d="M20.4141 45.3406C20.539 45.3386 20.6639 45.3476 20.7873 45.3675C20.912 45.367 21.0364 45.3785 21.159 45.4018C21.0377 45.444 20.9078 45.4548 20.7813 45.4332C20.653 45.4344 20.5265 45.4025 20.4141 45.3406Z"
                      fill="#263238"
                    />
                    <path
                      d="M20.3086 44.4446C20.4672 44.3224 20.639 44.2183 20.8206 44.1341C20.9924 44.0316 21.1745 43.9475 21.364 43.8833C21.2055 44.0053 21.0337 44.1089 20.852 44.1923C20.6803 44.2955 20.4982 44.3801 20.3086 44.4446Z"
                      fill="#263238"
                    />
                    <path
                      d="M19.3398 44.4724C19.3544 44.3148 19.3911 44.16 19.4488 44.0126C19.4852 43.8588 19.5435 43.711 19.622 43.5737C19.6054 43.7311 19.5682 43.8857 19.5115 44.0335C19.4744 44.1869 19.4167 44.3345 19.3398 44.4724Z"
                      fill="#263238"
                    />
                    <g opacity="0.3">
                      <path
                        d="M16.6347 55.649C16.6263 55.409 16.5621 55.1743 16.4474 54.9634C16.3326 54.7526 16.1703 54.5713 15.9734 54.4339C15.5823 54.1711 14.8777 54.1458 14.6016 54.3413C15.0357 54.354 15.4556 54.4994 15.8047 54.7578C16.1336 55.0034 16.4149 55.3069 16.6347 55.6535"
                        fill="black"
                      />
                    </g>
                    <g opacity="0.3">
                      <path
                        d="M18.1519 49.5904C18.0621 49.403 17.93 49.239 17.766 49.1113C17.6021 48.9836 17.4107 48.8957 17.207 48.8545C16.8055 48.7813 16.2367 49.0037 16.0859 49.256C16.4347 49.1157 16.8181 49.0855 17.1846 49.1694C17.53 49.2497 17.8578 49.3924 18.1519 49.5904Z"
                        fill="black"
                      />
                    </g>
                    <g opacity="0.3">
                      <path
                        d="M19.1741 45.9889C19.2527 45.8506 19.2992 45.6965 19.3103 45.5379C19.3214 45.3793 19.2968 45.2202 19.2383 45.0723C19.1806 44.9382 19.091 44.8202 18.9773 44.7286C18.8636 44.6371 18.7293 44.5747 18.5859 44.5469C18.8964 44.9947 19.1412 45.4575 19.1651 46.0053"
                        fill="black"
                      />
                    </g>
                    <path
                      d="M12.9079 54.8354C12.9079 54.8354 12.8556 54.8832 12.7735 54.9847C12.6592 55.1236 12.5592 55.2737 12.4749 55.4326C12.2272 55.964 12.0785 56.5361 12.0361 57.1209C11.9984 57.71 12.0279 58.3014 12.1241 58.8838C12.1585 59.1092 12.1928 59.2899 12.2167 59.4138C12.2325 59.4779 12.2425 59.5434 12.2466 59.6093C12.2203 59.5484 12.2007 59.4849 12.1883 59.4197C12.157 59.2973 12.1152 59.1212 12.0734 58.8928C11.9619 58.3072 11.9252 57.7098 11.9644 57.1149C12.0014 56.5169 12.1572 55.9323 12.4227 55.3952C12.5128 55.2379 12.6216 55.0921 12.7466 54.9608C12.7917 54.909 12.8465 54.8664 12.9079 54.8354Z"
                      fill="#263238"
                    />
                    <path
                      d="M18.3575 59.6102C18.3456 59.6122 18.3335 59.6122 18.3216 59.6102H18.2171H17.8141L16.3318 59.6207L11.4415 59.6311L6.60938 59.6207L6.63177 59.5968C6.63177 60.2387 6.63177 60.7582 6.63177 61.1224C6.63177 61.3001 6.63177 61.4389 6.63177 61.5374C6.63177 61.5822 6.63177 61.618 6.63177 61.6464C6.63403 61.6582 6.63403 61.6704 6.63177 61.6822C6.62951 61.6704 6.62951 61.6582 6.63177 61.6464V61.5374C6.63177 61.4389 6.63177 61.3001 6.6243 61.1239C6.6243 60.7582 6.61535 60.2387 6.60938 59.5983V59.5744H6.63326L11.4653 59.564L16.3557 59.5744L17.838 59.5849H18.241H18.3455L18.3575 59.6102Z"
                      fill="#263238"
                    />
                    <path d="M36.4141 67.3641H57.9935L55.9842 61.4497L39.4474 62.308L36.4141 67.3641Z" fill="#263238" />
                    <path
                      d="M40.4374 62.4287L53.0483 61.9585L57.5266 36.88L53.4797 35.1379C53.4797 35.1379 51.8003 36.0799 48.6894 36.0948C45.6367 36.1097 45.6904 35.0723 45.6904 35.0723L43.0139 37.9548C43.0139 37.9548 39.7194 47.3279 39.6701 47.5175C39.6208 47.7071 40.4374 62.4287 40.4374 62.4287Z"
                      fill="white"
                    />
                    <path
                      d="M55.0204 35.7768C55.0204 35.7768 61.2318 37.0606 61.2901 38.0951C61.3483 39.1296 58.6329 45.544 58.5807 45.7082C58.5284 45.8724 56.134 55.044 56.134 55.044L59.7167 67.3653H48.5508C48.5508 67.3653 49.3479 55.7411 50.2436 50.3701C51.1392 44.9992 51.3527 43.2049 51.6975 41.0762C51.8349 40.2238 52.529 37.2995 52.9604 35.5141C53.0826 35.0108 53.1049 34.4884 53.0261 33.9766L53.556 34.1781L55.0204 35.7768Z"
                      fill="#455A64"
                    />
                    <path
                      d="M35.587 51.5032C35.5273 51.5928 34.3928 55.7113 34.2062 56.9041C34.048 57.9162 33.7972 59.5612 34.8705 61.0838C35.9438 62.6064 37.0529 62.4273 38.1247 62.0392C39.1965 61.6511 40.3639 59.4134 40.5699 58.1296C40.7759 56.8458 39.5637 51.2002 39.5637 51.2002L35.587 51.5032Z"
                      fill="#455A64"
                    />
                    <path
                      d="M45.7012 34.2744L44.3189 36.2255C44.3189 36.2255 39.7092 36.8226 38.6464 37.5958C37.5835 38.3691 35.4414 52.322 35.4414 52.322L39.7301 54.7104L36.4162 67.3661H40.5706C40.5706 67.3661 41.6006 62.0324 41.5065 58.202C41.4125 54.3715 42.0768 49.3947 43.2978 45.7135C44.5189 42.0323 45.6863 35.6672 45.6863 35.6672L45.7012 34.2744Z"
                      fill="#455A64"
                    />
                    <g opacity="0.3">
                      <path
                        d="M58.2537 62.7052L50.8242 58.5732C51.1407 60.2765 52.1408 61.9096 53.6038 62.8381C54.3403 63.3016 55.1635 63.6105 56.0232 63.746C56.8828 63.8815 57.7611 63.8408 58.6045 63.6263C58.4851 63.3188 58.3682 63.0117 58.2537 62.7052Z"
                        fill="black"
                      />
                    </g>
                    <path
                      d="M36.2388 54.8389C36.2388 54.8523 36.0626 54.8807 35.7999 54.9882C35.4563 55.1353 35.1543 55.3651 34.9207 55.6569C34.6915 55.9519 34.5378 56.2982 34.4728 56.666C34.4236 56.9482 34.4385 57.1288 34.4236 57.1303C34.4103 57.0893 34.4042 57.0464 34.4057 57.0034C34.3985 56.8878 34.403 56.7718 34.4191 56.6571C34.4688 56.2741 34.6215 55.9119 34.861 55.609C35.1005 55.3061 35.4178 55.074 35.779 54.9374C35.8871 54.8951 35.9991 54.8636 36.1134 54.8434C36.1546 54.8346 36.197 54.8331 36.2388 54.8389Z"
                      fill="#263238"
                    />
                    <path
                      d="M37.1065 60.6344C37.1065 60.6344 38.2857 60.2612 38.7097 59.7821C39.1134 59.3072 39.3843 58.734 39.4949 58.1206C39.5486 57.4101 39.8158 53.6781 39.8158 53.6781L36.7079 53.4736L34.7912 57.1339C34.7912 57.1339 34.2717 58.4774 35.3331 59.909C36.0108 60.827 37.1065 60.6344 37.1065 60.6344Z"
                      fill="#FFBF9D"
                    />
                    <path
                      d="M40.0949 58.5744C40.1014 58.4305 40.1154 58.287 40.1367 58.1445C40.1684 57.8006 40.1634 57.4543 40.1218 57.1115C40.0779 56.7683 39.9984 56.4306 39.8844 56.1039C39.7964 55.8531 39.7262 55.7038 39.7351 55.6979C39.7441 55.6919 39.762 55.7307 39.7993 55.7964C39.8498 55.8897 39.8947 55.9859 39.9337 56.0845C40.199 56.7392 40.2875 57.4522 40.1904 58.152C40.1762 58.257 40.1562 58.3611 40.1307 58.464C40.1249 58.5025 40.1128 58.5398 40.0949 58.5744Z"
                      fill="#263238"
                    />
                    <path
                      d="M39.976 58.6455C39.9818 58.7051 39.9818 58.7651 39.976 58.8246C39.9742 58.8946 39.9682 58.9644 39.9581 59.0336C39.9461 59.1142 39.9372 59.2068 39.9133 59.3068C39.867 59.5444 39.7991 59.7773 39.7103 60.0024C39.6005 60.2771 39.4646 60.5406 39.3042 60.7891C39.1398 61.0353 38.9524 61.2652 38.7445 61.4758C38.5731 61.6464 38.3868 61.8013 38.1876 61.9386C38.1126 61.993 38.0344 62.0429 37.9533 62.0878C37.8947 62.1258 37.8333 62.1592 37.7697 62.1878C37.7179 62.2179 37.6628 62.242 37.6055 62.2595C37.6055 62.2461 37.8279 62.1356 38.1563 61.8953C38.3471 61.753 38.5268 61.5963 38.6937 61.4265C38.8952 61.2163 39.0775 60.9885 39.2386 60.7458C39.3963 60.4995 39.5322 60.2397 39.6446 59.9696C39.734 59.7492 39.8059 59.5221 39.8595 59.2904C39.9506 58.8993 39.9596 58.644 39.976 58.6455Z"
                      fill="#263238"
                    />
                    <path
                      d="M25.8506 34.5601C25.3311 34.6358 24.8618 34.9117 24.543 35.3289L31.4858 45.1811L40.1543 44.1884L40.014 35.3244C40.014 35.3244 39.4259 34.4705 38.8556 34.5661C38.6272 34.6049 31.2948 35.7498 30.6454 37.5441C30.6454 37.5441 30.7215 36.6276 30.1095 36.1693C29.4975 35.711 25.8506 34.5601 25.8506 34.5601Z"
                      fill="white"
                    />
                    <path
                      d="M25.8494 34.5599L25.9509 34.5883L26.2494 34.6808C26.5092 34.7629 26.8958 34.8854 27.3914 35.0525C27.887 35.2197 28.496 35.4287 29.1947 35.7034C29.3693 35.7736 29.5484 35.8527 29.7321 35.9318C29.9266 36.0109 30.1052 36.1247 30.259 36.2677C30.5665 36.5856 30.6904 37.0648 30.6725 37.544L30.6217 37.532C30.7792 37.2065 31.0289 36.9345 31.3398 36.7498C31.6585 36.542 31.9952 36.3632 32.3459 36.2154C33.1111 35.8936 33.8983 35.6267 34.7015 35.4168C35.5434 35.1854 36.4346 34.9809 37.3676 34.7958C37.8333 34.7032 38.311 34.6152 38.7961 34.536C38.924 34.5101 39.0564 34.5189 39.1798 34.5614C39.3004 34.6066 39.4136 34.6695 39.5157 34.748C39.7179 34.9053 39.8959 35.0913 40.0441 35.3003L40.0516 35.3093V35.3212C40.0874 37.6067 40.1277 40.0981 40.1695 42.6851C40.1784 43.1896 40.1864 43.6897 40.1934 44.1853V44.2196H40.1575L31.489 45.2093H31.4681L31.4562 45.1929L24.5312 35.3392V35.3317V35.3242C24.6641 35.1381 24.8332 34.9807 25.0283 34.8615C25.1694 34.7746 25.3196 34.7035 25.4762 34.6495C25.5681 34.6163 25.6624 34.5904 25.7583 34.5719C25.7908 34.5659 25.8238 34.5629 25.8568 34.5629C25.8242 34.5667 25.7918 34.5722 25.7598 34.5793C25.6647 34.5999 25.5714 34.6278 25.4807 34.6629C25.329 34.7192 25.1838 34.7918 25.0477 34.8794C24.8563 34.9984 24.6908 35.1548 24.5611 35.3392V35.3242L31.5219 45.1616L31.489 45.1466L40.1486 44.1465L40.1143 44.1868C40.1063 43.6892 40.0983 43.1916 40.0904 42.694C40.0501 40.1071 40.0113 37.6186 39.9754 35.3287L39.9829 35.3496C39.8385 35.1471 39.6655 34.9666 39.4694 34.8137C39.3737 34.7396 39.2676 34.6802 39.1544 34.6376C39.0426 34.5988 38.9224 34.591 38.8066 34.6152C38.3214 34.6928 37.8452 34.7809 37.3795 34.8719C36.448 35.0555 35.5568 35.2585 34.7164 35.4869C33.9162 35.6951 33.1316 35.959 32.3683 36.2766C32.0199 36.4221 31.6852 36.5985 31.3681 36.8036C31.0666 36.9812 30.8237 37.2433 30.6695 37.5574L30.6128 37.6962V37.547C30.6322 37.0827 30.5128 36.611 30.2187 36.308C30.0691 36.168 29.895 36.0567 29.7052 35.9796C29.5246 35.8945 29.3454 35.8198 29.1723 35.7482C28.4766 35.4705 27.8691 35.2585 27.3809 35.0869L26.2435 34.7017L25.9449 34.6032C25.8822 34.5734 25.8494 34.5599 25.8494 34.5599Z"
                      fill="#263238"
                    />
                    <path
                      d="M30.1073 46.5527L23.6063 35.5062C23.5758 35.4548 23.5622 35.3951 23.5676 35.3356C23.5729 35.2761 23.5969 35.2198 23.6362 35.1748C23.6752 35.1309 23.7268 35.1 23.7839 35.0864C23.8411 35.0728 23.901 35.0771 23.9556 35.0986L29.0803 37.1408C29.1788 37.1794 29.2668 37.2408 29.3371 37.3199C29.41 37.4012 29.4625 37.4987 29.4903 37.6044C29.5181 37.71 29.5203 37.8208 29.4968 37.9274L29.4207 38.2693L31.212 38.7276L31.2508 38.6275C31.3222 38.4441 31.4338 38.279 31.5775 38.1444C31.7211 38.0098 31.8931 37.9092 32.0808 37.8498L40.3373 35.2196C40.5084 35.1645 40.6935 35.172 40.8597 35.2406C41.0259 35.3092 41.1624 35.4345 41.2449 35.5942L47.1085 46.8975L46.9099 47.4304L37.5891 49.6397H35.947L30.1073 46.5527Z"
                      fill="#8354BE"
                    />
                    <path
                      d="M30.1077 46.5534L30.2107 46.6042L30.5093 46.7535L31.6587 47.3506L35.9638 49.6121H35.9519H37.585L46.9043 47.3954L46.8789 47.4178C46.9372 47.2535 47.0028 47.0684 47.07 46.8833V46.9102L44.0397 41.0645C43.5103 40.0385 42.9684 38.9936 42.4141 37.9297L41.5856 36.3145L41.3751 35.907L41.2691 35.7025C41.2378 35.6345 41.2004 35.5696 41.1572 35.5084C41.0685 35.391 40.9461 35.3034 40.8064 35.2572C40.6666 35.2111 40.5161 35.2086 40.375 35.2502L35.4981 36.8027L33.1529 37.5491C32.7693 37.673 32.3812 37.7894 32.011 37.9163C31.8326 37.9896 31.6726 38.1013 31.5423 38.2434C31.412 38.3856 31.3146 38.5547 31.2571 38.7388L31.2482 38.7701L31.2138 38.7612L29.4225 38.3029L29.3882 38.294L29.3956 38.2596L29.4569 37.9864C29.4816 37.9012 29.4912 37.8123 29.4852 37.7237C29.4779 37.6371 29.4532 37.5528 29.4127 37.4759C29.3722 37.3989 29.3167 37.3309 29.2494 37.2759C29.18 37.2211 29.1017 37.1787 29.018 37.1505L28.7657 37.0505L28.2626 36.849L26.3071 36.0682L24.4412 35.3219L23.9933 35.1427C23.9619 35.1252 23.9271 35.1145 23.8912 35.1113C23.8553 35.1081 23.8192 35.1125 23.7851 35.1242C23.751 35.1358 23.7198 35.1546 23.6934 35.1791C23.6671 35.2037 23.6462 35.2335 23.6321 35.2666C23.618 35.2991 23.6108 35.3342 23.6108 35.3696C23.6108 35.4051 23.618 35.4401 23.6321 35.4726L23.7485 35.6741L23.9844 36.0757C25.2338 38.2029 26.3325 40.0763 27.2416 41.6273L29.3643 45.2532L29.9256 46.2206L30.0749 46.4713C30.1062 46.5266 30.1211 46.5564 30.1211 46.5564C30.1211 46.5564 30.1032 46.5296 30.0704 46.4743C30.0375 46.4191 29.9868 46.337 29.9211 46.2295L29.3449 45.2667C28.8478 44.4262 28.1223 43.1992 27.2058 41.6527L23.9321 36.1041L23.6948 35.7025C23.6545 35.6338 23.6157 35.5697 23.5739 35.4965C23.5548 35.4565 23.5443 35.413 23.5431 35.3687C23.5419 35.3245 23.55 35.2804 23.5669 35.2395C23.5838 35.1985 23.609 35.1616 23.6411 35.131C23.6732 35.1005 23.7113 35.077 23.753 35.0621C23.8376 35.0341 23.9298 35.0405 24.0097 35.08L24.4576 35.2606L26.325 36.007L28.282 36.7863L28.7836 36.9863L29.0374 37.0863C29.1277 37.117 29.212 37.1629 29.2867 37.2221C29.3619 37.2835 29.4239 37.3595 29.4691 37.4454C29.5142 37.5313 29.5415 37.6255 29.5494 37.7222C29.5562 37.8183 29.5461 37.9148 29.5195 38.0073L29.4598 38.2805L29.433 38.2372L31.2243 38.694L31.181 38.7164C31.2422 38.5231 31.345 38.3455 31.4822 38.1962C31.6194 38.0469 31.7877 37.9294 31.9752 37.8521C32.3558 37.7207 32.7365 37.6058 33.1216 37.4819L35.4682 36.7355L40.3451 35.1815C40.5017 35.1355 40.6685 35.1383 40.8235 35.1895C40.9784 35.2407 41.1141 35.3379 41.2124 35.4681C41.2581 35.5324 41.2976 35.6009 41.3303 35.6727L41.4363 35.8772L41.6483 36.2847C41.9279 36.8261 42.2061 37.364 42.4827 37.8984L44.1084 41.0332L47.1327 46.8818V46.8953V46.9087L46.9416 47.4431V47.461H46.9222L37.5954 49.6703H35.9534L31.6542 47.3864L30.5122 46.7759L30.2137 46.6176L30.1077 46.5534Z"
                      fill="#263238"
                    />
                    <g opacity="0.3">
                      <path
                        d="M34.6863 48.3264L30.426 46.2888L24.543 36.5947L29.7393 38.61L29.6303 38.8891L25.2535 37.1903L30.635 46.0574L34.8147 48.0562L34.6863 48.3264Z"
                        fill="black"
                      />
                    </g>
                    <g opacity="0.3">
                      <path
                        d="M38.134 48.9238L32.7734 39.2477L40.6732 36.71L45.8217 46.6846L38.134 48.9238ZM33.2078 39.4208L38.2758 48.57L45.3873 46.4891L40.5209 37.0682L33.2078 39.4208Z"
                        fill="black"
                      />
                    </g>
                    <path
                      d="M37.1767 49.5299C37.1588 49.5403 35.8138 47.1415 34.1732 44.1559C32.5327 41.1704 31.2205 38.7566 31.2385 38.7461C31.2564 38.7357 32.6014 41.1346 34.2419 44.1201C35.8825 47.1056 37.1961 49.5209 37.1767 49.5299Z"
                      fill="#263238"
                    />
                    <path
                      d="M29.4219 38.2666C29.4476 38.3016 29.4706 38.3385 29.4905 38.3771L29.6756 38.698C29.8354 38.9787 30.0608 39.3862 30.3384 39.8922C30.8923 40.9013 31.6446 42.3045 32.4671 43.8585L34.5704 47.8367L35.2108 49.0414C35.2825 49.1787 35.3392 49.2892 35.3825 49.3698C35.4046 49.4073 35.4231 49.4468 35.4377 49.4877C35.412 49.4528 35.389 49.4158 35.3691 49.3773L35.184 49.0563C35.0242 48.7757 34.7988 48.3682 34.5212 47.8621C33.9674 46.8515 33.215 45.4483 32.3925 43.8943L30.2847 39.9161L29.6443 38.7129C29.5726 38.5756 29.5159 38.4651 29.4726 38.3845C29.4521 38.3469 29.4351 38.3074 29.4219 38.2666Z"
                      fill="#263238"
                    />
                    <path
                      d="M30.4302 38.4456C30.4259 38.2937 30.4482 38.1421 30.4959 37.9978C30.5181 37.8471 30.5655 37.7013 30.6362 37.5664C30.6403 37.7184 30.6181 37.8699 30.5705 38.0142C30.5483 38.1649 30.5009 38.3108 30.4302 38.4456Z"
                      fill="#263238"
                    />
                    <g opacity="0.3">
                      <path
                        d="M31.418 41.4331L34.5841 47.2982L35.6858 47.4564L32.5375 41.6361L31.418 41.4331Z"
                        fill="black"
                      />
                    </g>
                    <g opacity="0.3">
                      <path
                        d="M30.2891 39.8672L32.0431 40.218L32.4282 40.8569L30.6309 40.5016L30.3174 39.9627"
                        fill="black"
                      />
                    </g>
                    <g opacity="0.3">
                      <path
                        d="M36.5512 39.8575L36.2422 39.1424L38.2052 38.4453L38.547 39.1514L36.5512 39.8575Z"
                        fill="black"
                      />
                    </g>
                    <g opacity="0.3">
                      <path
                        d="M36.4203 43.4869L35.332 41.4329L40.8896 39.3833L41.8704 41.4329L36.4203 43.4869Z"
                        fill="black"
                      />
                    </g>
                    <path
                      d="M54.2868 10.6132C54.5033 10.4088 54.7643 10.2574 55.0492 10.1709C55.3341 10.0844 55.6352 10.0652 55.9288 10.1147C56.1662 10.1565 56.4229 10.2415 56.6364 10.1281C56.7746 10.0247 56.8946 9.89907 56.9917 9.75639C57.0846 9.6638 57.1953 9.59092 57.3171 9.54212C57.4389 9.49332 57.5692 9.4696 57.7004 9.47239C57.8316 9.47518 57.9608 9.50441 58.0804 9.55834C58.2 9.61227 58.3075 9.68979 58.3964 9.78625C58.4676 9.8956 58.557 9.99202 58.6606 10.0714C59.1084 10.3386 59.6712 9.48919 60.1235 9.76087C59.9092 9.83047 59.7212 9.96379 59.5846 10.143C59.5193 10.2344 59.4864 10.3451 59.4913 10.4574C59.4961 10.5697 59.5385 10.6771 59.6115 10.7625C60.0295 11.1671 60.7878 10.3445 61.2535 10.6849C61.5058 10.87 61.5207 11.3163 61.8208 11.4044C61.9408 11.4224 62.0631 11.4194 62.182 11.3955C62.3859 11.3908 62.5839 11.4638 62.7361 11.5996C62.8882 11.7353 62.9831 11.9238 63.0016 12.1269C63.0195 12.4747 62.8254 12.8882 63.0732 13.1315C63.2225 13.2808 63.4718 13.2719 63.6868 13.2495C63.6661 13.5682 63.5732 13.8781 63.4151 14.1556C63.6822 14.3415 63.867 14.6238 63.9304 14.9431C63.9939 15.2623 63.9312 15.5938 63.7554 15.8678C64.0332 16.0798 64.267 16.344 64.4436 16.6455C64.6003 16.956 64.6212 17.362 64.4033 17.6337C64.3467 17.6894 64.2989 17.7533 64.2615 17.8233C64.2331 17.9049 64.2284 17.9929 64.248 18.0771C64.2988 18.404 64.4257 18.7249 64.3973 19.0548C64.3689 19.3847 64.1092 19.7341 63.7808 19.6908C63.7047 19.6803 63.6211 19.6505 63.5554 19.6908C63.5316 19.7085 63.5117 19.7309 63.4968 19.7565C63.4819 19.7822 63.4724 19.8106 63.4688 19.84C63.4347 20.0755 63.4388 20.3149 63.4808 20.5491C63.5222 20.7859 63.4726 21.0296 63.3419 21.2313C63.1926 21.4179 62.8657 21.4686 62.7269 21.2761L62.9553 22.3927C63.0001 22.6136 63.0329 22.8808 62.8657 23.0331C62.6463 23.2331 62.2776 23.0495 62.1328 22.7912C61.988 22.533 61.9581 22.221 61.8059 21.9672C61.7341 21.8701 61.6721 21.7661 61.6208 21.6567C61.5894 21.5657 61.582 21.4597 61.5118 21.3955C61.37 21.2656 61.1311 21.4612 61.1416 21.6538C61.152 21.8463 61.2983 21.9971 61.4118 22.1523C61.5252 22.3076 61.6118 22.524 61.5058 22.6853C61.4551 22.7629 61.367 22.8106 61.3177 22.8898C61.1476 23.1614 61.5446 23.454 61.5775 23.7735C61.6029 24.0093 61.4207 24.2124 61.2446 24.3706C61.0296 24.5646 60.6266 24.7094 60.5101 24.4452C60.4884 24.3467 60.4719 24.247 60.4609 24.1467C60.4124 24.0391 60.3387 23.9449 60.2459 23.872C60.0384 23.6635 59.8962 23.3989 59.8369 23.1107C60.0668 23.4242 60.3041 23.8347 60.1131 24.1721C60.0187 24.3043 59.905 24.4215 59.7757 24.5199C59.5443 24.7378 59.3936 25.0289 59.1652 25.2498C58.9368 25.4708 58.5681 25.6126 58.3008 25.4439C58.3426 25.6002 58.3301 25.766 58.2654 25.9143C58.2007 26.0625 58.0877 26.1845 57.9447 26.2602C57.8018 26.3359 57.6374 26.3609 57.4784 26.3311C57.3194 26.3014 57.1752 26.2185 57.0693 26.0962C57.0208 26.0225 56.9572 25.9599 56.8827 25.9126C56.7914 25.8871 56.6949 25.8871 56.6036 25.9126C56.3207 25.9459 56.0342 25.9007 55.7754 25.782C55.5165 25.6632 55.2954 25.4755 55.1362 25.2394L55.4243 25.1528C54.8705 25.0528 54.2928 24.9438 53.8449 24.6035C53.3971 24.2631 53.1269 23.6167 53.3971 23.1196C53.512 22.9047 53.724 22.6882 53.6449 22.4584C53.5897 22.2986 53.4165 22.2195 53.2613 22.1598L51.3057 21.3627C50.9893 21.2343 50.6564 21.0925 50.4549 20.8163C50.2533 20.5401 50.2563 20.0863 50.5504 19.9117C50.4103 19.5951 50.1837 19.3245 49.8966 19.131C49.5756 18.9175 49.1935 18.8085 48.8636 18.6085C48.5337 18.4085 48.2396 18.0636 48.2829 17.68C48.3262 17.2964 48.871 17.0232 49.1233 17.3173C49.0979 16.7336 48.0664 16.6485 48.0067 16.0678C47.9575 15.5976 48.5665 15.3841 48.8919 15.0393C48.8367 14.8736 48.677 14.7616 48.6173 14.5915C48.4904 14.2481 48.8561 13.9287 49.1935 13.7884C49.5308 13.648 49.9399 13.5077 50.0384 13.1554C50.1369 12.8031 49.8458 12.3657 50.0548 12.0567C50.1163 11.9729 50.207 11.9151 50.309 11.895C50.411 11.8748 50.5169 11.8936 50.6056 11.9478C50.9042 11.2925 52.1372 11.8567 52.5343 11.2551C52.5683 11.2089 52.5861 11.1528 52.585 11.0954C52.5777 11.0463 52.5576 11 52.5268 10.9611C52.391 10.7715 52.1715 10.6625 51.9939 10.5132C51.8163 10.3639 51.673 10.1147 51.767 9.8997C51.861 9.68474 52.2745 9.7131 52.2581 9.94747C52.3219 9.90222 52.3952 9.87215 52.4724 9.85955C52.5496 9.84695 52.6287 9.85215 52.7036 9.87476C52.7785 9.89737 52.8472 9.93679 52.9045 9.99001C52.9618 10.0432 53.0063 10.1088 53.0344 10.1818C53.2045 9.99523 53.521 10.0131 53.7315 10.152C53.9329 10.3109 54.0936 10.5156 54.2002 10.7491"
                      fill="#263238"
                    />
                    <path
                      d="M57.0947 18.1506C56.9111 17.1847 56.2229 16.3891 55.4527 15.7741C55.1456 15.497 54.7749 15.3001 54.3734 15.2009C53.9674 15.1262 53.5001 15.2576 53.2852 15.6099L53.324 16.298C53.209 17.3878 54.0286 18.3267 54.4047 19.3552C54.5689 19.8031 54.7033 20.339 55.1302 20.539C55.3649 20.6328 55.6259 20.6365 55.8632 20.5494C56.8021 20.2524 57.2783 19.1164 57.0947 18.1506Z"
                      fill="#455A64"
                    />
                    <path
                      d="M57.0672 23.201C57.3733 22.7869 57.5242 22.2785 57.4936 21.7645C57.4631 21.2505 57.253 20.7635 56.9 20.3886C57.3075 19.8885 57.1702 19.1093 56.7672 18.6063C56.3641 18.1032 55.761 17.8106 55.1788 17.533C54.8728 16.0536 53.2263 14.9953 51.7544 15.3386C51.0006 14.2071 49.3735 14.013 48.0628 14.3802C47.7502 14.494 47.423 14.5623 47.091 14.5833C46.8482 14.5622 46.607 14.5263 46.3685 14.4758C45.043 14.2832 43.7144 15.2042 43.1845 16.4358C43.1139 16.6381 43.017 16.8304 42.8964 17.0075C42.7217 17.2284 42.459 17.3568 42.2351 17.5255C41.9928 17.7109 41.7932 17.9464 41.65 18.2158C41.5068 18.4852 41.4233 18.7823 41.4051 19.0869C41.3782 19.6019 41.5379 20.1513 41.3155 20.617C41.2036 20.8514 41.005 21.038 40.9184 21.2828C40.6647 21.9889 41.4439 22.7203 41.2901 23.4548C41.2588 23.604 41.1901 23.7444 41.1409 23.8907C41.0531 24.1947 41.078 24.5201 41.211 24.8072C41.314 25.0252 41.4812 25.2267 41.4932 25.4685C41.4787 25.6508 41.4405 25.8305 41.3797 26.0029C41.2857 26.4418 42.2171 28.145 42.5933 28.3914L53.9384 28.6078C54.368 28.5154 54.7583 28.2918 55.0554 27.968C55.3525 27.6442 55.5417 27.2361 55.5968 26.8001C55.5929 26.6537 55.6307 26.5093 55.7058 26.3836C55.7952 26.2968 55.9013 26.2293 56.0178 26.185C56.7522 25.8014 56.8507 24.7983 56.7821 23.9728C56.7654 23.8576 56.7689 23.7404 56.7925 23.6264C56.8542 23.4674 56.9477 23.3227 57.0672 23.201Z"
                      fill="#263238"
                    />
                    <path
                      d="M53.8312 23.1855C53.8849 21.1777 52.6504 18.8565 50.6665 17.8563C49.4156 17.2249 48.4274 17.2114 47.775 17.1278C46.846 17.028 45.9087 17.214 45.0881 17.6608C44.4611 17.8011 42.1488 19.876 42.007 22.151C41.8487 24.6783 41.7562 27.7713 42.0562 29.6566C42.6608 33.4483 45.5672 33.9289 45.5672 33.9289L45.4359 36.9339L47.5541 40.8628L53.0087 35.3083L53.8312 23.1855Z"
                      fill="#FFBF9D"
                    />
                    <path
                      d="M47.7342 29.0841C47.7166 28.89 47.6278 28.7092 47.4849 28.5766C47.3555 28.4526 47.189 28.3747 47.011 28.3547C46.8329 28.3347 46.6533 28.3739 46.4997 28.4661C46.3389 28.5763 46.2105 28.7273 46.1276 28.9036C46.0447 29.0799 46.0103 29.2752 46.028 29.4692C46.1043 29.5885 46.2052 29.6901 46.3238 29.7673C46.4425 29.8445 46.5762 29.8955 46.7161 29.9171C46.7609 29.9171 46.8057 29.9275 46.8505 29.929C47.0735 29.9392 47.2923 29.8657 47.464 29.723C47.5543 29.6438 47.6256 29.5452 47.6724 29.4346C47.7192 29.3239 47.7403 29.2041 47.7342 29.0841Z"
                      fill="#FF9A6C"
                    />
                    <path
                      d="M42.8594 25.5419C42.8582 25.6688 42.9067 25.7911 42.9946 25.8826C43.0825 25.9742 43.2028 26.0276 43.3296 26.0315C43.3915 26.0364 43.4536 26.0288 43.5125 26.0092C43.5713 25.9897 43.6257 25.9585 43.6723 25.9176C43.7189 25.8767 43.7569 25.8269 43.7839 25.771C43.8109 25.7152 43.8265 25.6546 43.8297 25.5926C43.8313 25.4659 43.7831 25.3435 43.6955 25.252C43.6078 25.1604 43.4877 25.1069 43.361 25.103C43.2991 25.0981 43.2368 25.1057 43.1779 25.1252C43.1189 25.1448 43.0645 25.1759 43.0178 25.2168C42.971 25.2577 42.9329 25.3075 42.9057 25.3633C42.8785 25.4192 42.8628 25.4799 42.8594 25.5419Z"
                      fill="#263238"
                    />
                    <path
                      d="M42.8666 23.6048C42.9278 23.669 43.2965 23.3959 43.819 23.3959C44.3415 23.3959 44.7266 23.6586 44.7833 23.5944C44.8102 23.566 44.749 23.4526 44.5818 23.3302C44.3552 23.1733 44.0856 23.0904 43.81 23.0928C43.5382 23.0926 43.2733 23.1782 43.0532 23.3376C42.892 23.4615 42.8382 23.5765 42.8666 23.6048Z"
                      fill="#263238"
                    />
                    <path
                      d="M45.9318 27.7356C45.9318 27.7058 45.6094 27.6506 45.0825 27.5864C44.9481 27.5729 44.8212 27.5461 44.7988 27.455C44.7873 27.3171 44.8186 27.1789 44.8884 27.0594L45.2825 26.0413C45.8303 24.5919 46.2274 23.4006 46.1692 23.3782C46.111 23.3559 45.6184 24.5142 45.0705 25.9637C44.9391 26.3205 44.8123 26.6608 44.6928 26.9878C44.6086 27.1488 44.5843 27.3344 44.6242 27.5117C44.6434 27.5589 44.6732 27.601 44.7113 27.6349C44.7493 27.6688 44.7946 27.6935 44.8436 27.7073C44.9177 27.7267 44.9939 27.7372 45.0705 27.7386C45.6004 27.764 45.9303 27.7655 45.9318 27.7356Z"
                      fill="#263238"
                    />
                    <path
                      d="M45.5768 33.9292C47.3615 33.9546 49.1183 33.4849 50.6522 32.5723C50.6522 32.5723 49.3087 35.2966 45.5156 34.9443L45.5768 33.9292Z"
                      fill="#FF9A6C"
                    />
                    <path
                      d="M47.476 28.0967C47.3909 28.0967 47.3894 28.6595 46.9043 29.064C46.4191 29.4686 45.8131 29.4044 45.8086 29.485C45.8086 29.5193 45.9444 29.594 46.1997 29.6014C46.5324 29.6065 46.8562 29.4933 47.1133 29.282C47.3626 29.0806 47.5233 28.7897 47.5611 28.4714C47.5775 28.2341 47.5148 28.0937 47.476 28.0967Z"
                      fill="#263238"
                    />
                    <path
                      d="M43.0758 21.6436C43.1639 21.7719 43.5655 21.6868 44.0327 21.7257C44.5 21.7645 44.8896 21.8869 44.9926 21.7719C45.0388 21.7152 44.9926 21.5913 44.8254 21.4629C44.6033 21.3019 44.3395 21.2086 44.0656 21.1942C43.7933 21.1717 43.5203 21.2293 43.2804 21.3599C43.1057 21.4659 43.04 21.5824 43.0758 21.6436Z"
                      fill="#263238"
                    />
                    <path
                      d="M48.4844 25.7638C48.4802 25.8895 48.4275 26.0086 48.3373 26.0963C48.2471 26.1839 48.1265 26.2333 48.0008 26.234C47.9387 26.2366 47.8768 26.2268 47.8186 26.2051C47.7605 26.1834 47.7072 26.1503 47.662 26.1078C47.6168 26.0652 47.5806 26.014 47.5554 25.9573C47.5303 25.9005 47.5168 25.8393 47.5156 25.7772C47.5195 25.6506 47.5724 25.5305 47.6632 25.4422C47.754 25.3539 47.8756 25.3043 48.0023 25.304C48.0643 25.3018 48.1261 25.312 48.1842 25.3341C48.2422 25.3561 48.2952 25.3896 48.3401 25.4324C48.3851 25.4752 48.421 25.5266 48.4457 25.5835C48.4705 25.6404 48.4837 25.7017 48.4844 25.7638Z"
                      fill="#263238"
                    />
                    <path
                      d="M50.0289 23.8055C49.9662 23.8667 49.608 23.5816 49.0855 23.5622C48.563 23.5428 48.1689 23.7921 48.1152 23.7264C48.0883 23.6965 48.154 23.5771 48.3257 23.4696C48.5576 23.3212 48.8298 23.2482 49.1049 23.2606C49.3762 23.2696 49.6377 23.3648 49.8513 23.5323C50.0095 23.6622 50.0588 23.7786 50.0289 23.8055Z"
                      fill="#263238"
                    />
                    <path
                      d="M50.1789 22.0533C50.0714 22.1683 49.6713 22.0294 49.1877 22.0055C48.704 21.9817 48.292 22.0533 48.198 21.9249C48.1592 21.8637 48.2278 21.7473 48.4114 21.6413C48.6624 21.5146 48.9428 21.4573 49.2233 21.4754C49.5039 21.4936 49.7746 21.5864 50.0072 21.7443C50.1744 21.8712 50.2251 21.9951 50.1789 22.0533Z"
                      fill="#263238"
                    />
                    <path
                      d="M53.207 26.7783C53.207 26.4947 53.534 25.8289 53.8131 25.7856C54.5595 25.6692 55.903 25.7289 55.9134 27.6187C55.9313 30.2042 53.3324 29.6907 53.3265 29.6161C53.3205 29.5414 53.2056 27.7531 53.207 26.7783Z"
                      fill="#FFBF9D"
                    />
                    <path
                      d="M54.0337 28.6665C54.0441 28.6576 54.0784 28.6979 54.1546 28.7322C54.2629 28.7751 54.3836 28.7751 54.4919 28.7322C54.7636 28.6292 54.9905 28.1948 54.9995 27.7291C55.0055 27.5071 54.9611 27.2866 54.8696 27.0842C54.8447 27.0036 54.8006 26.9302 54.741 26.8704C54.6815 26.8106 54.6083 26.7661 54.5278 26.7409C54.476 26.7276 54.4212 26.7328 54.373 26.7557C54.3247 26.7786 54.286 26.8178 54.2635 26.8663C54.2292 26.9394 54.2456 26.9902 54.2322 26.9946C54.2188 26.9991 54.177 26.9529 54.1964 26.8454C54.21 26.7812 54.2453 26.7238 54.2964 26.6827C54.3674 26.6284 54.457 26.6043 54.5457 26.6155C54.652 26.6355 54.7514 26.6825 54.8343 26.752C54.9172 26.8216 54.9807 26.9113 55.0189 27.0126C55.131 27.2355 55.1864 27.4826 55.1801 27.7321C55.1682 28.2531 54.9039 28.7427 54.5308 28.8531C54.4616 28.8741 54.3886 28.879 54.3172 28.8677C54.2458 28.8563 54.178 28.8289 54.1187 28.7875C54.0381 28.7292 54.0247 28.671 54.0337 28.6665Z"
                      fill="#FF9A6C"
                    />
                    <path
                      d="M41.4258 22.1874C41.9482 21.8605 42.2826 21.4156 42.2498 20.8006C42.5961 20.9036 42.9484 20.4588 43.1454 20.1587C43.3425 19.8587 43.5933 19.7109 43.5798 19.3467C43.5701 19.2755 43.5788 19.203 43.6052 19.1362C43.6575 19.0377 43.7814 19.0048 43.8874 18.972C44.1631 18.8829 44.4121 18.7261 44.6116 18.5159C44.8111 18.3057 44.9547 18.0488 45.0293 17.7688C45.5857 18.0131 46.194 18.1157 46.7997 18.0674C46.9346 18.2623 47.1166 18.4199 47.3289 18.5253C47.5411 18.6308 47.7767 18.6807 48.0134 18.6704C48.2502 18.6601 48.4805 18.59 48.6829 18.4665C48.8852 18.343 49.0529 18.1703 49.1703 17.9644C49.2575 18.122 49.3778 18.259 49.5228 18.3659C49.6679 18.4728 49.8343 18.5471 50.0107 18.5839C50.3633 18.6548 50.7243 18.6744 51.0825 18.6421C51.0158 18.9926 51.0779 19.3555 51.2572 19.664C51.4365 19.9725 51.7212 20.2059 52.0588 20.3214C52.1498 20.3498 52.2558 20.3782 52.2991 20.4707C52.3118 20.519 52.3147 20.5694 52.3078 20.6188C52.3009 20.6683 52.2842 20.7159 52.2588 20.7588C52.2096 20.9075 52.1909 21.0646 52.2038 21.2207C52.2167 21.3768 52.2609 21.5286 52.3337 21.6673C52.4066 21.8059 52.5066 21.9284 52.6279 22.0275C52.7492 22.1266 52.8892 22.2003 53.0395 22.2441C52.9414 22.3316 52.8643 22.4401 52.814 22.5615C52.7637 22.683 52.7416 22.8142 52.7492 22.9455C52.7568 23.0767 52.794 23.2045 52.858 23.3193C52.9219 23.4341 53.011 23.533 53.1186 23.6085C53.2127 23.6652 53.3351 23.7324 53.3202 23.8414C53.3117 23.8827 53.292 23.9209 53.2634 23.9519C53.0709 24.2071 52.8798 24.4878 52.8559 24.8057C52.832 25.1237 53.0485 25.4834 53.3679 25.4984C53.2778 25.5656 53.2023 25.6504 53.1459 25.7477C53.0894 25.8449 53.0532 25.9525 53.0395 26.0641C53.0395 26.2895 53.2634 26.512 53.4724 26.4373C53.562 26.403 54.8487 26.1492 54.9055 26.0731C55.6369 25.0804 54.7174 23.9832 54.6457 22.7517C54.5481 21.5165 54.1654 20.3209 53.5276 19.2586C53.2788 18.8043 52.9706 18.3851 52.6111 18.0121C52.1782 17.6115 51.7015 17.2609 51.19 16.9672C50.5361 16.5597 49.8644 16.1551 49.115 15.9775C47.7208 15.6491 46.2788 16.1551 44.9696 16.7567C44.4663 16.9678 43.9937 17.246 43.5649 17.5837C43.0814 18.024 42.6805 18.5473 42.3812 19.1287C41.9199 19.9512 41.5362 20.8379 41.4452 21.7754"
                      fill="#263238"
                    />
                    <path
                      d="M40.918 21.2815C40.949 21.1821 40.9959 21.0883 41.0568 21.0038C41.112 20.9173 41.1897 20.8172 41.2628 20.6889C41.3463 20.5406 41.3972 20.3762 41.4121 20.2067C41.4262 19.9938 41.4227 19.7801 41.4016 19.5678C41.3732 19.3118 41.3803 19.0531 41.4225 18.799C41.4792 18.5074 41.5951 18.2306 41.7629 17.9855C41.8548 17.8516 41.962 17.7288 42.0823 17.6197C42.2104 17.51 42.3466 17.4102 42.4899 17.3212C42.639 17.2307 42.7722 17.1162 42.8839 16.9823C42.9863 16.8317 43.0691 16.6687 43.1303 16.4972C43.4455 15.7317 44.0243 15.1042 44.7618 14.7282C44.9604 14.6286 45.1691 14.5505 45.3843 14.4954C45.6069 14.4429 45.8349 14.4173 46.0635 14.4192C46.1804 14.4228 46.297 14.4322 46.4128 14.4476C46.5278 14.4655 46.6412 14.4909 46.7562 14.5118C46.9841 14.5596 47.2194 14.5596 47.4473 14.5118C47.6787 14.4655 47.9056 14.3834 48.1445 14.3237C48.6312 14.1966 49.1356 14.1512 49.6372 14.1894C49.8943 14.2142 50.1483 14.2642 50.3955 14.3386C50.9048 14.4803 51.3576 14.7766 51.6913 15.1865C51.7226 15.2298 51.754 15.2731 51.7868 15.3149L51.745 15.2985C52.498 15.155 53.2774 15.3057 53.9228 15.7194C54.5681 16.1331 55.0303 16.7785 55.2142 17.5227L55.1948 17.4973C55.5062 17.6376 55.8084 17.7977 56.0994 17.9765C56.3844 18.1507 56.6349 18.3759 56.8383 18.6408C57.0307 18.9027 57.1469 19.2127 57.1742 19.5365C57.2057 19.8487 57.1165 20.1612 56.9249 20.4097V20.3664C57.2729 20.726 57.4842 21.196 57.522 21.695C57.5644 22.1406 57.4696 22.5885 57.2503 22.9788C57.1999 23.0682 57.1425 23.1536 57.0787 23.234C57.0148 23.3079 56.955 23.3851 56.8995 23.4654C56.8484 23.5412 56.8166 23.6283 56.807 23.7192C56.802 23.8083 56.8045 23.8977 56.8145 23.9864C56.8429 24.3139 56.8328 24.6435 56.7846 24.9686C56.7485 25.2316 56.6618 25.4851 56.5293 25.715C56.4293 25.8838 56.2913 26.0269 56.1263 26.133C55.9934 26.2211 55.874 26.2554 55.8083 26.3032C55.7744 26.3258 55.7429 26.3518 55.7143 26.3808C55.7377 26.346 55.7682 26.3165 55.8038 26.2942C55.868 26.2435 55.9875 26.2061 56.1158 26.1166C56.2757 26.0096 56.4085 25.8671 56.504 25.7001C56.6322 25.4723 56.7154 25.2219 56.7488 24.9627C56.7923 24.6406 56.7993 24.3146 56.7697 23.9909C56.7584 23.8993 56.7554 23.8068 56.7607 23.7147C56.7704 23.616 56.8042 23.5211 56.8592 23.4385C56.9146 23.3567 56.9744 23.278 57.0384 23.2027C57.0982 23.1221 57.1521 23.0373 57.1996 22.9489C57.4111 22.5669 57.5006 22.1294 57.4563 21.695C57.4197 21.2116 57.2147 20.7562 56.8771 20.4082L56.8562 20.3873L56.8742 20.3649C57.0552 20.1289 57.1381 19.8321 57.1055 19.5365C57.0782 19.2265 56.9661 18.9301 56.7816 18.6796C56.5824 18.4231 56.338 18.2051 56.0606 18.0362C55.7722 17.86 55.4731 17.7019 55.1649 17.563L55.1485 17.5555V17.5361C54.967 16.8128 54.5161 16.1861 53.8879 15.784C53.2598 15.382 52.5018 15.235 51.7689 15.3731H51.7435L51.7271 15.3522C51.6972 15.3104 51.6659 15.2701 51.6346 15.2283C51.3117 14.8258 50.8713 14.5341 50.3747 14.3939C50.131 14.3237 49.881 14.2777 49.6283 14.2565C49.1363 14.2182 48.6414 14.2621 48.1639 14.3864C47.9295 14.4446 47.6996 14.5282 47.4608 14.5745C47.3418 14.5984 47.2208 14.6104 47.0995 14.6103C46.9797 14.6072 46.8604 14.5943 46.7427 14.5715C46.6278 14.5506 46.5144 14.5252 46.4009 14.5073C46.2885 14.4919 46.1754 14.4825 46.062 14.479C45.8394 14.4761 45.6173 14.5007 45.4008 14.5521C45.1903 14.6052 44.9861 14.6808 44.7917 14.7775C44.0653 15.1464 43.4946 15.7626 43.1825 16.5151C43.1189 16.6914 43.0331 16.859 42.9272 17.0137C42.8107 17.1515 42.6725 17.2694 42.5182 17.363C42.3755 17.4514 42.2402 17.5512 42.1137 17.6615C41.9963 17.7675 41.8916 17.8867 41.8017 18.0168C41.6351 18.2553 41.5197 18.5257 41.4628 18.811C41.419 19.0608 41.4094 19.3154 41.4345 19.5678C41.4538 19.7823 41.4538 19.9982 41.4345 20.2127C41.4196 20.385 41.3688 20.5523 41.2852 20.7038C41.2076 20.8337 41.1284 20.9307 41.0717 21.0158C41.0274 21.0783 40.9879 21.1442 40.9538 21.2128C40.9284 21.2561 40.9195 21.2815 40.918 21.2815Z"
                      fill="#455A64"
                    />
                    <path
                      d="M50.5397 14.7674C50.5397 14.7674 50.4711 14.7285 50.3457 14.6658C50.1689 14.5789 49.9786 14.5229 49.7829 14.5001C49.4934 14.4639 49.1995 14.5062 48.932 14.6226C48.6042 14.7666 48.3307 15.0113 48.1513 15.3212C48.0969 15.4155 48.0534 15.5156 48.0214 15.6197C48.0048 15.6637 47.998 15.7108 48.0013 15.7577C48.0047 15.8046 48.0182 15.8502 48.0408 15.8914L48.1035 15.9795L47.999 15.9496C47.7302 15.8762 47.4434 15.9099 47.1989 16.0437C47.0056 16.1523 46.8519 16.3196 46.76 16.5214C46.6983 16.655 46.6637 16.7996 46.6585 16.9468C46.6585 17.0498 46.6585 17.1065 46.6585 17.108C46.6585 17.1095 46.6585 17.0946 46.6466 17.0677C46.6384 17.0279 46.6339 16.9874 46.6331 16.9468C46.6283 16.7533 46.6755 16.562 46.7698 16.3929C46.864 16.2238 47.0019 16.0831 47.1691 15.9855C47.4278 15.8386 47.734 15.7995 48.0214 15.8765L47.9796 15.9347C47.9496 15.8846 47.9313 15.8284 47.9262 15.7702C47.921 15.712 47.9291 15.6534 47.9498 15.5988C47.9826 15.4903 48.0282 15.3861 48.0856 15.2883C48.2711 14.9648 48.5566 14.7102 48.8992 14.5628C49.1799 14.4393 49.4897 14.3969 49.7933 14.4404C49.9939 14.4678 50.1875 14.5331 50.3636 14.633C50.4114 14.6596 50.4573 14.6895 50.5009 14.7226C50.5263 14.7524 50.5397 14.7644 50.5397 14.7674Z"
                      fill="#455A64"
                    />
                    <path
                      d="M54.7307 17.7449C54.7307 17.7449 54.7038 17.7822 54.6411 17.836C54.5493 17.9143 54.4492 17.9824 54.3426 18.039C54.1839 18.1259 54.0081 18.1769 53.8276 18.1883C53.5967 18.2055 53.3677 18.1358 53.1857 17.9927L53.2424 17.9838C53.2185 18.0181 53.1931 18.0539 53.1663 18.0898C53.1394 18.1256 53.108 18.1569 53.0782 18.1913C52.899 18.3759 52.677 18.5133 52.4318 18.5913C52.2333 18.657 52.0238 18.6829 51.8153 18.6675C51.6755 18.6566 51.5382 18.6249 51.4078 18.5734C51.3598 18.5561 51.3146 18.5319 51.2734 18.5018C51.4498 18.5611 51.6328 18.5982 51.8183 18.6122C52.0211 18.6203 52.2236 18.5904 52.4154 18.5241C52.6469 18.445 52.8566 18.3126 53.0274 18.1375C53.0558 18.1047 53.0857 18.0748 53.111 18.042L53.1842 17.942L53.2096 17.9061L53.2409 17.933C53.408 18.0652 53.6178 18.1316 53.8305 18.1196C54.0032 18.1113 54.1721 18.0665 54.3261 17.9882C54.5889 17.8599 54.7232 17.733 54.7307 17.7449Z"
                      fill="#455A64"
                    />
                    <path
                      d="M56.0914 20.146C56.0914 20.146 56.0914 20.1624 56.0914 20.1937C56.0789 20.238 56.0593 20.2798 56.0332 20.3176C55.9336 20.459 55.7843 20.5577 55.6152 20.5938C55.3666 20.6383 55.1105 20.6098 54.8778 20.5117C54.739 20.4658 54.6029 20.4119 54.4702 20.3505C54.3169 20.2871 54.1906 20.1719 54.1135 20.025C54.1135 20.0101 54.103 19.9952 54.097 19.9832L54.1582 20.0012C53.9273 20.192 53.6685 20.3466 53.391 20.4594C53.1602 20.551 52.9085 20.5768 52.664 20.5341C52.4995 20.5058 52.3452 20.4353 52.2161 20.3296C52.1812 20.3009 52.1497 20.2683 52.1221 20.2325C52.1042 20.2087 52.0952 20.1952 52.0982 20.1937C52.1012 20.1922 52.143 20.2385 52.2341 20.3057C52.3636 20.398 52.5138 20.4575 52.6714 20.4788C52.9058 20.5129 53.145 20.4835 53.3641 20.3938C53.6332 20.2814 53.8846 20.1305 54.1105 19.9459L54.1523 19.9131L54.1717 19.9638L54.1851 19.9997C54.2546 20.1296 54.367 20.2314 54.5031 20.2878C54.6359 20.352 54.7733 20.4027 54.9016 20.4505C55.122 20.5472 55.365 20.5803 55.6032 20.546C55.7621 20.5167 55.9054 20.4321 56.0078 20.3072C56.0399 20.2557 56.0678 20.2018 56.0914 20.146Z"
                      fill="#455A64"
                    />
                    <path
                      d="M58.8806 10.9191C58.8806 10.9191 58.8358 10.9191 58.7582 10.9415C58.6453 10.9728 58.5444 11.0373 58.4686 11.1266C58.3496 11.2646 58.2807 11.4387 58.2731 11.6207C58.2696 11.859 58.3018 12.0965 58.3686 12.3253L58.379 12.3671H58.3357C58.0156 12.3582 57.7013 12.4536 57.4401 12.6388C57.2935 12.7409 57.1727 12.8759 57.0875 13.0329C57.0022 13.19 56.9548 13.3648 56.949 13.5434C56.9408 13.7061 56.9704 13.8685 57.0354 14.018C57.1004 14.1674 57.199 14.2997 57.3237 14.4047L57.4102 14.4734H57.2998C57.1155 14.4734 56.9332 14.5117 56.7644 14.5857C56.5956 14.6596 56.4439 14.7678 56.319 14.9033C56.1198 15.1211 56.0022 15.4012 55.9861 15.696C55.9742 15.89 56.0037 16.0844 56.0727 16.2662C56.1205 16.3946 56.1608 16.4573 56.1563 16.4617C56.1432 16.4486 56.1321 16.4335 56.1235 16.417C56.0946 16.3724 56.0697 16.3255 56.0488 16.2766C55.9689 16.0928 55.9312 15.8933 55.9384 15.693C55.9479 15.3844 56.0658 15.089 56.2712 14.8585C56.4011 14.7144 56.5598 14.599 56.7369 14.5199C56.914 14.4407 57.1057 14.3994 57.2998 14.3987L57.2774 14.4659C57.1427 14.3539 57.0359 14.2121 56.9655 14.0518C56.895 13.8914 56.8628 13.7168 56.8713 13.5419C56.8734 13.3467 56.9247 13.1552 57.0206 12.9851C57.1145 12.825 57.2411 12.6866 57.3923 12.5791C57.667 12.3864 57.9975 12.2893 58.3328 12.3029L58.2999 12.3432C58.2345 12.1077 58.2063 11.8634 58.2163 11.6192C58.2279 11.4271 58.306 11.245 58.4373 11.1042C58.5196 11.0129 58.6289 10.9502 58.7492 10.9251C58.7802 10.9188 58.8118 10.9163 58.8433 10.9176C58.8702 10.9161 58.8806 10.9176 58.8806 10.9191Z"
                      fill="#455A64"
                    />
                    <path
                      d="M63.4788 16.5303C63.4788 16.5303 63.4654 16.5407 63.437 16.5556C63.4087 16.5706 63.3654 16.593 63.3072 16.6154C63.14 16.6788 62.9645 16.718 62.7862 16.7318C62.5117 16.7534 62.2356 16.7199 61.9741 16.6333C61.6377 16.5242 61.3369 16.3261 61.1038 16.06H61.1621C61.0393 16.2708 60.8711 16.4516 60.6697 16.5892C60.4682 16.7269 60.2387 16.8179 59.9977 16.8557C59.7383 16.8909 59.4744 16.8435 59.2434 16.7202C59.0124 16.597 58.8261 16.4041 58.7109 16.169H58.7781C58.7145 16.3397 58.6068 16.4906 58.4661 16.6064C58.3402 16.7111 58.1967 16.7924 58.0422 16.8467C57.7881 16.929 57.5195 16.9565 57.254 16.9273C57.083 16.9117 56.9134 16.8837 56.7465 16.8437C56.6865 16.8328 56.6276 16.8169 56.5703 16.796C56.6311 16.7996 56.6915 16.8081 56.7509 16.8214C56.9184 16.8514 57.0873 16.8723 57.257 16.8841C57.5155 16.9047 57.7755 16.8727 58.0213 16.79C58.1761 16.7392 58.3179 16.6552 58.4368 16.5438C58.5557 16.4324 58.6487 16.2963 58.7095 16.1451L58.7408 16.0586L58.7766 16.1421C58.8869 16.3614 59.0627 16.5407 59.2798 16.6552C59.4968 16.7698 59.7441 16.8137 59.9873 16.7811C60.2169 16.7445 60.4357 16.6579 60.6282 16.5274C60.8206 16.3969 60.982 16.2256 61.1009 16.0257L61.1262 15.9824L61.1591 16.0212C61.3829 16.2793 61.6714 16.4731 61.995 16.5825C62.2478 16.6714 62.5157 16.7095 62.7832 16.6945C63.0221 16.6753 63.2566 16.6199 63.4788 16.5303Z"
                      fill="#455A64"
                    />
                    <path
                      d="M60.7612 20.3073C60.7612 20.3073 60.7612 20.3282 60.7314 20.3551C60.6895 20.3914 60.6373 20.4139 60.5821 20.4193C60.3866 20.4352 60.1901 20.4024 60.0104 20.3237C59.7394 20.213 59.5098 20.0205 59.3536 19.7729C59.1637 19.4659 59.0966 19.0987 59.1655 18.7444V18.7369L59.2207 18.7787C58.8992 18.9349 58.5363 18.9846 58.1847 18.9205C57.9005 18.8684 57.6319 18.752 57.3995 18.5802C57.2445 18.4653 57.1054 18.3302 56.986 18.1786C56.9403 18.1245 56.9017 18.0648 56.8711 18.001C57.0345 18.2019 57.2226 18.3814 57.4309 18.5354C57.6597 18.6954 57.9213 18.8025 58.1967 18.8489C58.5325 18.9062 58.8779 18.8577 59.1849 18.71L59.255 18.6742L59.2416 18.7518V18.7593C59.1806 19.0639 59.2257 19.3801 59.3693 19.6555C59.513 19.9309 59.7466 20.1488 60.0313 20.273C60.2021 20.3531 60.389 20.393 60.5776 20.3894C60.6121 20.3885 60.6461 20.3808 60.6777 20.3667C60.7092 20.3526 60.7376 20.3324 60.7612 20.3073Z"
                      fill="#455A64"
                    />
                    <path
                      d="M53.229 11.0078C53.1414 11.2631 53.1014 11.5323 53.1111 11.802C53.1349 12.2294 53.3127 12.6337 53.6115 12.9402C53.9103 13.2467 54.31 13.4347 54.7367 13.4694H54.7844L54.7695 13.5157C54.6181 14.0048 54.636 14.5307 54.8203 15.0084C54.8487 15.0883 54.8837 15.1657 54.9248 15.2398C54.938 15.2669 54.9572 15.2905 54.981 15.3089C55.0049 15.3272 55.0326 15.3399 55.0621 15.3458C55.0805 15.3481 55.0992 15.3466 55.117 15.3412C55.1347 15.3358 55.1511 15.3267 55.1651 15.3144C55.183 15.295 55.1875 15.2801 55.1905 15.2816C55.1935 15.2831 55.1905 15.298 55.1756 15.3234C55.1614 15.3401 55.1434 15.3531 55.1231 15.3614C55.1029 15.3697 55.0809 15.3731 55.0591 15.3712C55.0246 15.3676 54.9915 15.3557 54.9626 15.3364C54.9337 15.3172 54.91 15.2912 54.8934 15.2607C54.847 15.1866 54.8071 15.1087 54.774 15.0278C54.5709 14.5413 54.544 13.9991 54.6979 13.4948L54.7307 13.544C54.5169 13.5285 54.3076 13.4749 54.1127 13.3858C53.8042 13.25 53.5408 13.029 53.3536 12.7487C53.1664 12.4684 53.0631 12.1405 53.0558 11.8035C53.0485 11.6011 53.0768 11.399 53.1394 11.2064C53.1565 11.1553 53.1769 11.1054 53.2006 11.0571C53.2076 11.0394 53.2172 11.0228 53.229 11.0078Z"
                      fill="#455A64"
                    />
                    <path
                      d="M54.998 25.8829V25.4709L50.8571 24.1438C49.3807 23.5123 47.2744 23.8781 46.0384 24.6409L44.9651 24.6692L44.9755 24.6528C43.747 23.684 41.6765 23.4885 40.0703 24.1886L40.1091 24.3602C40.1091 24.3707 40.1196 24.3961 40.127 24.4319L40.1629 24.5812C40.3793 25.5335 40.6346 26.5412 40.8898 26.8114C41.0615 26.9935 41.6362 27.0935 42.1109 27.1442C42.2901 27.1651 42.4543 27.1771 42.5722 27.186C42.714 27.195 43.9724 27.2741 44.1874 27.0801C44.4023 26.886 44.8203 25.3335 44.9337 24.8663L46.0339 24.8424C46.1653 25.2111 46.3892 26.8651 46.9176 27.198C47.4461 27.5309 49.7629 27.4309 50.0256 27.0487C50.2122 26.7755 50.8585 25.1529 51.0048 24.6409L51.0272 24.5961L54.998 25.8829ZM44.0635 26.9278C43.8291 27.1129 41.3227 26.983 41.0257 26.6695C40.7749 26.4038 40.4659 25.0454 40.3495 24.5349V24.514C41.7825 23.9691 43.6485 24.1423 44.7173 24.9618C44.5053 25.7679 44.1978 26.8024 44.0635 26.9233V26.9278ZM49.8718 26.9278C49.7076 27.1696 47.567 27.3667 47.0221 27.0233C46.643 26.786 46.4429 25.6306 46.2757 24.9678C47.4834 24.2453 49.5479 23.9408 50.8585 24.5916C50.6005 25.3975 50.2703 26.1784 49.8718 26.9248V26.9278Z"
                      fill="#263238"
                    />
                    <g opacity="0.3">
                      <path
                        d="M46.4883 25.1011C46.4883 25.1011 46.7137 26.7207 47.1794 26.7953C47.6452 26.87 48.2005 24.4233 48.2005 24.4233C48.2005 24.4233 46.7838 24.704 46.4883 25.1011Z"
                        fill="white"
                      />
                    </g>
                    <g opacity="0.3">
                      <path
                        d="M40.5273 24.5817C40.5273 24.5817 40.7527 26.4208 41.2185 26.4955C41.6842 26.5701 42.6202 24.3295 42.6202 24.3295C42.6202 24.3295 40.8229 24.1847 40.5273 24.5817Z"
                        fill="white"
                      />
                    </g>
                    <path
                      d="M54.8875 54.5434C54.3949 54.0255 52.829 52.7223 52.3663 52.5387C51.9035 52.3551 50.463 55.7392 50.3704 56.6259C50.2779 57.5126 50.7794 58.6769 51.4034 59.4547C52.2991 60.5653 54.4472 61.9282 55.2622 62.3073C56.0773 62.6865 58.397 64.0136 59.8002 61.0295C61.2034 58.0455 61.0243 58.0694 61.4199 56.8393C62.0304 54.9346 62.5365 51.1788 62.844 48.8933C63.106 46.8049 63.1913 44.6981 63.0993 42.5953C63.0007 40.7458 62.4812 39.0814 61.2378 37.9364C60.1928 36.9736 56.7057 45.4107 56.7057 45.4853C56.7057 45.56 55.0995 54.5255 55.0995 54.5255"
                      fill="#455A64"
                    />
                    <path
                      d="M43.3555 43.6572C43.3555 43.6572 43.0212 43.084 44.2318 42.9109C45.4424 42.7377 46.3127 42.9333 46.5844 43.0497C46.8561 43.1661 48.3757 44.5977 48.4951 44.8753C48.8236 45.6217 49.3729 47.8833 49.3729 47.8833L50.1193 48.9387L48.3653 52.0869C48.2038 51.8982 48.0286 51.7216 47.8413 51.5585C47.5786 51.3375 46.7889 51.0748 46.6292 50.4135C46.4695 49.8788 46.2539 49.3624 45.9858 48.873C45.9858 48.873 43.0421 48.2356 42.7808 48.1027C42.5196 47.9699 42.539 47.5743 42.539 47.5743C42.2304 47.5404 41.9243 47.4871 41.6224 47.4145C41.4612 47.3489 41.0865 46.8174 41.712 46.5383C42.3375 46.2591 44.4139 46.0994 44.6975 46.0994C44.9812 46.0994 46.3306 46.2756 46.3306 46.2756C46.3306 46.2756 44.5572 45.8755 44.0139 45.8277C43.4705 45.78 42.2419 45.8113 42.0449 45.7665C41.7986 45.7098 41.6359 45.1306 42.0971 44.9201C42.6554 44.6649 43.5466 44.5857 43.7496 44.5783C44.5363 44.5499 46.4232 44.8395 46.4232 44.8395L45.7425 44.0827C45.1887 43.982 44.6285 43.9206 44.0661 43.8991C43.8101 43.8932 43.562 43.8088 43.3555 43.6572Z"
                      fill="#FFBF9D"
                    />
                    <path
                      d="M47.5586 51.1904L52.4922 58.5736C52.4922 58.5736 54.5821 56.0224 54.7313 54.1654L54.8239 53.2534L49.3007 47.8794L47.5586 51.1904Z"
                      fill="#FFBF9D"
                    />
                    <path
                      d="M46.151 47.5883C45.9714 47.5785 45.7925 47.559 45.6151 47.5301C45.2867 47.4913 44.8299 47.451 44.3238 47.442C43.8178 47.4331 43.3595 47.4614 43.0296 47.4898C42.8514 47.5138 42.672 47.5283 42.4922 47.5331C42.5373 47.5152 42.5844 47.5032 42.6325 47.4973C42.7251 47.4778 42.8579 47.4569 43.0236 47.436C43.4553 47.3816 43.8903 47.3577 44.3253 47.3644C44.7597 47.3717 45.1931 47.4087 45.6225 47.4749C45.7882 47.5017 45.9211 47.5271 46.0106 47.548C46.059 47.5553 46.1061 47.5688 46.151 47.5883Z"
                      fill="#FF9A6C"
                    />
                    <path
                      d="M57.9762 53.9408C57.9119 53.9074 57.8509 53.8679 57.7941 53.8229L57.3164 53.4796C56.9149 53.181 56.3625 52.7765 55.7565 52.3212C55.4785 52.0993 55.1783 51.9067 54.8608 51.7465C54.7214 51.6835 54.5765 51.6335 54.4279 51.5972C54.2986 51.5623 54.166 51.5403 54.0323 51.5315C53.8398 51.5153 53.647 51.5602 53.4815 51.6599C53.3666 51.733 53.3158 51.7928 53.3098 51.7883C53.3039 51.7838 53.3203 51.7704 53.3442 51.742C53.3804 51.7018 53.4209 51.6658 53.4651 51.6345C53.6322 51.5197 53.8329 51.464 54.0353 51.4763C54.1727 51.4822 54.3093 51.5017 54.4428 51.5345C54.5967 51.5694 54.7467 51.6194 54.8907 51.6838C55.2129 51.8427 55.5167 52.0365 55.7968 52.2615C56.4043 52.7183 56.9507 53.1333 57.3433 53.4378L57.8075 53.802C57.8681 53.8427 57.9246 53.8892 57.9762 53.9408Z"
                      fill="#263238"
                    />
                    <path
                      d="M60.3575 53.9565C60.347 53.967 60.1739 53.7654 59.8544 53.4893C59.665 53.3276 59.4656 53.1781 59.2573 53.0415C58.7531 52.7071 58.1988 52.4551 57.6153 52.2951C57.3764 52.23 57.1335 52.1801 56.8883 52.1458C56.4673 52.0861 56.2031 52.0876 56.2031 52.0727C56.2647 52.062 56.3273 52.0585 56.3897 52.0622C56.4623 52.058 56.5351 52.058 56.6077 52.0622C56.6913 52.0622 56.7883 52.0697 56.8943 52.0846C57.146 52.1123 57.3955 52.1582 57.6407 52.2219C57.9373 52.3023 58.2273 52.4056 58.508 52.5309C58.7867 52.6596 59.0551 52.8093 59.3111 52.9788C59.5185 53.1203 59.7155 53.2764 59.9007 53.446C59.9813 53.5162 60.05 53.5878 60.1067 53.6475C60.1592 53.6987 60.209 53.7525 60.256 53.8087C60.2952 53.8541 60.3293 53.9036 60.3575 53.9565Z"
                      fill="#263238"
                    />
                    <path
                      d="M59.5214 37.9888C59.4686 38.0517 59.4113 38.1106 59.3497 38.1649C59.2915 38.2187 59.2228 38.2858 59.1467 38.3694C59.0706 38.453 58.978 38.5396 58.8885 38.6501C58.7989 38.7605 58.6944 38.8725 58.5899 39.0053C58.4854 39.1382 58.3854 39.2815 58.2779 39.4338C57.8261 40.1072 57.4835 40.8478 57.2628 41.6281C57.2166 41.8088 57.1688 41.9789 57.1389 42.1431C57.1091 42.3073 57.0777 42.4581 57.0568 42.591C57.0359 42.7238 57.0225 42.8582 57.0106 42.9701C56.9986 43.0821 56.9897 43.1776 56.9852 43.2567C56.9841 43.3393 56.9766 43.4217 56.9628 43.5031C56.9533 43.4208 56.9508 43.3379 56.9553 43.2553C56.9553 43.1761 56.9553 43.0791 56.9673 42.9657C56.9792 42.8522 56.9807 42.7253 57.0016 42.5835C57.0225 42.4417 57.0404 42.285 57.0747 42.1237C57.1091 41.9625 57.1494 41.7864 57.1942 41.6028C57.4091 40.812 57.7558 40.0631 58.2197 39.3875C58.3287 39.2382 58.4317 39.0889 58.5391 38.9606C58.6466 38.8322 58.7466 38.7113 58.8377 38.6068C58.9288 38.5023 59.0258 38.4112 59.1064 38.3321C59.1741 38.2633 59.2454 38.198 59.3199 38.1366C59.3828 38.0817 59.4502 38.0323 59.5214 37.9888Z"
                      fill="#263238"
                    />
                    <path
                      d="M54.8875 54.5434C54.3949 54.0255 52.829 52.7223 52.3663 52.5387C51.9035 52.3551 50.463 55.7392 50.3704 56.6259C50.2779 57.5126 50.7794 58.6769 51.4034 59.4547C52.2991 60.5653 54.4472 61.9282 55.2622 62.3073C56.0773 62.6865 58.397 64.0136 59.8002 61.0295C61.2034 58.0455 61.0243 58.0694 61.4199 56.8393C62.0304 54.9346 62.5365 51.1788 62.844 48.8933C63.106 46.8049 63.1913 44.6981 63.0993 42.5953C63.0007 40.7458 62.4812 39.0814 61.2378 37.9364C60.1928 36.9736 56.7057 45.4107 56.7057 45.4853C56.7057 45.56 55.0995 54.5255 55.0995 54.5255"
                      fill="#455A64"
                    />
                    <path
                      d="M43.3555 43.6572C43.3555 43.6572 43.0212 43.084 44.2318 42.9109C45.4424 42.7377 46.3127 42.9333 46.5844 43.0497C46.8561 43.1661 48.3757 44.5977 48.4951 44.8753C48.8236 45.6217 49.3729 47.8833 49.3729 47.8833L50.1193 48.9387L48.3653 52.0869C48.2038 51.8982 48.0286 51.7216 47.8413 51.5585C47.5786 51.3375 46.7889 51.0748 46.6292 50.4135C46.4695 49.8788 46.2539 49.3624 45.9858 48.873C45.9858 48.873 43.0421 48.2356 42.7808 48.1027C42.5196 47.9699 42.539 47.5743 42.539 47.5743C42.2304 47.5404 41.9243 47.4871 41.6224 47.4145C41.4612 47.3489 41.0865 46.8174 41.712 46.5383C42.3375 46.2591 44.4139 46.0994 44.6975 46.0994C44.9812 46.0994 46.3306 46.2756 46.3306 46.2756C46.3306 46.2756 44.5572 45.8755 44.0139 45.8277C43.4705 45.78 42.2419 45.8113 42.0449 45.7665C41.7986 45.7098 41.6359 45.1306 42.0971 44.9201C42.6554 44.6649 43.5466 44.5857 43.7496 44.5783C44.5363 44.5499 46.4232 44.8395 46.4232 44.8395L45.7425 44.0827C45.1887 43.982 44.6285 43.9206 44.0661 43.8991C43.8101 43.8932 43.562 43.8088 43.3555 43.6572Z"
                      fill="#FFBF9D"
                    />
                    <path
                      d="M47.5586 51.1904L52.4922 58.5736C52.4922 58.5736 54.5821 56.0224 54.7313 54.1654L54.8239 53.2534L49.3007 47.8794L47.5586 51.1904Z"
                      fill="#FFBF9D"
                    />
                    <path
                      d="M46.151 47.5883C45.9714 47.5785 45.7925 47.559 45.6151 47.5301C45.2867 47.4913 44.8299 47.451 44.3238 47.442C43.8178 47.4331 43.3595 47.4614 43.0296 47.4898C42.8514 47.5138 42.672 47.5283 42.4922 47.5331C42.5373 47.5152 42.5844 47.5032 42.6325 47.4973C42.7251 47.4778 42.8579 47.4569 43.0236 47.436C43.4553 47.3816 43.8903 47.3577 44.3253 47.3644C44.7597 47.3717 45.1931 47.4087 45.6225 47.4749C45.7882 47.5017 45.9211 47.5271 46.0106 47.548C46.059 47.5553 46.1061 47.5688 46.151 47.5883Z"
                      fill="#FF9A6C"
                    />
                    <path
                      d="M57.9762 53.9408C57.9119 53.9074 57.8509 53.8679 57.7941 53.8229L57.3164 53.4796C56.9149 53.181 56.3625 52.7765 55.7565 52.3212C55.4785 52.0993 55.1783 51.9067 54.8608 51.7465C54.7214 51.6835 54.5765 51.6335 54.4279 51.5972C54.2986 51.5623 54.166 51.5403 54.0323 51.5315C53.8398 51.5153 53.647 51.5602 53.4815 51.6599C53.3666 51.733 53.3158 51.7928 53.3098 51.7883C53.3039 51.7838 53.3203 51.7704 53.3442 51.742C53.3804 51.7018 53.4209 51.6658 53.4651 51.6345C53.6322 51.5197 53.8329 51.464 54.0353 51.4763C54.1727 51.4822 54.3093 51.5017 54.4428 51.5345C54.5967 51.5694 54.7467 51.6194 54.8907 51.6838C55.2129 51.8427 55.5167 52.0365 55.7968 52.2615C56.4043 52.7183 56.9507 53.1333 57.3433 53.4378L57.8075 53.802C57.8681 53.8427 57.9246 53.8892 57.9762 53.9408Z"
                      fill="#263238"
                    />
                    <path
                      d="M56.71 45.4902C56.7112 45.5302 56.7087 45.5702 56.7025 45.6097C56.6936 45.6962 56.6801 45.8097 56.6652 45.953C56.6279 46.259 56.5756 46.6889 56.5159 47.2144L55.983 51.3717C55.9397 51.6987 55.8979 52.0181 55.8576 52.3241L55.8203 52.2808C57.2384 52.2808 58.4729 52.6361 59.2537 53.0705C59.5637 53.2345 59.8504 53.4393 60.106 53.6796C60.1752 53.7438 60.2405 53.8121 60.3016 53.8841C60.3245 53.9073 60.345 53.9328 60.3628 53.9602C60.3628 53.9602 60.2687 53.8632 60.0866 53.7005C59.8263 53.4707 59.5385 53.2741 59.2298 53.1153C58.4505 52.6973 57.2265 52.3585 55.8203 52.357H55.7695V52.3137C55.8098 52.0077 55.8516 51.6882 55.8934 51.3613C56.1099 49.7431 56.3054 48.2772 56.4487 47.2084C56.5234 46.683 56.5831 46.2545 56.6264 45.95C56.6473 45.8007 56.6652 45.6933 56.6786 45.6082C56.6851 45.5679 56.6956 45.5284 56.71 45.4902Z"
                      fill="#263238"
                    />
                    <path
                      d="M59.5214 37.9888C59.4686 38.0517 59.4113 38.1106 59.3497 38.1649C59.2915 38.2187 59.2228 38.2858 59.1467 38.3694C59.0706 38.453 58.978 38.5396 58.8885 38.6501C58.7989 38.7605 58.6944 38.8725 58.5899 39.0053C58.4854 39.1382 58.3854 39.2815 58.2779 39.4338C57.8261 40.1072 57.4835 40.8478 57.2628 41.6281C57.2166 41.8088 57.1688 41.9789 57.1389 42.1431C57.1091 42.3073 57.0777 42.4581 57.0568 42.591C57.0359 42.7238 57.0225 42.8582 57.0106 42.9701C56.9986 43.0821 56.9897 43.1776 56.9852 43.2567C56.9841 43.3393 56.9766 43.4217 56.9628 43.5031C56.9533 43.4208 56.9508 43.3379 56.9553 43.2553C56.9553 43.1761 56.9553 43.0791 56.9673 42.9657C56.9792 42.8522 56.9807 42.7253 57.0016 42.5835C57.0225 42.4417 57.0404 42.285 57.0747 42.1237C57.1091 41.9625 57.1494 41.7864 57.1942 41.6028C57.4091 40.812 57.7558 40.0631 58.2197 39.3875C58.3287 39.2382 58.4317 39.0889 58.5391 38.9606C58.6466 38.8322 58.7466 38.7113 58.8377 38.6068C58.9288 38.5023 59.0258 38.4112 59.1064 38.3321C59.1741 38.2633 59.2454 38.198 59.3199 38.1366C59.3828 38.0817 59.4502 38.0323 59.5214 37.9888Z"
                      fill="#263238"
                    />
                    <path
                      d="M33.5901 49.2655C33.5901 49.2655 32.3257 46.1396 32.5705 45.0857C32.5859 45.0228 32.6219 44.9669 32.6727 44.9268C32.7236 44.8868 32.7864 44.8649 32.8512 44.8648C32.9033 44.8641 32.9546 44.8776 32.9995 44.9039C33.0445 44.9302 33.0815 44.9683 33.1064 45.014L34.7485 48.1802C34.7485 48.1802 34.9664 47.601 35.4396 47.398C35.9413 47.2126 36.4519 47.0527 36.9697 46.9188L38.4535 47.1039C38.511 47.1109 38.5655 47.1337 38.6108 47.1698C38.6561 47.2059 38.6904 47.254 38.7099 47.3085C38.7295 47.3631 38.7334 47.422 38.7213 47.4787C38.7093 47.5353 38.6817 47.5875 38.6416 47.6294C38.3984 47.8572 38.0792 47.9865 37.7459 47.9921C36.6697 48.0817 36.389 48.3295 36.389 48.3295L35.8516 49.255C35.8516 49.255 36.9861 48.4788 37.3444 48.4489C37.6235 48.4265 39.1686 48.3937 39.8388 48.3802C39.9627 48.3764 40.0846 48.4121 40.1868 48.4821C40.2891 48.5522 40.3664 48.6529 40.4076 48.7699C40.4777 48.9833 40.4285 49.2177 39.9508 49.3446C39.9508 49.3446 40.4747 49.6162 39.7627 49.9715C39.3286 50.1833 38.8796 50.3629 38.4192 50.5089L37.4041 51.1941L35.7038 52.3883L33.705 51.0165C33.705 51.0165 32.993 50.2611 33.4363 49.6297C33.5021 49.5149 33.5537 49.3926 33.5901 49.2655Z"
                      fill="#FFBF9D"
                    />
                    <path
                      d="M38.546 50.2948C38.546 50.2948 39.4983 51.1068 39.7073 51.6144C39.9163 52.1219 40.0955 52.6369 39.7685 53.861C39.4416 55.0851 36.7039 53.861 36.7039 53.861C36.6278 53.3594 36.0157 52.7564 35.332 52.1384L37.8876 50.25L38.546 50.2948Z"
                      fill="#FFBF9D"
                    />
                    <path
                      d="M35.0171 47.7472C34.975 47.8347 34.925 47.9181 34.8678 47.9965C34.7678 48.1458 34.6365 48.3593 34.4932 48.5936C34.208 49.0683 33.9662 49.4475 33.9453 49.4341C33.9771 49.3406 34.0202 49.2513 34.0737 49.1684C34.1603 49.0086 34.2827 48.7907 34.426 48.5533C34.7021 48.0771 34.9962 47.7293 35.0171 47.7472Z"
                      fill="#FF9A6C"
                    />
                    <path
                      d="M39.9868 49.3239C39.9384 49.3388 39.8882 49.3468 39.8376 49.3478L39.4226 49.3821C39.0718 49.409 38.5851 49.4359 38.0522 49.4672C37.5029 49.4672 37.1327 49.8315 36.858 50.0419C36.7167 50.171 36.5671 50.2907 36.4102 50.4002C36.4401 50.3587 36.4747 50.3206 36.5132 50.2868C36.5833 50.2181 36.6863 50.1181 36.8117 50.0001C36.9647 49.8593 37.1284 49.7305 37.3013 49.615C37.4057 49.5457 37.5192 49.4914 37.6387 49.4538C37.7677 49.42 37.8997 49.3985 38.0328 49.3896C38.5702 49.3582 39.0538 49.3388 39.4061 49.3269C39.5808 49.3269 39.7241 49.3179 39.8226 49.3179C39.8774 49.3125 39.9326 49.3145 39.9868 49.3239Z"
                      fill="#FF9A6C"
                    />
                    <path
                      d="M35.9117 49.2729C35.9251 49.2908 35.8371 49.3774 35.7475 49.4998C35.6579 49.6222 35.5982 49.7327 35.5803 49.7252C35.5624 49.7178 35.5803 49.5864 35.6848 49.4535C35.7893 49.3207 35.8938 49.255 35.9117 49.2729Z"
                      fill="#FF9A6C"
                    />
                    <path
                      d="M39.6686 50.0503C39.589 50.1044 39.5021 50.1466 39.4104 50.1757C39.2476 50.2414 39.0178 50.325 38.7655 50.4115C38.2609 50.5877 37.8698 50.7743 37.8594 50.7549C38.1304 50.5736 38.4266 50.4332 38.7386 50.3384C38.9924 50.2473 39.2253 50.1757 39.3924 50.1234C39.4811 50.0876 39.5739 50.063 39.6686 50.0503Z"
                      fill="#FF9A6C"
                    />
                  </svg>
