<svg xmlns="http://www.w3.org/2000/svg" width="165" height="169" viewBox="0 0 165 169" fill="none">
  <path d="M62.9805 153.788V168.528H84.5377H108.311V153.788H62.9805Z" fill="#F5F5F5"/>
  <path d="M61.0742 149.663V153.785H109.892V149.663H84.5338H61.0742Z" fill="#E0E0E0"/>
  <path d="M85.4844 168.525H108.309V153.785H109.893V149.663H84.5352V153.404L85.4844 168.525Z" fill="#E0E0E0"/>
  <path d="M78.5143 156.163H69.3203V158.383H78.5143V156.163Z" fill="#E0E0E0"/>
  <path d="M79.9355 161.158H68.1328V165.844H79.9355V161.158Z" fill="white"/>
  <path d="M66.3555 134.942V149.682H87.9127H111.686V134.942H66.3555Z" fill="#F5F5F5"/>
  <path d="M64.668 130.824V134.942H113.486V130.824H88.1275H64.668Z" fill="#EBEBEB"/>
  <path d="M88.8595 149.683H111.9V134.942H113.268V130.824H87.9102V134.561L88.8595 149.683Z" fill="#EBEBEB"/>
  <path d="M81.8854 137.324H72.6914V139.544H81.8854V137.324Z" fill="#E0E0E0"/>
  <path d="M83.3183 142.312H71.5156V146.999H83.3183V142.312Z" fill="white"/>
  <path d="M159.126 0H103.98V79.9277H159.126V0Z" fill="#E0E0E0"/>
  <path d="M156.36 0H101.215V79.9277H156.36V0Z" fill="#F5F5F5"/>
  <path d="M149.507 8.65674H108.066V71.2729H149.507V8.65674Z" fill="white"/>
  <path d="M149.516 71.2846C149.516 71.2846 149.516 71.1763 149.516 70.9782C149.516 70.7801 149.516 70.4774 149.516 70.0887C149.516 69.3038 149.516 68.1527 149.497 66.654C149.497 63.6641 149.497 59.2802 149.46 53.7563C149.46 42.7161 149.422 27.0789 149.393 8.6685L149.531 8.80679H108.094L108.244 8.65729C108.244 32.2776 108.222 54.059 108.214 71.2734L108.094 71.1538L138.259 71.2174L146.59 71.2473H148.78C149.273 71.2473 149.527 71.2473 149.527 71.2473C149.527 71.2473 149.284 71.2473 148.798 71.2473H146.631L138.326 71.2772L108.087 71.3407H107.967V71.2846C107.967 54.0703 107.949 32.2888 107.938 8.6685V8.49658H108.091H149.527H149.658V8.63486C149.632 27.0826 149.606 42.7497 149.591 53.8124C149.591 59.325 149.561 63.6865 149.553 66.6802C149.553 68.1751 149.553 69.2964 149.553 70.0887C149.553 70.4624 149.553 70.7577 149.553 70.9595C149.553 71.1613 149.516 71.2846 149.516 71.2846Z" fill="#E0E0E0"/>
  <path d="M156.516 0C156.23 0.503205 155.901 0.98086 155.533 1.42768C154.89 2.28354 153.982 3.44961 152.943 4.70911C151.904 5.9686 150.936 7.08608 150.219 7.87841C149.853 8.32597 149.447 8.73997 149.008 9.11548C149.318 8.63002 149.669 8.17234 150.058 7.7476C150.805 6.85063 151.706 5.74436 152.715 4.52597C153.724 3.30759 154.629 2.20132 155.365 1.30435C155.711 0.837859 156.096 0.401519 156.516 0Z" fill="#E0E0E0"/>
  <path d="M149.719 71.0732C151.779 74.3503 154.204 77.3833 156.947 80.114L149.719 71.0732Z" fill="white"/>
  <path d="M156.947 80.1113C156.487 79.7735 156.064 79.389 155.684 78.964C153.763 77.0054 152.046 74.8565 150.56 72.5506C150.227 72.0838 149.945 71.5826 149.719 71.0557C150.09 71.4837 150.43 71.9383 150.735 72.4161C151.341 73.2719 152.197 74.438 153.195 75.6863C154.192 76.9346 155.142 78.0221 155.841 78.8033C156.242 79.2105 156.612 79.6478 156.947 80.1113Z" fill="#E0E0E0"/>
  <path d="M101.207 79.8811L108.431 70.9712L101.207 79.8811Z" fill="white"/>
  <path d="M108.434 70.9549C108.497 71.0072 106.939 73.0441 104.939 75.5033C102.94 77.9625 101.277 79.9171 101.202 79.8648C101.127 79.8125 102.697 77.7756 104.7 75.3164C106.703 72.8572 108.37 70.91 108.434 70.9549Z" fill="#E0E0E0"/>
  <path d="M101.217 0.00106834C101.281 -0.0512551 102.85 1.82491 104.723 4.19068C106.595 6.55644 108.056 8.51857 107.993 8.56716C107.929 8.61574 106.356 6.74331 104.487 4.37755C102.619 2.01178 101.15 0.0496543 101.217 0.00106834Z" fill="#E0E0E0"/>
  <path d="M136.6 21.3696H122.723V60.7691H136.6V21.3696Z" fill="#E0E0E0"/>
  <path d="M164.452 168.653C164.452 168.709 127.747 168.75 82.4795 168.75C37.2123 168.75 0.5 168.709 0.5 168.653C0.5 168.597 37.1937 168.556 82.4795 168.556C127.765 168.556 164.452 168.601 164.452 168.653Z" fill="#263238"/>
  <path d="M6.13281 95.1282C6.13281 95.1282 12.4864 100.476 13.5403 100.398C14.2568 100.358 14.9756 100.391 15.6856 100.495L8.85737 94.1826L6.13281 95.1282Z" fill="#8354BE"/>
  <path d="M78.8141 103.346L14.1088 100.535C13.9121 100.527 13.7189 100.48 13.5404 100.397C13.3619 100.314 13.2015 100.197 13.0685 100.051C12.9355 99.9063 12.8325 99.7363 12.7654 99.5512C12.6982 99.3661 12.6683 99.1696 12.6774 98.9729C13.7687 63.3332 15.5365 21.0335 16.5568 8.52822C16.5837 8.13824 16.7623 7.77431 17.0543 7.51443C17.3463 7.25455 17.7285 7.11939 18.119 7.13791L82.8692 9.94842C83.0682 9.95602 83.2637 10.0033 83.4442 10.0875C83.6247 10.1717 83.7865 10.2911 83.9202 10.4388C84.0539 10.5864 84.1568 10.7592 84.2227 10.9471C84.2887 11.1351 84.3164 11.3343 84.3044 11.5331L80.3801 101.888C80.3645 102.289 80.1911 102.667 79.8977 102.94C79.6043 103.213 79.2147 103.359 78.8141 103.346Z" fill="#8354BE"/>
  <path d="M77.9787 101.916L13.3519 99.5836L8.25781 95.6818L11.3262 3.11426L78.2703 7.67761L81.5778 11.3851L77.9787 101.916Z" fill="white"/>
  <path d="M77.9705 101.915L71.957 96.5374L77.1744 6.72803L81.5696 11.3848L77.9705 101.915Z" fill="#E0E0E0"/>
  <path d="M72.8034 98.4858L7.21979 95.6379C6.82126 95.6223 6.44489 95.4505 6.17211 95.1595C5.89934 94.8685 5.75208 94.4819 5.76221 94.0832C6.84605 58.4397 8.61383 16.1437 9.64162 3.63845C9.67409 3.24721 9.85693 2.88378 10.1517 2.62453C10.4465 2.36527 10.8303 2.23036 11.2225 2.24814L76.8548 5.09603C77.2573 5.11447 77.6362 5.29149 77.9086 5.58842C78.181 5.88535 78.3248 6.27804 78.3086 6.68068L74.3881 97.0357C74.3697 97.4379 74.1925 97.8164 73.8955 98.0883C73.5984 98.3601 73.2057 98.503 72.8034 98.4858Z" fill="#8354BE"/>
  <path d="M11.3893 95.8212C11.3333 95.8212 12.1891 75.1011 13.2991 49.5524C14.4091 24.0036 15.3547 3.28728 15.407 3.29102C15.4593 3.29475 14.6035 24.0073 13.4935 49.5636C12.3835 75.1198 11.4416 95.8212 11.3893 95.8212Z" fill="#263238"/>
  <g opacity="0.3">
    <path d="M68.6413 93.4175L15.832 91.1265L19.4835 7.06152L72.2927 9.35628L68.6413 93.4175ZM17.3905 89.6802L67.2136 91.8441L70.7342 10.769L20.9111 8.62001L17.3905 89.6802Z" fill="black"/>
  </g>
  <g opacity="0.3">
    <path d="M47.4714 84.9062L36.4453 84.4268L36.3109 87.5184L47.3369 87.9979L47.4714 84.9062Z" fill="black"/>
  </g>
  <g opacity="0.3">
    <path d="M48.9581 13.1614L43.8203 12.938L43.6859 16.0296L48.8237 16.253L48.9581 13.1614Z" fill="black"/>
  </g>
  <g opacity="0.3">
    <path d="M64.556 27.9108L25.8359 26.2271L25.2357 40.0311L63.9557 41.7149L64.556 27.9108Z" fill="black"/>
  </g>
  <g opacity="0.3">
    <path d="M58.2182 45.0533L29.6758 43.9116L29.443 49.7307L57.9854 50.8724L58.2182 45.0533Z" fill="black"/>
  </g>
  <g opacity="0.3">
    <path d="M12.7818 15.3907L8.81641 15.2183L8.70778 17.7162L12.6731 17.8887L12.7818 15.3907Z" fill="black"/>
  </g>
  <g opacity="0.3">
    <path d="M12.6021 19.253L8.63672 19.0806L8.52809 21.5785L12.4934 21.751L12.6021 19.253Z" fill="black"/>
  </g>
  <g opacity="0.3">
    <path d="M9.70944 86.0253L6.03906 85.8657L5.93044 88.3637L9.60082 88.5233L9.70944 86.0253Z" fill="black"/>
  </g>
  <g opacity="0.3">
    <path d="M12.1997 28.6553L8.23438 28.4829L6.36614 71.4447L10.3315 71.6171L12.1997 28.6553Z" fill="black"/>
  </g>
  <path d="M79.9216 9.82471C79.9216 9.82471 79.9216 9.95925 79.9216 10.2283C79.9216 10.4974 79.8992 10.8936 79.8805 11.4094C79.8394 12.4521 79.7796 13.9807 79.7011 15.954C79.5367 19.9007 79.2975 25.6114 79.006 32.6601C78.4005 46.7725 77.5634 66.263 76.6402 87.7866C76.4496 92.2079 76.2665 96.5395 76.0796 100.688V100.785H75.9824L29.594 98.7371L15.8928 98.113L12.204 97.9373L11.2472 97.885L10.9258 97.8625H11.2509L12.204 97.8925L15.8965 98.0382L29.5978 98.6026L75.9899 100.587L75.889 100.677C76.0721 96.5283 76.2627 92.1929 76.4496 87.7754C77.3952 66.2517 78.251 46.765 78.8714 32.6527C79.1929 25.6002 79.4507 19.8932 79.6189 15.9465C79.7124 13.9769 79.7834 12.4446 79.8319 11.4019C79.8581 10.8861 79.8805 10.4937 79.8955 10.2209C79.9104 9.94804 79.9216 9.82471 79.9216 9.82471Z" fill="#263238"/>
  <path d="M23.9735 132.116C24.126 132.496 24.1911 132.906 24.1641 133.316C24.2597 132.833 24.4448 132.373 24.7097 131.959C24.8069 131.802 24.9639 131.637 25.1395 131.682C25.3152 131.727 25.375 131.951 25.3825 132.135C25.4003 132.642 25.2857 133.146 25.0498 133.596C25.3775 133.179 25.8023 132.85 26.2869 132.635C26.3265 132.611 26.3712 132.597 26.4173 132.594C26.4635 132.591 26.5097 132.598 26.5523 132.617C26.6457 132.673 26.6494 132.807 26.6345 132.916C26.5683 133.34 26.394 133.741 26.1282 134.079C25.8625 134.416 25.5142 134.68 25.1171 134.844L24.8555 134.882C24.2917 134.726 23.8071 134.364 23.4976 133.867C23.1882 133.371 23.0766 132.777 23.1849 132.202C23.226 131.985 23.3493 131.731 23.5586 131.727C23.7679 131.723 23.8987 131.933 23.9735 132.116Z" fill="#8354BE"/>
  <path d="M29.8368 143.831C29.0747 143.352 28.233 143.013 27.3515 142.83C27.8755 141.039 27.9001 139.139 27.4225 137.336C27.254 136.619 26.937 135.945 26.4919 135.359C26.2683 135.066 25.9871 134.823 25.6656 134.644C25.3442 134.464 24.9894 134.353 24.6232 134.316C24.2273 134.309 23.8349 134.391 23.4756 134.558C23.1163 134.724 22.7995 134.97 22.5489 135.276L21.6295 137.399C21.5766 137.708 21.5404 138.02 21.5212 138.334C21.4134 140.397 21.8763 142.451 22.8591 144.269C21.9061 145.322 20.8709 147.139 21.1811 149.243H32.0793C32.2699 147.225 31.5 145.035 29.8368 143.831Z" fill="#455A64"/>
  <path d="M22.3789 144.944C22.4014 144.901 22.429 144.861 22.4611 144.824C22.5466 144.715 22.6377 144.61 22.734 144.51C23.0873 144.143 23.4943 143.832 23.9411 143.587C24.6048 143.218 25.3354 142.986 26.0901 142.903C27.0178 142.79 27.9589 142.919 28.8222 143.277C29.6748 143.658 30.4158 144.251 30.9749 145C31.4309 145.607 31.7624 146.297 31.9503 147.033C32.0807 147.526 32.1337 148.037 32.1073 148.547C32.1018 148.684 32.0881 148.822 32.0662 148.958C32.0639 149.006 32.0538 149.054 32.0363 149.1C32.076 148.415 32.0092 147.727 31.8382 147.063C31.64 146.349 31.3049 145.68 30.8516 145.093C30.3134 144.361 29.5902 143.785 28.7561 143.425C27.9221 143.064 27.0071 142.932 26.1051 143.041C25.368 143.118 24.6524 143.335 23.9972 143.68C23.3963 144.016 22.8505 144.442 22.3789 144.944Z" fill="#263238"/>
  <path d="M21.4649 139.108C21.4254 138.869 21.4191 138.627 21.4462 138.387C21.4617 137.801 21.5599 137.221 21.7377 136.664C21.9194 136.095 22.2406 135.581 22.6721 135.169C22.843 134.996 23.0534 134.868 23.285 134.795C23.285 134.817 23.057 134.952 22.7506 135.266C22.3639 135.682 22.0719 136.176 21.8947 136.716C21.7229 137.263 21.6114 137.827 21.5621 138.398C21.551 138.637 21.5185 138.875 21.4649 139.108Z" fill="#263238"/>
  <path d="M27.7656 147.859C28.0788 147.486 28.4199 147.137 28.7859 146.816C29.1108 146.455 29.4618 146.119 29.8361 145.811C29.584 146.23 29.2688 146.608 28.9018 146.932C28.5721 147.296 28.1891 147.609 27.7656 147.859Z" fill="#263238"/>
  <path d="M26.5469 147.225C26.5553 146.859 26.6157 146.495 26.7263 146.145C26.7857 145.783 26.8991 145.431 27.0626 145.103C27.0012 145.833 26.8273 146.549 26.5469 147.225Z" fill="#263238"/>
  <path d="M23.3359 146.032C23.8387 146.632 24.1682 147.358 24.289 148.132C24.1008 147.796 23.9383 147.446 23.8031 147.086C23.6199 146.747 23.4637 146.395 23.3359 146.032Z" fill="#263238"/>
  <path d="M26.8125 140.927C27.0139 140.524 27.265 140.147 27.56 139.806C27.806 139.434 28.0987 139.095 28.4308 138.797C28.2263 139.199 27.9755 139.575 27.6833 139.918C27.4352 140.289 27.1428 140.628 26.8125 140.927Z" fill="#263238"/>
  <path d="M26.043 137.519C26.274 137.037 26.5532 136.58 26.8764 136.154C27.1573 135.7 27.4829 135.274 27.8481 134.884C27.6181 135.366 27.3388 135.823 27.0147 136.248C26.7349 136.703 26.4093 137.129 26.043 137.519Z" fill="#263238"/>
  <path d="M24.8286 138.413C24.9316 138.789 24.9831 139.177 24.9818 139.567C25.0358 139.954 25.0358 140.347 24.9818 140.734C24.8743 140.358 24.8215 139.969 24.8249 139.579C24.7707 139.192 24.772 138.799 24.8286 138.413Z" fill="#263238"/>
  <path d="M19.9258 139.964C20.4684 140.165 20.9853 140.43 21.4656 140.753C21.9736 141.034 22.4466 141.374 22.8746 141.766C22.3562 141.511 21.8567 141.22 21.3796 140.895C20.8746 140.618 20.3889 140.307 19.9258 139.964Z" fill="#263238"/>
  <g opacity="0.3">
    <path d="M23.844 142.896C24.3882 142.61 24.9934 142.46 25.608 142.458C26.2434 142.428 26.9535 142.492 27.3833 142.959V142.982C25.7675 142.881 24.1712 143.379 22.8984 144.379C22.9128 144.071 23.0076 143.772 23.1735 143.512C23.3394 143.251 23.5706 143.039 23.844 142.896Z" fill="black"/>
  </g>
  <path d="M29.0246 121.501C29.3365 121.415 29.6637 121.403 29.9813 121.463C29.6129 121.342 29.2696 121.155 28.9685 120.91C28.8564 120.817 28.7443 120.678 28.7928 120.536C28.8414 120.394 29.0283 120.379 29.1666 120.391C29.5684 120.423 29.955 120.559 30.2878 120.787C29.9954 120.491 29.7787 120.13 29.6562 119.733C29.6394 119.7 29.6307 119.663 29.6307 119.626C29.6307 119.589 29.6394 119.553 29.6562 119.52C29.7085 119.452 29.8131 119.464 29.8954 119.486C30.2209 119.578 30.5174 119.752 30.7563 119.992C30.9952 120.231 31.1684 120.528 31.2595 120.854V121.063C31.0843 121.487 30.7573 121.83 30.3425 122.025C29.9276 122.22 29.455 122.253 29.0171 122.117C28.8526 122.065 28.6695 121.945 28.6845 121.773C28.6994 121.601 28.8751 121.538 29.0246 121.501Z" fill="#8354BE"/>
  <path d="M50.9902 107.574C51.0464 107.891 51.0311 108.217 50.9454 108.527C51.0957 108.171 51.3111 107.845 51.5807 107.567C51.6817 107.466 51.8312 107.361 51.9545 107.425C52.0778 107.488 52.0928 107.668 52.0703 107.799C52.0012 108.193 51.8327 108.564 51.5807 108.875C51.9032 108.603 52.2888 108.417 52.702 108.333C52.7364 108.32 52.7734 108.316 52.8098 108.32C52.8463 108.325 52.8811 108.338 52.9113 108.359C52.9748 108.419 52.9524 108.52 52.9113 108.602C52.7911 108.921 52.5902 109.204 52.3281 109.422C52.0661 109.64 51.7519 109.786 51.4163 109.847H51.2107C50.8013 109.637 50.4853 109.282 50.3254 108.851C50.1655 108.42 50.1734 107.944 50.3474 107.518C50.4147 107.358 50.5492 107.182 50.7212 107.216C50.8931 107.249 50.9902 107.421 50.9902 107.574Z" fill="#8354BE"/>
  <path d="M35.6954 136.065C35.8598 136.065 36.0093 136.087 36.1625 136.102C36.4466 132.989 35.501 129.831 36.454 126.856L36.327 127.017C35.1804 127.197 34.0071 127.092 32.911 126.71C32.3658 126.516 31.8656 126.213 31.441 125.82C31.0163 125.427 30.676 124.952 30.4406 124.423C30.216 123.888 30.1463 123.301 30.2395 122.729C30.3327 122.157 30.585 121.622 30.9676 121.186C32.0439 120.065 33.9575 120.121 35.2955 120.895C36.6334 121.668 37.5117 122.902 38.3713 124.139C38.8226 123.778 39.3268 123.489 39.8663 123.283C38.3713 121.216 36.9137 119.045 36.4391 116.556C35.9196 113.824 36.9399 110.576 39.4776 109.455C41.6378 108.483 44.3362 109.361 45.8685 111.174C45.9844 111.318 46.0929 111.467 46.1937 111.622L46.1451 111.473C46.5176 110.51 47.2549 109.732 48.1969 109.309C48.6669 109.107 49.1767 109.014 49.6877 109.039C50.1987 109.064 50.6973 109.205 51.1457 109.451C51.5883 109.708 51.9553 110.077 52.2099 110.522C52.4644 110.966 52.5975 111.469 52.5958 111.981C52.5506 112.555 52.3539 113.107 52.0255 113.581C51.6972 114.054 51.2492 114.432 50.7271 114.676C49.7114 115.127 48.5755 115.232 47.4943 114.975C47.632 115.938 47.6257 116.917 47.4756 117.879C47.1392 120.05 46.1675 122.072 45.0164 123.956C45.3369 124.166 45.6339 124.41 45.9021 124.684C47.8605 126.736 47.9876 130.025 46.9598 132.667C45.932 135.31 43.1365 137.238 41.2155 139.305C42.0135 140.741 42.5215 142.319 42.7104 143.951C43.0512 143.245 43.5809 142.648 44.2407 142.226C44.9005 141.804 45.6646 141.573 46.4478 141.559C47.2925 141.559 48.2343 141.932 48.4922 142.736C48.7239 143.442 48.3352 144.205 47.8344 144.75C47.2002 145.387 46.4155 145.853 45.5532 146.106C44.6908 146.359 43.7786 146.39 42.901 146.197L42.8823 145.681C42.9475 146.865 42.9188 148.052 42.7964 149.232H30.3397C30.3397 149.232 27.0171 135.743 35.6954 136.065Z" fill="#455A64"/>
  <path d="M16.083 154.461H45.5V149.247H16.083V154.461Z" fill="#8354BE"/>
  <path d="M43.3107 153.422L39.7303 169H22.1982L18.2852 153.422H43.3107Z" fill="#8354BE"/>
  <path d="M16.1094 154.463C16.1094 154.523 22.7432 154.568 30.9281 154.568C39.113 154.568 45.7468 154.523 45.7468 154.463C45.7468 154.403 39.113 154.362 30.9281 154.362C22.7432 154.362 16.1094 154.407 16.1094 154.463Z" fill="#263238"/>
  <path d="M33.3945 136.575C33.4484 136.536 33.506 136.504 33.5665 136.477C33.7321 136.39 33.9046 136.316 34.0822 136.257C34.741 136.037 35.4387 135.956 36.1303 136.021C37.1581 136.113 38.147 136.458 39.0081 137.027C40.0497 137.743 40.8993 138.704 41.4822 139.826C42.0703 140.937 42.4707 142.138 42.667 143.38C42.8167 144.391 42.8842 145.412 42.8688 146.434C42.8688 147.301 42.8352 148.004 42.8165 148.489C42.8165 148.717 42.8165 148.901 42.7941 149.046C42.8002 149.111 42.8002 149.176 42.7941 149.241C42.785 149.176 42.785 149.111 42.7941 149.046C42.7941 148.901 42.7941 148.717 42.7941 148.489C42.7941 147.981 42.7941 147.286 42.7941 146.434C42.7929 145.42 42.7155 144.408 42.5623 143.407C42.3611 142.183 41.9622 141 41.3813 139.905C40.8104 138.807 39.9835 137.864 38.9707 137.154C38.1313 136.593 37.168 136.244 36.1639 136.137C35.4859 136.065 34.8004 136.126 34.1457 136.317C33.6412 136.459 33.4244 136.593 33.3945 136.575Z" fill="#263238"/>
  <path d="M36.0358 129.961C36.0191 129.913 36.0115 129.863 36.0133 129.812C36.006 129.671 36.006 129.53 36.0133 129.39C36.0153 128.865 36.0768 128.342 36.1965 127.831C36.3668 127.069 36.6583 126.34 37.0598 125.671C37.2943 125.274 37.574 124.905 37.8932 124.572C38.2314 124.207 38.6234 123.896 39.0556 123.649C39.4897 123.402 39.9583 123.222 40.4459 123.114C40.8998 123.025 41.3627 122.99 41.825 123.01C42.605 123.059 43.3709 123.241 44.0898 123.548C44.5724 123.75 45.0332 124 45.4652 124.295C45.6222 124.396 45.7305 124.49 45.809 124.55C45.8875 124.609 45.9211 124.643 45.9174 124.647C45.75 124.556 45.5878 124.456 45.4315 124.348C44.9906 124.076 44.5266 123.843 44.045 123.653C43.3304 123.364 42.5724 123.197 41.8025 123.159C41.3539 123.144 40.905 123.181 40.4646 123.268C39.9947 123.375 39.5428 123.55 39.1228 123.787C38.707 124.028 38.3291 124.329 38.0016 124.68C37.6887 125.003 37.414 125.36 37.1831 125.746C36.7834 126.399 36.4859 127.11 36.3011 127.853C36.1735 128.355 36.0959 128.869 36.0694 129.386C36.0358 129.771 36.0358 129.961 36.0358 129.961Z" fill="#263238"/>
  <path d="M47.5768 116.822C47.5105 116.494 47.4755 116.16 47.4722 115.824C47.446 115.518 47.4161 115.152 47.3488 114.752C47.2765 114.317 47.151 113.893 46.9751 113.488C46.6687 112.751 46.2933 112.044 45.8539 111.377C45.5138 110.861 45.2596 110.577 45.2783 110.562C45.297 110.547 45.3568 110.614 45.4801 110.742C45.6496 110.92 45.8069 111.11 45.951 111.31C46.4294 111.967 46.8296 112.678 47.1433 113.429C47.3189 113.844 47.437 114.282 47.4946 114.729C47.5447 115.091 47.5747 115.455 47.5843 115.821C47.6076 116.154 47.6051 116.489 47.5768 116.822Z" fill="#263238"/>
  <path d="M45.9766 144.775C46.2901 144.94 46.5764 145.151 46.825 145.403C47.1125 145.611 47.3649 145.863 47.5724 146.151C47.2588 145.987 46.9726 145.775 46.724 145.523C46.4384 145.313 46.1864 145.061 45.9766 144.775Z" fill="#263238"/>
  <path d="M47.0156 143.737C47.7082 143.558 48.4243 143.487 49.1385 143.528C48.7994 143.646 48.4436 143.709 48.0845 143.714C47.7315 143.777 47.3709 143.785 47.0156 143.737Z" fill="#263238"/>
  <path d="M46.2188 141.92C46.3914 141.632 46.589 141.359 46.8093 141.105C46.9837 140.817 47.1825 140.545 47.4035 140.291C47.1966 140.948 46.7806 141.52 46.2188 141.92Z" fill="#263238"/>
  <path d="M44.8339 141.061C44.8248 141.468 44.7607 141.873 44.6433 142.264C44.5734 142.668 44.4476 143.061 44.2695 143.43C44.3458 142.62 44.5293 141.823 44.8152 141.061H44.8339Z" fill="#263238"/>
  <path d="M43.8858 145.263C43.8559 145.23 44.054 145.005 44.3268 144.759C44.5996 144.512 44.8463 144.34 44.8762 144.385C44.9061 144.43 44.708 144.647 44.4352 144.893C44.1624 145.14 43.9344 145.286 43.8858 145.263Z" fill="#263238"/>
  <path d="M39.5852 144.451C39.5516 144.417 39.7907 144.114 40.1159 143.774C40.441 143.434 40.7363 143.18 40.7699 143.213C40.4575 143.698 40.0554 144.117 39.5852 144.451Z" fill="#263238"/>
  <path d="M38.6562 140.459C38.7363 140.166 38.8707 139.891 39.0524 139.648C39.1869 139.376 39.3706 139.132 39.5943 138.927C39.3756 139.489 39.0579 140.008 38.6562 140.459Z" fill="#263238"/>
  <path d="M35.8932 137.208C35.9795 137.546 36.0123 137.895 35.9904 138.243C36.022 138.591 35.9994 138.942 35.9231 139.282C35.8346 138.945 35.8018 138.595 35.826 138.247C35.7949 137.899 35.8176 137.549 35.8932 137.208Z" fill="#263238"/>
  <path d="M30.1133 138.31C30.4126 138.606 30.6875 138.926 30.9355 139.267C31.2229 139.576 31.4853 139.907 31.7204 140.257C31.3667 140.018 31.057 139.72 30.8047 139.375C30.5139 139.063 30.2799 138.703 30.1133 138.31Z" fill="#263238"/>
  <path d="M29.3711 143.984C29.7175 143.966 30.0645 144.004 30.3989 144.096C30.7439 144.135 31.0807 144.229 31.3968 144.373C31.0504 144.391 30.7033 144.353 30.369 144.26C30.0238 144.222 29.6869 144.128 29.3711 143.984Z" fill="#263238"/>
  <path d="M35.3672 145.962C35.4217 145.565 35.5565 145.184 35.7634 144.841C35.923 144.468 36.1541 144.13 36.4436 143.847C36.2939 144.216 36.1165 144.573 35.9128 144.916C35.7558 145.277 35.5735 145.626 35.3672 145.962Z" fill="#263238"/>
  <path d="M33.366 143.235C33.2798 142.965 33.2455 142.68 33.2651 142.398C33.2319 142.116 33.2535 141.83 33.3287 141.557C33.4195 141.826 33.4538 142.111 33.4296 142.394C33.4651 142.676 33.4434 142.962 33.366 143.235Z" fill="#263238"/>
  <path d="M39.8125 148.036C39.8473 147.718 39.9631 147.414 40.1489 147.154C40.2939 146.867 40.5085 146.622 40.773 146.44C40.637 146.721 40.4756 146.988 40.2909 147.24C40.1572 147.52 39.997 147.786 39.8125 148.036Z" fill="#263238"/>
  <path d="M32.9705 148.431C32.7778 148.189 32.6274 147.916 32.5257 147.624C32.3768 147.352 32.2768 147.056 32.2305 146.75C32.4241 146.991 32.5746 147.264 32.6752 147.557C32.8247 147.828 32.9247 148.125 32.9705 148.431Z" fill="#263238"/>
  <path d="M43.6094 135.779C43.9854 135.711 44.3691 135.696 44.7493 135.734C45.1268 135.722 45.5041 135.762 45.8705 135.854C45.495 135.926 45.1106 135.942 44.7306 135.899C44.353 135.913 43.9754 135.873 43.6094 135.779Z" fill="#263238"/>
  <path d="M46.0898 131.538C46.4194 131.203 46.7869 130.909 47.1849 130.66C47.551 130.366 47.9498 130.115 48.3734 129.912C48.0451 130.245 47.6788 130.539 47.2821 130.787C46.9163 131.084 46.516 131.336 46.0898 131.538Z" fill="#263238"/>
  <path d="M45.8281 126.088C46.1084 125.867 46.4058 125.67 46.7176 125.497C47 125.28 47.2972 125.083 47.6071 124.907C47.4014 125.208 47.1289 125.457 46.8111 125.636C46.522 125.859 46.1858 126.014 45.8281 126.088Z" fill="#263238"/>
  <path d="M43.0508 124.158C43.0767 123.707 43.1583 123.261 43.2937 122.831C43.3741 122.385 43.5084 121.951 43.6936 121.538C43.5896 122.433 43.3737 123.312 43.0508 124.154V124.158Z" fill="#263238"/>
  <path d="M38.4102 122.783C38.6334 123.017 38.8153 123.287 38.9483 123.583C39.1304 123.85 39.2645 124.147 39.3445 124.461C39.1213 124.226 38.9393 123.956 38.8063 123.661C38.6242 123.393 38.4902 123.096 38.4102 122.783Z" fill="#263238"/>
  <path d="M34.4102 131.983C34.4401 131.946 34.9708 132.357 35.6659 132.779C36.3611 133.202 36.9628 133.504 36.9404 133.527C36.4536 133.401 35.993 133.189 35.58 132.903C35.1397 132.666 34.7438 132.355 34.4102 131.983Z" fill="#263238"/>
  <path d="M40.8984 134.05C41.3975 133.614 41.966 133.264 42.5803 133.015C42.3467 133.252 42.0767 133.45 41.7805 133.602C41.514 133.8 41.2157 133.952 40.8984 134.05Z" fill="#263238"/>
  <path d="M41.9785 129.651C41.9449 129.614 42.3523 129.203 42.7522 128.601C43.1521 127.999 43.3576 127.454 43.4025 127.48C43.2119 128.357 42.705 129.132 41.9785 129.659V129.651Z" fill="#263238"/>
  <path d="M39.8512 128.656C39.7818 128.305 39.7705 127.945 39.8176 127.59C39.8066 127.233 39.8507 126.876 39.9484 126.533C40.0133 126.884 40.0246 127.243 39.982 127.598C39.993 127.955 39.9488 128.312 39.8512 128.656Z" fill="#263238"/>
  <path d="M38.6728 133.006C38.551 132.659 38.4805 132.296 38.4636 131.929C38.3939 131.567 38.38 131.197 38.4224 130.831C38.6129 131.539 38.6973 132.272 38.6728 133.006Z" fill="#263238"/>
  <path d="M35.3865 119.908C35.5258 120.305 35.6406 120.711 35.7303 121.122C35.8737 121.52 35.9899 121.927 36.0779 122.341C35.8373 121.985 35.6661 121.587 35.5733 121.167C35.4298 120.764 35.3663 120.336 35.3865 119.908Z" fill="#263238"/>
  <path d="M33.0703 127.542C33.3687 127.285 33.686 127.051 34.0196 126.843C34.3207 126.589 34.6406 126.357 34.9764 126.151C34.4791 126.779 33.8201 127.26 33.0703 127.542Z" fill="#263238"/>
  <path d="M29.9141 125.201C30.2932 125.091 30.6807 125.012 31.0727 124.966C31.4548 124.863 31.8449 124.793 32.2387 124.756C31.8926 124.952 31.5118 125.079 31.1175 125.13C30.7251 125.234 30.3159 125.258 29.9141 125.201Z" fill="#263238"/>
  <path d="M32.9823 122.579C33.2237 122.638 33.4494 122.749 33.6438 122.904C33.9877 123.124 34.2418 123.33 34.2194 123.371C33.9764 123.311 33.7493 123.199 33.5541 123.042C33.214 122.825 32.9561 122.616 32.9823 122.579Z" fill="#263238"/>
  <path d="M31.457 119.751C32.0253 120.086 32.4698 120.596 32.724 121.205C32.4888 120.985 32.2748 120.743 32.0849 120.484C31.8544 120.258 31.6442 120.013 31.457 119.751Z" fill="#263238"/>
  <path d="M29.3672 122.443C29.7319 122.501 30.0908 122.591 30.4398 122.712C30.8025 122.78 31.1579 122.883 31.5012 123.018C31.1213 123.043 30.7402 122.992 30.38 122.869C30.0172 122.796 29.6728 122.651 29.3672 122.443Z" fill="#263238"/>
  <path d="M43.8047 118.819C44.092 118.323 44.4064 117.844 44.7465 117.384C45.0392 116.894 45.3573 116.42 45.6995 115.963C45.5002 116.504 45.226 117.013 44.8848 117.477C44.5869 117.971 44.2236 118.422 43.8047 118.819Z" fill="#263238"/>
  <path d="M42.8786 115.519C42.8496 115.107 42.876 114.694 42.9571 114.289C42.9842 113.876 43.0659 113.469 43.2 113.078C43.229 113.49 43.2026 113.903 43.1215 114.308C43.0944 114.72 43.0127 115.127 42.8786 115.519Z" fill="#263238"/>
  <path d="M39.6719 116.032C39.7205 116.032 39.855 116.656 40.1727 117.385C40.4904 118.113 40.8529 118.644 40.8155 118.674C40.4605 118.331 40.1882 117.912 40.0194 117.448C39.8003 117.008 39.6816 116.524 39.6719 116.032Z" fill="#263238"/>
  <path d="M35.9023 116.829C35.9435 116.799 36.4106 117.352 37.0609 117.95C37.7112 118.548 38.2868 118.993 38.2569 119.034C37.3035 118.498 36.4953 117.737 35.9023 116.818V116.829Z" fill="#263238"/>
  <path d="M37.3633 109.985C37.4081 109.985 37.5539 110.673 37.8155 111.506C38.0771 112.339 38.3425 113.001 38.2976 113.001C38.0042 112.553 37.787 112.059 37.6548 111.54C37.4721 111.041 37.3736 110.516 37.3633 109.985Z" fill="#263238"/>
  <path d="M41.7042 107.735C41.8633 108.54 41.9136 109.362 41.8536 110.18C41.6945 109.375 41.6442 108.553 41.7042 107.735Z" fill="#263238"/>
  <path d="M50.6641 113.518C50.9769 113.513 51.2895 113.535 51.5984 113.585C51.9106 113.584 52.2223 113.613 52.529 113.671C52.2255 113.777 51.9002 113.804 51.5835 113.75C51.2622 113.753 50.9455 113.673 50.6641 113.518Z" fill="#263238"/>
  <path d="M50.3984 111.274C50.7956 110.969 51.2256 110.708 51.6804 110.497C52.1104 110.24 52.5664 110.03 53.0408 109.869C52.644 110.174 52.2139 110.434 51.7588 110.643C51.3292 110.901 50.8731 111.113 50.3984 111.274Z" fill="#263238"/>
  <path d="M47.9688 111.343C48.0053 110.949 48.0971 110.561 48.2416 110.192C48.3327 109.807 48.4787 109.437 48.6751 109.093C48.6335 109.487 48.5405 109.874 48.3985 110.244C48.3057 110.628 48.1611 110.998 47.9688 111.343Z" fill="#263238"/>
  <g opacity="0.3">
    <path d="M41.1919 139.326C41.1707 138.726 41.0101 138.138 40.7228 137.61C40.4354 137.082 40.0292 136.628 39.5362 136.284C38.557 135.626 36.793 135.563 36.1016 136.052C37.1886 136.084 38.2398 136.448 39.1139 137.095C39.9372 137.71 40.6415 138.47 41.1919 139.338" fill="black"/>
  </g>
  <g opacity="0.3">
    <path d="M45.0046 124.157C44.7796 123.688 44.4489 123.277 44.0384 122.958C43.6279 122.638 43.1488 122.418 42.6388 122.315C41.6334 122.132 40.2095 122.688 39.832 123.32C40.7053 122.969 41.6652 122.893 42.5827 123.103C43.4474 123.304 44.2681 123.661 45.0046 124.157Z" fill="black"/>
  </g>
  <g opacity="0.3">
    <path d="M47.5585 115.141C47.7552 114.794 47.8718 114.409 47.8996 114.011C47.9274 113.614 47.8658 113.216 47.7192 112.846C47.5748 112.51 47.3505 112.215 47.0658 111.985C46.7812 111.756 46.4448 111.6 46.0859 111.53C46.8633 112.651 47.4762 113.81 47.536 115.182" fill="black"/>
  </g>
  <path d="M31.8727 137.29C31.8727 137.29 31.7419 137.41 31.5364 137.664C31.2503 138.012 30.9999 138.387 30.7889 138.785C30.1686 140.115 29.7962 141.548 29.6901 143.012C29.5957 144.487 29.6697 145.968 29.9106 147.426C29.9966 147.99 30.0825 148.442 30.1423 148.753C30.182 148.913 30.207 149.077 30.2171 149.242C30.1513 149.09 30.1024 148.931 30.0713 148.768C29.9928 148.461 29.8882 148.02 29.7836 147.448C29.5043 145.982 29.4126 144.486 29.5107 142.997C29.6034 141.5 29.9934 140.036 30.6581 138.692C30.8837 138.298 31.156 137.933 31.4691 137.604C31.582 137.474 31.7191 137.368 31.8727 137.29Z" fill="#263238"/>
  <path d="M45.5109 149.244C45.4812 149.249 45.4509 149.249 45.4212 149.244H45.1596H44.1505L40.4392 149.27L28.1956 149.296L16.0977 149.27L16.1537 149.21C16.1537 150.817 16.1537 152.118 16.1537 153.03C16.1537 153.475 16.1537 153.822 16.1537 154.069C16.1537 154.181 16.1537 154.271 16.1537 154.342C16.1594 154.371 16.1594 154.402 16.1537 154.431C16.1481 154.402 16.1481 154.371 16.1537 154.342V154.069C16.1537 153.822 16.1537 153.475 16.135 153.034C16.135 152.118 16.1126 150.817 16.0977 149.214V149.154H16.1575L28.2554 149.128L40.499 149.154L44.2103 149.18H45.2194H45.481L45.5109 149.244Z" fill="#263238"/>
  <path d="M90.7422 168.656H144.77L139.739 153.848L98.3366 155.997L90.7422 168.656Z" fill="#263238"/>
  <path d="M100.813 156.299L132.387 155.122L143.599 92.3341L133.467 87.9726C133.467 87.9726 129.262 90.3308 121.473 90.3682C113.83 90.4056 113.965 87.8081 113.965 87.8081L107.264 95.025C107.264 95.025 99.0154 118.492 98.8921 118.967C98.7687 119.441 100.813 156.299 100.813 156.299Z" fill="white"/>
  <path d="M137.319 89.5722C137.319 89.5722 152.87 92.7864 153.016 95.3764C153.162 97.9664 146.363 114.026 146.233 114.437C146.102 114.848 140.107 137.811 140.107 137.811L149.077 168.659H121.121C121.121 168.659 123.117 139.556 125.359 126.109C127.602 112.662 128.136 108.169 128.999 102.84C129.343 100.706 131.081 93.3844 132.161 88.9145C132.467 87.6544 132.523 86.3465 132.326 85.0649L133.653 85.5695L137.319 89.5722Z" fill="#455A64"/>
  <path d="M88.6684 128.945C88.5189 129.169 85.6785 139.48 85.2113 142.467C84.8152 145.001 84.1873 149.119 86.8744 152.931C89.5616 156.743 92.3385 156.295 95.022 155.323C97.7054 154.351 100.628 148.749 101.144 145.535C101.66 142.321 98.6248 128.186 98.6248 128.186L88.6684 128.945Z" fill="#455A64"/>
  <path d="M113.988 85.8105L110.527 90.6953C110.527 90.6953 98.986 92.1903 96.3249 94.1262C93.6639 96.0622 88.3008 130.996 88.3008 130.996L99.0383 136.975L90.7413 168.661H101.142C101.142 168.661 103.721 155.307 103.486 145.717C103.25 136.127 104.913 123.667 107.971 114.45C111.028 105.234 113.95 89.2975 113.95 89.2975L113.988 85.8105Z" fill="#455A64"/>
  <g opacity="0.3">
    <path d="M145.413 156.992L126.812 146.647C127.605 150.911 130.109 155 133.772 157.325C135.616 158.485 137.677 159.259 139.829 159.598C141.981 159.937 144.18 159.835 146.292 159.298C145.993 158.528 145.7 157.759 145.413 156.992Z" fill="black"/>
  </g>
  <path d="M90.297 137.298C90.297 137.331 89.856 137.402 89.1982 137.671C88.3379 138.04 87.5818 138.615 86.9969 139.346C86.4232 140.084 86.0384 140.951 85.8757 141.872C85.7524 142.579 85.7897 143.031 85.7524 143.035C85.7191 142.932 85.7039 142.825 85.7075 142.717C85.6895 142.427 85.7008 142.137 85.7411 141.85C85.8655 140.891 86.2479 139.984 86.8476 139.226C87.4473 138.467 88.2416 137.886 89.1459 137.544C89.4165 137.439 89.697 137.36 89.9831 137.309C90.0863 137.287 90.1925 137.283 90.297 137.298Z" fill="#263238"/>
  <path d="M92.4704 151.808C92.4704 151.808 95.4229 150.873 96.4844 149.674C97.4951 148.485 98.1733 147.05 98.4502 145.514C98.5848 143.735 99.2538 134.391 99.2538 134.391L91.4725 133.879L86.6737 143.043C86.6737 143.043 85.3731 146.407 88.0304 149.991C89.7272 152.29 92.4704 151.808 92.4704 151.808Z" fill="#FFBF9D"/>
  <path d="M99.9495 146.651C99.9658 146.29 100.001 145.931 100.054 145.574C100.134 144.713 100.121 143.846 100.017 142.988C99.9069 142.129 99.7078 141.283 99.4225 140.465C99.202 139.837 99.0264 139.464 99.0488 139.449C99.0712 139.434 99.1161 139.531 99.2095 139.695C99.3359 139.929 99.4482 140.17 99.5459 140.417C100.21 142.056 100.432 143.841 100.189 145.593C100.153 145.856 100.103 146.117 100.039 146.374C100.025 146.471 99.9943 146.564 99.9495 146.651Z" fill="#263238"/>
  <path d="M99.6576 146.828C99.6722 146.977 99.6722 147.127 99.6576 147.276C99.6531 147.451 99.6381 147.626 99.6128 147.799C99.5829 148.001 99.5604 148.233 99.5007 148.483C99.3848 149.078 99.2147 149.661 98.9924 150.225C98.7176 150.913 98.3772 151.572 97.9758 152.195C97.5642 152.811 97.0949 153.386 96.5743 153.914C96.1453 154.341 95.6787 154.729 95.1802 155.072C94.9924 155.209 94.7964 155.333 94.5935 155.446C94.4468 155.541 94.2931 155.625 94.1338 155.696C94.0041 155.772 93.8661 155.832 93.7227 155.876C93.7227 155.842 94.2795 155.566 95.1018 154.964C95.5795 154.608 96.0293 154.215 96.4472 153.79C96.9517 153.264 97.4082 152.694 97.8114 152.086C98.2064 151.469 98.5465 150.819 98.8279 150.143C99.0518 149.591 99.2318 149.022 99.3661 148.442C99.5941 147.463 99.6165 146.824 99.6576 146.828Z" fill="#263238"/>
  <path d="M64.2857 86.5252C62.9849 86.7148 61.8099 87.4055 61.0117 88.45L78.3943 113.117L100.097 110.631L99.746 88.4387C99.746 88.4387 98.2735 86.301 96.8458 86.5402C96.274 86.6373 77.9159 89.5039 76.2902 93.9962C76.2902 93.9962 76.4808 91.7015 74.9484 90.5541C73.4161 89.4067 64.2857 86.5252 64.2857 86.5252Z" fill="white"/>
  <path d="M64.2845 86.5255L64.5386 86.5965L65.2861 86.8282C65.9364 87.0337 66.9044 87.3402 68.1452 87.7588C69.386 88.1774 70.9109 88.7006 72.66 89.3883C73.0972 89.564 73.5457 89.762 74.0054 89.9601C74.4925 90.1582 74.9395 90.4431 75.3247 90.801C76.0946 91.5971 76.4048 92.7968 76.36 93.9965L76.2329 93.9666C76.6271 93.1516 77.2523 92.4706 78.0306 92.0082C78.8286 91.4879 79.6717 91.0401 80.5496 90.6702C82.4655 89.8646 84.4363 89.1964 86.4472 88.6707C88.5551 88.0914 90.7863 87.5794 93.1222 87.116C94.2882 86.8842 95.4842 86.6637 96.6988 86.4657C97.0189 86.4008 97.3506 86.4228 97.6593 86.5292C97.9613 86.6423 98.2447 86.7998 98.5002 86.9964C99.0066 87.39 99.4524 87.8559 99.8233 88.3792L99.842 88.4016V88.4315C99.9317 94.1535 100.033 100.391 100.137 106.868C100.16 108.131 100.18 109.383 100.197 110.624V110.71H100.107L78.4043 113.188H78.352L78.3221 113.147L60.9844 88.4764V88.4577V88.439C61.3169 87.9729 61.7403 87.5788 62.2289 87.2804C62.5821 87.0629 62.9581 86.8849 63.3501 86.7497C63.5802 86.6667 63.8164 86.6017 64.0565 86.5554C64.1379 86.5405 64.2204 86.533 64.3032 86.5329C64.2215 86.5425 64.1405 86.5562 64.0602 86.574C63.8222 86.6255 63.5885 86.6955 63.3614 86.7833C62.9816 86.9243 62.6181 87.106 62.2775 87.3253C61.7982 87.6233 61.3839 88.0148 61.0591 88.4764V88.439L78.4866 113.068L78.4043 113.031L100.085 110.527L99.9989 110.628C99.979 109.382 99.9591 108.136 99.9391 106.89C99.8382 100.414 99.7411 94.1834 99.6514 88.4502L99.67 88.5025C99.3086 87.9955 98.8755 87.5436 98.3844 87.1608C98.145 86.9753 97.8792 86.8267 97.5958 86.7198C97.316 86.6227 97.015 86.6033 96.725 86.6637C95.5103 86.8581 94.3181 87.0786 93.152 87.3066C90.8199 87.7663 88.5887 88.2746 86.4846 88.8464C84.4812 89.3675 82.5168 90.0282 80.6056 90.8235C79.7333 91.1878 78.8953 91.6293 78.1016 92.1428C77.3467 92.5875 76.7387 93.2437 76.3525 94.0301L76.2105 94.3777V94.004C76.2591 92.8416 75.9601 91.6606 75.2238 90.9019C74.8492 90.5515 74.4134 90.2728 73.9381 90.0797C73.4859 89.8667 73.0374 89.6798 72.6039 89.5004C70.8623 88.8053 69.3412 88.2746 68.119 87.8448L65.2712 86.8805L64.5237 86.6338C64.3667 86.5591 64.2845 86.5255 64.2845 86.5255Z" fill="#263238"/>
  <path d="M74.9505 116.552L58.6742 88.8952C58.5976 88.7666 58.5637 88.6172 58.5771 88.4682C58.5905 88.3192 58.6506 88.1783 58.7489 88.0655C58.8466 87.9556 58.9757 87.8783 59.1188 87.8443C59.2619 87.8102 59.4119 87.8209 59.5487 87.8749L72.3791 92.9876C72.6258 93.0844 72.846 93.238 73.022 93.4361C73.2046 93.6397 73.3361 93.8838 73.4056 94.1484C73.4752 94.4129 73.4807 94.6901 73.4219 94.9572L73.2313 95.8131L77.7161 96.9604L77.8133 96.71C77.9921 96.2508 78.2716 95.8375 78.6312 95.5005C78.9908 95.1635 79.4214 94.9114 79.8913 94.7629L100.563 88.1776C100.991 88.0399 101.455 88.0585 101.871 88.2303C102.287 88.402 102.629 88.7158 102.835 89.1157L117.516 117.415L117.018 118.749L93.6822 124.281H89.5711L74.9505 116.552Z" fill="#8354BE"/>
  <path d="M74.9476 116.554L75.2055 116.681L75.9529 117.054L78.8307 118.549L89.6093 124.212H89.5795H93.6682L117.001 118.662L116.937 118.718C117.083 118.306 117.247 117.843 117.415 117.38V117.447L109.829 102.811C108.503 100.242 107.146 97.6263 105.759 94.9628L103.684 90.9189L103.157 89.8986L102.892 89.3866C102.814 89.2164 102.72 89.0538 102.612 88.9008C102.39 88.6067 102.083 88.3873 101.733 88.2718C101.384 88.1563 101.007 88.1501 100.653 88.2542L88.4433 92.1411L82.5718 94.0098C81.6113 94.32 80.6396 94.6115 79.7127 94.9292C79.2662 95.1126 78.8655 95.3923 78.5393 95.7482C78.2131 96.1041 77.9693 96.5276 77.8254 96.9884L77.8029 97.0669L77.717 97.0445L73.2321 95.8971L73.1462 95.8747L73.1649 95.7888L73.3181 95.1048C73.38 94.8914 73.404 94.6688 73.3891 94.447C73.3707 94.2301 73.309 94.0191 73.2076 93.8265C73.1061 93.6339 72.9671 93.4637 72.7986 93.3258C72.625 93.1886 72.429 93.0824 72.2193 93.0119L71.5877 92.7615L70.3282 92.2569L65.4322 90.3023L60.7605 88.4336L59.6393 87.9851C59.5605 87.9412 59.4733 87.9144 59.3835 87.9064C59.2937 87.8984 59.2032 87.9094 59.1179 87.9386C59.0326 87.9679 58.9544 88.0147 58.8884 88.0762C58.8224 88.1376 58.7701 88.2123 58.7348 88.2953C58.6996 88.3767 58.6815 88.4645 58.6815 88.5532C58.6815 88.6419 58.6996 88.7296 58.7348 88.8111L59.0263 89.3156L59.6168 90.321C62.745 95.6467 65.4957 100.337 67.7718 104.22L73.0864 113.298L74.4916 115.72L74.8654 116.348C74.9438 116.486 74.9812 116.561 74.9812 116.561C74.9812 116.561 74.9364 116.494 74.8541 116.356C74.7719 116.217 74.6449 116.012 74.4804 115.743L73.0378 113.332C71.7932 111.228 69.9769 108.156 67.6821 104.284L59.486 90.392L58.8918 89.3866C58.7909 89.2147 58.6937 89.054 58.5891 88.8708C58.5413 88.7708 58.515 88.6618 58.512 88.551C58.509 88.4401 58.5293 88.3299 58.5716 88.2274C58.6138 88.1249 58.6771 88.0324 58.7574 87.9559C58.8377 87.8794 58.9331 87.8206 59.0375 87.7833C59.2494 87.7131 59.4803 87.7292 59.6804 87.8281L60.8016 88.2803L65.4771 90.149L70.3768 92.1L71.6325 92.6008L72.2679 92.8512C72.4939 92.9279 72.705 93.043 72.892 93.1913C73.0803 93.3449 73.2356 93.535 73.3486 93.7502C73.4617 93.9653 73.5301 94.2011 73.5498 94.4433C73.5667 94.6838 73.5414 94.9254 73.4751 95.1571L73.3256 95.8411L73.2583 95.7327L77.7431 96.8763L77.6348 96.9324C77.788 96.4484 78.0455 96.0038 78.389 95.63C78.7325 95.2561 79.1537 94.962 79.6231 94.7684C80.5761 94.4396 81.5291 94.1518 82.4934 93.8416L88.3685 91.9729L100.579 88.0823C100.971 87.9671 101.388 87.9741 101.776 88.1023C102.164 88.2305 102.504 88.4738 102.75 88.7998C102.864 88.9608 102.963 89.1322 103.045 89.3119L103.311 89.8239L103.841 90.8442C104.541 92.1996 105.238 93.5463 105.931 94.8843L110.001 102.733L117.572 117.376V117.41V117.443L117.094 118.781V118.826H117.045L93.6943 124.357H89.5832L78.8195 118.639L75.9604 117.111L75.2129 116.714L74.9476 116.554Z" fill="#263238"/>
  <g opacity="0.3">
    <path d="M86.4112 120.992L75.7447 115.89L61.0156 91.6196L74.0255 96.6651L73.7526 97.364L62.7946 93.1108L76.2679 115.311L86.7326 120.315L86.4112 120.992Z" fill="black"/>
  </g>
  <g opacity="0.3">
    <path d="M95.0342 122.487L81.6133 98.2618L101.392 91.9082L114.282 116.881L95.0342 122.487ZM82.7009 98.6953L95.3893 121.602L113.194 116.392L101.01 92.8052L82.7009 98.6953Z" fill="black"/>
  </g>
  <path d="M92.6451 124.004C92.6003 124.03 89.2329 118.025 85.1255 110.55C81.0181 103.075 77.7329 97.0316 77.7778 97.0055C77.8226 96.9793 81.19 102.985 85.2974 110.46C89.4048 117.935 92.6937 123.982 92.6451 124.004Z" fill="#263238"/>
  <path d="M73.2305 95.8047C73.2949 95.8922 73.3524 95.9847 73.4024 96.0813L73.8658 96.8848C74.2657 97.5874 74.8301 98.6077 75.5252 99.8747C76.9118 102.401 78.7954 105.914 80.8547 109.805L86.1207 119.765L87.7241 122.781C87.9035 123.125 88.0455 123.402 88.1539 123.603C88.2091 123.697 88.2554 123.796 88.2921 123.899C88.2277 123.811 88.1702 123.719 88.1202 123.622L87.6568 122.819C87.2569 122.116 86.6925 121.096 85.9974 119.829C84.6108 117.298 82.7272 113.785 80.6679 109.895L75.3907 99.9345L73.7873 96.9222C73.6079 96.5783 73.4659 96.3018 73.3575 96.0999C73.3062 96.0057 73.2636 95.9068 73.2305 95.8047Z" fill="#263238"/>
  <path d="M75.7513 96.2536C75.7406 95.8731 75.7962 95.4937 75.9157 95.1323C75.9713 94.7551 76.09 94.39 76.2671 94.0522C76.2774 94.4327 76.2217 94.812 76.1026 95.1735C76.0471 95.5507 75.9283 95.9158 75.7513 96.2536Z" fill="#263238"/>
  <g opacity="0.3">
    <path d="M78.2266 103.734L86.1536 118.418L88.9117 118.814L81.0296 104.242L78.2266 103.734Z" fill="black"/>
  </g>
  <g opacity="0.3">
    <path d="M75.4062 99.8135L79.7977 100.692L80.7619 102.291L76.2621 101.402L75.4773 100.053" fill="black"/>
  </g>
  <g opacity="0.3">
    <path d="M91.0705 99.789L90.2969 97.9988L95.2115 96.2534L96.0674 98.0212L91.0705 99.789Z" fill="black"/>
  </g>
  <g opacity="0.3">
    <path d="M90.7441 108.876L88.0195 103.733L101.934 98.6021L104.389 103.733L90.7441 108.876Z" fill="black"/>
  </g>
  <path d="M135.48 26.5712C136.022 26.0595 136.676 25.6804 137.389 25.4638C138.102 25.2472 138.856 25.199 139.591 25.3229C140.186 25.4276 140.828 25.6406 141.363 25.3566C141.709 25.0976 142.009 24.7832 142.252 24.426C142.485 24.1941 142.762 24.0117 143.067 23.8895C143.372 23.7673 143.698 23.7079 144.027 23.7149C144.355 23.7219 144.679 23.7951 144.978 23.9301C145.278 24.0651 145.547 24.2592 145.769 24.5007C145.948 24.7745 146.171 25.0159 146.431 25.2145C147.552 25.8835 148.961 23.757 150.093 24.4372C149.557 24.6114 149.086 24.9452 148.744 25.3939C148.581 25.6228 148.498 25.8999 148.51 26.181C148.523 26.4622 148.629 26.7311 148.811 26.945C149.858 27.9578 151.757 25.8985 152.923 26.7506C153.554 27.214 153.592 28.3315 154.343 28.552C154.643 28.5971 154.949 28.5895 155.247 28.5296C155.758 28.518 156.253 28.7007 156.634 29.0406C157.015 29.3806 157.253 29.8525 157.299 30.3609C157.344 31.2317 156.858 32.267 157.478 32.8762C157.852 33.2499 158.476 33.2275 159.015 33.1714C158.963 33.9694 158.73 34.7452 158.334 35.44C159.003 35.9056 159.466 36.6123 159.625 37.4116C159.783 38.211 159.626 39.0408 159.186 39.7268C159.882 40.2577 160.467 40.9191 160.909 41.674C161.302 42.4514 161.354 43.4679 160.808 44.1481C160.667 44.2875 160.547 44.4476 160.453 44.6228C160.382 44.8271 160.371 45.0474 160.42 45.2581C160.547 46.0766 160.865 46.8802 160.794 47.7061C160.723 48.5321 160.072 49.4066 159.25 49.2983C159.059 49.2721 158.85 49.1973 158.686 49.2983C158.626 49.3427 158.576 49.3987 158.539 49.4629C158.502 49.5272 158.478 49.5983 158.469 49.672C158.384 50.2615 158.394 50.8609 158.499 51.4473C158.603 52.04 158.478 52.6502 158.151 53.1552C157.777 53.6224 156.959 53.7495 156.611 53.2674L157.183 56.0629C157.295 56.6161 157.378 57.285 156.959 57.6663C156.41 58.1671 155.486 57.7074 155.124 57.0608C154.761 56.4142 154.687 55.6331 154.305 54.9978C154.126 54.7545 153.97 54.4942 153.842 54.2204C153.764 53.9924 153.745 53.7271 153.569 53.5663C153.214 53.2412 152.616 53.7308 152.642 54.2129C152.668 54.695 153.035 55.0725 153.319 55.4612C153.603 55.8499 153.82 56.3918 153.554 56.7954C153.427 56.9898 153.207 57.1094 153.083 57.3075C152.657 57.9877 153.651 58.7202 153.734 59.52C153.797 60.1105 153.341 60.6188 152.9 61.015C152.362 61.5008 151.353 61.8633 151.061 61.2018C151.007 60.9551 150.966 60.7056 150.938 60.4544C150.817 60.1851 150.632 59.9491 150.4 59.7667C149.88 59.2446 149.524 58.5821 149.376 57.8606C149.951 58.6455 150.546 59.6732 150.067 60.5179C149.831 60.8489 149.546 61.1425 149.223 61.3887C148.643 61.9344 148.266 62.6631 147.694 63.2163C147.122 63.7694 146.199 64.1245 145.53 63.7021C145.635 64.0934 145.603 64.5086 145.441 64.8798C145.279 65.251 144.996 65.5563 144.638 65.7459C144.281 65.9355 143.869 65.9981 143.471 65.9235C143.073 65.849 142.712 65.6416 142.447 65.3354C142.325 65.1508 142.166 64.9942 141.98 64.8757C141.751 64.8119 141.509 64.8119 141.281 64.8757C140.573 64.9591 139.855 64.8459 139.207 64.5486C138.559 64.2513 138.005 63.7813 137.607 63.1901L138.328 62.9733C136.942 62.7229 135.495 62.4501 134.374 61.598C133.253 60.7459 132.576 59.1276 133.253 57.883C133.541 57.3448 134.071 56.8029 133.873 56.2274C133.735 55.8275 133.301 55.6294 132.913 55.4799L128.017 53.4841C127.224 53.1627 126.391 52.8077 125.886 52.1162C125.382 51.4248 125.389 50.2887 126.126 49.8514C125.775 49.0587 125.207 48.3812 124.489 47.8967C123.685 47.3623 122.728 47.0895 121.902 46.5887C121.076 46.0878 120.34 45.2245 120.448 44.264C120.557 43.3035 121.921 42.6196 122.553 43.3558C122.489 41.8945 119.907 41.6815 119.757 40.2276C119.634 39.0503 121.159 38.5159 121.973 37.6526C121.835 37.2377 121.435 36.9574 121.286 36.5313C120.968 35.6717 121.884 34.8719 122.728 34.5206C123.573 34.1693 124.597 33.818 124.844 32.936C125.09 32.054 124.362 30.9589 124.885 30.1853C125.039 29.9753 125.266 29.8307 125.521 29.7802C125.777 29.7297 126.042 29.7769 126.264 29.9124C127.011 28.2717 130.098 29.6845 131.093 28.1783C131.178 28.0626 131.222 27.922 131.22 27.7784C131.201 27.6555 131.151 27.5395 131.074 27.442C130.734 26.9674 130.184 26.6946 129.74 26.3208C129.295 25.9471 128.936 25.3229 129.172 24.7847C129.407 24.2466 130.442 24.3176 130.401 24.9043C130.561 24.7911 130.744 24.7158 130.938 24.6842C131.131 24.6527 131.329 24.6657 131.516 24.7223C131.704 24.7789 131.876 24.8776 132.019 25.0108C132.163 25.1441 132.274 25.3084 132.345 25.4911C132.771 25.0239 133.563 25.0688 134.09 25.4164C134.594 25.8144 134.997 26.3268 135.263 26.9113" fill="#263238"/>
  <path d="M142.51 45.4425C142.051 43.0244 140.328 41.0324 138.399 39.4926C137.631 38.7988 136.702 38.3058 135.697 38.0574C134.681 37.8705 133.511 38.1994 132.973 39.0814L133.07 40.8044C132.782 43.5327 134.834 45.8835 135.776 48.4585C136.187 49.5798 136.523 50.9215 137.592 51.4223C138.18 51.6571 138.833 51.6665 139.427 51.4484C141.778 50.7047 142.97 47.8606 142.51 45.4425Z" fill="#455A64"/>
  <path d="M142.442 58.0869C143.208 57.0502 143.586 55.7773 143.51 54.4904C143.433 53.2035 142.907 51.9843 142.024 51.0457C143.044 49.7937 142.7 47.8428 141.691 46.5833C140.682 45.3238 139.172 44.5912 137.714 43.8961C136.948 40.1923 132.826 37.5425 129.141 38.4021C127.253 35.5692 123.18 35.0833 119.898 36.0027C119.116 36.2875 118.296 36.4586 117.465 36.511C116.857 36.4582 116.253 36.3684 115.656 36.2419C112.338 35.7598 109.011 38.0658 107.684 41.1491C107.508 41.6558 107.265 42.137 106.963 42.5805C106.526 43.1337 105.868 43.4551 105.307 43.8774C104.701 44.3417 104.201 44.9312 103.843 45.6057C103.484 46.2803 103.275 47.0241 103.23 47.7867C103.162 49.0761 103.562 50.4515 103.005 51.6175C102.725 52.2043 102.228 52.6715 102.011 53.2844C101.376 55.0522 103.327 56.8835 102.942 58.7223C102.863 59.096 102.691 59.4473 102.568 59.8136C102.348 60.5747 102.411 61.3896 102.744 62.1084C103.002 62.654 103.42 63.1586 103.45 63.764C103.414 64.2204 103.318 64.6702 103.166 65.102C102.931 66.2008 105.263 70.4651 106.204 71.0818L134.609 71.6237C135.684 71.3924 136.662 70.8327 137.405 70.0219C138.149 69.2111 138.623 68.1894 138.761 67.0978C138.751 66.7313 138.846 66.3697 139.034 66.055C139.257 65.8378 139.523 65.6687 139.815 65.558C141.654 64.5975 141.9 62.0859 141.728 60.0192C141.686 59.7308 141.695 59.4374 141.754 59.1521C141.909 58.754 142.143 58.3916 142.442 58.0869Z" fill="#263238"/>
  <path d="M134.348 58.047C134.483 53.0202 131.392 47.2086 126.425 44.7046C123.293 43.1237 120.819 43.09 119.186 42.8807C116.86 42.6309 114.513 43.0963 112.459 44.215C110.889 44.5663 105.1 49.7612 104.745 55.457C104.348 61.7844 104.117 69.5283 104.868 74.2486C106.382 83.7416 113.658 84.945 113.658 84.945L113.329 92.4683L118.633 102.305L132.289 88.3983L134.348 58.047Z" fill="#FFBF9D"/>
  <path d="M119.08 72.816C119.036 72.3299 118.814 71.8773 118.456 71.5453C118.132 71.2349 117.715 71.0398 117.269 70.9898C116.824 70.9398 116.374 71.0378 115.989 71.2687C115.587 71.5445 115.265 71.9226 115.058 72.3641C114.85 72.8056 114.764 73.2944 114.808 73.7802C114.999 74.0787 115.252 74.3331 115.549 74.5264C115.846 74.7197 116.181 74.8476 116.531 74.9014C116.643 74.9014 116.755 74.9276 116.867 74.9313C117.426 74.9569 117.974 74.7729 118.404 74.4156C118.63 74.2173 118.808 73.9704 118.925 73.6934C119.042 73.4163 119.095 73.1164 119.08 72.816Z" fill="#FF9A6C"/>
  <path d="M106.879 63.9471C106.876 64.2648 106.997 64.5711 107.217 64.8002C107.438 65.0294 107.739 65.1632 108.056 65.173C108.211 65.1852 108.367 65.1662 108.514 65.1172C108.661 65.0683 108.797 64.9903 108.914 64.8878C109.031 64.7854 109.126 64.6606 109.194 64.5209C109.261 64.3811 109.3 64.2293 109.308 64.0742C109.312 63.7568 109.192 63.4506 108.972 63.2213C108.753 62.992 108.452 62.8581 108.135 62.8483C107.98 62.8361 107.824 62.8551 107.676 62.904C107.529 62.9529 107.392 63.0309 107.275 63.1332C107.158 63.2356 107.063 63.3604 106.995 63.5001C106.927 63.6399 106.887 63.7919 106.879 63.9471Z" fill="#263238"/>
  <path d="M106.897 59.097C107.05 59.2577 107.973 58.5738 109.281 58.5738C110.59 58.5738 111.554 59.2315 111.696 59.0708C111.763 58.9998 111.61 58.7158 111.191 58.4093C110.624 58.0165 109.949 57.8089 109.259 57.8151C108.579 57.8144 107.915 58.0289 107.364 58.428C106.961 58.7382 106.826 59.026 106.897 59.097Z" fill="#263238"/>
  <path d="M114.571 69.4395C114.571 69.3648 113.764 69.2265 112.444 69.0658C112.108 69.0321 111.79 68.9649 111.734 68.7369C111.705 68.3916 111.784 68.0457 111.958 67.7465L112.945 65.1976C114.317 61.5686 115.311 58.5862 115.165 58.5301C115.019 58.474 113.786 61.3742 112.414 65.0033C112.085 65.8965 111.768 66.7486 111.469 67.5671C111.258 67.9702 111.197 68.4351 111.297 68.8789C111.345 68.997 111.42 69.1025 111.515 69.1873C111.61 69.2722 111.723 69.3341 111.846 69.3685C112.032 69.4171 112.223 69.4434 112.414 69.447C113.741 69.5105 114.567 69.5143 114.571 69.4395Z" fill="#263238"/>
  <path d="M113.681 84.9466C118.149 85.0103 122.547 83.8343 126.388 81.5493C126.388 81.5493 123.024 88.37 113.527 87.488L113.681 84.9466Z" fill="#FF9A6C"/>
  <path d="M118.429 70.3448C118.216 70.3448 118.212 71.7538 116.997 72.7667C115.782 73.7795 114.265 73.6188 114.254 73.8206C114.254 73.9066 114.594 74.0934 115.233 74.1121C116.066 74.1249 116.877 73.8415 117.52 73.3123C118.145 72.808 118.547 72.0798 118.642 71.2829C118.683 70.6887 118.526 70.3374 118.429 70.3448Z" fill="#263238"/>
  <path d="M107.418 54.1877C107.639 54.5091 108.644 54.2961 109.814 54.3933C110.984 54.4904 111.959 54.7969 112.217 54.5091C112.333 54.3671 112.217 54.0569 111.798 53.7355C111.242 53.3324 110.582 53.0987 109.896 53.0628C109.214 53.0063 108.531 53.1505 107.93 53.4776C107.493 53.743 107.328 54.0345 107.418 54.1877Z" fill="#263238"/>
  <path d="M120.961 64.5034C120.95 64.8181 120.818 65.1164 120.592 65.3359C120.367 65.5554 120.065 65.6789 119.75 65.6807C119.595 65.6872 119.439 65.6626 119.294 65.6083C119.148 65.554 119.015 65.4712 118.902 65.3646C118.789 65.2581 118.698 65.13 118.635 64.9878C118.572 64.8457 118.538 64.6924 118.535 64.537C118.545 64.2201 118.677 63.9193 118.905 63.6982C119.132 63.4772 119.436 63.3531 119.754 63.3523C119.909 63.3468 120.064 63.3724 120.209 63.4276C120.354 63.4828 120.487 63.5665 120.599 63.6737C120.712 63.781 120.802 63.9096 120.864 64.0521C120.926 64.1946 120.959 64.348 120.961 64.5034Z" fill="#263238"/>
  <path d="M124.825 59.6004C124.668 59.7537 123.771 59.0398 122.463 58.9913C121.155 58.9427 120.169 59.5668 120.034 59.4024C119.967 59.3276 120.131 59.0286 120.561 58.7595C121.142 58.388 121.823 58.2053 122.512 58.2363C123.191 58.2588 123.846 58.497 124.381 58.9165C124.777 59.2417 124.9 59.5332 124.825 59.6004Z" fill="#263238"/>
  <path d="M125.201 55.2138C124.931 55.5015 123.93 55.154 122.719 55.0942C121.508 55.0344 120.477 55.2138 120.241 54.8924C120.144 54.7391 120.316 54.4476 120.775 54.1823C121.404 53.865 122.106 53.7216 122.808 53.767C123.511 53.8123 124.188 54.0447 124.771 54.4401C125.189 54.7578 125.316 55.068 125.201 55.2138Z" fill="#263238"/>
  <path d="M132.785 67.043C132.785 66.3329 133.604 64.6661 134.303 64.5577C136.171 64.2662 139.535 64.4157 139.561 69.1472C139.606 75.6203 133.099 74.3347 133.084 74.1478C133.069 73.961 132.781 69.4836 132.785 67.043Z" fill="#FFBF9D"/>
  <path d="M134.854 71.7703C134.88 71.7479 134.966 71.8488 135.156 71.9348C135.428 72.0422 135.73 72.0422 136.001 71.9348C136.681 71.6769 137.249 70.5893 137.272 69.4232C137.287 68.8674 137.176 68.3154 136.947 67.8087C136.884 67.6068 136.774 67.4231 136.625 67.2734C136.476 67.1236 136.292 67.0123 136.091 66.9491C135.961 66.9158 135.824 66.9289 135.703 66.9863C135.582 67.0437 135.485 67.1416 135.429 67.263C135.343 67.4462 135.384 67.5732 135.351 67.5845C135.317 67.5957 135.212 67.4798 135.261 67.2107C135.295 67.0502 135.384 66.9063 135.511 66.8033C135.689 66.6675 135.914 66.6071 136.136 66.6352C136.402 66.6852 136.651 66.8029 136.858 66.977C137.066 67.1512 137.225 67.3758 137.32 67.6293C137.601 68.1874 137.74 68.8062 137.724 69.4307C137.694 70.7351 137.033 71.9609 136.098 72.2375C135.925 72.2899 135.742 72.3023 135.564 72.2738C135.385 72.2454 135.215 72.1767 135.067 72.0731C134.865 71.9273 134.831 71.7815 134.854 71.7703Z" fill="#FF9A6C"/>
  <path d="M103.281 55.5483C104.589 54.7298 105.427 53.616 105.344 52.0762C106.211 52.3341 107.093 51.2204 107.587 50.4692C108.08 49.7179 108.708 49.3479 108.674 48.436C108.65 48.2578 108.672 48.0763 108.738 47.909C108.869 47.6624 109.179 47.5802 109.444 47.4979C110.135 47.2749 110.758 46.8823 111.258 46.3561C111.757 45.8298 112.117 45.1867 112.303 44.4856C113.696 45.0972 115.219 45.354 116.736 45.2331C117.073 45.7211 117.529 46.1156 118.061 46.3797C118.592 46.6437 119.182 46.7687 119.775 46.743C120.367 46.7172 120.944 46.5415 121.451 46.2324C121.957 45.9232 122.377 45.4907 122.671 44.9752C122.889 45.3699 123.19 45.7128 123.554 45.9804C123.917 46.2481 124.333 46.4343 124.775 46.5262C125.658 46.7039 126.562 46.753 127.458 46.672C127.291 47.5496 127.447 48.4581 127.896 49.2304C128.345 50.0028 129.057 50.5873 129.903 50.8765C130.131 50.9475 130.396 51.0186 130.504 51.2503C130.536 51.3712 130.543 51.4972 130.526 51.621C130.509 51.7448 130.467 51.864 130.403 51.9716C130.28 52.3439 130.234 52.7371 130.266 53.1279C130.298 53.5187 130.409 53.899 130.591 54.246C130.773 54.5931 131.024 54.8999 131.328 55.148C131.631 55.3962 131.982 55.5806 132.358 55.6903C132.112 55.9092 131.919 56.1809 131.794 56.485C131.668 56.789 131.612 57.1176 131.631 57.4462C131.65 57.7747 131.743 58.0947 131.904 58.3822C132.064 58.6696 132.287 58.9172 132.556 59.1063C132.792 59.2483 133.098 59.4165 133.061 59.6893C133.039 59.7927 132.99 59.8883 132.919 59.9659C132.437 60.6049 131.958 61.3076 131.898 62.1036C131.839 62.8997 132.381 63.8004 133.18 63.8378C132.955 64.0062 132.766 64.2185 132.624 64.4619C132.483 64.7054 132.392 64.9749 132.358 65.2543C132.358 65.8186 132.919 66.3755 133.442 66.1886C133.666 66.1026 136.888 65.4673 137.03 65.2767C138.861 62.7913 136.559 60.0443 136.38 56.961C136.135 53.8686 135.177 50.8751 133.58 48.2155C132.957 47.0781 132.185 46.0286 131.285 45.0948C130.202 44.0917 129.008 43.2141 127.727 42.4786C126.091 41.4583 124.409 40.4455 122.533 40.0007C119.042 39.1785 115.431 40.4455 112.154 41.9517C110.894 42.4802 109.711 43.1767 108.637 44.0222C107.426 45.1246 106.423 46.4346 105.673 47.8904C104.518 49.9497 103.558 52.1697 103.33 54.5167" fill="#263238"/>
  <path d="M102.016 53.2808C102.093 53.0319 102.211 52.7972 102.363 52.5856C102.501 52.3689 102.696 52.1185 102.879 51.797C103.088 51.4259 103.216 51.0143 103.253 50.5899C103.288 50.0569 103.279 49.5218 103.227 48.9903C103.155 48.3493 103.173 47.7016 103.279 47.0655C103.421 46.3355 103.711 45.6423 104.131 45.0286C104.361 44.6934 104.63 44.3861 104.931 44.113C105.251 43.8382 105.592 43.5884 105.951 43.3655C106.324 43.139 106.658 42.8524 106.938 42.5171C107.194 42.1401 107.401 41.7319 107.554 41.3025C108.344 39.3859 109.793 37.815 111.639 36.8737C112.137 36.6242 112.659 36.4287 113.198 36.2906C113.755 36.1592 114.326 36.0952 114.898 36.1C115.191 36.1088 115.483 36.1325 115.773 36.171C116.061 36.2159 116.345 36.2794 116.633 36.3317C117.203 36.4514 117.792 36.4514 118.363 36.3317C118.942 36.2159 119.51 36.0103 120.108 35.8608C121.327 35.5426 122.59 35.4289 123.846 35.5245C124.489 35.5866 125.125 35.7117 125.744 35.8982C127.019 36.2529 128.153 36.9946 128.988 38.021C129.067 38.1294 129.145 38.2378 129.228 38.3425L129.123 38.3013C131.008 37.9421 132.96 38.3193 134.575 39.3552C136.191 40.3911 137.348 42.0069 137.809 43.87L137.76 43.8065C138.54 44.1578 139.296 44.5585 140.025 45.0062C140.738 45.4423 141.366 46.0061 141.875 46.6694C142.356 47.325 142.647 48.1011 142.716 48.9118C142.795 49.6935 142.571 50.4758 142.092 51.0982V50.9898C142.963 51.89 143.492 53.0668 143.587 54.316C143.693 55.4317 143.455 56.5532 142.906 57.5302C142.78 57.7542 142.636 57.9679 142.477 58.1693C142.317 58.3541 142.167 58.5475 142.028 58.7486C141.9 58.9382 141.82 59.1564 141.796 59.3839C141.784 59.6071 141.79 59.8308 141.815 60.0529C141.886 60.8728 141.861 61.6981 141.74 62.5121C141.65 63.1705 141.433 63.8051 141.101 64.3808C140.851 64.8033 140.505 65.1616 140.092 65.4273C139.759 65.6478 139.46 65.7338 139.296 65.8534C139.211 65.9101 139.132 65.9752 139.061 66.0477C139.119 65.9605 139.196 65.8866 139.285 65.8309C139.446 65.7039 139.745 65.6104 140.066 65.3862C140.466 65.1184 140.799 64.7615 141.038 64.3434C141.359 63.7732 141.567 63.1463 141.651 62.4972C141.76 61.6907 141.777 60.8745 141.703 60.0641C141.675 59.8348 141.667 59.6034 141.681 59.3727C141.705 59.1255 141.789 58.888 141.927 58.6813C142.066 58.4765 142.216 58.2794 142.376 58.0908C142.525 57.8891 142.66 57.6767 142.779 57.4554C143.309 56.499 143.533 55.4036 143.422 54.316C143.33 53.1057 142.817 51.9657 141.972 51.0944L141.92 51.0421L141.965 50.986C142.418 50.3951 142.625 49.652 142.544 48.9118C142.475 48.1358 142.195 47.3937 141.733 46.7665C141.234 46.1243 140.622 45.5785 139.928 45.1557C139.206 44.7145 138.457 44.3188 137.685 43.971L137.644 43.9523V43.9037C137.19 42.0926 136.061 40.5235 134.488 39.517C132.915 38.5104 131.018 38.1424 129.183 38.4882H129.119L129.078 38.4359C129.003 38.3312 128.925 38.2303 128.846 38.1257C128.038 37.1178 126.935 36.3875 125.692 36.0365C125.082 35.8607 124.456 35.7455 123.823 35.6927C122.592 35.5967 121.352 35.7066 120.157 36.0178C119.57 36.1636 118.995 36.3729 118.397 36.4887C118.099 36.5485 117.796 36.5786 117.492 36.5784C117.192 36.5707 116.893 36.5382 116.599 36.4812C116.311 36.4289 116.027 36.3654 115.743 36.3205C115.462 36.282 115.178 36.2583 114.895 36.2495C114.337 36.2424 113.781 36.3039 113.239 36.4327C112.712 36.5657 112.201 36.7549 111.714 36.997C109.896 37.9205 108.467 39.4633 107.685 41.3473C107.526 41.7888 107.311 42.2082 107.046 42.5956C106.754 42.9406 106.408 43.2359 106.022 43.4702C105.665 43.6915 105.326 43.9415 105.009 44.2176C104.715 44.483 104.453 44.7815 104.228 45.1071C103.811 45.7041 103.522 46.3811 103.38 47.0954C103.27 47.7209 103.246 48.3584 103.309 48.9903C103.357 49.5274 103.357 50.0677 103.309 50.6048C103.272 51.0363 103.144 51.4552 102.935 51.8344C102.741 52.1596 102.543 52.4025 102.401 52.6155C102.29 52.7721 102.191 52.937 102.105 53.1089C102.042 53.2173 102.019 53.2808 102.016 53.2808Z" fill="#455A64"/>
  <path d="M126.106 36.9709C126.106 36.9709 125.934 36.8737 125.62 36.7168C125.177 36.4991 124.701 36.3588 124.211 36.3019C123.486 36.2113 122.75 36.3171 122.081 36.6084C121.26 36.969 120.575 37.5816 120.126 38.3575C119.99 38.5936 119.881 38.8444 119.801 39.105C119.759 39.2151 119.742 39.333 119.751 39.4504C119.759 39.5678 119.793 39.682 119.849 39.7852L120.006 40.0057L119.745 39.9309C119.072 39.7471 118.354 39.8315 117.742 40.1664C117.258 40.4384 116.873 40.8572 116.643 41.3623C116.488 41.697 116.402 42.0591 116.389 42.4275C116.389 42.6854 116.389 42.8274 116.389 42.8311C116.389 42.8349 116.389 42.7975 116.359 42.7302C116.338 42.6306 116.327 42.5292 116.325 42.4275C116.313 41.943 116.431 41.4641 116.667 41.0408C116.903 40.6174 117.248 40.2651 117.667 40.0206C118.315 39.653 119.081 39.555 119.801 39.7478L119.696 39.8935C119.621 39.7681 119.575 39.6273 119.562 39.4817C119.549 39.336 119.57 39.1893 119.621 39.0526C119.704 38.781 119.818 38.52 119.962 38.2753C120.426 37.4653 121.141 36.8279 121.998 36.4589C122.701 36.1496 123.477 36.0435 124.237 36.1524C124.739 36.2208 125.224 36.3845 125.665 36.6345C125.785 36.7011 125.899 36.776 126.009 36.8588C126.072 36.9335 126.106 36.9634 126.106 36.9709Z" fill="#455A64"/>
  <path d="M136.593 44.4258C136.593 44.4258 136.526 44.5192 136.369 44.6538C136.139 44.8498 135.888 45.0202 135.622 45.1621C135.224 45.3797 134.784 45.5073 134.332 45.5358C133.754 45.579 133.181 45.4043 132.725 45.0462L132.867 45.0238C132.807 45.1097 132.744 45.1994 132.677 45.2891C132.609 45.3788 132.531 45.4573 132.456 45.5433C132.007 46.0055 131.451 46.3496 130.838 46.5449C130.341 46.7094 129.816 46.7742 129.294 46.7355C128.944 46.7084 128.6 46.629 128.274 46.5C128.154 46.4566 128.04 46.3962 127.938 46.3206C128.379 46.4691 128.837 46.562 129.302 46.5972C129.809 46.6174 130.316 46.5426 130.797 46.3767C131.376 46.1787 131.901 45.8471 132.329 45.4087C132.4 45.3265 132.475 45.2517 132.538 45.1695L132.721 44.9191L132.785 44.8294L132.863 44.8967C133.282 45.2276 133.807 45.3938 134.34 45.3639C134.772 45.3429 135.195 45.2309 135.58 45.035C136.238 44.7136 136.575 44.3959 136.593 44.4258Z" fill="#455A64"/>
  <path d="M140.003 50.4385C140.003 50.4385 140.003 50.4796 140.003 50.5581C139.972 50.6688 139.922 50.7736 139.857 50.8683C139.608 51.2223 139.234 51.4693 138.811 51.5597C138.188 51.6711 137.547 51.5997 136.964 51.3542C136.617 51.2392 136.276 51.1044 135.944 50.9505C135.56 50.7918 135.244 50.5035 135.051 50.1358C135.051 50.0984 135.025 50.061 135.01 50.0311L135.163 50.076C134.585 50.5538 133.937 50.9407 133.242 51.2234C132.664 51.4526 132.034 51.5173 131.422 51.4102C131.01 51.3394 130.624 51.163 130.301 50.8982C130.213 50.8264 130.134 50.7449 130.065 50.6553C130.02 50.5955 129.998 50.5618 130.005 50.5581C130.013 50.5544 130.117 50.6702 130.345 50.8384C130.67 51.0696 131.046 51.2184 131.44 51.2719C132.027 51.3573 132.626 51.2837 133.175 51.0589C133.848 50.7775 134.478 50.3998 135.043 49.9377L135.148 49.8555L135.197 49.9825L135.23 50.0722C135.404 50.3974 135.686 50.6523 136.026 50.7936C136.359 50.9543 136.703 51.0813 137.024 51.2009C137.576 51.4432 138.184 51.526 138.781 51.4401C139.178 51.3667 139.537 51.1548 139.794 50.8421C139.874 50.7134 139.944 50.5784 140.003 50.4385Z" fill="#455A64"/>
  <path d="M146.986 27.3368C146.986 27.3368 146.874 27.3368 146.679 27.3929C146.397 27.4713 146.144 27.6328 145.954 27.8563C145.656 28.2018 145.484 28.6377 145.465 29.0934C145.456 29.6901 145.537 30.2847 145.704 30.8574L145.73 30.9621H145.622C144.82 30.9399 144.033 31.1786 143.379 31.6423C143.012 31.8981 142.71 32.236 142.496 32.6292C142.283 33.0224 142.164 33.46 142.15 33.9071C142.129 34.3146 142.203 34.7212 142.366 35.0953C142.529 35.4694 142.776 35.8008 143.088 36.0636L143.304 36.2355H143.028C142.566 36.2357 142.11 36.3314 141.687 36.5166C141.265 36.7019 140.885 36.9727 140.572 37.3119C140.074 37.8573 139.779 38.5585 139.739 39.2965C139.709 39.7823 139.783 40.269 139.956 40.7241C140.075 41.0456 140.176 41.2025 140.165 41.2137C140.132 41.1807 140.104 41.1429 140.083 41.1016C140.011 40.99 139.948 40.8725 139.896 40.7503C139.696 40.2899 139.601 39.7906 139.619 39.289C139.643 38.5163 139.938 37.7768 140.453 37.1998C140.778 36.839 141.175 36.5502 141.619 36.3519C142.062 36.1537 142.542 36.0504 143.028 36.0487L142.972 36.2169C142.635 35.9364 142.367 35.5814 142.191 35.1799C142.014 34.7784 141.934 34.3414 141.955 33.9034C141.96 33.4147 142.089 32.9351 142.329 32.5094C142.564 32.1086 142.881 31.7621 143.26 31.4928C143.947 31.0104 144.775 30.7674 145.614 30.8014L145.532 30.9023C145.368 30.3127 145.297 29.7011 145.323 29.0897C145.352 28.6087 145.547 28.1528 145.876 27.8003C146.082 27.5716 146.355 27.4146 146.657 27.3518C146.734 27.3361 146.813 27.3298 146.892 27.3331C146.96 27.3294 146.986 27.3331 146.986 27.3368Z" fill="#455A64"/>
  <path d="M158.504 41.3853C158.504 41.3853 158.47 41.4115 158.399 41.4488C158.328 41.4862 158.22 41.5423 158.074 41.5983C157.655 41.7573 157.216 41.8554 156.77 41.8898C156.082 41.9438 155.391 41.86 154.736 41.6432C153.894 41.37 153.141 40.8741 152.557 40.208H152.703C152.396 40.7357 151.975 41.1883 151.47 41.5329C150.966 41.8775 150.391 42.1054 149.788 42.2C149.139 42.2881 148.478 42.1694 147.9 41.8608C147.321 41.5523 146.855 41.0694 146.566 40.4808H146.735C146.575 40.9083 146.306 41.286 145.954 41.5759C145.638 41.8379 145.279 42.0417 144.892 42.1776C144.256 42.3837 143.583 42.4525 142.919 42.3794C142.491 42.3402 142.066 42.2703 141.648 42.1701C141.498 42.1428 141.35 42.1028 141.207 42.0505C141.359 42.0596 141.51 42.0808 141.659 42.1141C142.078 42.1892 142.501 42.2416 142.926 42.2711C143.573 42.3228 144.224 42.2427 144.84 42.0356C145.227 41.9085 145.582 41.6981 145.88 41.4191C146.178 41.1402 146.411 40.7996 146.563 40.421L146.641 40.2043L146.731 40.4136C147.007 40.9624 147.447 41.4114 147.991 41.6982C148.534 41.9849 149.153 42.095 149.762 42.0132C150.337 41.9217 150.885 41.7049 151.367 41.3781C151.848 41.0513 152.252 40.6225 152.55 40.1221L152.614 40.0137L152.696 40.1108C153.256 40.757 153.979 41.2421 154.789 41.5161C155.422 41.7388 156.092 41.834 156.762 41.7964C157.36 41.7483 157.947 41.6097 158.504 41.3853Z" fill="#455A64"/>
  <path d="M151.697 50.8416C151.697 50.8416 151.697 50.894 151.622 50.9612C151.517 51.0523 151.386 51.1085 151.248 51.1219C150.759 51.1619 150.267 51.0797 149.817 50.8828C149.138 50.6056 148.563 50.1235 148.172 49.5037C147.697 48.7351 147.529 47.8156 147.701 46.9286V46.9099L147.84 47.0146C147.035 47.4057 146.126 47.53 145.246 47.3696C144.534 47.2392 143.862 46.9478 143.28 46.5175C142.892 46.2298 142.544 45.8917 142.245 45.5121C142.13 45.3767 142.034 45.2273 141.957 45.0674C142.366 45.5704 142.837 46.0199 143.359 46.4054C143.931 46.8061 144.586 47.0742 145.276 47.1902C146.117 47.3338 146.981 47.2124 147.75 46.8426L147.926 46.7529L147.892 46.9473V46.966C147.739 47.7285 147.852 48.5203 148.212 49.2097C148.571 49.8992 149.156 50.4448 149.869 50.7557C150.297 50.9563 150.765 51.0561 151.237 51.0472C151.323 51.045 151.408 51.0257 151.487 50.9904C151.566 50.9552 151.637 50.9046 151.697 50.8416Z" fill="#455A64"/>
  <path d="M132.831 27.5596C132.612 28.1987 132.511 28.8726 132.536 29.5479C132.595 30.618 133.04 31.6303 133.789 32.3977C134.537 33.1651 135.537 33.6357 136.606 33.7225H136.725L136.688 33.8384C136.309 35.063 136.353 36.3797 136.815 37.5758C136.886 37.7757 136.974 37.9694 137.077 38.1551C137.11 38.2228 137.158 38.2819 137.217 38.3279C137.277 38.374 137.347 38.4056 137.42 38.4204C137.467 38.4263 137.513 38.4223 137.558 38.4088C137.602 38.3953 137.643 38.3725 137.678 38.3419C137.723 38.2933 137.734 38.256 137.742 38.2597C137.749 38.2634 137.742 38.3008 137.704 38.3644C137.669 38.4061 137.624 38.4387 137.573 38.4595C137.522 38.4803 137.468 38.4887 137.413 38.4839C137.327 38.475 137.244 38.4452 137.171 38.397C137.099 38.3488 137.04 38.2837 136.998 38.2074C136.882 38.0219 136.782 37.8269 136.699 37.6243C136.191 36.4061 136.123 35.0487 136.508 33.7861L136.591 33.9094C136.055 33.8705 135.532 33.7363 135.043 33.5132C134.271 33.1733 133.612 32.6199 133.143 31.9181C132.674 31.2163 132.416 30.3953 132.397 29.5516C132.379 29.0449 132.45 28.5389 132.607 28.0566C132.649 27.9288 132.701 27.8039 132.76 27.6829C132.777 27.6386 132.801 27.597 132.831 27.5596Z" fill="#455A64"/>
  <path d="M137.268 64.8013V63.7698L126.901 60.4472C123.205 58.8663 117.931 59.782 114.837 61.6918L112.149 61.7628L112.176 61.7217C109.1 59.2961 103.916 58.8065 99.8945 60.5594L99.9917 60.9892C99.9917 61.0153 100.018 61.0789 100.037 61.1686L100.126 61.5423C100.668 63.9267 101.307 66.4495 101.946 67.1259C102.376 67.5819 103.815 67.8323 105.004 67.9594C105.452 68.0117 105.863 68.0416 106.158 68.064C106.513 68.0865 109.664 68.2845 110.202 67.7987C110.74 67.3128 111.787 63.4259 112.071 62.2561L114.825 62.1963C115.154 63.1195 115.715 67.2605 117.038 68.0939C118.361 68.9274 124.161 68.677 124.819 67.7202C125.286 67.0363 126.905 62.9737 127.271 61.6918L127.327 61.5797L137.268 64.8013ZM109.892 67.4175C109.305 67.8809 103.03 67.5557 102.286 66.7709C101.659 66.1056 100.885 62.7046 100.593 61.4264V61.3741C104.181 60.01 108.853 60.4435 111.529 62.4953C110.998 64.5135 110.228 67.1035 109.892 67.4063V67.4175ZM124.434 67.4175C124.023 68.0229 118.664 68.5163 117.3 67.6567C116.35 67.0624 115.849 64.1697 115.431 62.5103C118.454 60.7014 123.623 59.939 126.905 61.5685C126.259 63.586 125.432 65.5411 124.434 67.41V67.4175Z" fill="#263238"/>
  <g opacity="0.3">
    <path d="M115.961 62.8433C115.961 62.8433 116.525 66.8983 117.691 67.0852C118.857 67.2721 120.248 61.1465 120.248 61.1465C120.248 61.1465 116.701 61.8491 115.961 62.8433Z" fill="white"/>
  </g>
  <g opacity="0.3">
    <path d="M101.035 61.5433C101.035 61.5433 101.599 66.1477 102.766 66.3346C103.932 66.5215 106.275 60.9117 106.275 60.9117C106.275 60.9117 101.775 60.5491 101.035 61.5433Z" fill="white"/>
  </g>
  <path d="M136.993 136.558C135.76 135.261 131.839 131.998 130.681 131.538C129.522 131.079 125.916 139.551 125.684 141.771C125.452 143.991 126.708 146.906 128.27 148.854C130.513 151.634 135.891 155.047 137.931 155.996C139.972 156.945 145.78 160.268 149.293 152.797C152.806 145.326 152.358 145.385 153.348 142.306C154.877 137.537 156.144 128.134 156.914 122.412C157.569 117.183 157.783 111.908 157.553 106.644C157.306 102.013 156.005 97.8458 152.892 94.9792C150.276 92.5686 141.545 113.692 141.545 113.879C141.545 114.066 137.524 136.513 137.524 136.513" fill="#455A64"/>
  <path d="M108.121 109.303C108.121 109.303 107.284 107.867 110.315 107.434C113.346 107 115.525 107.49 116.205 107.781C116.885 108.073 120.69 111.657 120.989 112.352C121.811 114.221 123.186 119.883 123.186 119.883L125.055 122.525L120.663 130.408C120.259 129.935 119.821 129.493 119.352 129.085C118.694 128.531 116.717 127.874 116.317 126.218C115.917 124.879 115.377 123.586 114.706 122.361C114.706 122.361 107.336 120.765 106.682 120.433C106.028 120.1 106.076 119.109 106.076 119.109C105.304 119.025 104.537 118.891 103.782 118.71C103.378 118.545 102.44 117.215 104.006 116.516C105.572 115.817 110.771 115.417 111.481 115.417C112.191 115.417 115.569 115.858 115.569 115.858C115.569 115.858 111.129 114.856 109.769 114.737C108.409 114.617 105.333 114.696 104.839 114.584C104.223 114.441 103.815 112.991 104.97 112.464C106.368 111.825 108.599 111.627 109.107 111.609C111.077 111.538 115.801 112.263 115.801 112.263L114.097 110.368C112.71 110.116 111.308 109.962 109.9 109.908C109.259 109.893 108.638 109.682 108.121 109.303Z" fill="#FFBF9D"/>
  <path d="M118.633 128.163L130.985 146.648C130.985 146.648 136.217 140.261 136.591 135.612L136.823 133.328L122.994 119.874L118.633 128.163Z" fill="#FFBF9D"/>
  <path d="M115.11 119.143C114.66 119.119 114.212 119.07 113.768 118.998C112.946 118.901 111.802 118.8 110.535 118.777C109.268 118.755 108.121 118.826 107.295 118.897C106.848 118.957 106.399 118.993 105.949 119.005C106.062 118.961 106.18 118.93 106.301 118.915C106.532 118.867 106.865 118.815 107.28 118.762C108.36 118.626 109.45 118.566 110.539 118.583C111.626 118.601 112.711 118.694 113.787 118.859C114.201 118.927 114.534 118.99 114.758 119.043C114.879 119.061 114.997 119.095 115.11 119.143Z" fill="#FF9A6C"/>
  <path d="M144.721 135.049C144.56 134.965 144.408 134.866 144.265 134.753L143.069 133.894C142.064 133.146 140.681 132.134 139.164 130.994C138.468 130.438 137.716 129.956 136.921 129.555C136.572 129.397 136.21 129.272 135.838 129.181C135.514 129.093 135.182 129.038 134.847 129.017C134.365 128.976 133.882 129.088 133.468 129.338C133.18 129.521 133.053 129.671 133.038 129.659C133.023 129.648 133.064 129.615 133.124 129.543C133.215 129.443 133.316 129.353 133.427 129.274C133.845 128.987 134.348 128.847 134.855 128.878C135.199 128.893 135.54 128.942 135.875 129.024C136.26 129.111 136.636 129.237 136.996 129.398C137.803 129.796 138.564 130.281 139.265 130.844C140.786 131.988 142.154 133.027 143.137 133.789L144.299 134.701C144.451 134.803 144.592 134.919 144.721 135.049Z" fill="#263238"/>
  <path d="M150.682 135.088C150.656 135.114 150.223 134.61 149.423 133.918C148.949 133.513 148.449 133.139 147.928 132.797C146.665 131.96 145.278 131.329 143.817 130.928C143.219 130.765 142.611 130.64 141.997 130.555C140.943 130.405 140.281 130.409 140.281 130.371C140.435 130.345 140.592 130.336 140.748 130.345C140.93 130.335 141.112 130.335 141.294 130.345C141.503 130.345 141.746 130.364 142.012 130.401C142.642 130.471 143.267 130.586 143.88 130.745C144.623 130.946 145.349 131.205 146.052 131.519C146.75 131.841 147.422 132.216 148.062 132.64C148.582 132.994 149.075 133.385 149.539 133.81C149.741 133.985 149.912 134.165 150.055 134.314C150.186 134.442 150.311 134.577 150.428 134.718C150.527 134.831 150.612 134.956 150.682 135.088Z" fill="#263238"/>
  <path d="M148.59 95.1104C148.458 95.2679 148.315 95.4153 148.16 95.5514C148.015 95.6859 147.843 95.8541 147.652 96.0634C147.462 96.2727 147.23 96.4894 147.006 96.766C146.781 97.0426 146.52 97.3229 146.258 97.6555C145.996 97.9881 145.746 98.3469 145.477 98.7281C144.346 100.414 143.488 102.268 142.936 104.222C142.82 104.674 142.7 105.1 142.625 105.511C142.551 105.923 142.472 106.3 142.42 106.633C142.367 106.965 142.334 107.302 142.304 107.582C142.274 107.862 142.252 108.102 142.24 108.3C142.238 108.506 142.219 108.712 142.184 108.916C142.161 108.71 142.154 108.503 142.166 108.296C142.166 108.098 142.166 107.855 142.196 107.571C142.225 107.287 142.229 106.969 142.282 106.614C142.334 106.259 142.379 105.867 142.465 105.463C142.551 105.059 142.652 104.618 142.764 104.159C143.302 102.179 144.17 100.304 145.331 98.6123C145.604 98.2385 145.862 97.8648 146.131 97.5434C146.4 97.222 146.651 96.9193 146.878 96.6576C147.106 96.396 147.349 96.168 147.551 95.9699C147.721 95.7976 147.899 95.6342 148.086 95.4803C148.243 95.3431 148.412 95.2194 148.59 95.1104Z" fill="#263238"/>
  <path d="M136.993 136.558C135.76 135.261 131.839 131.998 130.681 131.538C129.522 131.079 125.916 139.551 125.684 141.771C125.452 143.991 126.708 146.906 128.27 148.854C130.513 151.634 135.891 155.047 137.931 155.996C139.972 156.945 145.78 160.268 149.293 152.797C152.806 145.326 152.358 145.385 153.348 142.306C154.877 137.537 156.144 128.134 156.914 122.412C157.569 117.183 157.783 111.908 157.553 106.644C157.306 102.013 156.005 97.8458 152.892 94.9792C150.276 92.5686 141.545 113.692 141.545 113.879C141.545 114.066 137.524 136.513 137.524 136.513" fill="#455A64"/>
  <path d="M108.121 109.303C108.121 109.303 107.284 107.867 110.315 107.434C113.346 107 115.525 107.49 116.205 107.781C116.885 108.073 120.69 111.657 120.989 112.352C121.811 114.221 123.186 119.883 123.186 119.883L125.055 122.525L120.663 130.408C120.259 129.935 119.821 129.493 119.352 129.085C118.694 128.531 116.717 127.874 116.317 126.218C115.917 124.879 115.377 123.586 114.706 122.361C114.706 122.361 107.336 120.765 106.682 120.433C106.028 120.1 106.076 119.109 106.076 119.109C105.304 119.025 104.537 118.891 103.782 118.71C103.378 118.545 102.44 117.215 104.006 116.516C105.572 115.817 110.771 115.417 111.481 115.417C112.191 115.417 115.569 115.858 115.569 115.858C115.569 115.858 111.129 114.856 109.769 114.737C108.409 114.617 105.333 114.696 104.839 114.584C104.223 114.441 103.815 112.991 104.97 112.464C106.368 111.825 108.599 111.627 109.107 111.609C111.077 111.538 115.801 112.263 115.801 112.263L114.097 110.368C112.71 110.116 111.308 109.962 109.9 109.908C109.259 109.893 108.638 109.682 108.121 109.303Z" fill="#FFBF9D"/>
  <path d="M118.633 128.163L130.985 146.648C130.985 146.648 136.217 140.261 136.591 135.612L136.823 133.328L122.994 119.874L118.633 128.163Z" fill="#FFBF9D"/>
  <path d="M115.11 119.143C114.66 119.119 114.212 119.07 113.768 118.998C112.946 118.901 111.802 118.8 110.535 118.777C109.268 118.755 108.121 118.826 107.295 118.897C106.848 118.957 106.399 118.993 105.949 119.005C106.062 118.961 106.18 118.93 106.301 118.915C106.532 118.867 106.865 118.815 107.28 118.762C108.36 118.626 109.45 118.566 110.539 118.583C111.626 118.601 112.711 118.694 113.787 118.859C114.201 118.927 114.534 118.99 114.758 119.043C114.879 119.061 114.997 119.095 115.11 119.143Z" fill="#FF9A6C"/>
  <path d="M144.721 135.049C144.56 134.965 144.408 134.866 144.265 134.753L143.069 133.894C142.064 133.146 140.681 132.134 139.164 130.994C138.468 130.438 137.716 129.956 136.921 129.555C136.572 129.397 136.21 129.272 135.838 129.181C135.514 129.093 135.182 129.038 134.847 129.017C134.365 128.976 133.882 129.088 133.468 129.338C133.18 129.521 133.053 129.671 133.038 129.659C133.023 129.648 133.064 129.615 133.124 129.543C133.215 129.443 133.316 129.353 133.427 129.274C133.845 128.987 134.348 128.847 134.855 128.878C135.199 128.893 135.54 128.942 135.875 129.024C136.26 129.111 136.636 129.237 136.996 129.398C137.803 129.796 138.564 130.281 139.265 130.844C140.786 131.988 142.154 133.027 143.137 133.789L144.299 134.701C144.451 134.803 144.592 134.919 144.721 135.049Z" fill="#263238"/>
  <path d="M141.542 113.892C141.545 113.992 141.539 114.092 141.523 114.191C141.501 114.407 141.467 114.691 141.43 115.05C141.336 115.816 141.206 116.893 141.056 118.208L139.722 128.617C139.614 129.435 139.509 130.235 139.408 131.001L139.315 130.893C142.865 130.893 145.956 131.782 147.911 132.87C148.687 133.281 149.405 133.793 150.045 134.395C150.218 134.556 150.381 134.727 150.534 134.907C150.592 134.965 150.643 135.029 150.687 135.098C150.687 135.098 150.452 134.855 149.996 134.447C149.344 133.872 148.624 133.38 147.851 132.982C145.9 131.936 142.835 131.087 139.315 131.084H139.188V130.975C139.288 130.209 139.393 129.409 139.498 128.591C140.04 124.539 140.529 120.869 140.888 118.193C141.075 116.878 141.224 115.805 141.333 115.043C141.385 114.669 141.43 114.4 141.464 114.187C141.48 114.086 141.506 113.987 141.542 113.892Z" fill="#263238"/>
  <path d="M148.59 95.1104C148.458 95.2679 148.315 95.4153 148.16 95.5514C148.015 95.6859 147.843 95.8541 147.652 96.0634C147.462 96.2727 147.23 96.4894 147.006 96.766C146.781 97.0426 146.52 97.3229 146.258 97.6555C145.996 97.9881 145.746 98.3469 145.477 98.7281C144.346 100.414 143.488 102.268 142.936 104.222C142.82 104.674 142.7 105.1 142.625 105.511C142.551 105.923 142.472 106.3 142.42 106.633C142.367 106.965 142.334 107.302 142.304 107.582C142.274 107.862 142.252 108.102 142.24 108.3C142.238 108.506 142.219 108.712 142.184 108.916C142.161 108.71 142.154 108.503 142.166 108.296C142.166 108.098 142.166 107.855 142.196 107.571C142.225 107.287 142.229 106.969 142.282 106.614C142.334 106.259 142.379 105.867 142.465 105.463C142.551 105.059 142.652 104.618 142.764 104.159C143.302 102.179 144.17 100.304 145.331 98.6123C145.604 98.2385 145.862 97.8648 146.131 97.5434C146.4 97.222 146.651 96.9193 146.878 96.6576C147.106 96.396 147.349 96.168 147.551 95.9699C147.721 95.7976 147.899 95.6342 148.086 95.4803C148.243 95.3431 148.412 95.2194 148.59 95.1104Z" fill="#263238"/>
  <path d="M83.6626 123.343C83.6626 123.343 80.4971 115.517 81.11 112.878C81.1484 112.721 81.2385 112.581 81.3659 112.481C81.4933 112.38 81.6505 112.326 81.8126 112.325C81.9431 112.324 82.0715 112.357 82.1841 112.423C82.2967 112.489 82.3892 112.584 82.4517 112.699L86.5629 120.626C86.5629 120.626 87.1085 119.176 88.2933 118.668C89.5492 118.203 90.8278 117.803 92.1241 117.468L95.839 117.931C95.9831 117.949 96.1194 118.006 96.2328 118.096C96.3462 118.187 96.4321 118.307 96.481 118.444C96.5299 118.58 96.5398 118.728 96.5096 118.87C96.4794 119.011 96.4102 119.142 96.31 119.247C95.701 119.817 94.9018 120.141 94.0675 120.155C91.3729 120.379 90.6702 121 90.6702 121L89.3248 123.317C89.3248 123.317 92.1652 121.373 93.0622 121.299C93.7611 121.243 97.6293 121.16 99.3073 121.127C99.6175 121.117 99.9227 121.206 100.179 121.382C100.435 121.557 100.628 121.81 100.731 122.102C100.907 122.637 100.784 123.223 99.5876 123.541C99.5876 123.541 100.899 124.221 99.1167 125.111C98.0299 125.641 96.9057 126.091 95.7531 126.456L93.2117 128.172L88.9548 131.162L83.9504 127.727C83.9504 127.727 82.1677 125.836 83.2777 124.255C83.4423 123.968 83.5715 123.661 83.6626 123.343Z" fill="#FFBF9D"/>
  <path d="M96.0661 125.92C96.0661 125.92 98.4506 127.953 98.9738 129.224C99.497 130.494 99.9455 131.784 99.127 134.848C98.3086 137.913 91.4542 134.848 91.4542 134.848C91.2636 133.593 89.7313 132.083 88.0195 130.535L94.4179 125.808L96.0661 125.92Z" fill="#FFBF9D"/>
  <path d="M87.2381 119.542C87.1326 119.761 87.0075 119.969 86.8644 120.166C86.614 120.54 86.2851 121.074 85.9263 121.661C85.2125 122.849 84.607 123.799 84.5547 123.765C84.6342 123.531 84.7421 123.307 84.8761 123.1C85.0929 122.7 85.3993 122.154 85.7581 121.56C86.4495 120.368 87.1858 119.497 87.2381 119.542Z" fill="#FF9A6C"/>
  <path d="M99.6774 123.49C99.5562 123.527 99.4304 123.547 99.3037 123.55L98.2647 123.636C97.3864 123.703 96.168 123.77 94.8338 123.849C93.4584 123.849 92.5316 124.76 91.8439 125.287C91.4901 125.611 91.1155 125.91 90.7227 126.184C90.7977 126.08 90.8842 125.985 90.9805 125.9C91.1562 125.728 91.4141 125.478 91.728 125.183C92.111 124.83 92.5209 124.508 92.9539 124.219C93.215 124.045 93.4994 123.909 93.7985 123.815C94.1216 123.73 94.452 123.676 94.7852 123.654C96.1307 123.576 97.3416 123.527 98.2236 123.497C98.6609 123.497 99.0197 123.475 99.2663 123.475C99.4034 123.461 99.5417 123.466 99.6774 123.49Z" fill="#FF9A6C"/>
  <path d="M89.4738 123.361C89.5075 123.406 89.287 123.623 89.0627 123.929C88.8385 124.236 88.689 124.512 88.6441 124.494C88.5993 124.475 88.6441 124.146 88.9058 123.813C89.1674 123.481 89.429 123.316 89.4738 123.361Z" fill="#FF9A6C"/>
  <path d="M98.8891 125.308C98.6899 125.443 98.4721 125.549 98.2425 125.622C97.8351 125.786 97.2596 125.996 96.628 126.213C95.3647 126.654 94.3855 127.121 94.3594 127.072C95.0379 126.618 95.7796 126.267 96.5607 126.029C97.196 125.801 97.7791 125.622 98.1977 125.491C98.4196 125.402 98.6519 125.34 98.8891 125.308Z" fill="#FF9A6C"/>
</svg>
