<svg xmlns="http://www.w3.org/2000/svg" width="228" height="154" viewBox="0 0 228 154" fill="none">
  <path d="M117.184 120.796H130.016V66.5392H117.184V120.796Z" fill="#EBEBEB"/>
  <path d="M123.717 77.8555H127.617V70.3402H123.717V77.8555Z" fill="white"/>
  <path d="M125.574 77.8571C125.603 77.8571 125.624 76.1742 125.624 74.1012C125.624 72.0283 125.603 70.3418 125.574 70.3418C125.545 70.3418 125.52 72.0247 125.52 74.1012C125.52 76.1778 125.545 77.8571 125.574 77.8571Z" fill="#E0E0E0"/>
  <path d="M123.719 72.9529C125.018 73.0251 126.32 73.0251 127.619 72.9529C126.32 72.8855 125.018 72.8855 123.719 72.9529Z" fill="#E0E0E0"/>
  <path d="M123.719 75.6389C125.029 75.7111 126.342 75.7111 127.652 75.6389C126.341 75.5715 125.029 75.5715 123.719 75.6389Z" fill="#E0E0E0"/>
  <path d="M123.717 87.668H127.617V80.1527H123.717V87.668Z" fill="white"/>
  <path d="M125.574 87.6691C125.603 87.6691 125.624 85.9862 125.624 83.9132C125.624 81.8403 125.603 80.1538 125.574 80.1538C125.545 80.1538 125.52 81.8367 125.52 83.9132C125.52 85.9898 125.545 87.6691 125.574 87.6691Z" fill="#E0E0E0"/>
  <path d="M123.719 82.7654C125.018 82.8376 126.32 82.8376 127.619 82.7654C126.32 82.698 125.018 82.698 123.719 82.7654Z" fill="#E0E0E0"/>
  <path d="M123.719 85.4509C125.029 85.5232 126.342 85.5232 127.652 85.4509C126.341 85.3835 125.029 85.3835 123.719 85.4509Z" fill="#E0E0E0"/>
  <path d="M123.717 97.4866H127.617V89.9713H123.717V97.4866Z" fill="white"/>
  <path d="M125.574 97.4879C125.603 97.4879 125.624 95.805 125.624 93.7321C125.624 91.6592 125.603 89.9727 125.574 89.9727C125.545 89.9727 125.52 91.6555 125.52 93.7321C125.52 95.8086 125.545 97.4879 125.574 97.4879Z" fill="#E0E0E0"/>
  <path d="M123.719 92.5843C125.018 92.6517 126.32 92.6517 127.619 92.5843C126.32 92.5168 125.018 92.5168 123.719 92.5843Z" fill="#E0E0E0"/>
  <path d="M123.719 95.2761C125.029 95.3484 126.342 95.3484 127.652 95.2761C126.341 95.2087 125.029 95.2087 123.719 95.2761Z" fill="#E0E0E0"/>
  <path d="M123.717 107.305H127.617V99.7899H123.717V107.305Z" fill="white"/>
  <path d="M125.574 107.306C125.603 107.306 125.624 105.623 125.624 103.547C125.624 101.47 125.603 99.791 125.574 99.791C125.545 99.791 125.52 101.474 125.52 103.547C125.52 105.62 125.545 107.306 125.574 107.306Z" fill="#E0E0E0"/>
  <path d="M123.719 102.403C125.018 102.47 126.32 102.47 127.619 102.403C126.32 102.335 125.018 102.335 123.719 102.403Z" fill="#E0E0E0"/>
  <path d="M123.719 105.082C125.029 105.155 126.342 105.155 127.652 105.082C126.341 105.015 125.029 105.015 123.719 105.082Z" fill="#E0E0E0"/>
  <path d="M111.724 120.796H121.07V66.5392H111.724V120.796Z" fill="#E0E0E0"/>
  <path d="M114.272 77.8555H118.172V70.3402H114.272V77.8555Z" fill="white"/>
  <path d="M116.125 77.8571C116.154 77.8571 116.175 76.1742 116.175 74.1012C116.175 72.0283 116.154 70.3418 116.125 70.3418C116.096 70.3418 116.074 72.0247 116.074 74.1012C116.074 76.1778 116.096 77.8571 116.125 77.8571Z" fill="#E0E0E0"/>
  <path d="M114.277 72.9529C115.576 73.0251 116.879 73.0251 118.178 72.9529C116.878 72.8855 115.577 72.8855 114.277 72.9529Z" fill="#E0E0E0"/>
  <path d="M114.277 75.6389C115.586 75.7112 116.898 75.7112 118.207 75.6389C116.898 75.5715 115.586 75.5715 114.277 75.6389Z" fill="#E0E0E0"/>
  <path d="M114.272 87.749H118.172V80.2338H114.272V87.749Z" fill="white"/>
  <path d="M116.125 87.7533C116.154 87.7533 116.175 86.0704 116.175 83.9975C116.175 81.9246 116.154 80.2417 116.125 80.2417C116.096 80.2417 116.074 81.921 116.074 83.9975C116.074 86.0741 116.096 87.7533 116.125 87.7533Z" fill="#E0E0E0"/>
  <path d="M114.277 82.8465C115.576 82.9187 116.879 82.9187 118.178 82.8465C116.878 82.779 115.577 82.779 114.277 82.8465Z" fill="#E0E0E0"/>
  <path d="M114.277 85.5425C115.586 85.6099 116.898 85.6099 118.207 85.5425C116.898 85.4702 115.586 85.4702 114.277 85.5425Z" fill="#E0E0E0"/>
  <path d="M114.272 97.6489H118.172V90.1337H114.272V97.6489Z" fill="white"/>
  <path d="M116.125 97.6469C116.154 97.6469 116.175 95.9676 116.175 93.8911C116.175 91.8145 116.154 90.1353 116.125 90.1353C116.096 90.1353 116.074 91.8145 116.074 93.8911C116.074 95.9676 116.096 97.6469 116.125 97.6469Z" fill="#E0E0E0"/>
  <path d="M114.277 92.75C115.577 92.8174 116.878 92.8174 118.178 92.75C116.879 92.6777 115.576 92.6777 114.277 92.75Z" fill="#E0E0E0"/>
  <path d="M114.277 95.436C115.586 95.5034 116.898 95.5034 118.207 95.436C116.898 95.3638 115.586 95.3638 114.277 95.436Z" fill="#E0E0E0"/>
  <path d="M114.272 107.542H118.172V100.027H114.272V107.542Z" fill="white"/>
  <path d="M116.125 107.544C116.154 107.544 116.175 105.861 116.175 103.785C116.175 101.708 116.154 100.029 116.125 100.029C116.096 100.029 116.074 101.712 116.074 103.785C116.074 105.858 116.096 107.544 116.125 107.544Z" fill="#E0E0E0"/>
  <path d="M114.277 102.637C115.577 102.705 116.878 102.705 118.178 102.637C116.879 102.565 115.576 102.565 114.277 102.637Z" fill="#E0E0E0"/>
  <path d="M114.277 105.332C115.586 105.399 116.898 105.399 118.207 105.332C116.898 105.264 115.586 105.264 114.277 105.332Z" fill="#E0E0E0"/>
  <path d="M123.717 117.117H127.617V109.602H123.717V117.117Z" fill="white"/>
  <path d="M125.574 117.112C125.603 117.112 125.624 115.43 125.624 113.353C125.624 111.276 125.603 109.597 125.574 109.597C125.545 109.597 125.52 111.28 125.52 113.353C125.52 115.426 125.545 117.112 125.574 117.112Z" fill="#E0E0E0"/>
  <path d="M123.719 112.212C125.018 112.28 126.32 112.28 127.619 112.212C126.32 112.14 125.018 112.14 123.719 112.212Z" fill="#E0E0E0"/>
  <path d="M123.719 114.907C125.029 114.974 126.341 114.974 127.652 114.907C126.341 114.84 125.029 114.84 123.719 114.907Z" fill="#E0E0E0"/>
  <path d="M114.272 117.442H118.172V109.927H114.272V117.442Z" fill="white"/>
  <path d="M116.125 117.443C116.154 117.443 116.175 115.761 116.175 113.688C116.175 111.615 116.154 109.928 116.125 109.928C116.096 109.928 116.074 111.611 116.074 113.688C116.074 115.764 116.096 117.443 116.125 117.443Z" fill="#E0E0E0"/>
  <path d="M114.277 112.54C115.576 112.612 116.879 112.612 118.178 112.54C116.878 112.472 115.577 112.472 114.277 112.54Z" fill="#E0E0E0"/>
  <path d="M114.277 115.22C115.586 115.292 116.898 115.292 118.207 115.22C116.898 115.152 115.586 115.152 114.277 115.22Z" fill="#E0E0E0"/>
  <path d="M117.384 153.269H130.215V99.0118H117.384V153.269Z" fill="#EBEBEB"/>
  <path d="M123.916 110.334H127.816V102.819H123.916V110.334Z" fill="white"/>
  <path d="M125.769 110.336C125.798 110.336 125.823 108.653 125.823 106.576C125.823 104.5 125.798 102.82 125.769 102.82C125.74 102.82 125.719 104.503 125.719 106.576C125.719 108.649 125.74 110.336 125.769 110.336Z" fill="#E0E0E0"/>
  <path d="M123.918 105.423C125.217 105.49 126.519 105.49 127.818 105.423C126.519 105.351 125.217 105.351 123.918 105.423Z" fill="#E0E0E0"/>
  <path d="M123.918 108.112C125.228 108.184 126.541 108.184 127.851 108.112C126.541 108.044 125.228 108.044 123.918 108.112Z" fill="#E0E0E0"/>
  <path d="M123.916 120.141H127.816V112.625H123.916V120.141Z" fill="white"/>
  <path d="M125.769 120.154C125.798 120.154 125.823 118.472 125.823 116.395C125.823 114.318 125.798 112.639 125.769 112.639C125.74 112.639 125.719 114.322 125.719 116.395C125.719 118.468 125.74 120.154 125.769 120.154Z" fill="#E0E0E0"/>
  <path d="M123.918 115.242C125.217 115.309 126.519 115.309 127.818 115.242C126.519 115.169 125.217 115.169 123.918 115.242Z" fill="#E0E0E0"/>
  <path d="M123.918 117.93C125.228 117.997 126.541 117.997 127.851 117.93C126.541 117.863 125.228 117.863 123.918 117.93Z" fill="#E0E0E0"/>
  <path d="M123.916 129.959H127.816V122.444H123.916V129.959Z" fill="white"/>
  <path d="M125.769 129.961C125.798 129.961 125.823 128.278 125.823 126.201C125.823 124.125 125.798 122.445 125.769 122.445C125.74 122.445 125.719 124.128 125.719 126.201C125.719 128.274 125.74 129.961 125.769 129.961Z" fill="#E0E0E0"/>
  <path d="M123.918 125.054C125.217 125.122 126.519 125.122 127.818 125.054C126.519 124.982 125.217 124.982 123.918 125.054Z" fill="#E0E0E0"/>
  <path d="M123.918 127.74C125.23 127.807 126.546 127.807 127.858 127.74C126.548 127.667 125.235 127.667 123.925 127.74H123.918Z" fill="#E0E0E0"/>
  <path d="M123.916 139.771H127.816V132.256H123.916V139.771Z" fill="white"/>
  <path d="M125.769 139.773C125.798 139.773 125.823 138.09 125.823 136.014C125.823 133.937 125.798 132.258 125.769 132.258C125.74 132.258 125.719 133.941 125.719 136.014C125.719 138.087 125.74 139.773 125.769 139.773Z" fill="#E0E0E0"/>
  <path d="M123.918 134.873C125.217 134.94 126.519 134.94 127.818 134.873C126.519 134.8 125.217 134.8 123.918 134.873Z" fill="#E0E0E0"/>
  <path d="M123.918 137.559C125.228 137.626 126.541 137.626 127.851 137.559C126.541 137.486 125.228 137.486 123.918 137.559Z" fill="#E0E0E0"/>
  <path d="M111.92 153.269H121.27V99.0118H111.92V153.269Z" fill="#E0E0E0"/>
  <path d="M114.475 110.334H118.375V102.819H114.475V110.334Z" fill="white"/>
  <path d="M116.328 110.336C116.356 110.336 116.378 108.653 116.378 106.576C116.378 104.5 116.356 102.82 116.328 102.82C116.299 102.82 116.273 104.503 116.273 106.576C116.273 108.649 116.299 110.336 116.328 110.336Z" fill="#E0E0E0"/>
  <path d="M114.477 105.423C115.776 105.49 117.078 105.49 118.377 105.423C117.078 105.351 115.776 105.351 114.477 105.423Z" fill="#E0E0E0"/>
  <path d="M114.477 108.112C115.785 108.184 117.097 108.184 118.406 108.112C117.097 108.044 115.785 108.044 114.477 108.112Z" fill="#E0E0E0"/>
  <path d="M114.475 120.228H118.375V112.713H114.475V120.228Z" fill="white"/>
  <path d="M116.328 120.223C116.356 120.223 116.378 118.54 116.378 116.467C116.378 114.395 116.356 112.708 116.328 112.708C116.299 112.708 116.273 114.391 116.273 116.467C116.273 118.544 116.299 120.223 116.328 120.223Z" fill="#E0E0E0"/>
  <path d="M114.477 115.319C115.776 115.391 117.078 115.391 118.377 115.319C117.078 115.252 115.776 115.252 114.477 115.319Z" fill="#E0E0E0"/>
  <path d="M114.477 118.011C115.785 118.083 117.097 118.083 118.406 118.011C117.097 117.944 115.785 117.944 114.477 118.011Z" fill="#E0E0E0"/>
  <path d="M114.475 130.128H118.375V122.613H114.475V130.128Z" fill="white"/>
  <path d="M116.328 130.117C116.356 130.117 116.378 128.434 116.378 126.361C116.378 124.288 116.356 122.602 116.328 122.602C116.299 122.602 116.273 124.284 116.273 126.361C116.273 128.438 116.299 130.117 116.328 130.117Z" fill="#E0E0E0"/>
  <path d="M114.477 125.206C115.776 125.279 117.078 125.279 118.377 125.206C117.078 125.139 115.776 125.139 114.477 125.206Z" fill="#E0E0E0"/>
  <path d="M114.477 127.908C114.477 127.933 115.354 127.959 116.441 127.959C117.528 127.959 118.406 127.933 118.406 127.908C117.097 127.836 115.785 127.836 114.477 127.908Z" fill="#E0E0E0"/>
  <path d="M114.475 140.015H118.375V132.5H114.475V140.015Z" fill="white"/>
  <path d="M116.328 140.019C116.356 140.019 116.378 138.34 116.378 136.263C116.378 134.187 116.356 132.507 116.328 132.507C116.299 132.507 116.273 134.187 116.273 136.263C116.273 138.34 116.299 140.019 116.328 140.019Z" fill="#E0E0E0"/>
  <path d="M114.477 135.116C115.776 135.184 117.078 135.184 118.377 135.116C117.078 135.044 115.776 135.044 114.477 135.116Z" fill="#E0E0E0"/>
  <path d="M114.477 137.802C115.785 137.869 117.097 137.869 118.406 137.802C117.097 137.73 115.785 137.73 114.477 137.802Z" fill="#E0E0E0"/>
  <path d="M123.916 149.59H127.816V142.075H123.916V149.59Z" fill="white"/>
  <path d="M125.769 149.588C125.798 149.588 125.823 147.909 125.823 145.832C125.823 143.755 125.798 142.076 125.769 142.076C125.74 142.076 125.719 143.755 125.719 145.832C125.719 147.909 125.74 149.588 125.769 149.588Z" fill="#E0E0E0"/>
  <path d="M123.918 144.685C125.217 144.752 126.519 144.752 127.818 144.685C126.519 144.613 125.217 144.613 123.918 144.685Z" fill="#E0E0E0"/>
  <path d="M123.918 147.377C125.228 147.444 126.541 147.444 127.851 147.377C126.541 147.305 125.228 147.305 123.918 147.377Z" fill="#E0E0E0"/>
  <path d="M114.475 149.909H118.375V142.393H114.475V149.909Z" fill="white"/>
  <path d="M116.328 149.91C116.356 149.91 116.378 148.227 116.378 146.15C116.378 144.074 116.356 142.395 116.328 142.395C116.299 142.395 116.273 144.077 116.273 146.15C116.273 148.223 116.299 149.91 116.328 149.91Z" fill="#E0E0E0"/>
  <path d="M114.477 145.01C115.776 145.077 117.078 145.077 118.377 145.01C117.078 144.938 115.776 144.938 114.477 145.01Z" fill="#E0E0E0"/>
  <path d="M114.477 147.698C115.785 147.765 117.097 147.765 118.406 147.698C117.097 147.631 115.785 147.631 114.477 147.698Z" fill="#E0E0E0"/>
  <path d="M196.894 153.307H215.109V76.2689H196.894V153.307Z" fill="#EBEBEB"/>
  <path d="M206.175 92.3335H211.711V81.6619H206.175V92.3335Z" fill="white"/>
  <path d="M208.787 92.3521C208.827 92.3521 208.863 89.965 208.863 87.0181C208.863 84.0712 208.827 81.6841 208.787 81.6841C208.747 81.6841 208.715 84.0712 208.715 87.0181C208.715 89.965 208.755 92.3521 208.787 92.3521Z" fill="#E0E0E0"/>
  <path d="M206.168 85.373C208.012 85.4741 209.86 85.4741 211.704 85.373C209.86 85.2767 208.012 85.2767 206.168 85.373Z" fill="#E0E0E0"/>
  <path d="M206.117 89.1894C207.976 89.2905 209.838 89.2905 211.697 89.1894C209.838 89.0931 207.976 89.0931 206.117 89.1894Z" fill="#E0E0E0"/>
  <path d="M206.175 106.274H211.711V95.6028H206.175V106.274Z" fill="white"/>
  <path d="M208.787 106.278C208.827 106.278 208.863 103.887 208.863 100.944C208.863 98.0008 208.827 95.6064 208.787 95.6064C208.747 95.6064 208.715 97.9972 208.715 100.944C208.715 103.891 208.755 106.278 208.787 106.278Z" fill="#E0E0E0"/>
  <path d="M206.168 99.3112C208.012 99.4075 209.86 99.4075 211.704 99.3112C209.86 99.2101 208.012 99.2101 206.168 99.3112Z" fill="#E0E0E0"/>
  <path d="M206.117 103.124C207.976 103.225 209.838 103.225 211.697 103.124C209.838 103.028 207.976 103.028 206.117 103.124Z" fill="#E0E0E0"/>
  <path d="M206.175 120.209H211.711V109.537H206.175V120.209Z" fill="white"/>
  <path d="M208.787 120.206C208.827 120.206 208.863 117.819 208.863 114.872C208.863 111.925 208.827 109.535 208.787 109.535C208.747 109.535 208.715 111.925 208.715 114.872C208.715 117.819 208.755 120.206 208.787 120.206Z" fill="#E0E0E0"/>
  <path d="M206.168 113.246C208.012 113.342 209.86 113.342 211.704 113.246C209.86 113.145 208.012 113.145 206.168 113.246Z" fill="#E0E0E0"/>
  <path d="M206.117 117.069C207.976 117.165 209.838 117.165 211.697 117.069C209.838 116.967 207.976 116.967 206.117 117.069Z" fill="#E0E0E0"/>
  <path d="M206.175 134.144H211.711V123.472H206.175V134.144Z" fill="white"/>
  <path d="M208.787 134.144C208.827 134.144 208.863 131.756 208.863 128.81C208.863 125.863 208.827 123.476 208.787 123.476C208.747 123.476 208.715 125.863 208.715 128.81C208.715 131.756 208.755 134.144 208.787 134.144Z" fill="#E0E0E0"/>
  <path d="M206.168 127.189C208.012 127.291 209.86 127.291 211.704 127.189C209.86 127.093 208.012 127.093 206.168 127.189Z" fill="#E0E0E0"/>
  <path d="M206.117 130.99C207.976 131.087 209.838 131.087 211.697 130.99C209.838 130.889 207.976 130.889 206.117 130.99Z" fill="#E0E0E0"/>
  <path d="M189.146 153.307H202.418V76.2689H189.146V153.307Z" fill="#E0E0E0"/>
  <path d="M192.733 92.3335H198.27V81.6619H192.733V92.3335Z" fill="white"/>
  <path d="M195.349 92.3521C195.389 92.3521 195.422 89.965 195.422 87.0181C195.422 84.0712 195.389 81.6841 195.349 81.6841C195.31 81.6841 195.273 84.0712 195.273 87.0181C195.273 89.965 195.306 92.3521 195.349 92.3521Z" fill="#E0E0E0"/>
  <path d="M192.727 85.373C194.571 85.4741 196.419 85.4741 198.263 85.373C196.419 85.2767 194.571 85.2767 192.727 85.373Z" fill="#E0E0E0"/>
  <path d="M192.727 89.1894C194.586 89.2905 196.45 89.2905 198.31 89.1894C196.45 89.0931 194.586 89.0931 192.727 89.1894Z" fill="#E0E0E0"/>
  <path d="M192.733 106.387H198.27V95.7151H192.733V106.387Z" fill="white"/>
  <path d="M195.349 106.381C195.389 106.381 195.422 103.994 195.422 101.047C195.422 98.1 195.389 95.7129 195.349 95.7129C195.31 95.7129 195.273 98.1 195.273 101.047C195.273 103.994 195.306 106.381 195.349 106.381Z" fill="#E0E0E0"/>
  <path d="M192.727 99.4262C194.571 99.5273 196.419 99.5273 198.263 99.4262C196.419 99.3299 194.571 99.3299 192.727 99.4262Z" fill="#E0E0E0"/>
  <path d="M192.727 103.24C194.586 103.336 196.45 103.336 198.31 103.24C196.45 103.139 194.586 103.139 192.727 103.24Z" fill="#E0E0E0"/>
  <path d="M192.733 120.44H198.27V109.769H192.733V120.44Z" fill="white"/>
  <path d="M195.349 120.44C195.389 120.44 195.422 118.053 195.422 115.106C195.422 112.16 195.389 109.772 195.349 109.772C195.31 109.772 195.273 112.16 195.273 115.106C195.273 118.053 195.306 120.44 195.349 120.44Z" fill="#E0E0E0"/>
  <path d="M192.727 113.474C194.571 113.575 196.419 113.575 198.263 113.474C196.419 113.377 194.571 113.377 192.727 113.474Z" fill="#E0E0E0"/>
  <path d="M192.727 117.293C194.586 117.389 196.45 117.389 198.31 117.293C196.45 117.192 194.586 117.192 192.727 117.293Z" fill="#E0E0E0"/>
  <path d="M192.733 134.487H198.27V123.816H192.733V134.487Z" fill="white"/>
  <path d="M195.349 134.494C195.389 134.494 195.422 132.107 195.422 129.16C195.422 126.213 195.389 123.826 195.349 123.826C195.31 123.826 195.273 126.213 195.273 129.16C195.273 132.107 195.306 134.494 195.349 134.494Z" fill="#E0E0E0"/>
  <path d="M192.727 127.527C194.571 127.628 196.419 127.628 198.263 127.527C196.419 127.431 194.571 127.431 192.727 127.527Z" fill="#E0E0E0"/>
  <path d="M192.727 131.353C194.586 131.449 196.45 131.449 198.31 131.353C196.45 131.252 194.586 131.252 192.727 131.353Z" fill="#E0E0E0"/>
  <path d="M206.175 148.085H211.711V137.413H206.175V148.085Z" fill="white"/>
  <path d="M208.787 148.089C208.827 148.089 208.863 145.698 208.863 142.751C208.863 139.804 208.827 137.417 208.787 137.417C208.747 137.417 208.715 139.804 208.715 142.751C208.715 145.698 208.755 148.089 208.787 148.089Z" fill="#E0E0E0"/>
  <path d="M206.168 141.124C208.012 141.225 209.86 141.225 211.704 141.124C209.86 141.028 208.012 141.028 206.168 141.124Z" fill="#E0E0E0"/>
  <path d="M206.117 144.94C207.976 145.042 209.838 145.042 211.697 144.94C209.838 144.844 207.976 144.844 206.117 144.94Z" fill="#E0E0E0"/>
  <path d="M192.733 148.541H198.27V137.869H192.733V148.541Z" fill="white"/>
  <path d="M195.349 148.541C195.389 148.541 195.422 146.153 195.422 143.207C195.422 140.26 195.389 137.873 195.349 137.873C195.31 137.873 195.273 140.26 195.273 143.207C195.273 146.153 195.306 148.541 195.349 148.541Z" fill="#E0E0E0"/>
  <path d="M192.727 141.574C194.571 141.675 196.419 141.675 198.263 141.574C196.419 141.477 194.571 141.477 192.727 141.574Z" fill="#E0E0E0"/>
  <path d="M192.727 145.394C194.586 145.49 196.45 145.49 198.31 145.394C196.45 145.293 194.586 145.293 192.727 145.394Z" fill="#E0E0E0"/>
  <path d="M217.047 153.269H227.953V107.155H217.047V153.269Z" fill="#EBEBEB"/>
  <path d="M222.587 116.774H225.902V110.385H222.587V116.774Z" fill="white"/>
  <path d="M224.152 116.766C224.174 116.766 224.196 115.322 224.196 113.574C224.196 111.826 224.174 110.378 224.152 110.378C224.131 110.378 224.105 111.822 224.105 113.574C224.105 115.326 224.127 116.766 224.152 116.766Z" fill="#E0E0E0"/>
  <path d="M222.605 112.605C222.605 112.626 223.346 112.648 224.259 112.648C225.173 112.648 225.917 112.626 225.917 112.605C224.814 112.542 223.708 112.542 222.605 112.605Z" fill="#E0E0E0"/>
  <path d="M222.605 114.887C223.718 114.945 224.833 114.945 225.946 114.887C224.833 114.83 223.718 114.83 222.605 114.887Z" fill="#E0E0E0"/>
  <path d="M222.587 125.112H225.902V118.724H222.587V125.112Z" fill="white"/>
  <path d="M224.152 125.118C224.174 125.118 224.196 123.673 224.196 121.925C224.196 120.177 224.174 118.729 224.152 118.729C224.131 118.729 224.105 120.174 224.105 121.925C224.105 123.677 224.127 125.118 224.152 125.118Z" fill="#E0E0E0"/>
  <path d="M222.605 120.95C223.709 121.007 224.814 121.007 225.917 120.95C224.814 120.887 223.708 120.887 222.605 120.95Z" fill="#E0E0E0"/>
  <path d="M222.605 123.226C223.718 123.288 224.833 123.288 225.946 123.226C224.833 123.168 223.718 123.168 222.605 123.226Z" fill="#E0E0E0"/>
  <path d="M222.587 133.457H225.902V127.069H222.587V133.457Z" fill="white"/>
  <path d="M224.152 133.456C224.174 133.456 224.196 132.011 224.196 130.263C224.196 128.516 224.174 127.067 224.152 127.067C224.131 127.067 224.105 128.512 224.105 130.263C224.105 132.015 224.127 133.456 224.152 133.456Z" fill="#E0E0E0"/>
  <path d="M222.605 129.29C223.709 129.348 224.814 129.348 225.917 129.29C224.814 129.233 223.709 129.233 222.605 129.29Z" fill="#E0E0E0"/>
  <path d="M222.605 131.57C223.718 131.633 224.833 131.633 225.946 131.57C225.946 131.549 225.198 131.527 224.274 131.527C223.349 131.527 222.605 131.549 222.605 131.57Z" fill="#E0E0E0"/>
  <path d="M222.587 141.801H225.902V135.413H222.587V141.801Z" fill="white"/>
  <path d="M224.152 141.797C224.174 141.797 224.196 140.352 224.196 138.604C224.196 136.856 224.174 135.412 224.152 135.412C224.131 135.412 224.105 136.838 224.105 138.604C224.105 140.37 224.127 141.797 224.152 141.797Z" fill="#E0E0E0"/>
  <path d="M222.605 137.635C223.709 137.693 224.814 137.693 225.917 137.635C224.814 137.577 223.709 137.577 222.605 137.635Z" fill="#E0E0E0"/>
  <path d="M222.605 139.909C223.718 139.971 224.833 139.971 225.946 139.909C225.946 139.887 225.198 139.865 224.274 139.865C223.349 139.865 222.605 139.887 222.605 139.909Z" fill="#E0E0E0"/>
  <path d="M212.41 153.269H220.355V107.155H212.41V153.269Z" fill="#E0E0E0"/>
  <path d="M214.595 116.774H217.91V110.385H214.595V116.774Z" fill="white"/>
  <path d="M216.156 116.767C216.178 116.767 216.2 115.322 216.2 113.574C216.2 111.826 216.178 110.378 216.156 110.378C216.135 110.378 216.109 111.823 216.109 113.574C216.109 115.326 216.131 116.767 216.156 116.767Z" fill="#E0E0E0"/>
  <path d="M214.562 112.605C214.562 112.627 215.303 112.648 216.216 112.648C217.13 112.648 217.874 112.627 217.874 112.605C216.771 112.542 215.665 112.542 214.562 112.605Z" fill="#E0E0E0"/>
  <path d="M214.562 114.887C215.675 114.945 216.79 114.945 217.903 114.887C216.79 114.829 215.675 114.829 214.562 114.887Z" fill="#E0E0E0"/>
  <path d="M214.595 125.181H217.91V118.793H214.595V125.181Z" fill="white"/>
  <path d="M216.156 125.18C216.178 125.18 216.2 123.735 216.2 121.987C216.2 120.239 216.178 118.791 216.156 118.791C216.135 118.791 216.109 120.236 216.109 121.987C216.109 123.739 216.131 125.18 216.156 125.18Z" fill="#E0E0E0"/>
  <path d="M214.562 121.012C214.562 121.033 215.303 121.055 216.216 121.055C217.13 121.055 217.874 121.033 217.874 121.012C216.771 120.949 215.665 120.949 214.562 121.012Z" fill="#E0E0E0"/>
  <path d="M214.562 123.301C215.675 123.358 216.79 123.358 217.903 123.301C216.79 123.243 215.675 123.243 214.562 123.301Z" fill="#E0E0E0"/>
  <path d="M214.595 133.594H217.91V127.206H214.595V133.594Z" fill="white"/>
  <path d="M216.156 133.593C216.178 133.593 216.2 132.149 216.2 130.401C216.2 128.653 216.178 127.205 216.156 127.205C216.135 127.205 216.109 128.649 216.109 130.401C216.109 132.152 216.131 133.593 216.156 133.593Z" fill="#E0E0E0"/>
  <path d="M214.562 129.428C215.666 129.485 216.771 129.485 217.874 129.428C216.771 129.37 215.666 129.37 214.562 129.428Z" fill="#E0E0E0"/>
  <path d="M214.562 131.714C215.675 131.776 216.79 131.776 217.903 131.714C216.79 131.656 215.675 131.656 214.562 131.714Z" fill="#E0E0E0"/>
  <path d="M214.595 142.001H217.91V135.613H214.595V142.001Z" fill="white"/>
  <path d="M216.156 142C216.178 142 216.2 140.556 216.2 138.808C216.2 137.06 216.178 135.612 216.156 135.612C216.135 135.612 216.109 137.056 216.109 138.808C216.109 140.559 216.131 142 216.156 142Z" fill="#E0E0E0"/>
  <path d="M214.562 137.853C215.666 137.911 216.771 137.911 217.874 137.853C216.771 137.796 215.666 137.796 214.562 137.853Z" fill="#E0E0E0"/>
  <path d="M214.562 140.121C215.675 140.184 216.79 140.184 217.903 140.121C217.903 140.099 217.155 140.078 216.231 140.078C215.306 140.078 214.562 140.099 214.562 140.121Z" fill="#E0E0E0"/>
  <path d="M222.587 150.14H225.902V143.751H222.587V150.14Z" fill="white"/>
  <path d="M224.152 150.129C224.174 150.129 224.196 148.684 224.196 146.936C224.196 145.188 224.174 143.744 224.152 143.744C224.131 143.744 224.105 145.188 224.105 146.936C224.105 148.684 224.127 150.129 224.152 150.129Z" fill="#E0E0E0"/>
  <path d="M222.605 145.973C223.709 146.031 224.814 146.031 225.917 145.973C224.814 145.915 223.709 145.915 222.605 145.973Z" fill="#E0E0E0"/>
  <path d="M222.605 148.257C222.605 148.279 223.353 148.3 224.274 148.3C225.195 148.3 225.946 148.279 225.946 148.257C224.833 148.194 223.718 148.194 222.605 148.257Z" fill="#E0E0E0"/>
  <path d="M214.595 150.421H217.91V144.032H214.595V150.421Z" fill="white"/>
  <path d="M216.156 150.413C216.178 150.413 216.2 148.969 216.2 147.221C216.2 145.473 216.178 144.025 216.156 144.025C216.135 144.025 216.109 145.469 216.109 147.221C216.109 148.972 216.131 150.413 216.156 150.413Z" fill="#E0E0E0"/>
  <path d="M214.562 146.248C215.666 146.306 216.771 146.306 217.874 146.248C216.771 146.19 215.666 146.19 214.562 146.248Z" fill="#E0E0E0"/>
  <path d="M214.562 148.534C215.675 148.597 216.79 148.597 217.903 148.534C217.903 148.512 217.155 148.491 216.231 148.491C215.306 148.491 214.562 148.512 214.562 148.534Z" fill="#E0E0E0"/>
  <path d="M135.166 21.836C135.336 20.5901 133.577 19.5645 132.255 19.4598C131.627 19.4092 130.973 19.5031 130.374 19.2973C129.081 18.8458 128.568 17.1738 127.3 16.6429C126.358 16.2456 125.271 16.5996 124.357 17.0582C123.443 17.5168 122.551 18.0983 121.515 18.1633C120.627 18.2211 119.662 17.8924 118.882 18.3258C118.304 18.6508 118.001 19.3189 117.467 19.7126C116.91 20.0535 116.267 20.2277 115.614 20.2145C114.963 20.1979 114.315 20.3033 113.704 20.5251C113.111 20.796 112.62 21.4207 112.747 22.06L135.166 21.836Z" fill="#EBEBEB"/>
  <path d="M185.533 5.36885C185.706 4.12293 183.948 3.0973 182.626 2.98896C181.994 2.9384 181.34 3.03591 180.741 2.82645C179.448 2.37864 178.935 0.706576 177.671 0.172093C176.725 -0.225157 175.638 0.128757 174.724 0.591012C173.811 1.05327 172.919 1.63109 171.882 1.69609C170.994 1.75387 170.03 1.42163 169.253 1.8586C168.672 2.18001 168.368 2.84812 167.834 3.24176C167.278 3.58633 166.634 3.76083 165.981 3.74374C165.33 3.72839 164.682 3.83495 164.071 4.05793C163.478 4.32878 162.987 4.95354 163.114 5.58915L185.533 5.36885Z" fill="#EBEBEB"/>
  <path d="M22.9537 56.4259C23.1271 55.18 21.3683 54.1543 20.0646 54.0496C19.4326 53.9991 18.779 54.0966 18.1831 53.8871C16.8866 53.4357 16.3774 51.7636 15.1098 51.2327C14.1636 50.8355 13.0802 51.1894 12.1629 51.648C11.2457 52.1067 10.3573 52.6881 9.3244 52.7531C8.43239 52.8109 7.46816 52.4823 6.69172 52.9156C6.11029 53.2407 5.80693 53.9088 5.27245 54.3024C4.70522 54.646 4.05009 54.8167 3.38731 54.7936C2.73675 54.7776 2.08889 54.8829 1.4769 55.1041C0.888245 55.375 0.393487 55.9997 0.519885 56.639L22.9537 56.4259Z" fill="#EBEBEB"/>
  <path d="M88.6628 23.6597H68.5547V35.4616H88.6628V23.6597Z" fill="#E0E0E0"/>
  <path d="M79.1198 23.2661H59.0117V35.0681H79.1198V23.2661Z" fill="#EBEBEB"/>
  <path d="M118.242 34.5525H30.9805V39.3087H118.242V34.5525Z" fill="#E0E0E0"/>
  <path d="M89.9439 21.3735H56.9648V23.934H89.9439V21.3735Z" fill="#E0E0E0"/>
  <path d="M96.9928 153.27L35.6321 153.19L35.5273 39.3057H96.9928V153.27Z" fill="#EBEBEB"/>
  <path d="M48.9857 46.5132H41.9219V59.2144H48.9857V46.5132Z" fill="#41555F"/>
  <path d="M48.9857 64.8892H41.9219V77.5903H48.9857V64.8892Z" fill="#41555F"/>
  <path d="M48.9857 83.2583H41.9219V95.9595H48.9857V83.2583Z" fill="#41555F"/>
  <path d="M48.9857 101.627H41.9219V114.329H48.9857V101.627Z" fill="#41555F"/>
  <path d="M48.9857 118.71H41.9219V131.411H48.9857V118.71Z" fill="#41555F"/>
  <path d="M89.6107 46.5134H82.5469V59.2146H89.6107V46.5134Z" fill="#41555F"/>
  <path d="M69.5812 26.8638H63.1602V35.1555H69.5812V26.8638Z" fill="#41555F"/>
  <path d="M89.6107 64.8889H82.5469V77.5901H89.6107V64.8889Z" fill="#41555F"/>
  <path d="M89.6107 83.2583H82.5469V95.9595H89.6107V83.2583Z" fill="#41555F"/>
  <path d="M89.6107 101.627H82.5469V114.329H89.6107V101.627Z" fill="#41555F"/>
  <path d="M89.6107 118.71H82.5469V131.411H89.6107V118.71Z" fill="#41555F"/>
  <path d="M75.94 39.3057H55.1133V153.266H75.94V39.3057Z" fill="#41555F"/>
  <g opacity="0.3">
    <path d="M75.8893 74.5952L55.0625 91.9478V98.2894L75.8893 80.6515V74.5952Z" fill="white"/>
  </g>
  <g opacity="0.3">
    <path d="M75.8893 41.4414L55.0625 58.794V65.1356L75.8893 47.4977V41.4414Z" fill="white"/>
  </g>
  <g opacity="0.3">
    <path d="M75.8893 88.5923L55.0625 105.945V118.711L75.8893 101.142V88.5923Z" fill="white"/>
  </g>
  <path d="M114.175 38.25H96.9883V153.171H114.175V38.25Z" fill="#E0E0E0"/>
  <path d="M114.457 153.169C114.406 153.169 114.309 129.995 114.24 101.411C114.171 72.8267 114.153 49.6489 114.208 49.6489C114.262 49.6489 114.356 72.8195 114.428 101.411C114.5 130.002 114.511 153.169 114.457 153.169Z" fill="#263238"/>
  <path d="M109.849 46.5132H102.785V59.2144H109.849V46.5132Z" fill="#263238"/>
  <path d="M109.849 64.8892H102.785V77.5903H109.849V64.8892Z" fill="#263238"/>
  <path d="M109.849 83.2583H102.785V95.9595H109.849V83.2583Z" fill="#263238"/>
  <path d="M109.849 101.627H102.785V114.329H109.849V101.627Z" fill="#263238"/>
  <path d="M109.849 118.71H102.785V131.411H109.849V118.71Z" fill="#263238"/>
  <path d="M109.849 136.599H102.785V149.3H109.849V136.599Z" fill="#263238"/>
  <path d="M77.2925 131.683H53.3672V134.074H77.2925V131.683Z" fill="#EBEBEB"/>
  <path d="M75.94 59.9858H55.1133V61.3762H75.94V59.9858Z" fill="#263238"/>
  <path d="M75.94 80.0854H55.1133V81.4758H75.94V80.0854Z" fill="#263238"/>
  <path d="M75.7408 116.761H54.9141V118.152H75.7408V116.761Z" fill="#263238"/>
  <path d="M76.7408 99.2478H55.9141V100.638H76.7408V99.2478Z" fill="#263238"/>
  <path d="M71.7705 104.382C71.803 104.422 68.6936 107.138 64.8295 110.449C60.9653 113.761 57.7981 116.412 57.762 116.372C57.7259 116.332 60.8389 113.617 64.7067 110.305C68.5745 106.993 71.7344 104.343 71.7705 104.382Z" fill="#263238"/>
  <path d="M71.97 116.712C72.0061 116.752 68.8967 119.467 65.0289 122.779C61.1612 126.091 57.9976 128.741 57.9651 128.702C57.9326 128.662 61.0384 125.946 64.9061 122.638C68.7739 119.33 71.9375 116.672 71.97 116.712Z" fill="#263238"/>
  <path d="M71.721 86.1759C71.7535 86.2156 69.4748 88.2091 66.629 90.6287C63.7832 93.0483 61.4467 94.9624 61.4106 94.9371C61.3745 94.9118 63.6569 92.9039 66.5062 90.4843C69.3556 88.0646 71.6885 86.1362 71.721 86.1759Z" fill="#263238"/>
  <path d="M66.0382 88.4424C65.4223 89.1297 64.7625 89.7763 64.0628 90.3781C63.4029 91.0258 62.7007 91.6291 61.9609 92.1838C62.5739 91.4925 63.2339 90.8445 63.9364 90.2445C64.5936 89.5949 65.2959 88.9927 66.0382 88.4424Z" fill="#263238"/>
  <path d="M58.8127 73.5865C58.7838 73.5431 61.9149 71.1524 65.8079 68.2489C69.701 65.3453 72.8826 63.0196 72.9115 63.0593C72.9404 63.0991 69.8129 65.4934 65.9199 68.4006C62.0268 71.3077 58.8452 73.6262 58.8127 73.5865Z" fill="#263238"/>
  <path d="M63.1094 71.7666C63.3308 71.5668 63.5729 71.3912 63.8316 71.2429L65.6084 70.044L67.3744 68.8233C67.6072 68.6373 67.859 68.4763 68.1256 68.343C67.9228 68.5611 67.6977 68.7572 67.4539 68.9281C67.0205 69.2711 66.4102 69.7226 65.7168 70.1993C65.0234 70.676 64.377 71.0768 63.9111 71.3549C63.6607 71.5228 63.3917 71.661 63.1094 71.7666Z" fill="#263238"/>
  <path d="M72.3842 43.5215C72.3842 43.5215 72.3409 43.5757 72.2434 43.6587C72.1459 43.7418 71.9942 43.8754 71.8208 44.0199L70.2499 45.3272L65.0531 49.6247L59.8781 53.9583L58.3071 55.2693L57.8774 55.6304C57.7762 55.7099 57.7221 55.7496 57.7148 55.7424C57.756 55.6912 57.802 55.644 57.8521 55.6015L58.2602 55.2404C58.643 54.9045 59.163 54.4459 59.7914 53.8861C61.0951 52.7521 62.908 51.2029 64.934 49.5164C66.9599 47.8298 68.8126 46.3311 70.1668 45.2586L71.7775 43.9982L72.2217 43.6659C72.2692 43.6108 72.3239 43.5622 72.3842 43.5215Z" fill="#263238"/>
  <path d="M66.2082 46.1201C65.7623 46.591 65.2712 47.0168 64.7419 47.3913C64.2512 47.8135 63.7215 48.1884 63.1602 48.5108C63.6056 48.0407 64.0967 47.616 64.6264 47.2433C65.1173 46.8202 65.6469 46.4441 66.2082 46.1201Z" fill="#263238"/>
  <path d="M46.9083 70.1479C46.4715 70.6866 45.9881 71.1856 45.4637 71.6394C44.9747 72.1368 44.4416 72.5889 43.8711 72.9901C44.3156 72.4525 44.8049 71.9535 45.3337 71.4986C45.8164 71.0015 46.3434 70.5494 46.9083 70.1479Z" fill="#263238"/>
  <path d="M88.0003 88.3174C87.5517 88.9366 87.0554 89.5198 86.516 90.0617C86.0222 90.6469 85.4798 91.1893 84.8945 91.6832C85.3388 91.0595 85.8353 90.4747 86.3788 89.9353C86.8733 89.3517 87.4157 88.8106 88.0003 88.3174Z" fill="#263238"/>
  <path d="M47.5158 105.744C47.0194 106.386 46.475 106.99 45.8871 107.549C45.342 108.149 44.7516 108.705 44.1211 109.214C44.6174 108.572 45.1619 107.968 45.7498 107.408C46.2938 106.808 46.8843 106.251 47.5158 105.744Z" fill="#263238"/>
  <path d="M86.7546 121.877C86.3318 122.451 85.8593 122.986 85.3425 123.477C84.8718 124.01 84.3545 124.501 83.7969 124.943C84.221 124.37 84.6934 123.835 85.2089 123.343C85.6807 122.811 86.1979 122.32 86.7546 121.877Z" fill="#263238"/>
  <path d="M86.6597 123.957C86.399 124.367 86.0857 124.743 85.7279 125.072C85.411 125.447 85.0468 125.778 84.6445 126.058C84.9052 125.647 85.2185 125.272 85.5763 124.942C85.8944 124.57 86.2585 124.238 86.6597 123.957Z" fill="#263238"/>
  <path d="M89.6107 137.129H82.5469V149.831H89.6107V137.129Z" fill="#41555F"/>
  <path d="M48.9388 136.917H41.875V149.618H48.9388V136.917Z" fill="#41555F"/>
  <g opacity="0.3">
    <path d="M57.132 153.199L75.9256 137.811L75.922 133.925L73.0365 134.005L55.1133 149.783L55.153 153.192" fill="white"/>
  </g>
  <g opacity="0.3">
    <path d="M61.3594 153.204L63.0928 153.229L75.9024 142.073L75.8879 141.268L75.8915 140.383L61.3594 153.204Z" fill="white"/>
  </g>
  <path d="M65.3517 153.231C65.3011 153.231 65.2578 149.258 65.2578 144.343C65.2578 139.428 65.3011 135.456 65.3517 135.456C65.4023 135.456 65.4456 139.428 65.4456 144.343C65.4456 149.258 65.4059 153.231 65.3517 153.231Z" fill="#263238"/>
  <path d="M64.3081 143.269H63.0586V147.581H64.3081V143.269Z" fill="#EBEBEB"/>
  <path d="M67.5073 143.269H66.2578V147.581H67.5073V143.269Z" fill="#EBEBEB"/>
  <path d="M118.376 39.3058C118.376 39.3564 98.8164 39.3997 74.678 39.3997C50.5396 39.3997 30.9805 39.3564 30.9805 39.3058C30.9805 39.2552 50.536 39.2119 74.678 39.2119C98.82 39.2119 118.376 39.2625 118.376 39.3058Z" fill="#263238"/>
  <path d="M118.376 34.6464C118.376 34.6969 98.8164 34.7403 74.678 34.7403C50.5396 34.7403 30.9805 34.6969 30.9805 34.6464C30.9805 34.5958 50.536 34.5525 74.678 34.5525C98.82 34.5525 118.376 34.5922 118.376 34.6464Z" fill="#263238"/>
  <path d="M90.1643 23.9347C90.1643 23.9853 82.7502 24.0286 73.6062 24.0286C64.4622 24.0286 57.0625 23.9853 57.0625 23.9347C57.0625 23.8842 64.473 23.8408 73.6206 23.8408C82.7682 23.8408 90.1643 23.8805 90.1643 23.9347Z" fill="#263238"/>
  <path d="M35.6426 153.187C35.592 153.187 35.4981 127.821 35.4331 96.5355C35.3681 65.2502 35.3609 39.8804 35.4151 39.8804C35.4692 39.8804 35.5595 65.2394 35.6209 96.5355C35.6823 127.832 35.6931 153.187 35.6426 153.187Z" fill="#263238"/>
  <path d="M51.221 16.0166L36.9344 11.2244L22.7851 15.9516C20.9794 16.7461 19.3868 17.2301 19.3868 18.7974V26.6196C19.3738 32.1568 20.9943 37.5748 24.0455 42.1955C27.1945 47.0059 31.7273 50.7493 37.0464 52.9321C42.8246 51.1769 47.1582 46.5002 49.7837 42.4988C52.8378 37.8807 54.4597 32.4633 54.446 26.9266V19.888C54.4712 17.649 53.2 16.5547 51.221 16.0166Z" fill="#8354BE"/>
  <path d="M37.0065 49.8518L36.9487 49.8266C32.4105 47.966 28.5273 44.799 25.7921 40.7277C23.0569 36.6564 21.5929 31.8642 21.5859 26.9594V20.2061C21.5859 18.8843 22.7524 18.4004 24.1139 17.8118L24.6195 17.5915L36.8981 13.4854L49.2743 17.6384C51.2497 18.1765 52.2103 19.3285 52.2103 21.1559V27.2266C52.218 32.0384 50.8087 36.7459 48.1584 40.762C46.3997 43.4272 42.6185 48.1509 37.0679 49.8374L37.0065 49.8518ZM36.8981 13.8645L24.7676 17.9237L24.262 18.144C22.9619 18.6749 21.9471 19.1227 21.9471 20.2061V26.9594C21.955 31.7842 23.3938 36.4982 26.0815 40.505C28.7692 44.5119 32.5851 47.6314 37.0462 49.469C42.4633 47.8006 46.1505 43.1744 47.8803 40.5598C50.4844 36.6003 51.866 31.9621 51.8528 27.223V21.1523C51.8528 19.4874 51.0005 18.4799 49.1804 17.9815L36.8981 13.8645Z" fill="white"/>
  <path d="M53.0692 14.0455C53.3995 14.1173 53.7232 14.2163 54.037 14.3417C54.4197 14.4878 54.7835 14.6794 55.1205 14.9123C55.5887 15.229 55.9779 15.6491 56.258 16.1401C56.5978 16.766 56.7812 17.4648 56.7925 18.1769C56.7925 18.9534 56.7925 19.7912 56.7925 20.7049C56.7925 22.5106 56.8106 24.5907 56.7925 26.902C56.7321 32.418 55.2306 37.8223 52.4372 42.579C50.7644 45.4364 48.6977 48.0441 46.2979 50.3253C43.7699 52.6872 40.6967 54.7709 37.0997 55.876H37.0672H37.0383C35.7682 55.3436 34.5288 54.7408 33.3259 54.0703C32.0944 53.3672 30.9087 52.5868 29.7759 51.7338C27.4316 49.9644 25.3437 47.8789 23.5715 45.5367C21.6532 43.0171 20.1152 40.2295 19.0068 37.263C17.9487 34.4235 17.2994 31.4481 17.0783 28.426C16.9664 26.9526 16.9989 25.4972 16.9916 24.0707C16.9844 22.6442 16.9916 21.2358 16.9916 19.8526V17.7869C16.9811 17.4444 16.9955 17.1016 17.035 16.7613C17.0943 16.4152 17.2423 16.0904 17.4647 15.8187C17.9231 15.3259 18.4807 14.9357 19.1007 14.6739C19.6965 14.3958 20.296 14.1539 20.8811 13.8975L36.8939 8.56348H36.9156L48.7897 12.5757L51.9605 13.6591L52.7767 13.9444C52.9609 14.0058 53.0511 14.0455 53.0511 14.0455C53.0511 14.0455 52.9572 14.0203 52.7731 13.9589L51.9497 13.6916L48.7681 12.6443L36.8758 8.67182H36.9156L20.9425 14.0491C20.3538 14.3092 19.7579 14.5511 19.1693 14.8292C18.572 15.0738 18.034 15.4431 17.5911 15.9126C17.3843 16.1646 17.2495 16.4678 17.2011 16.7902C17.1616 17.1209 17.1495 17.4542 17.165 17.7869V19.8418C17.165 21.2237 17.165 22.6298 17.165 24.0599C17.165 25.5044 17.1397 26.949 17.2516 28.3935C17.468 31.4024 18.1137 34.3648 19.1693 37.1908C20.2742 40.1385 21.8061 42.9079 23.716 45.4103C25.4767 47.7386 27.5512 49.812 29.8806 51.5713C31.007 52.4194 32.1854 53.1962 33.4089 53.897C34.6059 54.5646 35.838 55.1674 37.0997 55.7027H37.0636C40.628 54.6193 43.6869 52.5463 46.1968 50.1989C48.5938 47.9327 50.6604 45.3409 52.3361 42.4995C53.8254 39.965 54.9568 37.2366 55.6983 34.392C56.3272 31.9423 56.6665 29.4272 56.7095 26.8984C56.7095 24.5943 56.7095 22.5178 56.7311 20.7049C56.7311 19.7984 56.7311 18.957 56.7311 18.1769C56.7206 17.4794 56.5396 16.795 56.2039 16.1835C55.9305 15.6986 55.5516 15.2814 55.0952 14.9628C54.7637 14.7285 54.4062 14.5333 54.0298 14.3814C53.7964 14.2829 53.5577 14.1973 53.3148 14.125L53.0692 14.0455Z" fill="#8354BE"/>
  <path d="M36.4506 38.1288L28.3828 31.3791L30.7374 28.5659L36.1473 33.0909L44.4317 24.272L47.1078 26.7819L36.4506 38.1288Z" fill="white"/>
  <path d="M155.856 79.0041L147.301 73.2873C144.455 72.6156 141.259 74.656 140.667 77.5198C137.839 76.9276 134.838 78.9102 133.866 81.6296C132.895 84.3489 133.744 87.5197 135.621 89.719C137.499 91.9184 140.266 93.2184 143.101 93.7818C147.178 94.5908 151.945 93.6988 154.39 90.333C156.69 87.1766 156.329 82.8827 155.856 79.0041Z" fill="#263238"/>
  <path d="M192.542 72.5173C192.51 71.0679 192.076 69.6559 191.288 68.4391C190.5 67.2223 189.389 66.2486 188.079 65.6268C189.058 62.2105 190.134 58.6244 189.379 55.1539C187.671 47.31 180.603 46.2338 177.05 46.2844L165.371 53.7454C162.243 57.2882 166.169 76.739 167.577 81.2496C168.309 83.5038 169.598 85.5371 171.324 87.1618C173.049 88.7864 175.156 89.9501 177.451 90.5453C180.701 91.3578 184.449 90.8414 186.941 88.5807C189.433 86.32 190.224 82.1597 188.202 79.4728C189.498 78.8286 190.59 77.8374 191.356 76.6094C192.123 75.3814 192.533 73.9648 192.542 72.5173Z" fill="#263238"/>
  <path d="M132.562 105.141L133.646 153.024L197.47 153.273C197.47 153.273 192.732 86.0583 191.37 85.4011C190.341 84.9135 177.73 80.7749 177.73 80.7749L172.121 79.1426L148.944 83.5918L140.536 85.43L132.562 105.141Z" fill="#41555F"/>
  <path d="M136.257 97.1389C136.257 97.0125 142.353 85.0264 142.353 85.0264C136.38 85.6547 131.046 87.7638 127.579 92.3105C125.965 94.4268 125.243 97.6337 124.437 99.9196C123.896 101.469 120.32 122.31 120.32 122.31L134.48 128.103L136.257 97.1389Z" fill="#41555F"/>
  <path d="M158.752 114.668L145.39 83.8518C140.522 84.9352 135.051 86.1703 131.562 88.4166L133.408 111.067L133.137 153.266L158.706 153.4L160.28 123.371L158.752 114.668Z" fill="#8354BE"/>
  <path d="M192.841 122.524L190.089 84.4642L174.582 79.4985L158.746 114.413V153.405L197.882 153.275L192.841 122.524Z" fill="#8354BE"/>
  <path d="M192.815 122.525C192.815 122.525 192.851 122.709 192.913 123.066C192.974 123.424 193.064 123.962 193.184 124.655C193.418 126.056 193.761 128.119 194.206 130.773C195.083 136.085 196.354 143.774 197.922 153.265V153.344H197.871L158.735 153.496H158.645V153.405C158.645 143.857 158.645 133.46 158.645 122.673V114.381C164.35 101.813 169.721 89.9861 174.491 79.4698L174.524 79.4048L174.592 79.4265L190.081 84.4065H190.128V84.4571C190.959 96.1146 191.634 105.631 192.104 112.232C192.335 115.533 192.516 118.104 192.635 119.852C192.696 120.722 192.739 121.391 192.768 121.842C192.797 122.293 192.808 122.521 192.808 122.521C192.808 122.521 192.783 122.293 192.747 121.846C192.711 121.398 192.66 120.726 192.595 119.856C192.461 118.108 192.27 115.54 192.024 112.243C191.537 105.638 190.84 96.1254 189.98 84.4679L190.031 84.5329L174.524 79.5745L174.625 79.5312C169.858 90.0475 164.513 101.878 158.8 114.45V114.41V122.687C158.8 133.474 158.8 143.871 158.8 153.42L158.71 153.33L197.846 153.221L197.777 153.301C196.235 143.803 194.986 136.114 194.119 130.795C193.693 128.14 193.361 126.078 193.133 124.677C193.025 123.98 192.942 123.445 192.884 123.084C192.826 122.723 192.815 122.525 192.815 122.525Z" fill="#263238"/>
  <path d="M188.611 121.521H133.66V128.704H188.611V121.521Z" fill="white"/>
  <path d="M190.324 85.0073C190.324 85.0073 193.896 84.964 199.071 94.2633C204.882 104.704 208.594 117.954 208.594 117.954L194.29 125.762L190.324 85.0073Z" fill="#41555F"/>
  <path d="M136.809 86.0733L138.365 153.274L144.483 153.306L142.363 84.4951C142.363 84.4951 137.769 85.5749 136.809 86.0733Z" fill="white"/>
  <path d="M180.156 81.291L178.281 153.305H186.28L186.656 83.4578L180.156 81.291Z" fill="white"/>
  <g opacity="0.3">
    <path d="M163.742 100.518C163.893 101.935 164.37 103.299 165.137 104.501C165.903 105.704 166.937 106.712 168.159 107.448C169.325 108.138 170.654 108.571 171.676 109.463C172.698 110.355 173.269 111.518 173.843 112.688C178.177 121.373 182.51 130.08 185.865 139.195C186.613 141.232 187.31 143.312 188.52 145.125C189.73 146.938 191.488 148.48 193.623 148.892C195.757 149.304 198.227 148.321 199.076 146.324L172.088 95.9565L163.742 100.518Z" fill="black"/>
  </g>
  <path d="M158.723 114.414C158.723 114.414 158.723 114.653 158.723 115.137C158.723 115.621 158.723 116.3 158.723 117.206C158.723 119.012 158.723 121.688 158.745 125.086C158.745 131.894 158.766 141.641 158.781 153.421V153.5H158.701L133.09 153.363H132.999V153.269C133.046 145.685 133.097 137.513 133.147 129.073C133.187 122.815 133.227 116.708 133.267 110.843C132.631 102.898 132.028 95.379 131.461 88.4524V88.3801L131.504 88.3512C133.772 86.9645 136.199 86.1122 138.546 85.3971C140.894 84.6821 143.201 84.1657 145.408 83.6709H145.469L145.491 83.7287L155.152 106.119C156.293 108.781 157.185 110.854 157.788 112.258L158.47 113.862C158.626 114.223 158.698 114.411 158.698 114.411C158.698 114.411 158.611 114.227 158.449 113.866L157.791 112.269L155.115 106.13L145.401 83.7648L145.484 83.8081C143.285 84.3029 140.991 84.841 138.644 85.5416C136.297 86.2422 133.884 87.1089 131.642 88.4885L131.681 88.409C132.241 95.3392 132.851 102.854 133.487 110.799C133.451 116.668 133.411 122.771 133.371 129.03C133.317 137.48 133.263 145.642 133.216 153.226L133.126 153.136L158.734 153.298L158.655 153.374C158.655 141.594 158.68 131.847 158.691 125.039C158.691 121.644 158.691 118.979 158.712 117.163C158.712 116.26 158.712 115.567 158.712 115.093C158.712 114.62 158.723 114.414 158.723 114.414Z" fill="#263238"/>
  <path d="M136.834 44.8558C136.411 44.1851 136.169 43.4157 136.133 42.6233C136.097 41.8309 136.268 41.0428 136.629 40.3366C136.99 39.6304 137.529 39.0303 138.193 38.5955C138.856 38.1608 139.621 37.9062 140.413 37.8569L147.636 38.9115L145.534 51.1143C145.335 52.2807 145.097 53.5194 144.288 54.3826C143.881 54.7701 143.399 55.071 142.872 55.2672C142.345 55.4633 141.784 55.5506 141.222 55.5237C139.99 55.5149 138.788 55.1424 137.767 54.453C136.745 53.7635 135.951 52.7878 135.482 51.6483C135.013 50.5088 134.892 49.2562 135.132 48.0478C135.373 46.8394 135.965 45.7289 136.834 44.8558Z" fill="#263238"/>
  <path d="M158.7 91.7517C164.731 91.7517 171.253 85.3849 171.372 79.3539L172.015 46.3027C172.517 36.552 167.262 28.1447 157.508 27.9136L156.605 27.9461C152.225 28.0975 148.062 29.8926 144.945 32.9742C141.828 36.0558 139.985 40.1979 139.783 44.5764C139.397 53.0234 139.729 60.6542 139.942 65.1612C140.383 74.5147 149.119 75.9953 149.119 75.9953C149.119 75.9953 148.368 84.2293 149.653 86.6561C152.542 92.0948 154.825 91.6289 158.7 91.712V91.7517Z" fill="#FFBF9D"/>
  <path d="M149.051 76.0328C149.051 76.0328 154.962 76.1773 161.109 72.0098C161.109 72.0098 158.317 79.0953 148.953 78.5752L149.051 76.0328Z" fill="#FF9A6C"/>
  <path d="M144.105 52.0777C144.115 52.4261 144.26 52.7572 144.509 53.0006C144.759 53.244 145.093 53.3806 145.442 53.3814C145.612 53.3887 145.782 53.3618 145.942 53.3024C146.102 53.2431 146.249 53.1524 146.373 53.0357C146.498 52.919 146.597 52.7786 146.667 52.6228C146.736 52.467 146.774 52.2988 146.778 52.1283C146.768 51.7798 146.624 51.4488 146.374 51.2054C146.125 50.962 145.79 50.8254 145.442 50.8246C145.271 50.8168 145.101 50.8433 144.941 50.9025C144.78 50.9617 144.634 51.0524 144.509 51.1692C144.385 51.286 144.285 51.4265 144.215 51.5826C144.146 51.7386 144.109 51.907 144.105 52.0777Z" fill="#263238"/>
  <path d="M142.13 48.2017C142.3 48.3678 143.285 47.5841 144.723 47.5372C146.16 47.4902 147.251 48.1764 147.392 47.9922C147.464 47.9127 147.283 47.6058 146.814 47.2699C146.176 46.8614 145.429 46.6596 144.672 46.6921C143.924 46.7149 143.203 46.9755 142.614 47.436C142.184 47.8044 142.043 48.1258 142.13 48.2017Z" fill="#263238"/>
  <path d="M157.195 52.075C157.204 52.4231 157.348 52.7541 157.597 52.9976C157.846 53.2411 158.18 53.3779 158.528 53.3787C158.698 53.3865 158.869 53.36 159.029 53.3008C159.189 53.2416 159.336 53.1509 159.46 53.0341C159.585 52.9173 159.685 52.7767 159.754 52.6207C159.824 52.4646 159.861 52.2963 159.864 52.1256C159.857 51.775 159.711 51.4414 159.46 51.1968C159.209 50.9522 158.871 50.8163 158.521 50.8183C158.351 50.812 158.181 50.8397 158.022 50.8998C157.863 50.9599 157.717 51.0511 157.594 51.1681C157.47 51.2852 157.372 51.4257 157.303 51.5814C157.235 51.7371 157.198 51.9049 157.195 52.075Z" fill="#263238"/>
  <path d="M156.218 48.2954C156.391 48.4615 157.377 47.6779 158.815 47.6309C160.252 47.584 161.343 48.2701 161.483 48.0859C161.556 48.0065 161.379 47.6959 160.906 47.3637C160.269 46.9541 159.52 46.7522 158.764 46.7858C158.015 46.8086 157.293 47.0691 156.702 47.5298C156.276 47.9018 156.135 48.2232 156.218 48.2954Z" fill="#263238"/>
  <path d="M151.46 59.5185C151.46 59.4391 150.564 59.3163 149.109 59.1791C148.747 59.1538 148.386 59.0924 148.321 58.8468C148.256 58.6013 148.365 58.1823 148.527 57.7634C148.842 56.863 149.172 55.918 149.517 54.9285C150.885 50.8982 151.864 47.5866 151.701 47.5324C151.539 47.4782 150.297 50.7032 148.928 54.7371C148.599 55.7302 148.282 56.68 147.985 57.5865C147.859 58.0054 147.624 58.4893 147.845 59.031C147.902 59.1588 147.988 59.2718 148.095 59.3613C148.203 59.4508 148.33 59.5145 148.466 59.5474C148.671 59.5968 148.883 59.6186 149.094 59.6124C150.553 59.6269 151.456 59.6016 151.46 59.5185Z" fill="#263238"/>
  <path d="M152.786 64.764C153.12 65.0901 153.569 65.2717 154.035 65.2696C154.529 65.2586 154.998 65.0551 155.343 64.7026C155.964 64.132 156.083 63.2075 155.964 62.4166C155.946 62.2808 155.896 62.1511 155.819 62.0374C155.816 61.9646 155.801 61.8928 155.776 61.8244C155.693 61.612 155.568 61.4189 155.408 61.2568C155.247 61.0947 155.056 60.9671 154.844 60.8818C154.41 60.7127 153.932 60.6899 153.483 60.8168C153.114 60.9412 152.788 61.1665 152.541 61.4672C152.294 61.7679 152.136 62.1319 152.085 62.5177C152.019 62.9209 152.048 63.3338 152.17 63.7238C152.291 64.1137 152.502 64.4699 152.786 64.764Z" fill="#FF9A6C"/>
  <path d="M156.193 60.8004C155.969 60.7354 155.608 62.2449 154.051 63.025C152.495 63.805 150.917 63.2489 150.855 63.4583C150.812 63.5486 151.144 63.8375 151.827 64.0181C152.714 64.2392 153.651 64.142 154.474 63.7436C155.263 63.3583 155.872 62.6809 156.171 61.8549C156.381 61.2337 156.298 60.8184 156.193 60.8004Z" fill="#263238"/>
  <path d="M155.857 43.3268C156.013 43.7133 157.439 43.4785 159.136 43.623C160.834 43.7674 162.21 44.1827 162.419 43.8216C162.517 43.6519 162.264 43.2907 161.697 42.9332C160.946 42.4969 160.106 42.2376 159.24 42.175C158.373 42.1124 157.504 42.2482 156.699 42.5721C156.088 42.8285 155.789 43.1463 155.857 43.3268Z" fill="#263238"/>
  <path d="M142.498 42.8768C142.762 43.1946 143.74 42.819 144.932 42.7648C146.124 42.7106 147.139 42.9056 147.359 42.5553C147.456 42.3892 147.287 42.0642 146.835 41.7717C146.23 41.4223 145.535 41.2602 144.837 41.3059C144.14 41.3515 143.471 41.6028 142.917 42.0281C142.509 42.3928 142.382 42.7359 142.498 42.8768Z" fill="#263238"/>
  <path d="M171.685 53.0599C171.84 52.9876 178.048 50.9364 178.066 57.3393C178.084 63.7423 171.649 62.4422 171.638 62.258C171.627 62.0738 171.685 53.0599 171.685 53.0599Z" fill="#FFBF9D"/>
  <path d="M173.592 59.8482C173.617 59.8265 173.704 59.9241 173.891 60.0107C174.159 60.1186 174.458 60.1186 174.726 60.0107C175.401 59.7615 175.968 58.6854 175.997 57.5297C176.01 56.9807 175.902 56.4356 175.679 55.9335C175.618 55.7341 175.51 55.5524 175.363 55.404C175.216 55.2556 175.036 55.1449 174.838 55.0812C174.709 55.0468 174.573 55.0587 174.453 55.1148C174.333 55.171 174.236 55.2678 174.18 55.3882C174.094 55.5687 174.137 55.6951 174.101 55.706C174.065 55.7168 173.964 55.5976 174.014 55.3448C174.049 55.1859 174.139 55.0442 174.267 54.944C174.353 54.8773 174.452 54.8283 174.557 54.7998C174.663 54.7713 174.773 54.7639 174.881 54.7779C175.144 54.8292 175.39 54.9471 175.595 55.1203C175.8 55.2935 175.957 55.5163 176.051 55.7674C176.326 56.3209 176.46 56.9337 176.441 57.5514C176.405 58.8443 175.748 60.0505 174.823 60.3213C174.651 60.3723 174.47 60.3838 174.293 60.355C174.116 60.3263 173.948 60.258 173.801 60.1552C173.603 59.9855 173.57 59.8482 173.592 59.8482Z" fill="#FF9A6C"/>
  <path d="M163.697 37.8177C164.456 37.063 165.557 36.7885 166.615 36.6621C169.394 36.3317 172.209 36.7885 174.741 37.9803C176.059 38.605 177.33 39.4718 178.042 40.7466C178.753 42.0214 178.764 43.7657 177.76 44.8238C178.709 45.3808 179.421 46.2672 179.76 47.3145C180.098 48.3618 180.04 49.497 179.597 50.5044C179.153 51.5117 178.355 52.3211 177.354 52.7785C176.353 53.2359 175.219 53.3096 174.167 52.9855C174.118 53.4755 173.947 53.9452 173.667 54.3509C173.388 54.7565 173.011 55.0848 172.571 55.3052C172.13 55.5255 171.641 55.6307 171.149 55.6109C170.657 55.5911 170.178 55.447 169.757 55.192C169.318 54.9123 168.928 54.5607 168.605 54.152C167.381 52.581 167.258 49.6016 167.594 47.6515C166.952 47.6275 166.323 47.4585 165.755 47.157C165.187 46.8556 164.695 46.4295 164.315 45.9108C163.563 44.8656 163.068 43.6581 162.87 42.3861C162.553 40.7827 162.563 38.9517 163.697 37.8177Z" fill="#263238"/>
  <path d="M166.063 20.8659C166.5 20.9562 177.002 24.0728 179.139 32.1948C181.277 40.3168 180.335 42.7039 180.335 42.7039C180.732 42.9959 181.086 43.3424 181.386 43.7331C181.794 44.2857 180.978 46.745 179.605 46.3694C169.494 41.0679 157.215 39.7823 143.437 39.2947L132.928 38.4641C129.963 38.6122 128.981 37.7599 130.27 37.1026C131.26 36.6007 139.841 33.8019 139.841 33.8019L141.563 32.7184L146.305 26.9836C146.305 26.9836 145.825 26.1096 146.933 25.4849C148.042 24.8601 157.442 19.0783 166.063 20.8659Z" fill="#8354BE"/>
  <g opacity="0.3">
    <path d="M175.513 26.1935C175.513 26.1935 164.145 23.5717 158.836 25.7024L159.453 25.4424L154.448 27.2481C153.603 27.555 152.617 27.8476 151.852 27.3781C151.852 27.3781 154.603 25.2113 159.518 23.9112C164.434 22.6111 172.104 22.4233 175.513 26.1935Z" fill="black"/>
  </g>
  <path d="M175.666 26.2598C175.357 25.9949 175.028 25.7534 174.683 25.5376C173.746 24.9135 172.739 24.402 171.682 24.0136C170.116 23.4342 168.474 23.0863 166.807 22.9807C164.762 22.7967 162.702 23.0528 160.765 23.7319C159.776 24.1109 158.811 24.5499 157.876 25.0464C156.973 25.5267 156.07 25.942 155.272 26.426C154.534 26.9115 153.756 27.3343 152.947 27.6899C152.23 27.9621 151.46 28.0647 150.697 27.9897C147.869 27.8416 146.175 27.1446 146.312 26.9713C146.351 27.0746 146.427 27.1597 146.526 27.2096C146.792 27.3662 147.077 27.4876 147.374 27.5708C148.455 27.8786 149.567 28.0652 150.689 28.1269C151.472 28.2118 152.263 28.1129 153.001 27.838C153.82 27.4866 154.608 27.0649 155.355 26.5776C156.157 26.1046 157.053 25.6892 157.955 25.2125C158.883 24.7204 159.839 24.285 160.819 23.9088C162.731 23.2287 164.767 22.9652 166.789 23.136C168.442 23.2289 170.074 23.561 171.632 24.1219C172.684 24.4969 173.692 24.9875 174.636 25.5845C174.972 25.794 175.225 25.9709 175.395 26.0937C175.565 26.2165 175.666 26.2598 175.666 26.2598Z" fill="#263238"/>
  <g opacity="0.3">
    <path d="M179.926 35.576C177.868 35.4243 176.34 34.7851 174.325 34.2036C172.158 33.5825 170.042 33.0624 167.929 32.3402C166.322 31.7912 164.416 31.2568 163.426 30.0181C163.319 30.4153 163.316 30.8334 163.418 31.232C163.52 31.6305 163.723 31.9961 164.007 32.2932C164.593 32.9361 166.575 33.7847 167.399 34.07C172.093 35.6879 175.344 36.7785 180.266 37.4503C180.194 36.8187 180.081 36.1926 179.926 35.576Z" fill="black"/>
  </g>
  <path d="M178.862 31.3134C180.129 31.967 180.906 32.3968 180.87 33.5163C180.841 34.4444 180.577 35.564 179.656 35.6651C179.372 35.6775 179.088 35.6371 178.818 35.5459L164.788 31.7395C164.298 31.6635 163.85 31.4196 163.521 31.0497C163.094 30.425 163.492 29.5077 164.145 29.1249C164.799 28.7421 165.59 28.7638 166.352 28.7854C170.646 28.9913 174.777 29.9772 178.862 31.3134Z" fill="#8354BE"/>
  <path d="M163.725 31.2618C163.546 31.0863 163.421 30.8633 163.364 30.6189C163.308 30.2899 163.344 29.9517 163.468 29.6418C163.592 29.332 163.8 29.0627 164.068 28.8638C164.791 28.3871 165.852 28.286 166.957 28.4196C168.062 28.5532 169.344 28.7158 170.648 28.9288C172.878 29.273 175.073 29.8144 177.206 30.5467C178.023 30.832 178.651 31.1065 179.113 31.2943L179.626 31.5182C179.683 31.549 179.744 31.5721 179.807 31.5868C179.755 31.5477 179.7 31.515 179.64 31.4893L179.142 31.2329C178.705 31.0234 178.059 30.7309 177.25 30.4275C175.119 29.6574 172.917 29.0974 170.677 28.7555C169.366 28.5388 168.117 28.3943 166.972 28.2571C165.827 28.1199 164.726 28.2571 163.982 28.7627C163.698 28.9748 163.482 29.264 163.358 29.5957C163.235 29.9273 163.209 30.2876 163.285 30.6334C163.33 30.8183 163.418 30.9901 163.541 31.1354C163.667 31.2293 163.722 31.269 163.725 31.2618Z" fill="#263238"/>
  <path d="M144.832 28.7754L153.792 29.1835L152.871 31.6537L143.156 30.805L144.832 28.7754Z" fill="white"/>
  <path d="M157.79 37.6175C157.79 37.5669 153.85 36.7363 148.968 35.754C144.085 34.7717 140.116 34.0206 140.105 34.0675C140.095 34.1145 144.045 34.9487 148.932 35.931C153.818 36.9133 157.769 37.6644 157.79 37.6175Z" fill="#263238"/>
  <path d="M146.453 83.8511L148.981 79.2863L158.721 91.7455L172.296 74.9888L174.282 80.0989L163.752 98.5204L159.284 92.4642L158.223 92.6195L154.539 99.0224L146.453 83.8511Z" fill="#E0E0E0"/>
  <path d="M167.523 92.9862C167.44 93.1481 167.343 93.3028 167.234 93.4485C167.039 93.741 166.758 94.1708 166.422 94.698C165.537 96.0979 164.749 97.5567 164.064 99.0642L163.991 99.2195L163.897 99.075L163.619 98.6344C162.471 96.9046 161.301 95.4239 160.514 94.3008C160.113 93.7482 159.791 93.2932 159.596 92.9718C159.479 92.8111 159.377 92.6393 159.293 92.459C159.425 92.6063 159.546 92.7632 159.654 92.9285L160.618 94.2249C161.435 95.3084 162.623 96.7818 163.775 98.5261C163.872 98.6778 163.97 98.8258 164.056 98.9667H163.894C164.581 97.4518 165.39 95.9953 166.313 94.6114C166.675 94.0841 166.963 93.6688 167.177 93.3907C167.281 93.2464 167.397 93.1111 167.523 92.9862Z" fill="#263238"/>
  <path d="M178.539 45.939C178.639 46.0165 178.725 46.1091 178.796 46.2134C179.007 46.485 179.185 46.7808 179.327 47.0946C179.818 48.1389 179.933 49.3212 179.651 50.4404C179.369 51.5597 178.708 52.5468 177.781 53.2339C177.508 53.4415 177.211 53.616 176.896 53.754C176.783 53.814 176.661 53.8555 176.535 53.8768C176.939 53.6549 177.326 53.4051 177.694 53.1292C178.567 52.439 179.187 51.4803 179.459 50.4017C179.732 49.3231 179.641 48.1848 179.2 47.1632C179.009 46.7399 178.789 46.3308 178.539 45.939Z" fill="#41555F"/>
  <path d="M158.212 92.623C158.212 92.623 158.212 92.6699 158.165 92.753L158.003 93.1141C157.855 93.4355 157.642 93.9014 157.331 94.4828C156.512 96.062 155.601 97.5911 154.601 99.0621L154.529 99.2101L154.46 99.0837L152.217 94.9343C150.643 91.9946 149.22 89.333 148.18 87.3793C147.678 86.4259 147.27 85.6422 146.974 85.0825L146.656 84.4505C146.616 84.379 146.582 84.3041 146.555 84.2266C146.606 84.2903 146.651 84.3593 146.688 84.4324L147.049 85.0463L148.306 87.3179L152.362 94.8295C153.149 96.303 153.904 97.7186 154.59 98.9862H154.442C155.446 97.5245 156.375 96.0117 157.223 94.4539L157.945 93.1105L158.133 92.7494C158.153 92.7038 158.18 92.6613 158.212 92.623Z" fill="#263238"/>
  <path d="M120.625 113.82L115.429 128.713L107.643 119.656L97.2852 126.088L110.463 143.715C114.031 148.8 119.918 150.396 123.135 149.627C129.694 148.063 133.186 139.572 133.186 139.572L133.146 131.44L131.748 119.378L120.625 113.82Z" fill="#41555F"/>
  <path d="M120.82 98.5234C120.82 98.5234 140.831 120.264 144.937 124.247C146.894 126.147 151.033 128.696 151.033 128.696L144.829 129.419L120.82 98.5234Z" fill="#E0E0E0"/>
  <g opacity="0.3">
    <path d="M114.82 130.99C114.82 130.99 123.025 132.9 128.623 133.207C134.221 133.514 148.847 133.42 148.847 133.42L145.958 130.946L114.82 130.99Z" fill="black"/>
  </g>
  <path d="M119.469 95.7223L83.5938 94.8447L114.803 131.002L147.916 131.905L119.469 95.7223Z" fill="#263238"/>
  <path d="M104.028 109.159C104.03 108.927 103.983 108.697 103.892 108.485C103.8 108.272 103.664 108.081 103.494 107.924C103.325 107.766 103.124 107.646 102.905 107.571C102.686 107.496 102.453 107.467 102.222 107.486C101.695 107.526 101.005 107.591 100.157 107.707C97.9682 107.999 91.5544 111.416 91.4244 112.716C91.233 114.623 92.2189 115.323 92.2189 115.323C92.2189 115.323 91.0019 117.049 91.5183 118.429C91.9589 119.61 93.8837 119.956 93.8837 119.956C93.8837 119.956 92.5223 121.654 94.0246 122.781C94.5482 123.171 95.5955 123.918 95.8303 124.175C95.9347 124.525 96.0802 124.862 96.2636 125.179C96.6018 125.621 97.0315 125.985 97.5232 126.246C98.0149 126.507 98.5572 126.659 99.113 126.692L99.4741 126.713C100.18 126.755 100.877 126.529 101.424 126.081C103.905 124.048 110.919 118.172 111.012 116.605C111.012 116.605 112.349 115.489 111.767 114.388C111.186 113.286 109.16 113.842 109.16 113.842C109.434 113.61 109.627 113.295 109.709 112.944C109.79 112.594 109.758 112.226 109.615 111.896C109.102 110.737 105.473 110.961 103.837 111.231C102.529 111.445 98.8819 112.163 98.8819 112.163C98.8819 112.163 103.707 110.329 103.967 109.487C104 109.38 104.021 109.27 104.028 109.159Z" fill="#FFBF9D"/>
  <path d="M111.006 116.599C110.853 116.717 110.691 116.822 110.522 116.913C110.208 117.105 109.742 117.372 109.157 117.683C107.994 118.311 106.343 119.105 104.484 119.893C102.624 120.68 100.912 121.337 99.666 121.767C99.0449 121.987 98.5393 122.161 98.1854 122.273C98.0069 122.344 97.8218 122.397 97.6328 122.431C97.8037 122.343 97.9812 122.268 98.1637 122.208L99.6082 121.644C100.843 121.171 102.544 120.514 104.401 119.727C106.257 118.939 107.907 118.166 109.095 117.56C109.684 117.264 110.157 117.014 110.486 116.837C110.652 116.743 110.826 116.663 111.006 116.599Z" fill="#FF9A6C"/>
  <path d="M109.406 113.789C109.233 113.846 109.055 113.89 108.875 113.919C108.535 113.998 108.037 114.106 107.43 114.28C106.217 114.587 104.563 115.107 102.757 115.742C101.854 116.06 100.984 116.345 100.229 116.645C99.4744 116.945 98.7847 117.248 98.2068 117.512C97.629 117.776 97.1884 118.01 96.8779 118.169C96.7211 118.263 96.5568 118.344 96.3867 118.411C96.4204 118.378 96.458 118.349 96.4987 118.324C96.5745 118.274 96.6901 118.198 96.8417 118.108C97.1451 117.927 97.5893 117.678 98.1527 117.385C98.716 117.093 99.395 116.79 100.168 116.479C100.941 116.168 101.807 115.88 102.696 115.558C104.234 115.003 105.801 114.532 107.391 114.146C108.004 114.002 108.506 113.911 108.853 113.854C109.035 113.815 109.22 113.793 109.406 113.789Z" fill="#FF9A6C"/>
  <path d="M98.8726 112.158C98.6336 112.335 98.3756 112.484 98.1034 112.603C97.6122 112.852 96.9225 113.166 96.1641 113.509C95.4057 113.852 94.7195 114.184 94.2356 114.434C93.9808 114.584 93.7139 114.714 93.4375 114.82C93.6568 114.625 93.8994 114.457 94.1598 114.322C94.7802 113.963 95.4191 113.638 96.0738 113.347C96.8358 112.985 97.5183 112.704 98.0312 112.487C98.3001 112.35 98.5819 112.24 98.8726 112.158Z" fill="#FF9A6C"/>
  <path d="M108.795 119.541C108.7 119.682 108.591 119.813 108.47 119.931C108.249 120.177 107.921 120.52 107.502 120.928C106.668 121.755 105.44 122.813 104.121 124.016C103.793 124.315 103.482 124.626 103.157 124.9C102.844 125.164 102.518 125.411 102.179 125.641C101.605 126.033 100.974 126.332 100.308 126.529C99.8597 126.664 99.3922 126.722 98.9247 126.702C98.8035 126.698 98.6828 126.685 98.5636 126.663C98.4769 126.648 98.4336 126.637 98.4336 126.63C98.4336 126.612 98.6178 126.63 98.9428 126.63C99.4006 126.625 99.8549 126.549 100.29 126.406C100.933 126.194 101.541 125.889 102.096 125.5C102.425 125.275 102.743 125.034 103.049 124.778C103.367 124.507 103.674 124.196 104.006 123.893C105.328 122.687 106.566 121.646 107.422 120.848C107.852 120.451 108.192 120.126 108.426 119.895C108.539 119.766 108.662 119.648 108.795 119.541Z" fill="#FF9A6C"/>
  <path d="M109.199 94.4784L93.4496 94.2798C93.3732 94.2692 93.2955 94.2834 93.2277 94.3202C93.16 94.357 93.1058 94.4146 93.0731 94.4844C93.0404 94.5542 93.031 94.6326 93.0461 94.7082C93.0612 94.7838 93.1 94.8526 93.1571 94.9045L96.5879 98.9204L112.117 99.3899C112.189 99.3975 112.262 99.3832 112.325 99.3489C112.389 99.3146 112.441 99.2619 112.475 99.1976C112.508 99.1333 112.522 99.0605 112.513 98.9885C112.505 98.9165 112.475 98.8487 112.427 98.794L109.488 94.6373C109.456 94.5898 109.413 94.5506 109.362 94.5229C109.312 94.4953 109.256 94.48 109.199 94.4784Z" fill="#E0E0E0"/>
  <path d="M96.5037 99.0854L93.0224 95.0118C92.9523 94.9316 92.907 94.8327 92.8921 94.7272C92.8772 94.6217 92.8933 94.5142 92.9385 94.4177C92.9837 94.3212 93.056 94.24 93.1465 94.1839C93.2371 94.1278 93.342 94.0992 93.4485 94.1017L109.194 94.3003C109.281 94.3012 109.367 94.3225 109.444 94.3627C109.521 94.4029 109.588 94.4607 109.638 94.5315L112.578 98.6881C112.636 98.7709 112.67 98.868 112.677 98.9689C112.684 99.0698 112.663 99.1706 112.616 99.2604C112.57 99.3501 112.5 99.4254 112.413 99.478C112.327 99.5305 112.228 99.5584 112.127 99.5585L96.5037 99.0854ZM109.205 94.647L93.4593 94.4484C93.4198 94.448 93.381 94.4589 93.3475 94.4799C93.3141 94.5009 93.2873 94.5312 93.2706 94.567C93.2538 94.6028 93.2477 94.6426 93.253 94.6818C93.2583 94.721 93.2748 94.7578 93.3004 94.7879L96.6807 98.7423L112.145 99.2118C112.182 99.2123 112.218 99.202 112.25 99.1822C112.281 99.1623 112.306 99.1337 112.322 99.0998C112.342 99.068 112.353 99.031 112.353 98.9933C112.353 98.9556 112.342 98.9186 112.322 98.8868L109.385 94.7337C109.365 94.7056 109.338 94.6829 109.306 94.6678C109.275 94.6527 109.24 94.6456 109.205 94.647Z" fill="#263238"/>
  <path d="M122.5 138.905C122.55 138.226 122.559 137.545 122.525 136.865C122.406 135.222 121.848 133.64 120.911 132.286C119.974 130.931 118.69 129.852 117.195 129.162C116.57 128.887 115.929 128.654 115.273 128.465C115.321 128.459 115.37 128.459 115.418 128.465C115.508 128.483 115.645 128.497 115.819 128.544C116.314 128.66 116.797 128.821 117.263 129.024C118.804 129.694 120.127 130.78 121.084 132.161C122.041 133.542 122.594 135.162 122.68 136.839C122.711 137.343 122.694 137.848 122.63 138.349C122.614 138.485 122.591 138.62 122.561 138.753C122.548 138.807 122.527 138.858 122.5 138.905Z" fill="#263238"/>
  <path d="M175.883 109.998C175.883 109.998 183.741 129.46 187.306 136.48C191 143.757 196.486 155.949 207.486 149.575C216.482 144.36 208.331 116.975 208.331 116.975L200.234 120.634L188.259 101.472L175.883 109.998Z" fill="#41555F"/>
  <path d="M180.51 78.6683C180.465 78.5298 180.391 78.4025 180.292 78.295C180.194 78.1875 180.074 78.1023 179.94 78.0448C179.806 77.9874 179.661 77.9592 179.515 77.9621C179.37 77.965 179.226 77.9989 179.095 78.0616C178.26 78.4552 177.033 79.3978 176.744 81.5501C176.292 84.8834 176.913 87.2381 176.133 88.1084C175.353 88.9787 165.552 89.6757 164.794 91.1058C164.035 92.5359 164.494 93.7313 164.461 94.4355C164.448 94.6881 164.343 94.9271 164.165 95.1072C163.721 95.5623 162.97 96.5879 163.689 97.8266C163.779 97.9784 163.83 98.1505 163.837 98.3271C163.844 98.5038 163.807 98.6793 163.728 98.8378C163.439 99.4156 163.212 100.416 164.223 101.449C164.32 101.544 164.397 101.657 164.451 101.781C164.747 102.467 165.895 104.905 167.524 105.392C168.749 105.723 170.019 105.861 171.287 105.8C171.543 105.792 171.794 105.881 171.987 106.05C172.814 106.772 175.559 108.523 176.372 109.585C176.372 109.585 186.484 102.514 187.123 102.182C187.123 102.182 182.565 95.2264 182.334 92.0376C182.092 88.6357 179.951 84.674 180.528 81.4851C180.778 80.102 180.691 79.2208 180.51 78.6683Z" fill="#FFBF9D"/>
  <path d="M175.883 110.002C175.883 110.002 175.883 109.984 175.937 109.955L176.107 109.825L176.782 109.345L179.328 107.561L188.208 101.404L188.281 101.353L188.331 101.429C189.635 103.433 191.047 105.636 192.502 107.929L201.025 121.602C202.109 123.339 203.004 124.747 203.625 125.73L204.348 126.857L204.528 127.149C204.55 127.182 204.569 127.217 204.582 127.254C204.558 127.224 204.535 127.192 204.514 127.16L204.319 126.875C204.142 126.615 203.896 126.243 203.596 125.769C202.964 124.809 202.054 123.411 200.946 121.674C198.721 118.207 195.727 113.368 192.376 108.045C190.931 105.737 189.512 103.531 188.216 101.523L188.338 101.548L179.422 107.651L176.847 109.392L176.157 109.851L175.977 109.966L175.883 110.002Z" fill="#263238"/>
  <path d="M209.56 130.851C209.483 130.75 209.418 130.641 209.365 130.526C209.231 130.273 209.072 129.973 208.888 129.619C208.387 128.615 207.781 127.666 207.082 126.788C206.371 125.921 205.469 125.23 204.446 124.769C204.014 124.602 203.57 124.466 203.117 124.365C203.244 124.35 203.372 124.356 203.496 124.383C203.839 124.433 204.174 124.522 204.497 124.646C205.559 125.082 206.497 125.776 207.223 126.665C207.942 127.55 208.548 128.52 209.029 129.554C209.217 129.944 209.358 130.277 209.452 130.49C209.504 130.604 209.541 130.726 209.56 130.851Z" fill="#263238"/>
</svg>
