<svg width="252" height="200" viewBox="0 0 252 200" fill="none" xmlns="http://www.w3.org/2000/svg">
<path d="M52.502 117.486C58.1379 127.803 63.9106 133.498 59.2764 137.164C54.6422 140.83 28.501 140.381 25.793 127.279C23.0849 114.176 41.477 76.4702 48.444 84.7545C55.4109 93.0388 46.8664 107.168 52.502 117.486Z" fill="#FFEA17"/>
<path opacity="0.299" d="M55.9942 117.401C61.6301 127.719 67.4028 133.414 62.7686 137.08C58.1343 140.745 31.9932 140.297 29.2852 127.194C26.5771 114.092 44.9692 76.3858 51.9362 84.67C58.9031 92.9543 50.3586 107.084 55.9942 117.401Z" fill="#FFEA17"/>
<path d="M142.172 122.672C128.378 152.177 125.129 174.406 109.344 170.07C93.5596 165.734 51.6898 106.63 76.5042 79.0953C101.319 51.5606 215.672 30.7893 208.6 59.9315C201.529 89.0737 155.967 93.1676 142.172 122.672Z" fill="#52379D"/>
<path opacity="0.299" d="M148.094 130.322C134.3 159.827 131.051 182.056 115.266 177.721C99.4815 173.385 57.6117 114.28 82.4261 86.7457C107.24 59.211 221.594 38.4397 214.522 67.5819C207.451 96.7241 161.889 100.818 148.094 130.322Z" fill="#52379D"/>
</svg>
