<svg xmlns="http://www.w3.org/2000/svg" width="178" height="264" viewBox="0 0 178 264" fill="none">
<path d="M142.459 136.119C138.488 146.076 106.625 161.066 94.5095 148.765C82.3938 136.463 117.886 134.059 125.463 125.105C133.041 116.151 135.224 106.048 140.686 106.653C146.149 107.258 146.431 126.162 142.459 136.119Z" fill="#52379D"/>
<path opacity="0.299" d="M143.331 142.304C139.359 152.261 107.496 167.252 95.3806 154.95C83.2649 142.649 118.757 140.245 126.335 131.29C133.912 122.336 136.095 112.233 141.557 112.838C147.02 113.443 147.302 132.348 143.331 142.304Z" fill="#52379D"/>
<path d="M61.1064 128.136C89.5271 109.636 112.65 103.69 104.209 86.4819C95.7675 69.2732 22.1927 28.5759 -1.47124 59.1997C-25.1352 89.8235 -20.0877 219.916 9.55302 208.975C39.1937 198.034 32.6862 146.636 61.1064 128.136Z" fill="#FAEC57"/>
<path opacity="0.299" d="M70.8525 130.303C99.2732 111.803 122.396 105.858 113.955 88.6494C105.514 71.4407 31.9388 30.7434 8.27485 61.3672C-15.3891 91.991 -10.3416 222.084 19.2991 211.143C48.9398 200.202 42.4323 148.804 70.8525 130.303Z" fill="#FAEC57"/>
</svg>
