<svg xmlns="http://www.w3.org/2000/svg" width="120" height="178" viewBox="0 0 120 178" fill="none">
<path d="M104.447 177.252C104.187 177.345 103.901 177.21 103.807 176.95L102.284 172.716C102.191 172.456 102.326 172.17 102.585 172.076C102.845 171.983 103.132 172.118 103.225 172.378L104.579 176.142L108.343 174.788C108.603 174.694 108.889 174.829 108.983 175.089C109.076 175.349 108.941 175.635 108.681 175.729L104.447 177.252ZM0.927576 1.52177C2.28225 1.32369 3.64885 1.16592 5.02572 1.04781L5.11119 2.04415C3.75373 2.16059 2.40689 2.3161 1.07225 2.51125L0.927576 1.52177ZM13.2934 0.80743C16.0116 0.87709 18.7563 1.08933 21.5159 1.43969L21.3899 2.43173C18.6625 2.08544 15.9513 1.87587 13.2677 1.8071L13.2934 0.80743ZM29.6462 2.86025C32.3054 3.4503 34.9681 4.16299 37.6242 4.99448L37.3255 5.94881C34.6957 5.12556 32.0604 4.42025 29.4296 3.8365L29.6462 2.86025ZM45.3913 7.77224C47.9167 8.78893 50.4273 9.91147 52.914 11.1365L52.4721 12.0335C50.0074 10.8194 47.5197 9.7071 45.0178 8.69989L45.3913 7.77224ZM60.1727 15.0447C62.5278 16.4234 64.8524 17.8952 67.1386 19.4572L66.5744 20.2829C64.3074 18.734 62.0024 17.2746 59.6675 15.9076L60.1727 15.0447ZM73.7844 24.34C75.9306 26.0325 78.0328 27.8078 80.0834 29.6631L79.4125 30.4047C77.3786 28.5645 75.2937 26.8038 73.1651 25.1252L73.7844 24.34ZM86.0049 35.3954C87.9036 37.3616 89.7459 39.4018 91.525 41.5134L90.7603 42.1577C88.9959 40.0636 87.1687 38.0402 85.2856 36.09L86.0049 35.3954ZM96.6171 47.9933C98.232 50.1997 99.7793 52.4722 101.253 54.8084L100.407 55.3418C98.9459 53.0253 97.4115 50.7719 95.8102 48.5839L96.6171 47.9933ZM105.403 61.9299C106.695 64.3376 107.91 66.8039 109.042 69.3266L108.129 69.7359C107.008 67.235 105.803 64.7899 104.522 62.4028L105.403 61.9299ZM112.144 76.964C113.08 79.5269 113.931 82.1411 114.691 84.8045L113.729 85.0789C112.976 82.4388 112.132 79.8475 111.205 77.3069L112.144 76.964ZM116.665 92.8076C117.222 95.4722 117.689 98.1807 118.06 100.931L117.069 101.065C116.701 98.3384 116.238 95.6534 115.687 93.0121L116.665 92.8076ZM118.874 109.132C119.047 111.841 119.129 114.587 119.114 117.368L118.114 117.362C118.128 114.604 118.048 111.882 117.876 109.195L118.874 109.132ZM118.792 125.599C118.596 128.3 118.309 131.032 117.928 133.791L116.938 133.655C117.315 130.916 117.6 128.206 117.794 125.527L118.792 125.599ZM116.547 141.915C116.012 144.568 115.389 147.246 114.676 149.946L113.709 149.691C114.417 147.009 115.035 144.351 115.567 141.717L116.547 141.915ZM112.342 157.871C111.509 160.433 110.595 163.014 109.596 165.612L108.663 165.254C109.655 162.671 110.563 160.107 111.391 157.561L112.342 157.871ZM106.463 173.199C105.905 174.46 105.328 175.725 104.73 176.994L103.825 176.568C104.42 175.306 104.994 174.048 105.548 172.794L106.463 173.199Z" fill="#52379D" fill-opacity="0.5"/>
</svg>
