<svg width="97" height="165" viewBox="0 0 97 165" fill="none" xmlns="http://www.w3.org/2000/svg">
<path d="M43.016 0.500348C43.292 0.509555 43.5083 0.740746 43.4991 1.01674L43.3492 5.51424C43.34 5.79023 43.1088 6.0065 42.8328 5.9973C42.5568 5.9881 42.3405 5.7569 42.3497 5.48092L42.483 1.48314L38.4852 1.34989C38.2092 1.3407 37.9929 1.10951 38.0021 0.833517C38.0113 0.557529 38.2425 0.341246 38.5185 0.350453L43.016 0.500348ZM96.6478 164.658C95.2713 164.668 93.8863 164.643 92.4946 164.583L92.5377 163.584C93.9128 163.644 95.2809 163.668 96.6401 163.658L96.6478 164.658ZM84.1947 163.824C81.4754 163.447 78.7453 162.945 76.0181 162.322L76.2406 161.347C78.9405 161.964 81.6422 162.46 84.3321 162.833L84.1947 163.824ZM67.9889 160.14C65.3582 159.309 62.7429 158.37 60.1555 157.326L60.5298 156.399C63.0933 157.433 65.6842 158.364 68.2899 159.186L67.9889 160.14ZM52.5688 153.923C50.0896 152.696 47.6494 151.371 45.2603 149.953L45.7706 149.093C48.1378 150.498 50.5558 151.811 53.0124 153.027L52.5688 153.923ZM38.2751 145.436C36.0052 143.841 33.798 142.156 31.6655 140.386L32.304 139.617C34.4157 141.369 36.6017 143.038 38.8503 144.618L38.2751 145.436ZM25.487 134.811C23.5029 132.863 21.6067 130.833 19.8105 128.725L20.5717 128.076C22.3481 130.161 24.2241 132.17 26.1877 134.098L25.487 134.811ZM14.7147 122.143C13.1201 119.866 11.6395 117.514 10.2857 115.092L11.1586 114.604C12.4954 116.996 13.9579 119.319 15.5338 121.569L14.7147 122.143ZM6.61601 107.616C5.53291 105.067 4.58808 102.453 3.79401 99.7777L4.75267 99.4931C5.53572 102.131 6.46765 104.71 7.53634 107.224L6.61601 107.616ZM1.89173 91.6595C1.42309 88.9526 1.10778 86.1924 0.957054 83.3828L1.95562 83.3292C2.10422 86.0993 2.41508 88.8204 2.87707 91.4889L1.89173 91.6595ZM0.993835 75.0627C1.1619 72.346 1.48378 69.5898 1.96861 66.7973L2.95387 66.9684C2.47526 69.7251 2.1577 72.4448 1.99193 75.1244L0.993835 75.0627ZM3.8167 58.6813C4.55011 56.0769 5.42589 53.4451 6.4509 50.7884L7.38387 51.1484C6.36984 53.7766 5.504 56.3788 4.77927 58.9524L3.8167 58.6813ZM9.77417 43.1674C10.953 40.7436 12.2572 38.3015 13.6915 35.843L14.5552 36.3469C13.1332 38.7844 11.841 41.2042 10.6735 43.6048L9.77417 43.1674ZM18.1185 28.819C19.6312 26.5856 21.2525 24.3402 22.9861 22.084L23.7791 22.6933C22.0572 24.9342 20.4476 27.1634 18.9464 29.3798L18.1185 28.819ZM28.242 15.6164C30.0029 13.562 31.8581 11.4999 33.8101 9.43076L34.5375 10.117C32.596 12.1749 30.7515 14.2253 29.0013 16.2672L28.242 15.6164ZM39.5915 3.5612C40.5917 2.58708 41.6137 1.61163 42.6578 0.634934L43.3409 1.36522C42.3017 2.33739 41.2846 3.30821 40.2892 4.27759L39.5915 3.5612Z" fill="#52379D" fill-opacity="0.5"/>
</svg>
