<svg width="468" height="416" viewBox="0 0 468 416" fill="none" xmlns="http://www.w3.org/2000/svg">
<path d="M120.579 325.121C97.1762 303.075 84.9046 213.377 128.919 203.454C172.934 193.532 147.949 274.244 165.441 302.815C182.934 331.386 208.317 349.726 201.835 360.837C195.353 371.949 143.981 347.167 120.579 325.121Z" fill="#52379D"/>
<path opacity="0.299" d="M101.849 319.22C78.4457 297.173 66.1742 207.475 110.189 197.553C154.203 187.631 129.218 268.343 146.711 296.914C164.203 325.485 189.587 343.825 183.104 354.936C176.622 366.048 125.251 341.266 101.849 319.22Z" fill="#52379D"/>
<path d="M235.01 211.519C248.825 262.836 243.994 297.586 279.959 299.799C315.923 302.013 436.507 237.277 398.143 182.847C359.78 128.417 126.841 34.9838 126.507 82.0812C126.173 129.179 221.195 160.202 235.01 211.519Z" fill="#FAEC57"/>
<path opacity="0.299" d="M224.725 222.573C238.54 273.89 233.709 308.641 269.673 310.854C305.638 313.068 426.222 248.332 387.858 193.902C349.494 139.472 116.556 46.0385 116.222 93.1359C115.888 140.233 210.91 171.257 224.725 222.573Z" fill="#FAEC57"/>
</svg>
