<svg width="354" height="360" viewBox="0 0 354 360" fill="none" xmlns="http://www.w3.org/2000/svg">
<path d="M40.8041 159.012C47.9142 145.139 96.1489 128.425 112.046 148.307C127.942 168.19 76.154 165.974 63.9518 177.804C51.7497 189.634 47.2122 204.008 39.3743 202.245C31.5365 200.483 33.6942 172.884 40.8041 159.012Z" fill="#52379D"/>
<path opacity="0.299" d="M40.4877 149.912C47.5978 136.039 95.8325 119.325 111.729 139.207C127.626 159.09 75.8376 156.874 63.6354 168.704C51.4333 180.534 46.8958 194.908 39.0579 193.145C31.2201 191.383 33.3778 163.784 40.4877 149.912Z" fill="#52379D"/>
<path d="M157.551 183.178C113.528 205.669 79.0977 210.764 88.7138 237C98.3299 263.235 198.797 333.449 237.772 292.657C276.746 251.865 289.252 62.4869 244.611 73.8326C199.971 85.1783 201.574 160.686 157.551 183.178Z" fill="#FAEC57"/>
<path opacity="0.299" d="M143.754 178.551C99.7308 201.042 65.3009 206.138 74.917 232.373C84.5331 258.609 185 328.823 223.975 288.031C262.949 247.238 275.455 57.8605 230.815 69.2062C186.174 80.5519 187.777 156.06 143.754 178.551Z" fill="#FAEC57"/>
</svg>
