<svg width="191" height="190" viewBox="0 0 191 190" fill="none" xmlns="http://www.w3.org/2000/svg">
<path d="M95.5145 185.809C143.761 185.809 182.873 163.229 182.873 135.375C182.873 107.521 143.761 84.9414 95.5145 84.9414C47.2678 84.9414 8.15625 107.521 8.15625 135.375C8.15625 163.229 47.2678 185.809 95.5145 185.809Z" fill="#F5F5F5"/>
<path d="M98.2774 112.324L48.8774 140.855C47.4866 141.657 45.0774 141.558 43.4548 140.631L25.9102 130.504C24.3028 129.576 24.128 128.174 25.5302 127.372L74.9302 98.8419C76.321 98.0401 78.7302 98.1427 80.3528 99.0661L97.8936 109.193C99.4934 110.12 99.6796 111.523 98.2774 112.324Z" fill="#E0E0E0"/>
<path d="M125.435 150.283C144.549 150.283 160.045 141.337 160.045 130.302C160.045 119.267 144.549 110.322 125.435 110.322C106.32 110.322 90.8242 119.267 90.8242 130.302C90.8242 141.337 106.32 150.283 125.435 150.283Z" fill="#E0E0E0"/>
<path d="M93.5267 160.124C102.568 160.124 109.897 155.893 109.897 150.674C109.897 145.454 102.568 141.223 93.5267 141.223C84.4855 141.223 77.1562 145.454 77.1562 150.674C77.1562 155.893 84.4855 160.124 93.5267 160.124Z" fill="#E0E0E0"/>
<path d="M164.207 136.34C168.038 138.552 168.038 142.139 164.207 144.351C160.377 146.562 154.16 146.562 150.33 144.351C146.499 142.139 146.499 138.552 150.33 136.34C154.16 134.129 160.373 134.14 164.207 136.34Z" fill="#E0E0E0"/>
<path d="M157.578 118.028C155.382 132.198 141.105 147.2 119.236 143.013C119.02 142.975 118.803 142.933 118.59 142.887C118.138 142.792 117.682 142.694 117.226 142.58C94.2208 137.051 92.602 122.151 93.609 115.664C94.616 109.178 100.609 103.96 104.15 101.893C107.692 99.8258 112.081 97.485 116.116 90.9642C119.776 85.0362 125.651 81.487 134.41 82.0836L135.189 82.1444C135.816 82.2052 136.465 82.2888 137.127 82.3876C137.127 82.3876 162.609 85.5834 157.578 118.028Z" fill="#BA68C8"/>
<path opacity="0.6" d="M157.578 118.028C155.382 132.198 141.105 147.2 119.236 143.013C119.02 142.975 118.803 142.933 118.59 142.887C118.138 142.792 117.682 142.694 117.226 142.58C94.2208 137.051 92.602 122.151 93.609 115.664C94.616 109.178 100.609 103.96 104.15 101.893C107.692 99.8258 112.081 97.485 116.116 90.9642C119.776 85.0362 125.651 81.487 134.41 82.0836L135.189 82.1444C135.816 82.2052 136.465 82.2888 137.127 82.3876C137.127 82.3876 162.609 85.5834 157.578 118.028Z" fill="white"/>
<path d="M152.17 117.192C150.069 130.758 137.81 145.228 119.236 143.032C119.019 142.994 118.803 142.952 118.59 142.906C136.773 144.681 148.754 130.397 150.829 117.002C154.986 90.2042 139.809 83.5922 134.409 82.1026C133.911 81.962 133.497 81.8708 133.186 81.8062L133.908 81.9088C134.339 81.9703 134.766 82.0553 135.188 82.1634C139.999 83.3186 156.483 89.3947 152.17 117.192Z" fill="#BA68C8"/>
<path opacity="0.4" d="M152.17 117.192C150.069 130.758 137.81 145.228 119.236 143.032C119.019 142.994 118.803 142.952 118.59 142.906C136.773 144.681 148.754 130.397 150.829 117.002C154.986 90.2042 139.809 83.5922 134.409 82.1026C133.911 81.962 133.497 81.8708 133.186 81.8062L133.908 81.9088C134.339 81.9703 134.766 82.0553 135.188 82.1634C139.999 83.3186 156.483 89.3947 152.17 117.192Z" fill="white"/>
<path d="M139.473 116.371C139.473 116.371 151.694 88.0991 131.896 88.0991C131.896 88.0991 121.203 85.3669 116.559 98.5225C111.916 111.678 98.6992 108.262 98.6992 118.716C98.6992 125.043 101.416 132.244 103.673 136.933C105.558 138.195 107.563 139.268 109.658 140.136L109.746 140.075C109.746 140.075 110.536 133.532 115.305 130.332C120.074 127.133 130.729 123.994 134.233 121.353C137.543 118.864 144.368 119.707 145.47 121.436C144.9 120.239 142.756 116.018 139.473 116.371Z" fill="#BA68C8"/>
<path opacity="0.4" d="M139.473 116.371C139.473 116.371 151.694 88.0991 131.896 88.0991C131.896 88.0991 121.203 85.3669 116.559 98.5225C111.916 111.678 98.6992 108.262 98.6992 118.716C98.6992 125.043 101.416 132.244 103.673 136.933C105.558 138.195 107.563 139.268 109.658 140.136L109.746 140.075C109.746 140.075 110.536 133.532 115.305 130.332C120.074 127.133 130.729 123.994 134.233 121.353C137.543 118.864 144.368 119.707 145.47 121.436C144.9 120.239 142.756 116.018 139.473 116.371Z" fill="white"/>
<path d="M145.453 121.437C145.541 121.634 145.59 121.752 145.59 121.752C145.563 121.64 145.517 121.533 145.453 121.437Z" fill="#BA68C8"/>
<path d="M98.793 123.226L99.7354 137.712C99.7354 137.712 105.675 138.354 104.964 133.73C104.964 133.73 104.668 133.243 104.736 132.103C104.805 130.963 106.138 125.02 106.188 123.166L98.793 123.226Z" fill="#FFA8A7"/>
<path d="M99.5642 135.105L100.305 135.656L105.739 124.267L104.972 123.177L104.231 123.184L102.863 124.267L99.3438 131.727L99.5642 135.105Z" fill="#F28F8F"/>
<path d="M99.3739 137.765C99.3739 137.765 98.1465 135.382 99.9059 134.759C101.665 134.136 102.775 134.759 102.893 135.417C103.01 136.074 103.086 137.035 103.086 137.035C104.026 136.144 104.679 134.993 104.964 133.729C104.964 133.729 107.692 136.131 107.472 137.377C107.251 138.624 105.161 141.291 104.903 142.127C104.644 142.963 104.01 148.128 101.441 148.872C98.8723 149.617 95.2167 149.632 96.1211 146.706C96.4289 145.696 98.0211 144.51 98.3821 143.514C98.7431 142.519 99.3739 137.765 99.3739 137.765Z" fill="#BA68C8"/>
<path d="M103.925 145.855C103.482 144.839 102.71 144.003 101.732 143.481C100.755 142.96 99.6299 142.784 98.54 142.982C98.4868 143.21 98.4374 143.393 98.3956 143.514C98.0346 144.51 96.4424 145.695 96.1346 146.706C95.2378 149.647 98.8934 149.617 101.455 148.872C102.644 148.526 103.419 147.231 103.936 145.855H103.925Z" fill="#EBEBEB"/>
<path d="M107.17 136.275C107.207 136.418 107.215 136.567 107.193 136.712C106.946 138.012 104.719 140.771 104.438 141.652C104.156 142.534 103.415 147.911 100.717 148.656C99.4791 149.019 98.1802 149.129 96.8984 148.979C98.008 149.511 99.9156 149.321 101.458 148.88C104.027 148.12 104.666 142.975 104.92 142.135C105.175 141.295 107.272 138.631 107.489 137.385C107.51 136.99 107.397 136.599 107.17 136.275Z" fill="#263238"/>
<path d="M102.491 138.491C102.443 138.49 102.398 138.471 102.365 138.437C101.153 137.229 99.5114 137.898 99.443 137.924C99.4002 137.943 99.3519 137.943 99.3088 137.926C99.2657 137.908 99.2312 137.874 99.2131 137.831C99.195 137.789 99.1946 137.74 99.212 137.697C99.2295 137.654 99.2634 137.62 99.3062 137.601C99.3252 137.601 101.229 136.811 102.616 138.187C102.641 138.212 102.657 138.243 102.664 138.278C102.671 138.312 102.667 138.348 102.654 138.38C102.641 138.413 102.618 138.44 102.589 138.46C102.56 138.48 102.526 138.49 102.491 138.491Z" fill="#EBEBEB"/>
<path d="M102.34 139.84C102.317 139.84 102.295 139.836 102.274 139.827C102.253 139.819 102.234 139.806 102.218 139.79C101.002 138.582 99.3604 139.247 99.292 139.277C99.2706 139.287 99.2475 139.292 99.2241 139.292C99.2008 139.292 99.1776 139.288 99.156 139.279C99.1344 139.27 99.1148 139.257 99.0983 139.24C99.0819 139.224 99.0689 139.204 99.0602 139.182C99.0424 139.139 99.0424 139.09 99.0602 139.047C99.078 139.004 99.1121 138.969 99.1552 138.951C99.1552 138.951 101.082 138.16 102.465 139.539C102.498 139.572 102.516 139.617 102.516 139.663C102.516 139.709 102.498 139.754 102.465 139.786C102.449 139.804 102.43 139.818 102.408 139.827C102.386 139.836 102.363 139.84 102.34 139.84Z" fill="#EBEBEB"/>
<path d="M102.141 141.17C102.118 141.17 102.095 141.166 102.074 141.158C102.052 141.149 102.032 141.137 102.016 141.12C100.8 139.908 99.162 140.577 99.0936 140.607C99.0512 140.621 99.0051 140.619 98.9645 140.6C98.9238 140.582 98.8915 140.549 98.8739 140.508C98.8563 140.467 98.8546 140.421 98.8693 140.379C98.8839 140.337 98.9137 140.302 98.953 140.281C98.972 140.281 100.88 139.49 102.263 140.87C102.28 140.885 102.294 140.904 102.303 140.926C102.312 140.947 102.317 140.97 102.317 140.993C102.317 141.016 102.312 141.039 102.303 141.061C102.294 141.082 102.28 141.101 102.263 141.117C102.247 141.133 102.229 141.147 102.208 141.156C102.187 141.165 102.164 141.17 102.141 141.17Z" fill="#EBEBEB"/>
<path d="M101.866 142.519C101.818 142.519 101.773 142.499 101.74 142.466C100.524 141.257 98.8864 141.926 98.818 141.953C98.7968 141.962 98.774 141.967 98.751 141.967C98.728 141.967 98.7051 141.963 98.6838 141.954C98.6624 141.945 98.643 141.932 98.6266 141.916C98.6102 141.9 98.5971 141.881 98.5881 141.86C98.5791 141.839 98.5744 141.816 98.5742 141.793C98.574 141.77 98.5784 141.747 98.587 141.726C98.5957 141.704 98.6085 141.685 98.6246 141.668C98.6408 141.652 98.66 141.639 98.6812 141.63C98.7002 141.63 100.604 140.836 101.991 142.215C102.016 142.24 102.032 142.272 102.039 142.306C102.046 142.341 102.042 142.376 102.029 142.409C102.016 142.441 101.993 142.469 101.964 142.488C101.935 142.508 101.901 142.519 101.866 142.519Z" fill="#EBEBEB"/>
<path d="M124.438 111.161L118.7 114.133L108.307 119.525C107.843 119.767 107.432 120.099 107.098 120.502C106.764 120.904 106.513 121.369 106.361 121.87C106.252 122.225 106.195 122.593 106.19 122.964V123.166C105.958 123.326 105.716 123.471 105.464 123.599C104.657 124.009 103.77 124.237 102.865 124.268C101.44 124.293 100.034 123.933 98.7954 123.226C98.7954 123.226 98.7574 121.509 98.6852 118.716C98.613 115.923 101.007 114.612 103.2 112.978C105.392 111.344 117.161 106.351 117.161 106.351L124.438 111.161Z" fill="#455A64"/>
<path d="M117.16 113.126L123.525 111.21L124.437 112.107L117.685 114.661L117.16 113.126Z" fill="#37474F"/>
<path d="M119.23 114.608L106.359 121.87L106.219 121.949L105.459 123.599C104.651 124.009 103.764 124.237 102.859 124.267L104.269 121.303C104.611 120.585 105.164 119.988 105.854 119.593L117.155 113.133C117.155 113.133 117.071 111.233 117.451 110.413C117.451 110.413 117.516 112.799 118.694 114.14C118.85 114.321 119.03 114.478 119.23 114.608Z" fill="#37474F"/>
<path d="M101.96 128.06L93.733 145.391C93.733 145.391 93.0869 148.899 95.3669 148.899C97.6469 148.899 98.0269 147.732 98.0269 147.732C98.0269 147.732 98.2436 146.262 100.189 143.552C102.135 140.843 108.146 135.572 109.438 131.81L101.96 128.06Z" fill="#FFA8A7"/>
<path d="M135.455 113.392C135.455 113.392 134.315 118.377 132.175 120.103C130.036 121.828 128.284 122.994 121.098 124.514C116.371 125.51 113.289 126.346 111.735 126.794C111.381 126.897 111.062 127.095 110.813 127.366C110.564 127.638 110.394 127.972 110.321 128.333C110.092 129.488 109.801 130.63 109.447 131.753C109.447 131.753 104.739 131.909 101.977 128.01L104.709 122.782C105.416 121.423 106.473 120.278 107.772 119.464C110.965 117.432 114.274 115.587 117.682 113.939C123.264 111.344 124.024 110.869 124.024 110.869L135.455 113.392Z" fill="#455A64"/>
<path d="M117.257 94.1906L111.938 102.505L115.969 106.351L121.977 97.0862C121.977 97.0862 120.199 93.9892 117.257 94.1906Z" fill="#FFA8A7"/>
<path d="M117.258 94.1904C117.258 94.1904 120.45 95.0226 121.198 97.086L127.624 89.3188L126.591 85.5454C125.661 85.3946 124.709 85.4908 123.828 85.8242C122.948 86.1577 122.171 86.7168 121.575 87.4454C120.176 89.0984 117.258 94.1904 117.258 94.1904Z" fill="#BA68C8"/>
<path opacity="0.2" d="M117.258 94.1904C117.258 94.1904 120.45 95.0226 121.198 97.086L127.624 89.3188L126.591 85.5454C125.661 85.3946 124.709 85.4908 123.828 85.8242C122.948 86.1577 122.171 86.7168 121.575 87.4454C120.176 89.0984 117.258 94.1904 117.258 94.1904Z" fill="black"/>
<path d="M128.094 67.2028C128.094 67.2028 126.574 65.9488 124.807 67.8868C123.04 69.8248 124.666 75.4868 122.086 75.1828C122.086 75.1828 123.781 76.9992 125.472 75.7224C125.533 75.6764 125.603 75.644 125.677 75.6274C126.342 75.4982 126.954 76.6952 127.22 77.1208C127.957 78.2912 128.595 79.5148 129.333 80.6814C130.07 81.848 130.997 83.4744 132.205 84.204C133.638 85.0742 135.793 84.9412 137.259 84.2648C139.638 83.1704 141.295 80.6396 142.123 78.2342C142.503 77.1702 142.83 75.9048 142.69 74.78C142.465 73.0016 141.147 72.3746 141.139 72.4582C141.139 72.4582 141.705 67.9438 135.819 66.8304C130.343 65.7892 128.094 67.2028 128.094 67.2028Z" fill="#263238"/>
<path d="M135.905 81.6772L135.285 87.1568L137.075 87.9168C137.075 87.9168 128.335 92.3096 126.317 91.6408C124.3 90.972 128.464 85.6824 128.464 85.6824L129.475 85.8078L129.608 83.2694L135.905 81.6772Z" fill="#FFA8A7"/>
<path d="M134.284 82.7222L131.913 82.688L129.607 83.2732L129.508 85.0934C133.266 84.2498 134.284 82.7222 134.284 82.7222Z" fill="#FF9090"/>
<path d="M128.082 69.418C128.082 69.418 125.567 70.558 124.928 75.954C124.29 81.35 125.198 83.8466 128.588 83.8466C131.312 83.8466 134.527 83.4666 135.903 81.6768C136.237 81.236 136.921 70.6264 134.048 69.1368C131.176 67.6472 128.082 69.418 128.082 69.418Z" fill="#FFA8A7"/>
<path d="M128.082 68.9431C128.082 68.9431 127.964 74.7039 134.512 76.4937C134.512 76.4937 134.037 79.5337 135.88 79.5337H137.677V74.2137C137.677 72.6092 137.04 71.0705 135.905 69.9359C134.771 68.8014 133.232 68.1641 131.628 68.1641H128.892C128.679 68.1651 128.476 68.2499 128.326 68.4C128.176 68.5502 128.091 68.7535 128.09 68.9659L128.082 68.9431Z" fill="#263238"/>
<path d="M128.513 75.7222V79.0054L126.59 78.4164L128.513 75.7222Z" fill="#FF9090"/>
<path d="M130.502 77.3413C130.777 77.3413 131 77.1184 131 76.8435C131 76.5686 130.777 76.3457 130.502 76.3457C130.227 76.3457 130.004 76.5686 130.004 76.8435C130.004 77.1184 130.227 77.3413 130.502 77.3413Z" fill="#263238"/>
<path d="M127.234 75.9998C127.234 76.0993 127.206 76.1968 127.151 76.2799C127.096 76.3629 127.018 76.4278 126.926 76.4662C126.834 76.5047 126.733 76.5149 126.635 76.4957C126.537 76.4765 126.448 76.4286 126.377 76.3582C126.307 76.2879 126.259 76.1981 126.24 76.1005C126.221 76.0028 126.231 75.9017 126.269 75.8099C126.308 75.718 126.373 75.6397 126.456 75.5849C126.539 75.5301 126.636 75.5012 126.736 75.502C126.868 75.502 126.994 75.5544 127.088 75.6478C127.181 75.7411 127.234 75.8677 127.234 75.9998Z" fill="#263238"/>
<path d="M126.113 74.1455L127.356 73.7883C127.356 73.7883 127.056 73.2525 126.577 73.4083C126.098 73.5641 126.113 74.1455 126.113 74.1455Z" fill="#263238"/>
<path d="M135.831 79.04C135.809 78.4966 135.909 77.9552 136.124 77.4554C136.229 77.1441 136.422 76.8703 136.681 76.6677C136.939 76.4652 137.252 76.3427 137.579 76.3154C139.255 76.2698 139.479 77.8848 139.46 78.4586C139.399 79.9786 138.176 81.6012 135.903 81.662L135.831 79.04Z" fill="#FFAAA8"/>
<path d="M128.465 85.686L126.592 85.5454C126.592 85.5454 119.581 90.7628 120.029 94.3842C120.295 96.5122 120.945 97.7054 121.371 98.2754C121.492 98.4442 121.576 98.6368 121.617 98.8406C121.659 99.0443 121.656 99.2545 121.61 99.4572C121.355 100.597 120.797 102.725 120.01 103.725C119.169 104.711 118.212 105.593 117.16 106.35C117.16 106.35 119.281 110.23 123.362 112.244C127.443 114.258 134.021 114.441 135.457 113.384L137.357 102.505L138.3 88.479L136.726 87.757C136.726 87.757 129.199 91.2948 126.846 91.0896C125.638 90.9908 128.465 85.686 128.465 85.686Z" fill="#BA68C8"/>
<path opacity="0.2" d="M125.406 99.1001C126.46 99.875 127.743 100.276 129.05 100.24C130.389 100.267 131.691 99.7987 132.706 98.9253C132.706 98.9253 131.707 100.791 128.997 100.791C126.288 100.791 125.406 99.1001 125.406 99.1001Z" fill="black"/>
<path d="M134.112 101.137L132.991 106.054C130.685 105.535 128.352 105.143 126.003 104.88C121.785 104.39 120.941 104.12 120.941 104.12L121.204 108.703C121.204 108.703 126.315 110.755 130.996 111.431C135.678 112.107 136.92 111.933 138.125 108.125C139.33 104.317 139.767 102.805 139.767 102.805L134.112 101.137Z" fill="#FFA8A7"/>
<path d="M138.282 88.4868C138.282 88.4868 134.797 90.991 135.185 96.558C135.185 96.558 134.223 100.738 134.109 101.118C134.109 101.118 136.154 102.722 139.764 102.775L142.074 94.4376C142.328 93.541 142.291 92.5872 141.971 91.7124C141.65 90.8376 141.061 90.0864 140.288 89.566C139.651 89.1509 138.98 88.7899 138.282 88.4868Z" fill="#BA68C8"/>
<path opacity="0.2" d="M138.282 88.4868C138.282 88.4868 134.797 90.991 135.185 96.558C135.185 96.558 134.223 100.738 134.109 101.118C134.109 101.118 136.154 102.722 139.764 102.775L142.074 94.4376C142.328 93.541 142.291 92.5872 141.971 91.7124C141.65 90.8376 141.061 90.0864 140.288 89.566C139.651 89.1509 138.98 88.7899 138.282 88.4868Z" fill="black"/>
<path d="M120.173 110.367L120.066 109.877L117.961 100.057C117.961 100.057 118.117 99.7421 118.227 99.5103C118.287 99.5484 118.342 99.5944 118.39 99.6471C118.501 99.7692 118.579 99.9167 118.618 100.076L120.765 109.375L120.8 109.512C120.933 110.089 120.173 110.367 120.173 110.367Z" fill="#37474F"/>
<path d="M118.391 99.6472L117.962 100.058L112.82 98.3362L112.395 98.1956L112.626 97.9714C112.663 97.9321 112.705 97.8988 112.752 97.8726C112.832 97.8215 112.922 97.7871 113.016 97.7714C113.11 97.7557 113.206 97.7591 113.299 97.7814L118.003 99.3926C118.151 99.4444 118.285 99.5319 118.391 99.6472Z" fill="#455A64"/>
<path d="M112.321 98.4501L114.662 107.806C114.71 107.998 114.805 108.176 114.937 108.325C115.07 108.473 115.236 108.587 115.422 108.657L119.875 110.378C119.941 110.406 120.012 110.415 120.082 110.404C120.153 110.393 120.218 110.363 120.272 110.317C120.326 110.27 120.366 110.21 120.387 110.142C120.408 110.075 120.41 110.002 120.392 109.934L118.207 100.498C118.172 100.341 118.097 100.195 117.989 100.074C117.881 99.9538 117.744 99.863 117.592 99.8105L112.678 98.1309C112.632 98.1133 112.582 98.1088 112.533 98.1178C112.485 98.1268 112.439 98.149 112.403 98.1819C112.366 98.2148 112.339 98.2573 112.324 98.3046C112.31 98.3519 112.309 98.4022 112.321 98.4501Z" fill="#263238"/>
<path d="M98.0184 147.725C97.6404 147.955 97.2167 148.099 96.7769 148.149C96.3372 148.198 95.892 148.15 95.4724 148.01C95.4724 148.01 96.0918 146.418 94.9214 145.73C93.751 145.042 92.6034 145.042 92.3032 146.026L91.9992 147.01C91.9992 147.01 89.058 149.317 87.9522 150.024C86.8464 150.731 85.79 151.263 84.9654 151.795C84.1408 152.327 82.0204 153.869 83.8558 155.811C85.6912 157.753 91.148 156.754 92.5312 154.538C93.9144 152.323 97.9044 153.398 97.9044 150.715C97.9044 148.033 98.0184 147.725 98.0184 147.725Z" fill="#BA68C8"/>
<path d="M87.4424 150.335C86.5266 150.89 85.6602 151.339 84.9648 151.787C84.144 152.315 82.0198 153.862 83.8552 155.804C85.265 157.301 88.8218 157.05 91.0182 155.845C91.0904 151.38 88.3696 150.598 87.4424 150.335Z" fill="#EBEBEB"/>
<path d="M92.6363 153.85C91.1771 156.183 85.4163 157.24 83.4973 155.192C83.4099 155.1 83.3339 155.009 83.2617 154.918C83.4013 155.248 83.6024 155.549 83.8545 155.803C85.6899 157.749 91.1467 156.746 92.5299 154.53C93.8485 152.425 97.5155 153.303 97.8727 151.076C96.7707 152.349 93.8143 151.969 92.6363 153.85Z" fill="#263238"/>
<path d="M94.2405 149.412C94.1991 149.412 94.1591 149.398 94.1272 149.371C94.0954 149.345 94.0736 149.308 94.0657 149.268C93.7617 147.573 91.9795 147.178 91.9605 147.174C91.9149 147.164 91.875 147.136 91.8495 147.097C91.8239 147.058 91.8147 147.011 91.8237 146.965C91.8337 146.919 91.8612 146.879 91.9003 146.854C91.9394 146.828 91.9869 146.819 92.0327 146.828C92.0555 146.828 94.0657 147.28 94.4153 149.203C94.423 149.249 94.4122 149.297 94.3852 149.335C94.3582 149.374 94.3171 149.4 94.2709 149.408L94.2405 149.412Z" fill="#EBEBEB"/>
<path d="M93.26 150.183C93.2187 150.183 93.1786 150.169 93.1468 150.142C93.1149 150.116 93.0931 150.08 93.0852 150.039C92.7812 148.348 90.999 147.953 90.98 147.949C90.9344 147.939 90.8946 147.911 90.869 147.872C90.8434 147.833 90.8342 147.786 90.8432 147.74C90.8477 147.717 90.8568 147.695 90.8698 147.676C90.8828 147.657 90.8995 147.64 90.919 147.628C90.9384 147.615 90.9603 147.606 90.9831 147.602C91.006 147.598 91.0295 147.598 91.0522 147.603C91.075 147.603 93.0852 148.052 93.4348 149.974C93.4392 149.997 93.4389 150.021 93.4339 150.044C93.429 150.067 93.4195 150.088 93.406 150.108C93.3926 150.127 93.3754 150.143 93.3555 150.155C93.3357 150.168 93.3135 150.176 93.2904 150.18L93.26 150.183Z" fill="#EBEBEB"/>
<path d="M92.139 151.054C92.0977 151.054 92.0576 151.039 92.0258 151.013C91.9939 150.986 91.9721 150.95 91.9642 150.909C91.6602 149.222 89.935 148.834 89.859 148.819C89.8131 148.808 89.7732 148.78 89.7477 148.74C89.7222 148.701 89.7131 148.653 89.7222 148.606C89.7272 148.584 89.7365 148.563 89.7497 148.544C89.7629 148.525 89.7797 148.509 89.7991 148.497C89.8185 148.484 89.8402 148.476 89.8628 148.472C89.8855 148.468 89.9087 148.468 89.9312 148.473C89.954 148.473 91.9642 148.922 92.3138 150.845C92.3182 150.868 92.3179 150.891 92.3129 150.914C92.308 150.937 92.2985 150.959 92.285 150.978C92.2715 150.997 92.2544 151.013 92.2345 151.026C92.2147 151.038 92.1925 151.046 92.1694 151.05L92.139 151.054Z" fill="#EBEBEB"/>
<path d="M91.182 151.776C91.1406 151.775 91.1006 151.76 91.0693 151.733C91.038 151.706 91.0173 151.668 91.011 151.627C90.707 149.944 88.978 149.553 88.9058 149.537C88.8602 149.527 88.8204 149.5 88.7948 149.461C88.7692 149.422 88.76 149.374 88.769 149.328C88.7735 149.306 88.7825 149.284 88.7956 149.265C88.8086 149.245 88.8253 149.229 88.8448 149.216C88.8642 149.203 88.886 149.195 88.9089 149.19C88.9318 149.186 88.9553 149.187 88.978 149.192C88.978 149.192 91.011 149.644 91.3568 151.567C91.3612 151.589 91.361 151.613 91.3563 151.635C91.3516 151.658 91.3425 151.679 91.3294 151.699C91.3163 151.718 91.2996 151.734 91.2801 151.747C91.2607 151.759 91.239 151.768 91.2162 151.772L91.182 151.776Z" fill="#EBEBEB"/>
<path d="M128.086 79.7996C128.759 79.844 129.427 79.6636 129.986 79.2866C129.986 79.2866 130.115 80.2936 129.275 80.4836C128.436 80.6736 128.086 79.7996 128.086 79.7996Z" fill="#FF9090"/>
<path d="M113.006 102.915C112.915 102.779 112.956 102.592 112.915 102.372C112.827 101.981 112.677 101.606 112.47 101.262C112.39 101.07 112.258 100.903 112.09 100.78C112.002 100.721 111.896 100.696 111.792 100.709C111.687 100.722 111.59 100.773 111.52 100.852C111.463 100.953 111.435 101.067 111.44 101.183C111.398 101.708 111.443 102.237 111.573 102.748C111.695 103.128 111.455 103.626 111.402 103.998C111.315 104.58 111.543 104.823 111.68 105.401C111.995 106.708 113.055 107.301 114.34 107.061C117 106.575 116.901 103.01 116.544 102.52C116.186 102.03 115.578 101.737 114.549 102.592C114.214 102.87 113.659 103.227 113.192 103.052C113.117 103.028 113.051 102.98 113.006 102.915Z" fill="#FFA8A7"/>
<path d="M121.963 104.477C121.332 103.341 120.303 102.477 119.075 102.053L119.455 103.634C119.455 103.634 117.604 103.991 116.434 103.782C115.263 103.573 113.116 102.216 113.458 103.759C113.8 105.302 114.146 106.32 115.028 107.019C115.959 107.809 117.102 108.306 118.315 108.448C119.58 108.547 121.218 108.707 121.218 108.707L121.963 104.477Z" fill="#FFA8A7"/>
<path d="M115.011 107.107C114.992 107.106 114.973 107.1 114.958 107.088C114.069 106.381 113.708 105.382 113.354 103.778C113.278 103.432 113.316 103.197 113.472 103.064C113.791 102.782 114.513 103.064 115.281 103.333C115.65 103.49 116.031 103.617 116.421 103.713C116.591 103.741 116.762 103.758 116.934 103.767C116.957 103.767 116.979 103.776 116.996 103.792C117.012 103.809 117.021 103.831 117.021 103.854C117.021 103.877 117.012 103.899 116.996 103.916C116.979 103.932 116.957 103.941 116.934 103.941C116.754 103.936 116.575 103.917 116.398 103.884C115.994 103.79 115.599 103.663 115.216 103.504C114.563 103.261 113.825 102.988 113.582 103.2C113.483 103.288 113.464 103.47 113.521 103.744C113.867 105.306 114.213 106.282 115.06 106.951C115.077 106.968 115.085 106.99 115.085 107.014C115.085 107.037 115.077 107.059 115.06 107.076C115.048 107.092 115.031 107.103 115.011 107.107Z" fill="#FF9090"/>
<path d="M140.954 72.5798C141.73 72.1382 142.614 71.922 143.506 71.9555C144.398 71.9891 145.264 72.2711 146.004 72.7698C146.733 73.2859 147.338 73.9584 147.774 74.7381C148.21 75.5179 148.466 76.3851 148.524 77.2766C148.801 80.9588 147.41 82.0304 146.008 86.4422C145.548 87.8862 146.008 89.5924 149.683 91.291C149.683 91.291 140.145 93.1378 141.779 83.5542C142.964 76.6002 140.426 76.8586 140.426 76.8586L140.954 72.5798Z" fill="#263238"/>
<path d="M159.019 129.991C159.019 129.991 154.242 125.324 156.963 117.508C158.483 113.126 163.537 109.908 166.413 109.607C165.459 110.741 164.699 112.025 164.164 113.407L160.542 115.817L163.871 114.775L163.164 117.625C163.164 117.625 160.067 119.495 159.608 119.905L162.944 119.031C162.944 119.031 162.689 127.091 159.019 129.991Z" fill="#BA68C8"/>
<path opacity="0.4" d="M159.019 129.991C159.019 129.991 154.242 125.324 156.963 117.508C158.483 113.126 163.537 109.908 166.413 109.607C165.459 110.741 164.699 112.025 164.164 113.407L160.542 115.817L163.871 114.775L163.164 117.625C163.164 117.625 160.067 119.495 159.608 119.905L162.944 119.031C162.944 119.031 162.689 127.091 159.019 129.991Z" fill="black"/>
<path d="M159.018 129.991C159.018 129.991 156.545 120.225 160.208 114.532C160.208 114.532 155.921 119.556 159.018 129.991Z" fill="white"/>
<path d="M164.488 131.313L158.64 131.241H158.579L152.735 131.313C152.735 131.313 152.67 138.514 154.885 141.448C155.501 142.208 156.937 142.774 158.609 142.774C160.281 142.774 161.725 142.223 162.337 141.444C164.553 138.51 164.488 131.313 164.488 131.313Z" fill="#37474F"/>
<path d="M158.609 134.467C161.854 134.467 164.484 133.055 164.484 131.313C164.484 129.571 161.854 128.159 158.609 128.159C155.365 128.159 152.734 129.571 152.734 131.313C152.734 133.055 155.365 134.467 158.609 134.467Z" fill="#455A64"/>
<path d="M158.611 130.477C160.633 130.477 162.347 131.123 162.947 132.023C163.096 131.816 163.178 131.568 163.182 131.313C163.182 130.066 161.138 129.056 158.622 129.056C156.107 129.056 154.062 130.066 154.062 131.313C154.067 131.568 154.149 131.816 154.298 132.023C154.876 131.123 156.59 130.477 158.611 130.477Z" fill="#263238"/>
<path d="M158.609 130.477C156.588 130.477 154.874 131.123 154.273 132.024C154.874 132.92 156.588 133.57 158.609 133.57C160.631 133.57 162.345 132.92 162.945 132.024C162.345 131.123 160.631 130.477 158.609 130.477Z" fill="#E0E0E0"/>
<path d="M158.683 132.411C158.683 132.411 156.403 132.324 154.476 129.318C153.675 128.076 153.287 127.418 153.287 127.418L156.445 127.183L152.907 126.297L151.239 123.744L154.172 123.523C154.172 123.523 151.987 122.763 150.426 122.763C150.426 122.763 147.72 117.983 146.926 117.299C148.974 117.426 150.975 117.962 152.813 118.876C154.65 119.79 156.286 121.063 157.623 122.619C162.073 127.867 159.34 132.548 158.683 132.411Z" fill="#BA68C8"/>
<path d="M158.681 132.411C158.681 132.411 160.099 123.88 151.059 118.75C151.059 118.75 160.441 123.257 158.681 132.411Z" fill="white"/>
<path d="M158.682 132.411C158.682 132.411 160.734 132.544 162.771 130.013C163.611 128.972 164.018 128.421 164.018 128.421L161.194 127.912L164.466 127.445L166.214 125.298L163.588 124.826C163.588 124.826 165.633 124.34 167.042 124.477C167.042 124.477 169.934 120.418 170.713 119.879C168.853 119.801 166.997 120.097 165.253 120.75C163.51 121.403 161.915 122.399 160.563 123.679C156.053 127.992 158.074 132.472 158.682 132.411Z" fill="#BA68C8"/>
<path opacity="0.2" d="M158.682 132.411C158.682 132.411 160.734 132.544 162.771 130.013C163.611 128.972 164.018 128.421 164.018 128.421L161.194 127.912L164.466 127.445L166.214 125.298L163.588 124.826C163.588 124.826 165.633 124.34 167.042 124.477C167.042 124.477 169.934 120.418 170.713 119.879C168.853 119.801 166.997 120.097 165.253 120.75C163.51 121.403 161.915 122.399 160.563 123.679C156.053 127.992 158.074 132.472 158.682 132.411Z" fill="black"/>
<path d="M158.683 132.411C158.683 132.411 158.2 124.579 166.845 120.802C166.845 120.802 157.957 123.987 158.683 132.411Z" fill="white"/>
<path d="M40.1666 132.168L78.8392 109.843C81.5676 108.266 83.7792 104.041 83.7792 100.404V17.5906C83.7792 13.954 81.5676 12.2706 78.8392 13.859L40.1666 36.184C37.4382 37.761 35.2266 41.9866 35.2266 45.6232V128.44C35.2266 132.073 37.4382 133.76 40.1666 132.168Z" fill="#455A64"/>
<path d="M35.7134 33.5884L74.386 11.2596C75.5526 10.587 76.6242 10.4996 77.4678 10.9214C77.5724 10.9717 77.6727 11.0301 77.768 11.0962L82.1 13.6118C81.2298 13.095 80.086 13.1292 78.8358 13.855L40.167 36.1838C37.4386 37.7608 35.227 41.9864 35.227 45.623V128.44C35.227 130.363 35.8464 131.735 36.8306 132.369L32.5556 129.88C31.465 129.299 30.7734 127.878 30.7734 125.841V43.0276C30.7734 39.391 32.985 35.1654 35.7134 33.5884Z" fill="#37474F"/>
<path d="M35.227 45.6232V128.44C35.227 130.363 35.8464 131.735 36.8306 132.37L32.5556 129.881C31.465 129.299 30.7734 127.878 30.7734 125.841V43.0278L35.227 45.6004V45.6232Z" fill="#263238"/>
<path d="M30.7734 49.457L35.227 52.0296V54.036L30.7734 51.4634V49.457Z" fill="#37474F"/>
<path d="M32.7221 62.818C33.1021 63.046 33.4441 62.818 33.4441 62.2708V57.954C33.44 57.6836 33.3725 57.418 33.2472 57.1784C33.1218 56.9389 32.9419 56.732 32.7221 56.5746C32.3421 56.3466 32.0039 56.5746 32.0039 57.1218V61.4386C32.0082 61.7085 32.0753 61.9737 32.2 62.2132C32.3246 62.4526 32.5034 62.6597 32.7221 62.818Z" fill="#37474F"/>
<path d="M33.4437 62.2708V57.954C33.4396 57.6836 33.3722 57.418 33.2468 57.1784C33.1214 56.9388 32.9416 56.732 32.7217 56.5746C32.6564 56.529 32.5804 56.5013 32.5012 56.4939C32.4219 56.4866 32.3421 56.5 32.2695 56.5328L32.7977 56.2402C32.8714 56.203 32.9538 56.1866 33.0362 56.1926C33.1185 56.1986 33.1976 56.2269 33.2651 56.2744C33.4852 56.4316 33.6652 56.6384 33.7906 56.878C33.916 57.1176 33.9833 57.3833 33.9871 57.6538V61.9706C33.9989 62.0796 33.9828 62.1898 33.9403 62.2908C33.8977 62.3919 33.8302 62.4804 33.7439 62.5482L33.1777 62.8408C33.2683 62.7776 33.3407 62.6916 33.3874 62.5915C33.4341 62.4914 33.4535 62.3808 33.4437 62.2708Z" fill="#455A64"/>
<path d="M32.7221 73.2717C33.1021 73.5035 33.4441 73.2717 33.4441 72.7283V68.4001C33.4403 68.1302 33.373 67.865 33.2475 67.626C33.1221 67.387 32.9421 67.181 32.7221 67.0245C32.3421 66.7927 32.0039 67.0245 32.0039 67.5679V71.8961C32.0082 72.1655 32.0753 72.4302 32.2 72.669C32.3247 72.9079 32.5035 73.1142 32.7221 73.2717Z" fill="#37474F"/>
<path d="M33.4437 72.7285V68.4003C33.4399 68.1304 33.3726 67.8652 33.2471 67.6262C33.1217 67.3872 32.9417 67.1811 32.7217 67.0247C32.6567 66.9785 32.5807 66.9502 32.5013 66.9429C32.4218 66.9356 32.3419 66.9494 32.2695 66.9829L32.8091 66.7055C32.8828 66.6684 32.9652 66.6519 33.0476 66.658C33.1299 66.664 33.209 66.6922 33.2765 66.7397C33.4964 66.8971 33.6762 67.104 33.8016 67.3435C33.927 67.5831 33.9944 67.8487 33.9985 68.1191V72.4359C34.0107 72.5449 33.9947 72.6553 33.9522 72.7564C33.9096 72.8575 33.8418 72.946 33.7553 73.0135L33.1891 73.3099C33.2801 73.245 33.3517 73.1566 33.3966 73.0543C33.4414 72.9519 33.4577 72.8394 33.4437 72.7285Z" fill="#455A64"/>
<path d="M41.5127 38.5131L79.5393 16.5643C79.6987 16.4775 79.8778 16.4335 80.0592 16.4367C80.2407 16.4398 80.4181 16.49 80.5744 16.5823C80.7306 16.6746 80.8602 16.8058 80.9505 16.9632C81.0409 17.1205 81.0888 17.2986 81.0897 17.4801V100.404C81.0897 103.17 79.1289 106.571 76.7311 107.954L39.6393 129.363C39.4646 129.47 39.2645 129.527 39.0599 129.53C38.8554 129.532 38.6539 129.48 38.4767 129.377C38.2995 129.275 38.153 129.127 38.0527 128.949C37.9524 128.771 37.9019 128.569 37.9065 128.364V44.7413C37.9141 42.4575 39.5329 39.6569 41.5127 38.5131Z" fill="#BA68C8"/>
<path opacity="0.5" d="M41.5127 38.5131L79.5393 16.5643C79.6987 16.4775 79.8778 16.4335 80.0592 16.4367C80.2407 16.4398 80.4181 16.49 80.5744 16.5823C80.7306 16.6746 80.8602 16.8058 80.9505 16.9632C81.0409 17.1205 81.0888 17.2986 81.0897 17.4801V100.404C81.0897 103.17 79.1289 106.571 76.7311 107.954L39.6393 129.363C39.4646 129.47 39.2645 129.527 39.0599 129.53C38.8554 129.532 38.6539 129.48 38.4767 129.377C38.2995 129.275 38.153 129.127 38.0527 128.949C37.9524 128.771 37.9019 128.569 37.9065 128.364V44.7413C37.9141 42.4575 39.5329 39.6569 41.5127 38.5131Z" fill="white"/>
<path d="M68.1526 22.2949L67.5636 24.7763L54.9666 32.0381L52.793 30.8791L68.1526 22.2949Z" fill="#455A64"/>
<path d="M64.4531 24.7001C64.4531 25.1105 64.7419 25.2777 65.0953 25.0801C65.2833 24.9578 65.4398 24.7929 65.552 24.5988C65.6643 24.4047 65.7291 24.1868 65.7413 23.9629C65.7413 23.5525 65.4525 23.3853 65.0953 23.5829C64.9085 23.706 64.753 23.8712 64.6415 24.0652C64.53 24.2592 64.4655 24.4766 64.4531 24.7001Z" fill="#263238"/>
<path d="M55.9772 29.9368C56.0461 29.9372 56.1141 29.9202 56.1748 29.8874L62.6082 26.2888C62.6547 26.2634 62.6956 26.229 62.7287 26.1877C62.7617 26.1463 62.7862 26.0988 62.8007 26.0478C62.8152 25.9969 62.8195 25.9436 62.8131 25.891C62.8068 25.8384 62.7901 25.7876 62.764 25.7416C62.712 25.6485 62.6252 25.5798 62.5226 25.5506C62.42 25.5213 62.31 25.534 62.2168 25.5858L55.7796 29.1806C55.6869 29.234 55.6188 29.3215 55.5897 29.4244C55.5606 29.5273 55.5728 29.6375 55.6238 29.7316C55.6593 29.7939 55.7107 29.8458 55.7728 29.8818C55.8349 29.9179 55.9054 29.9368 55.9772 29.9368Z" fill="#263238"/>
<path d="M88.7245 113.844C80.4177 118.784 58.8033 131.704 48.1063 138.141C47.7874 138.333 47.4234 138.437 47.0513 138.442C46.6793 138.447 46.3126 138.353 45.9887 138.17C45.6648 137.986 45.3954 137.72 45.208 137.399C45.0205 137.078 44.9218 136.712 44.9219 136.34V46.9565C44.9218 45.9391 45.1879 44.9395 45.6939 44.0568C46.1999 43.1742 46.9281 42.4393 47.8061 41.9253L88.9183 17.8295C89.2374 17.643 89.6001 17.544 89.9698 17.5425C90.3395 17.541 90.703 17.637 91.0237 17.8208C91.3443 18.0047 91.6109 18.2699 91.7963 18.5897C91.9817 18.9094 92.0796 19.2725 92.0799 19.6421V107.92C92.0816 109.113 91.7733 110.287 91.1851 111.325C90.5969 112.364 89.749 113.232 88.7245 113.844Z" fill="#F5F5F5"/>
<path d="M88.5559 113.559C82.0377 117.45 75.5181 121.344 68.9973 125.24L57.4225 132.164L52.1367 135.333L49.8263 136.724C49.1233 137.146 48.3747 137.742 47.6033 138.02C46.3797 138.453 45.2853 137.465 45.2511 136.264C45.2511 136.055 45.2511 135.85 45.2511 135.641V53.6865C45.2511 51.5053 45.2511 49.3241 45.2511 47.1391C45.2361 46.1292 45.4909 45.1337 45.9893 44.2552C46.4876 43.3768 47.2114 42.6473 48.0859 42.1421C49.0283 41.5835 49.9859 41.0325 50.9207 40.4815L64.2017 32.6801L79.9413 23.4575C82.9243 21.7095 85.9035 19.9463 88.8979 18.2097C89.7643 17.7043 90.8511 17.7385 91.4629 18.6505C91.6821 19.0164 91.783 19.4411 91.7517 19.8665C91.7517 20.6265 91.7517 21.4245 91.7517 22.2035V107.589C91.7517 110.04 90.6877 112.252 88.5559 113.559C88.1949 113.783 88.5255 114.353 88.8903 114.129C89.9921 113.449 90.8968 112.493 91.5148 111.355C92.1327 110.217 92.4423 108.937 92.4129 107.643V26.1175C92.4129 23.9933 92.4357 21.8691 92.4129 19.7487C92.4194 19.3025 92.3052 18.8629 92.0822 18.4764C91.8593 18.09 91.5359 17.771 91.1465 17.5532C90.757 17.3355 90.3159 17.2272 89.8699 17.2397C89.4239 17.2523 88.9896 17.3852 88.6129 17.6245C87.6249 18.1945 86.6445 18.7645 85.6565 19.3573L72.0107 27.3601L56.1305 36.6625C53.3223 38.3079 50.5027 39.9419 47.7059 41.6025C46.7436 42.1638 45.9472 42.9701 45.3979 43.9393C44.8485 44.9086 44.5658 46.0061 44.5785 47.1201C44.5785 47.8497 44.5785 48.5831 44.5785 49.3127V135.915C44.5785 136.055 44.5785 136.196 44.5785 136.336C44.5826 136.719 44.676 137.095 44.8513 137.436C45.0267 137.776 45.2791 138.07 45.5885 138.295C45.8979 138.521 46.2556 138.67 46.6332 138.733C47.0107 138.795 47.3976 138.768 47.7629 138.654C48.5229 138.396 49.2829 137.815 49.9745 137.393L52.3305 135.979L57.6011 132.818C65.2822 128.217 72.9671 123.623 80.6557 119.035L88.8751 114.129C88.9372 114.081 88.9798 114.011 88.9952 113.934C89.0107 113.857 88.998 113.776 88.9595 113.708C88.921 113.639 88.8591 113.586 88.7851 113.559C88.7111 113.532 88.6298 113.532 88.5559 113.559Z" fill="#E0E0E0"/>
<path d="M67.327 123.952L69.987 122.432C70.2544 122.241 70.4731 121.99 70.6256 121.699C70.778 121.408 70.86 121.085 70.8648 120.757V118.013C70.8648 117.367 70.4848 117.071 69.987 117.352L67.327 118.872C67.0599 119.063 66.8413 119.314 66.6889 119.605C66.5364 119.896 66.4543 120.219 66.4492 120.548V123.287C66.4492 123.937 66.8444 124.234 67.327 123.952Z" fill="#E0E0E0"/>
<path d="M68.6486 121.946C68.7284 121.894 68.7948 121.824 68.8424 121.741C68.8899 121.659 68.9173 121.566 68.9222 121.471V119.51C68.9222 119.335 68.8006 119.267 68.6486 119.354C68.5688 119.406 68.5024 119.476 68.4548 119.559C68.4073 119.642 68.3799 119.734 68.375 119.829V121.79C68.375 121.98 68.4966 122.033 68.6486 121.946Z" fill="white"/>
<path d="M67.8008 121.456L69.4956 120.475C69.576 120.424 69.6429 120.354 69.6911 120.271C69.7393 120.189 69.7674 120.096 69.773 120C69.773 119.826 69.6476 119.757 69.4956 119.845L67.8008 120.84C67.7205 120.892 67.6535 120.962 67.6053 121.045C67.5571 121.127 67.5291 121.22 67.5234 121.315C67.5234 121.475 67.6488 121.543 67.8008 121.456Z" fill="white"/>
<path d="M60.3911 123.64C60.491 123.55 60.617 123.494 60.7509 123.48C60.8847 123.465 61.0197 123.494 61.1365 123.561C61.2533 123.628 61.3459 123.73 61.401 123.853C61.4562 123.976 61.4711 124.113 61.4437 124.245C61.4312 124.611 61.3252 124.968 61.1359 125.282C60.9552 125.605 60.6932 125.875 60.3759 126.065C60.2684 126.146 60.1406 126.196 60.0065 126.21C59.8725 126.223 59.7373 126.199 59.6159 126.141C59.2055 125.905 59.2055 125.134 59.6159 124.423C59.7962 124.1 60.0583 123.83 60.3759 123.64M60.3759 123.006C59.9002 123.3 59.5077 123.71 59.2359 124.199C58.6089 125.282 58.6089 126.452 59.2359 126.81C59.4187 126.893 59.6205 126.927 59.8207 126.908C60.0209 126.889 60.2125 126.817 60.3759 126.699C60.8522 126.406 61.2449 125.995 61.5159 125.506C62.1391 124.423 62.1391 123.253 61.5159 122.892C61.3327 122.809 61.1307 122.775 60.9305 122.795C60.7303 122.815 60.5389 122.888 60.3759 123.006Z" fill="#E0E0E0"/>
<path d="M58.0629 129.2C58.1439 129.149 58.2106 129.079 58.2567 128.995L59.4537 126.924C59.5601 126.738 59.5601 126.544 59.4537 126.475C59.3473 126.407 59.1725 126.513 59.0737 126.7L57.8767 128.771C57.7703 128.957 57.7703 129.151 57.8767 129.219C57.9069 129.231 57.9397 129.236 57.9721 129.232C58.0045 129.229 58.0357 129.218 58.0629 129.2Z" fill="#E0E0E0"/>
<path d="M75.2948 114.27C75.956 113.89 76.4918 114.308 76.4918 115.208C76.496 114.755 76.6065 114.31 76.8144 113.907C77.0223 113.504 77.3218 113.156 77.6888 112.89C78.35 112.51 78.8858 112.928 78.8858 113.825C78.8858 116.105 76.4918 118.476 76.4918 118.476C76.4918 118.476 74.1016 118.879 74.1016 116.576C74.1077 116.126 74.2188 115.683 74.4259 115.282C74.633 114.882 74.9305 114.535 75.2948 114.27Z" fill="#E0E0E0"/>
<path d="M83.5938 110.219C83.5938 110.896 84.0688 111.169 84.654 110.831C84.9626 110.63 85.2195 110.359 85.4037 110.04C85.5879 109.721 85.6943 109.363 85.7142 108.996C85.7142 108.319 85.2392 108.046 84.654 108.384C84.3453 108.585 84.0884 108.856 83.9042 109.175C83.72 109.493 83.6136 109.851 83.5938 110.219Z" fill="#E0E0E0"/>
<path d="M84.6514 110.831C85.5178 110.333 86.2208 110.861 86.2208 112.016V112.374L83.082 114.186V113.825C83.082 112.674 83.785 111.34 84.6514 110.831Z" fill="#E0E0E0"/>
<path d="M52.0855 127.798L54.2021 128.497V131.48L52.5605 132.407V130.792C52.5605 130.488 52.3477 130.367 52.0855 130.519C51.9471 130.609 51.832 130.731 51.7494 130.874C51.6669 131.017 51.6193 131.178 51.6105 131.343V132.954L49.9727 133.901V130.937L52.0855 127.798Z" fill="#E0E0E0"/>
<path d="M44.9203 129.459C44.8816 129.459 44.8434 129.449 44.8099 129.43C44.7765 129.411 44.7489 129.382 44.7303 129.348C44.7153 129.323 44.7055 129.295 44.7014 129.266C44.6973 129.237 44.699 129.208 44.7064 129.18C44.7139 129.151 44.7269 129.125 44.7446 129.102C44.7624 129.078 44.7847 129.059 44.8101 129.044L91.9566 101.84C92.0081 101.811 92.0689 101.804 92.1258 101.82C92.1827 101.835 92.2312 101.873 92.2606 101.924C92.2756 101.949 92.2854 101.977 92.2895 102.006C92.2936 102.035 92.2919 102.064 92.2845 102.093C92.277 102.121 92.264 102.147 92.2463 102.171C92.2285 102.194 92.2062 102.213 92.1808 102.228L45.0342 129.428C44.9999 129.449 44.9604 129.459 44.9203 129.459Z" fill="#E0E0E0"/>
<path d="M47.8061 41.9253L88.9183 17.8295C89.2374 17.643 89.6002 17.544 89.9698 17.5425C90.3395 17.541 90.703 17.637 91.0237 17.8208C91.3443 18.0047 91.6109 18.2699 91.7963 18.5897C91.9818 18.9094 92.0796 19.2725 92.0799 19.6421V23.5219L44.9219 50.7413V46.9413C44.9244 45.9265 45.1918 44.93 45.6977 44.0502C46.2035 43.1705 46.9303 42.438 47.8061 41.9253Z" fill="#E0E0E0"/>
<path d="M56.2713 55.4318C57.606 53.1199 57.6066 50.6214 56.2726 49.8512C54.9385 49.081 52.775 50.3307 51.4402 52.6426C50.1055 54.9545 50.1049 57.453 51.439 58.2232C52.773 58.9934 54.9365 57.7437 56.2713 55.4318Z" fill="#BA68C8"/>
<path d="M59.1717 53.3484C59.0876 53.349 59.0056 53.3216 58.9387 53.2706C58.8718 53.2196 58.8237 53.1478 58.802 53.0665C58.7802 52.9853 58.7861 52.899 58.8186 52.8215C58.8511 52.7439 58.9085 52.6793 58.9817 52.6378L64.6285 49.3774C64.7162 49.327 64.8203 49.3135 64.9179 49.3398C65.0156 49.3662 65.0987 49.4303 65.1491 49.518C65.1995 49.6056 65.213 49.7098 65.1866 49.8074C65.1603 49.905 65.0962 49.9882 65.0085 50.0386L59.3617 53.2952C59.3047 53.3306 59.2388 53.349 59.1717 53.3484Z" fill="#455A64"/>
<path d="M59.1912 50.0878C59.1071 50.0884 59.0252 50.0611 58.9582 50.0101C58.8913 49.959 58.8432 49.8873 58.8215 49.806C58.7998 49.7247 58.8056 49.6385 58.8381 49.5609C58.8707 49.4833 58.928 49.4187 59.0012 49.3772L74.5243 40.4168C74.6111 40.3714 74.7121 40.3613 74.8063 40.3886C74.9004 40.4159 74.9803 40.4785 75.0294 40.5634C75.0784 40.6482 75.0928 40.7487 75.0695 40.8439C75.0462 40.9391 74.987 41.0216 74.9043 41.0742L59.4003 50.0384C59.3368 50.0746 59.2642 50.0918 59.1912 50.0878Z" fill="#455A64"/>
<path d="M57.2736 115.277C57.2736 117.458 55.7536 120.107 53.8536 121.197C51.9536 122.288 50.4336 121.403 50.4336 119.225C50.4336 117.048 51.9536 114.395 53.8536 113.305C55.7536 112.214 57.2736 113.1 57.2736 115.277Z" fill="#BA68C8"/>
<path d="M59.1717 116.565C59.0876 116.566 59.0056 116.538 58.9387 116.487C58.8718 116.436 58.8237 116.364 58.802 116.283C58.7802 116.202 58.7861 116.116 58.8186 116.038C58.8511 115.96 58.9085 115.896 58.9817 115.854L64.6285 112.594C64.6718 112.566 64.7201 112.548 64.7707 112.54C64.8213 112.531 64.873 112.533 64.9228 112.546C64.9726 112.558 65.0194 112.58 65.0604 112.611C65.1014 112.641 65.1357 112.68 65.1614 112.724C65.187 112.769 65.2034 112.818 65.2096 112.869C65.2158 112.92 65.2116 112.971 65.1973 113.021C65.1831 113.07 65.159 113.116 65.1265 113.155C65.0941 113.195 65.0539 113.228 65.0085 113.251L59.3617 116.512C59.3042 116.546 59.2386 116.564 59.1717 116.565Z" fill="#455A64"/>
<path d="M59.1912 113.305C59.1071 113.305 59.0252 113.278 58.9582 113.227C58.8913 113.176 58.8432 113.104 58.8215 113.023C58.7998 112.942 58.8056 112.855 58.8381 112.778C58.8707 112.7 58.928 112.635 59.0012 112.594L74.5243 103.634C74.6111 103.588 74.7121 103.578 74.8063 103.605C74.9004 103.633 74.9803 103.695 75.0294 103.78C75.0784 103.865 75.0928 103.966 75.0695 104.061C75.0462 104.156 74.987 104.238 74.9043 104.291L59.4003 113.24C59.3384 113.282 59.2657 113.304 59.1912 113.305Z" fill="#455A64"/>
<path d="M57.2736 95.5661C57.2736 97.7473 55.7536 100.396 53.8536 101.487C51.9536 102.577 50.4336 101.692 50.4336 99.5143C50.4336 97.3369 51.9536 94.6845 53.8536 93.5939C55.7536 92.5033 57.2736 93.3887 57.2736 95.5661Z" fill="#BA68C8"/>
<path d="M59.1691 96.8507C59.0862 96.8499 59.0058 96.8219 58.9402 96.7711C58.8747 96.7203 58.8275 96.6495 58.806 96.5694C58.7845 96.4893 58.7897 96.4044 58.821 96.3276C58.8522 96.2507 58.9078 96.1862 58.9791 96.1439L64.6259 92.8835C64.6691 92.856 64.7175 92.8376 64.7681 92.8293C64.8186 92.8209 64.8704 92.8229 64.9202 92.8351C64.9699 92.8473 65.0167 92.8695 65.0577 92.9002C65.0987 92.931 65.1331 92.9697 65.1587 93.014C65.1844 93.0584 65.2008 93.1075 65.207 93.1584C65.2132 93.2093 65.209 93.2609 65.1947 93.3101C65.1804 93.3593 65.1563 93.4051 65.1239 93.4448C65.0914 93.4845 65.0513 93.5172 65.0059 93.5409L59.3591 96.8013C59.3012 96.8342 59.2357 96.8512 59.1691 96.8507Z" fill="#455A64"/>
<path d="M59.1898 93.5903C59.1235 93.5899 59.0584 93.5721 59.0011 93.5388C58.9438 93.5054 58.8962 93.4577 58.863 93.4003C58.8131 93.3135 58.7995 93.2105 58.8252 93.1137C58.8508 93.017 58.9135 92.9342 58.9998 92.8835L74.5228 83.9231C74.6096 83.8732 74.7126 83.8596 74.8093 83.8852C74.9061 83.9108 74.9888 83.9736 75.0396 84.0599C75.0649 84.103 75.0814 84.1507 75.0882 84.2003C75.095 84.2498 75.092 84.3002 75.0793 84.3486C75.0666 84.3969 75.0444 84.4423 75.0141 84.4821C74.9839 84.5219 74.946 84.5553 74.9028 84.5805L59.3988 93.5409C59.3353 93.5771 59.2628 93.5942 59.1898 93.5903Z" fill="#455A64"/>
<path d="M53.2035 107.45C53.1865 107.261 53.1133 107.149 52.9841 107.114C52.8548 107.078 52.6794 107.124 52.4578 107.252C52.3072 107.338 52.1801 107.436 52.0764 107.545C51.9727 107.652 51.8931 107.764 51.8377 107.881C51.7838 107.997 51.7568 108.109 51.7568 108.217C51.7539 108.309 51.7703 108.378 51.8058 108.425C51.8427 108.471 51.8931 108.5 51.9571 108.513C52.021 108.523 52.0949 108.523 52.1787 108.511C52.2625 108.497 52.352 108.475 52.4471 108.445L52.8392 108.328C53.0295 108.267 53.2043 108.232 53.3634 108.223C53.5224 108.213 53.6602 108.235 53.7767 108.288C53.8932 108.34 53.9834 108.429 54.0473 108.555C54.1127 108.679 54.146 108.846 54.1475 109.055C54.146 109.364 54.0779 109.67 53.9429 109.974C53.8094 110.275 53.6162 110.561 53.3634 110.83C53.1119 111.098 52.8087 111.334 52.4535 111.538C52.1012 111.74 51.7944 111.854 51.5331 111.88C51.2731 111.905 51.07 111.837 50.9237 111.677C50.7788 111.515 50.7028 111.254 50.6957 110.896L51.5885 110.383C51.5984 110.546 51.6403 110.663 51.7142 110.734C51.7894 110.802 51.8896 110.829 52.0146 110.814C52.141 110.797 52.2838 110.743 52.4429 110.652C52.5991 110.562 52.7348 110.458 52.8498 110.339C52.9663 110.22 53.0565 110.095 53.1204 109.965C53.1844 109.835 53.2163 109.709 53.2163 109.588C53.2163 109.475 53.1872 109.397 53.129 109.353C53.0722 109.309 52.9883 109.291 52.8775 109.301C52.7682 109.31 52.6339 109.338 52.4748 109.385L51.9997 109.52C51.6318 109.629 51.3413 109.634 51.1282 109.537C50.9151 109.44 50.8093 109.205 50.8107 108.832C50.8093 108.528 50.8796 108.222 51.0217 107.912C51.1651 107.602 51.3619 107.311 51.6119 107.04C51.8619 106.768 52.146 106.541 52.4642 106.358C52.7881 106.172 53.0707 106.074 53.3122 106.063C53.5551 106.051 53.744 106.12 53.879 106.27C54.0139 106.42 54.0835 106.644 54.0878 106.942L53.2035 107.45ZM56.4918 105.371V106.157L54.5209 107.29V106.503L56.4918 105.371ZM54.9683 105.342L55.876 104.82V108.339C55.876 108.436 55.8888 108.504 55.9144 108.543C55.9399 108.581 55.9755 108.598 56.0209 108.593C56.0678 108.587 56.1218 108.567 56.1828 108.532C56.2255 108.507 56.2681 108.479 56.3107 108.446C56.3533 108.412 56.386 108.386 56.4087 108.368L56.5515 109.065C56.506 109.107 56.4421 109.163 56.3597 109.231C56.2773 109.302 56.1772 109.373 56.0593 109.446C55.8405 109.581 55.6487 109.658 55.484 109.676C55.3206 109.692 55.1935 109.646 55.1026 109.536C55.0117 109.426 54.9669 109.247 54.9683 108.999V105.342ZM58.0163 108.341C57.8075 108.461 57.6214 108.526 57.4581 108.536C57.2947 108.545 57.1655 108.494 57.0703 108.383C56.9765 108.27 56.9297 108.089 56.9297 107.84C56.9297 107.63 56.963 107.435 57.0298 107.254C57.0966 107.073 57.1875 106.906 57.3025 106.753C57.4176 106.6 57.5483 106.459 57.6946 106.331C57.8423 106.202 57.9972 106.082 58.1591 105.971C58.3494 105.838 58.5029 105.729 58.6193 105.642C58.7358 105.554 58.8203 105.474 58.8729 105.403C58.9255 105.332 58.9517 105.256 58.9517 105.176V105.161C58.9517 105.006 58.9091 104.91 58.8239 104.873C58.7401 104.836 58.6208 104.862 58.4659 104.951C58.3026 105.045 58.1726 105.162 58.076 105.301C57.9794 105.438 57.9155 105.578 57.8842 105.721L57.0447 106.124C57.0873 105.871 57.1711 105.624 57.2962 105.385C57.4212 105.145 57.5824 104.923 57.7798 104.719C57.9787 104.513 58.2088 104.335 58.4702 104.185C58.652 104.08 58.826 104.005 58.9922 103.958C59.1598 103.911 59.3083 103.902 59.4375 103.931C59.5682 103.959 59.6712 104.033 59.7465 104.151C59.8218 104.269 59.8594 104.44 59.8594 104.664V107.21L58.9986 107.705V107.181L58.973 107.196C58.9205 107.344 58.8502 107.489 58.7621 107.629C58.674 107.768 58.5682 107.899 58.4446 108.021C58.321 108.141 58.1783 108.248 58.0163 108.341ZM58.2763 107.469C58.4098 107.392 58.5277 107.294 58.63 107.174C58.7323 107.053 58.8125 106.924 58.8708 106.785C58.929 106.647 58.9581 106.512 58.9581 106.379V105.978C58.9297 106.016 58.8907 106.058 58.8409 106.105C58.7926 106.149 58.7379 106.196 58.6769 106.246C58.6158 106.294 58.5547 106.341 58.4936 106.388C58.4325 106.433 58.3771 106.474 58.3274 106.51C58.2209 106.59 58.1278 106.672 58.0483 106.757C57.9688 106.842 57.907 106.931 57.8629 107.023C57.8189 107.114 57.7969 107.208 57.7969 107.307C57.7969 107.449 57.8416 107.533 57.9311 107.556C58.022 107.578 58.1371 107.549 58.2763 107.469ZM52.5601 115.63V116.417L50.5891 117.549V116.763L52.5601 115.63ZM51.0366 115.602L51.9443 115.08V118.599C51.9443 118.696 51.9571 118.764 51.9826 118.803C52.0082 118.841 52.0437 118.857 52.0892 118.852C52.136 118.847 52.19 118.826 52.2511 118.791C52.2937 118.767 52.3363 118.738 52.379 118.706C52.4216 118.671 52.4542 118.645 52.477 118.627L52.6197 119.324C52.5743 119.367 52.5103 119.422 52.428 119.491C52.3456 119.561 52.2454 119.633 52.1275 119.705C51.9088 119.841 51.717 119.917 51.5522 119.935C51.3889 119.952 51.2617 119.906 51.1708 119.796C51.0799 119.686 51.0352 119.507 51.0366 119.258V115.602ZM55.2501 116.252V114.084L56.1578 113.563V117.337L55.2863 117.838V117.153L55.2522 117.172C55.1784 117.436 55.0555 117.684 54.8836 117.917C54.7132 118.15 54.5051 118.336 54.2593 118.478C54.0406 118.603 53.8481 118.657 53.6819 118.638C53.5157 118.618 53.3857 118.53 53.292 118.373C53.1996 118.214 53.1528 117.988 53.1513 117.694V115.291L54.059 114.769V116.986C54.0605 117.208 54.1123 117.354 54.2146 117.425C54.3169 117.495 54.4539 117.481 54.6258 117.382C54.7352 117.319 54.8375 117.232 54.9326 117.12C55.0278 117.006 55.1045 116.875 55.1628 116.727C55.2224 116.578 55.2515 116.42 55.2501 116.252ZM59.6069 112.657L58.7759 113.193C58.7617 113.12 58.7312 113.063 58.6843 113.025C58.6374 112.985 58.5757 112.967 58.499 112.972C58.4237 112.974 58.3335 113.005 58.2283 113.066C58.0877 113.147 57.9691 113.249 57.8725 113.373C57.7759 113.496 57.7276 113.614 57.7276 113.727C57.7276 113.817 57.7589 113.875 57.8214 113.902C57.8839 113.928 57.9911 113.916 58.1431 113.867L58.7355 113.664C59.0537 113.556 59.2909 113.541 59.4471 113.619C59.6034 113.696 59.6815 113.871 59.6815 114.143C59.6815 114.39 59.6183 114.643 59.4919 114.903C59.3669 115.161 59.195 115.406 58.9762 115.637C58.7589 115.865 58.5082 116.06 58.2241 116.224C57.7908 116.473 57.4457 116.567 57.1885 116.507C56.9329 116.444 56.783 116.245 56.739 115.91L57.6317 115.343C57.6587 115.48 57.7241 115.558 57.8278 115.579C57.9315 115.598 58.0643 115.561 58.2262 115.468C58.3853 115.377 58.5132 115.268 58.6097 115.142C58.7078 115.013 58.7575 114.892 58.7589 114.778C58.7575 114.684 58.7227 114.626 58.6545 114.605C58.5863 114.582 58.4812 114.595 58.3391 114.644L57.7724 114.839C57.4528 114.949 57.2148 114.958 57.0586 114.866C56.9037 114.773 56.8263 114.586 56.8263 114.304C56.8263 114.062 56.8831 113.82 56.9968 113.579C57.1118 113.338 57.2731 113.11 57.4805 112.896C57.6893 112.681 57.9336 112.493 58.2134 112.332C58.6268 112.095 58.9521 112.008 59.1893 112.074C59.4279 112.138 59.5672 112.332 59.6069 112.657ZM52.918 125.592V123.425L53.8257 122.903V126.678L52.9543 127.179V126.493L52.9202 126.513C52.8463 126.776 52.7234 127.025 52.5515 127.258C52.3811 127.49 52.173 127.677 51.9272 127.818C51.7085 127.944 51.516 127.997 51.3498 127.978C51.1836 127.959 51.0536 127.87 50.9599 127.713C50.8676 127.555 50.8207 127.328 50.8193 127.034V124.631L51.7269 124.109V126.326C51.7284 126.548 51.7802 126.694 51.8825 126.765C51.9848 126.835 52.1218 126.821 52.2937 126.723C52.4031 126.66 52.5054 126.572 52.6005 126.46C52.6957 126.347 52.7724 126.216 52.8307 126.068C52.8903 125.919 52.9194 125.76 52.918 125.592ZM54.5518 127.676V122.486L55.4467 121.971V122.605L55.4872 122.582C55.5269 122.458 55.5845 122.321 55.6597 122.173C55.7365 122.023 55.8359 121.877 55.9581 121.736C56.0816 121.593 56.235 121.469 56.4183 121.364C56.6569 121.227 56.8771 121.172 57.0788 121.2C57.2805 121.227 57.4418 121.35 57.5625 121.569C57.6832 121.786 57.7436 122.111 57.7436 122.544C57.7436 122.965 57.6847 123.354 57.5668 123.712C57.4503 124.067 57.2912 124.377 57.0895 124.642C56.8892 124.905 56.6647 125.108 56.4162 125.25C56.24 125.352 56.0902 125.404 55.9666 125.408C55.8444 125.411 55.7443 125.384 55.6661 125.328C55.588 125.269 55.5284 125.2 55.4872 125.118L55.4595 125.134V127.154L54.5518 127.676ZM55.4403 123.862C55.4403 124.087 55.4673 124.267 55.5213 124.403C55.5752 124.539 55.6534 124.625 55.7556 124.659C55.8579 124.692 55.9822 124.667 56.1285 124.583C56.2762 124.498 56.4012 124.379 56.5035 124.227C56.6058 124.073 56.6832 123.898 56.7358 123.7C56.7897 123.501 56.8167 123.291 56.8167 123.071C56.8167 122.853 56.7905 122.677 56.7379 122.542C56.6853 122.406 56.6079 122.321 56.5056 122.287C56.4034 122.252 56.2777 122.278 56.1285 122.363C55.9808 122.448 55.8558 122.565 55.7535 122.714C55.6526 122.862 55.5752 123.035 55.5213 123.231C55.4673 123.427 55.4403 123.638 55.4403 123.862ZM59.5547 123.447C59.3061 123.59 59.081 123.645 58.8793 123.614C58.679 123.58 58.5199 123.452 58.402 123.232C58.2855 123.009 58.2273 122.687 58.2273 122.266C58.2273 121.833 58.2877 121.439 58.4084 121.083C58.5291 120.725 58.6897 120.417 58.8899 120.16C59.0916 119.899 59.3125 119.7 59.5526 119.562C59.7358 119.457 59.8885 119.405 60.0107 119.407C60.1343 119.407 60.2337 119.438 60.309 119.501C60.3857 119.562 60.444 119.632 60.4837 119.711L60.5114 119.695V117.802L61.417 117.282V122.315L60.5221 122.829V122.225L60.4837 122.247C60.4411 122.376 60.3807 122.515 60.3026 122.663C60.2259 122.809 60.1258 122.951 60.0022 123.089C59.88 123.226 59.7309 123.345 59.5547 123.447ZM59.8424 122.448C59.9887 122.364 60.1123 122.247 60.2131 122.098C60.3154 121.945 60.3935 121.77 60.4475 121.572C60.5029 121.373 60.5306 121.161 60.5306 120.937C60.5306 120.713 60.5036 120.533 60.4496 120.399C60.3957 120.264 60.3175 120.181 60.2153 120.15C60.113 120.119 59.9887 120.145 59.8424 120.229C59.6932 120.315 59.5675 120.434 59.4652 120.586C59.363 120.738 59.2855 120.912 59.233 121.108C59.1804 121.303 59.1542 121.51 59.1542 121.728C59.1542 121.948 59.1804 122.127 59.233 122.265C59.287 122.401 59.3644 122.488 59.4652 122.525C59.5675 122.559 59.6932 122.534 59.8424 122.448ZM63.0965 121.421C62.8877 121.541 62.7016 121.606 62.5383 121.616C62.3749 121.625 62.2457 121.574 62.1505 121.463C62.0567 121.35 62.0099 121.169 62.0099 120.92C62.0099 120.71 62.0432 120.515 62.11 120.334C62.1768 120.153 62.2677 119.986 62.3827 119.833C62.4978 119.68 62.6285 119.54 62.7748 119.411C62.9225 119.282 63.0774 119.162 63.2393 119.051C63.4296 118.919 63.5831 118.809 63.6995 118.723C63.816 118.634 63.9005 118.555 63.9531 118.483C64.0057 118.412 64.0319 118.337 64.0319 118.256V118.242C64.0319 118.086 63.9893 117.99 63.9041 117.954C63.8203 117.917 63.701 117.943 63.5461 118.032C63.3828 118.126 63.2528 118.242 63.1562 118.381C63.0596 118.519 62.9957 118.658 62.9644 118.801L62.1249 119.205C62.1675 118.951 62.2513 118.705 62.3764 118.466C62.5014 118.225 62.6626 118.003 62.86 117.799C63.0589 117.593 63.289 117.415 63.5504 117.265C63.7322 117.16 63.9062 117.085 64.0724 117.039C64.24 116.991 64.3885 116.982 64.5177 117.011C64.6484 117.039 64.7514 117.113 64.8267 117.232C64.902 117.349 64.9396 117.52 64.9396 117.744V120.29L64.0788 120.785V120.262L64.0532 120.276C64.0007 120.425 63.9304 120.569 63.8423 120.71C63.7542 120.849 63.6484 120.979 63.5248 121.101C63.4012 121.221 63.2585 121.328 63.0965 121.421ZM63.3565 120.549C63.49 120.472 63.6079 120.374 63.7102 120.255C63.8125 120.134 63.8927 120.004 63.951 119.866C64.0092 119.727 64.0383 119.592 64.0383 119.459V119.059C64.0099 119.096 63.9709 119.138 63.9211 119.185C63.8728 119.229 63.8181 119.276 63.7571 119.326C63.696 119.374 63.6349 119.422 63.5738 119.468C63.5127 119.513 63.4573 119.554 63.4076 119.591C63.3011 119.67 63.208 119.752 63.1285 119.837C63.049 119.922 62.9872 120.011 62.9431 120.103C62.8991 120.194 62.8771 120.289 62.8771 120.387C62.8771 120.53 62.9218 120.613 63.0113 120.637C63.1022 120.658 63.2173 120.629 63.3565 120.549ZM52.5565 131.639V132.424L50.5889 133.555V132.77L52.5565 131.639ZM51.0356 131.61L51.9417 131.089V134.603C51.9417 134.699 51.9545 134.767 51.98 134.806C52.0055 134.844 52.041 134.86 52.0864 134.856C52.1332 134.85 52.1871 134.83 52.248 134.794C52.2906 134.77 52.3331 134.742 52.3757 134.709C52.4182 134.675 52.4508 134.649 52.4735 134.631L52.616 135.326C52.5706 135.369 52.5068 135.424 52.4246 135.493C52.3423 135.563 52.2424 135.634 52.1247 135.707C51.9063 135.842 51.7148 135.919 51.5503 135.936C51.3873 135.953 51.2604 135.907 51.1696 135.797C51.0788 135.687 51.0342 135.508 51.0356 135.261V131.61ZM54.6006 134.306C54.2645 134.499 53.9752 134.587 53.7327 134.569C53.4917 134.549 53.3059 134.432 53.1754 134.217C53.045 134.001 52.9797 133.694 52.9797 133.297C52.9797 132.909 53.045 132.532 53.1754 132.164C53.3059 131.796 53.4895 131.462 53.7263 131.163C53.9646 130.862 54.2439 130.62 54.5644 130.436C54.78 130.312 54.9806 130.237 55.1664 130.21C55.3536 130.181 55.5166 130.206 55.6556 130.285C55.796 130.363 55.9052 130.499 55.9832 130.695C56.0612 130.889 56.1002 131.146 56.1002 131.467V131.754L53.3413 133.339V132.692L55.2472 131.596C55.2472 131.446 55.2188 131.329 55.1621 131.245C55.1054 131.162 55.0267 131.116 54.926 131.109C54.8267 131.099 54.7112 131.132 54.5793 131.207C54.4417 131.286 54.3198 131.393 54.2134 131.528C54.1085 131.66 54.0263 131.805 53.9667 131.962C53.9071 132.117 53.8767 132.27 53.8752 132.419V133.035C53.8752 133.221 53.905 133.365 53.9646 133.467C54.0256 133.568 54.1113 133.623 54.222 133.633C54.3326 133.643 54.4637 133.605 54.6155 133.517C54.7161 133.459 54.8083 133.39 54.892 133.309C54.9756 133.229 55.0473 133.138 55.1068 133.039C55.1664 132.939 55.2117 132.833 55.2429 132.72L56.081 132.302C56.0385 132.559 55.9513 132.812 55.8194 133.061C55.6889 133.308 55.5202 133.539 55.3131 133.754C55.1075 133.967 54.87 134.151 54.6006 134.306ZM57.8954 132.4C57.6472 132.543 57.4225 132.598 57.2211 132.567C57.0212 132.533 56.8624 132.406 56.7447 132.186C56.6284 131.963 56.5702 131.642 56.5702 131.221C56.5702 130.789 56.6305 130.396 56.751 130.04C56.8716 129.683 57.0318 129.376 57.2318 129.119C57.4331 128.859 57.6536 128.66 57.8933 128.523C58.0762 128.418 58.2286 128.366 58.3506 128.368C58.474 128.367 58.5732 128.398 58.6484 128.462C58.725 128.522 58.7831 128.592 58.8228 128.67L58.8505 128.655V126.766L59.7545 126.246V131.27L58.8611 131.784V131.18L58.8228 131.202C58.7803 131.331 58.72 131.47 58.642 131.618C58.5654 131.763 58.4655 131.905 58.3421 132.043C58.2201 132.18 58.0712 132.299 57.8954 132.4ZM58.1826 131.403C58.3286 131.32 58.452 131.203 58.5527 131.053C58.6548 130.901 58.7328 130.727 58.7866 130.529C58.842 130.33 58.8696 130.119 58.8696 129.895C58.8696 129.671 58.8427 129.492 58.7888 129.357C58.7349 129.223 58.6569 129.14 58.5548 129.109C58.4527 129.078 58.3286 129.104 58.1826 129.188C58.0337 129.274 57.9082 129.392 57.8061 129.544C57.704 129.696 57.6267 129.87 57.5742 130.065C57.5218 130.261 57.4955 130.467 57.4955 130.685C57.4955 130.904 57.5218 131.082 57.5742 131.221C57.6281 131.357 57.7054 131.443 57.8061 131.48C57.9082 131.515 58.0337 131.489 58.1826 131.403Z" fill="#455A64"/>
<path d="M85.352 67.26L51.9424 86.5488C51.7904 86.6371 51.6177 86.6836 51.442 86.6838C51.2662 86.684 51.0934 86.6379 50.9412 86.55C50.789 86.4621 50.6626 86.3356 50.5748 86.1833C50.4871 86.031 50.4411 85.8582 50.4414 85.6824V64.543C50.441 64.1181 50.5524 63.7005 50.7646 63.3323C50.9767 62.9641 51.282 62.6582 51.6498 62.4454L85.0594 43.1566C85.2116 43.0696 85.384 43.024 85.5594 43.0244C85.7347 43.0248 85.9069 43.0711 86.0587 43.1588C86.2106 43.2464 86.3368 43.3723 86.4248 43.524C86.5129 43.6756 86.5596 43.8477 86.5604 44.023V65.1738C86.5596 65.597 86.4475 66.0125 86.2354 66.3787C86.0233 66.7448 85.7187 67.0488 85.352 67.26Z" fill="#BA68C8"/>
<path opacity="0.5" d="M85.352 67.26L51.9424 86.5488C51.7904 86.6371 51.6177 86.6836 51.442 86.6838C51.2662 86.684 51.0934 86.6379 50.9412 86.55C50.789 86.4621 50.6626 86.3356 50.5748 86.1833C50.4871 86.031 50.4411 85.8582 50.4414 85.6824V64.543C50.441 64.1181 50.5524 63.7005 50.7646 63.3323C50.9767 62.9641 51.282 62.6582 51.6498 62.4454L85.0594 43.1566C85.2116 43.0696 85.384 43.024 85.5594 43.0244C85.7347 43.0248 85.9069 43.0711 86.0587 43.1588C86.2106 43.2464 86.3368 43.3723 86.4248 43.524C86.5129 43.6756 86.5596 43.8477 86.5604 44.023V65.1738C86.5596 65.597 86.4475 66.0125 86.2354 66.3787C86.0233 66.7448 85.7187 67.0488 85.352 67.26Z" fill="white"/>
<path d="M73.5876 70.7048C76.1941 66.1901 76.1943 61.3104 73.588 59.8056C70.9817 58.3009 66.7558 60.7409 64.1493 65.2556C61.5427 69.7703 61.5425 74.65 64.1488 76.1548C66.7551 77.6595 70.981 75.2195 73.5876 70.7048Z" fill="white"/>
<path d="M86.5642 57.2358V65.174C86.5627 65.5975 86.4498 66.0131 86.2371 66.3792C86.0244 66.7454 85.7191 67.0492 85.352 67.2602L51.9386 86.549C51.7869 86.6376 51.6144 86.6843 51.4387 86.6846C51.263 86.6849 51.0904 86.6388 50.9384 86.5508C50.7863 86.4628 50.6602 86.3361 50.573 86.1836C50.4857 86.0312 50.4403 85.8583 50.4414 85.6826V78.0826L86.5642 57.2358Z" fill="#BA68C8"/>
<path d="M60.4171 78.4399C60.2293 78.4299 60.0514 78.3531 59.9155 78.2233C59.7597 78.1017 59.7027 78.0599 59.4975 78.1739C59.4729 78.1981 59.4431 78.2164 59.4104 78.2275C59.3777 78.2386 59.343 78.2421 59.3087 78.2377C59.2745 78.2334 59.2417 78.2213 59.2128 78.2025C59.1839 78.1836 59.1596 78.1584 59.1419 78.1288C59.1241 78.0992 59.1133 78.066 59.1103 78.0316C59.1072 77.9972 59.112 77.9626 59.1243 77.9304C59.1366 77.8981 59.156 77.8691 59.1812 77.8454C59.2063 77.8218 59.2365 77.8042 59.2695 77.7939C59.409 77.6962 59.5786 77.651 59.7483 77.6663C59.918 77.6816 60.0768 77.7564 60.1967 77.8775C60.3525 77.9991 60.4095 78.0447 60.6147 77.9269C60.8787 77.735 61.0819 77.4712 61.1999 77.1669C61.3548 76.7867 61.6193 76.4613 61.9599 76.2321C62.0988 76.1347 62.2678 76.0896 62.4369 76.1049C62.6059 76.1202 62.764 76.1949 62.8833 76.3157C63.0429 76.4411 63.0999 76.4829 63.3051 76.3651C63.5694 76.1744 63.7716 75.9101 63.8865 75.6051C64.0421 75.2244 64.3064 74.8979 64.6465 74.6665C64.7863 74.5695 64.9557 74.5248 65.1252 74.54C65.2947 74.5553 65.4534 74.6297 65.5737 74.7501C65.7295 74.8717 65.7903 74.9173 65.9917 74.7995C66.0443 74.7702 66.1062 74.7626 66.1644 74.7782C66.2225 74.7938 66.2723 74.8314 66.3033 74.8831C66.3182 74.909 66.328 74.9377 66.3319 74.9674C66.3358 74.9971 66.3338 75.0273 66.326 75.0562C66.3183 75.0851 66.3049 75.1123 66.2866 75.136C66.2684 75.1598 66.2456 75.1797 66.2197 75.1947C66.0801 75.2924 65.9105 75.3376 65.7408 75.3223C65.5711 75.307 65.4123 75.2322 65.2925 75.1111C65.1367 74.9895 65.0759 74.9439 64.8745 75.0617C64.6084 75.2514 64.4047 75.516 64.2893 75.8217C64.133 76.201 63.8687 76.5261 63.5293 76.7565C63.3897 76.8542 63.2201 76.8994 63.0504 76.8841C62.8807 76.8688 62.7219 76.794 62.6021 76.6729C62.4463 76.5513 62.3855 76.5057 62.1841 76.6235C61.9183 76.8136 61.7147 77.078 61.5989 77.3835C61.445 77.7653 61.1803 78.0922 60.8389 78.3221C60.7111 78.398 60.5656 78.4386 60.4171 78.4399Z" fill="#BA68C8"/>
<g opacity="0.5">
<path d="M60.4171 78.4399C60.2293 78.4299 60.0514 78.3531 59.9155 78.2233C59.7597 78.1017 59.7027 78.0599 59.4975 78.1739C59.4729 78.1981 59.4431 78.2164 59.4104 78.2275C59.3777 78.2386 59.343 78.2421 59.3087 78.2377C59.2745 78.2334 59.2417 78.2213 59.2128 78.2025C59.1839 78.1836 59.1596 78.1584 59.1419 78.1288C59.1241 78.0992 59.1133 78.066 59.1103 78.0316C59.1072 77.9972 59.112 77.9626 59.1243 77.9304C59.1366 77.8981 59.156 77.8691 59.1812 77.8454C59.2063 77.8218 59.2365 77.8042 59.2695 77.7939C59.409 77.6962 59.5786 77.651 59.7483 77.6663C59.918 77.6816 60.0768 77.7564 60.1967 77.8775C60.3525 77.9991 60.4095 78.0447 60.6147 77.9269C60.8787 77.735 61.0819 77.4712 61.1999 77.1669C61.3548 76.7867 61.6193 76.4613 61.9599 76.2321C62.0988 76.1347 62.2678 76.0896 62.4369 76.1049C62.6059 76.1202 62.764 76.1949 62.8833 76.3157C63.0429 76.4411 63.0999 76.4829 63.3051 76.3651C63.5694 76.1744 63.7716 75.9101 63.8865 75.6051C64.0421 75.2244 64.3064 74.8979 64.6465 74.6665C64.7863 74.5695 64.9557 74.5248 65.1252 74.54C65.2947 74.5553 65.4534 74.6297 65.5737 74.7501C65.7295 74.8717 65.7903 74.9173 65.9917 74.7995C66.0443 74.7702 66.1062 74.7626 66.1644 74.7782C66.2225 74.7938 66.2723 74.8314 66.3033 74.8831C66.3182 74.909 66.328 74.9377 66.3319 74.9674C66.3358 74.9971 66.3338 75.0273 66.326 75.0562C66.3183 75.0851 66.3049 75.1123 66.2866 75.136C66.2684 75.1598 66.2456 75.1797 66.2197 75.1947C66.0801 75.2924 65.9105 75.3376 65.7408 75.3223C65.5711 75.307 65.4123 75.2322 65.2925 75.1111C65.1367 74.9895 65.0759 74.9439 64.8745 75.0617C64.6084 75.2514 64.4047 75.516 64.2893 75.8217C64.133 76.201 63.8687 76.5261 63.5293 76.7565C63.3897 76.8542 63.2201 76.8994 63.0504 76.8841C62.8807 76.8688 62.7219 76.794 62.6021 76.6729C62.4463 76.5513 62.3855 76.5057 62.1841 76.6235C61.9183 76.8136 61.7147 77.078 61.5989 77.3835C61.445 77.7653 61.1803 78.0922 60.8389 78.3221C60.7111 78.398 60.5656 78.4386 60.4171 78.4399Z" fill="white"/>
</g>
<path d="M77.1749 68.9622C76.9874 68.9513 76.8098 68.8746 76.6733 68.7456C76.5137 68.624 76.4567 68.5784 76.2553 68.6962C76.2307 68.7205 76.2009 68.7388 76.1682 68.7499C76.1355 68.7609 76.1008 68.7644 76.0665 68.7601C76.0323 68.7557 75.9995 68.7437 75.9706 68.7248C75.9417 68.706 75.9174 68.6808 75.8997 68.6512C75.8819 68.6216 75.8711 68.5884 75.8681 68.554C75.865 68.5196 75.8698 68.485 75.8821 68.4527C75.8944 68.4205 75.9139 68.3914 75.939 68.3678C75.9641 68.3441 75.9943 68.3265 76.0273 68.3162C76.1664 68.2185 76.3358 68.1737 76.5051 68.1897C76.6743 68.2057 76.8323 68.2816 76.9507 68.4036C77.1065 68.5252 77.1673 68.5708 77.3687 68.453C77.6339 68.2625 77.8374 67.9982 77.9539 67.693C78.1088 67.3129 78.3733 66.9875 78.7139 66.7582C78.8537 66.6613 79.0232 66.6165 79.1926 66.6318C79.3621 66.6471 79.5208 66.7214 79.6411 66.8418C79.7969 66.9634 79.8577 67.009 80.0591 66.8912C80.3231 66.6994 80.5263 66.4355 80.6443 66.1312C80.7992 65.7511 81.0637 65.4257 81.4043 65.1964C81.5438 65.0987 81.7135 65.0535 81.8831 65.0688C82.0528 65.0841 82.2116 65.1589 82.3315 65.28C82.4873 65.4016 82.5481 65.4472 82.7495 65.3294C82.7754 65.3144 82.8041 65.3047 82.8338 65.3008C82.8635 65.2969 82.8937 65.2989 82.9226 65.3066C82.9515 65.3144 82.9787 65.3278 83.0024 65.3461C83.0262 65.3643 83.0461 65.3871 83.0611 65.413C83.0766 65.4388 83.0867 65.4675 83.0909 65.4973C83.0951 65.5271 83.0932 65.5575 83.0854 65.5866C83.0776 65.6157 83.064 65.6429 83.0455 65.6666C83.0269 65.6903 83.0038 65.7101 82.9775 65.7246C82.8382 65.8213 82.6694 65.8659 82.5006 65.8506C82.3317 65.8354 82.1737 65.7612 82.0541 65.641C81.8945 65.5194 81.8375 65.4738 81.6323 65.5916C81.3682 65.7835 81.1651 66.0473 81.0471 66.3516C80.8922 66.7318 80.6276 67.0572 80.2871 67.2864C80.1472 67.3834 79.9778 67.4282 79.8083 67.4129C79.6388 67.3976 79.4801 67.3232 79.3599 67.2028C79.2041 67.0812 79.1471 67.0356 78.9419 67.1534C78.6774 67.3448 78.4741 67.6088 78.3567 67.9134C78.2028 68.2952 77.9381 68.6221 77.5967 68.852C77.4675 68.9235 77.3225 68.9614 77.1749 68.9622Z" fill="#BA68C8"/>
<g opacity="0.5">
<path d="M77.1749 68.9622C76.9874 68.9513 76.8098 68.8746 76.6733 68.7456C76.5137 68.624 76.4567 68.5784 76.2553 68.6962C76.2307 68.7205 76.2009 68.7388 76.1682 68.7499C76.1355 68.7609 76.1008 68.7644 76.0665 68.7601C76.0323 68.7557 75.9995 68.7437 75.9706 68.7248C75.9417 68.706 75.9174 68.6808 75.8997 68.6512C75.8819 68.6216 75.8711 68.5884 75.8681 68.554C75.865 68.5196 75.8698 68.485 75.8821 68.4527C75.8944 68.4205 75.9139 68.3914 75.939 68.3678C75.9641 68.3441 75.9943 68.3265 76.0273 68.3162C76.1664 68.2185 76.3358 68.1737 76.5051 68.1897C76.6743 68.2057 76.8323 68.2816 76.9507 68.4036C77.1065 68.5252 77.1673 68.5708 77.3687 68.453C77.6339 68.2625 77.8374 67.9982 77.9539 67.693C78.1088 67.3129 78.3733 66.9875 78.7139 66.7582C78.8537 66.6613 79.0232 66.6165 79.1926 66.6318C79.3621 66.6471 79.5208 66.7214 79.6411 66.8418C79.7969 66.9634 79.8577 67.009 80.0591 66.8912C80.3231 66.6994 80.5263 66.4355 80.6443 66.1312C80.7992 65.7511 81.0637 65.4257 81.4043 65.1964C81.5438 65.0987 81.7135 65.0535 81.8831 65.0688C82.0528 65.0841 82.2116 65.1589 82.3315 65.28C82.4873 65.4016 82.5481 65.4472 82.7495 65.3294C82.7754 65.3144 82.8041 65.3047 82.8338 65.3008C82.8635 65.2969 82.8937 65.2989 82.9226 65.3066C82.9515 65.3144 82.9787 65.3278 83.0024 65.3461C83.0262 65.3643 83.0461 65.3871 83.0611 65.413C83.0766 65.4388 83.0867 65.4675 83.0909 65.4973C83.0951 65.5271 83.0932 65.5575 83.0854 65.5866C83.0776 65.6157 83.064 65.6429 83.0455 65.6666C83.0269 65.6903 83.0038 65.7101 82.9775 65.7246C82.8382 65.8213 82.6694 65.8659 82.5006 65.8506C82.3317 65.8354 82.1737 65.7612 82.0541 65.641C81.8945 65.5194 81.8375 65.4738 81.6323 65.5916C81.3682 65.7835 81.1651 66.0473 81.0471 66.3516C80.8922 66.7318 80.6276 67.0572 80.2871 67.2864C80.1472 67.3834 79.9778 67.4282 79.8083 67.4129C79.6388 67.3976 79.4801 67.3232 79.3599 67.2028C79.2041 67.0812 79.1471 67.0356 78.9419 67.1534C78.6774 67.3448 78.4741 67.6088 78.3567 67.9134C78.2028 68.2952 77.9381 68.6221 77.5967 68.852C77.4675 68.9235 77.3225 68.9614 77.1749 68.9622Z" fill="white"/>
</g>
<path d="M66.5406 72.9066C66.3537 72.8961 66.1764 72.8209 66.039 72.6938C65.8832 72.5722 65.8224 72.5266 65.621 72.6444C65.5683 72.6737 65.5064 72.6813 65.4482 72.6657C65.3901 72.6501 65.3403 72.6125 65.3094 72.5608C65.2939 72.535 65.2837 72.5063 65.2795 72.4765C65.2753 72.4467 65.2772 72.4164 65.285 72.3873C65.2928 72.3582 65.3064 72.331 65.3249 72.3073C65.3435 72.2836 65.3666 72.2638 65.393 72.2492C65.5325 72.1515 65.7022 72.1063 65.8718 72.1216C66.0415 72.1369 66.2003 72.2117 66.3202 72.3328C66.476 72.4544 66.533 72.5 66.7382 72.3822C67.0017 72.1908 67.2037 71.9267 67.3196 71.6222C67.476 71.242 67.7401 70.9157 68.0796 70.6836C68.2193 70.5857 68.3893 70.5407 68.5592 70.5567C68.7291 70.5727 68.8878 70.6487 69.0068 70.771C69.1626 70.8926 69.2234 70.9382 69.4248 70.8204C69.69 70.6298 69.8935 70.3656 70.01 70.0604C70.165 69.6794 70.4295 69.3527 70.77 69.1218C70.9097 69.0239 71.0797 68.9789 71.2496 68.9949C71.4195 69.0109 71.5782 69.0869 71.6972 69.2092C71.8568 69.3308 71.9138 69.3764 72.119 69.2586C72.1435 69.2344 72.1733 69.2161 72.206 69.205C72.2387 69.1939 72.2735 69.1904 72.3077 69.1948C72.3419 69.1991 72.3747 69.2112 72.4036 69.23C72.4325 69.2489 72.4568 69.2741 72.4745 69.3037C72.4923 69.3333 72.5031 69.3665 72.5062 69.4009C72.5092 69.4353 72.5044 69.4699 72.4921 69.5021C72.4798 69.5344 72.4604 69.5634 72.4352 69.5871C72.4101 69.6107 72.3799 69.6283 72.347 69.6386C72.2079 69.7378 72.038 69.7839 71.8679 69.7686C71.6978 69.7533 71.5388 69.6775 71.4198 69.555C71.264 69.4334 71.2032 69.3878 70.998 69.5056C70.7349 69.6975 70.533 69.9615 70.4166 70.2656C70.2609 70.6453 69.9965 70.9705 69.6566 71.2004C69.5178 71.2986 69.3487 71.3441 69.1795 71.3288C69.0102 71.3135 68.852 71.2383 68.7332 71.1168C68.5736 70.9952 68.5166 70.9496 68.3114 71.0674C68.0475 71.2586 67.8454 71.5228 67.73 71.8274C67.5737 72.2068 67.3094 72.5318 66.97 72.7622C66.8428 72.8488 66.6942 72.8987 66.5406 72.9066Z" fill="#BA68C8"/>
<g opacity="0.5">
<path d="M66.5406 72.9066C66.3537 72.8961 66.1764 72.8209 66.039 72.6938C65.8832 72.5722 65.8224 72.5266 65.621 72.6444C65.5683 72.6737 65.5064 72.6813 65.4482 72.6657C65.3901 72.6501 65.3403 72.6125 65.3094 72.5608C65.2939 72.535 65.2837 72.5063 65.2795 72.4765C65.2753 72.4467 65.2772 72.4164 65.285 72.3873C65.2928 72.3582 65.3064 72.331 65.3249 72.3073C65.3435 72.2836 65.3666 72.2638 65.393 72.2492C65.5325 72.1515 65.7022 72.1063 65.8718 72.1216C66.0415 72.1369 66.2003 72.2117 66.3202 72.3328C66.476 72.4544 66.533 72.5 66.7382 72.3822C67.0017 72.1908 67.2037 71.9267 67.3196 71.6222C67.476 71.242 67.7401 70.9157 68.0796 70.6836C68.2193 70.5857 68.3893 70.5407 68.5592 70.5567C68.7291 70.5727 68.8878 70.6487 69.0068 70.771C69.1626 70.8926 69.2234 70.9382 69.4248 70.8204C69.69 70.6298 69.8935 70.3656 70.01 70.0604C70.165 69.6794 70.4295 69.3527 70.77 69.1218C70.9097 69.0239 71.0797 68.9789 71.2496 68.9949C71.4195 69.0109 71.5782 69.0869 71.6972 69.2092C71.8568 69.3308 71.9138 69.3764 72.119 69.2586C72.1435 69.2344 72.1733 69.2161 72.206 69.205C72.2387 69.1939 72.2735 69.1904 72.3077 69.1948C72.3419 69.1991 72.3747 69.2112 72.4036 69.23C72.4325 69.2489 72.4568 69.2741 72.4745 69.3037C72.4923 69.3333 72.5031 69.3665 72.5062 69.4009C72.5092 69.4353 72.5044 69.4699 72.4921 69.5021C72.4798 69.5344 72.4604 69.5634 72.4352 69.5871C72.4101 69.6107 72.3799 69.6283 72.347 69.6386C72.2079 69.7378 72.038 69.7839 71.8679 69.7686C71.6978 69.7533 71.5388 69.6775 71.4198 69.555C71.264 69.4334 71.2032 69.3878 70.998 69.5056C70.7349 69.6975 70.533 69.9615 70.4166 70.2656C70.2609 70.6453 69.9965 70.9705 69.6566 71.2004C69.5178 71.2986 69.3487 71.3441 69.1795 71.3288C69.0102 71.3135 68.852 71.2383 68.7332 71.1168C68.5736 70.9952 68.5166 70.9496 68.3114 71.0674C68.0475 71.2586 67.8454 71.5228 67.73 71.8274C67.5737 72.2068 67.3094 72.5318 66.97 72.7622C66.8428 72.8488 66.6942 72.8987 66.5406 72.9066Z" fill="white"/>
</g>
<path d="M55.5067 79.0894C55.3667 79.1867 55.1968 79.2312 55.0271 79.2152C54.8574 79.1992 54.6989 79.1237 54.5795 79.002C54.4199 78.8842 54.3667 78.8386 54.1615 78.9564C53.8973 79.149 53.693 79.4125 53.5725 79.7164C53.4171 80.0973 53.1527 80.4238 52.8125 80.655C52.672 80.7508 52.5024 80.7945 52.3331 80.7785C52.1638 80.7626 52.0054 80.688 51.8853 80.5676C51.7257 80.446 51.6725 80.4004 51.4635 80.5182C51.2009 80.7116 50.9981 80.975 50.8783 81.2782C50.766 81.5256 50.6174 81.7549 50.4375 81.9584V81.1452L50.4755 81.0692C50.631 80.6894 50.8954 80.3642 51.2355 80.1344C51.3745 80.0352 51.5445 79.9891 51.7146 80.0045C51.8847 80.0198 52.0437 80.0956 52.1627 80.218C52.3185 80.3396 52.3793 80.389 52.5807 80.2674C52.8472 80.0782 53.0511 79.8135 53.1659 79.5074C53.321 79.1264 53.5854 78.7998 53.9259 78.5688C54.0665 78.4713 54.237 78.4266 54.4074 78.4426C54.5777 78.4586 54.7369 78.5343 54.8569 78.6562C55.0089 78.774 55.0697 78.8196 55.2749 78.7018C55.3269 78.6728 55.3883 78.6652 55.4459 78.6809C55.5034 78.6965 55.5525 78.734 55.5827 78.7854C55.6122 78.836 55.6208 78.8961 55.6066 78.9529C55.5924 79.0097 55.5566 79.0587 55.5067 79.0894Z" fill="#BA68C8"/>
<g opacity="0.5">
<path d="M55.5067 79.0894C55.3667 79.1867 55.1968 79.2312 55.0271 79.2152C54.8574 79.1992 54.6989 79.1237 54.5795 79.002C54.4199 78.8842 54.3667 78.8386 54.1615 78.9564C53.8973 79.149 53.693 79.4125 53.5725 79.7164C53.4171 80.0973 53.1527 80.4238 52.8125 80.655C52.672 80.7508 52.5024 80.7945 52.3331 80.7785C52.1638 80.7626 52.0054 80.688 51.8853 80.5676C51.7257 80.446 51.6725 80.4004 51.4635 80.5182C51.2009 80.7116 50.9981 80.975 50.8783 81.2782C50.766 81.5256 50.6174 81.7549 50.4375 81.9584V81.1452L50.4755 81.0692C50.631 80.6894 50.8954 80.3642 51.2355 80.1344C51.3745 80.0352 51.5445 79.9891 51.7146 80.0045C51.8847 80.0198 52.0437 80.0956 52.1627 80.218C52.3185 80.3396 52.3793 80.389 52.5807 80.2674C52.8472 80.0782 53.0511 79.8135 53.1659 79.5074C53.321 79.1264 53.5854 78.7998 53.9259 78.5688C54.0665 78.4713 54.237 78.4266 54.4074 78.4426C54.5777 78.4586 54.7369 78.5343 54.8569 78.6562C55.0089 78.774 55.0697 78.8196 55.2749 78.7018C55.3269 78.6728 55.3883 78.6652 55.4459 78.6809C55.5034 78.6965 55.5525 78.734 55.5827 78.7854C55.6122 78.836 55.6208 78.8961 55.6066 78.9529C55.5924 79.0097 55.5566 79.0587 55.5067 79.0894Z" fill="white"/>
</g>
<path d="M86.5665 59.8574V60.4198C86.3906 60.6028 86.2479 60.8149 86.1447 61.0468C85.9875 61.4266 85.7235 61.7527 85.3847 61.9854C85.2453 62.0824 85.076 62.1268 84.907 62.1108C84.7379 62.0948 84.58 62.0194 84.4613 61.898C84.3017 61.7802 84.2447 61.7308 84.0395 61.8486C83.7759 62.0409 83.5729 62.3046 83.4543 62.6086C83.3015 62.991 83.0365 63.3182 82.6943 63.5472C82.568 63.6276 82.4222 63.6723 82.2725 63.6764C82.0855 63.6665 81.9079 63.5912 81.7709 63.4636C81.6151 63.342 81.5543 63.2926 81.3491 63.4142C81.3006 63.428 81.2489 63.4254 81.202 63.4067C81.1552 63.388 81.1159 63.3543 81.0902 63.3108C81.0646 63.2674 81.0541 63.2166 81.0604 63.1666C81.0666 63.1165 81.0893 63.07 81.1249 63.0342C81.2648 62.9387 81.4337 62.8952 81.6024 62.9112C81.771 62.9271 81.9288 63.0016 82.0483 63.1216C82.2041 63.247 82.2649 63.2888 82.4701 63.171C82.7339 62.9799 82.9361 62.7157 83.0515 62.411C83.21 62.0331 83.4738 61.7086 83.8115 61.4762C83.9516 61.38 84.1209 61.3357 84.2902 61.3509C84.4594 61.3662 84.6181 61.4401 84.7387 61.5598C84.8945 61.6814 84.9553 61.7308 85.1567 61.613C85.4209 61.4213 85.6241 61.1574 85.7419 60.853C85.8969 60.4719 86.1614 60.1453 86.5019 59.9144L86.5665 59.8574Z" fill="#BA68C8"/>
<g opacity="0.5">
<path d="M86.5665 59.8574V60.4198C86.3906 60.6028 86.2479 60.8149 86.1447 61.0468C85.9875 61.4266 85.7235 61.7527 85.3847 61.9854C85.2453 62.0824 85.076 62.1268 84.907 62.1108C84.7379 62.0948 84.58 62.0194 84.4613 61.898C84.3017 61.7802 84.2447 61.7308 84.0395 61.8486C83.7759 62.0409 83.5729 62.3046 83.4543 62.6086C83.3015 62.991 83.0365 63.3182 82.6943 63.5472C82.568 63.6276 82.4222 63.6723 82.2725 63.6764C82.0855 63.6665 81.9079 63.5912 81.7709 63.4636C81.6151 63.342 81.5543 63.2926 81.3491 63.4142C81.3006 63.428 81.2489 63.4254 81.202 63.4067C81.1552 63.388 81.1159 63.3543 81.0902 63.3108C81.0646 63.2674 81.0541 63.2166 81.0604 63.1666C81.0666 63.1165 81.0893 63.07 81.1249 63.0342C81.2648 62.9387 81.4337 62.8952 81.6024 62.9112C81.771 62.9271 81.9288 63.0016 82.0483 63.1216C82.2041 63.247 82.2649 63.2888 82.4701 63.171C82.7339 62.9799 82.9361 62.7157 83.0515 62.411C83.21 62.0331 83.4738 61.7086 83.8115 61.4762C83.9516 61.38 84.1209 61.3357 84.2902 61.3509C84.4594 61.3662 84.6181 61.4401 84.7387 61.5598C84.8945 61.6814 84.9553 61.7308 85.1567 61.613C85.4209 61.4213 85.6241 61.1574 85.7419 60.853C85.8969 60.4719 86.1614 60.1453 86.5019 59.9144L86.5665 59.8574Z" fill="white"/>
</g>
<path d="M58.5937 64.6192L57.6589 65.1512V64.8206C57.6589 64.7978 57.6589 64.775 57.6589 64.7522C57.6589 64.7294 57.6589 64.7066 57.6589 64.6838C57.6247 64.2468 57.2789 64.0796 56.8989 64.3038C56.7162 64.4166 56.5595 64.5668 56.4391 64.7446C56.3479 64.1518 55.8615 63.9352 55.2763 64.2734C54.9322 64.4979 54.6459 64.8004 54.4406 65.1562C54.2353 65.5121 54.1167 65.9113 54.0945 66.3216V67.0284C54.0947 67.0846 54.08 67.1398 54.052 67.1885C54.024 67.2372 53.9836 67.2777 53.9349 67.3058L53.3839 67.6288C53.2672 67.7006 53.1709 67.8012 53.1043 67.921C53.0378 68.0408 53.0032 68.1757 53.0039 68.3128C53.0042 68.37 53.0196 68.4261 53.0484 68.4755C53.0772 68.525 53.1185 68.566 53.1681 68.5944C53.2177 68.6229 53.274 68.6378 53.3312 68.6378C53.3884 68.6377 53.4446 68.6226 53.4941 68.594L58.6013 65.6452C58.7348 65.5677 58.8459 65.457 58.9238 65.3238C59.0017 65.1906 59.0438 65.0395 59.0459 64.8852C59.0514 64.8302 59.0411 64.7749 59.0161 64.7256C58.9911 64.6764 58.9526 64.6354 58.905 64.6074C58.8574 64.5794 58.8028 64.5656 58.7476 64.5677C58.6925 64.5698 58.6391 64.5877 58.5937 64.6192Z" fill="white"/>
<path d="M81.4375 52.2804L80.5027 52.8124V52.3374C80.4685 51.8966 80.1227 51.7294 79.7427 51.9574C79.5585 52.0683 79.4014 52.2189 79.2829 52.3982C79.1917 51.8016 78.7053 51.5888 78.1163 51.927C77.7732 52.1514 77.4878 52.4534 77.2831 52.8085C77.0785 53.1637 76.9603 53.5621 76.9383 53.9714V54.682C76.9377 54.738 76.9227 54.793 76.8948 54.8416C76.8668 54.8902 76.8268 54.9307 76.7787 54.9594L76.2277 55.2786C76.1107 55.3501 76.0142 55.4507 75.9476 55.5706C75.881 55.6904 75.8466 55.8255 75.8477 55.9626C75.8473 56.0201 75.8622 56.0767 75.8907 56.1267C75.9193 56.1767 75.9605 56.2182 76.0102 56.2471C76.06 56.276 76.1165 56.2913 76.174 56.2914C76.2315 56.2915 76.2881 56.2764 76.3379 56.2476L81.4451 53.295C81.5785 53.2175 81.6896 53.1068 81.7676 52.9736C81.8455 52.8404 81.8876 52.6893 81.8897 52.535C81.8928 52.481 81.8808 52.4272 81.8548 52.3798C81.8289 52.3323 81.7902 52.2931 81.7431 52.2665C81.6959 52.24 81.6423 52.2272 81.5883 52.2297C81.5343 52.2321 81.482 52.2497 81.4375 52.2804Z" fill="white"/>
<path d="M60.4625 68.2022L59.8203 68.5822V68.2593C59.7975 67.9591 59.5695 67.8412 59.2921 68.0008C59.1654 68.0785 59.0566 68.1821 58.9729 68.3049C58.9121 67.8983 58.5929 67.75 58.1749 67.9818C57.939 68.1361 57.7427 68.3438 57.6021 68.5881C57.4615 68.8324 57.3804 69.1064 57.3655 69.3879V69.8743C57.3649 69.9127 57.3545 69.9504 57.3352 69.9837C57.3159 70.0169 57.2884 70.0447 57.2553 70.0643L56.8753 70.2847C56.7932 70.3329 56.7251 70.4018 56.6778 70.4844C56.6305 70.5671 56.6056 70.6606 56.6055 70.7558C56.6057 70.7949 56.6162 70.8332 56.6358 70.867C56.6554 70.9007 56.6835 70.9288 56.7172 70.9484C56.751 70.968 56.7893 70.9784 56.8284 70.9786C56.8674 70.9788 56.9059 70.9688 56.9399 70.9497L60.4473 68.9243C60.5407 68.8703 60.6183 68.7928 60.6723 68.6994C60.7263 68.606 60.7549 68.5001 60.7551 68.3922C60.7582 68.3565 60.7515 68.3207 60.7358 68.2884C60.7201 68.2562 60.6959 68.2289 60.6658 68.2094C60.6358 68.1899 60.601 68.1789 60.5651 68.1776C60.5293 68.1764 60.4938 68.1849 60.4625 68.2022Z" fill="white"/>
<path d="M50.5477 92.5531C50.5084 92.554 50.4696 92.5443 50.4355 92.5248C50.4014 92.5054 50.3731 92.4771 50.3539 92.4429C50.3246 92.3919 50.3166 92.3314 50.3316 92.2746C50.3465 92.2177 50.3832 92.169 50.4337 92.1389L86.3437 71.4061C86.3947 71.3769 86.4551 71.3689 86.512 71.3838C86.5688 71.3987 86.6176 71.4354 86.6477 71.4859C86.6627 71.5113 86.6726 71.5395 86.6767 71.5687C86.6809 71.598 86.6792 71.6278 86.6718 71.6564C86.6643 71.685 86.6513 71.7119 86.6335 71.7354C86.6157 71.759 86.5934 71.7788 86.5679 71.7937L50.6579 92.5265C50.6238 92.5442 50.586 92.5533 50.5477 92.5531Z" fill="#E0E0E0"/>
<path d="M50.5497 112.195C50.5003 112.195 50.4522 112.179 50.4128 112.149C50.3735 112.12 50.3451 112.078 50.3321 112.03C50.3191 111.982 50.3222 111.932 50.341 111.886C50.3597 111.84 50.393 111.802 50.4357 111.777L86.3457 91.0443C86.3972 91.0154 86.458 91.008 86.5149 91.0237C86.5718 91.0393 86.6202 91.0768 86.6497 91.1279C86.6647 91.153 86.6745 91.1809 86.6786 91.2099C86.6827 91.2389 86.6809 91.2683 86.6735 91.2966C86.6661 91.3249 86.6531 91.3515 86.6353 91.3747C86.6175 91.3979 86.5953 91.4174 86.5699 91.4319L50.6599 112.165C50.6262 112.184 50.5883 112.194 50.5497 112.195Z" fill="#E0E0E0"/>
<path d="M111.044 71.3983C117.575 71.3983 122.87 66.1038 122.87 59.5727C122.87 53.0416 117.575 47.7471 111.044 47.7471C104.513 47.7471 99.2188 53.0416 99.2188 59.5727C99.2188 66.1038 104.513 71.3983 111.044 71.3983Z" fill="#BA68C8"/>
<path d="M102.955 65.5688C102.955 65.5688 104.24 71.398 99.6797 71.398C99.6797 71.398 105.049 73.7312 106.991 68.9546L102.955 65.5688Z" fill="#BA68C8"/>
<path d="M111.951 59.9108C112.596 59.6952 113.143 59.2571 113.495 58.675C113.847 58.0929 113.98 57.4046 113.871 56.7333C113.761 56.0619 113.417 55.4514 112.899 55.0107C112.381 54.5701 111.723 54.3281 111.043 54.3281C110.362 54.3281 109.704 54.5701 109.186 55.0107C108.668 55.4514 108.324 56.0619 108.214 56.7333C108.105 57.4046 108.238 58.0929 108.59 58.675C108.942 59.2571 109.489 59.6952 110.134 59.9108C109.011 60.129 107.999 60.7302 107.27 61.6117C106.541 62.4932 106.14 63.6004 106.137 64.7444C106.137 64.7672 106.137 64.79 106.137 64.8128H115.971C115.971 64.79 115.971 64.7672 115.971 64.7444C115.966 63.5972 115.563 62.4874 114.829 61.6055C114.096 60.7235 113.078 60.1243 111.951 59.9108Z" fill="white"/>
<path d="M98.6778 43.9089C103.807 43.9089 107.965 39.7509 107.965 34.6217C107.965 29.4925 103.807 25.3345 98.6778 25.3345C93.5486 25.3345 89.3906 29.4925 89.3906 34.6217C89.3906 39.7509 93.5486 43.9089 98.6778 43.9089Z" fill="#BA68C8"/>
<path d="M92.33 39.3301C92.33 39.3301 93.337 43.8901 89.7422 43.8901C89.7422 43.8901 93.9564 45.7217 95.4802 41.9901L92.33 39.3301Z" fill="#BA68C8"/>
<path d="M101.17 31.2056C100.509 31.2056 99.8746 31.4682 99.4071 31.9357C98.9396 32.4032 98.677 33.0372 98.677 33.6984C98.677 33.0372 98.4144 32.4032 97.9469 31.9357C97.4794 31.4682 96.8453 31.2056 96.1842 31.2056C95.5231 31.2056 94.889 31.4682 94.4215 31.9357C93.954 32.4032 93.6914 33.0372 93.6914 33.6984C93.6914 37.7682 98.677 39.3528 98.677 39.3528C98.677 39.3528 103.663 37.7682 103.663 33.6984C103.663 33.0372 103.4 32.4032 102.932 31.9357C102.465 31.4682 101.831 31.2056 101.17 31.2056Z" fill="white"/>
<path d="M38.1287 110.864C42.6059 106.386 42.6059 99.1273 38.1287 94.6501C33.6515 90.1729 26.3925 90.1729 21.9153 94.6501C17.4381 99.1273 17.4381 106.386 21.9153 110.864C26.3925 115.341 33.6515 115.341 38.1287 110.864Z" fill="#BA68C8"/>
<path d="M37.8599 108.566C37.8599 108.566 36.6174 114.22 41.0558 114.22C41.0558 114.22 35.8498 116.478 33.9688 111.849L37.8599 108.566Z" fill="#BA68C8"/>
<path d="M34.4113 98.6709H25.6333C25.2334 98.6709 24.8497 98.8284 24.5651 99.1094C24.2806 99.3903 24.1183 99.7721 24.1133 100.172V105.34C24.1133 105.743 24.2734 106.13 24.5585 106.415C24.8435 106.7 25.2302 106.86 25.6333 106.86H28.8519L30.0907 109.626L31.2307 106.86H34.3923C34.7954 106.86 35.182 106.7 35.4671 106.415C35.7521 106.13 35.9123 105.743 35.9123 105.34V100.172C35.9074 99.7753 35.7476 99.3964 35.4672 99.116C35.1868 98.8355 34.8078 98.6758 34.4113 98.6709ZM33.1345 104.192H26.8645C26.7597 104.192 26.6591 104.151 26.585 104.077C26.5109 104.002 26.4693 103.902 26.4693 103.797C26.4693 103.692 26.5109 103.592 26.585 103.518C26.6591 103.444 26.7597 103.402 26.8645 103.402H33.1345C33.2393 103.402 33.3398 103.444 33.4139 103.518C33.488 103.592 33.5297 103.692 33.5297 103.797C33.5297 103.902 33.488 104.002 33.4139 104.077C33.3398 104.151 33.2393 104.192 33.1345 104.192ZM33.1345 101.62H26.8645C26.8126 101.62 26.7612 101.609 26.7132 101.59C26.6653 101.57 26.6217 101.541 26.585 101.504C26.5483 101.467 26.5192 101.424 26.4994 101.376C26.4795 101.328 26.4693 101.276 26.4693 101.224C26.4693 101.173 26.4795 101.121 26.4994 101.073C26.5192 101.025 26.5483 100.982 26.585 100.945C26.6217 100.908 26.6653 100.879 26.7132 100.859C26.7612 100.84 26.8126 100.829 26.8645 100.829H33.1345C33.2393 100.829 33.3398 100.871 33.4139 100.945C33.488 101.019 33.5297 101.12 33.5297 101.224C33.5297 101.329 33.488 101.43 33.4139 101.504C33.3398 101.578 33.2393 101.62 33.1345 101.62Z" fill="white"/>
</svg>
