<svg xmlns="http://www.w3.org/2000/svg" width="192" height="191" viewBox="0 0 192 191" fill="none">
  <path d="M174.646 32.1288L173.687 30.5626C165.589 17.1926 150.951 9.17065 135.518 10.1371C133.533 10.262 131.561 10.5327 129.616 10.9469C115.581 13.9533 103.373 24.5652 98.292 38.153C95.3162 46.1483 94.472 55.343 88.8375 61.6956C81.484 69.9507 69.004 70.2104 58.033 69.8666C47.0619 69.5228 34.5705 69.817 27.2552 78.1064C22.6712 83.2978 21.2158 90.6818 21.5864 97.6342C22.5643 116.043 35.3918 132.499 51.7032 140.682C68.0146 148.864 87.2292 149.594 105.072 145.995C130.082 140.953 153.865 127.109 168.16 105.725C182.454 84.3406 186.083 55.2093 174.646 32.1288Z" fill="#F5F5F5"/>
  <path d="M62.7705 40.2654C69.2146 37.658 72.3247 30.3203 69.7172 23.8763C67.1097 17.4323 59.7721 14.3222 53.3281 16.9296C46.8841 19.5371 43.7739 26.8748 46.3814 33.3188C48.9889 39.7628 56.3265 42.8729 62.7705 40.2654Z" fill="#F5F5F5"/>
  <path d="M178.512 182.457C178.512 182.515 141.573 182.557 96.0003 182.557C50.4277 182.557 13.4883 182.515 13.4883 182.457C13.4883 182.4 50.42 182.358 96.0003 182.358C141.581 182.358 178.512 182.404 178.512 182.457Z" fill="#263238"/>
  <path d="M169.072 113.447C165.481 115.308 162.727 118.513 160.748 122.038C158.769 125.564 157.489 129.434 156.225 133.277L155.121 153.091C159.3 145.982 162.654 137.624 163.559 129.426L160.779 129.182C162.643 128.895 164.217 127.543 165.202 125.942C166.188 124.342 166.73 122.504 167.211 120.675L163.819 121.179C166.499 119.373 168.38 116.604 169.072 113.447Z" fill="#455A64"/>
  <g opacity="0.3">
    <path d="M169.072 113.447C165.481 115.308 162.727 118.513 160.748 122.038C158.769 125.564 157.489 129.434 156.225 133.277L155.121 153.091C159.3 145.982 162.654 137.624 163.559 129.426L160.779 129.182C162.643 128.895 164.217 127.543 165.202 125.942C166.188 124.342 166.73 122.504 167.211 120.675L163.819 121.179C166.499 119.373 168.38 116.604 169.072 113.447Z" fill="black"/>
  </g>
  <path d="M154.499 157.72C154.499 157.72 145.43 146.864 145.534 136.5H149.197C149.197 136.5 145.217 133.884 145.534 132.417C145.851 130.95 145.954 125.403 145.954 125.403L149.3 126.244C149.3 126.244 146.79 124.987 146.477 122.997C146.164 121.006 147.207 111.796 147.207 111.796C147.207 111.796 151.29 116.09 152.555 120.483C153.819 124.876 157.108 130.01 156.138 143.403C155.168 156.796 154.499 157.72 154.499 157.72Z" fill="#455A64"/>
  <path d="M159.102 158.745C159.102 158.745 168.927 152.197 171.108 143.847L168.163 143.049C168.163 143.049 171.937 141.815 172.002 140.566C172.067 139.316 173.201 134.836 173.201 134.836L170.325 134.778C170.325 134.778 172.617 134.316 173.304 132.784C173.992 131.252 175.168 123.616 175.168 123.616C175.168 123.616 170.947 126.176 168.976 129.434C167.005 132.693 163.235 136.096 161.076 147.067C158.918 158.038 159.102 158.745 159.102 158.745Z" fill="#455A64"/>
  <path d="M149.688 121.261C149.703 121.296 149.715 121.333 149.722 121.372L149.802 121.708C149.871 122.013 149.97 122.445 150.092 122.995C150.215 123.545 150.367 124.24 150.524 125.039C150.681 125.837 150.876 126.742 151.063 127.751C151.445 129.764 151.861 132.171 152.285 134.848C152.709 137.526 153.103 140.479 153.465 143.585C153.828 146.69 154.096 149.662 154.31 152.371C154.524 155.079 154.657 157.513 154.738 159.56C154.787 160.584 154.81 161.512 154.837 162.326C154.864 163.139 154.875 163.854 154.879 164.415C154.883 164.977 154.879 165.416 154.879 165.733V166.077C154.879 166.153 154.879 166.195 154.879 166.195C154.875 166.156 154.875 166.116 154.879 166.077C154.879 165.989 154.879 165.875 154.879 165.733C154.879 165.42 154.848 164.969 154.829 164.415C154.81 163.861 154.787 163.143 154.749 162.33C154.711 161.516 154.684 160.591 154.623 159.568C154.527 157.52 154.363 155.087 154.153 152.386C153.943 149.685 153.649 146.721 153.294 143.6C152.938 140.479 152.53 137.545 152.128 134.868C151.727 132.19 151.322 129.783 150.948 127.77C150.772 126.762 150.593 125.86 150.444 125.05C150.295 124.24 150.157 123.564 150.043 123.003C149.928 122.441 149.852 122.017 149.791 121.708C149.764 121.566 149.745 121.456 149.73 121.368C149.71 121.334 149.696 121.298 149.688 121.261Z" fill="#263238"/>
  <path d="M153.244 164.365C153.244 164.365 144.943 154.949 142.365 149.253L144.309 148.424C142.899 148.657 141.456 148.042 140.363 147.129C139.27 146.216 138.453 144.998 137.689 143.806L140.252 143.374C137.895 142.704 135.886 141.153 134.641 139.042C137.666 139.539 140.401 141.201 142.663 143.279C144.454 144.999 146.08 146.883 147.522 148.906C148.247 149.878 148.878 150.917 149.409 152.008C150.795 154.884 153.248 160.908 153.244 164.365Z" fill="#455A64"/>
  <path d="M171.254 129.115C171.248 129.149 171.236 129.181 171.22 129.211L171.093 129.486L170.589 130.532C170.146 131.438 169.516 132.752 168.756 134.387C167.228 137.649 165.222 142.206 163.236 147.333C161.249 152.459 159.679 157.185 158.61 160.626C158.075 162.345 157.655 163.744 157.376 164.71L157.044 165.822L156.952 166.108C156.942 166.142 156.93 166.176 156.914 166.207C156.909 166.173 156.909 166.139 156.914 166.104C156.933 166.028 156.956 165.929 156.986 165.81C157.059 165.539 157.154 165.165 157.28 164.687C157.54 163.713 157.937 162.311 158.457 160.584C159.492 157.146 161.051 152.394 163.041 147.26C165.031 142.126 167.06 137.577 168.618 134.326C169.382 132.698 170.043 131.392 170.509 130.506C170.738 130.07 170.914 129.742 171.044 129.474C171.105 129.367 171.151 129.279 171.189 129.211C171.227 129.142 171.254 129.115 171.254 129.115Z" fill="#263238"/>
  <path d="M153.949 168.404C153.888 168.184 153.846 167.959 153.823 167.732C153.758 167.3 153.647 166.674 153.494 165.902C152.7 161.883 151.242 158.025 149.181 154.484C148.799 153.808 148.459 153.265 148.219 152.895C148.089 152.708 147.972 152.511 147.871 152.307C148.022 152.478 148.16 152.661 148.284 152.853C148.543 153.208 148.895 153.743 149.304 154.415C151.439 157.937 152.906 161.822 153.632 165.875C153.769 166.639 153.857 167.285 153.899 167.724C153.932 167.949 153.949 168.177 153.949 168.404Z" fill="#263238"/>
  <path d="M164.895 166.192H146.73V169.898H164.895V166.192Z" fill="#7E57C2"/>
  <path d="M148.465 169.895L150.428 182.356H161.403L163.237 169.895H148.465Z" fill="#7E57C2"/>
  <path d="M163.782 169.898C163.782 169.951 160.344 169.997 156.108 169.997C151.872 169.997 148.434 169.951 148.434 169.898C148.434 169.844 151.872 169.798 156.108 169.798C160.344 169.798 163.782 169.84 163.782 169.898Z" fill="#263238"/>
  <path d="M79.9861 46.7827H21.9297V182.458H79.9861V46.7827Z" fill="#455A64"/>
  <g opacity="0.3">
    <path d="M37.8018 46.7827H21.9297V182.458H37.8018V46.7827Z" fill="black"/>
  </g>
  <path d="M53.806 52.5162V51.4275L53.2788 52.3137H53.0229L52.4957 51.458V52.5162H51.9609V50.4648H52.4499L53.1719 51.649L53.8709 50.4648H54.3484V52.5162H53.806Z" fill="white"/>
  <path d="M55.8485 51.7789V52.5162H55.2679V51.7713L54.5039 50.4648H55.1151L55.6003 51.2785L56.0854 50.4648H56.6469L55.8485 51.7789Z" fill="white"/>
  <path d="M58.2095 50.9156V51.3664H59.1149V51.8133H58.2095V52.5162H57.6289V50.4648H59.2371V50.9156H58.2095Z" fill="white"/>
  <path d="M59.5078 50.4648H60.0923V52.5162H59.5116L59.5078 50.4648Z" fill="white"/>
  <path d="M60.5 50.4648H61.0768V52.054H62.0547V52.5162H60.5V50.4648Z" fill="white"/>
  <path d="M63.9121 52.0654V52.5162H62.2695V50.4648H63.8739V50.9156H62.8425V51.2594H63.7517V51.6911H62.8425V52.0731L63.9121 52.0654Z" fill="white"/>
  <path d="M64.1055 52.3332L64.2965 51.9091C64.4992 52.0364 64.7332 52.1051 64.9726 52.1078C65.2095 52.1078 65.3049 52.0428 65.3049 51.9435C65.3049 51.6188 64.1399 51.8557 64.1399 51.0955C64.1399 50.7135 64.4378 50.4308 65.049 50.4308C65.3067 50.4273 65.5613 50.4877 65.7901 50.6065L65.6105 51.0382C65.4384 50.9389 65.2439 50.885 65.0452 50.8816C64.8007 50.8816 64.7129 50.9618 64.7129 51.0649C64.7129 51.3782 65.8589 51.1451 65.8589 51.8977C65.8589 52.2568 65.5609 52.5585 64.9535 52.5585C64.6553 52.5647 64.3613 52.4866 64.1055 52.3332Z" fill="white"/>
  <path d="M77.8979 82.8959C77.8979 82.8959 77.8979 82.724 77.8979 82.3993C77.8979 82.0746 77.8979 81.5971 77.8979 80.9744C77.8979 79.7177 77.8979 77.8879 77.8979 75.5424C77.8979 70.8591 77.8711 64.1435 77.8558 55.9802L77.9361 56.0604L40.0646 56.0795L40.1639 55.9802C40.1639 65.6142 40.1639 74.7593 40.1639 82.8959L40.0761 82.8042L67.3776 82.8501L75.1628 82.873H77.2294H77.7642H77.9513H77.7756H77.2523H75.2009L67.4387 82.8997L40.0761 82.9456H39.9844V82.8959C39.9844 74.7593 39.9844 65.6142 39.9844 55.9802V55.8809H40.0875L77.959 55.9H78.0392V55.9802C78.0201 64.1626 78.0048 70.8782 77.9972 75.5959C77.9972 77.9299 77.9972 79.7559 77.9743 81.005C77.9743 81.62 77.9743 82.0937 77.9743 82.4184C77.9743 82.7431 77.8979 82.8959 77.8979 82.8959Z" fill="#263238"/>
  <g opacity="0.3">
    <path d="M67.023 72.5371H51.6055V75.1462H67.023V72.5371Z" fill="black"/>
  </g>
  <path d="M64.1936 60.9307H56.2441C55.7188 60.9307 55.293 61.3565 55.293 61.8818V67.5278C55.293 68.0531 55.7188 68.479 56.2441 68.479H64.1936C64.7189 68.479 65.1447 68.0531 65.1447 67.5278V61.8818C65.1447 61.3565 64.7189 60.9307 64.1936 60.9307Z" fill="white"/>
  <path d="M64.5017 67.3549C64.3685 67.2421 64.2492 67.1139 64.1464 66.9729L63.2334 65.9147L62.6108 65.1775L62.4427 64.9788C62.4221 64.9555 62.3957 64.938 62.3662 64.9279C62.3368 64.9179 62.3052 64.9157 62.2746 64.9215C62.2135 64.9215 62.1753 64.9788 62.1065 65.059L61.9117 65.273L61.5297 65.7199C61.4928 65.7731 61.4445 65.8175 61.3883 65.8499C61.3322 65.8822 61.2696 65.9018 61.205 65.9071C61.1335 65.9073 61.0634 65.8875 61.0026 65.8498C60.9725 65.8311 60.9454 65.8079 60.9223 65.781L60.8689 65.7199L60.0094 64.7267L59.5777 64.2225L59.3638 63.9742C59.3425 63.9463 59.313 63.9257 59.2794 63.9154C59.2458 63.9052 59.2099 63.9057 59.1766 63.9169C59.1456 63.9274 59.118 63.9458 59.0964 63.9703L59.0009 64.0964L58.8099 64.3409C58.6876 64.5013 58.5603 64.6579 58.4279 64.8107L57.1482 66.4648L56.2696 67.542C56.1678 67.6803 56.0526 67.8083 55.9258 67.924C56.004 67.7715 56.0988 67.628 56.2085 67.4962L57.0336 66.3693L58.2789 64.7114L58.6418 64.2339C58.7029 64.1537 58.7679 64.0735 58.829 63.9894L58.9245 63.8634C58.9712 63.8077 59.0318 63.7655 59.1002 63.7411C59.1683 63.7232 59.2399 63.7244 59.3073 63.7446C59.3747 63.7648 59.4353 63.8033 59.4822 63.8557L59.6961 64.104C59.8375 64.2683 59.9826 64.4402 60.1316 64.6083C60.4257 64.9483 60.7084 65.2844 60.9873 65.6053C61.1019 65.7696 61.2356 65.7657 61.3693 65.6053L61.7742 65.166L61.969 64.9521C62.0339 64.859 62.1302 64.7925 62.2402 64.7649C62.3002 64.7538 62.3621 64.7586 62.4197 64.7787C62.4773 64.7988 62.5287 64.8335 62.5688 64.8795L62.7368 65.0896L63.3404 65.8536L64.1999 66.9499C64.3136 67.0747 64.4146 67.2103 64.5017 67.3549Z" fill="#263238"/>
  <path d="M62.0003 63.0969C62.0003 63.0969 61.9774 63.0244 61.9354 62.9098C61.8815 62.7456 61.7755 62.6034 61.6336 62.5048C61.5331 62.4358 61.4176 62.3918 61.2966 62.3765C61.1757 62.3612 61.0528 62.3751 60.9384 62.417C60.8403 62.454 60.7513 62.5117 60.6774 62.586C60.6035 62.6603 60.5464 62.7497 60.51 62.8479C60.4735 62.9462 60.4585 63.0511 60.4661 63.1557C60.4736 63.2602 60.5034 63.362 60.5536 63.454C60.6037 63.5461 60.673 63.6263 60.7568 63.6893C60.8406 63.7523 60.9369 63.7966 61.0392 63.8192C61.1416 63.8418 61.2476 63.8423 61.3501 63.8205C61.4526 63.7987 61.5493 63.7552 61.6336 63.6929C61.774 63.5927 61.8796 63.4511 61.9354 63.2879C61.9774 63.1695 61.985 63.0969 62.0003 63.0969C62.0156 63.0969 62.0309 63.1733 62.0003 63.307C61.9669 63.5023 61.8637 63.6787 61.71 63.8036C61.5928 63.8982 61.4535 63.9614 61.3052 63.9875C61.1569 64.0136 61.0044 64.0016 60.862 63.9526C60.6853 63.8903 60.5323 63.7747 60.4241 63.6218C60.3159 63.4689 60.2578 63.2862 60.2578 63.0988C60.2578 62.9115 60.3159 62.7288 60.4241 62.5759C60.5323 62.423 60.6853 62.3074 60.862 62.2451C61.0042 62.195 61.157 62.1825 61.3055 62.2086C61.454 62.2347 61.5933 62.2985 61.71 62.3941C61.8643 62.5185 61.9676 62.6952 62.0003 62.8907C62.0309 63.0282 62.0003 63.1008 62.0003 63.0969Z" fill="#263238"/>
  <g opacity="0.4">
    <path d="M72.5983 84.9302H39.582V110.581H72.5983V84.9302Z" fill="black"/>
  </g>
  <path d="M58.945 85.9089H52.6534L52.2714 85.2786C52.1497 85.0716 51.9761 84.9001 51.7677 84.7808C51.5594 84.6615 51.3235 84.5988 51.0834 84.5986H46.465C46.1109 84.5982 45.7702 84.734 45.5135 84.9779C45.2567 85.2219 45.1037 85.5552 45.086 85.9089H43.4396C43.0972 85.9089 42.7688 86.0449 42.5266 86.2871C42.2845 86.5292 42.1484 86.8576 42.1484 87.2001V90.4012H60.217V87.2001C60.2171 86.8609 60.0837 86.5354 59.8456 86.2938C59.6076 86.0522 59.2841 85.9139 58.945 85.9089Z" fill="#E0E0E0"/>
  <path d="M62.2385 85.9089H55.966L55.584 85.2786C55.4626 85.0714 55.2891 84.8996 55.0806 84.7803C54.8722 84.661 54.6362 84.5984 54.396 84.5986H49.7776C49.4239 84.5982 49.0836 84.7342 48.8275 84.9782C48.5714 85.2222 48.4191 85.5555 48.4024 85.9089H46.7522C46.4104 85.9099 46.083 86.0464 45.8417 86.2884C45.6004 86.5304 45.4648 86.8583 45.4648 87.2001V90.4012H63.5296V87.2001C63.5296 86.8576 63.3936 86.5292 63.1515 86.2871C62.9093 86.0449 62.5809 85.9089 62.2385 85.9089Z" fill="#EBEBEB"/>
  <path d="M66.547 85.9089H60.2707L59.8887 85.2786C59.7661 85.0716 59.5918 84.9001 59.3828 84.7809C59.1738 84.6616 58.9375 84.5988 58.6969 84.5986H54.0823C53.7286 84.5982 53.3883 84.7342 53.1322 84.9782C52.876 85.2222 52.7238 85.5555 52.7071 85.9089H51.0607C50.7183 85.9089 50.3898 86.0449 50.1477 86.2871C49.9056 86.5292 49.7695 86.8576 49.7695 87.2001V90.4012H67.8343V87.2001C67.8343 86.8583 67.6988 86.5304 67.4575 86.2884C67.2162 86.0464 66.8887 85.9099 66.547 85.9089Z" fill="#F5F5F5"/>
  <path d="M51.9883 102.596V87.213C52.0041 86.861 52.1591 86.5297 52.4191 86.2919C52.6791 86.0541 53.0229 85.9292 53.3749 85.9448H54.7005C54.9579 85.9489 55.2114 85.8819 55.4332 85.7512C55.655 85.6204 55.8363 85.4309 55.9573 85.2037L56.2438 84.6383C56.3656 84.4121 56.5472 84.2236 56.7688 84.0936C56.9905 83.9636 57.2436 83.897 57.5005 83.9011H63.7921C64.0278 83.8975 64.2607 83.9529 64.4695 84.0623C64.6784 84.1718 64.8565 84.3317 64.9877 84.5275L65.2972 85.005C65.4283 85.2001 65.6059 85.3595 65.8139 85.4689C66.022 85.5782 66.254 85.6341 66.489 85.6315H74.511C74.863 85.616 75.2068 85.7408 75.4668 85.9786C75.7268 86.2164 75.8818 86.5478 75.8977 86.8998V102.596H51.9883Z" fill="#7E57C2"/>
  <g opacity="0.3">
    <path d="M51.9883 102.596V87.213C52.0041 86.861 52.1591 86.5297 52.4191 86.2919C52.6791 86.0541 53.0229 85.9292 53.3749 85.9448H54.7005C54.9579 85.9489 55.2114 85.8819 55.4332 85.7512C55.655 85.6204 55.8363 85.4309 55.9573 85.2037L56.2438 84.6383C56.3656 84.4121 56.5472 84.2236 56.7688 84.0936C56.9905 83.9636 57.2436 83.897 57.5005 83.9011H63.7921C64.0278 83.8975 64.2607 83.9529 64.4695 84.0623C64.6784 84.1718 64.8565 84.3317 64.9877 84.5275L65.2972 85.005C65.4283 85.2001 65.6059 85.3595 65.8139 85.4689C66.022 85.5782 66.254 85.6341 66.489 85.6315H74.511C74.863 85.616 75.2068 85.7408 75.4668 85.9786C75.7268 86.2164 75.8818 86.5478 75.8977 86.8998V102.596H51.9883Z" fill="black"/>
  </g>
  <path d="M57.0117 90.0697V77.9297C57.0112 77.6913 57.0578 77.4551 57.1488 77.2348C57.2398 77.0144 57.3735 76.8142 57.5421 76.6456C57.7106 76.477 57.9109 76.3433 58.1312 76.2523C58.3516 76.1613 58.5878 76.1147 58.8262 76.1152H78.1745C78.6558 76.1152 79.1173 76.3064 79.4576 76.6467C79.7978 76.987 79.989 77.4485 79.989 77.9297V89.7335L57.0117 90.0697Z" fill="white"/>
  <path d="M57.7695 93.6152V78.2359C57.7854 77.8835 57.9402 77.5518 58.2001 77.3134C58.46 77.075 58.8038 76.9493 59.1562 76.9638H60.4741C60.7317 76.9686 60.9856 76.9023 61.208 76.7723C61.4303 76.6422 61.6126 76.4534 61.7347 76.2265L62.0174 75.6612C62.1393 75.4339 62.3214 75.2445 62.5437 75.1138C62.7661 74.9831 63.0201 74.9161 63.278 74.9201H69.5695C69.8045 74.9175 70.0365 74.9734 70.2446 75.0828C70.4526 75.1921 70.6302 75.3515 70.7613 75.5466L71.0708 76.0241C71.2018 76.2202 71.3798 76.3803 71.5887 76.4897C71.7976 76.5992 72.0306 76.6545 72.2664 76.6506H80.2884C80.6405 76.635 80.9842 76.7599 81.2443 76.9977C81.5043 77.2355 81.6592 77.5668 81.6751 77.9188V93.6152H57.7695Z" fill="#7E57C2"/>
  <path d="M57.7695 93.6131H57.888H58.2279H59.5382L64.4545 93.5902L81.6789 93.5444L81.5872 93.636C81.5872 91.0614 81.5872 88.3301 81.5872 85.4765C81.5872 84.0517 81.5872 82.5962 81.5872 81.1179V78.3102C81.599 78.127 81.599 77.9433 81.5872 77.7601C81.5559 77.5868 81.4856 77.4228 81.3817 77.2806C81.2778 77.1383 81.143 77.0215 80.9875 76.9388C80.844 76.8596 80.6874 76.8065 80.5253 76.7822C80.3548 76.7705 80.1838 76.7705 80.0134 76.7822H72.3161C72.1396 76.7857 71.9638 76.7585 71.7966 76.702C71.4586 76.5959 71.1708 76.3705 70.9867 76.0679L70.7232 75.6553C70.642 75.5271 70.5385 75.4146 70.4176 75.323C70.1741 75.1413 69.8771 75.0459 69.5733 75.0517H63.9961C63.702 75.0517 63.3887 75.0517 63.1213 75.0517C62.8468 75.0851 62.5893 75.2025 62.3841 75.3879C61.9792 75.7355 61.9372 76.4384 61.41 76.786C61.1687 76.9598 60.8819 77.0593 60.5849 77.0725H59.7559C59.4913 77.057 59.226 77.057 58.9614 77.0725C58.7118 77.1064 58.4771 77.2112 58.2852 77.3743C58.0972 77.5315 57.9635 77.7441 57.9032 77.9817C57.8684 78.2284 57.8569 78.4778 57.8688 78.7266C57.8688 79.73 57.8688 80.6952 57.8688 81.6221C57.8688 85.3161 57.8421 88.3071 57.8307 90.3852C57.8307 91.4166 57.8307 92.2227 57.8307 92.7804C57.8307 93.0478 57.8307 93.2579 57.8307 93.4068C57.8307 93.5558 57.8307 93.6246 57.8307 93.6246C57.8307 93.6246 57.8307 93.5558 57.8307 93.4183C57.8307 93.2808 57.8307 93.0707 57.8307 92.8071C57.8307 92.2532 57.8307 91.4548 57.8307 90.4311C57.8307 88.3492 57.8077 85.3505 57.7925 81.6451C57.7925 80.7168 57.7925 79.7351 57.7925 78.7304C57.7777 78.4676 57.7892 78.204 57.8268 77.9435C57.8708 77.6785 57.9948 77.4332 58.1821 77.2406C58.4002 77.0584 58.6648 76.9407 58.9461 76.9006C59.2192 76.8779 59.4934 76.8702 59.7674 76.8777H60.5887C60.8529 76.866 61.1079 76.777 61.3221 76.6218C61.7882 76.3276 61.8073 75.6744 62.2771 75.2313C62.5091 75.0218 62.7998 74.8884 63.1099 74.8493C63.4231 74.8225 63.7058 74.8493 64.0076 74.8493H69.5848C69.9297 74.84 70.2677 74.9477 70.5436 75.1549C70.6836 75.2591 70.8028 75.3887 70.8951 75.5369L71.1624 75.9494C71.3234 76.2134 71.5744 76.4101 71.8692 76.5033C72.0167 76.5533 72.1719 76.5766 72.3275 76.5721H80.021C80.2021 76.5635 80.3835 76.5699 80.5635 76.5912C80.7498 76.6186 80.9297 76.6794 81.0944 76.7707C81.2751 76.8688 81.4313 77.0063 81.5517 77.1729C81.672 77.3395 81.7534 77.5311 81.7897 77.7334C81.8091 77.9263 81.8155 78.1203 81.8088 78.314V85.4536C81.8088 88.3071 81.8088 91.0384 81.8088 93.6131V93.7048H81.7171L64.4354 93.659L59.5382 93.636H58.247H57.9147L57.7695 93.6131Z" fill="#263238"/>
  <path d="M68.7017 76.3108C67.8587 76.4091 67.0095 76.4423 66.1614 76.4101C65.3133 76.4422 64.4641 76.409 63.6211 76.3108C64.4639 76.2103 65.3133 76.1771 66.1614 76.2115C67.0095 76.1769 67.8589 76.2101 68.7017 76.3108Z" fill="white"/>
  <path d="M65.2109 100.085V84.6946C65.2109 83.9955 65.9138 83.4263 66.781 83.4263H68.2784C68.5587 83.4363 68.8369 83.3737 69.0859 83.2445C69.3348 83.1154 69.5462 82.924 69.6994 82.6891L70.0241 82.1314C70.1774 81.8964 70.3887 81.7051 70.6377 81.5759C70.8867 81.4467 71.1649 81.3841 71.4452 81.3941H78.5542C78.8128 81.386 79.0697 81.4385 79.3045 81.5472C79.5393 81.656 79.7454 81.8181 79.9065 82.0206L80.2541 82.4981C80.4154 82.6994 80.621 82.8607 80.8549 82.9693C81.0888 83.078 81.3447 83.1311 81.6026 83.1246H90.6521C91.5193 83.1246 92.2183 83.6937 92.2183 84.3928V100.085H65.2109Z" fill="#7E57C2"/>
  <path d="M65.2085 100.085H65.346H65.728H67.2178L72.795 100.059L92.2273 100.017L92.1356 100.108C92.1356 97.503 92.1356 94.7602 92.1356 91.9372C92.1356 90.5238 92.1356 89.085 92.1356 87.6206V85.3783C92.1356 85.0154 92.1356 84.6143 92.1356 84.2743C92.1084 84.104 92.0431 83.942 91.9445 83.8005C91.846 83.659 91.7167 83.5415 91.5665 83.4568C91.2542 83.2722 90.8931 83.1869 90.5312 83.2124H81.7452C81.3744 83.2342 81.0049 83.1507 80.6795 82.9717C80.5145 82.8832 80.3679 82.7639 80.2478 82.6203C80.1294 82.4713 80.0377 82.3376 79.9307 82.1924C79.7532 81.9093 79.4833 81.6961 79.1667 81.5889C78.8493 81.4908 78.5161 81.4545 78.185 81.4819H71.3357C71.0412 81.4959 70.7554 81.5867 70.5068 81.7455C70.3843 81.8236 70.2758 81.9217 70.1859 82.0358C70.1014 82.1581 70.0249 82.2857 69.9567 82.4178C69.8803 82.5515 69.8116 82.6776 69.7275 82.7998C69.6397 82.9321 69.5299 83.0484 69.4028 83.1436C69.1546 83.3295 68.8624 83.448 68.5548 83.4874C67.9474 83.5256 67.4088 83.4874 66.8205 83.4874C66.5558 83.472 66.2915 83.5234 66.0518 83.6369C65.8122 83.7504 65.6049 83.9223 65.4491 84.1368C65.3143 84.3548 65.2565 84.6117 65.2849 84.8664V85.6533C65.2849 86.1729 65.2849 86.6809 65.2849 87.1813C65.2849 91.1503 65.2543 94.3591 65.2467 96.59C65.2467 97.6978 65.2467 98.5649 65.2276 99.157C65.2276 99.4474 65.2276 99.6727 65.2276 99.8294C65.2276 99.986 65.2276 100.066 65.2276 100.066C65.2276 100.066 65.2276 99.9936 65.2276 99.8446C65.2276 99.6957 65.2276 99.4626 65.2276 99.1876C65.2276 98.5955 65.2276 97.736 65.2085 96.632C65.2085 94.3973 65.1855 91.1771 65.1703 87.2004C65.1703 86.7 65.1703 86.1881 65.1703 85.6724V84.8779C65.1428 84.594 65.2071 84.3088 65.3536 84.0642C65.5235 83.8276 65.7498 83.6373 66.012 83.5105C66.2742 83.3837 66.564 83.3246 66.8549 83.3384C67.4126 83.3384 68.0009 83.3384 68.5662 83.3155C68.8437 83.2788 69.1069 83.1709 69.3302 83.0023C69.5498 82.8133 69.7236 82.5769 69.8383 82.3108C69.9128 82.1791 69.9944 82.0516 70.0828 81.9288C70.1825 81.8004 70.3041 81.6905 70.4419 81.6041C70.7146 81.4261 71.0296 81.3233 71.3548 81.3062H75.2054H78.2156C78.5689 81.2759 78.9247 81.3161 79.2622 81.4246C79.6097 81.5465 79.9058 81.782 80.1026 82.0931C80.2058 82.2306 80.3089 82.3796 80.4082 82.5095C80.5167 82.6329 80.646 82.7364 80.7902 82.8151C81.0885 82.9762 81.426 83.0503 81.7643 83.029H90.5504C90.9509 83.002 91.3504 83.0965 91.6964 83.3002C91.8725 83.4012 92.0233 83.5411 92.1372 83.7093C92.2511 83.8775 92.325 84.0694 92.3534 84.2705C92.3534 84.6525 92.3534 85.0345 92.3534 85.3936V91.922C92.3534 94.7564 92.3534 97.4877 92.3534 100.093V100.185H92.2617L72.7797 100.139L67.1796 100.085H65.7089H65.3269H65.2085Z" fill="#263238"/>
  <path d="M78.2431 82.9773C77.128 83.0756 76.0081 83.1088 74.8891 83.0766C73.7701 83.1088 72.6503 83.0756 71.5352 82.9773C72.6501 82.8766 73.7701 82.8434 74.8891 82.8779C76.0081 82.8434 77.1281 82.8766 78.2431 82.9773Z" fill="white"/>
  <path d="M63.6098 90.0562H39.582V110.768H63.6098V90.0562Z" fill="#455A64"/>
  <g opacity="0.3">
    <path d="M63.6098 90.0562H39.582V110.768H63.6098V90.0562Z" fill="black"/>
  </g>
  <path d="M101.485 84.5986H63.6094V111.514H101.485V84.5986Z" fill="#455A64"/>
  <path d="M101.487 111.507C101.487 111.507 101.487 111.339 101.487 111.014C101.487 110.689 101.487 110.208 101.487 109.585C101.487 108.332 101.487 106.499 101.468 104.157C101.468 99.4739 101.441 92.7545 101.426 84.595L101.506 84.6752L63.6344 84.6943L63.7337 84.595C63.7337 94.229 63.7337 103.37 63.7337 111.507L63.642 111.419L90.9436 111.461L98.7287 111.488H100.795H101.517H101.342H100.818H98.7669L91.0047 111.511L63.642 111.557H63.5312V111.465C63.5312 103.328 63.5312 94.187 63.5312 84.5529V84.4536H63.6344H101.506H101.586V84.5377C101.567 92.7201 101.552 99.4357 101.544 104.15C101.544 106.484 101.544 108.31 101.521 109.559C101.521 110.177 101.521 110.647 101.521 110.972C101.521 111.297 101.487 111.507 101.487 111.507Z" fill="#263238"/>
  <g opacity="0.3">
    <path d="M93.3806 102.326H75.8086V104.935H93.3806V102.326Z" fill="black"/>
  </g>
  <path d="M87.9943 92.2324H80.0449C79.5196 92.2324 79.0938 92.6583 79.0938 93.1836V98.8296C79.0938 99.3549 79.5196 99.7807 80.0449 99.7807H87.9943C88.5197 99.7807 88.9455 99.3549 88.9455 98.8296V93.1836C88.9455 92.6583 88.5197 92.2324 87.9943 92.2324Z" fill="white"/>
  <path d="M81.1795 94.4639H83.1927V95.14H83.0972C83.0944 95.0427 83.0684 94.9476 83.0212 94.8625C82.974 94.7774 82.907 94.7049 82.8259 94.651C82.7063 94.5962 82.5755 94.57 82.4439 94.5747V96.3357C82.4326 96.422 82.4545 96.5093 82.5051 96.5802C82.5857 96.6313 82.6815 96.6529 82.7763 96.6413V96.7291H81.5959V96.6451C81.687 96.6566 81.7792 96.6349 81.8557 96.584C81.9072 96.5135 81.9304 96.4262 81.9206 96.3395V94.5785C81.7891 94.575 81.6586 94.6011 81.5386 94.6549C81.4551 94.7061 81.3863 94.7781 81.3388 94.8638C81.2913 94.9494 81.2667 95.0459 81.2674 95.1438H81.1719L81.1795 94.4639Z" fill="#263238"/>
  <path d="M86.9404 94.6457C85.8915 94.7782 84.8301 94.7782 83.7812 94.6457C84.8301 94.5133 85.8915 94.5133 86.9404 94.6457Z" fill="#263238"/>
  <path d="M87.0067 96.0554C85.9566 96.1878 84.8939 96.1878 83.8438 96.0554C84.8939 95.9229 85.9566 95.9229 87.0067 96.0554Z" fill="#263238"/>
  <path d="M87.4295 97.4709C86.451 97.5692 85.4671 97.6024 84.4843 97.5702C83.5014 97.6024 82.5175 97.5692 81.5391 97.4709C82.5174 97.3703 83.5014 97.3371 84.4843 97.3716C85.4671 97.3371 86.4512 97.3703 87.4295 97.4709Z" fill="#263238"/>
  <path d="M77.8979 141.486C77.8979 141.486 77.8979 141.314 77.8979 140.989C77.8979 140.664 77.8979 140.183 77.8979 139.56C77.8979 138.308 77.8979 136.474 77.8979 134.132C77.8979 129.449 77.8711 122.73 77.8558 114.57L77.9361 114.65L40.0646 114.669L40.1639 114.57C40.1639 124.204 40.1639 133.349 40.1639 141.486L40.0761 141.394L67.3776 141.44L75.1628 141.463H77.2294H77.7642H77.9513H77.2523H75.2009L67.4387 141.486L40.0761 141.532H39.9844V141.444C39.9844 133.307 39.9844 124.162 39.9844 114.528V114.429H40.0875L77.959 114.448H78.0392V114.528C78.0201 122.71 78.0048 129.445 77.9972 134.14C77.9972 136.478 77.9972 138.304 77.9743 139.553C77.9743 140.168 77.9743 140.642 77.9743 140.966C77.9743 141.291 77.8979 141.486 77.8979 141.486Z" fill="#263238"/>
  <g opacity="0.3">
    <path d="M67.6305 131.119H51.6094V133.728H67.6305V131.119Z" fill="black"/>
  </g>
  <path d="M63.8694 120.978H55.9199C55.3946 120.978 54.9688 121.403 54.9688 121.929V127.575C54.9688 128.1 55.3946 128.526 55.9199 128.526H63.8694C64.3947 128.526 64.8205 128.1 64.8205 127.575V121.929C64.8205 121.403 64.3947 120.978 63.8694 120.978Z" fill="white"/>
  <path d="M59.209 125.873C59.1586 125.977 59.0782 126.064 58.978 126.122C58.8778 126.18 58.7624 126.207 58.6468 126.199C58.5312 126.192 58.4205 126.149 58.3291 126.078C58.2377 126.007 58.1697 125.91 58.1339 125.8C58.0981 125.689 58.0961 125.571 58.1281 125.46C58.1602 125.348 58.2248 125.249 58.3137 125.175C58.4027 125.1 58.5118 125.054 58.6271 125.043C58.7424 125.031 58.8586 125.054 58.9607 125.109C59.0933 125.179 59.1934 125.298 59.2397 125.44C59.2861 125.583 59.2751 125.738 59.209 125.873Z" fill="#263238"/>
  <path d="M59.2258 125.678C59.067 125.248 59.0006 124.79 59.031 124.333C58.9967 123.881 59.0198 123.427 59.0997 122.981C59.2202 123.42 59.2654 123.876 59.2334 124.329C59.27 124.778 59.2675 125.229 59.2258 125.678Z" fill="#263238"/>
  <path d="M60.9518 123.311C60.6932 123.462 60.3974 123.539 60.0978 123.531C59.7982 123.524 59.5066 123.433 59.2558 123.269C59.0991 123.151 59.0571 123.028 59.08 123.017C59.103 123.005 59.1794 123.078 59.336 123.151C59.5364 123.246 59.7527 123.303 59.9739 123.319C60.5011 123.387 60.9327 123.25 60.9518 123.311Z" fill="#263238"/>
  <path d="M61.0608 126.212C61.0079 126.314 60.926 126.398 60.8254 126.454C60.7248 126.509 60.6101 126.533 60.4957 126.523C60.3813 126.514 60.2724 126.47 60.1827 126.398C60.0931 126.327 60.0267 126.23 59.992 126.12C59.9573 126.011 59.9558 125.894 59.9878 125.783C60.0197 125.673 60.0836 125.575 60.1714 125.501C60.2593 125.427 60.367 125.381 60.4811 125.368C60.5953 125.355 60.7106 125.376 60.8125 125.429C60.8806 125.464 60.9412 125.512 60.9906 125.57C61.04 125.629 61.0774 125.696 61.1005 125.769C61.1236 125.842 61.132 125.919 61.1252 125.995C61.1184 126.071 61.0965 126.145 61.0608 126.212Z" fill="#263238"/>
  <path d="M61.0778 126.003C60.9215 125.572 60.8564 125.115 60.8868 124.658C60.8526 124.206 60.8744 123.752 60.9517 123.306C61.0722 123.744 61.1174 124.2 61.0854 124.654C61.122 125.103 61.1195 125.554 61.0778 126.003Z" fill="#263238"/>
  <path d="M60.9747 123.704C60.8466 123.808 60.6982 123.884 60.5391 123.927C60.3799 123.971 60.2134 123.98 60.0503 123.956C59.886 123.964 59.7218 123.937 59.5689 123.877C59.416 123.816 59.2779 123.723 59.1641 123.605C59.1908 123.555 59.569 123.731 60.0618 123.753C60.5545 123.776 60.9518 123.647 60.9747 123.704Z" fill="#263238"/>
  <path d="M77.9015 170.781C77.9015 170.781 77.9015 170.609 77.9015 170.284C77.9015 169.959 77.9015 169.482 77.9015 168.859C77.9015 167.606 77.9015 165.773 77.9015 163.427C77.9015 158.744 77.8748 152.028 77.8595 143.865L77.9397 143.945L40.0682 143.964L40.1676 143.865C40.1676 153.499 40.1676 162.644 40.1676 170.781L40.0797 170.689L67.3812 170.735L75.1664 170.758H77.233H77.7678H77.2445H75.1931L67.4309 170.781L40.0682 170.826H39.9766V170.735C39.9766 162.598 39.9766 153.453 39.9766 143.819V143.72H40.0797H77.9512H78.0314V143.8C78.0123 151.982 77.997 158.717 77.9894 163.416C77.9894 165.75 77.9894 167.576 77.9665 168.825C77.9665 169.44 77.9665 169.913 77.9665 170.238C77.9665 170.563 77.9015 170.781 77.9015 170.781Z" fill="#263238"/>
  <g opacity="0.3">
    <path d="M67.6305 160.41H51.6094V163.019H67.6305V160.41Z" fill="black"/>
  </g>
  <path d="M63.8694 150.172H55.9199C55.3946 150.172 54.9688 150.598 54.9688 151.123V156.769C54.9688 157.294 55.3946 157.72 55.9199 157.72H63.8694C64.3947 157.72 64.8205 157.294 64.8205 156.769V151.123C64.8205 150.598 64.3947 150.172 63.8694 150.172Z" fill="white"/>
  <path d="M60.4242 153.113L61.1882 153.564C61.2206 153.584 61.2473 153.613 61.2658 153.646C61.2843 153.679 61.294 153.717 61.294 153.755C61.294 153.793 61.2843 153.831 61.2658 153.864C61.2473 153.898 61.2206 153.926 61.1882 153.946L60.4242 154.427L59.6602 154.894C59.6259 154.915 59.5864 154.926 59.546 154.927C59.5057 154.928 59.4658 154.918 59.4307 154.898C59.3955 154.878 59.3664 154.849 59.3463 154.814C59.3262 154.779 59.3159 154.739 59.3164 154.699V152.857C59.3163 152.818 59.3267 152.779 59.3466 152.744C59.3665 152.71 59.3952 152.681 59.4298 152.661C59.4643 152.641 59.5035 152.631 59.5433 152.631C59.5831 152.632 59.6221 152.642 59.6564 152.663L60.4242 153.113Z" fill="#263238"/>
  <path d="M133.521 42.4416C133.521 42.6924 133.446 42.9376 133.307 43.1462C133.168 43.3547 132.97 43.5173 132.738 43.6133C132.506 43.7093 132.251 43.7344 132.005 43.6854C131.759 43.6365 131.533 43.5157 131.356 43.3384C131.178 43.161 131.058 42.935 131.009 42.689C130.96 42.443 130.985 42.188 131.081 41.9562C131.177 41.7245 131.339 41.5264 131.548 41.3871C131.757 41.2477 132.002 41.1733 132.253 41.1733C132.589 41.1733 132.912 41.307 133.149 41.5448C133.387 41.7826 133.521 42.1052 133.521 42.4416Z" fill="white"/>
  <path d="M133.519 42.4462C133.519 42.4462 133.5 42.3354 133.443 42.1482C133.361 41.8861 133.198 41.6571 132.977 41.495C132.816 41.3786 132.629 41.3037 132.432 41.2771C132.236 41.2504 132.036 41.2728 131.85 41.3422C131.624 41.4263 131.43 41.5773 131.293 41.775C131.156 41.9726 131.082 42.2075 131.082 42.4481C131.082 42.6887 131.156 42.9235 131.293 43.1212C131.43 43.3188 131.624 43.4698 131.85 43.554C132.036 43.6234 132.236 43.6458 132.432 43.6191C132.629 43.5924 132.816 43.5176 132.977 43.4012C133.198 43.239 133.361 43.01 133.443 42.7479C133.5 42.5608 133.504 42.4462 133.519 42.4462C133.549 42.5511 133.549 42.6622 133.519 42.767C133.464 43.069 133.301 43.3407 133.061 43.531C132.884 43.6721 132.675 43.7657 132.452 43.8032C132.23 43.8406 132.001 43.8206 131.789 43.745C131.525 43.6512 131.296 43.478 131.135 43.2492C130.973 43.0204 130.887 42.7472 130.887 42.4672C130.887 42.1871 130.973 41.9139 131.135 41.6852C131.296 41.4564 131.525 41.2832 131.789 41.1894C132.001 41.1127 132.23 41.0921 132.453 41.1295C132.676 41.167 132.885 41.2613 133.061 41.4033C133.301 41.5937 133.464 41.8653 133.519 42.1673C133.554 42.3354 133.531 42.45 133.519 42.4462Z" fill="#263238"/>
  <path d="M144.517 44.1922C150.312 44.1922 155.011 39.494 155.011 33.6986C155.011 27.9032 150.312 23.2051 144.517 23.2051C138.722 23.2051 134.023 27.9032 134.023 33.6986C134.023 39.494 138.722 44.1922 144.517 44.1922Z" fill="white"/>
  <path d="M155.015 33.6968C155.003 33.6415 154.997 33.5852 154.996 33.5287L154.958 33.0283C154.958 32.9187 154.951 32.7914 154.935 32.6463C154.935 32.5126 154.893 32.3674 154.87 32.2108C154.822 31.8457 154.748 31.4845 154.649 31.1297C154.407 30.1521 154.021 29.216 153.503 28.3526C152.259 26.2732 150.33 24.6921 148.047 23.8812C145.763 23.0704 143.269 23.0806 140.992 23.9099C140.528 24.0783 140.074 24.2774 139.636 24.5058C139.418 24.6281 139.208 24.7656 138.991 24.8878C138.77 25.0163 138.56 25.1605 138.36 25.3195C137.939 25.637 137.539 25.9829 137.165 26.3547C136.797 26.7319 136.457 27.134 136.145 27.558C135.499 28.4273 134.997 29.3946 134.659 30.423C133.946 32.5525 133.946 34.8563 134.659 36.9858C134.996 38.0149 135.498 38.9824 136.145 39.8508C136.457 40.2748 136.797 40.6769 137.165 41.0541C137.534 41.4148 137.927 41.7504 138.341 42.0587C138.541 42.2177 138.751 42.362 138.971 42.4904C139.189 42.6203 139.399 42.7616 139.617 42.8724C140.055 43.1008 140.508 43.2999 140.973 43.4683C142.718 44.1 144.599 44.2582 146.424 43.9267C147.877 43.6518 149.255 43.0735 150.469 42.2297C151.683 41.3858 152.705 40.2953 153.468 39.0295C153.986 38.1644 154.372 37.2272 154.614 36.2485C154.713 35.8938 154.787 35.5325 154.836 35.1675C154.859 35.0108 154.889 34.8657 154.901 34.732C154.912 34.5983 154.92 34.476 154.924 34.35L154.962 33.8534C154.963 33.7956 154.969 33.738 154.981 33.6815C154.981 33.6815 154.981 33.7388 154.981 33.8534C154.981 33.968 154.981 34.1399 154.981 34.3538C154.981 34.4646 154.981 34.5868 154.981 34.7358C154.981 34.8848 154.943 35.0185 154.924 35.1789C154.883 35.5465 154.814 35.9104 154.718 36.2676C154.483 37.2595 154.096 38.2091 153.572 39.083C152.325 41.2023 150.375 42.8183 148.062 43.6507C145.748 44.4832 143.216 44.4794 140.904 43.6402C140.43 43.4709 139.968 43.2693 139.522 43.0367C139.296 42.9144 139.082 42.7731 138.861 42.6547C138.638 42.5232 138.425 42.3764 138.223 42.2154C137.799 41.903 137.397 41.5622 137.019 41.1954C136.645 40.8115 136.298 40.4018 135.98 39.9692C135.316 39.0861 134.799 38.1003 134.452 37.0507C133.724 34.8819 133.724 32.5346 134.452 30.3657C134.801 29.3168 135.317 28.3313 135.98 27.4472C136.3 27.0164 136.647 26.6068 137.019 26.221C137.4 25.8566 137.804 25.5184 138.23 25.2087C138.433 25.0476 138.646 24.9008 138.868 24.7694C139.09 24.6395 139.308 24.4982 139.529 24.3874C139.977 24.1564 140.438 23.9548 140.912 23.7839C142.688 23.1287 144.607 22.9612 146.47 23.2987C147.942 23.5809 149.337 24.173 150.563 25.0358C151.789 25.8986 152.817 27.0123 153.579 28.3029C154.104 29.1768 154.49 30.1264 154.725 31.1183C154.822 31.4766 154.891 31.8419 154.931 32.2108C154.951 32.3674 154.977 32.5164 154.989 32.6501C155 32.7838 154.989 32.9098 154.989 33.0321C154.989 33.2422 154.989 33.4141 154.989 33.5325C154.989 33.6509 155.015 33.6968 155.015 33.6968Z" fill="#263238"/>
  <path d="M143.952 35.8687C143.323 35.8687 142.709 35.6823 142.186 35.3331C141.663 34.9838 141.256 34.4875 141.015 33.9067C140.775 33.326 140.712 32.6869 140.835 32.0704C140.957 31.4539 141.26 30.8876 141.704 30.4431C142.149 29.9986 142.715 29.6959 143.332 29.5733C143.948 29.4506 144.587 29.5136 145.168 29.7541C145.749 29.9947 146.245 30.4021 146.594 30.9247C146.944 31.4474 147.13 32.0619 147.13 32.6904C147.13 33.5334 146.795 34.3418 146.199 34.9378C145.603 35.5338 144.795 35.8687 143.952 35.8687ZM143.952 29.898C143.398 29.898 142.858 30.0621 142.398 30.3695C141.938 30.677 141.579 31.1139 141.368 31.6251C141.156 32.1362 141.101 32.6987 141.209 33.2412C141.318 33.7837 141.584 34.282 141.976 34.6729C142.367 35.0638 142.866 35.3298 143.409 35.4372C143.951 35.5447 144.514 35.4888 145.024 35.2766C145.535 35.0643 145.972 34.7053 146.279 34.245C146.585 33.7847 146.749 33.2437 146.748 32.6904C146.747 31.9495 146.452 31.2392 145.928 30.7157C145.403 30.1921 144.693 29.898 143.952 29.898Z" fill="#263238"/>
  <path d="M145.762 35.0768L145.453 35.3013L147.273 37.8083L147.582 37.5838L145.762 35.0768Z" fill="#263238"/>
  <path d="M142.44 31.5225C142.277 31.7303 142.161 31.9708 142.1 32.2275C142.039 32.4843 142.035 32.7512 142.087 33.0099C142.138 33.2686 142.246 33.513 142.401 33.7264C142.556 33.9398 142.756 34.1171 142.986 34.2461" fill="white"/>
  <path d="M142.986 34.2439C142.986 34.2439 142.799 34.2095 142.57 34.0185C142.271 33.7629 142.065 33.4151 141.986 33.0299C141.906 32.6446 141.957 32.2439 142.13 31.8908C142.264 31.6234 142.409 31.5088 142.428 31.5088C142.447 31.5088 142.352 31.6769 142.26 31.9366C142.14 32.2707 142.112 32.631 142.18 32.9795C142.256 33.3266 142.424 33.6471 142.665 33.9077C142.864 34.1178 143.013 34.2134 142.986 34.2439Z" fill="#263238"/>
  <path d="M133.071 68.2709C132.502 58.0409 127.93 53.285 126.577 45.2898C125.905 41.2749 126.077 37.1646 123.231 34.2576C122.207 33.2109 120.297 32.1337 118.842 31.9656C118.047 31.8663 116.81 31.8968 116.088 32.2368C114.739 32.0382 114.136 31.9732 113.184 32.2368C112.065 32.5539 110.51 33.4172 109.766 34.3187C107.737 36.7941 107.321 40.1977 107.286 43.3989C107.251 48.5764 107.971 53.7315 109.422 58.7018C109.507 59.1907 109.76 59.6348 110.136 59.9586C110.572 60.2565 111.152 60.1992 111.664 60.1152C113.634 59.8034 115.568 59.2993 117.44 58.6101C117.709 58.5371 117.959 58.4067 118.173 58.2281C118.689 57.7009 118.471 56.83 118.234 56.1309L123.418 51.6959C123.074 54.7825 122.081 57.7582 121.642 60.8295C121.129 64.5095 121.416 68.2567 122.482 71.8158C124.494 71.3946 126.566 71.348 128.594 71.6783C129.079 71.7547 129.87 75.6015 130.302 75.3608C131.051 74.9368 133.121 69.1418 133.071 68.2709Z" fill="#263238"/>
  <path d="M114.678 34.4221L116.149 34.2578L121.764 36.5193C122.158 36.5412 122.529 36.7106 122.804 36.9937C123.079 37.2768 123.237 37.6529 123.247 38.0473L123.197 56.3489C123.259 57.5315 122.909 58.6991 122.207 59.6532L121.417 60.696C119.618 63.0683 115.92 62.8734 114.495 60.2567C114.409 60.1078 114.342 59.9487 114.296 59.7831C114.259 59.6488 114.231 59.5123 114.212 59.3743C114.057 58.4676 113.998 57.5469 114.037 56.6277C113.937 55.0081 113.903 54.3357 113.903 54.3625C113.903 54.3892 110.465 53.9805 109.533 49.5493C109.071 47.3528 108.998 43.7161 109.036 40.7404C109.071 38.0549 111.37 34.4183 114.678 34.4221Z" fill="#FFBE9D"/>
  <path d="M110.102 44.2135C110.109 44.3621 110.174 44.5021 110.282 44.6044C110.39 44.7068 110.533 44.7638 110.682 44.7635C110.755 44.7656 110.828 44.753 110.896 44.7264C110.964 44.6999 111.026 44.66 111.078 44.6091C111.131 44.5581 111.172 44.4972 111.201 44.4299C111.229 44.3626 111.244 44.2903 111.244 44.2173C111.238 44.0687 111.174 43.9282 111.067 43.8255C110.959 43.7229 110.816 43.6661 110.667 43.6672C110.594 43.6652 110.521 43.6778 110.453 43.7043C110.384 43.7308 110.322 43.7706 110.269 43.8215C110.217 43.8724 110.175 43.9332 110.146 44.0005C110.117 44.0679 110.102 44.1402 110.102 44.2135Z" fill="#263238"/>
  <path d="M115.816 43.8504C115.821 44 115.885 44.1417 115.994 44.2446C116.103 44.3476 116.247 44.4036 116.397 44.4005C116.47 44.4025 116.542 44.39 116.61 44.3637C116.678 44.3374 116.74 44.2978 116.792 44.2473C116.844 44.1968 116.886 44.1363 116.914 44.0695C116.943 44.0026 116.958 43.9308 116.959 43.858C116.954 43.7091 116.89 43.568 116.783 43.4652C116.675 43.3623 116.531 43.3059 116.382 43.308C116.309 43.3054 116.236 43.3175 116.168 43.3436C116.1 43.3696 116.037 43.4091 115.984 43.4597C115.932 43.5103 115.89 43.5709 115.861 43.638C115.832 43.7051 115.817 43.7773 115.816 43.8504Z" fill="#263238"/>
  <path d="M109.89 42.5714C109.963 42.644 110.379 42.3002 110.994 42.2735C111.609 42.2467 112.075 42.5256 112.14 42.4492C112.205 42.3728 112.094 42.2811 111.892 42.1512C111.616 41.9797 111.295 41.897 110.971 41.9144C110.652 41.9309 110.346 42.0472 110.096 42.2467C109.909 42.4033 109.852 42.5408 109.89 42.5714Z" fill="#263238"/>
  <path d="M115.719 42.2541C115.795 42.3229 116.2 41.9714 116.815 41.9218C117.43 41.8721 117.9 42.1472 117.961 42.0669C118.022 41.9867 117.911 41.9027 117.701 41.7766C117.423 41.6103 117.099 41.5368 116.777 41.5665C116.457 41.5923 116.154 41.7179 115.91 41.9256C115.734 42.086 115.681 42.2236 115.719 42.2541Z" fill="#263238"/>
  <path d="M113.978 47.0427C113.648 46.9592 113.309 46.9156 112.969 46.9128C112.812 46.9128 112.663 46.8822 112.633 46.7752C112.609 46.6141 112.637 46.4494 112.713 46.3054C112.843 45.9234 112.977 45.5146 113.118 45.0868C113.676 43.3563 114.073 41.9353 114 41.9124C113.928 41.8895 113.424 43.2761 112.854 45.0104L112.472 46.2328C112.381 46.4273 112.362 46.6482 112.419 46.8555C112.444 46.9099 112.482 46.9577 112.529 46.9948C112.576 47.032 112.631 47.0575 112.69 47.0694C112.778 47.0892 112.868 47.0969 112.958 47.0923C113.298 47.1226 113.641 47.1059 113.978 47.0427Z" fill="#263238"/>
  <path d="M113.914 54.3343C116.012 54.261 118.048 53.6078 119.797 52.4473C119.797 52.4473 118.452 55.6026 113.975 55.4078L113.914 54.3343Z" fill="#EB996E"/>
  <path d="M114.309 48.5114C114.418 48.3578 114.565 48.2347 114.736 48.1538C114.906 48.0729 115.095 48.0369 115.283 48.0492C115.419 48.0544 115.552 48.0872 115.675 48.1456C115.798 48.2041 115.907 48.287 115.997 48.3892C116.086 48.4866 116.142 48.6092 116.158 48.74C116.173 48.8707 116.148 49.0031 116.085 49.1188C115.99 49.2319 115.865 49.3152 115.724 49.3586C115.583 49.402 115.432 49.4036 115.29 49.3633C114.994 49.2755 114.719 49.1287 114.481 48.9317C114.408 48.8878 114.346 48.8292 114.297 48.7597C114.274 48.726 114.262 48.6861 114.262 48.6451C114.262 48.6042 114.274 48.5643 114.297 48.5305" fill="#EB996E"/>
  <path d="M115.805 47.3696C115.706 47.3696 115.737 48.0343 115.19 48.5385C114.644 49.0428 113.93 49.0008 113.93 49.0963C113.93 49.1918 114.094 49.2185 114.396 49.2109C114.786 49.1961 115.16 49.0447 115.45 48.783C115.728 48.5303 115.896 48.1797 115.92 47.8051C115.931 47.5377 115.863 47.3696 115.805 47.3696Z" fill="#263238"/>
  <path d="M115.718 40.0269C115.809 40.1759 116.321 39.9696 116.963 39.9008C117.605 39.8321 118.159 39.9008 118.204 39.7327C118.223 39.6563 118.101 39.5226 117.857 39.4157C117.547 39.2855 117.208 39.2394 116.875 39.282C116.544 39.3167 116.229 39.4394 115.962 39.6372C115.76 39.7977 115.676 39.9543 115.718 40.0269Z" fill="#263238"/>
  <path d="M109.751 40.241C109.866 40.3785 110.282 40.2104 110.79 40.1798C111.298 40.1493 111.734 40.2257 111.829 40.0729C111.867 40.0003 111.791 39.8666 111.596 39.7405C111.337 39.5909 111.038 39.5268 110.74 39.5572C110.441 39.5762 110.155 39.6884 109.923 39.8781C109.751 40.0309 109.705 40.176 109.751 40.241Z" fill="#263238"/>
  <path d="M122.359 45.5392C122.359 45.2107 122.688 44.3932 123.013 44.3397C123.88 44.1602 125.461 44.1526 125.587 46.372C125.759 49.4051 122.676 48.9505 122.665 48.8664C122.654 48.7824 122.428 46.6852 122.359 45.5392Z" fill="#FFBE9D"/>
  <path d="M123.542 47.6666C123.542 47.6666 123.596 47.7009 123.687 47.7353C123.81 47.7846 123.947 47.7846 124.069 47.7353C124.382 47.5978 124.623 47.0745 124.608 46.5244C124.604 46.2584 124.539 45.9968 124.417 45.7604C124.382 45.6678 124.326 45.5848 124.253 45.5183C124.18 45.4519 124.092 45.4039 123.997 45.3784C123.935 45.3665 123.87 45.3763 123.815 45.4062C123.759 45.4362 123.715 45.4843 123.691 45.5426C123.657 45.6305 123.691 45.6878 123.664 45.6954C123.638 45.7031 123.596 45.6458 123.611 45.5197C123.625 45.4442 123.664 45.3756 123.722 45.3249C123.76 45.2903 123.806 45.264 123.855 45.2476C123.904 45.2312 123.956 45.225 124.008 45.2294C124.134 45.2485 124.253 45.2987 124.354 45.3754C124.456 45.4521 124.536 45.5529 124.589 45.6687C124.732 45.9246 124.811 46.2119 124.818 46.5053C124.818 47.1165 124.554 47.7086 124.123 47.8576C124.043 47.8866 123.957 47.8969 123.872 47.8876C123.787 47.8784 123.706 47.8498 123.634 47.8041C123.55 47.7506 123.531 47.6742 123.542 47.6666Z" fill="#EB996E"/>
  <path d="M123.99 40.9945C124.204 39.7836 123.75 38.0875 123.436 36.9071C123.126 35.9243 122.483 35.0802 121.618 34.5196C120.286 33.5634 118.673 33.0769 117.034 33.1368L116.427 33.3354C115.529 33.2628 114.57 33.4538 114.077 34.1796V33.366C112.442 33.5684 111.021 34.6495 110.07 35.9941C109.119 37.3388 108.596 38.9279 108.16 40.517C110.166 38.7216 112.339 36.739 114.012 34.6227C115.766 36.9147 118.363 38.3893 120.732 40.1044C121.138 41.2188 121.316 42.4036 121.255 43.5883C121.255 46.5679 121.885 49.261 122.118 52.2368C122.252 53.9519 122.241 55.4188 123.994 55.2698C124.219 49.7767 123.047 46.3922 123.99 40.9945Z" fill="#263238"/>
  <path d="M125.982 40.7622C125.71 40.8554 125.425 40.9069 125.138 40.915C124.449 40.9755 123.756 40.9485 123.075 40.8348C122.395 40.7145 121.731 40.5224 121.092 40.2618C120.821 40.1708 120.564 40.0422 120.328 39.8798C120.355 39.8148 121.543 40.3687 123.109 40.6438C124.675 40.9188 125.974 40.6934 125.982 40.7622Z" fill="#455A64"/>
  <path d="M125.522 39.1384C125.36 39.1429 125.197 39.1327 125.037 39.1078C124.724 39.0773 124.273 39.0123 123.727 38.9092C120.853 38.3573 118.116 37.2477 115.67 35.6431C115.208 35.3337 114.837 35.0663 114.593 34.8791C114.453 34.7889 114.325 34.6825 114.211 34.562C114.357 34.6334 114.495 34.7192 114.623 34.818C114.883 34.9937 115.261 35.2382 115.731 35.5323C116.964 36.292 118.257 36.9487 119.597 37.4958C120.94 38.0361 122.325 38.4654 123.738 38.7793C124.28 38.8977 124.724 38.9856 125.033 39.0391C125.199 39.052 125.364 39.0854 125.522 39.1384Z" fill="#455A64"/>
  <path d="M109.015 39.4873C108.834 39.7988 108.597 40.0746 108.316 40.301C108.08 40.5748 107.797 40.8038 107.48 40.9771C107.442 40.9351 107.755 40.5722 108.179 40.1596C108.414 39.8862 108.698 39.6584 109.015 39.4873Z" fill="#455A64"/>
  <path d="M113.954 59.6341C114.294 59.042 114.038 56.6201 114.038 56.6201L113.251 58.0373C111.589 58.6829 109.305 59.6035 108.667 60.0543C107.708 60.7266 106.409 63.5611 106.409 63.5611L98.3875 73.7146L83.394 71.0865L81.9844 78.6157L87.0497 79.6662L95.9579 80.8122C98.46 81.3508 100.893 81.5494 102.834 79.9068L102.968 79.6471C102.261 89.7701 103.235 100.932 103.567 111.07C103.538 111.866 103.683 112.659 103.991 113.393C104.503 114.394 106.398 114.921 107.51 114.772C108.621 114.623 108.274 113.912 108.507 112.816C108.637 112.216 108.075 111.384 108.002 110.776C106.91 101.965 105.819 93.1546 104.729 84.3457C104.694 83.8032 104.656 83.299 104.618 82.8521C104.236 78.1955 104.179 76.9387 104.385 74.8071C104.706 71.5181 111.662 63.6336 113.954 59.6341Z" fill="#7E57C2"/>
  <path d="M105.55 66.2085C105.491 66.3692 105.414 66.523 105.321 66.6669C105.161 66.9496 104.939 67.3698 104.691 67.8969C103.361 70.6492 102.656 73.6609 102.624 76.7173C102.624 77.3018 102.624 77.7755 102.643 78.1002C102.663 78.2702 102.663 78.442 102.643 78.612C102.603 78.4465 102.578 78.2778 102.567 78.1078C102.515 77.646 102.487 77.1819 102.483 76.7173C102.459 75.1749 102.624 73.6354 102.976 72.1333C103.329 70.6368 103.863 69.1887 104.565 67.8205C104.774 67.4053 105.005 67.0011 105.256 66.6096C105.341 66.4667 105.439 66.3324 105.55 66.2085Z" fill="#263238"/>
  <g opacity="0.3">
    <path d="M104.503 67.9634C103.334 69.6556 102.253 71.474 101.737 73.4756C101.222 75.4773 101.546 76.6119 101.501 78.7129L102.704 78.9841C102.437 75.2176 102.563 72.7307 104.503 67.9634Z" fill="black"/>
  </g>
  <path d="M104.061 73.4796C104.053 73.4137 104.053 73.3469 104.061 73.2809C104.084 73.1549 104.096 72.9601 104.153 72.7194C104.314 72.0409 104.52 71.3735 104.768 70.7215C105.594 68.5793 106.546 66.4875 107.618 64.4567C107.969 63.7768 108.317 63.1197 108.66 62.4933L108.687 62.4436H108.744L110.009 62.4207L109.925 62.5506C109.82 62.3208 109.648 62.1279 109.432 61.9967L109.344 61.9394L109.413 61.863C110.251 60.8527 111.158 59.9006 112.125 59.0132C112.477 58.6924 112.763 58.4479 112.962 58.2836C113.059 58.1926 113.165 58.1119 113.279 58.043C113.196 58.1464 113.102 58.2411 113 58.3256L112.198 59.0896C111.262 59.999 110.378 60.9606 109.551 61.9699L109.528 61.84C109.776 61.9878 109.973 62.2077 110.093 62.4703L110.154 62.5964H110.013L108.748 62.6308L108.829 62.5811C108.492 63.2038 108.145 63.8608 107.793 64.5408C106.567 66.9283 105.532 69.1248 104.898 70.7636C104.639 71.4065 104.416 72.0633 104.229 72.7309C104.126 73.2122 104.08 73.4796 104.061 73.4796Z" fill="#263238"/>
  <path d="M119.302 164.421L124.226 172.348C124.226 172.348 117.823 180.018 118.591 181.569L134.307 172.573L127.121 159.906L119.302 164.421Z" fill="#7E57C2"/>
  <path d="M128.678 168.885C128.856 168.844 129.042 168.87 129.201 168.958C129.361 169.046 129.482 169.19 129.541 169.362C129.588 169.538 129.566 169.725 129.48 169.885C129.393 170.045 129.248 170.165 129.075 170.222C128.887 170.268 128.689 170.24 128.52 170.145C128.351 170.05 128.225 169.895 128.166 169.71C128.135 169.521 128.178 169.328 128.288 169.171C128.397 169.014 128.563 168.906 128.751 168.869" fill="#E0E0E0"/>
  <g opacity="0.6">
    <path d="M134.292 172.574L133.528 171.325L118.741 180.421C118.741 180.421 118.214 181.123 118.577 181.567L134.292 172.574Z" fill="white"/>
  </g>
  <path d="M123.912 172.41C123.957 172.487 124.362 172.303 124.878 172.334C125.394 172.364 125.783 172.571 125.837 172.498C125.89 172.426 125.524 172.051 124.893 172.024C124.263 171.998 123.854 172.349 123.912 172.41Z" fill="#263238"/>
  <path d="M122.651 174.042C122.677 174.126 123.082 174.064 123.529 174.24C123.976 174.416 124.247 174.718 124.324 174.668C124.4 174.618 124.198 174.16 123.64 173.954C123.082 173.747 122.612 173.965 122.651 174.042Z" fill="#263238"/>
  <path d="M122.844 176.546C122.925 176.519 122.81 176.076 122.374 175.782C121.939 175.487 121.481 175.51 121.484 175.594C121.488 175.678 121.84 175.774 122.195 176.03C122.55 176.286 122.764 176.58 122.844 176.546Z" fill="#263238"/>
  <path d="M122.99 170.485C123.062 170.535 123.372 170.229 123.803 170.011C124.235 169.794 124.671 169.732 124.674 169.629C124.678 169.526 124.197 169.454 123.67 169.717C123.143 169.981 122.917 170.447 122.99 170.485Z" fill="#263238"/>
  <path d="M119.969 167.674L120.5 176.995C120.5 176.995 111.205 180.662 111.137 182.393L129.24 182.011L129.011 167.457L119.969 167.674Z" fill="#7E57C2"/>
  <path d="M126.082 176.102C126.255 176.156 126.404 176.269 126.501 176.423C126.598 176.576 126.638 176.759 126.613 176.939C126.569 177.115 126.46 177.268 126.307 177.367C126.154 177.465 125.97 177.502 125.791 177.47C125.606 177.416 125.446 177.296 125.344 177.133C125.241 176.969 125.202 176.774 125.234 176.583C125.298 176.403 125.429 176.255 125.6 176.17C125.771 176.085 125.968 176.068 126.15 176.125" fill="#E0E0E0"/>
  <g opacity="0.6">
    <path d="M129.233 182.014L129.153 180.547L111.833 181.449C111.833 181.449 111.035 181.831 111.138 182.381L129.233 182.014Z" fill="white"/>
  </g>
  <path d="M120.208 176.91C120.208 176.997 120.655 177.028 121.094 177.292C121.533 177.555 121.774 177.933 121.858 177.899C121.942 177.865 121.797 177.353 121.258 177.028C120.72 176.703 120.185 176.829 120.208 176.91Z" fill="#263238"/>
  <path d="M118.325 177.729C118.306 177.817 118.707 177.959 119.001 178.325C119.295 178.692 119.402 179.089 119.49 179.089C119.578 179.089 119.624 178.581 119.234 178.134C118.844 177.687 118.325 177.645 118.325 177.729Z" fill="#263238"/>
  <path d="M117.291 180.027C117.371 180.046 117.486 179.599 117.249 179.121C117.012 178.644 116.592 178.457 116.558 178.533C116.523 178.61 116.783 178.858 116.97 179.255C117.158 179.652 117.203 180.019 117.291 180.027Z" fill="#263238"/>
  <path d="M120.324 174.771C120.362 174.851 120.763 174.718 121.264 174.744C121.764 174.771 122.157 174.916 122.203 174.84C122.249 174.763 121.867 174.458 121.275 174.435C120.683 174.412 120.278 174.702 120.324 174.771Z" fill="#263238"/>
  <path d="M106.471 98.063C106.471 98.063 105.638 137.718 106.387 140.465C107.135 143.212 122.461 171.277 122.461 171.277L131.709 166.735L119.447 137.1L122.152 98.9951L106.471 98.063Z" fill="#263238"/>
  <path d="M126.751 95.8452C126.751 95.8452 132.068 104.528 131.129 109.735C130.747 111.87 127.832 116.611 127.832 116.611V142.025L130.078 175.962H119.302L114.668 146.036C114.668 146.036 113.045 143.29 112.422 140.921C111.799 138.553 109.771 110.529 109.771 110.529L106.547 99.1342L126.751 95.8452Z" fill="#263238"/>
  <path d="M129.022 158.041C129.003 158.278 129.003 158.517 129.022 158.755C129.022 159.213 129.067 159.878 129.113 160.699C129.205 162.338 129.369 164.599 129.56 167.098C129.751 169.596 129.912 171.857 130.019 173.496C130.068 174.287 130.114 174.94 130.145 175.437C130.151 175.675 130.175 175.913 130.217 176.147C130.238 175.91 130.238 175.671 130.217 175.433C130.217 174.975 130.194 174.31 130.16 173.489C130.095 171.846 129.957 169.581 129.778 167.082C129.598 164.584 129.396 162.361 129.27 160.688C129.201 159.897 129.148 159.244 129.102 158.747C129.094 158.51 129.067 158.274 129.022 158.041Z" fill="#455A64"/>
  <path d="M125.601 100.288C125.521 100.411 125.423 100.522 125.311 100.617C125.027 100.9 124.717 101.155 124.386 101.381C123.289 102.123 122.012 102.555 120.69 102.633C119.368 102.711 118.049 102.432 116.872 101.824C116.517 101.643 116.18 101.429 115.864 101.186C115.743 101.104 115.634 101.007 115.539 100.896C115.562 100.865 116.039 101.278 116.933 101.694C118.101 102.251 119.391 102.501 120.682 102.42C121.972 102.339 123.221 101.93 124.31 101.232C125.15 100.72 125.574 100.261 125.601 100.288Z" fill="#455A64"/>
  <path d="M109.863 108.266C109.869 108.313 109.869 108.36 109.863 108.407C109.863 108.511 109.882 108.644 109.898 108.816C109.924 109.198 109.966 109.722 110.016 110.401C110.108 111.788 110.245 113.775 110.398 116.223C110.742 121.136 111.162 127.931 111.831 135.415C111.922 136.435 112.025 137.443 112.14 138.425C112.205 138.918 112.258 139.411 112.365 139.873C112.487 140.338 112.637 140.794 112.816 141.24C113.481 143.032 114.191 144.724 114.871 146.306V146.329C115.589 150.936 116.197 154.836 116.628 157.594L117.148 160.791C117.213 161.154 117.263 161.433 117.301 161.635C117.339 161.838 117.366 161.922 117.362 161.926C117.324 161.834 117.293 161.739 117.27 161.643C117.228 161.452 117.163 161.173 117.091 160.803C116.946 160.065 116.755 158.984 116.518 157.613C116.048 154.87 115.418 150.974 114.692 146.355V146.378C114.004 144.797 113.29 143.105 112.617 141.309C112.437 140.858 112.285 140.396 112.163 139.926C112.048 139.433 111.995 138.945 111.93 138.452C111.811 137.462 111.708 136.454 111.62 135.434C110.963 127.943 110.555 121.147 110.245 116.231L109.955 110.398C109.921 109.718 109.894 109.187 109.879 108.812C109.879 108.64 109.879 108.503 109.879 108.4C109.869 108.356 109.864 108.311 109.863 108.266Z" fill="#455A64"/>
  <path d="M114.073 58.3221C114.073 58.3221 113.959 60.0602 115.372 60.0602C117.358 60.0602 121.522 56.2402 121.522 56.2402L113.5 75.3861V98.5582L106.697 99.2534C106.697 99.2534 105.898 99.1388 105.738 97.9928C105.421 95.7505 105.467 91.6631 105.207 89.9708C104.397 84.7374 102.808 81.8877 103.033 77.7468C103.366 71.5852 112.037 60.9388 112.037 60.9388L114.073 58.3221Z" fill="white"/>
  <path d="M122.453 53.8291C121.447 55.7049 120.327 57.5177 119.1 59.2573C117.365 61.6677 106.379 78.4987 106.379 78.4987L110.768 112.642L111.257 115.534C111.289 115.726 111.36 115.911 111.465 116.075C111.57 116.24 111.707 116.381 111.869 116.491C112.03 116.601 112.212 116.677 112.404 116.715C112.595 116.753 112.793 116.751 112.984 116.71L132.389 113.299C132.635 113.256 132.869 113.161 133.075 113.02C133.281 112.88 133.455 112.697 133.586 112.485C133.716 112.272 133.8 112.034 133.831 111.786C133.863 111.539 133.841 111.287 133.768 111.049L125.105 86.7155L130.701 65.1057C130.701 65.1057 130.495 61.9581 127.087 58.7645C126.438 58.1572 123.76 55.9377 123.317 55.3265L122.453 53.8291Z" fill="#7E57C2"/>
  <g opacity="0.3">
    <path d="M107.759 89.2306C107.759 89.2306 116.694 96.3167 121.041 96.3816C125.388 96.4466 127.649 92.7641 127.649 92.7641L118.905 93.0047L107.445 86.7056L107.759 89.2306Z" fill="black"/>
  </g>
  <path d="M101.125 82.5108C101.125 82.5108 109.185 87.8359 110.675 88.8482C112.165 89.8605 119.197 93.9402 120.114 94.2344C121.031 94.5285 126.719 94.5667 127.754 92.6338C128.789 90.7009 129.504 86.5753 129.504 86.5753L130.875 67.2652C131.01 65.4717 130.518 63.6869 129.485 62.2151C128.652 61.0386 127.552 59.9766 126.36 60.1562C123.82 60.5382 118.357 66.6769 118.621 69.8322C118.884 72.9875 118.892 81.7735 118.892 81.7735L104.502 77.01L101.125 82.5108Z" fill="#7E57C2"/>
  <path d="M129.497 62.2158C129.592 62.3382 129.68 62.4658 129.761 62.5978C130.001 62.9685 130.206 63.3612 130.372 63.7706C130.643 64.4302 130.821 65.1245 130.899 65.8334C130.965 66.7922 130.943 67.755 130.834 68.7098C130.536 73.0111 130.108 79.1346 129.6 86.4614C129.455 87.2865 129.28 88.1205 129.073 88.9635C128.871 89.825 128.616 90.6734 128.309 91.5038C128.161 91.9414 127.955 92.3576 127.698 92.7414C127.405 93.1154 127.028 93.415 126.598 93.6162C125.741 94.0358 124.821 94.3095 123.874 94.4261C122.91 94.5721 121.931 94.5978 120.96 94.5025C120.457 94.468 119.966 94.3384 119.512 94.1205C119.065 93.8989 118.629 93.6544 118.194 93.4138C116.444 92.4358 114.679 91.4172 112.899 90.3578C110.764 89.1201 108.781 87.722 106.81 86.4346L101.08 82.6146L101.004 82.565L101.054 82.4886L104.442 76.8961L104.48 76.835L104.549 76.8579L118.92 81.7246L118.836 81.7819C119.13 78.1949 119.363 75.3375 119.523 73.3779C119.607 72.4038 119.672 71.6512 119.718 71.1355C119.741 70.8872 119.756 70.6924 119.772 70.5587C119.787 70.425 119.794 70.3601 119.794 70.3601C119.794 70.3601 119.794 70.4288 119.794 70.5587C119.794 70.6886 119.772 70.8872 119.756 71.1393C119.718 71.655 119.665 72.4114 119.596 73.3855C119.451 75.3528 119.237 78.2063 118.966 81.7895V81.8735L118.885 81.8468L104.488 77.0145L104.595 76.9763L101.21 82.5726L101.183 82.4465L106.913 86.2474C108.892 87.5386 110.863 88.9214 112.991 90.1629C114.774 91.2249 116.537 92.2436 118.282 93.2189C118.717 93.4596 119.153 93.7003 119.592 93.9218C120.025 94.1353 120.494 94.265 120.975 94.3038C121.929 94.3984 122.892 94.374 123.84 94.2312C124.768 94.1199 125.672 93.8553 126.514 93.4481C126.919 93.2577 127.274 92.9767 127.553 92.6268C127.801 92.2574 127.999 91.8566 128.141 91.435C128.447 90.6111 128.702 89.7691 128.905 88.9138C129.115 88.0772 129.287 87.2445 129.436 86.4308C129.975 79.1079 130.422 72.9844 130.739 68.6831C130.854 67.734 130.884 66.7763 130.827 65.8219C130.758 65.1183 130.591 64.4278 130.33 63.7706C130.169 63.3625 129.973 62.9689 129.746 62.594C129.669 62.4641 129.604 62.3724 129.566 62.3075L129.497 62.2158Z" fill="#263238"/>
  <path d="M108.828 74.7126C108.88 74.6398 108.939 74.572 109.004 74.5101C109.134 74.365 109.309 74.1778 109.523 73.9448L111.433 71.8705L114.302 68.8145C115.399 67.6685 116.571 66.3926 117.958 65.1779V65.323L117.843 65.1932L116.873 64.1197L116.713 63.9402H116.953L118.749 64.0319L118.661 64.0815L122.275 57.79L123.344 55.964L123.638 55.4789C123.707 55.3681 123.745 55.3108 123.753 55.3146C123.73 55.3767 123.702 55.4367 123.669 55.4942C123.6 55.6241 123.512 55.7921 123.401 55.9946L122.381 57.8511L118.825 64.177L118.795 64.2267H118.733L116.938 64.135L117.018 63.9708L117.985 65.0442L118.103 65.1741L118.168 65.2466L118.092 65.3154C116.728 66.511 115.544 67.7946 114.44 68.9253L111.544 71.9584C110.719 72.8217 110.047 73.5169 109.577 73.9906C109.344 74.2275 109.16 74.4108 109.031 74.5292C108.971 74.5982 108.903 74.6598 108.828 74.7126Z" fill="#263238"/>
  <g opacity="0.3">
    <path d="M108.18 75.78L119.109 65.4775L118.177 64.4575H119.109L119.353 63.0518L118.738 64.1366L116.939 64.045L118.001 65.0152L108.921 74.6149L108.18 75.78Z" fill="black"/>
  </g>
  <path d="M115.098 102.627L115.281 102.581L115.839 102.463L117.947 102.019L125.312 100.522H125.377L125.412 100.579L127.44 103.884L127.516 104.006L127.375 104.033L127.134 104.078L116.393 106.095H116.339L116.32 106.042L115.403 103.517C115.308 103.242 115.228 103.024 115.17 102.856C115.14 102.783 115.116 102.707 115.098 102.631C115.138 102.709 115.174 102.789 115.205 102.871C115.27 103.039 115.361 103.253 115.472 103.54L116.442 105.996L116.37 105.954L127.096 103.872L127.337 103.826L127.272 103.975L125.247 100.667L125.347 100.713L118.035 102.103L115.892 102.485L115.312 102.585C115.241 102.604 115.17 102.618 115.098 102.627Z" fill="#263238"/>
  <g opacity="0.3">
    <path d="M115.203 102.954L115.979 106.961L127.102 104.955L126.793 104.027L116.364 106.017L115.203 102.954Z" fill="black"/>
  </g>
  <path d="M121.711 85.1553C121.654 85.182 121.191 84.2652 120.362 83.3293C119.533 82.3934 118.685 81.8013 118.72 81.7593C120.08 82.5111 121.137 83.7113 121.711 85.1553Z" fill="#263238"/>
  <path d="M81.6594 72.7234C81.6594 72.7234 78.8708 71.054 77.7554 69.9844C77.7554 69.9844 76.1319 69.4725 75.387 70.4963C75.387 70.4963 73.668 70.97 73.4388 71.2909C73.2096 71.6117 71.7656 73.8388 71.7656 73.8388C71.7656 73.8388 72.5296 76.4937 72.6022 76.6274C72.7397 76.9177 73.053 77.2233 73.3165 76.9024C73.4033 76.7947 73.4468 76.6585 73.4388 76.5204V76.3447L73.8552 76.0506C73.8552 76.0506 74.0423 77.082 74.6001 76.9215C75.2415 76.6257 75.8486 76.2606 76.4107 75.8328C76.4107 75.8328 78.1756 76.8375 79.1038 76.9406C80.134 77.1136 81.1542 77.3418 82.1598 77.6244L83.0996 72.5782L81.6594 72.7234Z" fill="#FFBE9D"/>
  <path d="M73.3601 76.5729C73.3601 76.5729 73.2952 76.6455 73.1424 76.615C73.0425 76.5814 72.954 76.5208 72.8865 76.4398C72.8191 76.3589 72.7754 76.2608 72.7604 76.1566C72.684 75.512 72.684 74.8606 72.7604 74.216C72.8274 73.5742 72.9294 72.9366 73.066 72.306C73.1037 72.0439 73.1729 71.7874 73.2723 71.542C73.341 71.542 73.1233 72.7529 72.959 74.216C72.8824 74.8496 72.8594 75.4885 72.8903 76.126C72.8958 76.2134 72.925 76.2976 72.9748 76.3697C73.0246 76.4417 73.0931 76.4988 73.173 76.5347C73.2799 76.5882 73.3563 76.5577 73.3601 76.5729Z" fill="#EB996E"/>
  <path d="M76.6292 72.2188C76.2704 72.5638 75.8064 72.779 75.3113 72.8299L75.3915 72.7574L75.3686 72.8567C75.2771 73.3652 75.1232 73.8605 74.9102 74.3312C74.9324 73.8127 75.021 73.2992 75.1737 72.8032L75.2005 72.7077V72.6428H75.2654C75.7297 72.5348 76.1855 72.3931 76.6292 72.2188Z" fill="#EB996E"/>
  <path d="M78.8896 72.5797C78.6969 72.3784 78.4474 72.2406 78.1744 72.1847C77.9015 72.1287 77.6179 72.1572 77.3616 72.2664L77.0713 72.6484L74.8709 74.482C74.4641 74.7749 74.1274 75.1546 73.8854 75.5937C73.7689 75.8154 73.7283 76.0691 73.7697 76.316C73.8111 76.563 73.9322 76.7896 74.1146 76.9612C74.5653 77.305 75.2338 77.1102 75.6731 76.7549C76.1124 76.3997 76.4371 75.9031 76.8879 75.5707C77.5984 75.0474 78.6298 74.9061 79.0653 74.1421C79.1997 73.895 79.255 73.6127 79.2236 73.3332C79.1921 73.0537 79.0755 72.7907 78.8896 72.5797Z" fill="#FFBE9D"/>
  <path d="M77.1957 71.873C77.2252 72.1537 77.1563 72.4359 77.0009 72.6714C76.8538 72.9364 76.667 73.1773 76.447 73.3858C76.1776 73.6297 75.8903 73.8532 75.5875 74.0543C75.031 74.3795 74.538 74.8027 74.1321 75.3034C73.9852 75.5266 73.8574 75.7617 73.7501 76.0063C73.7473 75.7243 73.8372 75.4491 74.006 75.2232C74.1702 74.9708 74.3681 74.742 74.5943 74.5432C74.8715 74.3085 75.1623 74.0904 75.4652 73.89C75.7624 73.696 76.0458 73.4815 76.3133 73.2482C76.5282 73.06 76.716 72.8427 76.871 72.6027C77.0036 72.3711 77.1124 72.1266 77.1957 71.873Z" fill="#EB996E"/>
  <path d="M88.2617 80.6975C88.2617 80.6975 88.3419 77.9623 89.0257 77.1487C89.7095 76.335 93.7702 75.2998 93.7702 75.2998L103.947 77.6606L101.582 81.4806L100.868 80.8082C100.868 80.8082 97.6666 81.7709 96.0851 81.4233C95.1453 81.2236 94.223 80.949 93.327 80.602L91.6692 80.7166C91.6692 80.7166 90.4735 81.9542 90.0877 81.9542C89.7019 81.9542 89.2778 81.6066 89.4688 81.2208L89.125 80.6402C89.125 80.6402 88.4183 81.0451 88.2617 80.6975Z" fill="#FFBE9D"/>
  <path d="M93.6053 78.7937C93.3852 78.9302 93.1371 79.0151 92.8795 79.042C92.2798 79.1147 91.6861 79.2309 91.1032 79.3896C90.5513 79.6134 90.0984 80.0283 89.8273 80.5586C89.7196 80.7872 89.5917 81.0058 89.4453 81.2118C89.4877 80.9586 89.5757 80.7153 89.7051 80.4936C89.8257 80.2378 89.9813 80 90.1673 79.7869C90.4031 79.5229 90.7012 79.322 91.0344 79.2024C91.629 79.0358 92.24 78.9347 92.8566 78.9007C93.3264 78.851 93.5938 78.767 93.6053 78.7937Z" fill="#EB996E"/>
  <path d="M92.8 76.7801C92.8 76.8068 92.4753 76.8603 91.9711 77.0398C91.6771 77.1395 91.3888 77.2556 91.1078 77.3874C90.7628 77.5346 90.439 77.7273 90.1451 77.9604C90.0164 78.0999 89.9059 78.2552 89.8166 78.4227C89.7211 78.5869 89.6333 78.7474 89.5569 78.904C89.4176 79.18 89.3062 79.4692 89.2245 79.7673C89.0908 80.2792 89.1137 80.6115 89.0794 80.6153C89.0048 80.3272 89.0048 80.0249 89.0794 79.7368C89.1432 79.4215 89.2445 79.115 89.3811 78.8238C89.4575 78.6595 89.5454 78.4914 89.6409 78.3233C89.7371 78.1364 89.8592 77.9641 90.0038 77.8115C90.3157 77.5582 90.6633 77.3523 91.0352 77.2003C91.3284 77.0748 91.6295 76.9688 91.9367 76.8832C92.2141 76.7887 92.5082 76.7535 92.8 76.7801Z" fill="#EB996E"/>
</svg>
