<svg xmlns="http://www.w3.org/2000/svg" width="215" height="160" viewBox="0 0 215 160" fill="none">
  <path d="M107.687 160C153.621 160 190.859 157.826 190.859 155.144C190.859 152.462 153.621 150.289 107.687 150.289C61.7528 150.289 24.5156 152.462 24.5156 155.144C24.5156 157.826 61.7528 160 107.687 160Z" fill="#F5F5F5"/>
  <path d="M214.98 140.439H0.5V140.546H214.98V140.439Z" fill="#E0E0E0"/>
  <path d="M47.4374 145.585H22.6562V145.693H47.4374V145.585Z" fill="#E0E0E0"/>
  <path d="M101.59 143.257H90.3008V143.364H101.59V143.257Z" fill="#E0E0E0"/>
  <path d="M127.716 143.199H105.719V143.306H127.716V143.199Z" fill="#E0E0E0"/>
  <path d="M169.584 144.485H164.227V144.592H169.584V144.485Z" fill="#E0E0E0"/>
  <path d="M145.722 144.485H124.352V144.592H145.722V144.485Z" fill="#E0E0E0"/>
  <path d="M55.841 145.585H51.5938V145.693H55.841V145.585Z" fill="#E0E0E0"/>
  <path d="M191.635 144.485H173.082V144.592H191.635V144.485Z" fill="#E0E0E0"/>
  <path d="M102.165 1.36106e-05H19.3283C18.8066 -0.000158889 18.2986 0.166195 17.878 0.474853C17.4575 0.78351 17.1465 1.21835 16.9903 1.71605C16.9196 1.93924 16.8834 2.17189 16.8828 2.406V118.857C16.8828 119.507 17.1409 120.13 17.6003 120.589C18.0596 121.049 18.6827 121.307 19.3324 121.307H102.173C102.823 121.307 103.446 121.049 103.905 120.589C104.365 120.13 104.623 119.507 104.623 118.857V2.44955C104.623 2.12719 104.559 1.80799 104.435 1.51026C104.312 1.21254 104.131 0.942142 103.902 0.714574C103.674 0.487006 103.403 0.306741 103.105 0.184121C102.807 0.0615017 102.487 -0.00106094 102.165 1.36106e-05ZM104.507 118.861C104.506 119.482 104.259 120.077 103.82 120.516C103.381 120.955 102.786 121.202 102.165 121.203H19.3283C18.7078 121.202 18.1132 120.955 17.6748 120.516C17.2365 120.077 16.9903 119.482 16.9903 118.861V2.42778C16.9903 1.80734 17.2365 1.21225 17.6748 0.773152C18.1132 0.334053 18.7078 0.0868287 19.3283 0.0857472H102.169C102.79 0.0878992 103.384 0.335336 103.823 0.774087C104.261 1.21284 104.509 1.8073 104.511 2.42778L104.507 118.861Z" fill="#E0E0E0"/>
  <path d="M194.95 1.91434e-09H112.118C111.472 -2.55158e-05 110.852 0.255059 110.393 0.709738C109.934 1.16442 109.674 1.78189 109.668 2.42777V118.857C109.668 119.507 109.926 120.13 110.385 120.589C110.845 121.049 111.468 121.307 112.118 121.307H194.95C195.598 121.305 196.219 121.046 196.677 120.586C197.135 120.127 197.391 119.505 197.391 118.857V2.42777C197.386 1.7833 197.126 1.16705 196.669 0.712604C196.212 0.258154 195.595 0.00212288 194.95 1.91434e-09ZM197.292 118.861C197.291 119.482 197.044 120.077 196.605 120.516C196.166 120.955 195.571 121.202 194.95 121.203H112.118C111.81 121.203 111.505 121.142 111.221 121.024C110.936 120.906 110.678 120.733 110.461 120.515C110.243 120.298 110.071 120.039 109.954 119.754C109.836 119.47 109.776 119.165 109.777 118.857V2.42777C109.778 1.80695 110.025 1.21187 110.464 0.77289C110.903 0.333907 111.498 0.086813 112.119 0.0857336H194.951C195.572 0.0878856 196.166 0.335322 196.605 0.774073C197.044 1.21282 197.291 1.80728 197.294 2.42777L197.292 118.861Z" fill="#E0E0E0"/>
  <path d="M159.66 21.0742H205.065C204.241 19.6561 202.97 18.5505 201.452 17.9297C199.933 17.309 198.252 17.2078 196.67 17.6422C196.67 17.6422 197.35 9.34094 192.899 8.01138C188.448 6.68183 186.036 11.8218 186.036 11.8218C186.036 11.8218 182.953 2.22638 177.127 3.42665C171.301 4.62693 168.903 14.5857 168.903 14.5857C168.903 14.5857 160.346 11.4788 159.66 21.0742Z" fill="#F5F5F5"/>
  <path d="M94.0039 37.3215H139.427C138.601 35.9028 137.33 34.797 135.811 34.1762C134.292 33.5554 132.61 33.4546 131.027 33.8894C131.027 33.8894 131.708 25.5882 127.256 24.2545C122.805 22.9209 120.394 28.0649 120.394 28.0649C120.394 28.0649 117.31 18.4695 111.484 19.6657C105.658 20.8619 103.256 30.8247 103.256 30.8247C103.256 30.8247 94.6898 27.7261 94.0039 37.3215Z" fill="#F5F5F5"/>
  <path d="M93.1848 6.7085H17.0312V140.441H93.1848V6.7085Z" fill="#F5F5F5"/>
  <path d="M80.4977 49.4165H32.2227V140.549H80.4977V49.4165Z" fill="#FAFAFA"/>
  <path d="M77.4462 52.313H35.6992V140.55H77.4462V52.313Z" fill="#E6E6E6"/>
  <path d="M95.9414 7.68463H17.0117V1.73905C17.2103 1.22188 17.5645 0.779083 18.0255 0.471722C18.4864 0.164362 19.0313 0.00758441 19.5851 0.0230111H93.2442L93.2782 0.108745L95.2133 5.62974L95.9414 7.68463Z" fill="#EBEBEB"/>
  <path d="M20.8373 11.2731C23.0191 11.2731 24.7879 9.66587 24.7879 7.6832C24.7879 5.70053 23.0191 4.09326 20.8373 4.09326C18.6554 4.09326 16.8867 5.70053 16.8867 7.6832C16.8867 9.66587 18.6554 11.2731 20.8373 11.2731Z" fill="#EBEBEB"/>
  <path d="M28.7435 11.2731C30.9254 11.2731 32.6941 9.66587 32.6941 7.6832C32.6941 5.70053 30.9254 4.09326 28.7435 4.09326C26.5617 4.09326 24.793 5.70053 24.793 7.6832C24.793 9.66587 26.5617 11.2731 28.7435 11.2731Z" fill="#EBEBEB"/>
  <path d="M36.6498 11.2731C38.8316 11.2731 40.6004 9.66587 40.6004 7.6832C40.6004 5.70053 38.8316 4.09326 36.6498 4.09326C34.4679 4.09326 32.6992 5.70053 32.6992 7.6832C32.6992 9.66587 34.4679 11.2731 36.6498 11.2731Z" fill="#EBEBEB"/>
  <path d="M44.556 11.2731C46.7379 11.2731 48.5066 9.66587 48.5066 7.6832C48.5066 5.70053 46.7379 4.09326 44.556 4.09326C42.3742 4.09326 40.6055 5.70053 40.6055 7.6832C40.6055 9.66587 42.3742 11.2731 44.556 11.2731Z" fill="#EBEBEB"/>
  <path d="M52.4701 11.2731C54.6519 11.2731 56.4207 9.66587 56.4207 7.6832C56.4207 5.70053 54.6519 4.09326 52.4701 4.09326C50.2883 4.09326 48.5195 5.70053 48.5195 7.6832C48.5195 9.66587 50.2883 11.2731 52.4701 11.2731Z" fill="#EBEBEB"/>
  <path d="M60.3646 11.2731C62.5465 11.2731 64.3152 9.66587 64.3152 7.6832C64.3152 5.70053 62.5465 4.09326 60.3646 4.09326C58.1828 4.09326 56.4141 5.70053 56.4141 7.6832C56.4141 9.66587 58.1828 11.2731 60.3646 11.2731Z" fill="#EBEBEB"/>
  <path d="M68.2709 11.2731C70.4527 11.2731 72.2214 9.66587 72.2214 7.6832C72.2214 5.70053 70.4527 4.09326 68.2709 4.09326C66.089 4.09326 64.3203 5.70053 64.3203 7.6832C64.3203 9.66587 66.089 11.2731 68.2709 11.2731Z" fill="#EBEBEB"/>
  <path d="M76.1771 11.2731C78.359 11.2731 80.1277 9.66587 80.1277 7.6832C80.1277 5.70053 78.359 4.09326 76.1771 4.09326C73.9953 4.09326 72.2266 5.70053 72.2266 7.6832C72.2266 9.66587 73.9953 11.2731 76.1771 11.2731Z" fill="#EBEBEB"/>
  <path d="M84.0795 11.2731C86.2613 11.2731 88.03 9.66587 88.03 7.6832C88.03 5.70053 86.2613 4.09326 84.0795 4.09326C81.8976 4.09326 80.1289 5.70053 80.1289 7.6832C80.1289 9.66587 81.8976 11.2731 84.0795 11.2731Z" fill="#EBEBEB"/>
  <path d="M95.9483 7.6836C96.0258 8.48217 95.8598 9.28549 95.472 9.98788C95.0842 10.6903 94.4929 11.2588 93.7759 11.6188C93.0588 11.9787 92.2496 12.1131 91.4547 12.0044C90.6598 11.8957 89.9164 11.5489 89.3223 11.0096C88.7283 10.4703 88.3114 9.76385 88.1265 8.98313C87.9416 8.2024 87.9974 7.384 88.2864 6.63557C88.5755 5.88714 89.0844 5.24375 89.7461 4.79005C90.4078 4.33634 91.1914 4.09356 91.9937 4.09366C92.611 4.08502 93.2221 4.2169 93.7809 4.47931C94.3396 4.74172 94.8314 5.12778 95.2189 5.60829L95.9483 7.6836Z" fill="#EBEBEB"/>
  <path d="M93.1848 18.3188H17.0312V19.5708H93.1848V18.3188Z" fill="#FAFAFA"/>
  <path d="M152.255 112.095H93.1875V114.75H152.255V112.095Z" fill="#E0E0E0"/>
  <path d="M105.613 140.439H96.6953V99.0487L101.152 95.2383L105.613 99.0487V140.439Z" fill="#E6E6E6"/>
  <path d="M118.386 140.439H109.473V99.0487L113.934 95.2383L118.39 99.0487L118.386 140.439Z" fill="#E6E6E6"/>
  <path d="M131.168 140.439H122.25V99.0487L126.707 95.2383L131.168 99.0487V140.439Z" fill="#E6E6E6"/>
  <path d="M143.941 140.439H135.023V99.0487L139.484 95.2383L143.941 99.0487V140.439Z" fill="#E6E6E6"/>
  <path d="M156.714 140.439H147.801V99.0487L152.258 95.2383L156.714 99.0487V140.439Z" fill="#E6E6E6"/>
  <path d="M64.5665 15.0228C64.5665 15.0228 63.7391 12.9979 58.6387 13.598C53.5382 14.1981 53.0102 20.9466 50.4626 25.7504C49.1278 28.4075 47.3511 30.8184 45.2084 32.88C45.2084 32.88 44.8355 35.8058 50.3796 37.4565C55.9238 39.1073 66.8092 36.3502 66.8092 36.3502C66.8092 36.3502 68.2164 23.5717 66.1288 19.6715C64.0413 15.7713 64.5665 15.0228 64.5665 15.0228Z" fill="#263238"/>
  <path d="M79.4776 142.671L72.5671 143.099C72.5671 143.099 69.6372 116.47 66.412 97.0807C66.4162 97.0096 66.406 96.9383 66.382 96.8712C65.0607 88.9564 63.693 82.2869 62.4573 79.1596C62.4573 79.1596 60.8706 103.983 60.3984 115.003C59.9261 126.023 57.7256 145.305 57.7256 145.305L51.3378 146.258C51.3378 146.258 50.2831 107.875 50.9091 100.624C51.5351 93.3737 48.6827 66.5213 53.5982 59.8735H71.3805C71.3805 59.8735 78.2651 97.5965 78.7631 108.048C79.2612 118.499 79.4776 142.671 79.4776 142.671Z" fill="#263238"/>
  <path d="M56.2289 145.389L56.1255 147.444L55.8846 152.207L52.3069 152.739L52.2252 147.596L52.1953 145.619L56.2289 145.389Z" fill="#FF8B7B"/>
  <path d="M77.9394 150.609L73.9371 151.725C73.9371 151.725 73.8432 149.319 73.7479 147.006C73.688 145.518 73.6282 144.068 73.5887 143.332C73.5922 143.164 73.5808 142.996 73.5547 142.83L77.87 142.401V143.762L77.8999 146.825L77.9394 150.609Z" fill="#FF8B7B"/>
  <path d="M57.3242 151.157C57.3242 151.157 57.9897 148.494 59.0403 148.626C60.0908 148.758 57.3242 151.157 57.3242 151.157Z" stroke="#8354BE" stroke-miterlimit="10"/>
  <path d="M57.6211 151.158C57.6211 151.158 60.1223 149.389 60.585 150.301C61.0477 151.213 57.6211 151.158 57.6211 151.158Z" stroke="#8354BE" stroke-miterlimit="10"/>
  <path d="M79.4766 151.428C79.4766 151.428 80.0345 148.61 80.6646 148.61C81.2947 148.61 79.4766 151.428 79.4766 151.428Z" stroke="#8354BE" stroke-miterlimit="10"/>
  <path d="M79.3398 152.302C79.3398 152.302 80.8068 149.416 81.5744 150.038C82.3419 150.66 79.3398 152.302 79.3398 152.302Z" stroke="#8354BE" stroke-miterlimit="10"/>
  <path d="M60.4407 154.611C60.4407 154.611 52.8199 154.809 52.2606 154.741C51.7013 154.673 51.0943 154.643 51.0508 154.041C51.0508 153.75 51.3121 151.978 51.3556 151.36C51.3992 150.743 51.244 150.421 52.0211 150.224C52.7981 150.027 56.5677 149.59 57.0222 150.057C57.4767 150.523 59.0295 152.305 60.1794 152.506C61.3293 152.708 62.2942 152.63 62.3758 153.282C62.4575 153.934 62.482 154.564 60.4407 154.611Z" fill="#263238"/>
  <path d="M82.403 154.611C82.403 154.611 74.7822 154.809 74.2228 154.741C73.6635 154.673 73.1165 154.505 73.0267 154.226C72.9368 153.947 73.2798 151.978 73.3179 151.36C73.356 150.743 73.2063 150.421 73.9833 150.224C74.7604 150.027 78.5299 149.59 78.9845 150.057C79.439 150.523 80.9917 152.305 82.1457 152.506C83.2997 152.708 84.2564 152.63 84.3381 153.282C84.4197 153.934 84.4442 154.564 82.403 154.611Z" fill="#263238"/>
  <path opacity="0.3" d="M66.3778 96.8635C65.0564 88.9488 63.6888 82.2792 62.4531 79.152L63.2696 74.6611C63.2696 74.6611 65.3953 90.6988 66.3778 96.8635Z" fill="black"/>
  <path opacity="0.2" d="M56.2119 145.389L56.1085 147.444C55.1042 147.482 53.1064 147.556 52.2096 147.599L52.1797 145.622L56.2119 145.389Z" fill="black"/>
  <path opacity="0.2" d="M77.9106 146.809L73.7491 147.006C73.6892 145.518 73.6293 144.068 73.5898 143.332L77.8793 143.761L77.9106 146.809Z" fill="black"/>
  <path d="M80.6562 142.391L80.0166 145.657L72.3958 146.249L71.4023 142.391H80.6562Z" fill="#8354BE"/>
  <path d="M58.7513 143.45L58.0818 146.675L50.1289 147.052V143.449L58.7513 143.45Z" fill="#8354BE"/>
  <path d="M82.3394 49.9002C80.2454 50.6479 78.0934 51.2219 75.9052 51.6162C74.3125 47.5395 73.0083 43.3559 72.0023 39.0964C71.7466 37.4741 70.9718 35.9784 69.794 34.8337C68.6163 33.6891 67.0991 32.9573 65.4702 32.748C60.8076 32.462 56.1284 32.6142 51.4942 33.2025C48.4051 33.838 47.8689 38.3737 47.5953 41.0955C47.3218 43.8172 45.6003 53.9637 47.051 56.9671C48.5017 59.9705 53.5831 58.7771 53.5831 58.7771V59.8657H71.3681L70.9395 51.5441C70.9395 51.5441 72.6215 55.9628 75.2289 56.1425C77.8363 56.3221 83.756 51.9728 83.756 51.9728L82.3394 49.9002ZM51.0247 54.5543C51.0892 52.3236 51.2709 50.0978 51.569 47.8861L52.1052 50.6527L52.8605 54.5611L51.0247 54.5543Z" fill="#8354BE"/>
  <path d="M62.3378 53.3801L65.1344 49.9956L69.0591 49.3955L69.6592 52.8834L66.6572 53.9816C66.0996 54.5463 65.4165 54.9711 64.6635 55.2216C63.9105 55.472 63.1089 55.541 62.3242 55.4227L62.3378 53.3801Z" fill="#FF8B7B"/>
  <path d="M82.3359 49.8985L83.7907 47.2299L87.3385 45.7329L88.6816 49.3664L85.7435 50.5122C85.7435 50.5122 84.976 52.2024 83.7921 51.9833L82.3359 49.8985Z" fill="#FF8B7B"/>
  <path d="M62.4041 29.496C62.3849 29.8046 62.3849 30.1141 62.4041 30.4227C62.3386 30.861 62.4076 31.3088 62.602 31.7071C62.7963 32.1053 63.107 32.4352 63.4928 32.6532C62.674 34.5956 61.7029 36.4704 60.5888 38.2599C58.9731 36.5529 57.4891 34.726 56.1496 32.7947C56.1496 32.7947 58.3379 30.4227 56.7675 25.9523C56.7675 25.9523 54.5629 24.3397 54.9984 23.4511C55.5046 22.4168 56.9417 22.9747 57.2465 23.4129C56.9253 22.9407 55.427 17.764 57.2465 15.8588C58.3787 14.6708 59.511 14.6572 61.6217 14.5715H61.7972C63.1485 14.5238 64.1529 14.5715 64.1529 14.5715C64.6116 15.0655 65.0159 15.6075 65.3586 16.1882C66.3158 17.7508 66.9028 19.5118 67.0746 21.3363C67.4706 25.5876 66.6337 29.0319 62.4041 29.496Z" fill="#FF8B7B"/>
  <path d="M63.5624 24.2132C63.5624 24.2132 61.6409 24.8651 60.9414 23.4062" stroke="#263238" stroke-width="0.5" stroke-linecap="round" stroke-linejoin="round"/>
  <path d="M61.2423 18.0813C60.9208 18.0718 60.603 18.1529 60.3254 18.3154C60.0477 18.4778 59.8212 18.715 59.6719 18.9999" stroke="#263238" stroke-linecap="round" stroke-linejoin="round"/>
  <path d="M66.1349 17.6331C65.9789 17.4624 65.79 17.325 65.5795 17.2291C65.369 17.1332 65.1414 17.0809 64.9102 17.0752" stroke="#263238" stroke-linecap="round" stroke-linejoin="round"/>
  <path d="M64.3691 23.4195L63.9922 20.2065L65.8838 22.6343C65.8838 22.6343 65.696 23.4712 64.3691 23.4195Z" fill="#FF5652"/>
  <path d="M61.2608 20.2349C61.2826 20.5615 61.4758 20.8146 61.6895 20.801C61.9031 20.7874 62.0542 20.5098 62.0283 20.1791C62.0024 19.8484 61.8187 19.5994 61.5996 19.6171C61.3805 19.6348 61.2349 19.9206 61.2608 20.2349Z" fill="#263238"/>
  <path d="M64.9982 19.6978C65.0241 20.0285 65.2132 20.2816 65.4269 20.2639C65.6406 20.2462 65.7916 19.9727 65.7657 19.642C65.7399 19.3113 65.5507 19.0623 65.3371 19.08C65.1234 19.0977 64.9765 19.3712 64.9982 19.6978Z" fill="#263238"/>
  <path d="M55.9382 21.0334C55.9382 21.0334 53.7459 18.0953 55.5558 16.1902C56.6881 15.0021 59.7337 14.2251 61.8403 14.1353C61.7899 14.6333 61.8375 18.9908 55.9382 21.0334Z" fill="#263238"/>
  <path d="M65.3903 16.2028C64.0439 16.0667 62.7803 15.4892 61.7963 14.5602L61.6289 14.3847C62.4735 14.3496 63.3194 14.4099 64.1506 14.5643C64.6094 15.0584 65.0136 15.6004 65.3563 16.181L65.3903 16.2028Z" fill="#263238"/>
  <path opacity="0.2" d="M62.4034 30.419C61.4713 30.1356 60.6444 29.582 60.0273 28.8281C60.7662 29.1971 61.5683 29.4229 62.3912 29.4936C62.3761 29.802 62.3802 30.1111 62.4034 30.419Z" fill="black"/>
  <path opacity="0.2" d="M52.1143 50.6486L51.5781 47.882V43.9097C51.91 46.1412 52.0891 48.3927 52.1143 50.6486Z" fill="black"/>
  <path d="M130.944 37.8012L99.6758 39.5713L101.038 63.6362L132.307 61.8662L130.944 37.8012Z" fill="#8354BE"/>
  <path opacity="0.3" d="M130.944 37.8012L99.6758 39.5713L101.038 63.6362L132.307 61.8662L130.944 37.8012Z" fill="black"/>
  <path d="M119.581 38.4443L88.3125 40.2144L89.6748 64.2793L120.943 62.5092L119.581 38.4443Z" fill="#8354BE"/>
  <path opacity="0.3" d="M119.581 38.4443L88.3125 40.2144L89.6748 64.2793L120.943 62.5092L119.581 38.4443Z" fill="white"/>
  <path opacity="0.3" d="M123.453 40.5259L116.777 40.9272L116.913 43.1795L123.588 42.7782L123.453 40.5259Z" fill="black"/>
  <path opacity="0.5" d="M96.926 42.7389L90.2617 43.1162L90.4678 46.7561L97.1321 46.3789L96.926 42.7389Z" fill="white"/>
  <path opacity="0.3" d="M99.258 52.2345L89.0312 52.8135L89.192 55.6531L99.4188 55.0742L99.258 52.2345Z" fill="black"/>
  <path d="M139.978 17.9624L138.262 20.1507C138.737 20.4824 139.284 20.6982 139.858 20.7807L139.978 17.9624Z" fill="#A02724"/>
  <path d="M169.596 152.133L164.612 151.849L163.599 147.598L163.045 145.268L162.84 144.411L166.675 144.15L166.947 144.128L167.763 146.595L169.596 152.133Z" fill="#B55B52"/>
  <path d="M140.931 152.833C141.025 153.172 136.305 152.561 136.305 152.561L136.137 148.592L136.008 145.529V145.362H136.046L140.842 145.838V148.588C140.85 150.473 140.878 152.648 140.931 152.833Z" fill="#B55B52"/>
  <path d="M150.936 29.4648C150.936 29.4648 144.201 31.2884 144.699 29.967C144.95 29.1673 145.051 28.328 144.996 27.4916C144.997 27.1773 144.974 26.8633 144.926 26.5526C143.814 26.5623 142.731 26.1917 141.857 25.5023C140.984 24.8128 140.372 23.8458 140.123 22.7612C139.257 19.9445 139.451 16.9087 140.667 14.2246C140.757 14.0096 141.014 13.1005 141.241 12.9889L143.884 11.7642C143.884 11.7642 146.457 13.4503 147.796 14.4968C149.136 15.5433 150.212 20.4083 150.212 24.1915C150.096 25.9801 150.343 27.7736 150.936 29.4648Z" fill="#B55B52"/>
  <path d="M139.775 17.165C139.656 17.1977 139.551 17.2671 139.474 17.3635C139.397 17.4598 139.352 17.578 139.347 17.7012C139.329 17.8158 139.346 17.933 139.397 18.0373C139.448 18.1416 139.529 18.228 139.63 18.285L139.775 17.165Z" fill="#263238"/>
  <path d="M139.777 14.9803C140.058 14.9742 140.333 15.0504 140.571 15.1994" stroke="#263238" stroke-linecap="round" stroke-linejoin="round"/>
  <path d="M142.124 21.9473C143.328 23.7483 145.121 25.0751 147.195 25.7006C150.308 26.4001 151.291 25.3182 151.707 23.5559C152.068 21.8933 152.867 20.3574 154.021 19.1072C155.097 17.9968 154.45 14.9811 153.082 12.5016C153.082 12.5016 154.549 11.2769 152.185 10.0861C149.821 8.89537 148.95 10.8713 146.901 9.7214C144.851 8.57148 147.581 8.19044 145.653 11.7763C143.725 15.3622 142.651 12.7548 142.362 14.3497C142.074 15.9446 140.576 18.718 142.124 21.9473Z" fill="#263238"/>
  <path d="M142.355 15.0882C142.162 15.0243 135.959 12.7748 135.899 11.7637C135.839 10.7525 140.708 12.5965 140.892 12.6686L142.149 14.6541L142.355 15.0882Z" fill="#8354BE"/>
  <path d="M154.873 17.5467C154.813 17.7318 154.444 18.9539 154.285 18.9539L153.767 18.9239C153.283 18.884 152.803 18.8282 152.326 18.7565C151.798 18.6749 151.279 18.5715 150.769 18.4517H150.747C150.229 18.3279 149.717 18.1904 149.22 18.023C147.999 17.6541 146.8 17.2142 145.63 16.7057C144.97 16.4186 144.386 16.1396 143.914 15.8987C142.949 15.4183 142.374 15.0822 142.374 15.0822L142.288 14.9461L141.935 14.3923L141.184 13.2042L140.927 12.8055V12.7756C140.915 12.7394 140.915 12.7002 140.927 12.664C141.194 11.9637 141.574 11.3119 142.051 10.7343C142.74 9.81365 143.617 9.05049 144.624 8.49568C146.028 7.92889 147.586 7.86827 149.03 8.32421C149.515 8.4249 149.988 8.57727 150.441 8.77874L150.728 8.90257L150.784 8.92843C150.835 8.95837 150.891 8.98014 150.943 9.006L151.037 9.05362C152.127 9.56406 153.119 10.2624 153.967 11.1167C155.899 13.275 155.114 16.8486 154.873 17.5467Z" fill="#8354BE"/>
  <path d="M152.772 31.7746C152.772 31.7746 152.463 29.6299 151.789 29.2012C151.115 28.7726 144.424 28.8365 143.382 29.57C142.339 30.3035 142.524 32.7 142.524 32.7L152.772 31.7746Z" fill="#8354BE"/>
  <path d="M140.895 18.557C140.895 18.557 142.037 17.0819 143.259 17.995C144.481 18.9081 143.512 21.0746 142.075 21.6843C141.853 21.7752 141.613 21.8125 141.374 21.7931C141.135 21.7737 140.904 21.6983 140.699 21.5729C140.495 21.4474 140.323 21.2756 140.198 21.0712C140.072 20.8669 139.997 20.6359 139.978 20.3969C139.74 18.508 140.895 18.557 140.895 18.557Z" fill="#B55B52"/>
  <path d="M136.323 69.9087C136.323 69.9087 133.772 94.3293 133.057 105.563C132.343 116.797 134.962 145.512 134.962 145.512H141.164C141.164 145.512 141.875 116.982 142.948 108.425C144.018 101.605 145.564 94.8682 147.575 88.2639C147.575 88.2639 149.719 106.627 151.864 114.12C154.009 121.613 160.982 144.49 160.982 144.49L168.129 143.117C168.129 143.117 159.556 113.764 159.556 104.669C159.556 95.5744 159.637 77.2151 157.501 69.9237L136.323 69.9087Z" fill="#8354BE"/>
  <path opacity="0.3" d="M168.12 143.123L160.978 144.5C160.978 144.5 154.016 121.62 151.872 114.13C150.486 108.403 149.426 102.603 148.697 96.7568C148.016 91.9938 147.581 88.276 147.581 88.276C145.563 94.879 144.014 101.616 142.944 108.437C141.872 117.01 141.164 145.524 141.164 145.524H134.961C134.961 145.524 132.345 116.81 133.056 105.579C133.768 94.3481 136.322 69.9248 136.322 69.9248H157.478C159.623 77.2176 159.537 95.5987 159.537 104.67C159.537 113.742 168.12 143.123 168.12 143.123Z" fill="black"/>
  <path opacity="0.3" d="M148.693 96.7526C148.012 91.9896 147.582 88.2717 147.582 88.2717L148.011 81.6035L148.693 96.7526Z" fill="black"/>
  <path d="M134.285 144.319H141.724L141.359 147.383H134.576L134.285 144.319Z" fill="#263238"/>
  <path d="M160.082 143.868L168.125 140.875L169.141 145.229L161.292 147.378L160.082 143.868Z" fill="#263238"/>
  <path opacity="0.2" d="M166.68 144.15L163.051 145.27L163.605 147.6L167.77 146.595L166.68 144.15Z" fill="black"/>
  <path opacity="0.2" d="M140.843 148.609H136.125L135.996 145.546L136.026 145.382L140.822 145.859C140.822 145.859 140.835 147.13 140.843 148.609Z" fill="black"/>
  <path d="M133.854 154.356C133.884 154.437 130.886 152.691 131.71 151.876C132.533 151.061 133.854 154.356 133.854 154.356Z" stroke="#8354BE" stroke-miterlimit="10"/>
  <path d="M134.286 154.23C134.264 154.315 132.614 151.266 133.742 150.995C134.87 150.724 134.286 154.23 134.286 154.23Z" stroke="#8354BE" stroke-miterlimit="10"/>
  <path d="M163.917 152.506C163.917 152.506 162.934 149.345 161.982 149.863C161.029 150.382 163.917 152.506 163.917 152.506Z" stroke="#8354BE" stroke-miterlimit="10"/>
  <path d="M163.657 152.775C163.657 152.775 161.438 150.326 160.791 151.185C160.143 152.043 163.657 152.775 163.657 152.775Z" stroke="#8354BE" stroke-miterlimit="10"/>
  <path d="M169.781 151.842H164.453C163.07 152.706 161.58 153.387 160.022 153.867C158.671 154.038 157.877 154.12 157.915 155.092C157.953 156.063 158.773 156.146 161.541 156.104C164.309 156.062 169.798 156.399 170.394 155.851C170.99 155.302 170.612 154.265 169.781 151.842Z" fill="#263238"/>
  <path d="M140.933 152.506L135.785 152.544C134.403 153.408 132.915 154.089 131.358 154.569C130.011 154.741 129.213 154.823 129.247 155.794C129.281 156.766 130.104 156.849 132.877 156.807C135.649 156.764 140.534 157.163 141.13 156.613C141.726 156.064 141.396 155.161 140.933 152.506Z" fill="#263238"/>
  <path opacity="0.3" d="M140.896 12.6743C141.07 13.6106 141.565 14.4571 142.295 15.0681C140.862 14.536 135.955 12.6403 135.899 11.7694C135.843 10.8984 139.66 12.2062 140.896 12.6743Z" fill="black"/>
  <path opacity="0.3" d="M140.896 12.7791C140.884 12.7429 140.884 12.7037 140.896 12.6675V12.8036V12.7791Z" fill="black"/>
  <path opacity="0.3" d="M142.355 15.0888L142.219 15.0371C142.226 15.019 142.234 15.0017 142.245 14.9854L142.355 15.0888Z" fill="black"/>
  <path d="M154.873 17.5467C154.813 17.7318 154.444 18.9539 154.285 18.9539L153.767 18.9239C153.283 18.884 152.803 18.8282 152.326 18.7565C151.798 18.6749 151.279 18.5715 150.769 18.4517H150.747C150.229 18.3279 149.717 18.1904 149.22 18.023C147.999 17.6541 146.8 17.2142 145.63 16.7057C144.97 16.4186 144.386 16.1396 143.914 15.8987C142.949 15.4183 142.374 15.0822 142.374 15.0822L142.288 14.9461L141.935 14.3923L141.184 13.2042L140.927 12.8055V12.7756C140.915 12.7394 140.915 12.7002 140.927 12.664C141.194 11.9637 141.574 11.3119 142.051 10.7343C142.74 9.81365 143.617 9.05049 144.624 8.49568C146.028 7.92889 147.586 7.86827 149.03 8.32421C149.515 8.4249 149.988 8.57727 150.441 8.77874L150.728 8.90257L150.784 8.92843C150.835 8.95837 150.891 8.98014 150.943 9.006L151.037 9.05362C152.127 9.56406 153.119 10.2624 153.967 11.1167C155.899 13.275 155.114 16.8486 154.873 17.5467Z" fill="#8354BE"/>
  <path opacity="0.2" d="M146.435 26.1431C145.978 26.6182 145.497 27.0693 144.994 27.4944C144.996 27.1801 144.973 26.8661 144.926 26.5554C145.443 26.4764 145.949 26.3381 146.435 26.1431Z" fill="black"/>
  <path d="M136.319 70.1499V48.1843L132.309 46.5513C132.309 46.5513 133.076 34.8275 138.786 32.9794C144.496 31.1314 154.658 30.3544 157.454 32.9794C159.224 34.6479 159.458 37.3246 159.522 39.6204C159.658 44.2963 158.433 48.8743 158.161 53.5189C157.946 57.302 157.818 61.0852 157.732 64.8738C157.732 65.1651 157.621 70.158 157.612 70.158L136.319 70.1499Z" fill="#263238"/>
  <path d="M138.519 48.9288C138.519 48.9288 135.551 58.7351 132.617 59.3489C129.683 59.9626 119.663 54.4933 119.663 54.4933H115.189L114.555 50.5604C114.555 50.5604 118.72 49.0159 121.495 50.8653C121.495 50.8653 127.977 53.6918 130.134 54.5151L133.264 46.9487L138.519 48.9288Z" fill="#B55B52"/>
</svg>
