<svg xmlns="http://www.w3.org/2000/svg" width="200" height="199" viewBox="0 0 200 199" fill="none">
  <path d="M162.805 48.9936C162.868 48.317 163.02 47.6484 163.131 46.9758C163.577 45.3838 164.011 43.7918 164.846 42.3351C165.073 41.936 165.34 41.5613 165.642 41.2167C166.59 40.162 167.724 40.0227 168.934 40.7471C169.813 41.3064 170.556 42.0558 171.107 42.94C172.365 44.8385 173.228 46.92 173.069 49.2125C173.028 50.3351 172.721 51.432 172.174 52.413C171.627 53.3941 170.855 54.2314 169.921 54.8562C167.7 56.3606 165.085 55.7397 163.716 53.4313C162.94 52.0896 162.62 50.5325 162.805 48.9936Z" fill="#361D49" fill-opacity="0.5"/>
  <path d="M151.028 50.7051C149.723 48.3171 149.675 45.8335 151.028 43.4455C152.268 41.2231 154.272 39.5261 156.668 38.6695C157.1 38.5141 157.551 38.4177 158.009 38.383C158.555 38.3001 159.113 38.4183 159.578 38.7155C160.044 39.0126 160.386 39.4687 160.541 39.9989C160.928 41.1755 161.044 42.4247 160.879 43.6525C160.799 44.5798 160.66 45.5032 160.548 46.4385C160.246 48.134 159.709 49.722 158.558 51.0473C157.854 51.9075 156.907 52.5357 155.84 52.8503C154.914 53.1071 153.927 53.0335 153.049 52.642C152.171 52.2506 151.456 51.5658 151.028 50.7051Z" fill="#361D49" fill-opacity="0.5"/>
  <path d="M143.951 59.5008C141.842 57.9526 140.99 55.8034 141.209 53.2164C141.252 52.9308 141.31 52.6478 141.384 52.3686C141.709 50.6289 142.543 49.0248 143.78 47.7598C143.906 47.6405 144.039 47.5288 144.178 47.4255C145.523 46.3947 146.809 46.522 147.919 47.8235C148.696 48.7851 149.274 49.8918 149.619 51.0791C150.124 52.6154 150.558 54.1676 150.355 55.8193C150.257 56.8212 149.902 57.7809 149.324 58.6053C148.007 60.4082 145.77 60.8261 143.951 59.5008Z" fill="#361D49" fill-opacity="0.5"/>
  <path d="M170.259 70.2428C170.235 70.4896 170.191 70.7363 170.143 71.0388C169.546 73.4268 167.918 74.788 165.53 75.3054C163.007 75.8506 160.647 75.2815 158.458 74.0159C157.065 73.1808 155.434 72.8309 153.821 73.0209C151.342 73.2875 148.997 72.8577 146.924 71.409C145.185 70.1951 144.138 68.5513 144.241 66.3583C144.283 65.542 144.49 64.7426 144.851 64.009C145.211 63.2754 145.718 62.6231 146.339 62.0918C147.032 61.4742 147.794 60.9399 148.611 60.4998C150.394 59.5473 152.008 58.3075 153.387 56.8302C154.041 56.115 154.835 55.5409 155.718 55.1433C156.602 54.7456 157.558 54.5328 158.527 54.5179C159.496 54.503 160.458 54.6863 161.354 55.0566C162.249 55.4268 163.06 55.9762 163.735 56.671C164.615 57.5658 165.238 58.6807 165.538 59.8988C165.934 61.5108 166.735 62.9947 167.867 64.2091C169.306 65.6634 170.156 67.5983 170.255 69.6418C170.27 69.8418 170.272 70.0427 170.259 70.2428Z" fill="#361D49" fill-opacity="0.5"/>
  <path d="M178.294 59.9944C177.653 62.8281 176.145 64.6271 173.641 65.4987C171.138 66.3703 168.774 64.9972 168.376 62.3784C168.239 61.4666 168.325 60.5354 168.626 59.664C169.319 57.5905 170.74 56.0343 172.316 54.6094C172.885 54.1065 173.519 53.6834 174.202 53.3518C175.611 52.6632 176.837 53.0891 177.601 54.4542C178.221 55.6483 178.509 56.9873 178.433 58.3307C178.405 58.9715 178.326 59.6083 178.294 59.9944Z" fill="#361D49" fill-opacity="0.5"/>
  <path d="M68.1175 32.811C67.7951 31.82 67.6001 30.7892 67.3454 29.7782C66.9991 27.2669 66.629 24.7595 66.9235 22.2162C66.9991 21.5186 67.1458 20.8305 67.3613 20.1626C68.0458 18.1089 69.5463 17.2054 71.6915 17.5C73.2633 17.7495 74.7592 18.3479 76.0695 19.2511C78.9908 21.1536 81.4624 23.5137 82.6484 26.8569C83.8345 30.2001 83.6235 33.6229 81.6654 36.6915C79.4724 40.1541 75.4208 40.8745 72.0935 38.4706C70.1892 37.0655 68.7936 35.079 68.1175 32.811Z" fill="#361D49" fill-opacity="0.3"/>
  <path d="M52.6367 42.3789C49.3453 39.8118 47.7692 36.3691 48.1871 32.21C48.5664 28.3284 50.3395 24.7158 53.178 22.0411C53.6894 21.5609 54.2638 21.1525 54.8854 20.8272C56.569 19.9238 58.0694 20.1745 59.4266 21.5516C60.7838 22.9287 61.5161 24.6759 62.1211 26.4709C62.5788 27.8161 62.941 29.1972 63.3469 30.5623C63.9598 33.1254 64.1748 35.6766 63.3708 38.2358C62.909 39.8721 61.9627 41.3304 60.6564 42.4187C58.3361 44.2933 55.1402 44.3331 52.6367 42.3789Z" fill="#361D49" fill-opacity="0.3"/>
  <path d="M48.0696 59.0311C44.1653 58.1476 41.6618 55.6481 40.3962 51.8671C40.2793 51.442 40.1889 51.01 40.1256 50.5736C39.5962 47.8871 39.6639 45.2365 40.7027 42.6614C40.799 42.4203 40.9093 42.1851 41.033 41.9569C42.2947 39.6923 44.1732 39.0874 46.5135 40.2177C48.1933 41.093 49.6816 42.2945 50.8915 43.7519C52.5352 45.5986 54.0755 47.513 54.8118 49.9488C55.2772 51.4091 55.3608 52.9643 55.0545 54.4661C54.3143 57.8332 51.4168 59.7913 48.0696 59.0311Z" fill="#361D49" fill-opacity="0.3"/>
  <path d="M91.5181 58.068C91.6375 58.4342 91.725 58.8043 91.8564 59.2859C92.4574 62.9714 91.0166 65.9047 87.9799 68.0857C84.776 70.3861 81.1144 71.0229 77.2697 70.5812C74.8071 70.2615 72.3079 70.7653 70.1614 72.014C66.85 73.8965 63.2999 74.7204 59.5069 73.9522C56.3229 73.3075 53.8752 71.6319 52.6693 68.5036C52.2271 67.3337 52.0294 66.0857 52.0883 64.8364C52.1471 63.5872 52.4614 62.3632 53.0116 61.2401C53.6048 59.9478 54.3475 58.7296 55.2245 57.6103C57.1489 55.1855 58.6628 52.4615 59.7059 49.5469C60.1847 48.1425 60.9462 46.8511 61.9434 45.7524C62.9405 44.6537 64.1522 43.7709 65.5037 43.1586C66.8552 42.5462 68.3179 42.2173 69.8014 42.192C71.2849 42.1667 72.7579 42.4457 74.1295 43.0117C75.9117 43.7248 77.4664 44.9093 78.6269 46.4385C80.1657 48.4595 82.1963 50.053 84.5252 51.0672C87.4306 52.3528 89.7748 54.295 91.1718 57.2362C91.3054 57.5056 91.4211 57.7835 91.5181 58.068Z" fill="#361D49" fill-opacity="0.3"/>
  <path d="M96.5463 38.8008C97.3741 43.1788 96.3552 46.6056 93.3623 49.3558C90.3136 52.1696 86.2261 51.6204 84.069 48.1896C83.3221 46.9866 82.8757 45.6215 82.7675 44.2096C82.477 40.8784 83.5237 37.8416 84.869 34.8725C85.3585 33.8198 85.9906 32.8395 86.7475 31.9592C88.3037 30.1363 90.2818 29.9692 92.1842 31.4378C93.8598 32.7154 94.9264 34.4546 95.7145 36.365C96.1045 37.2844 96.3592 38.2396 96.5463 38.8008Z" fill="#361D49" fill-opacity="0.3"/>
  <path d="M38.0127 97.6849C37.6784 97.0919 37.4197 96.4591 37.1291 95.8422C36.5839 94.274 36.0267 92.7179 35.8874 91.0662C35.8396 90.6097 35.8396 90.1495 35.8874 89.6931C36.0625 88.2881 36.9063 87.516 38.3192 87.4324C39.3603 87.3886 40.3981 87.5791 41.3559 87.9896C43.4693 88.8334 45.3598 90.0314 46.5299 92.0214C47.1346 92.9678 47.5071 94.0437 47.6171 95.1614C47.7271 96.2791 47.5714 97.4069 47.1627 98.453C46.1996 100.956 43.6961 101.936 41.2524 100.821C39.8611 100.155 38.7241 99.0539 38.0127 97.6849Z" fill="#361D49" fill-opacity="0.5"/>
  <path d="M29.3145 105.808C26.8748 104.582 25.4261 102.58 25.1594 99.8381C24.9014 97.2994 25.5747 94.7534 27.0539 92.6741C27.3193 92.2993 27.6354 91.9631 27.9932 91.6751C28.3937 91.2944 28.919 91.0724 29.4712 91.0504C30.0233 91.0284 30.5646 91.208 30.9941 91.5557C31.9803 92.2951 32.7871 93.2474 33.3542 94.3417C33.8199 95.1377 34.2298 95.9855 34.6676 96.8093C35.388 98.3735 35.8616 99.9933 35.6666 101.729C35.579 102.835 35.1633 103.889 34.4726 104.757C33.8687 105.504 33.0236 106.018 32.0824 106.209C31.1411 106.401 30.1625 106.259 29.3145 105.808Z" fill="#361D49" fill-opacity="0.5"/>
  <path d="M28.5238 117.072C25.9089 117.004 23.9826 115.726 22.6891 113.49C22.5603 113.231 22.4461 112.965 22.3468 112.694C21.6289 111.078 21.4046 109.286 21.7021 107.543C21.7329 107.376 21.7741 107.212 21.8255 107.05C22.3429 105.434 23.4692 104.809 25.1129 105.231C26.2964 105.577 27.4001 106.153 28.3606 106.926C29.6501 107.898 30.8919 108.916 31.668 110.393C32.154 111.27 32.4062 112.256 32.4003 113.259C32.3764 115.503 30.7685 117.127 28.5238 117.072Z" fill="#361D49" fill-opacity="0.5"/>
  <path d="M56.2587 110.879C56.382 111.094 56.4815 111.32 56.6288 111.615C57.4885 113.899 56.9392 115.965 55.2756 117.752C53.5164 119.639 51.2518 120.518 48.7285 120.729C47.108 120.84 45.5693 121.482 44.3505 122.556C42.4719 124.192 40.2989 125.175 37.7676 125.171C35.6462 125.171 33.8592 124.403 32.6851 122.552C32.2508 121.859 31.9634 121.084 31.8409 120.276C31.7183 119.467 31.7632 118.642 31.9727 117.852C32.1876 116.947 32.5068 116.071 32.9239 115.241C33.8462 113.44 34.4674 111.5 34.7627 109.498C34.8891 108.535 35.2116 107.608 35.7103 106.774C36.2091 105.941 36.8734 105.218 37.6623 104.652C38.4512 104.085 39.3479 103.686 40.297 103.48C41.2461 103.274 42.2274 103.264 43.1804 103.452C44.4155 103.681 45.5654 104.241 46.5077 105.072C47.7541 106.171 49.2613 106.933 50.8857 107.285C52.8956 107.659 54.696 108.763 55.9403 110.385C56.0569 110.543 56.1632 110.707 56.2587 110.879Z" fill="#361D49" fill-opacity="0.5"/>
  <path d="M57.018 97.88C58.1085 100.571 57.8976 102.907 56.3414 105.044C54.7852 107.181 52.0549 107.412 50.2361 105.49C49.6007 104.815 49.1391 103.995 48.8908 103.102C48.2779 101 48.5565 98.9109 49.0381 96.8452C49.216 96.1069 49.496 95.3969 49.8699 94.7358C50.6341 93.3627 51.8599 93.0125 53.2887 93.701C54.479 94.3266 55.4785 95.2616 56.1822 96.4074C56.5324 96.9646 56.819 97.5417 57.018 97.88Z" fill="#361D49" fill-opacity="0.5"/>
  <path d="M11.5039 178.738L33.6247 178.642L55.7496 178.606L99.9992 178.539L144.249 178.606L166.374 178.642L188.495 178.738L166.374 178.837L144.249 178.873L99.9992 178.937L55.7496 178.869L33.6247 178.837L11.5039 178.738Z" fill="#263238"/>
  <path d="M178.426 121.931C178.426 122.56 180.759 166.065 181.559 178.738H144.875C146.809 169.695 156.178 120.932 156.345 120.208C156.66 118.871 152.493 113.414 154.793 110.158C157.181 106.756 159.171 107.818 159.888 106.974C160.604 106.131 161.233 102.31 164.859 101.43C167.927 100.686 167.931 102.99 169.237 103.066C170.009 103.11 170.255 102.441 171.028 101.987H171.047C171.052 101.986 171.057 101.985 171.061 101.985C171.066 101.985 171.071 101.986 171.075 101.987C171.601 101.697 172.361 101.51 173.654 101.693C177.025 102.171 177.893 108.57 178.47 109.402C179.047 110.234 181.527 109.617 182.343 113.251C183.533 118.461 178.406 121.175 178.426 121.931Z" fill="#455A64"/>
  <path opacity="0.2" d="M164.162 143.459C165.316 141.449 166.287 139.312 166.618 137.179C166.645 137.008 166.94 136.964 167.039 137.119C167.306 137.541 168.058 138.711 168.166 138.91C168.198 138.779 168.229 138.647 168.253 138.512C168.339 138.073 168.402 137.629 168.44 137.183C168.517 136.29 168.507 135.391 168.413 134.5C168.316 133.608 168.131 132.728 167.859 131.873C167.581 131.006 167.187 130.174 166.829 129.326C166.829 129.286 166.892 129.259 166.92 129.294C167.521 130.057 168.008 130.903 168.365 131.806C168.722 132.645 168.989 133.521 169.161 134.417C169.329 135.315 169.391 136.23 169.344 137.143C169.321 137.616 169.271 138.088 169.193 138.556C169.154 139.029 169.018 139.49 168.795 139.909C168.624 140.188 168.134 140.04 168.05 139.806C168.003 139.662 167.099 137.995 166.956 137.752C166.795 138.685 166.528 139.597 166.16 140.47C165.693 141.559 165.088 142.584 164.361 143.519C164.281 143.614 164.11 143.547 164.162 143.459Z" fill="black"/>
  <path d="M169.704 109.995C169.704 109.569 169.739 109.144 169.763 108.722C169.878 107.694 170.124 106.686 170.496 105.721C170.602 105.457 170.736 105.205 170.894 104.969C171.093 104.641 171.412 104.403 171.783 104.305C172.154 104.207 172.548 104.257 172.884 104.443C173.468 104.724 173.982 105.132 174.388 105.637C175.299 106.724 175.98 107.942 176.052 109.386C176.106 110.086 175.994 110.788 175.724 111.436C175.455 112.084 175.035 112.658 174.499 113.112C174.223 113.369 173.895 113.564 173.536 113.682C173.178 113.801 172.798 113.84 172.423 113.798C172.048 113.755 171.686 113.632 171.363 113.437C171.04 113.241 170.763 112.978 170.551 112.666C169.987 111.891 169.69 110.954 169.704 109.995Z" fill="#263238"/>
  <path d="M162.521 111.894C162.04 111.259 161.737 110.506 161.644 109.715C161.551 108.924 161.671 108.122 161.992 107.392C162.602 105.923 163.723 104.724 165.148 104.017C165.4 103.892 165.668 103.801 165.944 103.747C166.277 103.656 166.63 103.689 166.94 103.84C167.25 103.991 167.494 104.249 167.628 104.566C167.953 105.268 168.114 106.034 168.097 106.807C168.117 107.388 168.097 107.969 168.097 108.55C168.081 109.615 167.768 110.655 167.194 111.551C166.821 112.135 166.28 112.592 165.642 112.861C165.09 113.085 164.478 113.111 163.909 112.934C163.34 112.758 162.85 112.39 162.521 111.894Z" fill="#263238"/>
  <path d="M158.763 117.852C158.101 117.49 157.551 116.953 157.172 116.301C156.794 115.648 156.6 114.905 156.614 114.15C156.62 113.971 156.636 113.791 156.662 113.613C156.744 112.513 157.15 111.462 157.828 110.592C157.894 110.509 157.966 110.431 158.043 110.357C158.803 109.621 159.607 109.609 160.387 110.33C160.946 110.87 161.39 111.519 161.692 112.236C162.172 113.126 162.444 114.112 162.488 115.121C162.497 115.746 162.345 116.363 162.047 116.912C161.904 117.201 161.703 117.456 161.456 117.662C161.209 117.868 160.922 118.02 160.613 118.108C160.303 118.196 159.979 118.219 159.661 118.175C159.342 118.131 159.037 118.021 158.763 117.852Z" fill="#263238"/>
  <path d="M175.839 122.636C175.839 122.791 175.839 122.946 175.839 123.153C175.64 124.661 174.728 125.637 173.284 126.126C171.808 126.606 170.205 126.499 168.806 125.828C167.882 125.412 166.847 125.312 165.861 125.545C164.389 125.926 162.828 125.744 161.483 125.036C160.915 124.771 160.428 124.359 160.072 123.842C159.717 123.326 159.506 122.724 159.461 122.098C159.428 121.591 159.499 121.082 159.67 120.602C159.842 120.123 160.109 119.684 160.456 119.312C160.841 118.879 161.275 118.491 161.749 118.158C162.789 117.441 163.704 116.558 164.456 115.543C164.809 115.055 165.259 114.644 165.776 114.334C166.294 114.025 166.869 113.825 167.467 113.745C168.064 113.665 168.672 113.708 169.253 113.871C169.833 114.034 170.375 114.313 170.844 114.692C171.454 115.183 171.919 115.831 172.189 116.566C172.551 117.538 173.155 118.401 173.944 119.074C174.935 119.87 175.598 121.003 175.807 122.258C175.823 122.393 175.835 122.512 175.839 122.636Z" fill="#263238"/>
  <path d="M180.092 115.711C179.897 117.514 179.089 118.735 177.6 119.456C177.276 119.636 176.914 119.739 176.544 119.755C176.173 119.771 175.804 119.701 175.465 119.549C175.126 119.398 174.827 119.17 174.592 118.882C174.357 118.595 174.192 118.258 174.11 117.896C173.961 117.34 173.949 116.757 174.074 116.196C174.357 114.859 175.125 113.808 176 112.797C176.318 112.445 176.682 112.139 177.083 111.886C177.251 111.758 177.444 111.667 177.65 111.619C177.855 111.572 178.069 111.569 178.276 111.611C178.483 111.653 178.678 111.738 178.849 111.862C179.021 111.985 179.163 112.144 179.268 112.328C179.74 113.022 180.015 113.83 180.064 114.668C180.1 115.066 180.084 115.468 180.092 115.711Z" fill="#263238"/>
  <path d="M171.096 101.948C171.073 101.958 171.052 101.97 171.031 101.984L171.096 101.948Z" fill="black"/>
  <path d="M161.559 150.201C161.559 150.122 161.559 150.042 161.578 149.939C161.624 149.593 161.769 149.267 161.997 149.003C162.225 148.738 162.525 148.546 162.86 148.45C163.208 148.339 163.576 148.301 163.939 148.338C164.303 148.375 164.655 148.486 164.973 148.665C165.397 148.894 165.889 148.962 166.358 148.856C166.707 148.768 167.069 148.752 167.424 148.807C167.779 148.862 168.119 148.989 168.424 149.178C168.694 149.334 168.918 149.558 169.074 149.828C169.229 150.097 169.311 150.403 169.312 150.715C169.322 151.24 169.129 151.748 168.774 152.135C168.593 152.36 168.377 152.554 168.134 152.709C167.166 153.25 166.518 153.278 165.184 153.107C163.851 152.935 163.234 152.74 162.374 152.048C162.137 151.839 161.943 151.583 161.807 151.297C161.67 151.011 161.592 150.701 161.578 150.384C161.563 150.329 161.559 150.265 161.559 150.201Z" fill="#263238"/>
  <path d="M56.7954 178.738H22.7863C22.3207 162.467 21.6918 140.347 21.6878 139.821C21.6878 138.452 16.3308 134.138 17.7914 130.432C19.3396 126.564 21.4968 127.121 21.9903 126.13C22.4838 125.139 22.1893 121.282 25.5047 119.567C28.2907 118.118 28.8598 120.363 30.1414 120.12C30.9015 119.981 30.9851 119.269 31.6259 118.648L31.6816 118.596C32.1194 118.198 32.8159 117.836 34.1094 117.708C37.4964 117.366 39.8605 123.38 40.6167 124.049C41.3729 124.717 43.6375 123.535 45.2932 126.87C47.6812 131.682 43.351 135.539 43.546 136.267C43.7012 136.777 52.0154 163.427 56.7954 178.738Z" fill="#F9F9F9"/>
  <path opacity="0.4" d="M56.7954 178.738H22.7863C22.3207 162.467 21.6918 140.347 21.6878 139.821C21.6878 138.452 16.3308 134.138 17.7914 130.432C19.3396 126.564 21.4968 127.121 21.9903 126.13C22.4838 125.139 22.1893 121.282 25.5047 119.567C28.2907 118.118 28.8598 120.363 30.1414 120.12C30.9015 119.981 30.9851 119.269 31.6259 118.648L31.6816 118.596C32.1194 118.198 32.8159 117.836 34.1094 117.708C37.4964 117.366 39.8605 123.38 40.6167 124.049C41.3729 124.717 43.6375 123.535 45.2932 126.87C47.6812 131.682 43.351 135.539 43.546 136.267C43.7012 136.777 52.0154 163.427 56.7954 178.738Z" fill="black"/>
  <path opacity="0.2" d="M39.8619 159.391C38.3097 157.668 36.9127 155.785 36.1406 153.763C36.0769 153.604 35.7784 153.624 35.7147 153.795C35.5436 154.265 35.058 155.582 34.9904 155.785C34.9307 155.666 34.871 155.546 34.8192 155.427C34.6438 155.014 34.491 154.591 34.3615 154.161C34.098 153.306 33.918 152.428 33.8242 151.538C33.7327 150.645 33.7327 149.745 33.8242 148.852C33.9118 147.945 34.1227 147.049 34.2939 146.142C34.2939 146.106 34.2183 146.094 34.1984 146.142C33.7714 147.013 33.4737 147.942 33.3148 148.9C33.1459 149.796 33.0752 150.707 33.1039 151.618C33.1307 152.53 33.2643 153.436 33.5019 154.317C33.6204 154.771 33.7639 155.219 33.9317 155.658C34.0703 156.111 34.299 156.532 34.6043 156.896C34.8312 157.134 35.2809 156.896 35.3088 156.637C35.3287 156.49 35.862 154.667 35.9496 154.4C36.3033 155.278 36.7531 156.113 37.2908 156.892C37.9738 157.856 38.7762 158.731 39.6788 159.495C39.7783 159.566 39.9296 159.467 39.8619 159.391Z" fill="black"/>
  <path d="M32.2514 126.735C32.144 126.337 32.0883 125.899 32.0087 125.481C31.8773 124.456 31.8773 123.418 32.0087 122.393C32.0553 122.11 32.1299 121.833 32.2315 121.565C32.3507 121.198 32.6078 120.891 32.9486 120.71C33.2895 120.529 33.6874 120.487 34.0584 120.594C34.6925 120.727 35.2892 120.999 35.8056 121.39C36.9518 122.23 37.903 123.249 38.313 124.638C38.5299 125.303 38.5863 126.011 38.4777 126.703C38.3691 127.394 38.0986 128.05 37.6881 128.618C37.4814 128.934 37.2088 129.201 36.889 129.402C36.5691 129.602 36.2097 129.731 35.8353 129.779C35.4609 129.828 35.0805 129.795 34.7201 129.682C34.3598 129.569 34.0281 129.38 33.7479 129.127C33.0037 128.512 32.4786 127.673 32.2514 126.735Z" fill="#FF9BBC"/>
  <path d="M25.7297 130.285C25.1093 129.784 24.6344 129.126 24.3545 128.379C24.0745 127.632 23.9997 126.824 24.1377 126.039C24.3801 124.466 25.1847 123.035 26.4023 122.011C26.6211 121.825 26.8649 121.671 27.1267 121.553C27.4282 121.386 27.7802 121.334 28.117 121.408C28.4538 121.481 28.7525 121.674 28.9575 121.951C29.4426 122.554 29.7817 123.261 29.9485 124.017C30.1037 124.574 30.2231 125.147 30.3465 125.712C30.5837 126.75 30.5272 127.833 30.1833 128.841C29.9608 129.496 29.5444 130.067 28.9893 130.48C28.5072 130.83 27.919 131.001 27.3247 130.966C26.7304 130.93 26.1667 130.69 25.7297 130.285Z" fill="#FF9BBC"/>
  <path d="M23.4896 136.964C22.6671 136.75 21.9317 136.285 21.386 135.634C20.8402 134.982 20.5112 134.177 20.4449 133.33C20.2569 132.243 20.3954 131.126 20.8429 130.118C20.8878 130.021 20.9383 129.927 20.9942 129.835C21.5593 128.944 22.3394 128.741 23.2667 129.254C23.9298 129.65 24.5075 130.173 24.9662 130.795C25.6404 131.545 26.1381 132.437 26.4229 133.405C26.5801 134.011 26.5801 134.647 26.4229 135.252C26.3544 135.564 26.2221 135.858 26.0343 136.116C25.8464 136.374 25.6071 136.59 25.3315 136.751C25.0558 136.912 24.7498 137.014 24.4328 137.05C24.1158 137.087 23.7946 137.057 23.4896 136.964Z" fill="#FF9BBC"/>
  <path d="M41.2141 137.557C41.2539 137.708 41.2818 137.863 41.3256 138.062C41.4848 139.578 40.832 140.741 39.5465 141.56C38.2255 142.374 36.6431 142.65 35.1247 142.333C34.1285 142.147 33.0988 142.295 32.1954 142.754C30.8551 143.475 29.2943 143.671 27.8174 143.304C27.2007 143.18 26.6283 142.893 26.1601 142.473C25.6918 142.053 25.3446 141.515 25.1548 140.916C25.0006 140.429 24.9479 139.916 24.9999 139.408C25.0519 138.9 25.2076 138.408 25.4573 137.963C25.7284 137.45 26.0583 136.97 26.4404 136.534C27.2734 135.588 27.9456 134.513 28.4304 133.35C28.6577 132.788 28.9978 132.279 29.4295 131.854C29.8612 131.429 30.3754 131.097 30.9405 130.879C31.5055 130.66 32.1093 130.56 32.7146 130.584C33.32 130.607 33.914 130.755 34.4601 131.017C35.1782 131.351 35.7908 131.876 36.2312 132.534C36.8118 133.392 37.6023 134.088 38.5276 134.556C39.685 135.094 40.6012 136.043 41.0987 137.218C41.1445 137.328 41.1831 137.441 41.2141 137.557Z" fill="#FF9BBC"/>
  <path d="M43.7026 129.824C43.9414 131.619 43.4479 133.008 42.1703 134.05C41.8984 134.302 41.5716 134.487 41.2159 134.59C40.8602 134.694 40.4852 134.713 40.1208 134.647C39.7563 134.58 39.4123 134.43 39.1159 134.208C38.8196 133.985 38.579 133.697 38.4132 133.366C38.1385 132.866 37.987 132.308 37.9714 131.738C37.9277 130.377 38.4252 129.159 39.0381 127.985C39.2622 127.567 39.542 127.181 39.8699 126.839C40.0029 126.675 40.1693 126.541 40.3581 126.446C40.5468 126.352 40.7536 126.299 40.9645 126.29C41.1754 126.282 41.3857 126.319 41.5813 126.398C41.7769 126.478 41.9532 126.598 42.0987 126.751C42.7198 127.315 43.1776 128.035 43.424 128.837C43.5554 129.195 43.639 129.589 43.7026 129.824Z" fill="#FF9BBC"/>
  <path d="M34.2076 166.722C34.1798 166.646 34.1599 166.571 34.128 166.471C34.0463 166.132 34.0653 165.776 34.1826 165.447C34.3 165.119 34.5106 164.831 34.7887 164.621C35.0729 164.392 35.4012 164.224 35.7532 164.127C36.1051 164.031 36.4732 164.008 36.8344 164.059C37.3135 164.121 37.7987 164.007 38.1996 163.737C38.4928 163.53 38.8247 163.384 39.1755 163.309C39.5263 163.233 39.8888 163.228 40.2413 163.295C40.549 163.343 40.8387 163.472 41.0811 163.667C41.3235 163.863 41.5102 164.119 41.6224 164.41C41.8173 164.898 41.8173 165.442 41.6224 165.93C41.5321 166.205 41.3976 166.463 41.2244 166.694C40.5119 167.546 39.9189 167.805 38.6175 168.135C37.316 168.465 36.6633 168.493 35.6126 168.163C35.3134 168.054 35.0393 167.886 34.8068 167.668C34.5743 167.451 34.3881 167.188 34.2594 166.897C34.2382 166.84 34.2209 166.781 34.2076 166.722Z" fill="#FF9BBC"/>
  <path d="M65.138 178.817L70.4314 161.162C70.4314 161.162 56.3144 156.223 52.7841 149.075C49.2538 141.927 52.1672 105.135 55.6975 94.4571C59.2277 83.7788 73.699 70.1035 93.197 65.3395C112.695 60.5754 132.814 69.9165 140.312 79.357C147.811 88.7976 160.65 120.06 161.446 128.972C162.242 137.883 147.946 148.454 147.946 148.454L157.168 178.821L65.138 178.817Z" fill="#F9F9F9"/>
  <g opacity="0.1">
    <path d="M70.4336 161.162C72.5987 161.413 74.6803 162.006 76.8016 162.468C78.0633 162.722 79.3488 162.866 80.6304 163.148C77.124 163.753 73.5698 162.706 70.4376 161.158L70.4336 161.162Z" fill="black"/>
    <path d="M139.141 153.863C140.904 152.593 142.834 151.63 144.713 150.547C145.827 149.887 146.85 149.146 147.96 148.45C145.863 151.316 142.48 152.884 139.153 153.863H139.141Z" fill="black"/>
  </g>
  <path opacity="0.45" d="M138.023 178.817C138.023 178.817 131.01 164.119 125.848 161.162C120.686 158.205 96.3403 159.733 91.3016 166.678C87.2261 172.294 84.9336 178.817 84.9336 178.817H138.023Z" fill="#7550CA"/>
  <path opacity="0.45" d="M108.43 158.595C88.6775 161.063 78.2539 144.518 79.5076 134.858C81.0239 123.181 97.6842 118.325 96.0485 105.207C95.0614 97.3189 88.972 95.7229 88.4347 91.4246C87.6069 84.8058 93.8356 73.1882 97.7041 72.7186C101.573 72.2489 110.464 81.9681 111.292 88.5868C111.829 92.8852 106.317 95.9299 107.312 103.818C108.952 116.932 126.296 117.545 130.639 128.494C134.229 137.529 128.187 156.127 108.43 158.595Z" fill="#7550CA"/>
  <path d="M80.4186 111.782C72.2198 112.805 73.7999 125.545 82.0106 124.518C90.2214 123.491 88.6254 110.755 80.4186 111.782Z" fill="#263238"/>
  <path d="M73.4805 106.266C73.7113 103.006 78.0575 100.929 80.6206 103.082C79.4266 103.305 78.3202 103.416 77.2336 103.878C75.8366 104.439 74.7421 105.307 73.4805 106.242V106.266Z" fill="#263238"/>
  <path d="M129.451 99.2571C127.999 98.6641 126.721 98.0909 125.232 97.888C124.062 97.7009 122.948 97.8641 121.75 97.9397C123.72 95.2054 128.409 96.1527 129.451 99.2571Z" fill="#263238"/>
  <path d="M123.948 106.345C115.753 107.368 117.33 120.108 125.54 119.081C133.751 118.055 132.155 105.319 123.948 106.345Z" fill="#263238"/>
  <path d="M110.928 133.278C110.569 135.75 109.968 139.316 106.024 139.809C102.08 140.303 100.619 136.991 99.6562 134.687C99.6562 134.687 101.702 135.411 102.928 134.369C104.154 133.326 104.305 126.094 104.305 126.094C104.305 126.094 106.227 133.067 107.672 133.78C109.117 134.492 110.928 133.278 110.928 133.278Z" fill="#FF9BBC"/>
  <path d="M105.716 137.334C104.717 133.76 104.255 130.058 104.343 126.349C105.339 129.923 105.802 133.624 105.716 137.334Z" fill="#263238"/>
  <path d="M112.711 120.017C112.83 120.98 111.959 122.102 111.588 122.6C110.812 123.619 109.145 124.148 108.587 123.623C107.939 123.018 109.674 122.46 109.447 121.828C109.28 121.354 108.651 120.634 107.791 120.904C106.932 121.175 107.565 123.559 107.266 124.359C107.039 124.941 106.661 125.452 106.171 125.841C105.682 126.23 105.099 126.482 104.48 126.572H104.393C103.77 126.638 103.141 126.538 102.57 126.282C101.999 126.026 101.506 125.624 101.141 125.115C100.655 124.415 100.691 121.931 99.7837 121.895C98.8763 121.859 98.4504 122.691 98.4026 123.197C98.339 123.865 100.158 123.993 99.6802 124.725C99.2822 125.37 97.5191 125.266 96.5201 124.47C96.0385 124.072 94.9281 123.205 94.7968 122.246C94.6336 120.96 97.0494 117.947 103.218 117.179H103.306C109.471 116.407 112.552 118.731 112.711 120.017Z" fill="#263238"/>
  <path d="M93.8398 129.012C94.3198 129.704 94.8635 130.35 95.4637 130.942C96.602 132.096 97.8079 133.234 99.3044 133.863C100.307 134.261 101.446 134.659 102.389 134.126C103.085 133.485 103.237 132.052 103.479 131.077C103.79 129.449 104.021 127.782 104.307 126.106C104.586 128.311 104.86 133.342 103.209 134.994C101.915 135.985 100.096 135.491 98.8308 134.846C97.2388 134.05 96.0448 132.697 95.0458 131.264C94.5399 130.577 94.1376 129.82 93.8518 129.016L93.8398 129.012Z" fill="#263238"/>
  <path d="M115.174 126.349C115.09 127.202 114.881 128.037 114.553 128.829C113.94 130.444 113.1 132.064 111.767 133.207C110.708 134.142 109.065 135.069 107.572 134.424C105.582 133.23 104.591 128.287 104.316 126.066C105.009 127.623 105.642 129.179 106.342 130.679C106.816 131.567 107.317 132.92 108.153 133.366C109.192 133.636 110.203 132.988 111.074 132.355C112.376 131.376 113.259 129.967 114.079 128.578C114.518 127.864 114.887 127.109 115.182 126.325L115.174 126.349Z" fill="#263238"/>
  <path d="M114.726 144.426C112.736 145.425 110.603 146.237 108.522 146.416C108.354 146.416 108.295 146.719 108.438 146.814C108.836 147.097 109.931 147.889 110.102 148.008C109.974 148.032 109.847 148.056 109.704 148.072C109.275 148.13 108.843 148.165 108.41 148.175C107.544 148.196 106.678 148.135 105.823 147.992C104.967 147.849 104.128 147.619 103.32 147.304C102.496 146.989 101.728 146.559 100.932 146.161C100.896 146.161 100.864 146.221 100.896 146.249C101.598 146.874 102.388 147.393 103.24 147.789C104.031 148.177 104.861 148.48 105.716 148.693C106.573 148.905 107.452 149.017 108.335 149.027C108.794 149.03 109.254 149.008 109.712 148.963C110.171 148.952 110.623 148.848 111.041 148.657C111.32 148.506 111.204 148.024 110.981 147.933C110.846 147.877 109.29 146.906 109.063 146.758C109.973 146.656 110.868 146.453 111.733 146.154C112.811 145.765 113.834 145.239 114.778 144.589C114.858 144.55 114.802 144.382 114.726 144.426Z" fill="#263238"/>
  <path opacity="0.1" d="M65.1415 178.817L70.4349 161.162C70.4349 161.162 56.3178 156.223 52.7876 149.075C49.9777 143.383 51.2513 118.914 53.6672 103.782C53.5836 109.752 53.3209 139.63 58.3476 146.735C63.3744 153.839 73.3045 158.277 86.2753 161.162C86.2753 161.162 80.6237 166.941 80.6237 171.574C80.6237 174.698 85.0932 178.817 103.751 178.817H65.1415Z" fill="black"/>
  <path opacity="0.1" d="M148.368 149.835C148.368 149.835 150.195 167.514 149.49 171.749C148.786 175.984 133.785 178.817 133.785 178.817H157.168L148.368 149.835Z" fill="black"/>
  <path d="M82.3663 69.0768C80.7146 69.5743 78.1554 68.3843 76.9654 67.1067C75.7754 65.8291 73.6103 61.3237 73.6103 61.3237C73.6103 61.3237 72.9496 65.4709 73.3038 67.4131C73.484 68.5205 73.9051 69.5749 74.5376 70.5016C72.8764 69.6229 71.4302 68.3874 70.3029 66.8838C68.7109 64.5913 67.7437 63.0909 65.5269 62.6929C63.31 62.2949 56.8783 71.5165 51.8078 74.605C46.7373 77.6935 41.4598 79.2815 39.5415 82.2824C37.6231 85.2833 37.7783 99.3964 40.8668 107.87C43.9553 116.343 52.2456 124.984 55.951 123.662C59.6564 122.341 57.4276 112.646 63.0752 100.471C67.4134 91.118 73.4232 86.9589 73.4232 86.9589L82.3663 69.0768Z" fill="#F9F9F9"/>
  <path opacity="0.1" d="M72.2812 87.8784C70.327 89.5659 66.2555 93.6255 63.0834 100.471C57.4398 112.646 59.6686 122.341 55.9632 123.663C52.2578 124.984 43.9635 116.339 40.875 107.858C42.6859 111.838 51.1872 119.679 53.7583 117.74C55.7483 116.244 57.2049 105.916 60.3332 100.093C63.3859 94.4653 71.7439 88.2605 72.2812 87.8784Z" fill="black"/>
  <path d="M82.3653 69.0768C80.3753 69.5823 77.9674 68.4122 76.6381 66.9077C76.0016 66.055 75.4257 65.1586 74.9147 64.2252C74.3934 63.3018 73.8959 62.3665 73.4143 61.4193L73.8123 61.3596C73.466 64.3327 72.9327 67.7276 74.7914 70.2987L75.6311 71.4608L74.3735 70.8041C73.1795 70.1795 72.0828 69.3845 71.1178 68.444C69.2472 66.657 68.2642 63.5287 65.4105 63.1307C64.4314 63.2979 63.6673 64.1774 62.915 64.8222C60.129 67.5246 57.5699 70.5932 54.6088 73.1802C50.6964 76.7144 45.2717 78.0159 41.228 81.2556C40.2886 81.9989 39.6577 83.0637 39.4569 84.2446C38.9914 86.7691 38.7979 89.3363 38.8798 91.9021C38.9952 97.0483 39.5803 102.286 41.1842 107.185C42.0298 109.617 43.1742 111.934 44.5911 114.083C46.4657 117.052 51.986 124.156 55.8107 123.336C56.2724 123.185 56.6386 122.668 56.9092 122.122C57.7052 120.379 58.0475 118.437 58.4495 116.55C60.0136 108.988 61.2872 100.758 66.3816 94.6244C63.13 98.7597 61.6056 103.902 60.4793 108.952C59.93 111.504 59.5161 114.079 59.0465 116.654C58.6485 118.592 58.354 120.582 57.5301 122.413C56.4953 124.952 53.8964 124.271 52.0178 123.141C48.599 121.036 45.9762 117.899 43.7434 114.624C39.2062 107.997 37.9485 99.7785 37.7256 91.9101C37.6978 90.5927 37.7256 89.2713 37.7893 87.9301C37.9604 85.8963 38.0321 83.8148 39.0549 81.9322C40.2052 80.181 42.0996 79.1064 43.8309 78.1472C46.7324 76.599 49.7134 75.3612 52.3919 73.5344C53.9332 72.369 55.3798 71.0834 56.7182 69.6897C58.5609 67.855 60.3002 65.8968 62.2424 64.0978C63.0145 63.4212 63.7787 62.6889 64.7936 62.3108C65.1016 62.1992 65.4366 62.1853 65.7528 62.271L66.0115 62.3307C68.7975 63.0272 69.8124 66.0122 71.6273 67.9027C72.521 68.8068 73.5412 69.5763 74.656 70.1872L74.2381 70.6927C73.7754 70.0026 73.4248 69.2437 73.1994 68.444C72.483 65.8689 73.1198 63.1586 73.478 60.5835C74.473 62.681 75.468 64.8461 76.7973 66.7445C78.055 68.2331 80.3355 69.4828 82.3335 69.0609L82.3653 69.0768Z" fill="#263238"/>
  <path d="M110.859 64.5594C112.579 64.6947 114.839 62.9674 115.715 61.4789C116.591 59.9904 117.753 55.1109 117.753 55.1109C117.753 55.1109 119.285 59.0232 119.345 60.9933C119.405 62.1132 119.219 63.2327 118.799 64.2729C120.233 63.0585 121.381 61.5434 122.163 59.8352C123.225 57.2561 123.85 55.5805 125.92 54.7209C127.989 53.8612 136.268 61.4869 141.872 63.4251C147.475 65.3634 153.016 65.7773 155.495 68.3006C157.975 70.8239 160.896 84.6505 159.702 93.5856C158.508 102.521 152.224 112.737 148.323 112.236C144.423 111.734 144.526 101.788 136.407 91.102C130.17 82.8913 123.408 80.1133 123.408 80.1133L110.859 64.5594Z" fill="#F9F9F9"/>
  <path opacity="0.1" d="M159.699 93.5817C158.505 102.517 152.24 112.737 148.336 112.24C144.798 111.786 144.559 103.552 138.473 94.0434C138.472 94.0342 138.472 94.0248 138.473 94.0156C141.825 97.0165 146.059 107.691 149.06 108.045C152.061 108.399 156.694 100.121 158.015 94.5131C158.811 91.134 159.189 80.0139 159.209 79.7632C159.922 84.376 160.232 89.4823 159.699 93.5817Z" fill="black"/>
  <path d="M110.859 64.5595C112.893 64.5595 114.867 62.8361 115.775 61.1128C116.674 58.9716 117.172 56.6472 117.697 54.3866C118.596 56.8224 119.798 59.3377 119.647 62.0043C119.602 62.8333 119.422 63.6493 119.114 64.4202L118.6 64.0222C119.557 63.1855 120.389 62.2165 121.072 61.1446C122.441 58.9158 122.775 55.7796 125.362 54.502C125.719 54.2805 126.139 54.1826 126.556 54.2234C127.627 54.3747 128.546 54.9279 129.434 55.4174C131.727 56.7587 133.832 58.3029 136.025 59.6999C137.63 60.7773 139.319 61.7237 141.076 62.5297C144.08 63.7237 147.256 64.3127 150.421 65.2082C152.339 65.7694 154.401 66.4022 155.917 67.8828C157.318 69.4987 157.831 71.5165 158.436 73.4548C158.794 74.7324 159.089 76.0219 159.344 77.3154C160.808 85.0485 161.334 93.3468 158.321 100.797C156.844 104.475 154.95 108.101 152.064 110.887C150.472 112.371 148.084 113.633 146.52 111.356C145.326 109.74 144.602 107.866 143.81 106.055C142.799 103.639 141.848 101.211 140.761 98.8392C138.596 94.1309 135.985 89.4345 131.929 86.1032C138.222 91.0066 141.219 98.7556 144.367 105.828C145.163 107.472 146.62 111.523 148.399 111.89C152.299 111.89 156.204 103.703 157.378 100.451C158.303 98.0487 158.926 95.5407 159.232 92.9846C159.75 87.8544 159.204 82.6128 158.213 77.5621C157.746 75.0373 157.008 72.5701 156.012 70.2031C155.564 69.0933 154.72 68.1889 153.644 67.6639C149 65.3634 143.424 65.252 138.847 62.6371C135.4 60.7506 132.248 58.2989 128.944 56.2691C128.073 55.7955 127.142 55.103 126.158 55.1508C123.456 56.1497 123.166 59.4133 121.717 61.5586C120.976 62.6839 120.075 63.6949 119.042 64.5595L117.956 65.4749L118.525 64.1535C119.79 61.2402 118.545 58.0482 117.574 55.2144L117.972 55.1866C117.709 56.2134 117.418 57.2323 117.108 58.2472C116.808 59.2683 116.437 60.2671 115.998 61.2362C115.022 62.9834 112.929 64.651 110.867 64.5794L110.859 64.5595Z" fill="#263238"/>
  <path d="M45.8728 176.923C45.447 179.737 48.4519 183.076 50.4379 183.41C52.4239 183.745 53.9443 182.284 53.9443 182.284C53.9443 182.284 55.7313 185.07 59.1183 185.392C60.0663 185.507 61.0281 185.386 61.9178 185.039C62.8074 184.691 63.5972 184.129 64.2166 183.402C64.2166 183.402 66.2066 184.923 69.709 184.923C73.2114 184.923 74.9268 181.488 74.9268 181.488C74.9268 181.488 77.3148 182.153 79.0302 180.764C80.7456 179.375 81.1476 175.932 79.9575 173.285C78.7675 170.638 71.7428 162.384 63.2415 162.276C54.7403 162.169 46.5216 172.557 45.8728 176.923Z" fill="#F9F9F9"/>
  <path d="M54.6283 174.758C53.9915 177.281 53.6134 179.785 54.0552 182.372C52.503 180.119 52.9408 176.8 54.6283 174.758Z" fill="#263238"/>
  <path d="M73.3672 173.484C75.4209 175.402 76.4119 178.885 74.8557 181.38C75.2537 178.594 74.4338 176.011 73.3672 173.484Z" fill="#263238"/>
  <path d="M64.0414 175.12C64.5509 177.866 64.4633 180.608 64.2524 183.39C63.3648 180.744 63.4564 177.818 64.0414 175.12Z" fill="#263238"/>
  <path opacity="0.1" d="M74.5777 182.045C73.925 183.016 72.3011 184.931 69.6823 184.931C66.1759 184.931 64.1899 183.41 64.1899 183.41C63.5711 184.137 62.782 184.699 61.893 185.046C61.0041 185.393 60.0429 185.515 59.0955 185.4C55.7205 185.07 53.9215 182.288 53.9215 182.288C53.9215 182.288 52.4011 183.745 50.4151 183.414C48.4291 183.084 45.4202 179.745 45.8501 176.931C46.2481 174.228 49.5554 169.226 54.021 165.827C49.6908 169.99 48.4172 173.735 48.9027 176.067C49.3883 178.399 51.3743 180.525 53.6787 179.597C53.6787 179.597 56.5045 182.857 59.3263 183.41C60.1787 183.556 61.0532 183.503 61.8817 183.255C62.7102 183.007 63.4702 182.572 64.1023 181.981C64.1023 181.981 67.3898 184.135 70.0445 184.055C72.6991 183.975 74.5777 182.045 74.5777 182.045Z" fill="black"/>
  <path d="M132.562 178.817H167.897C167.897 178.817 166.277 153.063 166.345 152.31C166.412 151.558 171.813 149.445 171.24 144.104C170.842 140.398 168.311 140.725 167.833 139.837C167.356 138.95 167.224 132.486 163.929 131.63C160.633 130.775 160.645 132.749 159.364 132.526C158.082 132.303 158.337 130.01 155.205 130.401C151.503 130.858 150.457 134.583 149.633 135.336C148.809 136.088 146.986 134.81 144.204 137.919C141.549 140.888 145.064 146.786 144.602 148.076C144.323 148.852 132.562 178.817 132.562 178.817Z" fill="#F9F9F9"/>
  <path opacity="0.2" d="M154.855 172.732C153.995 170.579 153.338 168.33 153.315 166.165C153.315 165.994 153.024 165.91 152.917 166.049C152.594 166.428 151.679 167.494 151.547 167.661C151.547 167.526 151.52 167.395 151.516 167.263C151.492 166.815 151.492 166.366 151.516 165.918C151.564 165.025 151.697 164.139 151.914 163.271C152.134 162.402 152.442 161.556 152.833 160.748C153.231 159.928 153.74 159.156 154.214 158.36C154.238 158.324 154.162 158.284 154.13 158.316C153.427 158.985 152.825 159.754 152.343 160.597C151.876 161.379 151.493 162.209 151.201 163.072C150.909 163.938 150.718 164.834 150.632 165.743C150.588 166.215 150.572 166.69 150.584 167.164C150.556 167.638 150.624 168.113 150.783 168.561C150.915 168.859 151.42 168.784 151.536 168.561C151.603 168.429 152.73 166.905 152.913 166.686C152.939 167.627 153.073 168.562 153.311 169.472C153.618 170.616 154.072 171.716 154.66 172.744C154.716 172.863 154.891 172.819 154.855 172.732Z" fill="black"/>
  <path d="M159.041 139.459C159.08 139.037 159.176 138.619 159.244 138.197C159.477 137.191 159.837 136.217 160.314 135.3C160.457 135.052 160.623 134.819 160.812 134.604C161.048 134.296 161.395 134.093 161.779 134.038C162.162 133.983 162.552 134.08 162.865 134.309C163.414 134.659 163.878 135.127 164.223 135.678C165.019 136.872 165.548 138.15 165.448 139.594C165.422 140.295 165.23 140.979 164.888 141.592C164.547 142.204 164.065 142.726 163.482 143.117C163.179 143.341 162.83 143.497 162.46 143.574C162.091 143.651 161.709 143.647 161.341 143.563C160.973 143.478 160.627 143.315 160.329 143.084C160.03 142.853 159.785 142.56 159.61 142.225C159.123 141.39 158.923 140.419 159.041 139.459Z" fill="#FF9BBC"/>
  <path d="M151.69 140.526C151.287 139.838 151.074 139.056 151.074 138.259C151.074 137.462 151.287 136.68 151.69 135.993C152.465 134.603 153.716 133.54 155.213 133C155.482 132.903 155.763 132.844 156.048 132.824C156.391 132.77 156.741 132.842 157.035 133.027C157.328 133.213 157.543 133.499 157.64 133.831C157.882 134.566 157.952 135.346 157.847 136.112C157.8 136.689 157.712 137.266 157.64 137.843C157.502 138.897 157.073 139.892 156.403 140.717C155.964 141.255 155.373 141.647 154.707 141.843C154.13 142.009 153.512 141.969 152.961 141.728C152.41 141.488 151.961 141.062 151.69 140.526Z" fill="#FF9BBC"/>
  <path d="M147.271 146.014C146.656 145.579 146.172 144.983 145.871 144.292C145.57 143.601 145.464 142.841 145.564 142.094C145.59 141.916 145.626 141.739 145.671 141.565C145.878 140.481 146.4 139.483 147.172 138.695C147.248 138.619 147.329 138.549 147.415 138.484C148.254 137.843 149.054 137.923 149.747 138.727C150.232 139.328 150.593 140.019 150.81 140.761C151.181 141.7 151.337 142.71 151.267 143.718C151.205 144.34 150.983 144.935 150.623 145.445C150.449 145.713 150.221 145.942 149.954 146.118C149.687 146.294 149.387 146.412 149.072 146.465C148.757 146.519 148.434 146.506 148.124 146.429C147.814 146.351 147.524 146.21 147.271 146.014Z" fill="#FF9BBC"/>
  <path d="M163.679 152.716C163.679 152.872 163.635 153.027 163.607 153.23C163.233 154.706 162.218 155.57 160.726 155.892C159.207 156.201 157.627 155.916 156.312 155.096C155.442 154.577 154.425 154.359 153.418 154.476C151.91 154.688 150.375 154.331 149.116 153.473C148.582 153.143 148.145 152.678 147.851 152.124C147.556 151.57 147.415 150.947 147.441 150.32C147.465 149.811 147.594 149.312 147.82 148.854C148.045 148.396 148.361 147.989 148.75 147.658C149.183 147.27 149.659 146.935 150.171 146.659C151.285 146.063 152.293 145.289 153.156 144.366C153.564 143.918 154.06 143.559 154.612 143.31C155.164 143.06 155.762 142.927 156.368 142.918C156.974 142.908 157.575 143.023 158.135 143.255C158.695 143.487 159.202 143.832 159.623 144.267C160.174 144.824 160.564 145.52 160.75 146.281C160.997 147.287 161.497 148.213 162.202 148.971C163.1 149.879 163.63 151.087 163.691 152.362C163.694 152.48 163.69 152.599 163.679 152.716Z" fill="#FF9BBC"/>
  <path d="M168.706 146.325C168.308 148.092 167.364 149.214 165.804 149.759C165.461 149.901 165.09 149.961 164.72 149.935C164.35 149.908 163.992 149.796 163.673 149.607C163.353 149.417 163.083 149.156 162.882 148.844C162.682 148.532 162.556 148.178 162.517 147.809C162.43 147.241 162.484 146.661 162.672 146.118C163.106 144.82 163.993 143.849 164.976 142.962C165.336 142.643 165.738 142.375 166.17 142.166C166.352 142.058 166.554 141.991 166.763 141.968C166.972 141.945 167.184 141.967 167.384 142.032C167.585 142.097 167.769 142.204 167.924 142.346C168.08 142.488 168.204 142.661 168.288 142.854C168.677 143.599 168.857 144.435 168.809 145.274C168.785 145.668 168.725 146.066 168.706 146.325Z" fill="#FF9BBC"/>
  <path opacity="0.1" d="M161.266 131.658C160.892 131.857 160.096 132.721 159.412 132.689C158.727 132.657 157.656 131.169 157.227 130.938C156.797 130.707 155.205 130.401 153.473 131.467C151.742 132.534 150.946 134.775 149.943 135.718C148.94 136.661 148.399 136.247 147.452 136.514C146.504 136.78 144.912 137.927 144.562 140.267C144.212 142.607 146.457 147.94 146.369 148.47C146.282 148.999 139.512 169.667 140.769 173.44C142.166 177.639 157.863 178.758 157.863 178.758L157.752 178.837H132.562C132.562 178.837 144.323 148.88 144.606 148.096C145.068 146.806 141.553 140.908 144.208 137.939C146.994 134.83 148.813 136.108 149.633 135.356C150.453 134.603 151.499 130.878 155.205 130.42C158.337 130.022 158.082 132.323 159.364 132.546C160.124 132.657 160.446 132.02 161.266 131.658Z" fill="black"/>
</svg>
