<svg xmlns="http://www.w3.org/2000/svg" width="201" height="175" viewBox="0 0 201 175" fill="none">
  <path d="M173.621 157.774C166.841 158.089 162.365 157.293 155.58 157.608L156.656 157.637C151.094 157.455 145.525 157.708 140.002 158.394C139.575 158.448 139.177 158.643 138.873 158.948C138.568 159.253 138.374 159.651 138.321 160.079C138.268 160.507 138.358 160.94 138.579 161.31C138.799 161.681 139.137 161.967 139.538 162.124C140.345 162.433 141.194 162.616 142.057 162.665L129.796 165.915C129.544 165.976 129.313 166.105 129.127 166.287C128.942 166.469 128.81 166.698 128.745 166.949C128.481 168.128 130.021 168.6 131.135 168.651L145.765 169.183C144.421 169.962 144.689 172.161 145.885 173.148C147.192 174.005 148.739 174.422 150.3 174.339L159.561 174.808C160.087 174.906 160.627 174.896 161.148 174.776C161.67 174.656 162.16 174.429 162.59 174.111C162.819 173.905 162.976 173.632 163.04 173.331C163.105 173.03 163.072 172.716 162.947 172.435C162.403 171.312 160.82 171.661 159.593 171.898C158.367 172.136 156.589 171.375 157.155 170.239C157.253 170.058 157.391 169.902 157.558 169.783C157.725 169.663 157.918 169.583 158.12 169.549L170.282 167.162C170.635 167.097 170.959 166.921 171.206 166.661C171.453 166.401 171.612 166.069 171.659 165.713C171.707 165.357 171.64 164.995 171.469 164.679C171.298 164.363 171.032 164.109 170.708 163.954C169.028 163.17 167.192 162.78 165.339 162.814L174.995 160.419C175.292 160.353 175.56 160.193 175.76 159.964C175.959 159.734 176.08 159.447 176.105 159.143C176.148 158.01 174.69 157.719 173.621 157.774Z" fill="#EBEBEB"/>
  <path d="M166.523 32.3198C166.523 32.3198 175.622 72.9325 172.479 139.49H163.461C163.461 139.49 169.927 64.5813 163.887 32.626L166.523 32.3198Z" fill="#F5F5F5"/>
  <path d="M166.84 98.6883C167.535 98.9051 168.267 98.9804 168.992 98.91C169.722 98.9099 170.446 98.7652 171.12 98.4842C171.12 98.4244 170.17 98.6621 168.992 98.7219C167.814 98.7816 166.853 98.6242 166.84 98.6883Z" fill="#EBEBEB"/>
  <path d="M167.723 90.3543C168.913 90.6379 170.153 90.6379 171.343 90.3543C170.741 90.3214 170.138 90.3214 169.535 90.3543C168.931 90.3239 168.326 90.3239 167.723 90.3543Z" fill="#EBEBEB"/>
  <path d="M167.047 80.5279C168.116 80.8838 169.268 80.9092 170.353 80.6008C170.353 80.541 169.607 80.6344 168.698 80.6008C168.149 80.5441 167.598 80.5197 167.047 80.5279Z" fill="#EBEBEB"/>
  <path d="M167.863 71.5695C168.369 71.7095 168.897 71.7442 169.416 71.6716C169.94 71.6632 170.456 71.5444 170.931 71.3231C170.931 71.2676 170.242 71.4033 169.4 71.4689C168.886 71.4742 168.373 71.5078 167.863 71.5695Z" fill="#EBEBEB"/>
  <path d="M167.387 62.1148C167.727 62.2245 168.091 62.2377 168.438 62.1527C168.795 62.13 169.139 62.0111 169.434 61.8086C169.09 61.8197 168.747 61.8685 168.413 61.9544C168.066 61.9709 167.722 62.0246 167.387 62.1148Z" fill="#EBEBEB"/>
  <path d="M166.941 51.6048C167.273 51.726 167.631 51.7611 167.98 51.7069C168.326 51.7219 168.67 51.6487 168.98 51.494C168.306 51.4712 167.63 51.5112 166.963 51.6136L166.941 51.6048Z" fill="#EBEBEB"/>
  <path d="M165.227 41.1248C165.873 41.1801 166.52 41.0311 167.077 40.699C166.758 40.6948 166.441 40.7481 166.141 40.8564C165.823 40.8929 165.514 40.9836 165.227 41.1248Z" fill="#EBEBEB"/>
  <path d="M167.805 107.913C168.854 108.049 169.917 108.049 170.966 107.913C169.917 107.777 168.854 107.777 167.805 107.913Z" fill="#EBEBEB"/>
  <path d="M165.527 115.563C166.577 115.699 167.639 115.699 168.689 115.563C167.639 115.427 166.577 115.427 165.527 115.563Z" fill="#EBEBEB"/>
  <path d="M141.566 0.0132386C141.673 0.0424029 141.792 0.0861476 141.928 0.13281C145.484 1.87642 148.945 3.80888 152.294 5.92192L153.264 4.7991L153.473 8.54233L157.671 14.3023L159.091 9.92764C159.691 10.7311 159.466 17.1589 159.466 17.1589L160.924 22.5864L163.429 16.8308C164.672 20.1278 162.221 26.7292 162.221 26.7292L164.807 32.9995C166.703 29.596 169.001 18.5909 162.569 8.93021C156.137 -0.730454 141.566 0.0132386 141.566 0.0132386Z" fill="#EBEBEB"/>
  <path d="M142.152 0.28472H142.272L142.62 0.310967C142.927 0.337215 143.377 0.34013 143.961 0.404291C145.599 0.571772 147.218 0.889544 148.797 1.35359C151.138 2.0464 153.366 3.07389 155.412 4.40417C156.611 5.2005 157.738 6.10182 158.777 7.09749C159.875 8.18274 160.858 9.3774 161.713 10.6628C163.306 13.196 164.395 16.0128 164.921 18.9586C165.165 20.2396 165.319 21.5363 165.38 22.8389C165.46 24.0594 165.444 25.2041 165.418 26.2424C165.345 28.3262 165.167 30.0119 165.027 31.1682C164.968 31.7515 164.9 32.1977 164.865 32.504C164.86 32.6208 164.847 32.7372 164.828 32.8525C164.821 32.8921 164.821 32.9324 164.828 32.972C164.842 32.9335 164.852 32.8933 164.857 32.8525C164.869 32.7365 164.889 32.6215 164.917 32.5083C164.963 32.2065 165.043 31.7603 165.116 31.177C165.278 30.0206 165.478 28.3393 165.571 26.2468C165.605 25.2041 165.631 24.0594 165.571 22.8433C165.519 21.5334 165.376 20.2286 165.145 18.9382C164.622 15.9661 163.529 13.1233 161.926 10.5666C161.06 9.26777 160.062 8.06176 158.948 6.96771C157.897 5.96523 156.758 5.05988 155.545 4.26273C152.078 2.02268 148.11 0.676498 143.996 0.344507C143.412 0.289095 142.957 0.302218 142.651 0.28472H142.303C142.254 0.277489 142.205 0.277489 142.157 0.28472H142.152Z" fill="#E0E0E0"/>
  <path d="M166.438 33.061L166.698 32.6906C166.698 32.6906 160.066 19.0519 147.805 17.9553C144.06 17.5523 140.273 18.002 136.726 19.2707C133.179 20.5395 129.966 22.5943 127.326 25.2814C125.815 26.7105 121.848 31.9309 121.848 31.9309L129.995 29.659C129.995 29.659 135.478 22.852 138.43 22.4277C138.43 22.4277 130.935 30.1737 129.777 35.5603C131.921 34.572 134.14 33.7567 136.414 33.1222C136.414 33.1222 139.225 28.0185 142.757 26.7061L139.588 31.8579L146.944 29.6706L149.546 27.0123L149.972 29.1646C149.972 29.1646 156.556 27.4206 166.438 33.061Z" fill="#EBEBEB"/>
  <path d="M166.443 32.9919L166.137 32.9408C162.93 32.8931 159.723 33.0465 156.536 33.4002L156.244 32.0382L154.725 35.118L149.59 38.1802L150.165 33.8799C149.436 34.3057 147.248 39.8353 147.248 39.8353L144.207 43.787L144.498 37.8609C142.397 40.1065 141.754 46.718 141.754 46.718L137.5 51.6235C137.381 47.9444 139.833 36.9728 147.999 31.5745C156.165 26.1762 166.443 32.9919 166.443 32.9919Z" fill="#EBEBEB"/>
  <path d="M166.401 32.9922C167.677 30.4651 172.862 25.2374 172.862 25.2374L171.377 23.9615L174.731 24.1525L180.793 20.5405L178.023 18.5238C178.873 18.0134 184.016 19.1829 184.016 19.1829L189.023 17.8472L185.365 15.7707C188.768 14.8856 193.268 16.9956 193.268 16.9956L200.499 15.4047C197.309 13.1634 185.947 7.57264 175.66 12.9374C165.374 18.3022 165.152 32.8377 165.152 32.8377" fill="#EBEBEB"/>
  <path d="M165.734 32.6866C165.828 32.6443 166.283 33.0103 166.402 32.9681C168.805 32.1179 175.067 33.3078 175.067 33.3078V31.8263L177.441 34.6085L183.72 36.4882L182.074 32.2069C182.963 32.4621 186.633 37.6023 186.633 37.6023L191.313 41.9463L189.582 35.9049C190.756 37.3558 194.206 43.333 194.206 43.333L199.988 47.3271C199.24 43.4978 194.884 30.5022 184.749 26.9763C174.615 23.4503 165.734 32.6866 165.734 32.6866Z" fill="#EBEBEB"/>
  <path d="M140.141 21.3358C140.239 21.31 140.337 21.2789 140.432 21.2425C140.711 21.1551 140.995 21.0869 141.282 21.0383C141.733 20.9697 142.188 20.9312 142.644 20.9231C143.181 20.9231 143.789 20.9494 144.461 20.9654C147.994 21.1674 151.457 22.0331 154.669 23.5173C156.459 24.3361 158.162 25.3337 159.752 26.4949L160.3 26.8901C160.478 27.0214 160.649 27.1672 160.82 27.3159C161.155 27.593 161.487 27.8482 161.798 28.115C162.402 28.6677 162.985 29.1576 163.462 29.6724L164.152 30.349L164.747 31.0169C165.117 31.4427 165.436 31.7912 165.674 32.1105L166.244 32.8207C166.308 32.9043 166.378 32.9837 166.453 33.0584C166.397 32.9667 166.337 32.8785 166.27 32.7944L165.731 32.0653C165.498 31.7416 165.187 31.3712 164.821 30.9469C164.639 30.734 164.446 30.5211 164.238 30.2659L163.541 29.5368C163.068 29.0177 162.486 28.516 161.885 27.9546C161.575 27.6863 161.242 27.4224 160.907 27.1468C160.736 27.0112 160.567 26.8551 160.388 26.721L159.84 26.3214C158.247 25.1451 156.537 24.1374 154.736 23.3146C151.509 21.8286 148.025 20.9819 144.476 20.821C143.799 20.821 143.2 20.7788 142.655 20.821C142.194 20.8331 141.734 20.8819 141.281 20.9669C140.991 21.0204 140.706 21.0999 140.431 21.2046C140.337 21.2425 140.265 21.2731 140.218 21.2979C140.191 21.309 140.166 21.3217 140.141 21.3358Z" fill="#E0E0E0"/>
  <path d="M144.371 17.65H145.452C146.433 17.6729 147.412 17.7704 148.378 17.9417C151.61 18.5406 154.67 19.8435 157.342 21.7578C160.072 23.7281 162.457 26.1371 164.4 28.887C165.161 29.9457 165.731 30.844 166.101 31.4739C166.297 31.7845 166.438 32.0353 166.527 32.203C166.57 32.2918 166.625 32.3746 166.689 32.4495C166.654 32.3561 166.61 32.2662 166.558 32.1811C166.464 32.0105 166.336 31.7553 166.132 31.4331C165.766 30.79 165.209 29.8801 164.457 28.8083C162.533 26.0208 160.146 23.5833 157.399 21.6018C154.722 19.6877 151.651 18.3981 148.41 17.8279C147.437 17.6671 146.452 17.59 145.466 17.5975C145.198 17.5906 144.93 17.5993 144.663 17.6238C144.565 17.622 144.467 17.6308 144.371 17.65Z" fill="#E0E0E0"/>
  <path d="M150.965 29.8062C151.176 29.8076 151.386 29.7935 151.595 29.7639C151.994 29.7304 152.582 29.6837 153.297 29.6574C154.011 29.6312 154.879 29.6574 155.848 29.6997L156.578 29.742C156.83 29.7498 157.081 29.7766 157.33 29.8222C157.836 29.9156 158.359 30.0482 158.9 30.1664C159.424 30.2674 159.939 30.4098 160.44 30.5922C160.929 30.7671 161.401 30.9407 161.849 31.1113C162.743 31.4511 163.551 31.7835 164.197 32.0722L165.761 32.7693C165.949 32.8674 166.144 32.9498 166.345 33.0157C166.304 32.9801 166.258 32.9501 166.209 32.9268L165.782 32.6993C165.42 32.5126 164.897 32.2487 164.237 31.9425C163.578 31.6362 162.791 31.2921 161.904 30.9421C161.458 30.7628 160.986 30.5892 160.496 30.4099C159.987 30.2275 159.465 30.0851 158.934 29.9841C158.394 29.8689 157.871 29.742 157.356 29.6487C157.1 29.6037 156.842 29.5769 156.582 29.5685L155.853 29.5306C154.896 29.4883 154.029 29.4927 153.301 29.5306C152.573 29.5685 151.989 29.6414 151.599 29.7012C151.399 29.7274 151.242 29.7566 151.135 29.7785C151.078 29.7792 151.02 29.7885 150.965 29.8062Z" fill="#E0E0E0"/>
  <path d="M165.91 30.3002C165.951 30.226 165.984 30.1478 166.008 30.0669C166.072 29.8875 166.154 29.6411 166.25 29.3815C166.305 29.2284 166.361 29.0621 166.425 28.8842C166.489 28.7063 166.571 28.5139 166.658 28.301C166.829 27.8752 167.002 27.4071 167.258 26.9054L167.632 26.1063C167.768 25.8249 167.924 25.5537 168.083 25.2562C168.385 24.6642 168.768 24.0692 169.155 23.4305C170.904 20.7081 173.102 18.3015 175.655 16.313C176.25 15.8872 176.809 15.4381 177.357 15.0793C177.639 14.9 177.897 14.7133 178.161 14.5558L178.922 14.1052C179.403 13.8136 179.862 13.5949 180.258 13.3761L180.815 13.0845L181.291 12.8672L181.951 12.5654C182.03 12.5336 182.106 12.4935 182.177 12.4458C182.094 12.4629 182.015 12.4898 181.939 12.526L181.262 12.7943L180.774 12.9985C180.599 13.0757 180.412 13.1691 180.208 13.2668C179.808 13.4709 179.358 13.6926 178.85 13.9682L178.08 14.394C177.812 14.5515 177.548 14.7337 177.264 14.9131C176.698 15.2616 176.132 15.6962 175.529 16.138C172.939 18.1201 170.724 20.5476 168.985 23.3066C168.599 23.9497 168.22 24.549 167.922 25.1483C167.777 25.4399 167.612 25.7228 167.497 25.9984C167.381 26.274 167.246 26.5511 167.131 26.8107C166.914 27.2708 166.722 27.7425 166.556 28.2237C166.476 28.4366 166.399 28.6495 166.334 28.807L166.181 29.313L165.973 30.01C165.938 30.1031 165.917 30.2009 165.91 30.3002Z" fill="#E0E0E0"/>
  <path d="M173.017 14.8271C172.838 14.962 172.67 15.1112 172.515 15.2734C172.358 15.4192 172.167 15.6058 171.963 15.8348C171.758 16.0637 171.508 16.3072 171.264 16.6091C170.675 17.2973 170.129 18.022 169.631 18.7789C167.897 21.3991 166.743 24.3591 166.245 27.4611C166.172 27.8402 166.143 28.1902 166.099 28.495C166.055 28.7998 166.044 29.0608 166.035 29.278C166.014 29.5002 166.014 29.7238 166.035 29.9459C166.084 29.7276 166.115 29.5057 166.128 29.2824C166.15 29.0695 166.179 28.81 166.23 28.5081C166.281 28.2063 166.319 27.8621 166.401 27.4874C166.562 26.6011 166.774 25.7247 167.035 24.8626C167.362 23.8125 167.754 22.7839 168.209 21.7828C168.677 20.7867 169.208 19.8218 169.8 18.8941C170.284 18.1309 170.812 17.3966 171.382 16.6951C171.616 16.3933 171.855 16.1381 172.05 15.9077C172.245 15.6773 172.429 15.4819 172.578 15.3244C172.739 15.1718 172.885 15.0054 173.017 14.8271Z" fill="#E0E0E0"/>
  <path d="M191.314 34.6572C191.266 34.5812 191.21 34.5099 191.148 34.4443C191.033 34.313 190.871 34.1089 190.638 33.8697C189.984 33.1814 189.272 32.5511 188.51 31.9857C187.384 31.1412 186.16 30.4357 184.864 29.8844C181.672 28.5084 178.139 28.1287 174.727 28.7951C173.342 29.0578 171.994 29.4862 170.711 30.0711C169.847 30.4633 169.017 30.9287 168.232 31.4622C167.951 31.6445 167.751 31.8107 167.611 31.9128C167.537 31.9653 167.467 32.0238 167.402 32.0878C167.484 32.0472 167.561 31.9983 167.633 31.942C167.786 31.8486 167.99 31.6912 168.279 31.5162C169.073 31.0118 169.905 30.5696 170.768 30.1936C172.972 29.2038 175.356 28.6799 177.772 28.6548C180.187 28.6297 182.582 29.104 184.806 30.0478C186.966 30.9543 188.931 32.2672 190.595 33.9149C190.842 34.1453 191.021 34.3407 191.135 34.4632C191.189 34.5329 191.249 34.5978 191.314 34.6572Z" fill="#E0E0E0"/>
  <path d="M32.3946 34.604C32.3946 34.604 25.1633 76.22 28.1002 138.699H35.2892C35.2892 138.699 29.1997 64.8882 34.8575 34.8956L32.3946 34.604Z" fill="#F5F5F5"/>
  <path d="M32.1009 96.9008C31.4481 97.1057 30.7607 97.1766 30.0798 97.1093C29.3962 97.0996 28.7213 96.9549 28.0938 96.6835C28.0938 96.6281 28.9876 96.8541 30.093 96.9051C31.1983 96.9562 32.0892 96.8424 32.1009 96.9008Z" fill="#EBEBEB"/>
  <path d="M31.2668 89.0821C30.7142 89.2408 30.1392 89.3068 29.565 89.2775C28.9905 89.3093 28.4148 89.2417 27.8633 89.0777C28.4301 89.0471 28.9982 89.0471 29.565 89.0777C30.1318 89.0457 30.7 89.0457 31.2668 89.0777V89.0821Z" fill="#EBEBEB"/>
  <path d="M31.9068 79.8525C30.9019 80.187 29.8195 80.2109 28.8008 79.921C28.8008 79.8656 29.5022 79.9502 30.3582 79.921C30.8721 79.8617 31.3896 79.8388 31.9068 79.8525Z" fill="#EBEBEB"/>
  <path d="M31.1368 71.4438C30.6623 71.5748 30.1659 71.6065 29.6786 71.5371C29.1863 71.5296 28.7011 71.4193 28.2539 71.2134C28.7367 71.2309 29.2181 71.2747 29.6961 71.3446C30.1781 71.3529 30.6595 71.3855 31.1382 71.4423L31.1368 71.4438Z" fill="#EBEBEB"/>
  <path d="M31.5831 62.5661C31.2639 62.6703 30.922 62.6835 30.5959 62.604C30.2605 62.585 29.9373 62.4712 29.6641 62.2759C29.9882 62.2883 30.3101 62.3338 30.625 62.4115C30.9489 62.4289 31.2701 62.4807 31.5831 62.5661Z" fill="#EBEBEB"/>
  <path d="M32.005 52.701C31.3764 52.8595 30.7142 52.8192 30.1094 52.5857C30.4243 52.5417 30.7438 52.5417 31.0587 52.5857C31.3782 52.5759 31.6973 52.6147 32.005 52.701Z" fill="#EBEBEB"/>
  <path d="M33.6117 42.8704C33.3114 42.9202 33.0036 42.8982 32.7134 42.8062C32.4069 42.7654 32.1151 42.6503 31.8633 42.4708C32.1612 42.468 32.4573 42.5173 32.7382 42.6166C33.042 42.6491 33.3377 42.735 33.6117 42.8704Z" fill="#EBEBEB"/>
  <path d="M31.1916 105.563C30.2062 105.694 29.208 105.694 28.2227 105.563C29.2084 105.439 30.2059 105.439 31.1916 105.563Z" fill="#EBEBEB"/>
  <path d="M33.3322 112.751C32.3465 112.875 31.349 112.875 30.3633 112.751C31.3486 112.62 32.3469 112.62 33.3322 112.751Z" fill="#EBEBEB"/>
  <path d="M55.8189 4.27355C55.7212 4.30272 55.606 4.34209 55.4835 4.38875C52.1442 6.02402 48.895 7.83724 45.7499 9.8206L44.84 8.76631L44.6446 12.2806L40.7074 17.676L39.3761 13.5668C38.8147 14.3192 39.0276 20.3474 39.0276 20.3474L37.6452 25.4483L35.2931 20.0412C34.1265 23.1341 36.4247 29.3315 36.4247 29.3315L33.9792 35.2271C32.209 32.019 30.0421 21.6992 36.0805 12.6335C42.119 3.56778 55.8189 4.27355 55.8189 4.27355Z" fill="#EBEBEB"/>
  <path d="M55.2735 4.53121H54.836C54.5444 4.56037 54.1215 4.56037 53.5601 4.62454C52.0274 4.79028 50.5138 5.1008 49.0396 5.55196C46.8391 6.2004 44.7442 7.1646 42.8204 8.41443C41.6937 9.1598 40.6358 10.004 39.659 10.9371C38.631 11.9538 37.7077 13.071 36.9029 14.2721C35.4123 16.6522 34.3916 19.296 33.8961 22.0604C33.6709 23.2644 33.5286 24.4824 33.4703 25.7059C33.3974 26.855 33.4149 27.9268 33.4367 28.9053C33.5053 30.8622 33.6701 32.44 33.8028 33.5292C33.8626 34.0732 33.9267 34.4946 33.9559 34.7804C33.9612 34.8905 33.9739 35.0001 33.9938 35.1085C33.9976 35.1468 33.9976 35.1854 33.9938 35.2237C33.9823 35.1907 33.975 35.1564 33.9719 35.1216C33.9621 35.0124 33.9436 34.9042 33.9165 34.7979C33.8742 34.5063 33.7969 34.0921 33.7299 33.5467C33.5767 32.4618 33.3901 30.8841 33.3041 28.9184C33.2749 27.9399 33.253 26.8594 33.3041 25.7103C33.3605 24.4794 33.5027 23.254 33.7299 22.0429C34.22 19.2529 35.2471 16.5846 36.7542 14.186C37.5624 12.9659 38.4964 11.834 39.5408 10.8088C40.5259 9.86445 41.5937 9.0104 42.7314 8.25694C45.9879 6.15669 49.7125 4.89294 53.5747 4.57787C54.1186 4.52683 54.5488 4.53996 54.8506 4.52246H55.2764L55.2735 4.53121Z" fill="#E0E0E0"/>
  <path d="M32.4686 35.2972L32.2266 34.9486C32.2266 34.9486 38.4546 22.1441 49.9614 21.1189C53.4759 20.7414 57.0303 21.1636 60.3585 22.354C63.6868 23.5444 66.7027 25.4722 69.1806 27.993C70.6009 29.3374 74.3237 34.2385 74.3237 34.2385L66.6696 32.111C66.6696 32.111 61.5221 25.7298 58.7486 25.304C58.7486 25.304 65.7888 32.5747 66.8694 37.6405C64.8579 36.7126 62.7752 35.9475 60.6413 35.3526C60.6413 35.3526 58.0034 30.5798 54.686 29.3287L57.6636 34.1656L50.759 32.111L48.3296 29.5883L47.9301 31.6137C47.9301 31.6137 41.7429 30.0141 32.4686 35.2972Z" fill="#EBEBEB"/>
  <path d="M32.4648 35.2497C32.5494 35.2497 32.6442 35.2162 32.7565 35.203C35.7659 35.1574 38.7751 35.2996 41.7668 35.6288L42.0395 34.3529L43.4642 37.246L48.2879 40.126L47.7484 36.0896C48.4294 36.4892 50.4796 41.6629 50.4796 41.6629L53.3333 45.3726L53.0519 39.7993C55.0263 41.9269 55.6038 48.1111 55.6038 48.1111L59.6066 52.7177C59.713 49.2631 57.412 38.9652 49.7418 33.8936C42.0716 28.8219 32.4648 35.2497 32.4648 35.2497Z" fill="#EBEBEB"/>
  <path d="M32.5063 35.2107C31.3019 32.8411 26.4445 27.9328 26.4445 27.9328L27.8357 26.721L24.6874 26.9033L18.9916 23.5027L21.5916 21.6071C20.7925 21.139 15.9673 22.2414 15.9673 22.2414L11.2908 20.964L14.719 19.0158C11.5197 18.1657 7.30403 20.1649 7.30403 20.1649L0.5 18.6906C3.47767 16.5893 14.1591 11.3398 23.8154 16.3764C33.4717 21.4131 33.6758 35.0605 33.6758 35.0605" fill="#EBEBEB"/>
  <path d="M33.1292 34.9547C33.0446 34.9124 32.6188 35.2565 32.5036 35.2143C30.2492 34.4064 24.3697 35.5336 24.3697 35.5336V34.1468L22.1401 36.7585L16.2489 38.5244L17.815 34.4954C16.9649 34.733 13.5352 39.5583 13.5352 39.5583L9.11532 43.6296L10.7398 37.9586C9.63736 39.3206 6.39575 44.9303 6.39575 44.9303L0.972656 48.6779C1.67406 45.0922 5.76289 32.8913 15.2632 29.5899C24.7634 26.2885 33.1292 34.9547 33.1292 34.9547Z" fill="#EBEBEB"/>
  <path d="M57.1589 24.2891L56.8862 24.2002C56.6287 24.1187 56.3655 24.0563 56.0988 24.0135C55.6769 23.9447 55.2503 23.9077 54.8229 23.9027C54.3212 23.9027 53.7467 23.9289 53.1211 23.9406C49.8111 24.13 46.566 24.9382 43.5538 26.3233C41.872 27.0888 40.2728 28.024 38.7811 29.1143L38.2663 29.4847C38.1001 29.6131 37.9382 29.7443 37.7807 29.8712C37.4657 30.1307 37.1508 30.3684 36.862 30.6192C36.2963 31.1427 35.748 31.6021 35.3003 32.0774L34.647 32.7511L34.09 33.3767C33.7857 33.699 33.5018 34.0399 33.2398 34.3975L32.7032 35.0653C32.6448 35.1462 32.5794 35.2219 32.5078 35.2913C32.5586 35.2052 32.6157 35.1228 32.6784 35.0449L33.1888 34.3552C33.4061 34.0489 33.6992 33.7048 34.0389 33.3038C34.2096 33.104 34.3875 32.878 34.5872 32.6651L35.242 31.9841C35.6678 31.4956 36.2336 31.0275 36.7993 30.4996C37.091 30.2445 37.3987 30.0024 37.7136 29.7385C37.8755 29.6101 38.033 29.4745 38.1992 29.3477L38.7183 28.9729C40.2135 27.8689 41.8188 26.9223 43.5086 26.1483C46.5361 24.7571 49.8043 23.9648 53.1328 23.8152C53.7671 23.8152 54.3417 23.7773 54.8345 23.8152C55.2628 23.8325 55.6893 23.8812 56.1105 23.961C56.3803 24.0141 56.6451 24.0897 56.9023 24.187L57.1021 24.2716L57.1589 24.2891Z" fill="#E0E0E0"/>
  <path d="M53.1869 20.8354C53.099 20.8417 53.0108 20.8417 52.9229 20.8354H52.1705C51.2503 20.8586 50.333 20.9498 49.4261 21.108C46.3961 21.67 43.5257 22.8884 41.0166 24.6777C38.4575 26.5328 36.2238 28.7995 34.4065 31.3855C33.692 32.3815 33.1554 33.2229 32.7938 33.8149C32.6115 34.1065 32.4788 34.3428 32.368 34.4959C32.3222 34.5761 32.2711 34.6531 32.2148 34.7263C32.2509 34.6402 32.2923 34.5564 32.3388 34.4755C32.4234 34.318 32.5473 34.0759 32.7223 33.7785C34.783 30.1627 37.5764 27.0172 40.9233 24.5436C43.4458 22.7389 46.3444 21.5289 49.4014 21.0045C50.3172 20.8539 51.2439 20.7798 52.172 20.7829C52.4232 20.7742 52.6746 20.7839 52.9244 20.812C53.0125 20.8093 53.1006 20.8171 53.1869 20.8354Z" fill="#E0E0E0"/>
  <path d="M47.013 32.2484C46.8151 32.2476 46.6174 32.2349 46.421 32.2105C46.0419 32.177 45.4936 32.1303 44.817 32.1084C44.1404 32.0865 43.3325 32.1084 42.4386 32.1463L41.7489 32.1886C41.5134 32.1955 41.2788 32.2213 41.0475 32.2659C40.5707 32.3549 40.0778 32.4744 39.5718 32.5852C39.0786 32.6867 38.5947 32.8291 38.1252 33.011C37.6659 33.1729 37.2241 33.3348 36.8128 33.4966C35.9627 33.816 35.2263 34.1266 34.6051 34.3978L33.1338 35.0365C32.9577 35.1259 32.776 35.2038 32.5898 35.2698C32.6296 35.2373 32.6726 35.2089 32.7182 35.1853L33.1046 34.9723C33.44 34.7974 33.9547 34.5465 34.5511 34.2622C35.1476 33.9778 35.9087 33.6541 36.7458 33.3217C37.1715 33.1554 37.5959 32.9892 38.0684 32.8244C38.5447 32.6419 39.0353 32.4995 39.5353 32.3986C40.0369 32.2878 40.5313 32.1653 41.0154 32.0792C41.2561 32.0349 41.4999 32.0091 41.7445 32.002L42.4342 31.9684C43.2319 31.9278 44.031 31.9278 44.8286 31.9684C45.5096 32.0063 46.0535 32.0705 46.4327 32.1259C46.6193 32.1522 46.7651 32.1813 46.8585 32.1988C46.9128 32.2047 46.9654 32.2216 47.013 32.2484Z" fill="#E0E0E0"/>
  <path d="M32.9642 32.7032C32.9282 32.6321 32.8984 32.5579 32.8753 32.4816L32.6449 31.84L32.483 31.3719C32.4188 31.2056 32.3372 31.0234 32.2614 30.8323C32.0995 30.4415 31.9376 29.9822 31.6999 29.5199L31.3471 28.7719C31.2231 28.5123 31.07 28.2528 30.9213 27.9757C30.6296 27.423 30.2782 26.8616 29.9136 26.274C29.0946 25.0015 28.177 23.7953 27.1693 22.6663C26.139 21.5537 25.024 20.5226 23.8343 19.5822C23.2729 19.1564 22.7494 18.7569 22.2216 18.4259C21.962 18.2552 21.7199 18.0817 21.4691 17.933L20.7546 17.5072C20.304 17.2301 19.8695 17.026 19.4787 16.8306C19.292 16.7329 19.1214 16.6395 18.9595 16.5623L18.5089 16.3581L17.8877 16.0665C17.8157 16.0444 17.747 16.0125 17.6836 15.9717C17.7609 15.9907 17.8365 16.0161 17.9096 16.0475L18.5439 16.3027L19.0033 16.4894L19.5311 16.7445C19.9103 16.9312 20.3477 17.128 20.8071 17.4036L21.5362 17.8294C21.787 17.9753 22.0378 18.1488 22.3018 18.315C22.834 18.6431 23.3648 19.0441 23.935 19.4641C26.3543 21.3284 28.4294 23.6009 30.0667 26.1792C30.4328 26.7785 30.7856 27.3457 31.0671 27.9057C31.2129 28.1871 31.3587 28.4496 31.4929 28.7092L31.837 29.4704C32.0674 29.9516 32.2234 30.4065 32.3766 30.8017C32.4495 30.9971 32.5224 31.1808 32.5807 31.35C32.639 31.5192 32.6828 31.6781 32.7265 31.8225C32.8067 32.0908 32.8724 32.311 32.9219 32.4772C32.945 32.5506 32.9592 32.6265 32.9642 32.7032Z" fill="#E0E0E0"/>
  <path d="M26.3203 18.1821C26.4869 18.312 26.6434 18.4543 26.7884 18.6079C26.9342 18.7435 27.1165 18.9185 27.3119 19.1314C27.5429 19.3627 27.7615 19.6061 27.9666 19.8605C28.5193 20.5052 29.0307 21.1841 29.4978 21.8933C30.6458 23.6358 31.5276 25.5397 32.1138 27.5424C32.3453 28.3544 32.527 29.1799 32.6577 30.0141C32.7262 30.367 32.751 30.6951 32.7889 30.9838C32.8269 31.2725 32.84 31.516 32.8531 31.7129C32.87 31.9211 32.87 32.1303 32.8531 32.3385C32.8081 32.1339 32.7783 31.9263 32.7642 31.7173C32.7423 31.5175 32.7175 31.2915 32.6708 30.9882C32.6242 30.6849 32.5863 30.3801 32.5134 30.0272C32.3587 29.1973 32.1586 28.3766 31.914 27.5686C31.3144 25.5892 30.4408 23.7034 29.3184 21.9662C28.8618 21.2576 28.3647 20.576 27.8296 19.9247C27.6329 19.6668 27.4226 19.4195 27.1996 19.1839C26.9955 18.9666 26.8467 18.7844 26.7067 18.64C26.5669 18.497 26.4377 18.344 26.3203 18.1821Z" fill="#E0E0E0"/>
  <path d="M9.11719 36.8161C9.16415 36.7454 9.21682 36.6786 9.27467 36.6164C9.3855 36.4924 9.53424 36.3014 9.75588 36.0768C10.3695 35.4314 11.0369 34.8391 11.7507 34.3066C14.1251 32.5555 16.9213 31.4652 19.8544 31.1468C22.7874 30.8284 25.7524 31.2932 28.4473 32.494C29.2587 32.8621 30.0361 33.3013 30.7702 33.8064C31.0385 33.977 31.2252 34.1345 31.3535 34.2322C31.4233 34.2803 31.4886 34.3345 31.5489 34.394C31.4728 34.3567 31.4001 34.3128 31.3316 34.2628C31.1858 34.1782 30.9962 34.0295 30.7279 33.8676C27.5021 31.8118 23.6769 30.905 19.8715 31.2939C18.284 31.4678 16.7297 31.8691 15.2563 32.4852C13.2295 33.3371 11.3844 34.5686 9.82004 36.1133C9.58965 36.3306 9.43362 36.5128 9.31404 36.628C9.25622 36.6984 9.19013 36.7616 9.11719 36.8161Z" fill="#E0E0E0"/>
  <path d="M112.879 60.9584C113.477 57.2542 110.959 53.7667 107.255 53.1687C103.551 52.5708 100.063 55.0888 99.4655 58.793C98.8676 62.4972 101.386 65.9847 105.09 66.5827C108.794 67.1806 112.282 64.6626 112.879 60.9584Z" fill="#EBEBEB"/>
  <path d="M105.209 75.0712C105.113 73.2035 105.113 71.3321 105.209 69.4644C105.306 71.3321 105.306 73.2035 105.209 75.0712Z" fill="#E0E0E0"/>
  <path d="M101.295 67.8755C101.329 67.8974 100.692 69.0669 99.8707 70.4915C99.0497 71.9162 98.3512 73.0434 98.3177 73.0434C98.2841 73.0434 98.9214 71.852 99.7467 70.4274C100.572 69.0027 101.262 67.8755 101.295 67.8755Z" fill="#E0E0E0"/>
  <path d="M97.2855 65.3862C96.7852 65.8697 96.2553 66.3217 95.6989 66.7395C95.1675 67.1889 94.6079 67.6039 94.0234 67.9818C94.5188 67.493 95.0491 67.0407 95.61 66.6286C96.1382 66.1752 96.6982 65.76 97.2855 65.3862Z" fill="#E0E0E0"/>
  <path d="M111.983 72.3102C111.905 72.0856 111.845 71.8549 111.805 71.6205C111.707 71.1947 111.572 70.5998 111.379 69.9567C111.187 69.3136 111.031 68.7318 110.898 68.3104C110.817 68.0872 110.753 67.8581 110.707 67.625C110.828 67.8318 110.926 68.0513 110.999 68.2797C111.152 68.7055 111.343 69.2713 111.518 69.9173C111.693 70.5633 111.82 71.1641 111.893 71.5972C111.952 71.8302 111.983 72.0697 111.983 72.3102Z" fill="#E0E0E0"/>
  <path d="M118.884 67.4199C118.184 66.9055 117.513 66.3514 116.876 65.7605C116.205 65.2051 115.565 64.6142 114.957 63.9902C115.659 64.5063 116.331 65.0618 116.969 65.654C117.639 66.2079 118.278 66.7974 118.884 67.4199Z" fill="#E0E0E0"/>
  <path d="M121.524 60.701C121.25 60.6795 120.977 60.6396 120.708 60.5815C120.202 60.4969 119.508 60.3904 118.733 60.3C117.959 60.2096 117.258 60.1542 116.747 60.125C116.471 60.1204 116.195 60.0975 115.922 60.0565C116.197 60.0162 116.475 60.005 116.752 60.023C117.42 60.0323 118.087 60.0775 118.751 60.1586C119.529 60.2475 120.222 60.3715 120.725 60.4779C120.999 60.5222 121.267 60.597 121.524 60.701Z" fill="#E0E0E0"/>
  <path d="M121.531 54.0999C121.531 54.1378 120.073 54.5257 118.247 54.9748C116.422 55.4239 114.937 55.7491 114.93 55.7039C114.922 55.6587 116.388 55.2781 118.214 54.8538C120.039 54.4295 121.522 54.0547 121.531 54.0999Z" fill="#E0E0E0"/>
  <path d="M113.853 46.3896C113.886 46.4115 113.185 47.5343 112.284 48.8949C111.761 49.7349 111.193 50.5459 110.582 51.3242C111.062 50.4619 111.587 49.6256 112.155 48.819C112.68 47.9811 113.246 47.1703 113.853 46.3896Z" fill="#E0E0E0"/>
  <path d="M106.23 44.7827C106.252 45.0929 106.252 45.4043 106.23 45.7145V47.9602C106.23 48.8351 106.23 49.6313 106.252 50.2102C106.272 50.5204 106.272 50.8317 106.252 51.142C106.192 50.8363 106.161 50.5259 106.158 50.2146C106.12 49.6313 106.09 48.8409 106.09 47.9602C106.09 47.0794 106.115 46.2847 106.15 45.7101C106.148 45.3992 106.174 45.0887 106.23 44.7827Z" fill="#E0E0E0"/>
  <path d="M100.456 51.9674C100.422 51.9674 99.7075 50.8781 98.8603 49.4884C98.0131 48.0987 97.3452 46.9569 97.3802 46.9365C97.9564 47.7352 98.4918 48.5626 98.9842 49.4155C99.83 50.8066 100.489 51.9455 100.456 51.9674Z" fill="#E0E0E0"/>
  <path d="M97.012 54.898C96.7656 54.8855 96.5212 54.8469 96.2829 54.7828C95.8571 54.6895 95.2359 54.5407 94.5812 54.357C94.0151 54.1979 93.4574 54.0105 92.9101 53.7956C92.6778 53.7222 92.4539 53.6244 92.2422 53.5039C92.4817 53.5484 92.7166 53.6153 92.9436 53.7037C93.3694 53.8393 93.9643 54.0318 94.6234 54.2228C95.2826 54.4138 95.8994 54.5801 96.3252 54.6997C96.56 54.7433 96.7901 54.8097 97.012 54.898Z" fill="#E0E0E0"/>
  <path d="M95.5056 60.1172C94.7892 60.2582 94.0644 60.3522 93.3358 60.3986C92.6106 60.4937 91.8798 60.539 91.1484 60.5342C91.8652 60.3963 92.5899 60.3038 93.3182 60.2571C94.0433 60.16 94.774 60.1113 95.5056 60.1113V60.1172Z" fill="#E0E0E0"/>
  <path d="M196.815 145.454C196.815 145.513 153.994 145.564 101.181 145.564C48.3673 145.564 5.53516 145.513 5.53516 145.454C5.53516 145.394 48.3512 145.343 101.181 145.343C154.01 145.343 196.815 145.389 196.815 145.454Z" fill="white"/>
  <path d="M198.893 139.25H195.205L184.706 139.275L146.7 139.339V139.157H153.507V139.339H148.549V139.144H150.65V139.339H148.609V139.14H162.523V139.339H38.5721L12.7034 139.297H5.67188L12.7034 139.208L38.559 139.175L123.876 139.141H162.519V139.341H148.616V139.141H150.658V139.341H148.556V139.145H153.514V139.341H146.707V139.159L184.717 139.197L195.216 139.221H197.965L198.893 139.25Z" fill="white"/>
  <path d="M20.5559 145.45C20.4084 143.397 20.4084 141.336 20.5559 139.282C20.7034 141.336 20.7034 143.397 20.5559 145.45Z" fill="white"/>
  <path d="M44.2161 145.45C44.0686 143.397 44.0686 141.336 44.2161 139.282C44.3635 141.336 44.3635 143.397 44.2161 145.45Z" fill="white"/>
  <path d="M67.8684 145.45C67.7209 143.397 67.7209 141.336 67.8684 139.282C68.0159 141.336 68.0159 143.397 67.8684 145.45Z" fill="white"/>
  <path d="M91.5169 145.45C91.3694 143.397 91.3694 141.336 91.5169 139.282C91.6643 141.336 91.6643 143.397 91.5169 145.45Z" fill="white"/>
  <path d="M115.177 145.45C115.024 143.397 115.024 141.335 115.177 139.282C115.325 141.336 115.325 143.397 115.177 145.45Z" fill="white"/>
  <path d="M138.821 145.45C138.674 143.397 138.674 141.336 138.821 139.282C138.969 141.336 138.969 143.397 138.821 145.45Z" fill="white"/>
  <path d="M162.478 145.45C162.33 143.397 162.33 141.336 162.478 139.282C162.625 141.336 162.625 143.397 162.478 145.45Z" fill="white"/>
  <path d="M186.126 145.45C185.979 143.397 185.979 141.336 186.126 139.282C186.274 141.336 186.274 143.397 186.126 145.45Z" fill="white"/>
  <path d="M176.057 161.095C176.057 161.159 169.058 161.206 160.437 161.206C151.816 161.206 144.816 161.159 144.816 161.095C144.816 161.031 151.816 160.984 160.437 160.984C169.058 160.984 176.057 161.035 176.057 161.095Z" fill="white"/>
  <path d="M169.303 166.176C169.303 166.24 163.092 166.287 155.431 166.287C147.77 166.287 141.555 166.24 141.555 166.176C141.555 166.112 147.765 166.065 155.431 166.065C163.097 166.065 169.303 166.138 169.303 166.176Z" fill="white"/>
  <path d="M169.3 171.701C167.123 171.849 164.939 171.849 162.762 171.701C164.939 171.554 167.123 171.554 169.3 171.701Z" fill="white"/>
  <path d="M93.5323 168.529C93.5323 168.589 87.8453 168.64 80.8211 168.64C73.7969 168.64 68.1055 168.589 68.1055 168.529C68.1055 168.469 73.7925 168.418 80.8211 168.418C87.8497 168.418 93.5323 168.469 93.5323 168.529Z" fill="white"/>
  <path d="M48.6812 171.702C48.6812 171.766 42.9855 171.812 35.9656 171.812C28.9458 171.812 23.25 171.766 23.25 171.702C23.25 171.637 28.937 171.591 35.9656 171.591C42.9942 171.591 48.6812 171.642 48.6812 171.702Z" fill="white"/>
  <path d="M44.4006 162.502C44.4006 162.566 36.7436 162.613 27.3002 162.613C17.8568 162.613 10.1953 162.566 10.1953 162.502C10.1953 162.438 17.8524 162.391 27.3002 162.391C36.7479 162.391 44.4006 162.442 44.4006 162.502Z" fill="white"/>
  <path d="M113.417 162.502C113.417 162.566 99.5406 162.613 82.4314 162.613C65.3221 162.613 51.4414 162.566 51.4414 162.502C51.4414 162.438 65.3134 162.391 82.4314 162.391C99.5493 162.391 113.417 162.442 113.417 162.502Z" fill="white"/>
  <path d="M125.864 125.697C126.174 125.845 126.451 126.054 126.678 126.311C126.905 126.568 127.078 126.869 127.187 127.195C127.398 127.849 127.458 128.543 127.362 129.225C127.124 130.583 126.538 131.857 125.66 132.921C124.767 131.963 124.254 130.712 124.218 129.402C124.098 128.033 124.715 125.493 125.864 125.697Z" fill="white"/>
  <path d="M126.934 135.086C126.858 134.711 126.882 134.321 127.006 133.958C127.129 133.595 127.346 133.271 127.635 133.019C127.928 132.772 128.267 132.585 128.632 132.471C128.997 132.356 129.382 132.315 129.763 132.351C129.941 132.348 130.117 132.385 130.279 132.458C130.441 132.532 130.584 132.641 130.699 132.777C130.784 132.92 130.828 133.083 130.828 133.249C130.828 133.415 130.784 133.579 130.699 133.722C130.53 134.006 130.29 134.242 130.002 134.407C129.569 134.74 129.068 134.974 128.534 135.093C128 135.211 127.447 135.211 126.914 135.092" fill="white"/>
  <path d="M125.512 139.126C125.519 139.035 125.533 138.945 125.554 138.857C125.588 138.666 125.634 138.431 125.685 138.128C125.809 137.314 126.065 136.526 126.442 135.795C126.832 135.062 127.41 134.447 128.118 134.013C128.332 133.883 128.562 133.782 128.803 133.711C128.867 133.69 128.932 133.673 128.998 133.66H129.067C128.517 133.835 128.007 134.119 127.569 134.495C127.13 134.87 126.772 135.331 126.515 135.847C126.147 136.572 125.887 137.348 125.745 138.149C125.676 138.455 125.621 138.701 125.579 138.878C125.566 138.963 125.544 139.046 125.512 139.126Z" fill="white"/>
  <path d="M125.558 127.673C125.564 127.713 125.564 127.753 125.558 127.793L125.58 128.133C125.58 128.424 125.614 128.862 125.631 129.384C125.665 130.44 125.691 131.898 125.687 133.506C125.682 135.115 125.64 136.577 125.598 137.633C125.576 138.161 125.555 138.585 125.534 138.88C125.539 138.993 125.531 139.107 125.512 139.219C125.516 139.259 125.516 139.299 125.512 139.339V138.88C125.512 138.573 125.534 138.151 125.545 137.629C125.572 136.574 125.596 135.119 125.605 133.506C125.614 131.893 125.605 130.444 125.579 129.384C125.579 128.865 125.579 128.439 125.557 128.133L125.558 127.793C125.556 127.753 125.555 127.713 125.558 127.673Z" fill="white"/>
  <path d="M125.015 135.895C124.88 135.098 124.558 134.343 124.074 133.695C123.59 133.046 122.959 132.522 122.233 132.165C122.062 132.052 121.863 131.989 121.658 131.986C121.453 131.982 121.251 132.036 121.076 132.143C120.95 132.307 120.874 132.503 120.859 132.709C120.843 132.915 120.888 133.121 120.988 133.301C121.313 134.097 121.867 134.778 122.58 135.258C123.292 135.739 124.131 135.998 124.99 136.002" fill="white"/>
  <path d="M122.418 133.415C122.501 133.441 122.58 133.475 122.656 133.517C122.746 133.561 122.834 133.61 122.92 133.663C123.037 133.726 123.15 133.796 123.26 133.871C123.379 133.96 123.515 134.049 123.647 134.163C123.796 134.28 123.938 134.406 124.073 134.538C124.371 134.844 124.634 135.182 124.856 135.545C125.071 135.914 125.244 136.305 125.371 136.712C125.422 136.899 125.473 137.078 125.502 137.253C125.533 137.412 125.554 137.573 125.566 137.734C125.588 137.88 125.566 138.016 125.588 138.134C125.595 138.234 125.595 138.335 125.588 138.436C125.587 138.521 125.579 138.607 125.562 138.691C125.54 138.691 125.562 138.325 125.511 137.742C125.497 137.582 125.471 137.425 125.435 137.269C125.4 137.089 125.355 136.912 125.3 136.737C125.171 136.337 124.999 135.953 124.785 135.592C124.568 135.235 124.313 134.902 124.024 134.601C123.897 134.467 123.764 134.341 123.624 134.221C123.503 134.117 123.377 134.02 123.245 133.93C122.74 133.586 122.409 133.437 122.418 133.415Z" fill="white"/>
  <path d="M78.3799 51.4307L71.8282 53.1324L61.6659 54.1444L56.4805 62.134C57.7788 65.6323 58.8026 69.2265 59.5427 72.8839C60.002 76.4915 61.2445 92.8264 61.2445 92.8264L82.4542 91.1247L82.5563 76.4492L83.6659 56.9369L78.3799 51.4307Z" fill="#A26760"/>
  <path d="M68.1251 67.2404C67.8964 66.3901 67.7413 65.5217 67.6614 64.6448C67.495 63.7804 67.4279 62.8997 67.4616 62.02C67.536 62.2685 67.5872 62.5233 67.6147 62.7812C67.692 63.2493 67.7853 63.8997 67.883 64.6229C68.0372 65.4895 68.1182 66.3676 68.1251 67.2477V67.2404Z" fill="#7B4B45"/>
  <path d="M74.4737 69.149C74.4401 69.0892 75.2305 68.6095 76.0981 67.8731C76.9658 67.1367 77.5826 66.4571 77.6336 66.4994C77.2704 67.0979 76.7968 67.6219 76.2381 68.0437C75.7267 68.5224 75.1276 68.8978 74.4737 69.149Z" fill="#7B4B45"/>
  <path d="M59.2227 69.7041C59.8466 69.9432 60.4524 70.2273 61.0352 70.5542C61.6507 70.8147 62.2476 71.1173 62.8215 71.4598C62.1619 71.3197 61.5268 71.0818 60.9375 70.754C60.3177 70.4895 59.74 70.1358 59.2227 69.7041Z" fill="#7B4B45"/>
  <path d="M70.2231 85.9553C70.1633 85.9553 70.1036 85.6272 70.0948 85.2262C70.0861 84.8252 70.1327 84.4971 70.1925 84.4971C70.2523 84.4971 70.3121 84.8208 70.3208 85.2262C70.3296 85.6316 70.2829 85.9553 70.2231 85.9553Z" fill="#7B4B45"/>
  <path d="M73.3277 46.25C73.8474 44.7095 74.2319 43.1267 74.4768 41.5196C74.7235 39.9048 74.5642 38.254 74.0131 36.7162C73.9242 36.4858 73.163 34.9503 72.9194 34.9809C72.7445 34.9809 73.2213 36.4391 73.1323 36.585C72.3506 38.0952 72.0494 39.8084 72.2691 41.4948C72.4422 43.1196 72.7948 44.7203 73.3204 46.2675" fill="#252525"/>
  <path d="M69.173 59.9125C70.3834 59.868 71.5281 59.3508 72.3616 58.4718C73.195 57.5929 73.6506 56.4223 73.6307 55.2112L73.3887 40.0458C73.4528 35.97 71.1343 32.5374 67.0586 32.5885L66.6838 32.6147C64.8584 32.7417 63.1477 33.5513 61.8921 34.8823C60.6365 36.2133 59.928 37.9682 59.9075 39.7979C59.8739 43.3326 59.8783 47.2348 60.0358 49.1188C60.1383 50.2098 60.6201 51.2304 61.3972 52.0031C62.1744 52.7757 63.1978 53.2514 64.2894 53.3476C64.2894 53.3476 64.1436 55.9549 64.1654 57.1039C64.2384 59.6821 66.5861 60.0014 69.1598 59.9037L69.173 59.9125Z" fill="#A26760"/>
  <path d="M64.3008 53.3529C66.1078 53.2237 67.8398 52.5784 69.2908 51.4937C68.8674 52.4282 68.1608 53.2059 67.271 53.7167C66.3813 54.2275 65.3534 54.4456 64.3329 54.3401L64.3008 53.3529Z" fill="#7B4B45"/>
  <path d="M61.6562 43.345C61.6649 43.4915 61.731 43.6287 61.8402 43.7267C61.9495 43.8247 62.0929 43.8757 62.2395 43.8685C62.3106 43.8697 62.3811 43.8565 62.447 43.8298C62.5128 43.8031 62.5726 43.7633 62.6227 43.713C62.6728 43.6626 62.7122 43.6026 62.7386 43.5366C62.765 43.4706 62.7777 43.4 62.7761 43.329C62.7686 43.1833 62.7042 43.0463 62.5967 42.9476C62.4893 42.8489 62.3474 42.7963 62.2016 42.8011C62.1304 42.8011 62.0599 42.8152 61.9941 42.8426C61.9284 42.87 61.8687 42.9101 61.8185 42.9607C61.7684 43.0112 61.7287 43.0712 61.7019 43.1372C61.675 43.2031 61.6615 43.2738 61.6621 43.345H61.6562Z" fill="#252525"/>
  <path d="M60.8558 41.3663C60.9287 41.4348 61.3283 41.0936 61.9276 41.0513C62.5269 41.009 62.9863 41.2817 63.0504 41.2044C63.1146 41.1271 62.9994 41.0426 62.7953 40.9128C62.5238 40.7515 62.2088 40.6786 61.8941 40.7042C61.5816 40.7233 61.2835 40.8424 61.0439 41.044C60.8719 41.2 60.8165 41.3357 60.8558 41.3663Z" fill="#252525"/>
  <path d="M67.043 42.804C67.0516 42.9505 67.1177 43.0877 67.227 43.1857C67.3362 43.2837 67.4797 43.3347 67.6262 43.3275C67.6975 43.3281 67.7682 43.3144 67.834 43.2872C67.8999 43.2599 67.9596 43.2198 68.0096 43.1691C68.0597 43.1183 68.099 43.0581 68.1254 42.9919C68.1517 42.9256 68.1644 42.8548 68.1629 42.7836C68.1542 42.6387 68.0893 42.5028 67.982 42.4051C67.8747 42.3073 67.7334 42.2553 67.5883 42.2601C67.5168 42.2591 67.4459 42.2725 67.3797 42.2995C67.3135 42.3266 67.2534 42.3667 67.203 42.4174C67.1527 42.4682 67.1131 42.5286 67.0866 42.595C67.0601 42.6614 67.0472 42.7325 67.0488 42.804H67.043Z" fill="#252525"/>
  <path d="M66.739 41.1976C66.8162 41.2661 67.2158 40.9249 67.8151 40.8826C68.4145 40.8403 68.8738 41.113 68.9336 41.0284C68.9934 40.9438 68.8825 40.8709 68.6828 40.7368C68.4116 40.5747 68.0964 40.5018 67.7816 40.5282C67.4691 40.5473 67.171 40.6664 66.9314 40.868C66.7579 41.0313 66.7083 41.1684 66.739 41.1976Z" fill="#252525"/>
  <path d="M64.9193 45.9504C64.5959 45.8741 64.2643 45.8383 63.9321 45.8439C63.7789 45.8439 63.6302 45.8177 63.5996 45.7156C63.5743 45.5591 63.5983 45.3986 63.6681 45.2562C63.7877 44.8727 63.9102 44.4776 64.0385 44.0561C64.3759 43.0361 64.6444 41.9945 64.842 40.9385C64.4215 41.9283 64.0702 42.9462 63.7906 43.9847C63.6667 44.4105 63.5486 44.8057 63.4377 45.1892C63.3538 45.381 63.3404 45.5964 63.3998 45.7972C63.4262 45.8493 63.4641 45.8948 63.5105 45.9301C63.557 45.9655 63.6109 45.9899 63.6681 46.0014C63.7556 46.0151 63.8446 46.0151 63.9321 46.0014C64.262 46.0271 64.5938 46.01 64.9193 45.9504Z" fill="#252525"/>
  <path d="M66.713 46.2478C66.6153 46.2478 66.662 46.8982 66.1385 47.4012C65.615 47.9043 64.9136 47.8781 64.918 47.9714C64.9224 48.0647 65.0798 48.0866 65.3729 48.0735C65.7524 48.0549 66.1135 47.9043 66.3937 47.6477C66.6532 47.3918 66.8055 47.0466 66.8195 46.6824C66.8443 46.398 66.7422 46.2405 66.713 46.2478Z" fill="#252525"/>
  <path d="M66.5163 39.1304C66.5892 39.2879 67.1798 39.1683 67.8899 39.2077C68.6001 39.2471 69.1659 39.3944 69.2636 39.2413C69.3015 39.1683 69.1907 39.0196 68.953 38.8796C68.6349 38.7015 68.279 38.6016 67.9147 38.588C67.5526 38.5729 67.1919 38.6413 66.8604 38.7878C66.6096 38.9175 66.4857 39.0546 66.5163 39.1304Z" fill="#252525"/>
  <path d="M60.9339 39.1481C61.0491 39.2765 61.453 39.1058 61.9459 39.0636C62.4388 39.0213 62.869 39.0898 62.9579 38.9396C62.9914 38.8667 62.92 38.7355 62.7246 38.6203C62.4658 38.4767 62.1683 38.4185 61.8745 38.454C61.5831 38.4829 61.3072 38.5987 61.0826 38.7865C60.9295 38.9454 60.8829 39.0825 60.9339 39.1481Z" fill="#252525"/>
  <path d="M73.2695 42.9596C73.3337 42.9304 75.8943 41.9811 75.9964 44.6613C76.0358 44.9956 75.9906 45.3344 75.8649 45.6467C75.7393 45.959 75.5372 46.2347 75.2772 46.4485C75.0172 46.6624 74.7077 46.8075 74.377 46.8705C74.0463 46.9335 73.7051 46.9125 73.3847 46.8092C73.376 46.732 73.2695 42.9596 73.2695 42.9596Z" fill="#A26760"/>
  <path d="M74.17 45.7561C74.2111 45.7807 74.254 45.8022 74.2983 45.8203C74.4102 45.8647 74.5349 45.8647 74.6468 45.8203C74.8147 45.7037 74.9488 45.5447 75.0354 45.3596C75.1219 45.1744 75.1579 44.9696 75.1397 44.766C75.1364 44.5374 75.0826 44.3123 74.9822 44.1069C74.9535 44.025 74.9057 43.9511 74.8428 43.8912C74.78 43.8314 74.7038 43.7874 74.6206 43.7627C74.5664 43.7489 74.5091 43.755 74.459 43.7799C74.409 43.8048 74.3696 43.8468 74.3479 43.8983C74.3187 43.9742 74.3479 44.0296 74.3217 44.034C74.2954 44.0383 74.2619 43.9917 74.2794 43.8809C74.2914 43.8132 74.3258 43.7516 74.3771 43.7059C74.4494 43.6489 74.5405 43.6213 74.6322 43.6286C74.7428 43.6457 74.847 43.6911 74.9349 43.7604C75.0228 43.8296 75.0913 43.9203 75.1339 44.0237C75.2568 44.2515 75.3224 44.5057 75.3249 44.7645C75.3465 45.0015 75.2979 45.2396 75.1851 45.4491C75.0723 45.6587 74.9003 45.8304 74.6906 45.9428C74.6201 45.9666 74.5451 45.974 74.4713 45.9644C74.3975 45.9548 74.3268 45.9284 74.2648 45.8873C74.1787 45.8188 74.1612 45.7561 74.17 45.7561Z" fill="#7B4B45"/>
  <path d="M61.5038 35.3293C61.078 35.1033 62.3204 33.6655 63.3718 33.1508C65.0811 32.2969 67.0073 31.9754 68.9013 32.2277C69.7726 32.389 70.6008 32.7298 71.3331 33.2287C72.0655 33.7275 72.6859 34.3734 73.1549 35.1252C74.0652 36.7534 74.5262 38.5943 74.4907 40.4593C74.5322 41.0263 74.4188 41.5938 74.1626 42.1013C73.8097 42.6962 73.1156 43.0885 73.1549 43.8832C73.1861 44.1695 73.1103 44.4573 72.9421 44.6911C72.4608 45.2948 71.8236 44.8106 71.5291 44.3163C70.7592 42.4061 70.5125 40.3253 70.8145 38.288C70.9297 37.8375 71.1295 37.4131 71.2403 36.9567C71.3399 36.6809 71.3478 36.3802 71.2626 36.0996C71.1775 35.8189 71.0039 35.5733 70.7679 35.3993C70.3804 35.0874 69.9172 34.8836 69.4254 34.8088C68.9336 34.734 68.4308 34.7909 67.9681 34.9735C66.4749 35.5568 63.9609 36.4026 63.2887 35.9184C62.8381 35.5947 62.5144 35.357 62.2971 35.1893C62.1934 35.1094 62.0631 35.072 61.9328 35.0848C61.8025 35.0975 61.682 35.1594 61.5957 35.2579L61.5038 35.3293Z" fill="#252525"/>
  <path d="M64.3858 58.2885C64.255 57.4888 64.2109 56.6772 64.2546 55.8679C64.2237 55.0599 64.2534 54.2508 64.3436 53.4473C64.4747 54.247 64.5187 55.0587 64.4748 55.8679C64.5054 56.6759 64.4757 57.485 64.3858 58.2885Z" fill="#7B4B45"/>
  <path d="M73.5381 58.0914C73.4783 58.0914 73.4112 55.5687 73.3849 52.4597C73.3587 49.3508 73.3849 46.8281 73.4579 46.8281C73.5308 46.8281 73.5862 49.3465 73.6037 52.4597C73.6212 55.573 73.6066 58.0914 73.5381 58.0914Z" fill="#7B4B45"/>
  <path d="M98.2196 116.515C97.4905 114.533 92.8388 105.097 92.6172 104.849L83.7046 106.644L83.0586 112.489L87.9888 117.257C87.9888 117.257 87.2597 119.92 85.9765 123.765C84.6932 127.61 85.1263 140.04 85.1263 140.04L90.5626 142.321C90.5626 142.321 95.6663 127.963 96.4756 124.85C97.2616 121.926 98.9298 118.492 98.2196 116.515Z" fill="#A26760"/>
  <path d="M92.053 115.305C92.053 115.335 91.8313 115.467 91.547 115.782C91.172 116.185 90.9489 116.705 90.9162 117.254C90.8834 117.803 91.0431 118.347 91.3676 118.791C91.6097 119.139 91.8313 119.297 91.7934 119.327C91.7555 119.358 91.5207 119.234 91.2276 118.901C90.8425 118.442 90.6465 117.854 90.6793 117.255C90.7211 116.658 90.9855 116.098 91.4201 115.686C91.7613 115.37 92.0398 115.284 92.053 115.305Z" fill="#7B4B45"/>
  <path d="M85.0731 138.776C85.4128 139.568 84.6094 142.217 83.2868 144.378C82.266 146.047 84.4985 149.058 84.4985 149.058C84.4985 149.058 85.111 154.465 85.3487 155.162C86.3271 158.14 89.3938 160.266 90.8782 158.71C92.3627 157.154 90.6274 153.752 90.0281 150.482C89.4287 147.213 91.1728 140.618 91.1728 140.618L85.0731 138.776Z" fill="#A26760"/>
  <path d="M87.0414 19.8819L86.4421 36.1657L79.7503 46.7451L75.6367 52.0632L76.8368 61.4949L82.8432 62.1365L83.8508 55.6664C83.8508 55.6664 92.4018 42.0278 92.7036 37.761C93.0055 33.4943 92.0358 19.2417 92.0358 19.2417L87.0414 19.8819Z" fill="#A26760"/>
  <path d="M80.0139 63.7486C79.9394 63.6575 79.879 63.5557 79.8345 63.4468C79.6953 63.1632 79.5745 62.8709 79.4729 62.5718C79.1305 61.5734 78.9536 60.5257 78.9494 59.4702C78.9434 58.4155 79.1073 57.3667 79.435 56.3642C79.5346 56.0617 79.6539 55.766 79.7922 55.4791C79.8338 55.3683 79.8928 55.2649 79.9672 55.1729C80.0007 55.1729 79.801 55.6453 79.5837 56.4065C79.3028 57.4031 79.1595 58.4334 79.1579 59.4687C79.1654 60.5031 79.317 61.5313 79.6085 62.5237C79.8433 63.2805 80.0518 63.7282 80.0139 63.7486Z" fill="#7B4B45"/>
  <path d="M91.663 20.5139C92.1106 19.6317 92.4218 18.6867 92.5861 17.7112C92.4934 15.324 92.2376 12.9459 91.8205 10.5936C91.7272 10.4478 91.106 10.2656 90.9704 10.9684C90.9106 11.3125 90.9704 13.6486 90.9704 13.6486C90.9704 13.6486 90.7662 11.2105 89.6945 11.0967C89.1024 11.0326 88.8443 12.3304 88.8443 12.3304C88.8443 12.3304 88.3631 10.6841 87.8615 10.7103C87.3598 10.7366 86.8145 11.0384 86.9384 11.9862C87.0624 12.9341 86.5899 12.6118 86.5899 12.6118C86.5899 12.6118 86.3347 11.4452 85.4671 11.4C84.8284 11.3621 84.5659 12.5666 84.8415 13.1864C84.8619 13.2643 84.9016 13.3359 84.9569 13.3946C85.0122 13.4532 85.0813 13.4971 85.158 13.522C85.2346 13.547 85.3163 13.5523 85.3956 13.5375C85.4748 13.5227 85.549 13.4882 85.6114 13.4372L86.135 14.2756L86.065 16.53C85.8306 16.553 85.5944 16.5107 85.3826 16.4078C85.1708 16.3048 84.9916 16.1453 84.8649 15.9467C84.5182 15.4392 84.0865 14.9952 83.5889 14.6344C83.3573 14.583 83.1202 14.5615 82.8831 14.5702C82.3392 14.5702 83.0581 15.9438 83.0581 15.9438L85.7558 19.1344L87.4576 21.0622L91.663 20.5139Z" fill="#A26760"/>
  <path d="M90.0168 12.2925C90.0804 12.5521 90.0728 12.8241 89.9949 13.0799C89.9613 13.2279 89.8974 13.3674 89.8073 13.4896C89.7172 13.6118 89.6029 13.7141 89.4714 13.79C89.2997 13.879 89.1004 13.8989 88.9144 13.8455C88.8133 13.816 88.7213 13.7616 88.6469 13.6872C88.5725 13.6127 88.518 13.5207 88.4886 13.4197C88.4535 13.2282 88.465 13.0312 88.5221 12.8451L88.6242 12.3595C88.6852 12.0799 88.7832 11.8097 88.9159 11.5561C89.0074 11.3852 89.139 11.2391 89.2994 11.1303C89.4189 11.053 89.5035 11.0501 89.5035 11.0617C89.3194 11.2216 89.1739 11.421 89.0777 11.645C88.9735 11.8974 88.8953 12.1598 88.8444 12.4281L88.7555 12.9093C88.7105 13.0641 88.7006 13.227 88.7263 13.3861C88.7522 13.4503 88.7914 13.5083 88.8413 13.5562C88.8912 13.6041 88.9507 13.6409 89.0158 13.6642C89.081 13.6875 89.1503 13.6967 89.2193 13.6913C89.2883 13.6858 89.3553 13.6658 89.416 13.6326C89.6417 13.5102 89.8099 13.3037 89.8841 13.058C89.9134 12.8005 89.9577 12.5448 90.0168 12.2925Z" fill="#7B4B45"/>
  <path d="M87.157 10.9365C87.075 11.1667 87.0259 11.4072 87.0112 11.6511C87.0134 11.9212 87.0319 12.191 87.0666 12.4589C87.0434 12.7751 87.0933 13.0925 87.2124 13.3863C87.247 13.4452 87.2953 13.4949 87.3532 13.5312C87.411 13.5675 87.4768 13.5893 87.5449 13.5949C87.6102 13.5901 87.6738 13.5717 87.7316 13.5408C87.7894 13.5099 87.84 13.4672 87.8802 13.4155C88.0257 13.208 88.0989 12.9585 88.0888 12.7053C88.0888 12.2373 88.2083 11.9398 88.2419 11.9573C88.2754 11.9748 88.2083 12.2387 88.2419 12.7053C88.2748 13.0044 88.2009 13.3056 88.0334 13.5555C87.9754 13.6327 87.9012 13.6963 87.8161 13.7419C87.7309 13.7875 87.6369 13.8139 87.5405 13.8194C87.4352 13.8162 87.3324 13.7865 87.2416 13.7329C87.1509 13.6794 87.0751 13.6038 87.0214 13.5132C86.8785 13.1885 86.8227 12.8322 86.8595 12.4793C86.8385 12.2031 86.8385 11.9258 86.8595 11.6496C86.865 11.3829 86.9713 11.1281 87.157 10.9365Z" fill="#7B4B45"/>
  <path d="M86.8367 12.7265C86.8119 12.7265 86.6282 12.4072 86.2199 11.9566C86.1133 11.8339 85.9967 11.7203 85.8714 11.6168C85.8111 11.5612 85.7381 11.5213 85.6588 11.5004C85.5795 11.4796 85.4962 11.4785 85.4164 11.4973L85.2589 11.5396C85.2366 11.5569 85.2165 11.577 85.1992 11.5993C85.1374 11.6775 85.086 11.7633 85.046 11.8545C84.957 12.0535 84.8966 12.2642 84.8667 12.4801C84.8178 12.7638 84.8694 13.0557 85.0125 13.3054C85.0384 13.355 85.0759 13.3975 85.1219 13.4292C85.1679 13.461 85.2209 13.4811 85.2764 13.4877C85.386 13.4909 85.4935 13.4581 85.5827 13.3944L85.5535 13.4367C85.692 13.0746 85.7554 12.6881 85.7401 12.3007C85.7213 12.1596 85.7131 12.0173 85.7153 11.8749C85.7853 12.0078 85.8313 12.1519 85.851 12.3007C85.9071 12.7075 85.8661 13.1217 85.7314 13.5096V13.5344H85.7066C85.5855 13.6302 85.4352 13.6816 85.2808 13.6802C85.194 13.6714 85.1103 13.6426 85.0364 13.596C84.9626 13.5495 84.9005 13.4864 84.855 13.4119C84.68 13.1193 84.6154 12.7739 84.6727 12.4378C84.7029 12.2003 84.7704 11.969 84.8725 11.7525C84.9208 11.6438 84.9836 11.5423 85.0592 11.4506C85.1042 11.389 85.1683 11.3439 85.2414 11.3223L85.3873 11.2887C85.4991 11.2527 85.6195 11.2527 85.7314 11.2887C85.8287 11.3265 85.9193 11.3797 85.9997 11.4462C86.1312 11.562 86.2508 11.6904 86.357 11.8297C86.5881 12.0848 86.7528 12.3928 86.8367 12.7265Z" fill="#7B4B45"/>
  <path d="M85.918 16.7269C86.0773 16.6147 86.267 16.5536 86.4619 16.5519C86.9316 16.4975 87.4067 16.5847 87.8266 16.8021C88.2464 17.0196 88.5918 17.3574 88.8184 17.7724C88.9846 18.0917 89.0138 18.3119 88.989 18.3207C88.878 18.1707 88.7757 18.0144 88.6827 17.8526C88.4355 17.4977 88.1077 17.2064 87.7262 17.0025C87.3386 16.806 86.9094 16.706 86.475 16.7108C86.2901 16.7321 86.1038 16.7375 85.918 16.7269Z" fill="#7B4B45"/>
  <path d="M25.8976 61.111C25.8976 61.111 40.2887 57.9759 43.9138 57.6521C47.5389 57.3284 50.0223 56.2056 53.8515 54.5549C56.0972 53.5852 61.6486 54.1291 61.6486 54.1291L57.2288 62.5867C57.2288 62.5867 46.0238 64.4926 43.297 64.1354L28.6463 64.8966L24.8477 65.0963L25.8976 61.111Z" fill="#A26760"/>
  <path d="M53.9336 59.3657C54.2284 59.519 54.4948 59.7217 54.721 59.965C55.2987 60.5182 55.7995 61.1465 56.2099 61.833C56.6243 62.5162 56.9636 63.2423 57.2219 63.9985C57.346 64.3057 57.4246 64.6295 57.4552 64.9594C57.0435 63.9255 56.5647 62.9196 56.0218 61.9482C55.6137 61.279 55.1404 60.6518 54.6087 60.0759C54.369 59.8536 54.1435 59.6164 53.9336 59.3657Z" fill="#7B4B45"/>
  <path d="M25.8569 61.1234C25.8569 61.1234 24.2062 59.0936 23.3852 58.9113L18.4841 58.4141C18.4841 58.4141 17.9402 58.5759 18.63 59.1971C19.1551 59.5904 19.7952 59.7995 20.4513 59.7921L21.5026 60.3243L20.5198 60.7035L17.1907 60.597C17.1907 60.597 14.8007 60.4658 14.9538 60.8784C15.1069 61.2911 15.75 61.5551 16.7824 61.6076L19.1258 61.7359C19.1258 61.7359 19.5516 61.7825 18.786 61.9954C17.4472 62.0788 16.1045 62.0788 14.7657 61.9954C14.3574 62.0421 13.3571 61.8671 13.2769 62.446C13.1967 63.0249 14.5528 62.9943 14.5528 62.9943L18.7729 63.4201C18.7729 63.4201 16.9997 63.5659 16.6964 63.5951C16.3931 63.6243 15.454 63.5689 14.9188 63.6418C14.3836 63.7147 14.0687 63.9334 14.0337 64.1988C14.0121 64.3197 14.0375 64.4442 14.1047 64.547C14.1719 64.6497 14.2759 64.7229 14.3953 64.7515H18.0656C18.0656 64.7515 19.7674 64.6669 19.8651 64.7223C19.9628 64.7777 19.0528 65.1816 19.0528 65.1816L17.8148 65.361C17.8148 65.361 16.1131 65.361 15.9643 65.7868C15.8156 66.2126 16.1393 66.3016 16.1393 66.3016H19.2497L22.8952 65.7956L25.7067 65.1656L28.6464 64.874C28.5378 63.4545 28.2936 62.0487 27.9173 60.6758L25.8569 61.1234Z" fill="#A26760"/>
  <path d="M23.7704 62.9707C23.5323 62.9481 23.2987 62.8921 23.0763 62.8044C22.8321 62.6982 22.6142 62.5399 22.4376 62.3407C22.2333 62.0981 22.0996 61.804 22.0511 61.4906C22.0109 61.2477 22.0238 60.9989 22.089 60.7615V60.7396C21.7746 60.4725 21.4323 60.2398 21.0683 60.0455L20.7489 59.8924C20.7096 59.8731 20.6679 59.8589 20.625 59.8501C20.625 59.8501 20.7825 59.9347 21.0508 60.0878C21.4027 60.2931 21.7347 60.5309 22.0424 60.7979V60.7557C21.9708 61.0058 21.9549 61.2686 21.9957 61.5256C22.0412 61.8221 22.1632 62.1015 22.3496 62.3365C22.536 62.5715 22.7804 62.7539 23.0588 62.8657C23.2235 62.9354 23.3992 62.9759 23.5779 62.9852H23.7237L23.7704 62.9707Z" fill="#7B4B45"/>
  <path d="M70.2622 127.906C69.3391 124.72 67.6637 119.74 67.6637 119.74C67.6637 119.74 70.5436 110.454 70.6034 110.164L63.8227 106.649L58.0628 110.903C57.6118 114.804 57.563 118.741 57.9169 122.652C58.5717 127.766 67.8241 140.944 67.8241 140.944L73.2515 139.77C73.2515 139.77 71.1911 131.096 70.2622 127.906Z" fill="#A26760"/>
  <path d="M64.4975 122.176C64.4683 122.176 64.617 121.903 64.7614 121.462C64.9551 120.893 65.0174 120.288 64.9437 119.692C64.87 119.096 64.662 118.524 64.3356 118.02C64.0848 117.629 63.8763 117.421 63.9098 117.395C63.9433 117.368 64.1737 117.54 64.4712 117.931C64.8529 118.437 65.0961 119.034 65.1766 119.663C65.2572 120.292 65.1724 120.931 64.9306 121.517C64.8438 121.77 64.6949 121.996 64.4975 122.176Z" fill="#7B4B45"/>
  <path d="M72.3377 135.99C72.3377 135.99 73.4182 140.419 73.6501 142.218C73.8819 144.018 71.2673 153.869 70.3997 154.593C69.5321 155.316 68.504 154.83 67.4833 153.656C66.4625 152.483 64.8293 151.985 65.2245 150.976C65.6197 149.967 68.5682 143.119 68.5682 143.119L65.9813 137.777L72.3377 135.99Z" fill="#A26760"/>
  <path d="M68.3281 142.74C68.9332 143.25 69.5746 143.715 70.2471 144.131C70.9543 144.485 71.6852 144.789 72.4345 145.041C71.628 144.963 70.8465 144.718 70.1396 144.322C69.4327 143.926 68.8159 143.387 68.3281 142.74Z" fill="#7B4B45"/>
  <path d="M61.1048 93.457L61.1545 93.4672L61.1548 93.4582L61.196 91.7376L82.7024 90.1665L82.8994 91.4334L82.9013 91.4455L82.9086 91.4554L94.2975 106.846C94.2568 106.852 94.2016 106.861 94.1333 106.872C93.9749 106.898 93.7462 106.938 93.4646 106.991C92.9012 107.097 92.1257 107.259 91.277 107.48C89.5824 107.921 87.5865 108.602 86.4099 109.558C84.859 110.788 83.4824 112.223 82.3178 113.823L74.8932 106.125L74.846 106.076L74.8134 106.135L69.7976 115.276C66.1291 113.026 61.0104 111.303 56.089 113.478L56.0934 113.461L56.1772 113.125C56.2499 112.835 56.3551 112.415 56.4849 111.899C56.7445 110.867 57.1027 109.45 57.4968 107.911C58.285 104.832 59.2166 101.264 59.7908 99.3039C60.0677 98.3622 60.4085 96.9025 60.6799 95.6794C60.8156 95.0675 60.9341 94.5145 61.0186 94.1144C61.0609 93.9143 61.0947 93.7525 61.1179 93.6407L61.1445 93.5119L61.1514 93.4784L61.1532 93.4699L61.1536 93.4677L61.1537 93.4672L61.1538 93.467L61.1048 93.457Z" fill="#8B58CD" stroke="black" stroke-width="0.1"/>
  <path d="M75.8008 104.491C75.9719 104.098 76.1815 103.724 76.4264 103.372C76.9647 102.482 77.6123 101.663 78.3541 100.934C79.1081 100.202 80.032 99.6683 81.0431 99.3811C81.3488 99.3005 81.6631 99.2564 81.9792 99.2499C82.096 99.237 82.2142 99.2459 82.3277 99.2761C81.9095 99.3414 81.4948 99.428 81.0853 99.5357C80.1189 99.8545 79.2374 100.388 78.5072 101.097C77.7798 101.817 77.1271 102.608 76.5591 103.458C76.333 103.821 76.0795 104.166 75.8008 104.491Z" fill="white"/>
  <path d="M77.9444 97.9341C77.8104 98.3422 77.6512 98.7415 77.4676 99.1298C77.157 99.8589 76.7385 100.88 76.3112 102.005C75.884 103.131 75.5194 104.171 75.2773 104.922C75.1581 105.335 75.016 105.741 74.8516 106.138C74.8905 105.704 74.9791 105.276 75.1155 104.862C75.324 104.096 75.6638 103.045 76.0983 101.909C76.5329 100.773 76.9485 99.7816 77.3145 99.0511C77.4843 98.6575 77.6955 98.2831 77.9444 97.9341Z" fill="white"/>
  <path d="M66.125 100.309C66.249 100.287 66.3757 100.287 66.4997 100.309C66.8394 100.319 67.1778 100.356 67.5117 100.419C68.6198 100.622 69.6839 101.016 70.6557 101.586C71.6298 102.157 72.494 102.898 73.2075 103.773C73.4235 104.041 73.6184 104.325 73.7908 104.623C73.8656 104.724 73.9233 104.836 73.9614 104.956C73.9279 104.978 73.6464 104.53 73.0865 103.893C71.6207 102.223 69.6615 101.064 67.4928 100.583C66.6529 100.377 66.125 100.348 66.125 100.309Z" fill="white"/>
  <path d="M69.1175 98.0195C69.2473 98.046 69.3732 98.0887 69.4923 98.1464C69.8257 98.2838 70.1471 98.4487 70.4533 98.6393C70.9077 98.9162 71.3349 99.2355 71.7292 99.593C72.2155 100.036 72.6584 100.524 73.0518 101.051C73.4339 101.585 73.7631 102.155 74.0346 102.753C74.2528 103.242 74.4252 103.75 74.5494 104.271C74.6361 104.62 74.6946 104.975 74.7244 105.334C74.7445 105.466 74.7445 105.601 74.7244 105.733C74.6865 105.733 74.6354 105.176 74.3919 104.309C74.2508 103.804 74.0674 103.312 73.8436 102.837C73.5688 102.257 73.2428 101.701 72.8695 101.178C72.4857 100.663 72.0589 100.182 71.5936 99.7402C71.2076 99.3843 70.7936 99.0601 70.3556 98.7705C69.6206 98.2747 69.1015 98.0749 69.1175 98.0195Z" fill="white"/>
  <path d="M61.0078 93.3039C61.0796 93.2804 61.1541 93.2662 61.2295 93.2616L61.855 93.1887L64.1882 92.9714C66.1451 92.7935 68.8676 92.5456 71.8452 92.3167C74.8229 92.0877 77.541 91.8617 79.5023 91.7217L81.8253 91.5686L82.4596 91.5394C82.5331 91.5292 82.6077 91.5292 82.6812 91.5394C82.6109 91.5622 82.5378 91.575 82.464 91.5774L81.834 91.6503L79.5155 91.8763C77.5585 92.0557 74.836 92.3021 71.8584 92.5354C68.8807 92.7687 66.1714 92.986 64.2013 93.126L61.8784 93.2835L61.2484 93.3126C61.1682 93.3212 61.0872 93.3182 61.0078 93.3039Z" fill="white"/>
  <path d="M62.233 93.3091C62.2927 93.3091 61.1276 97.7421 59.6344 103.17C58.1412 108.597 56.8784 112.988 56.8186 112.954C56.7588 112.921 57.9239 108.526 59.4171 103.094C60.9104 97.6619 62.1732 93.2916 62.233 93.3091Z" fill="white"/>
  <g opacity="0.3">
    <path d="M74.6301 105.762C74.7547 104.587 74.6185 103.398 74.2313 102.281C73.8441 101.164 73.2154 100.147 72.3899 99.3005C71.5645 98.4543 70.5627 97.8006 69.4557 97.3858C68.3488 96.971 67.164 96.8054 65.9858 96.9007C65.8603 96.8973 65.738 96.9398 65.6417 97.0203C65.6127 97.0631 65.593 97.1115 65.5839 97.1623C65.5748 97.2132 65.5765 97.2654 65.5889 97.3156C65.6012 97.3658 65.624 97.4128 65.6557 97.4536C65.6874 97.4944 65.7273 97.5281 65.7729 97.5525C65.9646 97.6397 66.1758 97.6749 66.3854 97.6546C68.4306 97.6536 70.4049 98.4048 71.9322 99.7651C73.4595 101.125 74.4333 103 74.668 105.032" fill="black"/>
  </g>
  <path d="M119.391 87.2407C122.789 84.7901 126.553 82.8919 130.544 81.6164C136.074 80.1363 157.565 77.2855 157.565 77.2855L165.746 76.1802L171.382 81.9999L168.54 88.9045L123.261 93.8217L119.391 87.2407Z" fill="#8B58CD"/>
  <path opacity="0.3" d="M119.391 87.2407C122.789 84.7901 126.553 82.8919 130.544 81.6164C136.074 80.1363 157.565 77.2855 157.565 77.2855L165.746 76.1802L171.382 81.9999L168.54 88.9045L123.261 93.8217L119.391 87.2407Z" fill="black"/>
  <path d="M119.391 87.2407C122.789 84.7901 126.553 82.8919 130.544 81.6164C136.074 80.1363 157.565 77.2855 157.565 77.2855L165.746 76.1802L171.382 81.9999L168.54 88.9045L123.261 93.8217L119.391 87.2407Z" fill="#8B58CD"/>
  <path opacity="0.3" d="M119.391 87.2407C122.789 84.7901 126.553 82.8919 130.544 81.6164C136.074 80.1363 157.565 77.2855 157.565 77.2855L165.746 76.1802L171.382 81.9999L168.54 88.9045L123.261 93.8217L119.391 87.2407Z" fill="black"/>
  <path d="M164.082 79.4599C164.009 79.5469 163.93 79.6279 163.844 79.702C163.678 79.8551 163.418 80.0724 163.091 80.332C162.131 81.0549 161.084 81.6536 159.974 82.1139C159.209 82.4375 158.423 82.7103 157.622 82.9305C156.702 83.1732 155.77 83.3679 154.831 83.5138C152.849 83.8535 150.662 84.1058 148.374 84.4368C146.086 84.7678 143.881 84.9851 141.877 85.0784C139.874 85.1718 138.048 85.1382 136.548 85.0784C135.047 85.0187 133.808 84.9166 132.962 84.848L131.992 84.7547C131.878 84.751 131.764 84.7353 131.652 84.7081C131.765 84.6987 131.879 84.6987 131.992 84.7081L132.971 84.7591C133.821 84.797 135.038 84.8699 136.552 84.9166C138.066 84.9632 139.869 84.972 141.87 84.8743C143.871 84.7766 146.057 84.5418 148.345 84.2195C152.913 83.5648 157.129 83.2075 159.915 81.9651C161.021 81.5229 162.07 80.9517 163.042 80.2634C163.386 80.0126 163.641 79.8084 163.816 79.6685C163.897 79.5877 163.987 79.5163 164.084 79.4556L164.082 79.4599Z" fill="white"/>
  <path d="M137.811 85.0334C137.765 85.1019 136.842 84.2809 135.493 83.6685C134.661 83.338 133.795 83.1027 132.91 82.9671C133.176 82.9179 133.448 82.9179 133.714 82.9671C134.361 83.0344 134.993 83.2052 135.586 83.4731C136.174 83.7449 136.727 84.0877 137.232 84.4939C137.619 84.7913 137.832 85.013 137.811 85.0334Z" fill="white"/>
  <path d="M156.239 107.363C155.767 105.577 152.576 94.1209 152.576 94.1209L140.129 93.1206C139.843 95.1616 139.886 97.2353 140.257 99.2626C140.917 101.279 147.566 114.79 147.566 114.79L142.563 112.815C141.055 112.323 139.453 112.188 137.884 112.42C135.394 112.386 132.919 112.025 130.524 111.344L128.695 116.274C128.695 116.274 147.171 123.532 151.443 124.246C155.51 124.923 157.301 123.57 157.765 120.903C158.345 117.496 156.716 109.136 156.239 107.363Z" fill="#FFBE9D"/>
  <path d="M158.949 94.5493C158.949 94.5493 167.862 103.755 169.512 106.371C171.72 109.871 170.205 113.212 168.19 113.875C166.175 114.539 145.827 117.916 145.827 117.916L144.66 113.64L157.775 107.157L154.598 104.962L151.552 96.9569L152.581 94.1235L158.949 94.5493Z" fill="#FFBE9D"/>
  <path d="M164.821 111.379C164.686 111.345 164.556 111.293 164.434 111.225C164.192 111.115 163.851 110.944 163.427 110.724C162.577 110.278 161.448 109.626 160.219 108.86C158.989 108.095 157.9 107.358 157.13 106.797C156.742 106.52 156.436 106.282 156.232 106.116C156.117 106.037 156.014 105.942 155.926 105.834C156.365 106.096 156.791 106.379 157.202 106.685C157.989 107.208 159.097 107.918 160.319 108.684C161.541 109.449 162.671 110.122 163.488 110.598C163.946 110.834 164.391 111.094 164.821 111.379Z" fill="#EB996E"/>
  <path d="M149.032 119.469C148.998 119.469 148.886 118.908 148.581 118.023C148.276 117.137 147.824 115.921 147.269 114.619C146.713 113.317 146.188 112.114 145.793 111.265C145.559 110.816 145.351 110.353 145.172 109.878C145.264 109.981 145.341 110.095 145.402 110.218C145.533 110.444 145.717 110.78 145.935 111.197C146.36 112.047 146.926 113.209 147.474 114.536C147.954 115.666 148.373 116.82 148.73 117.995C148.861 118.445 148.943 118.82 148.994 119.08C149.022 119.208 149.035 119.338 149.032 119.469Z" fill="#EB996E"/>
  <path d="M133.996 112.226C132.056 111.987 130.19 111.334 128.525 110.311C128.275 110.111 127.985 109.967 127.675 109.889C127.364 109.811 127.041 109.801 126.726 109.859C126.411 109.917 126.113 110.042 125.851 110.226C125.589 110.41 125.369 110.648 125.208 110.924C125.199 110.945 125.188 110.965 125.174 110.984C124.295 112.7 123.09 114.229 121.626 115.484C120.533 116.267 118.908 118.117 119.074 118.776C119.249 119.559 119.5 119.351 121.991 118.381C124.481 117.411 124.64 116.555 126.5 116.485C128.015 116.519 129.519 116.749 130.975 117.171L133.996 112.226Z" fill="#FFBE9D"/>
  <path d="M153.273 97.854C153.315 97.9166 153.349 97.9836 153.375 98.0538L153.631 98.637C153.852 99.1474 154.145 99.913 154.481 100.832C156.242 105.714 157.334 110.813 157.727 115.988C157.8 116.98 157.838 117.783 157.846 118.336V118.979C157.857 119.053 157.857 119.127 157.846 119.201C157.824 119.129 157.813 119.054 157.813 118.979C157.813 118.809 157.784 118.596 157.766 118.34C157.733 117.788 157.668 116.987 157.575 116.007C157.099 110.857 156.012 105.782 154.338 100.889C154.019 99.948 153.746 99.1868 153.55 98.6721C153.466 98.43 153.393 98.2463 153.333 98.0727C153.302 98.0033 153.282 97.9295 153.273 97.854Z" fill="#EB996E"/>
  <path d="M132.914 111.89C133.11 111.911 133.305 111.943 133.497 111.987C133.872 112.051 134.42 112.123 135.101 112.178C135.782 112.234 136.599 112.294 137.5 112.294C138.484 112.218 139.472 112.21 140.457 112.272C142.243 112.522 143.971 113.085 145.561 113.936L147.019 114.641C147.207 114.713 147.385 114.806 147.552 114.918C147.357 114.869 147.168 114.802 146.986 114.719C146.629 114.573 146.136 114.357 145.493 114.08C143.901 113.284 142.192 112.748 140.431 112.493C139.454 112.429 138.473 112.429 137.496 112.493C136.689 112.483 135.884 112.429 135.084 112.332C134.544 112.275 134.009 112.187 133.48 112.068C133.284 112.036 133.093 111.976 132.914 111.89Z" fill="#EB996E"/>
  <path d="M150.355 61.5298C151.637 61.6879 152.865 62.1369 153.946 62.8422C155.945 64.1823 167.742 73.9713 167.742 73.9713L164.478 77.471L156.983 73.5994L150.355 61.5298Z" fill="#FFBE9D"/>
  <path d="M137.441 63.9709L140.64 62.431L149.777 61.5808L150.428 61.5298C150.428 61.5298 158.353 70.438 157.876 74.0704C157.399 77.7028 156.855 83.0035 156.855 83.0035C151.84 84.0481 146.745 84.673 141.626 84.8714C141.626 84.8714 136.461 73.0162 136.56 72.9214C136.659 72.8266 136.68 65.3066 136.68 65.3066L137.441 63.9709Z" fill="white"/>
  <path d="M137.442 63.9594L136.43 72.8078C136.81 73.7414 137.345 74.6042 138.012 75.3597C138.309 75.7531 138.701 76.0653 139.151 76.2674C139.601 76.4695 140.094 76.555 140.586 76.5161C140.982 76.4404 141.357 76.2775 141.683 76.0392C142.009 75.8009 142.277 75.4931 142.47 75.1381C142.852 74.4224 143.061 73.6265 143.078 72.8151C143.308 68.9334 140.85 63.7013 137.442 63.9594Z" fill="#FFBE9D"/>
  <path d="M139.531 62.9683C141.21 64.1363 142.809 65.4156 144.317 66.7975C145.981 68.5678 150.035 71.5746 152.021 70.8689C154.007 70.1631 152.544 67.006 152.544 67.006L149.774 61.5698L148.924 61.599L140.654 62.4156L139.531 62.9683Z" fill="#FFBE9D"/>
  <path d="M176.021 39.1547C176.021 39.1522 176.021 39.1495 176.022 39.1468C176.023 39.1087 176.025 39.052 176.026 38.979C176.028 38.8328 176.026 38.6208 176.01 38.3593C175.979 37.8359 175.895 37.1151 175.68 36.3254C175.252 34.7455 174.307 32.8982 172.242 31.7949L172.242 31.7948C169.756 30.4597 165.122 30.2426 160.901 31.9688C156.689 33.6915 152.901 37.3453 152.089 43.7408L152.088 43.7429L152.088 43.7432L152.088 43.7452L152.087 43.7542C152.086 43.7624 152.084 43.775 152.082 43.792C152.079 43.826 152.074 43.8776 152.069 43.9469C152.059 44.0855 152.051 44.2946 152.053 44.5743C152.059 45.1335 152.112 45.9748 152.302 47.0977C152.682 49.3435 153.608 52.7164 155.798 57.2122C156.652 58.964 157.467 60.6144 158.232 62.1629C159.939 65.6211 161.396 68.5708 162.484 71.0058C163.272 72.7687 163.869 74.2658 164.23 75.4938C164.589 76.7182 164.719 77.6901 164.554 78.3951C164.389 79.1084 163.811 79.7547 163.064 80.3196C162.314 80.8868 161.376 81.3835 160.463 81.7934C159.548 82.2035 158.655 82.5283 157.99 82.7505C157.657 82.8616 157.382 82.9471 157.189 83.0049C157.093 83.0338 157.017 83.0557 156.966 83.0705L156.907 83.0872L156.891 83.0915L156.888 83.0925L156.887 83.0928L156.886 83.0929C156.886 83.0929 156.886 83.0929 156.885 83.0893L156.886 83.0929L156.874 83.0963L156.874 83.0955L144.023 84.9285L144.02 84.9289L144.02 84.9289C142.643 85.0824 141.257 85.1508 139.872 85.1336L139.87 85.1336L125.872 84.718C125.872 84.718 125.871 84.718 125.871 84.718C124.126 84.6779 122.41 85.1655 120.947 86.1171C119.483 87.0689 118.342 88.4403 117.671 90.0518L117.67 90.0524C117.377 90.7452 117.218 91.4875 117.202 92.2397C117.202 94.0687 117.946 96.4891 120.008 98.5961C122.07 100.703 125.455 102.502 130.747 103.076C136.044 103.65 145.111 103.191 153.836 101.807C158.197 101.116 162.469 100.193 166.139 99.0548C169.81 97.9156 172.87 96.5627 174.812 95.0142C177.047 93.2305 178.798 91.5119 179.734 89.0973C180.669 86.6829 180.793 83.557 179.735 78.949C178.68 74.3522 175.399 69.034 172.225 64.6799C169.559 61.0234 166.976 58.0577 165.863 56.7809C165.652 56.5383 165.494 56.3566 165.398 56.2428M176.021 39.1547L165.475 56.1785M176.021 39.1547L170.589 42.7007M176.021 39.1547L170.554 42.8431L170.638 42.7882C170.622 42.7587 170.606 42.7295 170.589 42.7007M165.398 56.2428L165.475 56.1785M165.398 56.2428C165.398 56.2428 165.398 56.2429 165.398 56.2429L165.475 56.1785M165.398 56.2428C165.145 55.9426 164.757 55.5541 164.293 55.0894C164.094 54.8904 163.881 54.6774 163.659 54.4514C162.922 53.7011 162.089 52.8141 161.349 51.8399C159.873 49.8972 158.744 47.5784 159.523 45.2899C160.3 43.0053 162.655 41.5799 165.009 41.1207C166.188 40.8906 167.376 40.9007 168.378 41.1708C169.341 41.4303 170.141 41.9324 170.589 42.7007M165.475 56.1785C165.219 55.8748 164.826 55.4813 164.36 55.0147C162.168 52.8214 158.362 49.0122 159.617 45.3221C161.125 40.8887 168.734 39.7038 170.505 42.7554L170.589 42.7007" fill="#8B58CD" stroke="black" stroke-width="0.2"/>
  <path d="M158.434 43.01C158.599 42.932 158.78 42.8916 158.963 42.8916C159.146 42.8916 159.327 42.932 159.492 43.01C160.076 43.2141 160.367 43.6487 160.318 43.6779C160.268 43.707 159.938 43.3964 159.419 43.2141C158.9 43.0319 158.442 43.0785 158.434 43.01Z" fill="white"/>
  <path d="M159.973 41.519C160.23 41.7749 160.425 42.087 160.542 42.4308C160.658 42.7747 160.694 43.1409 160.645 43.5007C160.45 42.8307 160.226 42.1695 159.973 41.519Z" fill="white"/>
  <path d="M158.199 45.0307C158.199 44.9709 158.491 44.8644 158.863 44.7974C159.235 44.7303 159.555 44.7201 159.568 44.7974C159.582 44.8747 159.277 44.9636 158.901 45.0307C158.524 45.0978 158.199 45.0905 158.199 45.0307Z" fill="white"/>
  <path d="M165.247 56.2607C164.836 56.5134 164.41 56.7408 163.971 56.9417C163.56 57.209 163.134 57.4525 162.695 57.6709C163.363 56.9268 164.262 56.4299 165.247 56.2607Z" fill="white"/>
  <path d="M166.113 57.2121C166.113 57.2762 165.725 57.3229 165.263 57.476C164.8 57.6291 164.471 57.8158 164.433 57.7676C164.395 57.7195 164.705 57.4279 165.194 57.266C165.482 57.1307 165.811 57.1124 166.113 57.215V57.2121Z" fill="white"/>
  <path d="M169.436 33.499C168.917 33.5262 168.415 33.6937 167.984 33.9838C167.552 34.2739 167.208 34.6756 166.987 35.1461C166.766 35.6167 166.677 36.1383 166.729 36.6555C166.782 37.1726 166.974 37.6659 167.284 38.0826C167.595 38.4993 168.013 38.8239 168.494 39.0216C168.974 39.2194 169.5 39.283 170.014 39.2055C170.528 39.1281 171.011 38.9126 171.412 38.582C171.813 38.2513 172.117 37.8181 172.291 37.3283C172.448 36.9056 172.508 36.4535 172.468 36.0046C172.428 35.5557 172.289 35.1212 172.061 34.7327C171.745 34.3427 171.345 34.03 170.89 33.8185C170.435 33.607 169.938 33.5022 169.436 33.5122" fill="white"/>
  <path d="M170.531 42.8502C170.531 42.8502 171.807 47.7119 172.118 49.0913C172.968 52.6304 170.059 58.0244 171.548 58.9737C173.036 59.923 175.644 57.6088 176.695 55.3529C177.643 53.5992 178.049 51.6038 177.862 49.6192C177.58 47.2861 176.096 39.2178 176.096 39.2178L170.531 42.8502Z" fill="white"/>
  <path d="M172.016 48.6364C173.637 47.4909 175.417 46.588 177.299 45.9562C177.102 43.6789 176.702 41.4238 176.103 39.2178L170.531 42.8487L172.016 48.6364Z" fill="white"/>
  <g opacity="0.3">
    <path d="M130.011 100.857C130.116 100.707 130.183 100.534 130.209 100.353C130.234 100.172 130.216 99.9876 130.157 99.8145C130.189 99.8938 130.237 99.9655 130.298 100.025C130.36 100.084 130.433 100.13 130.513 100.16C130.593 100.189 130.679 100.201 130.764 100.195C130.849 100.189 130.932 100.165 131.007 100.125C131.157 100.026 131.276 99.8869 131.351 99.7239C131.426 99.5609 131.455 99.3803 131.433 99.2021C131.386 98.8469 131.266 98.5054 131.08 98.1988C131.185 98.3672 131.352 98.4876 131.544 98.5337C131.737 98.5799 131.94 98.5481 132.11 98.4453C132.274 98.3334 132.405 98.1798 132.489 98.0003C132.574 97.8209 132.609 97.6221 132.591 97.4245C132.55 97.0284 132.403 96.6508 132.165 96.3309C131.76 95.7964 131.322 95.2879 130.853 94.8085C130.383 94.3297 130.033 93.7466 129.832 93.1068C129.735 92.7841 129.725 92.4413 129.804 92.1138C129.884 91.7862 130.049 91.4857 130.283 91.2432C130.458 91.0857 130.666 90.9705 130.827 90.8174C130.987 90.6642 133.132 90.0985 132.886 89.5968C132.733 89.2819 130.389 89.8885 130.039 89.9366C129.221 90.0566 128.391 90.0767 127.568 89.9964C127.142 89.9585 126.623 89.801 126.56 89.3796C126.549 89.2049 126.584 89.0304 126.662 88.8736C127.18 87.5053 127.319 86.0229 127.066 84.582L124.164 85.7486L125.143 91.9256L126.971 93.8738L128.302 98.2936L130.011 100.857Z" fill="black"/>
  </g>
  <path d="M120.792 96.3726C120.636 95.9426 120.586 95.4815 120.646 95.0282C120.63 94.5709 120.722 94.1163 120.914 93.7012C120.891 94.5923 120.851 95.483 120.794 96.3726H120.792Z" fill="white"/>
  <path d="M120.178 95.9034C119.897 95.4853 119.748 94.9917 119.753 94.4875C119.686 93.9886 119.769 93.4813 119.99 93.0293C120.059 93.0293 119.922 93.6797 119.99 94.4715C120.059 95.2633 120.238 95.883 120.178 95.9034Z" fill="white"/>
  <path d="M171.383 36.1135C171.423 36.3997 171.376 36.6911 171.25 36.9508C171.123 37.2106 170.923 37.4269 170.673 37.5724C170.424 37.7179 170.137 37.786 169.848 37.7681C169.56 37.7502 169.283 37.6471 169.054 37.4718C168.824 37.2965 168.652 37.057 168.559 36.7836C168.465 36.5102 168.455 36.2153 168.53 35.9362C168.604 35.6572 168.76 35.4065 168.977 35.2161C169.195 35.0257 169.464 34.9041 169.75 34.8668C170.132 34.817 170.518 34.9201 170.823 35.1536C171.129 35.3872 171.331 35.7322 171.383 36.1135Z" fill="white"/>
  <path d="M179.987 80.2351C179.963 80.2751 179.934 80.3123 179.902 80.3459L179.634 80.6609C179.387 80.9292 179.05 81.3506 178.566 81.8275C177.215 83.2305 175.737 84.5051 174.151 85.6349C171.795 87.3051 169.269 88.7226 166.616 89.8637C163.368 91.2567 159.991 92.3282 156.534 93.063C150.244 94.3851 143.812 94.9069 137.391 94.616C134.932 94.5096 132.949 94.3244 131.584 94.1698C130.899 94.0969 130.372 94.0167 130.011 93.97L129.585 93.9102C129.539 93.9047 129.493 93.895 129.449 93.881H129.595L130.021 93.919C130.378 93.9525 130.91 94.0211 131.594 94.0808C132.959 94.2165 134.948 94.3725 137.401 94.4556C143.81 94.7035 150.225 94.1648 156.503 92.8516C159.947 92.1169 163.311 91.0544 166.552 89.6785C169.197 88.5485 171.719 87.1501 174.078 85.5051C175.665 84.391 177.151 83.1399 178.52 81.7662C179.021 81.2937 179.37 80.8811 179.618 80.6259L179.909 80.3343C179.949 80.2643 179.982 80.2132 179.987 80.2351Z" fill="white"/>
  <path d="M144.42 94.4842C144.369 94.5104 144.156 94.1648 144.101 93.6807C144.034 93.3918 144.078 93.0884 144.225 92.8306C144.289 92.8306 144.267 93.2141 144.322 93.6559C144.378 94.0978 144.48 94.4579 144.42 94.4842Z" fill="white"/>
  <path d="M145.581 92.7191C145.632 92.757 145.474 93.0588 145.398 93.4598C145.322 93.8608 145.338 94.1889 145.279 94.2079C145.219 94.2269 145.088 93.8638 145.181 93.4117C145.274 92.9597 145.537 92.6855 145.581 92.7191Z" fill="white"/>
  <path d="M162.135 93.8239C162.004 93.4671 161.918 93.0952 161.879 92.7171C161.768 92.3523 161.7 91.9752 161.68 91.5942C162.079 92.2645 162.24 93.0506 162.135 93.8239Z" fill="white"/>
  <path d="M164.037 93.1206C164.016 92.7439 163.964 92.3697 163.879 92.0021C163.729 91.6556 163.553 91.3211 163.352 91.0018C163.373 90.9463 163.879 91.2657 164.092 91.9335C164.173 92.1228 164.21 92.3279 164.201 92.5334C164.191 92.739 164.135 92.9397 164.037 93.1206Z" fill="white"/>
  <path d="M172.45 86.6344C172.381 86.6344 172.326 86.1619 172.024 85.6822C171.722 85.2024 171.338 84.9254 171.378 84.87C171.417 84.8146 171.888 85.0231 172.228 85.567C172.339 85.7186 172.417 85.8924 172.455 86.0766C172.493 86.2608 172.491 86.451 172.45 86.6344Z" fill="white"/>
  <path d="M171.469 83.7046C171.954 83.8716 172.359 84.2165 172.6 84.6699C172.906 85.0816 173.047 85.5929 172.995 86.1033C172.835 85.6516 172.64 85.2129 172.412 84.791C172.127 84.4042 171.812 84.0409 171.469 83.7046Z" fill="white"/>
  <path d="M152.603 41.6857C152.02 41.3109 151.178 41.2132 150.872 40.6183C150.566 40.0233 150.983 39.2826 150.761 38.657C150.404 37.645 148.813 37.6873 148.03 36.9261C147.18 36.0759 147.367 34.3742 146.18 34.0097C145.248 33.737 144.154 34.6352 143.317 34.1759C142.798 33.8945 142.654 33.2106 142.139 32.9C141.869 32.7846 141.573 32.7447 141.282 32.7845C140.992 32.8243 140.717 32.9423 140.488 33.126C140.033 33.4843 139.538 33.7882 139.012 34.0315C137.566 34.5244 135.855 33.3258 134.512 34.0315C133.662 34.4821 133.325 35.5539 132.471 36.0264C131.616 36.4988 130.445 36.2991 129.817 36.9873C128.903 37.9877 130.179 39.5392 129.817 40.7904C129.502 41.9263 127.971 42.5402 127.775 43.6922C127.554 44.9681 129.107 45.9043 129.4 47.1715C129.693 48.4387 128.652 50.0136 129.451 51.1087C130.25 52.2038 132.45 51.8378 133.28 52.981C133.706 53.5643 133.651 54.3853 134.13 54.9379C134.687 55.5971 135.75 55.6146 136.496 56.0826C137.241 56.5507 137.567 57.3848 138.116 58.0352C138.664 58.6856 139.72 59.158 140.412 58.6185L151.26 52.6923C153.714 51.587 152.826 49.0599 153.31 48.0639C153.732 46.9559 153.878 45.7618 153.736 44.5846C153.785 44.0466 153.708 43.5047 153.511 43.0015C153.315 42.4984 153.004 42.0479 152.603 41.6857Z" fill="#252525"/>
  <path d="M151.389 54.2637C151.23 51.7147 150.83 49.1864 150.193 46.7131C149.674 44.45 147.701 41.901 145.463 42.5105L138.656 45.4882C138.324 45.5715 138.036 45.7767 137.85 46.063C137.663 46.3493 137.591 46.6955 137.648 47.0324L140.626 62.4356L149.985 67.5787C149.641 65.4818 148.534 59.1211 148.538 59.1342C149.465 58.7247 150.239 58.0338 150.75 57.1595C151.262 56.2853 151.485 55.2721 151.389 54.2637Z" fill="#FFBE9D"/>
  <path d="M149.547 50.3731C149.568 50.5003 149.539 50.6308 149.467 50.7372C149.394 50.8436 149.282 50.9175 149.156 50.9433C149.095 50.959 149.031 50.9621 148.968 50.9525C148.906 50.9429 148.846 50.9208 148.792 50.8874C148.739 50.854 148.692 50.8101 148.656 50.7583C148.62 50.7065 148.594 50.6479 148.581 50.586C148.56 50.4595 148.588 50.3295 148.66 50.2232C148.732 50.1169 148.842 50.0426 148.968 50.0158C149.03 50 149.094 49.9968 149.157 50.0063C149.22 50.0158 149.281 50.0379 149.335 50.0712C149.389 50.1045 149.436 50.1484 149.474 50.2002C149.511 50.2521 149.537 50.3109 149.551 50.3731H149.547Z" fill="#252525"/>
  <path d="M149.77 48.4265C149.723 48.5038 149.306 48.2909 148.783 48.3755C148.259 48.4601 147.933 48.8013 147.847 48.7371C147.761 48.673 147.847 48.5913 148.004 48.4353C148.205 48.2425 148.459 48.1149 148.733 48.0693C149.006 48.0247 149.286 48.0681 149.532 48.1932C149.722 48.304 149.795 48.393 149.77 48.4265Z" fill="#252525"/>
  <path d="M144.621 51.0391C144.642 51.1663 144.614 51.2968 144.541 51.4032C144.468 51.5096 144.356 51.5835 144.23 51.6093C144.169 51.6244 144.105 51.627 144.043 51.6172C143.981 51.6073 143.921 51.585 143.867 51.5518C143.814 51.5185 143.768 51.4748 143.731 51.4233C143.695 51.3718 143.669 51.3136 143.656 51.252C143.634 51.1255 143.662 50.9954 143.734 50.8892C143.806 50.7829 143.916 50.7086 144.042 50.6818C144.104 50.6661 144.168 50.6628 144.231 50.6723C144.294 50.6818 144.355 50.7039 144.409 50.7372C144.463 50.7705 144.511 50.8144 144.548 50.8663C144.585 50.9181 144.611 50.9769 144.625 51.0391H144.621Z" fill="#252525"/>
  <path d="M144.618 49.3834C144.567 49.4606 144.154 49.2478 143.626 49.3323C143.099 49.4169 142.776 49.7581 142.69 49.694C142.604 49.6298 142.69 49.5482 142.848 49.3921C143.049 49.2002 143.303 49.0728 143.577 49.0261C143.851 48.9825 144.131 49.0242 144.38 49.1457C144.587 49.2375 144.643 49.344 144.618 49.3834Z" fill="#252525"/>
  <path d="M147.168 52.9876C147.43 52.8556 147.707 52.7576 147.993 52.696C148.125 52.6624 148.249 52.6114 148.257 52.5181C148.247 52.3775 148.193 52.2436 148.104 52.1345L147.538 51.178C147.028 50.3725 146.583 49.5274 146.207 48.6509C146.782 49.4119 147.294 50.2185 147.738 51.0628L148.286 52.0281C148.398 52.1776 148.453 52.3612 148.444 52.5472C148.431 52.5974 148.407 52.6441 148.374 52.684C148.341 52.7238 148.3 52.7558 148.253 52.7776C148.183 52.8122 148.108 52.8353 148.031 52.8462C147.751 52.931 147.461 52.9785 147.168 52.9876Z" fill="#252525"/>
  <path d="M148.556 59.1309C146.766 59.4532 144.92 59.272 143.227 58.6074C143.878 59.3945 144.754 59.9638 145.738 60.239C146.722 60.5142 147.766 60.4823 148.731 60.1473L148.556 59.1309Z" fill="#EB996E"/>
  <path d="M147.298 54.2298C146.788 53.9767 146.236 53.8195 145.669 53.7661C145.392 53.7661 145.618 54.068 145.507 54.3319C145.445 54.4783 145.429 54.64 145.461 54.7957C145.494 54.9514 145.572 55.0936 145.687 55.2034C145.802 55.3132 145.948 55.3855 146.105 55.4106C146.262 55.4357 146.423 55.4124 146.566 55.3439C146.842 55.2016 147.08 54.9944 147.259 54.7402C147.319 54.675 147.365 54.5981 147.394 54.5142C147.407 54.468 147.407 54.4194 147.395 54.373C147.383 54.3267 147.359 54.2843 147.326 54.2502" fill="#EB996E"/>
  <path d="M144.487 47.1761C144.457 47.322 143.921 47.3467 143.32 47.5246C142.719 47.7026 142.244 47.9504 142.142 47.8352C142.04 47.72 142.142 47.6311 142.337 47.4605C142.578 47.2468 142.865 47.0906 143.175 47.0037C143.485 46.9168 143.811 46.9015 144.128 46.9589C144.373 47.0318 144.504 47.1076 144.487 47.1761Z" fill="#252525"/>
  <path d="M149.293 46.6484C149.22 46.784 148.838 46.7213 148.399 46.784C147.96 46.8467 147.607 46.9969 147.5 46.8861C147.394 46.7753 147.5 46.7038 147.636 46.5624C147.828 46.3868 148.07 46.2765 148.329 46.2474C148.585 46.212 148.846 46.2552 149.077 46.3713C149.265 46.4676 149.316 46.6017 149.293 46.6484Z" fill="#252525"/>
  <path d="M152.668 45.5515C152.43 44.9885 152.004 44.525 151.464 44.2391C151.151 44.1285 150.845 44.002 150.545 43.86C149.933 43.4852 149.695 42.7284 149.269 42.1583C148.991 41.787 148.628 41.4875 148.211 41.2847C147.794 41.0818 147.334 40.9813 146.87 40.9917C146.116 41.1367 145.352 41.2279 144.585 41.2644C144.02 41.2002 143.496 40.9115 142.93 40.8809C142.379 40.9368 141.849 41.1223 141.383 41.4224C140.917 41.7225 140.529 42.1285 140.25 42.6074C140.352 43.3773 141.033 43.8119 141.692 44.2245C142.024 44.4306 142.397 44.5624 142.784 44.611C143.172 44.6595 143.565 44.6237 143.938 44.506C144.512 44.3193 145.116 43.9314 145.669 44.1779C146.221 44.4243 146.379 45.2365 146.911 45.5865C147.668 46.0838 148.677 45.3867 149.574 45.5224C150.243 45.7366 150.835 46.1421 151.276 46.6889C151.501 46.9599 151.799 47.1608 152.135 47.2677C152.471 47.3747 152.831 47.3833 153.171 47.2926C153.073 46.6922 152.906 46.105 152.674 45.5428L152.668 45.5515Z" fill="#252525"/>
  <path d="M144.11 43.3838C143.449 43.3441 142.811 43.1248 142.264 42.7495C141.943 42.3339 141.517 42.0108 141.031 41.8128C140.544 41.6148 140.014 41.5491 139.494 41.6223C138.974 41.7341 138.504 42.0114 138.156 42.4126C137.807 42.8138 137.597 43.3173 137.559 43.8476C136.931 43.9521 136.344 44.224 135.858 44.6346C135.372 45.0453 135.006 45.5794 134.798 46.1807C134.744 46.3361 134.701 46.4955 134.671 46.6575C134.526 47.021 134.461 47.4119 134.483 47.8028C134.504 48.1938 134.611 48.5753 134.795 48.9207C135.021 49.3465 135.37 49.7708 135.221 50.2229C135.072 50.6749 134.473 50.7595 134.043 50.9753L139.293 51.5498C139.35 51.6427 139.429 51.7202 139.523 51.7758C139.617 51.8314 139.723 51.8634 139.832 51.8692C141.168 51.9888 140.999 49.2911 140.611 48.6101C141.043 48.1432 141.416 47.6245 141.72 47.0658C142.029 46.2017 142.112 45.2734 141.963 44.3681C142.738 44.1898 143.469 43.8549 144.11 43.3838Z" fill="#252525"/>
  <path d="M139.74 52.1695C139.587 51.3573 138.562 51.3194 137.907 51.8254C137.681 52.0247 137.519 52.2872 137.443 52.579C137.367 52.8708 137.38 53.1787 137.481 53.463C137.51 53.756 137.612 54.0369 137.778 54.2803C137.944 54.5237 138.168 54.7217 138.43 54.8562C138.691 54.9908 138.983 55.0576 139.277 55.0506C139.571 55.0436 139.859 54.963 140.115 54.8162C140.101 54.7477 139.906 53.1276 139.74 52.1695Z" fill="#FFBE9D"/>
  <path d="M139.237 54.0638C139.207 54.092 139.174 54.1173 139.139 54.1397C139.095 54.1691 139.046 54.1895 138.994 54.1998C138.942 54.21 138.889 54.2099 138.837 54.1994C138.67 54.136 138.524 54.0291 138.412 53.8899C138.301 53.7507 138.228 53.5842 138.203 53.4076C138.16 53.2116 138.16 53.0087 138.203 52.8127C138.212 52.7366 138.24 52.6639 138.284 52.6009C138.327 52.5379 138.386 52.4864 138.454 52.451C138.497 52.4294 138.547 52.4245 138.594 52.4371C138.641 52.4497 138.682 52.479 138.709 52.5196C138.751 52.575 138.742 52.626 138.756 52.626C138.769 52.626 138.798 52.5794 138.756 52.4904C138.733 52.4347 138.693 52.3883 138.64 52.3592C138.566 52.3288 138.482 52.3288 138.407 52.3592C138.316 52.3941 138.236 52.4515 138.173 52.526C138.111 52.6005 138.068 52.6896 138.05 52.785C137.988 53.0024 137.979 53.2315 138.025 53.4528C138.049 53.661 138.135 53.8572 138.272 54.0163C138.408 54.1755 138.589 54.2905 138.791 54.3467C138.856 54.3532 138.921 54.3454 138.983 54.324C139.045 54.3026 139.101 54.2681 139.148 54.2228C139.241 54.1192 139.246 54.0682 139.237 54.0638Z" fill="#EB996E"/>
  <path d="M146.422 55.3305H146.247C146.102 55.3347 145.957 55.3084 145.822 55.2533C145.418 55.122 145.622 54.4702 145.609 53.8884V53.8548H145.66C145.66 53.9613 145.806 53.6755 145.724 53.693H145.635C145.635 53.6551 145.542 54.0079 145.588 53.8592L145.695 53.8884L146.094 53.9948L146.771 54.1654C146.978 54.2318 147.193 54.2691 147.41 54.2762C147.22 54.1715 147.017 54.0939 146.806 54.0459L146.138 53.8373L145.743 53.7221L145.636 53.693C145.683 53.5471 145.584 53.8971 145.588 53.8592H145.645C145.646 53.8316 145.655 53.8048 145.67 53.7819V53.6944H145.606C145.57 53.6818 145.531 53.6818 145.495 53.6944C145.469 53.7143 145.448 53.7402 145.434 53.7699C145.42 53.7996 145.413 53.8322 145.415 53.865C145.415 54.1669 145.393 54.4483 145.386 54.7152C145.373 54.8622 145.403 55.0098 145.47 55.141C145.534 55.2482 145.634 55.3297 145.752 55.3714C145.91 55.4257 146.081 55.4358 146.244 55.4005C146.367 55.3597 146.427 55.3437 146.422 55.3305Z" fill="#252525"/>
  <path d="M137.432 63.9676C137.432 63.9676 136.403 63.8217 130.724 69.974C127.449 73.5174 122.255 80.5883 121.732 82.5744C121.208 84.5605 122.936 91.4476 122.936 91.4476L125.998 89.9034L127.403 82.71L138.071 72.8116L137.432 63.9676Z" fill="#FFBE9D"/>
  <path d="M127.876 100.201L122.945 91.4339L126.008 89.8896L133.239 88.9111C133.239 88.9111 133.783 89.3369 132.389 89.894C130.995 90.451 130.445 90.3198 129.837 91.1058C129.229 91.8917 128.51 92.475 128.807 93.0875C129.105 93.6999 133.427 97.6079 133.027 98.2554C132.991 98.3412 132.936 98.4181 132.867 98.4807C132.798 98.5433 132.716 98.5901 132.627 98.6179C132.538 98.6456 132.444 98.6537 132.351 98.6414C132.259 98.6292 132.17 98.597 132.091 98.547L128.914 95.9951C128.914 95.9951 132.036 99.7428 131.632 99.96C131.466 100.063 131.287 100.143 131.1 100.198L128.71 97.9725C129.317 98.7773 129.794 99.673 130.123 100.626C130.123 101.286 129.697 101.218 129.697 101.218L127.771 98.1766C127.771 98.1766 128.842 100.524 128.354 100.673C128.106 100.749 127.876 100.201 127.876 100.201Z" fill="#FFBE9D"/>
  <path d="M140.278 73.2054C140.042 72.984 139.747 72.8361 139.428 72.7796C139.088 72.7225 138.74 72.7609 138.42 72.8904C138.034 73.0611 137.677 73.2909 137.362 73.5714C136.665 74.1926 136.026 74.7584 135.554 75.1536C135.311 75.3825 135.046 75.5863 134.762 75.7617C134.961 75.4931 135.191 75.2485 135.447 75.0326C135.893 74.6068 136.51 74.0293 137.217 73.4037C137.554 73.0959 137.941 72.8491 138.362 72.6746C138.718 72.5411 139.106 72.5158 139.476 72.6017C139.727 72.6533 139.957 72.7793 140.135 72.9633C140.252 73.1033 140.285 73.1967 140.278 73.2054Z" fill="#EB996E"/>
  <path d="M23.4708 162.505H20.6593V125.977C20.726 124.068 20.0345 122.212 18.7361 120.812C17.4376 119.412 15.6377 118.583 13.7299 118.506C11.8221 118.583 10.0222 119.412 8.72375 120.812C7.42528 122.212 6.7338 124.068 6.80047 125.977V139.19H3.98758V125.977C3.92051 123.323 4.90823 120.75 6.73433 118.823C8.56044 116.896 11.076 115.771 13.7299 115.695C16.3838 115.771 18.8994 116.896 20.7255 118.823C22.5516 120.75 23.5393 123.323 23.4722 125.977L23.4708 162.505Z" fill="white"/>
  <path d="M23.476 162.503V156.216C23.476 152.183 23.476 146.36 23.4381 139.167V127.405C23.4791 126.333 23.4264 125.259 23.2806 124.197C23.0957 123.111 22.7471 122.06 22.2468 121.079C21.1795 119.022 19.4305 117.399 17.299 116.489C16.196 116.03 15.0143 115.79 13.8197 115.783C12.5971 115.786 11.387 116.031 10.2588 116.502C7.92135 117.505 6.0566 119.365 5.04712 121.7C4.52787 122.888 4.2313 124.161 4.17219 125.457C4.12553 126.769 4.17219 128.099 4.15032 129.43V139.175L4.0395 139.065H6.85093L6.74011 139.175V126.323C6.6979 125.28 6.84614 124.237 7.17757 123.247C7.52382 122.273 8.06516 121.38 8.76848 120.623C9.45116 119.878 10.2918 119.294 11.2288 118.916C12.1658 118.537 13.1756 118.373 14.1843 118.435C15.1523 118.511 16.0934 118.79 16.9455 119.256C17.7976 119.721 18.5413 120.362 19.1276 121.136C19.6993 121.878 20.1316 122.718 20.4036 123.615C20.6609 124.49 20.78 125.4 20.7565 126.313V136.415C20.7302 149.071 20.7098 158.37 20.701 162.517L20.6719 162.491H20.6631V162.462C20.6631 158.319 20.634 149.018 20.6034 136.36V126.257C20.6216 125.365 20.5026 124.475 20.2505 123.619C19.9853 122.746 19.5627 121.929 19.0037 121.207C18.4345 120.456 17.7126 119.833 16.8854 119.381C16.0583 118.928 15.1446 118.656 14.2047 118.583C13.2264 118.523 12.2473 118.684 11.339 119.052C10.4306 119.42 9.61615 119.987 8.95514 120.71C8.27356 121.448 7.74828 122.316 7.41089 123.262C7.07468 124.229 6.91754 125.25 6.94717 126.273V139.295H3.88492V129.439C3.88492 128.103 3.86014 126.781 3.91117 125.454C3.97 124.133 4.27308 122.835 4.80506 121.624C5.83487 119.238 7.74097 117.338 10.1305 116.315C11.285 115.832 12.5244 115.584 13.776 115.586C14.998 115.592 16.2068 115.84 17.3326 116.315C19.5061 117.241 21.2887 118.896 22.3736 120.994C22.8824 121.995 23.2368 123.066 23.425 124.172C23.5706 125.244 23.6219 126.328 23.5781 127.409C23.5781 131.663 23.5781 135.597 23.5781 139.209C23.5781 146.407 23.5489 152.235 23.5358 156.27V162.103C23.5378 162.239 23.5176 162.374 23.476 162.503Z" fill="white"/>
  <path d="M45.3147 162.503H42.4901V125.975C42.5687 125.017 42.4481 124.054 42.1357 123.146C41.8233 122.237 41.3259 121.403 40.6751 120.697C40.0242 119.99 39.2339 119.426 38.3542 119.041C37.4744 118.655 36.5242 118.456 35.5636 118.456C34.603 118.456 33.6528 118.655 32.773 119.041C31.8932 119.426 31.1029 119.99 30.4521 120.697C29.8012 121.403 29.3039 122.237 28.9915 123.146C28.6791 124.054 28.5584 125.017 28.6371 125.975V139.188H25.8271V125.975C25.7546 124.65 25.9529 123.325 26.4098 122.08C26.8667 120.835 27.5727 119.696 28.4846 118.732C29.3965 117.769 30.4952 117.002 31.7136 116.478C32.932 115.954 34.2445 115.683 35.5709 115.683C36.8973 115.683 38.2097 115.954 39.4281 116.478C40.6465 117.002 41.7452 117.769 42.6571 118.732C43.569 119.696 44.275 120.835 44.7319 122.08C45.1889 123.325 45.3871 124.65 45.3147 125.975V162.503Z" fill="white"/>
  <path d="M45.3144 162.504V156.216C45.3144 152.183 45.3144 146.36 45.2765 139.155V127.397C45.3174 126.325 45.2647 125.252 45.119 124.189C44.9301 123.105 44.5817 122.054 44.0851 121.072C43.004 119.008 41.2358 117.388 39.0863 116.49C37.9836 116.03 36.8017 115.791 35.607 115.784C34.3858 115.788 33.1773 116.032 32.0505 116.503C29.7104 117.504 27.8435 119.365 26.8344 121.702C26.3237 122.891 26.0355 124.164 25.9843 125.458C25.9332 126.77 25.9843 128.1 25.958 129.432V139.177L25.8472 139.066H28.663L28.5522 139.177V126.321C28.5252 125.273 28.6882 124.228 29.0334 123.237C29.3759 122.265 29.9111 121.372 30.6068 120.612C31.2895 119.867 32.1301 119.284 33.0671 118.906C34.0042 118.527 35.014 118.363 36.0226 118.425C36.9905 118.501 37.9314 118.781 38.7834 119.246C39.6354 119.711 40.3793 120.352 40.966 121.126C41.5376 121.868 41.9699 122.708 42.2419 123.605C42.4972 124.48 42.6162 125.39 42.5948 126.302V136.405C42.5656 149.061 42.5481 158.36 42.535 162.507L42.5088 162.482H42.4869V162.453C42.4869 158.31 42.4577 149.01 42.4315 136.351V126.256C42.4533 125.363 42.3357 124.473 42.083 123.618C41.8178 122.744 41.3952 121.927 40.8362 121.206C40.2667 120.455 39.5446 119.832 38.7175 119.38C37.8904 118.928 36.977 118.655 36.0372 118.581C35.0589 118.522 34.0798 118.682 33.1715 119.05C32.2631 119.418 31.4487 119.985 30.7876 120.709C30.1061 121.446 29.5808 122.314 29.2434 123.26C28.9058 124.227 28.7471 125.248 28.7753 126.272V139.238H25.7131V129.398C25.7131 128.062 25.6883 126.74 25.7393 125.413C25.799 124.093 26.1005 122.796 26.6288 121.585C27.6601 119.2 29.5657 117.3 31.9542 116.276C33.1084 115.791 34.348 115.543 35.5997 115.546C36.8218 115.552 38.0306 115.8 39.1563 116.276C41.3291 117.203 43.1114 118.857 44.1974 120.955C44.7066 121.954 45.0597 123.026 45.2444 124.132C45.3936 125.205 45.4463 126.288 45.4019 127.37V139.17C45.4019 146.367 45.3727 152.196 45.3596 156.231V162.063C45.3622 162.212 45.347 162.359 45.3144 162.504Z" fill="white"/>
  <path d="M44.7685 149.182H23.1797V151.994H44.7685V149.182Z" fill="white"/>
  <path d="M44.77 151.997C44.765 151.934 44.765 151.87 44.77 151.806C44.77 151.671 44.77 151.491 44.77 151.263C44.77 150.777 44.77 150.08 44.7437 149.182L44.7948 149.233C40.8255 149.271 32.6406 149.292 23.2059 149.292L23.3167 149.182V151.993L23.2103 151.882L38.5215 151.929L43.1033 151.962H43.1543L38.5988 151.992L23.1782 152.102H23.0703V149.186C23.0703 149.212 23.2832 148.977 23.1855 149.075C32.6202 149.075 40.8051 149.1 44.7744 149.135H44.8254V149.182C44.8254 150.092 44.7992 150.799 44.7962 151.309V151.841C44.7948 151.968 44.77 152.002 44.77 151.997Z" fill="white"/>
</svg>
