<svg xmlns="http://www.w3.org/2000/svg" width="224" height="193" viewBox="0 0 224 193" fill="none">
  <path d="M188.031 56.7653C161.52 28.2764 95.2261 4.71012 57.3176 16.384C21.6634 27.3793 -0.764284 71.3318 25.8729 100.747C56.547 134.612 109.39 148.609 152.779 142.663C192.372 137.235 220.246 91.3844 188.031 56.7653Z" fill="#8354BE"/>
  <path opacity="0.9" d="M188.031 56.7653C161.52 28.2764 95.2261 4.71012 57.3176 16.384C21.6634 27.3793 -0.764284 71.3318 25.8729 100.747C56.547 134.612 109.39 148.609 152.779 142.663C192.372 137.235 220.246 91.3844 188.031 56.7653Z" fill="white"/>
  <path d="M112 192.28C173.58 192.28 223.5 189.366 223.5 185.77C223.5 182.175 173.58 179.26 112 179.26C50.4202 179.26 0.5 182.175 0.5 185.77C0.5 189.366 50.4202 192.28 112 192.28Z" fill="#F5F5F5"/>
  <g opacity="0.2">
    <path d="M102.849 180.707L139.056 113.785L175.262 180.707H102.849Z" fill="#8354BE" stroke="black" stroke-width="0.5"/>
    <path d="M102.849 66.6819H175.262L139.056 133.598L102.849 66.6819Z" fill="#8354BE" stroke="black" stroke-width="0.5"/>
  </g>
  <path d="M140.184 116.182L140.184 116.183C140.074 116.387 139.91 116.558 139.711 116.676C139.512 116.795 139.284 116.858 139.053 116.858C138.821 116.858 138.593 116.795 138.394 116.676C138.195 116.558 138.031 116.387 137.921 116.183L137.921 116.182L132.561 106.28C132.561 106.28 132.561 106.28 132.561 106.28C132.099 105.423 131.867 104.461 131.888 103.487C131.909 102.513 132.183 101.562 132.683 100.726C133.182 99.89 133.89 99.1982 134.738 98.7183C135.585 98.2384 136.543 97.9868 137.517 97.9883H137.517H140.616C141.588 97.9916 142.542 98.2466 143.385 98.7285C144.229 99.2103 144.933 99.9026 145.429 100.738C145.926 101.573 146.197 102.523 146.217 103.494C146.237 104.465 146.005 105.425 145.544 106.28L140.184 116.182Z" fill="#8354BE" stroke="black" stroke-width="0.5"/>
  <path d="M139.541 164.096L139.543 164.097L156.189 170.939C156.189 170.939 156.19 170.939 156.19 170.94C156.462 171.054 156.685 171.259 156.824 171.519C156.963 171.779 157.008 172.08 156.951 172.37C156.895 172.659 156.74 172.921 156.514 173.11C156.288 173.299 156.004 173.404 155.709 173.409H122.434C122.139 173.404 121.855 173.299 121.629 173.11C121.403 172.921 121.248 172.659 121.192 172.37C121.135 172.08 121.18 171.779 121.319 171.519C121.458 171.259 121.682 171.054 121.953 170.939C121.953 170.939 121.954 170.939 121.954 170.939L138.554 164.097L138.556 164.096C138.712 164.031 138.879 163.997 139.049 163.997C139.218 163.997 139.385 164.031 139.541 164.096Z" fill="#8354BE" stroke="black" stroke-width="0.5"/>
  <path d="M140.939 148.712C140.939 149.753 140.096 150.596 139.055 150.596C138.015 150.596 137.172 149.753 137.172 148.712C137.172 147.672 138.015 146.829 139.055 146.829C140.096 146.829 140.939 147.672 140.939 148.712Z" fill="#8354BE" stroke="black" stroke-width="0.5"/>
  <path d="M139.904 126.429C139.904 126.897 139.524 127.277 139.055 127.277C138.587 127.277 138.207 126.897 138.207 126.429C138.207 125.96 138.587 125.58 139.055 125.58C139.524 125.58 139.904 125.96 139.904 126.429Z" fill="#8354BE" stroke="black" stroke-width="0.5"/>
  <path d="M140.054 137.05C140.054 137.601 139.608 138.048 139.056 138.048C138.505 138.048 138.059 137.601 138.059 137.05C138.059 136.499 138.505 136.052 139.056 136.052C139.608 136.052 140.054 136.499 140.054 137.05Z" fill="#8354BE" stroke="black" stroke-width="0.5"/>
  <path d="M100.433 178.774C101.011 178.195 101.795 177.868 102.613 177.865H175.496C176.315 177.868 177.099 178.195 177.677 178.774C178.255 179.354 178.581 180.138 178.582 180.956C178.579 181.774 178.253 182.557 177.675 183.135C177.097 183.713 176.314 184.039 175.496 184.042H102.613C101.796 184.039 101.012 183.713 100.434 183.135C99.8564 182.557 99.5303 181.774 99.5273 180.956C99.5289 180.138 99.8543 179.354 100.433 178.774Z" fill="#8354BE" stroke="black" stroke-width="0.5"/>
  <path d="M100.434 64.2535C101.012 63.6754 101.796 63.3494 102.613 63.3464H175.496C176.314 63.3494 177.097 63.6754 177.675 64.2535C178.253 64.8315 178.579 65.6145 178.582 66.4318C178.579 67.2492 178.253 68.0322 177.675 68.6102C177.097 69.1883 176.314 69.5143 175.496 69.5172H102.613C101.796 69.5143 101.012 69.1883 100.434 68.6102C99.8564 68.0322 99.5304 67.2492 99.5273 66.4318C99.5304 65.6145 99.8564 64.8315 100.434 64.2535Z" fill="#8354BE" stroke="black" stroke-width="0.5"/>
  <path d="M80.1558 179.698L76.1016 178.381L78.6204 168.817L82.6746 170.134L80.1558 179.698Z" fill="#FF8B7B"/>
  <path d="M76.0377 177.84L80.5922 179.318C80.669 179.341 80.7341 179.392 80.7738 179.462C80.8134 179.532 80.8246 179.614 80.805 179.692L79.8561 183.372C79.7954 183.562 79.6621 183.72 79.4854 183.811C79.3087 183.903 79.1029 183.921 78.913 183.861C77.3373 183.32 76.6127 182.981 74.6057 182.331C73.3693 181.929 69.3093 180.882 67.6071 180.33C65.9049 179.778 66.4973 178.11 67.2679 178.191C70.7183 178.553 73.8236 178.392 75.2613 177.863C75.5104 177.77 75.7835 177.762 76.0377 177.84Z" fill="#263238"/>
  <path opacity="0.2" d="M82.6742 170.14L78.62 168.817L77.3203 173.751L81.3803 175.068L82.6742 170.14Z" fill="black"/>
  <path d="M93.7559 73.333C93.7559 73.333 86.4813 107.003 84.7734 119.108C82.9044 132.364 75.8828 172.17 75.8828 172.17L83.4105 174.252C83.4105 174.252 93.8422 135.647 96.8901 122.76C100.197 108.769 108.966 73.3042 108.966 73.3042L93.7559 73.333Z" fill="#8354BE"/>
  <path opacity="0.3" d="M102.748 84.3743C99.8728 90.8955 98.4523 105.077 99.568 111.604C101.604 103.237 104.054 93.2878 105.945 85.6337C105.307 83.4139 104.249 80.9699 102.748 84.3743Z" fill="black"/>
  <path d="M83.6015 174.401L75.5391 172.182L75.7001 168.898L84.7747 172.032L83.6015 174.401Z" fill="#263238"/>
  <path d="M74.3717 178.082C74.7467 178.191 75.1322 178.261 75.5218 178.289C75.5411 178.29 75.5602 178.286 75.5772 178.277C75.5941 178.267 75.6082 178.254 75.6177 178.237C75.6273 178.22 75.632 178.201 75.6313 178.182C75.6306 178.163 75.6246 178.144 75.6138 178.128C75.5103 177.996 74.619 176.84 74.0611 176.874C73.9969 176.877 73.9346 176.897 73.8802 176.931C73.8258 176.966 73.7812 177.013 73.7506 177.07C73.693 177.153 73.6583 177.25 73.6503 177.351C73.6422 177.452 73.6609 177.553 73.7046 177.645C73.8677 177.865 74.1043 178.02 74.3717 178.082ZM75.286 178.082C74.5154 177.99 73.9864 177.794 73.8599 177.547C73.8334 177.489 73.8231 177.424 73.8302 177.36C73.8373 177.297 73.8614 177.236 73.9001 177.185C73.9147 177.157 73.9361 177.134 73.9622 177.117C73.9884 177.099 74.0185 177.089 74.0496 177.087C74.3487 177.053 74.9122 177.616 75.286 178.065V178.082Z" fill="#263238"/>
  <path d="M75.4796 178.283H75.5256C75.5423 178.279 75.5579 178.272 75.5709 178.261C75.584 178.25 75.5941 178.236 75.6003 178.22C75.6003 178.174 76.0892 177.035 75.8074 176.495C75.7723 176.426 75.7218 176.368 75.6599 176.323C75.598 176.278 75.5264 176.248 75.4508 176.236C75.3692 176.211 75.2817 176.215 75.2024 176.246C75.1231 176.278 75.0567 176.335 75.0138 176.408C74.778 176.822 75.1058 177.863 75.4336 178.237L75.4796 178.283ZM75.4796 176.46C75.5181 176.471 75.5538 176.49 75.5845 176.516C75.6152 176.542 75.6402 176.574 75.6578 176.61C75.7542 177.072 75.6998 177.554 75.5026 177.984C75.2241 177.554 75.1193 177.034 75.2093 176.529C75.2093 176.477 75.2898 176.42 75.4336 176.449L75.4796 176.46Z" fill="#263238"/>
  <path d="M101.496 41.3649C101.278 41.8825 101.094 42.2735 100.893 42.7106C100.691 43.1476 100.473 43.5502 100.26 43.9642C99.8344 44.7981 99.3858 45.6089 98.92 46.4197C97.9791 48.0479 96.9421 49.6187 95.8147 51.1238C94.6606 52.6802 93.3817 54.14 91.9905 55.4886C90.5083 56.9476 88.8279 58.1904 86.9989 59.1805L86.8551 59.2553C86.6225 59.3755 86.3749 59.4644 86.119 59.5198C84.8092 59.7922 83.4526 59.7389 82.1683 59.3645C81.1012 59.0452 80.0861 58.5725 79.1549 57.9614C77.5927 56.9109 76.1904 55.6403 74.9914 54.1889C73.8776 52.8654 72.8645 51.4602 71.9608 49.9852C71.0684 48.5356 70.2749 47.0274 69.5858 45.4709C69.4083 45.0592 69.3853 44.5973 69.5208 44.17C69.6563 43.7427 69.9414 43.3785 70.3237 43.1444C70.706 42.9103 71.1599 42.8218 71.6022 42.8953C72.0444 42.9688 72.4454 43.1992 72.7314 43.5444L72.7889 43.6134C73.7378 44.7635 74.7672 45.9884 75.8023 47.1041C76.8109 48.2149 77.8823 49.267 79.0112 50.2554C80.0089 51.1598 81.1182 51.9328 82.3121 52.5557C82.7584 52.7852 83.2375 52.9443 83.7325 53.0273C84.0097 53.0788 84.2957 53.055 84.5606 52.9583L83.6807 53.2976C84.8692 52.4962 85.953 51.5496 86.9068 50.4797C87.9452 49.3135 88.9057 48.0802 89.7822 46.7878C90.6908 45.4651 91.5534 44.0792 92.3642 42.653C92.7783 41.9457 93.1751 41.2269 93.5489 40.4965L94.124 39.4097C94.3022 39.0589 94.4977 38.6563 94.6358 38.3745L94.6703 38.294C95.0895 37.4094 95.839 36.7244 96.7578 36.3865C97.6766 36.0486 98.6913 36.0846 99.5839 36.4868C100.476 36.889 101.176 37.6253 101.531 38.5375C101.886 39.4496 101.87 40.4648 101.485 41.3649H101.496Z" fill="#263238"/>
  <path opacity="0.3" d="M92.0899 49.1746C93.8956 44.3785 97.7313 44.298 99.3933 45.5689C99.2725 45.7932 99.146 46.0174 99.0195 46.2417C98.1174 47.8117 97.1287 49.3303 96.0579 50.7905C94.9589 52.2928 93.7499 53.7114 92.4407 55.0345C92.0267 55.4428 91.6011 55.8454 91.1583 56.2364C91.006 53.8442 91.3224 51.4454 92.0899 49.1746Z" fill="black"/>
  <path d="M69.4411 45.7698L65.7031 45.9079L66.6347 41.9111C67.9217 41.975 69.1989 42.1676 70.4474 42.4862C70.6748 42.555 70.8827 42.6764 71.0543 42.8405C71.226 43.0047 71.3566 43.2069 71.4356 43.4309C71.5145 43.6549 71.5396 43.8944 71.5088 44.1299C71.478 44.3654 71.3922 44.5903 71.2583 44.7865C71.0561 45.0837 70.7855 45.3282 70.4693 45.4993C70.1531 45.6704 69.8005 45.7631 69.4411 45.7698Z" fill="#FF8B7B"/>
  <path d="M71.5328 42.3942C71.1659 42.1033 70.746 41.8865 70.2964 41.7559C69.9858 43.3891 67.9961 46.1436 67.9961 46.1436H69.5545C69.755 46.1442 69.9532 46.1007 70.1351 46.0163C70.3169 45.9318 70.478 45.8084 70.6069 45.6548L71.6995 44.3437C71.8192 44.2059 71.91 44.0455 71.9665 43.872C72.0231 43.6985 72.0442 43.5155 72.0286 43.3336C72.0131 43.1518 71.9612 42.975 71.876 42.8136C71.7908 42.6522 71.6741 42.5096 71.5328 42.3942Z" fill="#8354BE"/>
  <path d="M62.8398 44.0678L63.8865 41.25L66.6238 41.9171L65.6922 45.9081L62.8398 44.0678Z" fill="#FF8B7B"/>
  <path d="M109.837 181.56H105.575L105.426 171.687H109.687L109.837 181.56Z" fill="#FF8B7B"/>
  <path d="M105.354 181.066H110.144C110.184 181.065 110.224 181.071 110.262 181.085C110.299 181.099 110.334 181.12 110.363 181.147C110.393 181.174 110.416 181.207 110.433 181.244C110.45 181.28 110.459 181.319 110.461 181.359L110.691 185.149C110.691 185.348 110.612 185.54 110.472 185.682C110.333 185.824 110.142 185.905 109.943 185.908C108.275 185.879 107.482 185.782 105.343 185.782C104.049 185.782 99.7183 185.914 97.9299 185.914C96.1414 185.914 96.2047 184.143 96.9465 183.982C100.351 183.269 103.387 182.257 104.589 181.331C104.805 181.156 105.076 181.062 105.354 181.066Z" fill="#263238"/>
  <path opacity="0.2" d="M109.693 171.692H105.426L105.506 176.782H109.768L109.693 171.692Z" fill="black"/>
  <path d="M102.069 73.333C102.069 73.333 100.441 110.373 101.131 122.582C101.891 135.946 103.478 175.551 103.478 175.551H111.287C111.287 175.551 113.254 137.022 113.725 123.795C114.237 109.419 116.555 73.333 116.555 73.333H102.069Z" fill="#8354BE"/>
  <path d="M111.608 175.551H103.171L102.527 172.412L111.838 172.877L111.608 175.551Z" fill="#263238"/>
  <path d="M103.842 181.809C104.23 181.799 104.615 181.749 104.992 181.659C105.01 181.653 105.027 181.642 105.04 181.628C105.053 181.614 105.062 181.597 105.067 181.579C105.069 181.56 105.066 181.542 105.059 181.524C105.052 181.507 105.041 181.492 105.027 181.481C104.889 181.383 103.681 180.561 103.158 180.768C103.1 180.791 103.048 180.829 103.008 180.877C102.968 180.925 102.94 180.982 102.928 181.044C102.901 181.137 102.899 181.236 102.921 181.33C102.944 181.425 102.989 181.512 103.054 181.584C103.28 181.753 103.561 181.833 103.842 181.809ZM104.705 181.515C103.94 181.665 103.382 181.642 103.181 181.446C103.139 181.398 103.111 181.34 103.099 181.277C103.087 181.215 103.091 181.15 103.112 181.09C103.116 181.059 103.128 181.03 103.147 181.006C103.167 180.981 103.192 180.963 103.221 180.952C103.503 180.842 104.21 181.199 104.705 181.515Z" fill="#263238"/>
  <path d="M104.957 181.658C104.972 181.663 104.988 181.663 105.003 181.658C105.017 181.65 105.03 181.638 105.039 181.624C105.048 181.61 105.053 181.594 105.055 181.578C105.055 181.526 105.152 180.301 104.721 179.887C104.666 179.833 104.6 179.793 104.527 179.769C104.454 179.745 104.377 179.738 104.301 179.749C104.217 179.752 104.136 179.783 104.072 179.837C104.007 179.892 103.963 179.966 103.945 180.048C103.841 180.514 104.48 181.405 104.905 181.658C104.922 181.664 104.94 181.664 104.957 181.658ZM104.382 179.933C104.421 179.932 104.461 179.939 104.497 179.954C104.534 179.969 104.567 179.991 104.595 180.019C104.832 180.43 104.931 180.906 104.876 181.376C104.508 181.06 104.083 180.382 104.146 180.077C104.146 180.019 104.192 179.95 104.336 179.933H104.382Z" fill="#263238"/>
  <path d="M118.69 38.9553C118.754 38.5958 118.745 38.2271 118.663 37.8713C118.581 37.5155 118.428 37.1799 118.213 36.8846C117.998 36.5893 117.726 36.3404 117.413 36.1527C117.1 35.9651 116.752 35.8425 116.39 35.7925H116.344C114.97 35.5912 113.245 35.3842 111.554 35.3036C108.327 35.1195 105.091 35.1195 101.864 35.3036C100.375 35.4417 98.9196 35.6889 97.758 35.9132H97.712C96.9857 36.0599 96.3133 36.402 95.7671 36.9026C95.2209 37.4032 94.8216 38.0433 94.6123 38.7541C93.2207 43.4409 91.5587 53.01 93.7325 73.3272H116.534C116.695 71.2914 116.241 64.6666 116.574 56.2304C116.907 50.4325 117.614 44.6622 118.69 38.9553Z" fill="#263238"/>
  <path opacity="0.3" d="M118.473 40.2091C118.001 42.9349 117.42 46.6441 117.018 50.5604C117.018 50.5604 114.936 46.4774 114.556 42.9867C114.177 39.496 117.173 39.2315 118.473 40.2091Z" fill="black"/>
  <g opacity="0.2">
    <path d="M103.177 40.7493C103.13 40.7471 103.084 40.7296 103.048 40.6994C103.011 40.6692 102.986 40.628 102.975 40.5819C102.964 40.5359 102.968 40.4875 102.987 40.444C103.006 40.4006 103.038 40.3644 103.079 40.341L110.187 36.6548C110.238 36.6302 110.296 36.6261 110.349 36.6432C110.403 36.6603 110.448 36.6975 110.475 36.7468C110.501 36.798 110.506 36.8575 110.489 36.9124C110.472 36.9673 110.434 37.0132 110.383 37.0401L103.275 40.7148C103.245 40.7325 103.212 40.7442 103.177 40.7493Z" fill="white"/>
    <path d="M106.432 41.0829C106.404 41.084 106.376 41.079 106.351 41.068C106.325 41.0571 106.302 41.0406 106.283 41.0196L102.384 37.1494C102.346 37.1079 102.324 37.0535 102.324 36.997C102.324 36.9405 102.346 36.8861 102.384 36.8446C102.425 36.8049 102.479 36.7827 102.536 36.7827C102.593 36.7827 102.648 36.8049 102.689 36.8446L106.582 40.7206C106.622 40.7614 106.644 40.816 106.644 40.873C106.644 40.9299 106.622 40.9846 106.582 41.0254C106.562 41.0444 106.539 41.0593 106.513 41.0692C106.487 41.079 106.46 41.0837 106.432 41.0829Z" fill="white"/>
    <path d="M111.566 35.2978C108.341 35.1136 105.108 35.1136 101.882 35.2978H101.721C101.643 35.5937 101.624 35.9023 101.667 36.2054C101.709 36.5086 101.812 36.8002 101.968 37.0632C102.509 37.9258 103.642 38.4089 105.344 38.5009H105.982C110.583 38.5009 112.36 35.7061 112.435 35.5853L112.596 35.3265L111.566 35.2978Z" fill="white"/>
  </g>
  <path d="M102.346 35.2635C105.164 34.5964 105.658 32.854 105.469 30.939C105.424 30.4593 105.349 29.983 105.244 29.5128L108.775 26.58L111.369 24.4292C110.65 27.5518 109.839 33.2392 111.944 35.321C111.944 35.321 110.219 38.1963 105.371 37.9433C101.305 37.719 102.346 35.2635 102.346 35.2635Z" fill="#FF8B7B"/>
  <path opacity="0.2" d="M105.242 29.5129C105.347 29.9831 105.422 30.4595 105.466 30.9391C106.783 30.6746 108.543 29.2714 108.727 27.9257C108.792 27.4802 108.807 27.029 108.773 26.5801L105.242 29.5129Z" fill="black"/>
  <path d="M103.37 14.5498C101.455 15.6999 101.76 18.5753 101.242 20.634C102.461 20.7548 104.382 18.5868 104.382 18.5868L105.532 15.2916L103.37 14.5498Z" fill="#263238"/>
  <path d="M113.554 20.3349C112.329 24.3949 111.828 26.8274 109.229 28.5239C108.393 29.0829 107.42 29.4027 106.416 29.4487C105.411 29.4947 104.413 29.2652 103.53 28.785C102.646 28.3047 101.911 27.592 101.403 26.724C100.895 25.8559 100.635 24.8656 100.649 23.8601C100.649 19.9899 102.639 13.9977 107.078 13.1696C108.035 12.9651 109.029 13.0159 109.96 13.3169C110.891 13.6179 111.727 14.1585 112.383 14.8845C113.039 15.6105 113.492 16.4963 113.698 17.453C113.903 18.4096 113.854 19.4035 113.554 20.3349Z" fill="#FF8B7B"/>
  <path d="M109.732 23.7794C112.607 20.444 109.013 18.7993 111.951 16.4818C108.645 16.637 103.199 16.4013 102.227 14.1355C101.255 11.8697 104.246 8.79885 106.736 8.51131C109.611 8.17777 108.99 11.7374 108.99 11.7374C108.99 11.7374 119.991 11.0531 116.5 15.7629C119.146 15.6019 118.415 19.8804 113.815 23.4918C112.659 23.8771 109.732 23.7794 109.732 23.7794Z" fill="#263238"/>
  <path d="M115.836 15.8206C115.836 15.8206 118.102 15.1477 118.027 13.3535C118.844 13.9171 118.93 15.6308 115.836 15.8206Z" fill="#263238"/>
  <path d="M114.227 24.5731C113.565 25.3907 112.641 25.9536 111.611 26.1661C110.305 26.4019 110 25.1942 110.65 24.0153C111.225 22.9572 112.623 21.5598 113.796 21.8531C114.969 22.1464 115.061 23.5438 114.227 24.5731Z" fill="#FF8B7B"/>
  <path d="M107.005 20.2314C106.925 20.5649 106.683 20.8064 106.459 20.7547C106.235 20.7029 106.126 20.4039 106.206 20.0703C106.287 19.7368 106.528 19.4953 106.747 19.5413C106.965 19.5873 107.086 19.8921 107.005 20.2314Z" fill="#263238"/>
  <path d="M103.192 19.4668C103.111 19.8004 102.87 20.0419 102.651 19.9959C102.432 19.9499 102.312 19.6451 102.392 19.3115C102.473 18.978 102.714 18.7365 102.933 18.7825C103.151 18.8285 103.272 19.1333 103.192 19.4668Z" fill="#263238"/>
  <path d="M104.367 19.8745C103.718 20.8213 102.944 21.6762 102.066 22.4163C102.262 22.6271 102.501 22.7924 102.767 22.9007C103.034 23.009 103.321 23.0576 103.608 23.0431L104.367 19.8745Z" fill="#FF5652"/>
  <path d="M104.778 24.2166C105.176 24.2539 105.578 24.21 105.958 24.0874C106.339 23.9648 106.691 23.7662 106.992 23.5035C107.002 23.4948 107.01 23.4842 107.015 23.4723C107.02 23.4604 107.023 23.4475 107.023 23.4345C107.023 23.4214 107.02 23.4085 107.015 23.3966C107.01 23.3847 107.002 23.3741 106.992 23.3655C106.973 23.3468 106.947 23.3364 106.92 23.3364C106.893 23.3364 106.868 23.3468 106.848 23.3655C106.518 23.6465 106.127 23.8472 105.706 23.952C105.285 24.0567 104.845 24.0626 104.422 23.9693C104.409 23.9668 104.395 23.9669 104.383 23.9697C104.37 23.9724 104.358 23.9777 104.347 23.9852C104.336 23.9927 104.327 24.0023 104.32 24.0134C104.313 24.0245 104.309 24.0369 104.307 24.0498C104.301 24.0765 104.307 24.104 104.322 24.1266C104.337 24.1492 104.36 24.165 104.387 24.1705L104.778 24.2166Z" fill="#263238"/>
  <path d="M108.476 19.2996C108.508 19.3101 108.542 19.3101 108.574 19.2996C108.598 19.289 108.62 19.2737 108.638 19.2546C108.656 19.2354 108.67 19.2128 108.679 19.1881C108.688 19.1634 108.692 19.1371 108.691 19.1108C108.69 19.0845 108.683 19.0587 108.671 19.035C108.548 18.741 108.354 18.4821 108.106 18.2814C107.858 18.0807 107.564 17.9445 107.251 17.8849C107.198 17.8783 107.144 17.8925 107.101 17.9247C107.058 17.9569 107.03 18.0045 107.021 18.0574C107.018 18.0839 107.02 18.1107 107.027 18.1364C107.034 18.162 107.047 18.1859 107.063 18.2068C107.08 18.2277 107.1 18.245 107.124 18.2579C107.147 18.2707 107.173 18.2788 107.199 18.2817C107.443 18.3331 107.67 18.4426 107.863 18.6008C108.055 18.7589 108.206 18.9612 108.303 19.1903C108.32 19.2219 108.345 19.2485 108.375 19.2677C108.405 19.2868 108.44 19.2978 108.476 19.2996Z" fill="#263238"/>
  <path d="M102.25 17.1776C102.28 17.1889 102.314 17.1916 102.346 17.1855C102.379 17.1794 102.409 17.1648 102.434 17.1431C102.632 16.9778 102.866 16.8611 103.118 16.8022C103.37 16.7433 103.631 16.7438 103.883 16.8038C103.908 16.8121 103.935 16.8154 103.961 16.8134C103.988 16.8114 104.014 16.8041 104.037 16.7921C104.061 16.7801 104.082 16.7635 104.1 16.7433C104.117 16.7231 104.13 16.6997 104.139 16.6744C104.147 16.6491 104.15 16.6224 104.148 16.5959C104.146 16.5693 104.139 16.5434 104.127 16.5197C104.115 16.4959 104.098 16.4748 104.078 16.4574C104.058 16.44 104.035 16.4268 104.009 16.4185C103.695 16.3408 103.366 16.3372 103.05 16.408C102.733 16.4789 102.438 16.6222 102.186 16.8268C102.144 16.8597 102.117 16.9078 102.111 16.9606C102.104 17.0134 102.119 17.0666 102.152 17.1086C102.175 17.1425 102.21 17.167 102.25 17.1776Z" fill="#263238"/>
  <path d="M118.896 37.3166L119.373 37.9664L119.805 38.576C120.092 38.9843 120.351 39.3926 120.621 39.8009C121.145 40.6232 121.639 41.4571 122.116 42.2967C123.073 43.9751 123.941 45.7027 124.716 47.4723C125.118 48.3464 125.463 49.255 125.831 50.1464C126.199 51.0377 126.51 51.9636 126.792 52.8952C127.398 54.7494 127.897 56.6368 128.287 58.5481L128.333 58.7666C128.417 59.1526 128.425 59.5514 128.355 59.9402C128.285 60.329 128.138 60.7002 127.925 61.0324C127.184 62.1696 126.305 63.2108 125.308 64.132C124.283 65.0715 123.119 65.8473 121.858 66.4323C120.612 67.0127 119.279 67.3819 117.913 67.5249C117.244 67.5939 116.571 67.6054 115.9 67.5594C115.566 67.5594 115.233 67.4962 114.899 67.4444L114.393 67.3467L113.818 67.2029C113.751 67.1865 113.692 67.1441 113.655 67.0849C113.619 67.0257 113.607 66.9545 113.623 66.8866L114.416 63.5512C114.416 63.5225 114.566 63.5167 114.658 63.4937L114.974 63.4305C115.193 63.3844 115.405 63.3327 115.624 63.2752C116.05 63.1598 116.467 63.0137 116.872 62.8381C117.656 62.5164 118.389 62.0846 119.051 61.5557C120.346 60.49 121.381 59.1427 122.076 57.6165L121.714 60.1008C121.219 58.4734 120.696 56.8632 120.063 55.2702C119.431 53.6773 118.741 52.1131 117.987 50.5719C117.234 49.0307 116.429 47.5068 115.561 46.0231C115.135 45.2813 114.687 44.551 114.238 43.8264L113.554 42.7567L113.214 42.2392L112.898 41.7791L112.783 41.6066C112.214 40.796 111.991 39.7926 112.162 38.8171C112.332 37.8416 112.884 36.974 113.695 36.4051C114.505 35.8362 115.509 35.6127 116.484 35.7836C117.46 35.9545 118.327 36.506 118.896 37.3166Z" fill="#263238"/>
  <path d="M111.295 66.8693L110.059 68.8935L115.424 68.6807C115.424 68.6807 116.833 65.0693 114.912 64.5L114.165 64.7013C112.969 65.0361 111.944 65.8105 111.295 66.8693Z" fill="#FF8B7B"/>
  <path d="M113.501 64.0338C113.115 64.2952 112.783 64.6291 112.523 65.0172C113.984 65.8108 116.02 68.5136 116.02 68.5136L116.491 67.0299C116.551 66.8385 116.569 66.6363 116.542 66.4376C116.515 66.2388 116.445 66.0484 116.336 65.8798L115.445 64.4421C115.347 64.2839 115.219 64.1471 115.067 64.0402C114.915 63.9333 114.743 63.8585 114.561 63.8202C114.379 63.782 114.191 63.7813 114.009 63.818C113.827 63.8547 113.654 63.9282 113.501 64.0338Z" fill="#8354BE"/>
  <path d="M110.53 72.0101L114.952 71.619L115.424 68.6804L110.059 68.8932L110.53 72.0101Z" fill="#FF8B7B"/>
  <path d="M56.2542 1.80571L55.9609 1.31116C56.8042 0.811385 57.6825 0.373189 58.589 0L58.8075 0.534814C57.9261 0.894545 57.0726 1.31935 56.2542 1.80571Z" fill="#8354BE"/>
  <path d="M47.8563 11.9613L47.2812 11.7658C48.6445 7.99101 51.1109 4.71316 54.3603 2.35767L54.6996 2.82347C51.5528 5.1132 49.1682 8.29734 47.8563 11.9613Z" fill="#8354BE"/>
  <path d="M66.1069 36.2122C75.8826 36.2122 83.8075 28.2874 83.8075 18.5116C83.8075 8.73586 75.8826 0.811035 66.1069 0.811035C56.3311 0.811035 48.4062 8.73586 48.4062 18.5116C48.4062 28.2874 56.3311 36.2122 66.1069 36.2122Z" fill="#8354BE"/>
  <path opacity="0.6" d="M80.8942 18.5116C80.8931 21.9609 79.686 25.3013 77.4818 27.9545C75.2776 30.6077 72.2152 32.4068 68.8245 33.0403C65.4338 33.6737 61.9283 33.1017 58.9149 31.4233C55.9015 29.7449 53.5697 27.0656 52.3233 23.8494C51.0768 20.6331 50.9942 17.0823 52.0896 13.8115C53.185 10.5407 55.3895 7.75582 58.3216 5.93896C61.2536 4.12209 64.7286 3.38758 68.1451 3.86255C71.5616 4.33753 74.7045 5.99211 77.0298 8.53987C77.0343 8.5378 77.0392 8.53673 77.0441 8.53673C77.0491 8.53673 77.054 8.5378 77.0585 8.53987C79.5378 11.268 80.9061 14.8252 80.8942 18.5116Z" fill="white"/>
  <path d="M80.8934 18.5119C80.8934 21.3858 80.0557 24.1974 78.4829 26.6028C76.9101 29.0082 74.6704 30.9031 72.0377 32.0556C69.4049 33.2082 66.4934 33.5684 63.6591 33.0923C60.8249 32.6162 58.1909 31.3244 56.0792 29.3749C53.4974 26.5615 52.1042 22.8583 52.1914 19.0408C52.2785 15.2233 53.8392 11.5876 56.5467 8.89495C59.2542 6.20231 62.8985 4.66161 66.7165 4.59548C70.5344 4.52935 74.2298 5.94292 77.029 8.54018C77.0335 8.53812 77.0384 8.53704 77.0433 8.53704C77.0483 8.53704 77.0532 8.53812 77.0577 8.54018C79.5369 11.2683 80.9053 14.8255 80.8934 18.5119Z" fill="white"/>
  <path d="M66.1072 19.3741C65.9939 19.3743 65.8817 19.3521 65.7771 19.3086C65.6724 19.2652 65.5775 19.2014 65.4976 19.1211L58.2863 11.9097C58.2015 11.8307 58.1335 11.7355 58.0864 11.6297C58.0392 11.5239 58.0139 11.4097 58.0119 11.2938C58.0098 11.178 58.0311 11.063 58.0745 10.9556C58.1179 10.8481 58.1825 10.7506 58.2644 10.6687C58.3463 10.5868 58.4439 10.5222 58.5513 10.4788C58.6587 10.4354 58.7737 10.4141 58.8895 10.4161C59.0054 10.4182 59.1196 10.4435 59.2254 10.4907C59.3312 10.5378 59.4264 10.6058 59.5054 10.6906L66.1072 17.2923L69.9199 13.4796C70.0834 13.3273 70.2997 13.2443 70.5232 13.2483C70.7466 13.2522 70.9599 13.3427 71.1179 13.5008C71.2759 13.6588 71.3665 13.872 71.3704 14.0955C71.3744 14.319 71.2914 14.5353 71.139 14.6988L66.7168 19.1211C66.5548 19.2823 66.3358 19.3733 66.1072 19.3741Z" fill="#263238"/>
</svg>
