<svg xmlns="http://www.w3.org/2000/svg" width="12" height="12" viewBox="0 0 12 12" fill="none">
  <path d="M11.135 4.71429C11.3493 4.71429 11.5636 4.82143 11.7243 4.98214C11.885 5.14286 11.9922 5.35714 11.9922 5.57143V6.42857C11.9922 6.66964 11.885 6.88393 11.7243 7.04464C11.5636 7.20536 11.3493 7.28571 11.135 7.28571H7.2779V11.1429C7.2779 11.3839 7.17076 11.5982 7.01004 11.7589C6.84933 11.9196 6.63504 12 6.42076 12H5.56362C5.32254 12 5.10826 11.9196 4.94754 11.7589C4.78683 11.5982 4.70647 11.3839 4.70647 11.1429V7.28571H0.84933C0.608259 7.28571 0.393973 7.20536 0.233259 7.04464C0.0725446 6.88393 -0.0078125 6.66964 -0.0078125 6.42857V5.57143C-0.0078125 5.35714 0.0725446 5.14286 0.233259 4.98214C0.393973 4.82143 0.608259 4.71429 0.84933 4.71429H4.70647V0.857143C4.70647 0.642857 4.78683 0.428571 4.94754 0.267857C5.10826 0.107143 5.32254 0 5.56362 0H6.42076C6.63504 0 6.84933 0.107143 7.01004 0.267857C7.17076 0.428571 7.2779 0.642857 7.2779 0.857143V4.71429H11.135Z" fill="#262626"/>
</svg>
