<svg width="49" height="49" viewBox="0 0 49 49" fill="none" xmlns="http://www.w3.org/2000/svg">
<path fill-rule="evenodd" clip-rule="evenodd" d="M12.2395 24.5C12.2395 24.9061 12.4008 25.2956 12.6879 25.5827C12.9751 25.8699 13.3646 26.0312 13.7707 26.0312H31.5118L24.9366 32.6034C24.7942 32.7457 24.6813 32.9147 24.6042 33.1008C24.5272 33.2868 24.4875 33.4861 24.4875 33.6875C24.4875 33.8888 24.5272 34.0882 24.6042 34.2742C24.6813 34.4602 24.7942 34.6292 24.9366 34.7716C25.0789 34.914 25.248 35.0269 25.434 35.104C25.62 35.181 25.8194 35.2207 26.0207 35.2207C26.222 35.2207 26.4214 35.181 26.6074 35.104C26.7934 35.0269 26.9625 34.914 27.1048 34.7716L36.2923 25.5841C36.4349 25.4419 36.5481 25.2729 36.6253 25.0869C36.7025 24.9008 36.7422 24.7014 36.7422 24.5C36.7422 24.2986 36.7025 24.0991 36.6253 23.9131C36.5481 23.7271 36.4349 23.5581 36.2923 23.4159L27.1048 14.2284C26.8173 13.9408 26.4273 13.7793 26.0207 13.7793C25.6141 13.7793 25.2241 13.9408 24.9366 14.2284C24.649 14.5159 24.4875 14.9059 24.4875 15.3125C24.4875 15.7191 24.649 16.1091 24.9366 16.3966L31.5118 22.9687H13.7707C13.3646 22.9687 12.9751 23.1301 12.6879 23.4172C12.4008 23.7044 12.2395 24.0939 12.2395 24.5Z" fill="white"/>
</svg>
