<svg xmlns="http://www.w3.org/2000/svg" width="49" height="49" viewBox="0 0 49 49" fill="none">
<path fill-rule="evenodd" clip-rule="evenodd" d="M36.7449 24.5C36.7449 24.9061 36.5836 25.2956 36.2964 25.5827C36.0093 25.8699 35.6198 26.0312 35.2137 26.0312H17.4726L24.0478 32.6034C24.1902 32.7457 24.3031 32.9147 24.3802 33.1008C24.4572 33.2868 24.4969 33.4861 24.4969 33.6875C24.4969 33.8888 24.4572 34.0882 24.3802 34.2742C24.3031 34.4602 24.1902 34.6292 24.0478 34.7716C23.9054 34.914 23.7364 35.0269 23.5504 35.104C23.3644 35.181 23.165 35.2207 22.9637 35.2207C22.7623 35.2207 22.563 35.181 22.377 35.104C22.1909 35.0269 22.0219 34.914 21.8795 34.7716L12.692 25.5841C12.5494 25.4419 12.4363 25.2729 12.3591 25.0869C12.2819 24.9008 12.2422 24.7014 12.2422 24.5C12.2422 24.2986 12.2819 24.0991 12.3591 23.9131C12.4363 23.7271 12.5494 23.5581 12.692 23.4159L21.8795 14.2284C22.1671 13.9408 22.557 13.7793 22.9637 13.7793C23.3703 13.7793 23.7603 13.9408 24.0478 14.2284C24.3353 14.5159 24.4969 14.9059 24.4969 15.3125C24.4969 15.7191 24.3353 16.1091 24.0478 16.3966L17.4726 22.9687H35.2137C35.6198 22.9687 36.0093 23.1301 36.2964 23.4172C36.5836 23.7044 36.7449 24.0939 36.7449 24.5Z" fill="black" fill-opacity="0.3"/>
</svg>
