<svg xmlns="http://www.w3.org/2000/svg" width="24" height="25" viewBox="0 0 24 25" fill="none">
  <path d="M22.75 21.5H21.5V7.75C21.5 7.41848 21.3683 7.10054 21.1339 6.86612C20.8995 6.6317 20.5815 6.5 20.25 6.5H16V1.75C16 1.41848 15.8683 1.10054 15.6339 0.866117C15.3995 0.631696 15.0815 0.5 14.75 0.5L3.25 0.5C2.91848 0.5 2.60054 0.631696 2.36612 0.866117C2.1317 1.10054 2 1.41848 2 1.75V21.5H1.25C0.918479 21.5 0.600537 21.6317 0.366117 21.8661C0.131696 22.1005 0 22.4185 0 22.75L0 23.25C0 23.4142 0.0323322 23.5767 0.0951506 23.7284C0.157969 23.88 0.250043 24.0178 0.366117 24.1339C0.48219 24.25 0.619989 24.342 0.771646 24.4049C0.923303 24.4677 1.08585 24.5 1.25 24.5H22.75C22.9142 24.5 23.0767 24.4677 23.2284 24.4049C23.38 24.342 23.5178 24.25 23.6339 24.1339C23.75 24.0178 23.842 23.88 23.9049 23.7284C23.9677 23.5767 24 23.4142 24 23.25V22.75C24 22.5858 23.9677 22.4233 23.9049 22.2716C23.842 22.12 23.75 21.9822 23.6339 21.8661C23.5178 21.75 23.38 21.658 23.2284 21.5951C23.0767 21.5323 22.9142 21.5 22.75 21.5ZM11 3.25C11 3.1837 11.0263 3.12011 11.0732 3.07322C11.1201 3.02634 11.1837 3 11.25 3H12.75C12.8163 3 12.8799 3.02634 12.9268 3.07322C12.9737 3.12011 13 3.1837 13 3.25V4.75C13 4.8163 12.9737 4.87989 12.9268 4.92678C12.8799 4.97366 12.8163 5 12.75 5H11.25C11.1837 5 11.1201 4.97366 11.0732 4.92678C11.0263 4.87989 11 4.8163 11 4.75V3.25ZM11 7.75C11 7.55109 11.079 7.36032 11.2197 7.21967C11.3603 7.07902 11.5511 7 11.75 7H20.25C20.4489 7 20.6397 7.07902 20.7803 7.21967C20.921 7.36032 21 7.55109 21 7.75V21.5H18V19C18 18.4696 17.7893 17.9609 17.4142 17.5858C17.0391 17.2107 16.5304 17 16 17C15.4696 17 14.9609 17.2107 14.5858 17.5858C14.2107 17.9609 14 18.4696 14 19V21.5H11V7.75ZM5 3.25C5 3.1837 5.02634 3.12011 5.07322 3.07322C5.12011 3.02634 5.1837 3 5.25 3H6.75C6.8163 3 6.87989 3.02634 6.92678 3.07322C6.97366 3.12011 7 3.1837 7 3.25V4.75C7 4.8163 6.97366 4.87989 6.92678 4.92678C6.87989 4.97366 6.8163 5 6.75 5H5.25C5.1837 5 5.12011 4.97366 5.07322 4.92678C5.02634 4.87989 5 4.8163 5 4.75V3.25ZM5 8.25C5 8.1837 5.02634 8.12011 5.07322 8.07322C5.12011 8.02634 5.1837 8 5.25 8H6.75C6.8163 8 6.87989 8.02634 6.92678 8.07322C6.97366 8.12011 7 8.1837 7 8.25V9.75C7 9.8163 6.97366 9.87989 6.92678 9.92678C6.87989 9.97366 6.8163 10 6.75 10H5.25C5.1837 10 5.12011 9.97366 5.07322 9.92678C5.02634 9.87989 5 9.8163 5 9.75V8.25ZM5 13.25C5 13.1837 5.02634 13.1201 5.07322 13.0732C5.12011 13.0263 5.1837 13 5.25 13H6.75C6.8163 13 6.87989 13.0263 6.92678 13.0732C6.97366 13.1201 7 13.1837 7 13.25V14.75C7 14.8163 6.97366 14.8799 6.92678 14.9268C6.87989 14.9737 6.8163 15 6.75 15H5.25C5.1837 15 5.12011 14.9737 5.07322 14.9268C5.02634 14.8799 5 14.8163 5 14.75V13.25ZM5 18.25C5 18.1837 5.02634 18.1201 5.07322 18.0732C5.12011 18.0263 5.1837 18 5.25 18H6.75C6.8163 18 6.87989 18.0263 6.92678 18.0732C6.97366 18.1201 7 18.1837 7 18.25V19.75C7 19.8163 6.97366 19.8799 6.92678 19.9268C6.87989 19.9737 6.8163 20 6.75 20H5.25C5.1837 20 5.12011 19.9737 5.07322 19.9268C5.02634 19.8799 5 19.8163 5 19.75V18.25ZM23.5 23.25C23.5 23.4489 23.421 23.6397 23.2803 23.7803C23.1397 23.921 22.9489 24 22.75 24H1.25C1.05109 24 0.860322 23.921 0.71967 23.7803C0.579018 23.6397 0.5 23.4489 0.5 23.25V22.75C0.5 22.5511 0.579018 22.3603 0.71967 22.2197C0.860322 22.079 1.05109 22 1.25 22H22.75C22.9489 22 23.1397 22.079 23.2803 22.2197C23.421 22.3603 23.5 22.5511 23.5 22.75V23.25Z" fill="#52379D"/>
  <path d="M14.25 8.5H12.75C12.3358 8.5 12 8.83579 12 9.25V10.75C12 11.1642 12.3358 11.5 12.75 11.5H14.25C14.6642 11.5 15 11.1642 15 10.75V9.25C15 8.83579 14.6642 8.5 14.25 8.5Z" fill="#52379D"/>
  <path d="M14.25 13H12.75C12.3358 13 12 13.3358 12 13.75V15.25C12 15.6642 12.3358 16 12.75 16H14.25C14.6642 16 15 15.6642 15 15.25V13.75C15 13.3358 14.6642 13 14.25 13Z" fill="#52379D"/>
  <path d="M19.2461 8.5H17.7461C17.3319 8.5 16.9961 8.83579 16.9961 9.25V10.75C16.9961 11.1642 17.3319 11.5 17.7461 11.5H19.2461C19.6603 11.5 19.9961 11.1642 19.9961 10.75V9.25C19.9961 8.83579 19.6603 8.5 19.2461 8.5Z" fill="#52379D"/>
  <path d="M19.2461 13H17.7461C17.3319 13 16.9961 13.3358 16.9961 13.75V15.25C16.9961 15.6642 17.3319 16 17.7461 16H19.2461C19.6603 16 19.9961 15.6642 19.9961 15.25V13.75C19.9961 13.3358 19.6603 13 19.2461 13Z" fill="#52379D"/>
</svg>
