<svg xmlns="http://www.w3.org/2000/svg" width="50" height="50" viewBox="0 0 50 50" fill="none">
  <path d="M24.9842 49.346C38.7869 49.346 49.9762 38.2995 49.9762 24.673C49.9762 11.0465 38.7869 0 24.9842 0C11.1815 0 -0.0078125 11.0465 -0.0078125 24.673C-0.0078125 38.2995 11.1815 49.346 24.9842 49.346Z" fill="#D5A150"/>
  <path d="M40.5469 5.42578C44.3636 10.2316 46.2793 16.2735 45.929 22.4005C45.5788 28.5276 42.987 34.3118 38.6475 38.6514C34.3079 42.9909 28.5237 45.5827 22.3966 45.9329C16.2696 46.2832 10.2277 44.3675 5.42188 40.5508C7.61318 43.31 10.363 45.5748 13.4909 47.1967C16.6189 48.8186 20.0544 49.761 23.5721 49.9621C27.0898 50.1632 30.6103 49.6185 33.9028 48.3636C37.1952 47.1087 40.1852 45.172 42.6766 42.6805C45.1681 40.1891 47.1048 37.1991 48.3597 33.9067C49.6146 30.6142 50.1593 27.0937 49.9582 23.576C49.7571 20.0583 48.8147 16.6228 47.1928 13.4948C45.5709 10.3669 43.306 7.61708 40.5469 5.42578Z" fill="#AD712C"/>
  <path d="M5.57486 30.2827C5.31056 30.2831 5.04879 30.2312 4.80458 30.1302C4.56038 30.0291 4.33855 29.8807 4.15186 29.6937C3.63806 29.1799 3.2305 28.5699 2.95243 27.8986C2.67437 27.2273 2.53125 26.5078 2.53125 25.7812C2.53125 25.0545 2.67437 24.335 2.95243 23.6637C3.2305 22.9924 3.63806 22.3824 4.15186 21.8687C4.66566 21.3549 5.27562 20.9473 5.94693 20.6692C6.61824 20.3912 7.33774 20.248 8.06436 20.248C8.79098 20.248 9.51048 20.3912 10.1818 20.6692C10.8531 20.9473 11.4631 21.3549 11.9769 21.8687C12.1637 22.0555 12.312 22.2774 12.4131 22.5215C12.5142 22.7657 12.5663 23.0274 12.5663 23.2917C12.5663 23.5559 12.5142 23.8176 12.4131 24.0618C12.312 24.3059 12.1637 24.5278 11.9769 24.7147C11.79 24.9015 11.5681 25.0498 11.324 25.1509C11.0798 25.252 10.8181 25.3041 10.5539 25.3041C10.2896 25.3041 10.0279 25.252 9.78374 25.1509C9.53958 25.0498 9.31773 24.9015 9.13086 24.7147C8.99108 24.573 8.82466 24.4604 8.64118 24.3833C8.4577 24.3062 8.26078 24.2662 8.06176 24.2655C7.86274 24.2648 7.66556 24.3035 7.48156 24.3794C7.29756 24.4552 7.13039 24.5667 6.98966 24.7075C6.84893 24.8482 6.73743 25.0154 6.66158 25.1994C6.58573 25.3834 6.54702 25.5805 6.54769 25.7796C6.54836 25.9786 6.58839 26.1755 6.66548 26.359C6.74257 26.5425 6.85519 26.7089 6.99686 26.8487C7.27837 27.13 7.47009 27.4886 7.54777 27.879C7.62545 28.2693 7.58561 28.674 7.43327 29.0417C7.28094 29.4094 7.02296 29.7237 6.69198 29.9448C6.361 30.1658 5.97188 30.2838 5.57386 30.2837L5.57486 30.2827Z" fill="#C98A2E"/>
  <path d="M8.06006 29.3037C10.0047 29.3037 11.5811 27.7273 11.5811 25.7827C11.5811 23.8381 10.0047 22.2617 8.06006 22.2617C6.11547 22.2617 4.53906 23.8381 4.53906 25.7827C4.53906 27.7273 6.11547 29.3037 8.06006 29.3037Z" fill="#674230"/>
  <path d="M12.6139 40.3432C12.3496 40.3436 12.0879 40.2918 11.8437 40.1907C11.5994 40.0896 11.3776 39.9413 11.1909 39.7542C10.1533 38.7166 9.57031 37.3092 9.57031 35.8417C9.57031 34.3742 10.1533 32.9669 11.1909 31.9292C12.2286 30.8915 13.636 30.3086 15.1034 30.3086C16.5709 30.3086 17.9783 30.8915 19.0159 31.9292C19.3933 32.3066 19.6053 32.8185 19.6053 33.3522C19.6053 33.8859 19.3933 34.3978 19.0159 34.7752C18.6385 35.1526 18.1267 35.3646 17.5929 35.3646C17.0592 35.3646 16.5473 35.1526 16.1699 34.7752C15.8863 34.4954 15.5035 34.3391 15.105 34.3404C14.7066 34.3417 14.3248 34.5006 14.0431 34.7823C13.7613 35.0641 13.6024 35.4458 13.6011 35.8443C13.5998 36.2428 13.7561 36.6256 14.0359 36.9092C14.3174 37.1906 14.5091 37.5491 14.5868 37.9395C14.6645 38.3299 14.6247 38.7345 14.4723 39.1022C14.32 39.47 14.062 39.7842 13.731 40.0053C13.4001 40.2264 13.0109 40.3443 12.6129 40.3442L12.6139 40.3432Z" fill="#C98A2E"/>
  <path d="M15.1069 39.3643C17.0515 39.3643 18.6279 37.7879 18.6279 35.8433C18.6279 33.8987 17.0515 32.3223 15.1069 32.3223C13.1623 32.3223 11.5859 33.8987 11.5859 35.8433C11.5859 37.7879 13.1623 39.3643 15.1069 39.3643Z" fill="#674230"/>
  <path d="M11.599 35.5058V35.5468C11.5788 35.8217 11.6169 36.0977 11.7107 36.3569C11.8046 36.6161 11.9521 36.8525 12.1436 37.0508C12.3352 37.249 12.5664 37.4045 12.8222 37.5073C13.078 37.61 13.3526 37.6575 13.628 37.6468C13.7053 37.6468 13.7833 37.6414 13.862 37.6308C14.6701 37.5453 15.424 37.1837 15.9964 36.6069C16.5688 36.0301 16.9247 35.2735 17.004 34.4648C17.004 34.4508 17.004 34.4378 17.004 34.4238C17.0242 34.1489 16.9861 33.8728 16.8923 33.6136C16.7984 33.3544 16.6509 33.118 16.4594 32.9198C16.2679 32.7215 16.0366 32.566 15.7808 32.4633C15.525 32.3606 15.2504 32.313 14.975 32.3238C14.8977 32.3238 14.8197 32.3291 14.741 32.3398C13.9328 32.425 13.1788 32.7866 12.6064 33.3634C12.0339 33.9402 11.6781 34.697 11.599 35.5058Z" fill="#7A5436"/>
  <path d="M23.6842 47.3862C23.4199 47.3866 23.1582 47.3348 22.914 47.2337C22.6698 47.1326 22.4479 46.9843 22.2612 46.7972C21.2236 45.7595 20.6406 44.3521 20.6406 42.8847C20.6406 41.4172 21.2236 40.0099 22.2612 38.9722C23.2989 37.9345 24.7063 37.3516 26.1737 37.3516C27.6412 37.3516 29.0486 37.9345 30.0862 38.9722C30.4636 39.3496 30.6757 39.8614 30.6757 40.3952C30.6757 40.9289 30.4636 41.4408 30.0862 41.8182C29.7088 42.1956 29.197 42.4076 28.6632 42.4076C28.1295 42.4076 27.6176 42.1956 27.2402 41.8182C26.9566 41.5383 26.5738 41.382 26.1753 41.3834C25.7769 41.3847 25.3951 41.5436 25.1134 41.8253C24.8316 42.1071 24.6728 42.4888 24.6714 42.8873C24.6701 43.2857 24.8264 43.6685 25.1062 43.9522C25.3877 44.2336 25.5795 44.5921 25.6572 44.9825C25.7348 45.3729 25.695 45.7775 25.5426 46.1452C25.3903 46.513 25.1323 46.8272 24.8014 47.0483C24.4704 47.2694 24.0813 47.3873 23.6832 47.3872L23.6842 47.3862Z" fill="#C98A2E"/>
  <path d="M26.1694 46.4053C28.114 46.4053 29.6904 44.8289 29.6904 42.8843C29.6904 40.9397 28.114 39.3633 26.1694 39.3633C24.2248 39.3633 22.6484 40.9397 22.6484 42.8843C22.6484 44.8289 24.2248 46.4053 26.1694 46.4053Z" fill="#674230"/>
  <path d="M22.6615 42.5487V42.5897C22.6413 42.8646 22.6794 43.1407 22.7732 43.3999C22.8671 43.6591 23.0146 43.8955 23.2061 44.0937C23.3977 44.292 23.6289 44.4475 23.8847 44.5502C24.1405 44.6529 24.4151 44.7005 24.6905 44.6897C24.7679 44.6897 24.8458 44.6844 24.9245 44.6737C25.7327 44.5885 26.4867 44.2269 27.0591 43.6501C27.6316 43.0733 27.9874 42.3165 28.0665 41.5077C28.0665 41.4937 28.0665 41.4807 28.0665 41.4667C28.0867 41.1918 28.0486 40.9158 27.9548 40.6566C27.8609 40.3974 27.7134 40.161 27.5219 39.9627C27.3304 39.7645 27.0991 39.609 26.8434 39.5062C26.5876 39.4035 26.313 39.356 26.0375 39.3667C25.9602 39.3667 25.8822 39.3721 25.8035 39.3827C24.9954 39.4682 24.2415 39.8298 23.6691 40.4066C23.0967 40.9834 22.7408 41.74 22.6615 42.5487Z" fill="#7A5436"/>
  <path d="M25.692 19.226C25.4277 19.2264 25.166 19.1746 24.9218 19.0735C24.6776 18.9724 24.4558 18.8241 24.2691 18.637C23.2314 17.5994 22.6484 16.192 22.6484 14.7245C22.6484 13.257 23.2314 11.8497 24.2691 10.812C25.3067 9.77436 26.7141 9.19141 28.1815 9.19141C29.649 9.19141 31.0564 9.77436 32.0941 10.812C32.4715 11.1894 32.6835 11.7013 32.6835 12.235C32.6835 12.7687 32.4715 13.2806 32.0941 13.658C31.7167 14.0354 31.2048 14.2474 30.6711 14.2474C30.1373 14.2474 29.6255 14.0354 29.248 13.658C28.9644 13.3782 28.5816 13.2219 28.1832 13.2232C27.7847 13.2245 27.4029 13.3834 27.1212 13.6652C26.8395 13.9469 26.6806 14.3287 26.6792 14.7271C26.6779 15.1256 26.8342 15.5084 27.1141 15.792C27.3956 16.0734 27.5873 16.432 27.665 16.8223C27.7426 17.2127 27.7028 17.6173 27.5505 17.9851C27.3981 18.3528 27.1402 18.667 26.8092 18.8881C26.4782 19.1092 26.0891 19.2271 25.6911 19.227L25.692 19.226Z" fill="#C98A2E"/>
  <path d="M28.1851 18.249C30.1297 18.249 31.7061 16.6726 31.7061 14.728C31.7061 12.7834 30.1297 11.207 28.1851 11.207C26.2405 11.207 24.6641 12.7834 24.6641 14.728C24.6641 16.6726 26.2405 18.249 28.1851 18.249Z" fill="#674230"/>
  <path d="M37.7624 37.3276C37.4981 37.328 37.2363 37.2762 36.9921 37.1751C36.7479 37.074 36.5261 36.9257 36.3394 36.7386C35.3017 35.7009 34.7187 34.2936 34.7188 32.8261C34.7188 31.3586 35.3017 29.9512 36.3394 28.9136C37.377 27.8759 38.7844 27.293 40.2519 27.293C41.7193 27.293 43.1267 27.8759 44.1643 28.9136C44.5417 29.291 44.7538 29.8028 44.7538 30.3366C44.7538 30.8703 44.5417 31.3822 44.1643 31.7596C43.7869 32.137 43.2751 32.349 42.7413 32.349C42.2076 32.349 41.6958 32.137 41.3184 31.7596C41.0347 31.4797 40.6519 31.3234 40.2534 31.3248C39.855 31.3261 39.4732 31.485 39.1915 31.7667C38.9097 32.0485 38.7509 32.4302 38.7495 32.8287C38.7482 33.2271 38.9045 33.6099 39.1844 33.8936C39.4655 34.175 39.6569 34.5333 39.7344 34.9234C39.8119 35.3135 39.772 35.7179 39.6199 36.0854C39.4677 36.4528 39.21 36.7669 38.8794 36.988C38.5488 37.2091 38.1601 37.3273 37.7624 37.3276Z" fill="#C98A2E"/>
  <path d="M40.2554 36.3467C42.2 36.3467 43.7764 34.7703 43.7764 32.8257C43.7764 30.8811 42.2 29.3047 40.2554 29.3047C38.3108 29.3047 36.7344 30.8811 36.7344 32.8257C36.7344 34.7703 38.3108 36.3467 40.2554 36.3467Z" fill="#674230"/>
  <path d="M36.7475 32.4872C36.7475 32.5012 36.7475 32.5142 36.7475 32.5282C36.7273 32.8031 36.7653 33.0792 36.8592 33.3383C36.953 33.5975 37.1006 33.834 37.2921 34.0322C37.4836 34.2304 37.7148 34.386 37.9706 34.4887C38.2264 34.5914 38.501 34.6389 38.7765 34.6282C38.8535 34.6282 38.9315 34.6202 39.0105 34.6122C39.8186 34.5269 40.5726 34.1653 41.1451 33.5885C41.7175 33.0117 42.0733 32.255 42.1525 31.4462C42.1525 31.4322 42.1525 31.4192 42.1525 31.4062C42.1727 31.1313 42.1346 30.8552 42.0407 30.596C41.9469 30.3369 41.7994 30.1004 41.6078 29.9022C41.4163 29.7039 41.1851 29.5484 40.9293 29.4457C40.6735 29.343 40.3989 29.2954 40.1235 29.3062C40.0461 29.3062 39.9681 29.3115 39.8895 29.3222C39.0815 29.4076 38.3278 29.7691 37.7554 30.3457C37.183 30.9222 36.827 31.6786 36.7475 32.4872Z" fill="#7A5436"/>
  <path d="M36.7624 18.2104C36.4981 18.2108 36.2363 18.159 35.9921 18.0579C35.7479 17.9568 35.5261 17.8085 35.3394 17.6214C34.3017 16.5837 33.7187 15.1764 33.7188 13.7089C33.7188 12.2414 34.3017 10.8341 35.3394 9.79639C36.377 8.75873 37.7844 8.17578 39.2519 8.17578C40.7193 8.17578 42.1267 8.75873 43.1644 9.79639C43.5418 10.1738 43.7538 10.6857 43.7538 11.2194C43.7538 11.7531 43.5418 12.265 43.1644 12.6424C42.787 13.0198 42.2751 13.2318 41.7414 13.2318C41.2076 13.2318 40.6958 13.0198 40.3184 12.6424C40.0347 12.3625 39.6519 12.2062 39.2535 12.2076C38.855 12.2089 38.4733 12.3678 38.1915 12.6495C37.9098 12.9313 37.7509 13.313 37.7495 13.7115C37.7482 14.1099 37.9045 14.4928 38.1844 14.7764C38.4659 15.0578 38.6576 15.4163 38.7353 15.8067C38.8129 16.1971 38.7731 16.6017 38.6208 16.9694C38.4685 17.3372 38.2105 17.6514 37.8795 17.8725C37.5485 18.0936 37.1594 18.2115 36.7614 18.2114L36.7624 18.2104Z" fill="#C98A2E"/>
  <path d="M21.6686 30.2846C21.4043 30.285 21.1425 30.2332 20.8983 30.1321C20.6541 30.031 20.4323 29.8827 20.2456 29.6956C19.7318 29.1818 19.3242 28.5718 19.0462 27.9005C18.7681 27.2292 18.625 26.5097 18.625 25.7831C18.625 25.0565 18.7681 24.337 19.0462 23.6657C19.3242 22.9944 19.7318 22.3844 20.2456 21.8706C20.7594 21.3568 21.3694 20.9492 22.0407 20.6712C22.712 20.3931 23.4315 20.25 24.1581 20.25C24.8847 20.25 25.6042 20.3931 26.2755 20.6712C26.9469 20.9492 27.5568 21.3568 28.0706 21.8706C28.448 22.248 28.66 22.7599 28.66 23.2936C28.66 23.8273 28.448 24.3392 28.0706 24.7166C27.6932 25.094 27.1813 25.306 26.6476 25.306C26.1139 25.306 25.602 25.094 25.2246 24.7166C24.941 24.4368 24.5582 24.2804 24.1597 24.2818C23.7613 24.2831 23.3795 24.442 23.0978 24.7238C22.816 25.0055 22.6571 25.3873 22.6558 25.7857C22.6545 26.1842 22.8108 26.567 23.0906 26.8506C23.3721 27.132 23.5638 27.4906 23.6415 27.8809C23.7192 28.2713 23.6794 28.6759 23.527 29.0436C23.3747 29.4114 23.1167 29.7256 22.7857 29.9467C22.4548 30.1678 22.0656 30.2857 21.6676 30.2856L21.6686 30.2846Z" fill="#C98A2E"/>
  <path d="M24.1616 29.3037C26.1062 29.3037 27.6826 27.7273 27.6826 25.7827C27.6826 23.8381 26.1062 22.2617 24.1616 22.2617C22.217 22.2617 20.6406 23.8381 20.6406 25.7827C20.6406 27.7273 22.217 29.3037 24.1616 29.3037Z" fill="#674230"/>
  <path d="M20.6537 25.4452V25.4862C20.6335 25.7611 20.6716 26.0372 20.7654 26.2964C20.8593 26.5555 21.0068 26.792 21.1983 26.9902C21.3898 27.1884 21.6211 27.344 21.8769 27.4467C22.1327 27.5494 22.4073 27.5969 22.6827 27.5862C22.76 27.5862 22.838 27.5809 22.9167 27.5702C23.7248 27.4848 24.4787 27.1231 25.0511 26.5463C25.6235 25.9696 25.9794 25.2129 26.0587 24.4042C26.0587 24.3902 26.0587 24.3772 26.0587 24.3632C26.0789 24.0883 26.0408 23.8122 25.947 23.5531C25.8531 23.2939 25.7056 23.0574 25.5141 22.8592C25.3225 22.661 25.0913 22.5054 24.8355 22.4027C24.5797 22.3 24.3051 22.2525 24.0297 22.2632C23.9524 22.2632 23.8744 22.2685 23.7957 22.2792C22.9876 22.3647 22.2337 22.7263 21.6613 23.3031C21.0889 23.8799 20.733 24.6365 20.6537 25.4452Z" fill="#7A5436"/>
</svg>
