<svg width="39" height="24" viewBox="0 0 39 24" fill="none" xmlns="http://www.w3.org/2000/svg">
<path d="M9.62173 10.4897C9.35744 10.4901 9.09566 10.4383 8.85146 10.3372C8.60725 10.2361 8.38543 10.0878 8.19873 9.90069C7.68493 9.38689 7.27737 8.77693 6.99931 8.10562C6.72124 7.43431 6.57812 6.71481 6.57812 5.98819C6.57812 5.26157 6.72124 4.54207 6.99931 3.87076C7.27737 3.19945 7.68493 2.58948 8.19873 2.07569C9.23639 1.03803 10.6438 0.455078 12.1112 0.455078C12.8379 0.455078 13.5574 0.598198 14.2287 0.876263C14.9 1.15433 15.5099 1.56189 16.0237 2.07569C16.4011 2.45309 16.6132 2.96496 16.6132 3.49869C16.6132 4.03242 16.4011 4.54428 16.0237 4.92169C15.6463 5.29909 15.1345 5.51112 14.6007 5.51112C14.067 5.51112 13.5551 5.29909 13.1777 4.92169C12.8941 4.64184 12.5113 4.48553 12.1128 4.48687C11.7144 4.48821 11.3326 4.64709 11.0509 4.92884C10.7691 5.21059 10.6103 5.59234 10.6089 5.99079C10.6076 6.38924 10.7639 6.77205 11.0437 7.05569C11.3252 7.33707 11.517 7.69563 11.5946 8.086C11.6723 8.47637 11.6325 8.88101 11.4801 9.24873C11.3278 9.61645 11.0698 9.93073 10.7389 10.1518C10.4079 10.3729 10.0188 10.4908 9.62074 10.4907L9.62173 10.4897Z" fill="#C98A2E"/>
<path d="M8.60683 5.65028V5.69128C8.58663 5.96619 8.6247 6.24226 8.71855 6.50143C8.8124 6.76061 8.95991 6.99704 9.15144 7.19527C9.34297 7.3935 9.57419 7.54906 9.82999 7.65177C10.0858 7.75448 10.3604 7.80202 10.6358 7.79128C10.7132 7.79128 10.7912 7.78595 10.8698 7.77528C11.6779 7.68984 12.4318 7.3282 13.0042 6.75142C13.5766 6.17463 13.9325 5.41802 14.0118 4.60928C14.0118 4.59528 14.0118 4.58228 14.0118 4.56828C14.032 4.29338 13.994 4.01731 13.9001 3.75813C13.8062 3.49896 13.6587 3.26252 13.4672 3.06429C13.2757 2.86606 13.0444 2.7105 12.7887 2.60779C12.5329 2.50509 12.2583 2.45755 11.9828 2.46828C11.9055 2.46828 11.8275 2.47361 11.7488 2.48428C10.9406 2.56954 10.1867 2.93112 9.61421 3.50794C9.04176 4.08476 8.68593 4.84148 8.60683 5.65028Z" fill="#7A5436"/>
<path d="M0.55214 21.7479V21.7889C0.53194 22.0638 0.570009 22.3399 0.663861 22.5991C0.757712 22.8583 0.905231 23.0947 1.09676 23.2929C1.28829 23.4912 1.51952 23.6467 1.77531 23.7494C2.03111 23.8521 2.3057 23.8997 2.58114 23.8889C2.65847 23.8889 2.73647 23.8836 2.81514 23.8729C3.62325 23.7875 4.37713 23.4259 4.94955 22.8491C5.52196 22.2723 5.87785 21.5157 5.95714 20.7069C5.95714 20.6929 5.95714 20.6799 5.95714 20.6659C5.97734 20.391 5.93927 20.115 5.84541 19.8558C5.75156 19.5966 5.60405 19.3602 5.41252 19.1619C5.22099 18.9637 4.98976 18.8082 4.73397 18.7055C4.47817 18.6027 4.20357 18.5552 3.92814 18.5659C3.85081 18.5659 3.7728 18.5713 3.69414 18.5819C2.88603 18.6674 2.13215 19.029 1.55973 19.6058C0.987317 20.1826 0.631429 20.9392 0.55214 21.7479Z" fill="#7A5436"/>
<path d="M20.6771 10.6972V10.7382C20.6569 11.0131 20.695 11.2891 20.7889 11.5483C20.8827 11.8075 21.0302 12.0439 21.2218 12.2421C21.4133 12.4404 21.6445 12.5959 21.9003 12.6986C22.1561 12.8014 22.4307 12.8489 22.7061 12.8382C22.7835 12.8382 22.8615 12.8328 22.9401 12.8222C23.7483 12.7369 24.5023 12.3753 25.0748 11.7985C25.6472 11.2217 26.003 10.465 26.0821 9.65616C26.0821 9.64216 26.0821 9.62916 26.0821 9.61516C26.1023 9.34025 26.0643 9.06418 25.9704 8.80501C25.8766 8.54583 25.7291 8.3094 25.5375 8.11117C25.346 7.91293 25.1148 7.75738 24.859 7.65467C24.6032 7.55196 24.3286 7.50442 24.0531 7.51516C23.9761 7.51516 23.8981 7.52316 23.8191 7.53116C23.011 7.61642 22.257 7.97799 21.6845 8.55482C21.1121 9.13164 20.7562 9.88835 20.6771 10.6972Z" fill="#7A5436"/>
<path d="M35.2476 13.5342C37.1922 13.5342 38.7686 11.9578 38.7686 10.0132C38.7686 8.06859 37.1922 6.49219 35.2476 6.49219C33.303 6.49219 31.7266 8.06859 31.7266 10.0132C31.7266 11.9578 33.303 13.5342 35.2476 13.5342Z" fill="#674230"/>
<path d="M31.7396 9.67763C31.7396 9.69163 31.7396 9.70463 31.7396 9.71863C31.7194 9.99353 31.7575 10.2696 31.8514 10.5288C31.9452 10.788 32.0927 11.0244 32.2843 11.2226C32.4758 11.4208 32.707 11.5764 32.9628 11.6791C33.2186 11.7818 33.4932 11.8294 33.7686 11.8186C33.8456 11.8186 33.9236 11.8106 34.0026 11.8026C34.8107 11.7172 35.5646 11.3555 36.137 10.7788C36.7095 10.202 37.0653 9.44536 37.1446 8.63663C37.1446 8.62263 37.1446 8.60962 37.1446 8.59562C37.1648 8.32072 37.1268 8.04465 37.0329 7.78547C36.9391 7.5263 36.7916 7.28987 36.6 7.09163C36.4085 6.8934 36.1773 6.73784 35.9215 6.63514C35.6657 6.53243 35.3911 6.48489 35.1156 6.49563C35.0383 6.49563 34.9603 6.50096 34.8816 6.51163C34.0735 6.59707 33.3197 6.9587 32.7472 7.53549C32.1748 8.11228 31.8189 8.86889 31.7396 9.67763Z" fill="#7A5436"/>
</svg>
