<svg xmlns="http://www.w3.org/2000/svg" width="24" height="24" viewBox="0 0 24 24" fill="none">
<path d="M16.34 9.32205C16.4361 9.23249 16.5136 9.12488 16.568 9.00538C16.6225 8.88587 16.6529 8.75681 16.6575 8.62555C16.6621 8.4943 16.6408 8.36342 16.5948 8.2404C16.5488 8.11737 16.4791 8.00461 16.3895 7.90855C16.2999 7.81249 16.1923 7.73501 16.0728 7.68053C15.9533 7.62605 15.8243 7.59565 15.693 7.59105C15.5618 7.58646 15.4309 7.60776 15.3079 7.65374C15.1848 7.69972 15.0721 7.76949 14.976 7.85905L12.05 10.587L9.32201 7.66005C9.13948 7.47309 8.89102 7.36501 8.6298 7.35891C8.36859 7.35282 8.11536 7.44921 7.92431 7.62745C7.73327 7.8057 7.61957 8.05164 7.60755 8.31265C7.59553 8.57366 7.68615 8.829 7.86001 9.02405L10.588 11.95L7.66101 14.6781C7.56155 14.7667 7.48082 14.8743 7.42354 14.9946C7.36626 15.1149 7.3336 15.2454 7.32747 15.3785C7.32135 15.5116 7.34188 15.6446 7.38786 15.7696C7.43384 15.8947 7.50434 16.0093 7.59523 16.1067C7.68612 16.2041 7.79555 16.2824 7.91711 16.3369C8.03867 16.3915 8.16991 16.4212 8.3031 16.4243C8.4363 16.4274 8.56877 16.4038 8.69274 16.355C8.81671 16.3062 8.92968 16.2331 9.02501 16.14L11.951 13.413L14.679 16.3391C14.7671 16.4403 14.8747 16.5229 14.9953 16.5817C15.116 16.6405 15.2472 16.6745 15.3813 16.6815C15.5153 16.6885 15.6494 16.6685 15.7756 16.6226C15.9017 16.5767 16.0173 16.5058 16.1155 16.4143C16.2137 16.3228 16.2924 16.2124 16.3471 16.0898C16.4017 15.9672 16.4311 15.8348 16.4334 15.7006C16.4358 15.5664 16.4112 15.4331 16.3609 15.3086C16.3107 15.1841 16.2359 15.071 16.141 14.976L13.414 12.05L16.34 9.32205Z" fill="#52379D"/>
<path fill-rule="evenodd" clip-rule="evenodd" d="M1 12C1 5.925 5.925 1 12 1C18.075 1 23 5.925 23 12C23 18.075 18.075 23 12 23C5.925 23 1 18.075 1 12ZM12 21C10.8181 21 9.64778 20.7672 8.55585 20.3149C7.46392 19.8626 6.47177 19.1997 5.63604 18.364C4.80031 17.5282 4.13738 16.5361 3.68508 15.4442C3.23279 14.3522 3 13.1819 3 12C3 10.8181 3.23279 9.64778 3.68508 8.55585C4.13738 7.46392 4.80031 6.47177 5.63604 5.63604C6.47177 4.80031 7.46392 4.13738 8.55585 3.68508C9.64778 3.23279 10.8181 3 12 3C14.3869 3 16.6761 3.94821 18.364 5.63604C20.0518 7.32387 21 9.61305 21 12C21 14.3869 20.0518 16.6761 18.364 18.364C16.6761 20.0518 14.3869 21 12 21Z" fill="#52379D"/>
</svg>
