<svg width="28" height="28" viewBox="0 0 28 28" fill="none" xmlns="http://www.w3.org/2000/svg">
<path d="M13.9987 2.3335C17.1685 2.3335 17.564 2.34516 18.8077 2.4035C20.0502 2.46183 20.896 2.65666 21.6404 2.946C22.4104 3.24233 23.059 3.64366 23.7077 4.29116C24.3009 4.87437 24.76 5.57985 25.0529 6.3585C25.341 7.10166 25.537 7.94866 25.5954 9.19116C25.6502 10.4348 25.6654 10.8303 25.6654 14.0002C25.6654 17.17 25.6537 17.5655 25.5954 18.8092C25.537 20.0517 25.341 20.8975 25.0529 21.6418C24.7608 22.4209 24.3017 23.1266 23.7077 23.7092C23.1243 24.3022 22.4189 24.7612 21.6404 25.0543C20.8972 25.3425 20.0502 25.5385 18.8077 25.5968C17.564 25.6517 17.1685 25.6668 13.9987 25.6668C10.8289 25.6668 10.4334 25.6552 9.1897 25.5968C7.9472 25.5385 7.10136 25.3425 6.35703 25.0543C5.57808 24.7621 4.87248 24.3029 4.2897 23.7092C3.69634 23.126 3.23728 22.4205 2.94453 21.6418C2.6552 20.8987 2.46036 20.0517 2.40203 18.8092C2.3472 17.5655 2.33203 17.17 2.33203 14.0002C2.33203 10.8303 2.3437 10.4348 2.40203 9.19116C2.46036 7.9475 2.6552 7.10283 2.94453 6.3585C3.23647 5.57937 3.69564 4.8737 4.2897 4.29116C4.87265 3.6976 5.5782 3.23851 6.35703 2.946C7.10136 2.65666 7.94603 2.46183 9.1897 2.4035C10.4334 2.34866 10.8289 2.3335 13.9987 2.3335ZM13.9987 8.16683C12.4516 8.16683 10.9679 8.78141 9.87391 9.87537C8.77995 10.9693 8.16537 12.4531 8.16537 14.0002C8.16537 15.5473 8.77995 17.031 9.87391 18.125C10.9679 19.2189 12.4516 19.8335 13.9987 19.8335C15.5458 19.8335 17.0295 19.2189 18.1235 18.125C19.2175 17.031 19.832 15.5473 19.832 14.0002C19.832 12.4531 19.2175 10.9693 18.1235 9.87537C17.0295 8.78141 15.5458 8.16683 13.9987 8.16683ZM21.582 7.87516C21.582 7.48839 21.4284 7.11746 21.1549 6.84397C20.8814 6.57048 20.5105 6.41683 20.1237 6.41683C19.7369 6.41683 19.366 6.57048 19.0925 6.84397C18.819 7.11746 18.6654 7.48839 18.6654 7.87516C18.6654 8.26194 18.819 8.63287 19.0925 8.90636C19.366 9.17985 19.7369 9.3335 20.1237 9.3335C20.5105 9.3335 20.8814 9.17985 21.1549 8.90636C21.4284 8.63287 21.582 8.26194 21.582 7.87516ZM13.9987 10.5002C14.927 10.5002 15.8172 10.8689 16.4736 11.5253C17.13 12.1817 17.4987 13.0719 17.4987 14.0002C17.4987 14.9284 17.13 15.8187 16.4736 16.475C15.8172 17.1314 14.927 17.5002 13.9987 17.5002C13.0704 17.5002 12.1802 17.1314 11.5238 16.475C10.8674 15.8187 10.4987 14.9284 10.4987 14.0002C10.4987 13.0719 10.8674 12.1817 11.5238 11.5253C12.1802 10.8689 13.0704 10.5002 13.9987 10.5002Z" fill="#52379D"/>
</svg>
