<svg xmlns="http://www.w3.org/2000/svg" width="24" height="21" viewBox="0 0 24 21" fill="none">
  <path d="M23.3149 5.61633C23.3149 5.57245 23.3149 5.53194 23.2879 5.48806C22.6127 2.1832 19.3754 -0.0785478 16.0739 0.630359C15.9355 0.660741 15.7937 0.697874 15.6519 0.738383C14.0034 1.22776 12.5995 2.31959 11.7192 3.79681C10.8389 2.31959 9.43496 1.22776 7.78645 0.738383C7.64467 0.697874 7.50289 0.660741 7.36448 0.630359C4.063 -0.0785478 0.842542 2.1832 0.150514 5.48806C0.150514 5.53194 0.133635 5.57245 0.123508 5.61633C-0.825077 10.6361 3.75244 16.7799 11.7192 20.5C19.686 16.7799 24.2635 10.6361 23.3149 5.61633Z" fill="#52379D"/>
</svg>
