<svg xmlns="http://www.w3.org/2000/svg" width="90" height="110" viewBox="0 0 90 110" fill="none">
  <path d="M79.3665 64.8666L82.3144 99.0118C82.5502 101.791 80.8531 104.23 78.5242 104.428L13.7291 109.986C11.4129 110.189 9.31985 108.075 9.09665 105.299L6.14874 71.1498C6.09023 70.5088 6.14006 69.8624 6.29613 69.2379C6.75937 67.3302 8.16595 65.8688 9.92628 65.7383L74.7214 60.1752C76.4775 60.0236 78.0905 61.2069 78.8948 63.0009C79.154 63.5925 79.3134 64.2229 79.3665 64.8666Z" fill="#52379D"/>
  <path opacity="0.1" d="M79.3665 64.8666L82.3144 99.0118C82.5502 101.791 80.8531 104.23 78.5242 104.428L13.7291 109.986C11.4129 110.189 9.31985 108.075 9.09665 105.299L6.14874 71.1498C6.09023 70.5088 6.14006 69.8624 6.29613 69.2379C6.75937 67.3302 8.16595 65.8688 9.92628 65.7383L74.7214 60.1752C76.4775 60.0236 78.0905 61.2069 78.8948 63.0009C79.154 63.5925 79.3134 64.2229 79.3665 64.8666Z" fill="black"/>
  <path d="M87.0537 84.9952L86.5938 85.0508L86.7797 86.5894L87.2396 86.5338L87.0537 84.9952Z" fill="#52379D"/>
  <path d="M86.163 77.5675L85.7031 77.623L86.3958 83.355L86.8557 83.2995L86.163 77.5675Z" fill="#52379D"/>
  <path d="M82.2615 58.7604L86.4981 93.7816C86.8392 96.6284 85.1799 99.1973 82.8048 99.4837L16.3546 107.523C13.9794 107.809 11.7516 105.712 11.4063 102.861L7.16974 67.8441C7.08913 67.1856 7.11759 66.5183 7.25396 65.869C7.67509 63.8939 9.0564 62.3568 10.863 62.1378L77.3132 54.1027C79.1199 53.8837 80.8381 55.0418 81.7098 56.8611C81.9971 57.4595 82.1835 58.1012 82.2615 58.7604Z" fill="#52379D"/>
  <path opacity="0.1" d="M81.7167 56.8611L51.5764 77.1553C50.1013 78.1636 48.4052 78.8021 46.6314 79.0169C44.8576 79.2316 43.0581 79.0164 41.385 78.3893L7.27344 65.869C7.69457 63.8939 9.07588 62.3568 10.8825 62.1378L77.3327 54.1027C79.1267 53.8837 80.8449 55.0418 81.7167 56.8611Z" fill="black"/>
  <path d="M70.4669 64.4291L61.8085 70.2575L58.9743 72.1694L51.5708 77.1556C50.1339 78.1416 48.4848 78.7751 46.7573 79.0048C45.0299 79.2346 43.2726 79.0541 41.6279 78.478L41.3626 78.3895L37.2102 76.865L27.8611 73.4328L23.4898 71.8283L18.5373 70.009L18.1794 61.2537L17.375 41.7975L55.4157 40.252L69.9152 51.2392L70.0668 54.9747L70.4669 64.4291Z" fill="#52379D"/>
  <path opacity="0.7" d="M70.4669 64.4291L61.8085 70.2575L58.9743 72.1694L51.5708 77.1556C50.1339 78.1416 48.4848 78.7751 46.7573 79.0048C45.0299 79.2346 43.2726 79.0541 41.6279 78.478L41.3626 78.3895L37.2102 76.865L27.8611 73.4328L23.4898 71.8283L18.5373 70.009L18.1794 61.2537L17.375 41.7975L55.4157 40.252L69.9152 51.2392L70.0668 54.9747L70.4669 64.4291Z" fill="#FAFAFA"/>
  <g opacity="0.9">
    <path d="M65.1032 55.1096L22.9901 56.8194C22.7552 56.8287 22.526 56.7458 22.3514 56.5884C22.1767 56.4311 22.0704 56.2117 22.0552 55.9771C22.0471 55.7429 22.1305 55.5148 22.2877 55.341C22.4449 55.1673 22.6637 55.0616 22.8975 55.0464L65.0105 53.3366C65.2454 53.3274 65.4747 53.4102 65.6493 53.5676C65.824 53.7249 65.9303 53.9443 65.9455 54.1789C65.9547 54.4134 65.8717 54.6421 65.7142 54.8161C65.5568 54.9901 65.3374 55.0955 65.1032 55.1096Z" fill="white"/>
    <path d="M65.3298 60.7064L23.2167 62.4162C22.9818 62.4255 22.7526 62.3426 22.5779 62.1853C22.4033 62.0279 22.297 61.8086 22.2818 61.574C22.2736 61.3393 22.3568 61.1107 22.514 60.9363C22.6711 60.7619 22.8899 60.6553 23.1241 60.6391L65.2371 58.9293C65.4717 58.9211 65.7004 59.0043 65.8748 59.1614C66.0492 59.3186 66.1558 59.5373 66.172 59.7715C66.1792 60.0059 66.0956 60.2339 65.9386 60.4081C65.7817 60.5823 65.5636 60.6892 65.3298 60.7064Z" fill="white"/>
    <path d="M65.5565 66.299L23.4434 68.0088C23.2085 68.0181 22.9793 67.9352 22.8046 67.7779C22.63 67.6205 22.5237 67.4012 22.5085 67.1666C22.4993 66.9321 22.5823 66.7033 22.7397 66.5294C22.8972 66.3554 23.1165 66.25 23.3508 66.2359L65.4638 64.5261C65.6983 64.5168 65.927 64.5999 66.101 64.7573C66.275 64.9148 66.3804 65.1341 66.3945 65.3683C66.4038 65.6021 66.3214 65.8303 66.1648 66.0042C66.0082 66.178 65.7899 66.2838 65.5565 66.299Z" fill="white"/>
    <path d="M61.8109 70.2578L58.9767 72.1697L27.8635 73.4331L23.4922 71.8286C23.5286 71.8243 23.5653 71.8243 23.6017 71.8286L61.8109 70.2578Z" fill="white"/>
    <path d="M50.2738 77.2274V77.2611C50.2743 77.4902 50.1875 77.7109 50.031 77.8784C49.8745 78.0458 49.6602 78.1473 49.4315 78.1623L41.6364 78.4781L41.3711 78.3897L37.2188 76.8652L49.3599 76.3683C49.594 76.3647 49.8203 76.4524 49.9908 76.6128C50.1614 76.7731 50.2629 76.9935 50.2738 77.2274Z" fill="white"/>
  </g>
  <path opacity="0.1" d="M69.937 51.2392L59.8636 50.8055L55.4375 40.252L69.937 51.2392Z" fill="#263238"/>
  <path d="M69.937 51.2392L60.1626 49.5674L55.4375 40.252L69.937 51.2392Z" fill="#52379D"/>
  <path d="M89.3059 10.3977C89.3059 18.9635 79.9189 27.3819 78.5123 27.3819C77.1058 27.3819 67.7188 18.9593 67.7188 10.3977C67.7188 4.6577 72.5491 0 78.5123 0C84.4755 0 89.3059 4.6577 89.3059 10.3977Z" fill="#9974FF"/>
  <path opacity="0.1" d="M76.5078 8.26275C74.5538 10.4063 71.9006 11.1728 70.5825 9.94728C69.2644 8.72179 69.7781 6.03497 71.728 3.89142C73.6778 1.74787 76.3351 0.981405 77.6575 2.18163C78.9798 3.38185 78.4619 6.1192 76.5078 8.26275Z" fill="white"/>
  <path opacity="0.1" d="M70.7497 16.892C70.4928 16.2519 70.5602 15.6286 70.9013 15.4854C71.2424 15.3423 71.7435 15.755 71.9836 16.3951C72.2236 17.0352 72.1731 17.6585 71.832 17.7974C71.4909 17.9364 71.0066 17.5279 70.7497 16.892Z" fill="white"/>
  <path d="M78.0483 54.3347C78.0028 54.3337 77.9595 54.3151 77.9274 54.283C77.8952 54.2508 77.8767 54.2075 77.8756 54.1621C77.8631 53.594 78.0345 53.0372 78.3641 52.5744C78.6468 52.1598 78.7979 51.6696 78.7979 51.1678C78.7979 50.666 78.6468 50.1759 78.3641 49.7613C78.046 49.2929 77.876 48.7398 77.876 48.1736C77.876 47.6074 78.046 47.0543 78.3641 46.5859C78.647 46.1722 78.7983 45.6827 78.7983 45.1815C78.7983 44.6803 78.647 44.1908 78.3641 43.777C78.0458 43.3095 77.8756 42.757 77.8756 42.1914C77.8756 41.6259 78.0458 41.0734 78.3641 40.6059C78.647 40.1921 78.7983 39.7026 78.7983 39.2014C78.7983 38.7002 78.647 38.2107 78.3641 37.7969C78.0458 37.3294 77.8756 36.777 77.8756 36.2114C77.8756 35.6458 78.0458 35.0933 78.3641 34.6258C78.647 34.2121 78.7983 33.7226 78.7983 33.2214C78.7983 32.7202 78.647 32.2307 78.3641 31.8169C78.0458 31.3494 77.8756 30.7969 77.8756 30.2313C77.8756 29.6658 78.0458 29.1133 78.3641 28.6458C78.6525 28.2362 78.8002 27.7441 78.7853 27.2434C78.7918 27.2017 78.8129 27.1637 78.845 27.1363C78.877 27.1088 78.9178 27.0937 78.96 27.0938C79.0022 27.0937 79.043 27.1088 79.0751 27.1363C79.1071 27.1637 79.1283 27.2017 79.1348 27.2434C79.1467 27.8101 78.9754 28.3654 78.6463 28.8269C78.3588 29.2384 78.2111 29.7316 78.2252 30.2334C78.2102 30.7341 78.358 31.2262 78.6463 31.6358C78.9646 32.1033 79.1348 32.6558 79.1348 33.2214C79.1348 33.7869 78.9646 34.3394 78.6463 34.8069C78.3612 35.2198 78.2086 35.7097 78.2086 36.2114C78.2086 36.7131 78.3612 37.203 78.6463 37.6159C78.9646 38.0834 79.1348 38.6358 79.1348 39.2014C79.1348 39.767 78.9646 40.3195 78.6463 40.787C78.3612 41.1999 78.2086 41.6897 78.2086 42.1914C78.2086 42.6932 78.3612 43.183 78.6463 43.5959C78.9646 44.0634 79.1348 44.6159 79.1348 45.1815C79.1348 45.747 78.9646 46.2995 78.6463 46.767C78.3609 47.1806 78.208 47.6711 78.208 48.1736C78.208 48.6761 78.3609 49.1666 78.6463 49.5802C78.9644 50.0485 79.1345 50.6017 79.1345 51.1678C79.1345 51.734 78.9644 52.2871 78.6463 52.7555C78.3574 53.1664 78.2096 53.66 78.2252 54.1621C78.2252 54.1851 78.2206 54.2079 78.2116 54.2291C78.2027 54.2504 78.1896 54.2696 78.1731 54.2857C78.1566 54.3018 78.1371 54.3144 78.1157 54.3228C78.0942 54.3313 78.0713 54.3353 78.0483 54.3347Z" fill="#263238"/>
  <path d="M78.5112 26.9775C78.1785 26.9775 75.9844 28.9569 75.9844 30.9699H81.0464C81.0464 28.9569 78.8565 26.9775 78.5112 26.9775Z" fill="#52379D"/>
  <path d="M79.0084 27.0449H78.0146C77.9332 27.0449 77.8672 27.1109 77.8672 27.1923V27.2976C77.8672 27.379 77.9332 27.445 78.0146 27.445H79.0084C79.0899 27.445 79.1558 27.379 79.1558 27.2976V27.1923C79.1558 27.1109 79.0899 27.0449 79.0084 27.0449Z" fill="#263238"/>
  <path d="M21.5871 18.4039C21.5871 26.9655 12.2001 35.3839 10.7936 35.3839C9.387 35.3839 0 26.9613 0 18.4039C0 12.6597 4.83036 8.00195 10.7936 8.00195C16.7568 8.00195 21.5871 12.6597 21.5871 18.4039Z" fill="#9974FF"/>
  <path opacity="0.1" d="M9.04657 16.6154C10.9997 14.4713 11.5138 11.7592 10.195 10.558C8.87619 9.35666 6.2238 10.121 4.27073 12.2651C2.31765 14.4093 1.80348 17.1213 3.1223 18.3226C4.44111 19.5239 7.0935 18.7596 9.04657 16.6154Z" fill="white"/>
  <path opacity="0.1" d="M3.28093 25.2426C3.02404 24.6025 3.09142 23.9792 3.43254 23.836C3.77365 23.6928 4.2748 24.1055 4.51484 24.7457C4.75489 25.3858 4.70435 26.0091 4.36324 26.1522C4.02212 26.2954 3.53782 25.8827 3.28093 25.2426Z" fill="white"/>
  <path d="M10.3139 62.3363C10.2681 62.3363 10.2242 62.3181 10.1918 62.2857C10.1594 62.2533 10.1413 62.2094 10.1413 62.1636C10.1288 61.5956 10.3001 61.0387 10.6298 60.5759C10.9124 60.1613 11.0636 59.6711 11.0636 59.1694C11.0636 58.6676 10.9124 58.1774 10.6298 57.7628C10.3117 57.2944 10.1416 56.7413 10.1416 56.1751C10.1416 55.6089 10.3117 55.0558 10.6298 54.5875C10.9181 54.1778 11.0659 53.6858 11.0509 53.1851C11.065 52.6832 10.9173 52.1901 10.6298 51.7785C10.3115 51.311 10.1413 50.7585 10.1413 50.193C10.1413 49.6274 10.3115 49.0749 10.6298 48.6074C10.9181 48.1978 11.0659 47.7057 11.0509 47.205C11.065 46.7032 10.9173 46.21 10.6298 45.7985C10.3115 45.331 10.1413 44.7785 10.1413 44.2129C10.1413 43.6473 10.3115 43.0949 10.6298 42.6273C10.9122 42.2142 11.0634 41.7254 11.0634 41.225C11.0634 40.7245 10.9122 40.2357 10.6298 39.8226C10.3115 39.3551 10.1413 38.8026 10.1413 38.2371C10.1413 37.6715 10.3115 37.119 10.6298 36.6515C10.9173 36.2399 11.065 35.7468 11.0509 35.2449C11.052 35.1995 11.0705 35.1562 11.1027 35.124C11.1348 35.0919 11.1781 35.0733 11.2236 35.0723C11.2694 35.0723 11.3133 35.0905 11.3457 35.1228C11.378 35.1552 11.3962 35.1991 11.3962 35.2449C11.4094 35.8124 11.2396 36.3691 10.9119 36.8326C10.6267 37.2446 10.4738 37.7338 10.4738 38.235C10.4738 38.7361 10.6267 39.2253 10.9119 39.6373C11.2275 40.1059 11.3961 40.658 11.3961 41.2229C11.3961 41.7878 11.2275 42.3399 10.9119 42.8084C10.6244 43.22 10.4767 43.7131 10.4908 44.215C10.4758 44.7157 10.6236 45.2078 10.9119 45.6174C11.2275 46.0859 11.3961 46.638 11.3961 47.2029C11.3961 47.7678 11.2275 48.3199 10.9119 48.7885C10.6244 49.2001 10.4767 49.6932 10.4908 50.1951C10.4758 50.6958 10.6236 51.1878 10.9119 51.5974C11.2275 52.066 11.3961 52.6181 11.3961 53.183C11.3961 53.7479 11.2275 54.3 10.9119 54.7685C10.6265 55.1821 10.4737 55.6727 10.4737 56.1751C10.4737 56.6776 10.6265 57.1682 10.9119 57.5817C11.2279 58.0509 11.3966 58.6037 11.3966 59.1694C11.3966 59.735 11.2279 60.2878 10.9119 60.757C10.6238 61.1683 10.4761 61.6616 10.4908 62.1636C10.4908 62.1866 10.4862 62.2094 10.4773 62.2307C10.4683 62.2519 10.4552 62.2711 10.4387 62.2872C10.4223 62.3033 10.4027 62.3159 10.3813 62.3243C10.3599 62.3328 10.3369 62.3368 10.3139 62.3363Z" fill="#52379D"/>
  <path d="M10.7768 34.9834C10.4441 34.9834 8.25 36.9585 8.25 38.9715H13.3036C13.312 36.9585 11.1053 34.9834 10.7768 34.9834Z" fill="#263238"/>
  <path d="M11.2741 35.0469H10.2802C10.1988 35.0469 10.1328 35.1129 10.1328 35.1943V35.2995C10.1328 35.381 10.1988 35.4469 10.2802 35.4469H11.2741C11.3555 35.4469 11.4215 35.381 11.4215 35.2995V35.1943C11.4215 35.1129 11.3555 35.0469 11.2741 35.0469Z" fill="#52379D"/>
</svg>
