<svg xmlns="http://www.w3.org/2000/svg" width="70" height="70" viewBox="0 0 70 70" fill="none">
  <circle cx="34.9922" cy="35" r="35" fill="url(#paint0_linear_1114_1111)"/>
  <path d="M52.6027 23.9904C53.294 25.1878 53.2014 26.6136 52.3599 27.711L33.8861 51.8182C33.1242 52.8123 31.8698 53.3191 30.587 53.0729C29.3309 52.8313 28.3349 51.9156 27.9892 50.6841L25.2557 40.9555L24.971 39.9435L24.2371 39.191L17.1786 31.9595C16.2849 31.0444 15.9899 29.724 16.4087 28.5154C16.8233 27.3206 17.863 26.4536 19.1449 26.2856L49.2592 22.3404C50.6303 22.1604 51.9114 22.793 52.6027 23.9904Z" fill="white"/>
  <path d="M25.2558 40.9555L27.9892 50.6841C28.3348 51.9157 29.3308 52.8313 30.587 53.0729C31.8698 53.3192 33.1243 52.8124 33.8861 51.8182L52.3599 27.7111C53.2013 26.6137 53.294 25.1879 52.6027 23.9905L24.9711 39.9436L25.2558 40.9555Z" fill="white"/>
  <path d="M36.2126 33.4515C36.4938 33.9385 36.3274 34.5616 35.8398 34.8431L25.2531 40.9553L24.9684 39.9434L24.2344 39.1909L34.8211 33.0787C35.3087 32.7973 35.9315 32.9646 36.2126 33.4515Z" fill="url(#paint1_linear_1114_1111)"/>
  <path d="M25.2593 40.9554L35.8461 34.8432C36.3336 34.5617 36.5001 33.9387 36.2189 33.4517L24.9747 39.9435L25.2593 40.9554Z" fill="url(#paint2_linear_1114_1111)"/>
  <defs>
    <linearGradient id="paint0_linear_1114_1111" x1="49.6389" y1="1.96393" x2="19.5562" y2="77.7643" gradientUnits="userSpaceOnUse">
      <stop stop-color="#FAEC57"/>
      <stop offset="1" stop-color="#FAEC57"/>
    </linearGradient>
    <linearGradient id="paint1_linear_1114_1111" x1="32.3972" y1="34.5441" x2="33.5347" y2="36.8251" gradientUnits="userSpaceOnUse">
      <stop stop-color="#FAEC57"/>
      <stop offset="1" stop-color="#FAEC57"/>
    </linearGradient>
    <linearGradient id="paint2_linear_1114_1111" x1="32.8985" y1="35.4017" x2="33.5026" y2="36.5259" gradientUnits="userSpaceOnUse">
      <stop stop-color="#FAEC57"/>
      <stop offset="1" stop-color="#FAEC57"/>
    </linearGradient>
  </defs>
</svg>
