<svg width="21" height="24" viewBox="0 0 21 24" fill="none" xmlns="http://www.w3.org/2000/svg">
<path d="M17.5 16.8065C16.6133 16.8065 15.82 17.1565 15.2133 17.7049L6.895 12.8632C6.95333 12.5949 7 12.3265 7 12.0465C7 11.7665 6.95333 11.4982 6.895 11.2299L15.12 6.43488C15.75 7.01822 16.5783 7.37988 17.5 7.37988C19.4367 7.37988 21 5.81655 21 3.87988C21 1.94322 19.4367 0.379883 17.5 0.379883C15.5633 0.379883 14 1.94322 14 3.87988C14 4.15988 14.0467 4.42822 14.105 4.69655L5.88 9.49155C5.25 8.90822 4.42167 8.54655 3.5 8.54655C1.56333 8.54655 0 10.1099 0 12.0465C0 13.9832 1.56333 15.5465 3.5 15.5465C4.42167 15.5465 5.25 15.1849 5.88 14.6015L14.1867 19.4549C14.1283 19.6999 14.0933 19.9565 14.0933 20.2132C14.0933 22.0915 15.6217 23.6199 17.5 23.6199C19.3783 23.6199 20.9067 22.0915 20.9067 20.2132C20.9067 18.3349 19.3783 16.8065 17.5 16.8065Z" fill="#52379D"/>
</svg>
