<svg width="20" height="21" viewBox="0 0 20 21" fill="none" xmlns="http://www.w3.org/2000/svg">
<path d="M13.825 6.81669L8.33329 12.3084L5.34163 9.32502L4.16663 10.5L8.33329 14.6667L15 8.00002L13.825 6.81669ZM9.99996 2.16669C5.39996 2.16669 1.66663 5.90002 1.66663 10.5C1.66663 15.1 5.39996 18.8334 9.99996 18.8334C14.6 18.8334 18.3333 15.1 18.3333 10.5C18.3333 5.90002 14.6 2.16669 9.99996 2.16669ZM9.99996 17.1667C6.31663 17.1667 3.33329 14.1834 3.33329 10.5C3.33329 6.81669 6.31663 3.83335 9.99996 3.83335C13.6833 3.83335 16.6666 6.81669 16.6666 10.5C16.6666 14.1834 13.6833 17.1667 9.99996 17.1667Z" fill="#2AC171"/>
</svg>
