<svg xmlns="http://www.w3.org/2000/svg" width="23" height="26" viewBox="0 0 23 26" fill="none">
  <path d="M2.58063 11.4961H0.516125C0.232256 11.4961 0 11.7375 0 12.0325C0 12.3275 0.232256 12.5688 0.516125 12.5688H2.58063C2.86449 12.5688 3.09675 12.3275 3.09675 12.0325C3.09675 11.7375 2.86449 11.4961 2.58063 11.4961Z" fill="#52379D"/>
  <path d="M21.6822 11.4961H19.6177C19.3338 11.4961 19.1016 11.7375 19.1016 12.0325C19.1016 12.3275 19.3338 12.5688 19.6177 12.5688H21.6822C21.9661 12.5688 22.1983 12.3275 22.1983 12.0325C22.1983 11.7375 21.9661 11.4961 21.6822 11.4961Z" fill="#52379D"/>
  <path d="M11.1021 3.71819C11.3859 3.71819 11.6182 3.47683 11.6182 3.18183V1.03637C11.6182 0.741364 11.3859 0.5 11.1021 0.5C10.8182 0.5 10.5859 0.741364 10.5859 1.03637V3.18183C10.5859 3.47683 10.8182 3.71819 11.1021 3.71819Z" fill="#52379D"/>
  <path d="M4.72345 6.15824C4.82667 6.26551 4.95571 6.31915 5.08474 6.31915C5.21377 6.31915 5.3428 6.26551 5.44603 6.15824C5.65248 5.94369 5.65248 5.62187 5.44603 5.40732L3.97507 3.87868C3.76862 3.66414 3.45894 3.66414 3.25249 3.87868C3.04604 4.09323 3.04604 4.41505 3.25249 4.62959L4.72345 6.15824Z" fill="#52379D"/>
  <path d="M17.4712 17.9051C17.2647 17.6905 16.955 17.6905 16.7486 17.9051C16.5421 18.1196 16.5421 18.4414 16.7486 18.656L18.2195 20.1846C18.3228 20.2919 18.4518 20.3455 18.5808 20.3455C18.7099 20.3455 18.8389 20.2919 18.9421 20.1846C19.1486 19.9701 19.1486 19.6482 18.9421 19.4337L17.4712 17.9051Z" fill="#52379D"/>
  <path d="M18.2195 3.87868L16.7486 5.40732C16.5421 5.62187 16.5421 5.94369 16.7486 6.15824C16.8518 6.26551 16.9808 6.31915 17.1099 6.31915C17.2389 6.31915 17.3679 6.26551 17.4712 6.15824L18.9421 4.62959C19.1486 4.41505 19.1486 4.09323 18.9421 3.87868C18.7357 3.66414 18.426 3.66414 18.2195 3.87868Z" fill="#52379D"/>
  <path d="M5.44603 17.9051C5.23958 17.6905 4.9299 17.6905 4.72345 17.9051L3.25249 19.4337C3.04604 19.6482 3.04604 19.9701 3.25249 20.1846C3.35572 20.2919 3.48475 20.3455 3.61378 20.3455C3.74281 20.3455 3.87184 20.2919 3.97507 20.1846L5.44603 18.656C5.65248 18.4682 5.65248 18.1196 5.44603 17.9051Z" fill="#52379D"/>
  <path d="M14.9684 21.15V20.8818H7.22656V21.15V22.7591H14.9684V21.15Z" fill="#52379D"/>
  <path d="M6.25379 17.2619C6.87314 17.8787 7.23442 18.7369 7.23442 19.5951V19.8096H14.9763V19.6219C14.9763 18.7369 15.3118 17.9055 15.9053 17.3423C17.3505 15.9478 18.2021 13.9632 18.2021 11.925C18.2021 9.88684 17.3763 7.92911 15.9569 6.56138C14.5118 5.14001 12.6279 4.44273 10.6408 4.57682C7.10539 4.81819 4.18929 7.87547 4.00864 11.5496C3.90542 13.6682 4.73122 15.7869 6.25379 17.2619Z" fill="#52379D"/>
  <path d="M13.4274 24.9048C13.4274 24.3148 13.8919 23.832 14.4596 23.832H7.75C8.31774 23.832 8.78225 24.3148 8.78225 24.9048V25.4411H13.4274V24.9048Z" fill="#52379D"/>
</svg>
