<svg width="28" height="28" viewBox="0 0 28 28" fill="none" xmlns="http://www.w3.org/2000/svg">
<path d="M26.2035 6.99984C25.3052 7.40817 24.3369 7.6765 23.3335 7.80484C24.3602 7.1865 25.1535 6.2065 25.5269 5.02817C24.5585 5.6115 23.4852 6.01984 22.3535 6.25317C21.4319 5.24984 20.1369 4.6665 18.6669 4.6665C15.9252 4.6665 13.6852 6.9065 13.6852 9.6715C13.6852 10.0682 13.7319 10.4532 13.8135 10.8148C9.66021 10.6048 5.96187 8.60984 3.50021 5.58817C3.06854 6.32317 2.82354 7.1865 2.82354 8.0965C2.82354 9.83484 3.69854 11.3748 5.05187 12.2498C4.22354 12.2498 3.45354 12.0165 2.77688 11.6665V11.7015C2.77688 14.1282 4.50354 16.1582 6.79021 16.6132C6.05606 16.8141 5.28532 16.842 4.53854 16.6948C4.85542 17.6894 5.476 18.5596 6.31306 19.1833C7.15012 19.8069 8.16156 20.1525 9.20521 20.1715C7.43611 21.572 5.2432 22.329 2.98687 22.3182C2.59021 22.3182 2.19354 22.2948 1.79688 22.2482C4.01354 23.6715 6.65021 24.4998 9.47354 24.4998C18.6669 24.4998 23.7185 16.8698 23.7185 10.2548C23.7185 10.0332 23.7185 9.82317 23.7069 9.6015C24.6869 8.9015 25.5269 8.01484 26.2035 6.99984Z" fill="#52379D"/>
</svg>
