<svg width="723" height="987" viewBox="0 0 723 987" fill="none" xmlns="http://www.w3.org/2000/svg">
<path d="M221 964.501C152.2 1004.9 12.3337 981.334 -48.9997 964.501L-150 64.5L121.5 4.43369e-06L722.5 38.5C723.5 117.167 716 513.101 678 585.501C630.5 676.001 554 635.001 514 710.001C474 785.001 368.5 742.001 328.5 768.001C288.5 794.001 307 914.001 221 964.501Z" fill="#F9F9F9"/>
<path d="M91.3896 758.441H89.5205V769.162H91.3896V758.441ZM95.9551 762.803H84.5684V764.79H95.9551V762.803Z" fill="#FAEC57"/>
<path d="M56.3896 758.441H54.5205V769.162H56.3896V758.441ZM60.9551 762.803H49.5684V764.79H60.9551V762.803Z" fill="#E5E5E5"/>
<path d="M21.3896 758.441H19.5205V769.162H21.3896V758.441ZM25.9551 762.803H14.5684V764.79H25.9551V762.803Z" fill="#E5E5E5"/>
<path d="M91.3896 723.441H89.5205V734.162H91.3896V723.441ZM95.9551 727.803H84.5684V729.79H95.9551V727.803Z" fill="#E5E5E5"/>
<path d="M56.3896 723.441H54.5205V734.162H56.3896V723.441ZM60.9551 727.803H49.5684V729.79H60.9551V727.803Z" fill="#E5E5E5"/>
<path d="M21.3896 723.441H19.5205V734.162H21.3896V723.441ZM25.9551 727.803H14.5684V729.79H25.9551V727.803Z" fill="#E5E5E5"/>
<path d="M91.3896 688.441H89.5205V699.162H91.3896V688.441ZM95.9551 692.803H84.5684V694.79H95.9551V692.803Z" fill="#E5E5E5"/>
<path d="M56.3896 688.441H54.5205V699.162H56.3896V688.441ZM60.9551 692.803H49.5684V694.79H60.9551V692.803Z" fill="#E5E5E5"/>
<path d="M21.3896 688.441H19.5205V699.162H21.3896V688.441ZM25.9551 692.803H14.5684V694.79H25.9551V692.803Z" fill="#6246E5"/>
<path d="M91.3896 653.441H89.5205V664.162H91.3896V653.441ZM95.9551 657.803H84.5684V659.79H95.9551V657.803Z" fill="#E5E5E5"/>
<path d="M56.3896 653.441H54.5205V664.162H56.3896V653.441ZM60.9551 657.803H49.5684V659.79H60.9551V657.803Z" fill="#E5E5E5"/>
<path d="M21.3896 653.441H19.5205V664.162H21.3896V653.441ZM25.9551 657.803H14.5684V659.79H25.9551V657.803Z" fill="#E5E5E5"/>
<path d="M91.3896 618.441H89.5205V629.162H91.3896V618.441ZM95.9551 622.803H84.5684V624.79H95.9551V622.803Z" fill="#E5E5E5"/>
<path d="M56.3896 618.441H54.5205V629.162H56.3896V618.441ZM60.9551 622.803H49.5684V624.79H60.9551V622.803Z" fill="#E5E5E5"/>
<path d="M21.3896 618.441H19.5205V629.162H21.3896V618.441ZM25.9551 622.803H14.5684V624.79H25.9551V622.803Z" fill="#E5E5E5"/>
</svg>
