<svg width="674" height="288" viewBox="0 0 674 288" fill="none" xmlns="http://www.w3.org/2000/svg">
<path d="M523.43 63.6616C523.194 63.6415 522.956 63.6904 522.749 63.8019C522.542 63.9133 522.375 64.0822 522.27 64.2862C522.165 64.4903 522.127 64.7201 522.16 64.9454C522.194 65.1707 522.298 65.381 522.458 65.5488C522.618 65.7166 522.828 65.8339 523.059 65.8855C523.29 65.937 523.533 65.9204 523.754 65.8377C523.975 65.755 524.165 65.6102 524.299 65.4222C524.433 65.2342 524.504 65.0118 524.504 64.7842C524.516 64.499 524.41 64.2208 524.209 64.0104C524.007 63.8 523.728 63.6746 523.43 63.6616Z" fill="#CDC9C9"/>
<path d="M536.177 45.7387C536.3 45.7487 536.423 45.7231 536.53 45.6651C536.637 45.607 536.723 45.5194 536.778 45.4135C536.832 45.3077 536.852 45.1886 536.835 45.0718C536.817 44.955 536.763 44.8459 536.68 44.7589C536.597 44.6718 536.489 44.6108 536.369 44.5839C536.249 44.5569 536.123 44.5652 536.009 44.6077C535.894 44.6503 535.795 44.725 535.725 44.8222C535.656 44.9194 535.618 45.0345 535.618 45.1525C535.612 45.3009 535.668 45.4455 535.772 45.5551C535.877 45.6647 536.022 45.7306 536.177 45.7387Z" fill="#CDC9C9"/>
<path d="M536.177 57.9434C536.022 57.9514 535.877 58.0173 535.772 58.127C535.668 58.2366 535.612 58.3811 535.618 58.5296C535.618 58.6718 535.676 58.8083 535.781 58.9088C535.886 59.0094 536.029 59.0659 536.177 59.0659C536.325 59.0659 536.468 59.0094 536.573 58.9088C536.678 58.8083 536.737 58.6718 536.737 58.5296C536.742 58.3811 536.686 58.2366 536.582 58.127C536.477 58.0173 536.332 57.9514 536.177 57.9434Z" fill="#CDC9C9"/>
<path d="M517.659 24.1037C517.708 24.1021 517.757 24.0911 517.802 24.0714C517.846 24.0516 517.887 24.0235 517.92 23.9886C517.953 23.9538 517.979 23.913 517.996 23.8685C518.012 23.824 518.02 23.7768 518.017 23.7296C518.02 23.6824 518.012 23.6352 517.996 23.5907C517.979 23.5462 517.953 23.5054 517.92 23.4705C517.887 23.4357 517.846 23.4076 517.802 23.3878C517.757 23.3681 517.708 23.3571 517.659 23.3555C517.61 23.3571 517.561 23.3681 517.517 23.3878C517.472 23.4076 517.432 23.4357 517.398 23.4705C517.365 23.5054 517.339 23.5462 517.323 23.5907C517.306 23.6352 517.299 23.6824 517.301 23.7296C517.298 23.8245 517.333 23.9169 517.4 23.9869C517.467 24.0569 517.56 24.0988 517.659 24.1037Z" fill="#CDC9C9"/>
<path d="M524.508 43.7861C524.484 43.7869 524.46 43.7924 524.437 43.8023C524.415 43.8123 524.395 43.8264 524.379 43.8438C524.362 43.8613 524.35 43.8818 524.342 43.904C524.334 43.9262 524.331 43.9498 524.333 43.9732C524.331 44.0201 524.348 44.0659 524.381 44.1008C524.414 44.1357 524.459 44.157 524.508 44.1603C524.558 44.1571 524.604 44.136 524.638 44.1012C524.672 44.0665 524.69 44.0207 524.69 43.9732C524.691 43.9494 524.687 43.9258 524.678 43.9035C524.67 43.8812 524.657 43.8608 524.64 43.8435C524.623 43.8261 524.602 43.8121 524.58 43.8023C524.557 43.7924 524.533 43.7869 524.508 43.7861Z" fill="#CDC9C9"/>
<path d="M518.197 44.5912C518.202 44.566 518.201 44.54 518.195 44.5151C518.188 44.4901 518.176 44.467 518.158 44.4471C518.141 44.4273 518.12 44.4114 518.096 44.4004C518.071 44.3895 518.045 44.3838 518.018 44.3838C517.991 44.3838 517.965 44.3895 517.941 44.4004C517.916 44.4114 517.895 44.4273 517.878 44.4471C517.861 44.467 517.848 44.4901 517.842 44.5151C517.835 44.54 517.834 44.566 517.839 44.5912C517.834 44.6165 517.835 44.6425 517.842 44.6674C517.848 44.6923 517.861 44.7155 517.878 44.7353C517.895 44.7551 517.916 44.7711 517.941 44.782C517.965 44.793 517.991 44.7987 518.018 44.7987C518.045 44.7987 518.071 44.793 518.096 44.782C518.12 44.7711 518.141 44.7551 518.158 44.7353C518.176 44.7155 518.188 44.6923 518.195 44.6674C518.201 44.6425 518.202 44.6165 518.197 44.5912Z" fill="#CDC9C9"/>
<path d="M545.675 64.0363C545.774 64.0315 545.867 63.9895 545.934 63.9195C546.001 63.8495 546.036 63.7571 546.033 63.6622C546.035 63.615 546.028 63.5678 546.011 63.5233C545.995 63.4788 545.969 63.438 545.936 63.4031C545.902 63.3683 545.862 63.3402 545.817 63.3204C545.772 63.3007 545.724 63.2897 545.675 63.2881C545.625 63.2897 545.577 63.3007 545.532 63.3204C545.487 63.3402 545.447 63.3683 545.414 63.4031C545.381 63.438 545.355 63.4788 545.338 63.5233C545.322 63.5678 545.314 63.615 545.317 63.6622C545.314 63.7094 545.322 63.7566 545.338 63.8011C545.355 63.8456 545.381 63.8864 545.414 63.9213C545.447 63.9561 545.487 63.9842 545.532 64.004C545.577 64.0237 545.625 64.0347 545.675 64.0363Z" fill="#CDC9C9"/>
<path d="M535.613 60.4807C535.606 60.4145 535.58 60.3516 535.537 60.2994C535.494 60.2473 535.436 60.2082 535.371 60.187C535.305 60.1657 535.234 60.1632 535.167 60.1797C535.1 60.1963 535.039 60.2312 534.992 60.2802C534.946 60.3291 534.915 60.3901 534.903 60.4556C534.892 60.5212 534.901 60.5885 534.928 60.6493C534.956 60.7102 535.002 60.762 535.06 60.7985C535.118 60.835 535.185 60.8545 535.255 60.8548C535.354 60.85 535.447 60.808 535.514 60.738C535.581 60.668 535.616 60.5756 535.613 60.4807Z" fill="#CDC9C9"/>
<path d="M501.44 62.5829C501.686 62.603 501.932 62.5515 502.146 62.4352C502.361 62.3189 502.534 62.1432 502.642 61.9311C502.751 61.7191 502.79 61.4805 502.755 61.2467C502.72 61.0129 502.611 60.7948 502.445 60.6209C502.278 60.4471 502.06 60.3256 501.82 60.2723C501.58 60.2191 501.329 60.2367 501.099 60.3227C500.869 60.4087 500.672 60.5591 500.534 60.7544C500.395 60.9496 500.321 61.1804 500.321 61.4166C500.309 61.7134 500.42 62.0027 500.629 62.2213C500.839 62.4399 501.131 62.5699 501.44 62.5829Z" fill="#CDC9C9"/>
<path d="M505.691 25.8123C505.936 25.8324 506.182 25.7811 506.396 25.6651C506.61 25.5491 506.783 25.3737 506.892 25.162C507.001 24.9503 507.04 24.7121 507.005 24.4785C506.971 24.2449 506.863 24.0268 506.697 23.8527C506.531 23.6786 506.314 23.5566 506.074 23.5027C505.834 23.4488 505.583 23.4654 505.354 23.5505C505.124 23.6355 504.927 23.785 504.787 23.9793C504.648 24.1737 504.572 24.4039 504.572 24.6399C504.565 24.7873 504.588 24.9347 504.64 25.0734C504.693 25.2122 504.773 25.3397 504.877 25.4486C504.981 25.5575 505.107 25.6457 505.246 25.7081C505.386 25.7705 505.537 25.8059 505.691 25.8123Z" fill="#CDC9C9"/>
<path d="M538.757 18.6038C538.93 18.6188 539.105 18.5833 539.257 18.5018C539.409 18.4203 539.532 18.2966 539.609 18.147C539.687 17.9974 539.716 17.8288 539.692 17.6633C539.668 17.4978 539.592 17.3431 539.475 17.2195C539.357 17.0959 539.204 17.0092 539.034 16.9706C538.865 16.9321 538.687 16.9435 538.524 17.0035C538.361 17.0635 538.221 17.1691 538.122 17.3067C538.023 17.4442 537.97 17.6072 537.969 17.7743C537.961 17.984 538.038 18.1886 538.186 18.3439C538.333 18.4991 538.538 18.5925 538.757 18.6038Z" fill="#CDC9C9"/>
<path d="M518.963 18.7591C519.094 18.773 519.226 18.7485 519.342 18.689C519.458 18.6294 519.552 18.5376 519.613 18.4255C519.673 18.3135 519.697 18.1865 519.68 18.0614C519.664 17.9363 519.608 17.8189 519.521 17.7247C519.433 17.6304 519.318 17.5639 519.19 17.5337C519.063 17.5036 518.928 17.5112 518.805 17.5557C518.682 17.6002 518.576 17.6795 518.501 17.783C518.426 17.8865 518.385 18.0094 518.384 18.1355C518.379 18.213 518.39 18.2908 518.416 18.3642C518.442 18.4377 518.484 18.5054 518.538 18.5634C518.591 18.6214 518.657 18.6686 518.73 18.7022C518.803 18.7358 518.882 18.7552 518.963 18.7591Z" fill="#CDC9C9"/>
<path d="M529.216 53.8024C529.23 53.9082 529.275 54.008 529.347 54.0898C529.418 54.1717 529.512 54.232 529.619 54.2637C529.725 54.2954 529.838 54.2971 529.946 54.2685C530.053 54.24 530.149 54.1824 530.223 54.1028C530.297 54.0231 530.346 53.9246 530.363 53.8192C530.38 53.7139 530.365 53.606 530.32 53.5085C530.275 53.411 530.201 53.328 530.108 53.2695C530.015 53.2111 529.906 53.1795 529.795 53.1787C529.714 53.1827 529.635 53.202 529.562 53.2356C529.489 53.2692 529.423 53.3164 529.37 53.3744C529.316 53.4325 529.274 53.5002 529.248 53.5736C529.222 53.6471 529.211 53.7248 529.216 53.8024Z" fill="#CDC9C9"/>
<path d="M530.757 22.6942C530.675 22.6866 530.592 22.7032 530.519 22.7418C530.447 22.7804 530.388 22.8392 530.351 22.9103C530.315 22.9815 530.301 23.0617 530.313 23.1404C530.324 23.2191 530.361 23.2926 530.417 23.3511C530.473 23.4096 530.546 23.4504 530.627 23.4681C530.708 23.4859 530.792 23.4797 530.869 23.4504C530.947 23.4211 531.013 23.3701 531.059 23.3041C531.105 23.2381 531.129 23.1602 531.128 23.0808C531.131 23.0319 531.123 22.9831 531.106 22.9371C531.089 22.8911 531.062 22.8489 531.028 22.8129C530.993 22.7769 530.951 22.7478 530.905 22.7275C530.859 22.7071 530.808 22.6958 530.757 22.6942Z" fill="#CDC9C9"/>
<path d="M528.848 23.8605C528.942 23.8575 529.032 23.8206 529.1 23.7571C529.167 23.6936 529.207 23.6081 529.212 23.5176C529.101 23.4897 528.997 23.439 528.909 23.3691C528.82 23.2991 528.748 23.2115 528.698 23.1123C528.63 23.147 528.573 23.1992 528.534 23.263C528.495 23.3269 528.475 23.3999 528.477 23.4739C528.473 23.5721 528.51 23.6677 528.58 23.7401C528.649 23.8124 528.745 23.8557 528.848 23.8605Z" fill="#CDC9C9"/>
<path d="M522.293 46.1253C522.3 46.1954 522.327 46.2623 522.373 46.3176C522.418 46.3729 522.479 46.4144 522.549 46.4368C522.619 46.4593 522.694 46.4618 522.765 46.444C522.836 46.4262 522.9 46.3889 522.949 46.3367C522.999 46.2845 523.031 46.2196 523.042 46.1501C523.054 46.0805 523.044 46.0093 523.013 45.9451C522.983 45.881 522.934 45.8267 522.872 45.7889C522.81 45.7511 522.738 45.7315 522.664 45.7325C522.613 45.7349 522.563 45.7469 522.516 45.768C522.47 45.789 522.428 45.8186 522.394 45.8551C522.359 45.8916 522.333 45.9343 522.316 45.9806C522.298 46.027 522.291 46.0761 522.293 46.1253Z" fill="#CDC9C9"/>
<path d="M508.411 45.345C508.329 45.3387 508.246 45.3565 508.175 45.3959C508.103 45.4354 508.045 45.4947 508.009 45.566C507.973 45.6374 507.961 45.7175 507.973 45.7959C507.986 45.8742 508.023 45.9471 508.079 46.0049C508.136 46.0628 508.209 46.1029 508.29 46.1201C508.371 46.1372 508.455 46.1306 508.532 46.101C508.608 46.0715 508.674 46.0203 508.72 45.9544C508.766 45.8885 508.79 45.8108 508.788 45.7316C508.79 45.6824 508.782 45.6335 508.764 45.5874C508.746 45.5414 508.718 45.4992 508.683 45.4633C508.648 45.4274 508.606 45.3985 508.56 45.3782C508.513 45.3579 508.462 45.3466 508.411 45.345Z" fill="#CDC9C9"/>
<path d="M518.05 20.5549C518.132 20.5612 518.214 20.5436 518.286 20.5044C518.357 20.4652 518.415 20.4063 518.451 20.3353C518.487 20.2643 518.5 20.1845 518.488 20.1064C518.476 20.0282 518.44 19.9554 518.384 19.8973C518.328 19.8392 518.255 19.7985 518.175 19.7807C518.095 19.7628 518.011 19.7686 517.934 19.7972C517.857 19.8257 517.791 19.8759 517.744 19.941C517.698 20.0061 517.673 20.0831 517.672 20.1621C517.67 20.2117 517.677 20.2614 517.695 20.3081C517.713 20.3549 517.74 20.3978 517.775 20.4344C517.81 20.4709 517.853 20.5004 517.9 20.5211C517.947 20.5418 517.998 20.5533 518.05 20.5549Z" fill="#CDC9C9"/>
<path d="M508.035 46.5116C507.953 46.504 507.87 46.5205 507.797 46.5588C507.725 46.5971 507.667 46.6555 507.63 46.7263C507.592 46.7971 507.579 46.877 507.59 46.9555C507.601 47.034 507.636 47.1074 507.692 47.1661C507.747 47.2249 507.82 47.2662 507.9 47.2846C507.981 47.3031 508.065 47.2978 508.142 47.2695C508.219 47.2412 508.286 47.1911 508.333 47.126C508.38 47.0608 508.405 46.9836 508.406 46.9044C508.408 46.8552 508.401 46.8061 508.384 46.7597C508.366 46.7134 508.34 46.6707 508.305 46.6342C508.271 46.5977 508.229 46.5681 508.183 46.5471C508.136 46.526 508.086 46.5139 508.035 46.5116Z" fill="#CDC9C9"/>
<path d="M528.465 47.2907C528.548 47.2983 528.631 47.2816 528.703 47.243C528.776 47.2045 528.834 47.1457 528.871 47.0745C528.908 47.0034 528.922 46.9231 528.91 46.8444C528.898 46.7658 528.862 46.6923 528.806 46.6338C528.75 46.5753 528.676 46.5345 528.596 46.5167C528.515 46.499 528.43 46.5052 528.353 46.5345C528.276 46.5638 528.21 46.6148 528.164 46.6808C528.118 46.7468 528.093 46.8246 528.094 46.9041C528.092 46.9529 528.099 47.0018 528.116 47.0478C528.134 47.0938 528.16 47.136 528.195 47.172C528.23 47.208 528.271 47.237 528.318 47.2574C528.364 47.2778 528.414 47.2891 528.465 47.2907Z" fill="#CDC9C9"/>
<path d="M534.682 52.3928C534.765 52.3991 534.847 52.3813 534.919 52.3419C534.991 52.3024 535.048 52.2431 535.084 52.1717C535.12 52.1004 535.132 52.0203 535.12 51.9419C535.107 51.8636 535.071 51.7907 535.014 51.7329C534.958 51.675 534.884 51.6349 534.803 51.6177C534.723 51.6006 534.639 51.6072 534.562 51.6368C534.485 51.6663 534.42 51.7174 534.374 51.7834C534.328 51.8493 534.304 51.927 534.305 52.0062C534.303 52.0554 534.312 52.1043 534.33 52.1504C534.348 52.1964 534.375 52.2386 534.41 52.2745C534.445 52.3104 534.487 52.3393 534.534 52.3596C534.581 52.3799 534.631 52.3912 534.682 52.3928Z" fill="#CDC9C9"/>
<path d="M498.946 59.7077C499.05 59.7028 499.148 59.6589 499.219 59.5854C499.29 59.5119 499.327 59.4147 499.324 59.3148C499.317 59.245 499.29 59.1783 499.245 59.1231C499.2 59.0679 499.139 59.0264 499.07 59.0038C499 58.9811 498.926 58.9782 498.855 58.9955C498.784 59.0128 498.72 59.0495 498.67 59.1011C498.62 59.1527 498.588 59.217 498.576 59.2862C498.563 59.3553 498.573 59.4264 498.602 59.4907C498.631 59.5549 498.679 59.6097 498.74 59.6482C498.802 59.6867 498.873 59.7074 498.946 59.7077Z" fill="#CDC9C9"/>
<path d="M533.828 72.5172C533.91 72.5248 533.993 72.5083 534.065 72.47C534.138 72.4317 534.196 72.3733 534.233 72.3025C534.271 72.2317 534.284 72.1518 534.273 72.0733C534.262 71.9948 534.227 71.9214 534.171 71.8627C534.116 71.8039 534.043 71.7626 533.963 71.7442C533.882 71.7258 533.798 71.731 533.721 71.7593C533.643 71.7876 533.577 71.8377 533.53 71.9028C533.483 71.968 533.458 72.0452 533.457 72.1244C533.454 72.2233 533.49 72.3196 533.56 72.3929C533.629 72.4662 533.725 72.5108 533.828 72.5172Z" fill="#CDC9C9"/>
<path d="M510.123 13.3332C510.207 13.4449 510.316 13.538 510.441 13.6064C510.566 13.6748 510.705 13.7169 510.848 13.7298C510.992 13.7428 511.136 13.7264 511.272 13.6817C511.409 13.6369 511.533 13.5649 511.638 13.4704C511.858 13.2674 511.993 12.9946 512.018 12.703C512.043 12.4115 511.957 12.1212 511.775 11.8863C511.69 11.7746 511.582 11.6815 511.457 11.6131C511.332 11.5447 511.193 11.5026 511.049 11.4897C510.906 11.4767 510.761 11.4931 510.625 11.5378C510.489 11.5826 510.364 11.6546 510.259 11.7491C510.039 11.9521 509.904 12.2249 509.879 12.5165C509.854 12.808 509.941 13.0983 510.123 13.3332Z" fill="#CDC9C9"/>
<path d="M523.906 30.4782C524.126 30.2752 524.261 30.0024 524.286 29.7109C524.311 29.4193 524.225 29.129 524.043 28.8941C523.958 28.7824 523.85 28.6893 523.724 28.6209C523.599 28.5525 523.461 28.5104 523.317 28.4975C523.174 28.4845 523.029 28.5009 522.893 28.5457C522.757 28.5904 522.632 28.6624 522.527 28.7569C522.306 28.9592 522.17 29.2322 522.145 29.5241C522.12 29.816 522.207 30.1066 522.39 30.341C522.475 30.4527 522.583 30.5458 522.709 30.6142C522.834 30.6826 522.973 30.7247 523.116 30.7376C523.259 30.7506 523.404 30.7342 523.54 30.6895C523.676 30.6447 523.801 30.5727 523.906 30.4782Z" fill="#CDC9C9"/>
<path d="M502.145 29.8605C502.205 29.9393 502.282 30.0051 502.37 30.0534C502.459 30.1018 502.557 30.1317 502.658 30.1411C502.76 30.1505 502.862 30.1393 502.958 30.1081C503.055 30.0769 503.143 30.0266 503.218 29.9603C503.374 29.8162 503.469 29.6224 503.486 29.4155C503.503 29.2087 503.44 29.0031 503.309 28.8377C503.25 28.7586 503.174 28.6927 503.086 28.6443C502.997 28.596 502.899 28.5664 502.798 28.5575C502.697 28.5486 502.595 28.5607 502.499 28.5929C502.403 28.6251 502.316 28.6767 502.242 28.7441C502.086 28.8863 501.99 29.0787 501.972 29.2845C501.954 29.4903 502.015 29.6953 502.145 29.8605Z" fill="#CDC9C9"/>
<path d="M504.595 40.6618C504.708 40.5557 504.778 40.4135 504.79 40.2619C504.802 40.1103 504.756 39.9598 504.66 39.8385C504.616 39.7807 504.559 39.7326 504.494 39.6973C504.429 39.662 504.357 39.6404 504.282 39.6339C504.208 39.6274 504.133 39.6362 504.062 39.6596C503.992 39.6831 503.927 39.7207 503.873 39.7699C503.759 39.876 503.69 40.0181 503.678 40.1697C503.666 40.3213 503.712 40.4719 503.808 40.5932C503.852 40.6501 503.909 40.6975 503.974 40.7322C504.039 40.7669 504.111 40.7882 504.185 40.7947C504.259 40.8011 504.334 40.7926 504.405 40.7697C504.475 40.7469 504.54 40.7101 504.595 40.6618Z" fill="#CDC9C9"/>
<path d="M481.273 71.6138C481.228 71.5568 481.172 71.5094 481.106 71.4747C481.041 71.44 480.97 71.4187 480.895 71.4123C480.821 71.4058 480.746 71.4143 480.676 71.4372C480.605 71.4601 480.541 71.4969 480.486 71.5452C480.372 71.6512 480.303 71.7934 480.291 71.945C480.279 72.0966 480.325 72.2472 480.421 72.3684C480.465 72.4262 480.522 72.4744 480.587 72.5096C480.652 72.5449 480.724 72.5665 480.798 72.573C480.873 72.5795 480.948 72.5707 481.018 72.5473C481.089 72.5238 481.154 72.4862 481.208 72.437C481.322 72.331 481.391 72.1888 481.403 72.0372C481.415 71.8856 481.369 71.735 481.273 71.6138Z" fill="#CDC9C9"/>
<path d="M515.441 14.9306C515.514 14.8634 515.558 14.7732 515.566 14.6769C515.575 14.5806 515.546 14.4846 515.487 14.4068C515.459 14.369 515.423 14.3373 515.381 14.3139C515.339 14.2905 515.293 14.2759 515.245 14.2712C515.197 14.2665 515.148 14.2717 515.102 14.2865C515.056 14.3013 515.014 14.3253 514.979 14.3569C514.906 14.4252 514.861 14.5164 514.853 14.6138C514.845 14.7112 514.873 14.8082 514.934 14.8869C514.962 14.9243 514.998 14.9555 515.04 14.9783C515.082 15.0011 515.129 15.0151 515.177 15.0192C515.225 15.0233 515.273 15.0176 515.319 15.0023C515.365 14.987 515.406 14.9625 515.441 14.9306Z" fill="#CDC9C9"/>
<path d="M501.213 30.6902C501.138 30.7559 501.092 30.8464 501.083 30.9435C501.075 31.0406 501.105 31.1372 501.168 31.214C501.195 31.2517 501.23 31.2833 501.272 31.3066C501.313 31.33 501.359 31.3445 501.406 31.3492C501.454 31.354 501.502 31.3488 501.547 31.3341C501.593 31.3193 501.634 31.2954 501.669 31.2638C501.744 31.1971 501.791 31.1055 501.799 31.0074C501.808 30.9092 501.777 30.8116 501.714 30.7338C501.687 30.6966 501.651 30.6655 501.609 30.6427C501.568 30.62 501.522 30.606 501.474 30.6019C501.427 30.5977 501.379 30.6035 501.334 30.6187C501.289 30.634 501.248 30.6583 501.213 30.6902Z" fill="#CDC9C9"/>
<path d="M496.073 23.7479C495.998 23.8146 495.951 23.9062 495.943 24.0043C495.934 24.1025 495.965 24.2001 496.028 24.2778C496.057 24.3144 496.093 24.3448 496.135 24.367C496.177 24.3893 496.224 24.4029 496.272 24.407C496.319 24.4111 496.367 24.4056 496.413 24.3909C496.458 24.3762 496.5 24.3525 496.535 24.3215C496.579 24.2873 496.614 24.2451 496.64 24.1974C496.666 24.1497 496.681 24.0975 496.685 24.044C496.69 23.9904 496.683 23.9366 496.665 23.8857C496.647 23.8348 496.618 23.7879 496.581 23.7479C496.55 23.7124 496.511 23.684 496.467 23.6644C496.423 23.6449 496.375 23.6348 496.327 23.6348C496.279 23.6348 496.231 23.6449 496.187 23.6644C496.143 23.684 496.105 23.7124 496.073 23.7479Z" fill="#CDC9C9"/>
<path d="M501.436 22.9189C501.511 22.8531 501.557 22.7626 501.565 22.6655C501.574 22.5684 501.544 22.4718 501.481 22.3951C501.453 22.3572 501.417 22.3256 501.375 22.3022C501.334 22.2788 501.287 22.2642 501.239 22.2595C501.191 22.2548 501.143 22.26 501.097 22.2748C501.051 22.2896 501.009 22.3136 500.974 22.3452C500.9 22.4136 500.856 22.5053 500.849 22.6031C500.841 22.7008 500.872 22.7977 500.935 22.8752C500.962 22.9125 500.998 22.9435 501.04 22.9663C501.081 22.9891 501.127 23.003 501.175 23.0072C501.222 23.0113 501.27 23.0056 501.315 22.9903C501.36 22.9751 501.401 22.9507 501.436 22.9189Z" fill="#CDC9C9"/>
<path d="M492.628 27.5282C492.555 27.5965 492.51 27.6877 492.501 27.7851C492.493 27.8825 492.522 27.9795 492.582 28.0582C492.611 28.0948 492.648 28.1252 492.69 28.1474C492.732 28.1697 492.778 28.1833 492.826 28.1874C492.873 28.1915 492.922 28.186 492.967 28.1713C493.012 28.1566 493.054 28.1329 493.089 28.1019C493.162 28.0336 493.207 27.9424 493.216 27.845C493.224 27.7476 493.195 27.6506 493.135 27.5719C493.106 27.5353 493.069 27.5049 493.027 27.4827C492.985 27.4604 492.939 27.4468 492.891 27.4427C492.844 27.4386 492.795 27.4441 492.75 27.4588C492.705 27.4735 492.663 27.4972 492.628 27.5282Z" fill="#CDC9C9"/>
<path d="M532.77 31.3132C532.846 31.2464 532.892 31.1548 532.901 31.0567C532.909 30.9585 532.879 30.8609 532.816 30.7832C532.789 30.745 532.753 30.7131 532.712 30.6897C532.67 30.6662 532.624 30.6519 532.576 30.6478C532.528 30.6436 532.48 30.6497 532.435 30.6655C532.39 30.6814 532.349 30.7067 532.315 30.7395C532.24 30.8052 532.193 30.8957 532.185 30.9928C532.177 31.09 532.207 31.1865 532.269 31.2633C532.297 31.301 532.332 31.3326 532.373 31.3559C532.414 31.3793 532.46 31.3938 532.508 31.3986C532.555 31.4033 532.604 31.3981 532.649 31.3834C532.694 31.3686 532.736 31.3447 532.77 31.3132Z" fill="#CDC9C9"/>
<path d="M505.936 26.0556C505.902 26.0913 505.883 26.1381 505.883 26.1866C505.883 26.2351 505.902 26.2818 505.936 26.3175C505.951 26.3346 505.97 26.3484 505.992 26.3578C506.013 26.3672 506.036 26.3721 506.06 26.3721C506.083 26.3721 506.106 26.3672 506.128 26.3578C506.149 26.3484 506.168 26.3346 506.183 26.3175C506.218 26.2808 506.237 26.233 506.237 26.1834C506.237 26.1339 506.218 26.0861 506.183 26.0494C506.167 26.0335 506.148 26.0211 506.126 26.0128C506.105 26.0044 506.082 26.0004 506.058 26.001C506.035 26.0016 506.012 26.0068 505.991 26.0162C505.97 26.0255 505.952 26.039 505.936 26.0556Z" fill="#CDC9C9"/>
<path d="M473.16 55.0808C473.194 55.0435 473.212 54.9959 473.212 54.9468C473.212 54.8976 473.194 54.85 473.16 54.8127C473.144 54.7954 473.125 54.7816 473.103 54.7722C473.081 54.7627 473.057 54.7578 473.033 54.7578C473.009 54.7578 472.986 54.7627 472.964 54.7722C472.942 54.7816 472.922 54.7954 472.907 54.8127C472.874 54.849 472.855 54.8955 472.855 54.9436C472.855 54.9918 472.874 55.0383 472.907 55.0746C472.923 55.0914 472.942 55.1049 472.963 55.1144C472.985 55.1239 473.008 55.129 473.032 55.1296C473.056 55.1302 473.079 55.1262 473.101 55.1178C473.123 55.1094 473.143 55.0968 473.16 55.0808Z" fill="#CDC9C9"/>
<path d="M490.729 43.3748C490.762 43.3374 490.781 43.2899 490.781 43.2407C490.781 43.1915 490.762 43.144 490.729 43.1066C490.713 43.0894 490.694 43.0756 490.672 43.0661C490.65 43.0567 490.626 43.0518 490.602 43.0518C490.578 43.0518 490.554 43.0567 490.532 43.0661C490.511 43.0756 490.491 43.0894 490.475 43.1066C490.441 43.1423 490.422 43.1891 490.422 43.2376C490.422 43.2861 490.441 43.3328 490.475 43.3685C490.491 43.3862 490.51 43.4005 490.531 43.4105C490.553 43.4205 490.577 43.426 490.601 43.4266C490.625 43.4271 490.648 43.4228 490.671 43.4139C490.693 43.405 490.713 43.3916 490.729 43.3748Z" fill="#CDC9C9"/>
<path d="M502.209 25.8132C502.244 25.7765 502.263 25.7287 502.263 25.6792C502.263 25.6296 502.244 25.5818 502.209 25.5451C502.194 25.5279 502.174 25.5141 502.152 25.5046C502.13 25.4951 502.107 25.4902 502.083 25.4902C502.059 25.4902 502.035 25.4951 502.013 25.5046C501.991 25.5141 501.972 25.5279 501.956 25.5451C501.921 25.5808 501.902 25.6275 501.902 25.6761C501.902 25.7246 501.921 25.7713 501.956 25.807C501.97 25.8256 501.989 25.8408 502.011 25.8514C502.033 25.862 502.057 25.8679 502.081 25.8685C502.105 25.8691 502.13 25.8644 502.152 25.8549C502.174 25.8453 502.194 25.8311 502.209 25.8132Z" fill="#CDC9C9"/>
<path d="M476.099 48.5013C476.131 48.465 476.15 48.4185 476.15 48.3704C476.15 48.3222 476.131 48.2757 476.099 48.2394C476.082 48.223 476.062 48.2099 476.041 48.201C476.019 48.1921 475.995 48.1875 475.972 48.1875C475.948 48.1875 475.924 48.1921 475.903 48.201C475.881 48.2099 475.861 48.223 475.845 48.2394C475.811 48.2767 475.793 48.3243 475.793 48.3735C475.793 48.4227 475.811 48.4702 475.845 48.5075C475.861 48.5244 475.881 48.5377 475.903 48.5467C475.925 48.5556 475.949 48.5599 475.973 48.5593C475.997 48.5587 476.021 48.5533 476.042 48.5432C476.064 48.5332 476.083 48.5189 476.099 48.5013Z" fill="#CDC9C9"/>
<path d="M506.514 29.2362C506.441 29.3045 506.397 29.3957 506.388 29.4931C506.38 29.5905 506.408 29.6875 506.469 29.7662C506.498 29.8028 506.534 29.8332 506.576 29.8554C506.618 29.8777 506.665 29.8913 506.712 29.8954C506.76 29.8995 506.808 29.894 506.854 29.8793C506.899 29.8646 506.941 29.8409 506.976 29.8099C507.049 29.7416 507.094 29.6504 507.102 29.553C507.111 29.4557 507.082 29.3587 507.022 29.2799C506.993 29.2433 506.956 29.2129 506.914 29.1907C506.872 29.1685 506.826 29.1548 506.778 29.1507C506.73 29.1466 506.682 29.1521 506.637 29.1668C506.591 29.1816 506.55 29.2052 506.514 29.2362Z" fill="#CDC9C9"/>
<path d="M494.633 41.1607C494.706 41.0934 494.75 41.0027 494.757 40.906C494.764 40.8093 494.734 40.7135 494.672 40.637C494.645 40.5993 494.609 40.5677 494.568 40.5443C494.527 40.521 494.481 40.5064 494.433 40.5017C494.386 40.497 494.338 40.5021 494.292 40.5169C494.247 40.5316 494.206 40.5556 494.171 40.5871C494.095 40.6539 494.049 40.7454 494.04 40.8436C494.032 40.9418 494.062 41.0394 494.125 41.1171C494.153 41.1554 494.189 41.1874 494.231 41.2108C494.273 41.2342 494.32 41.2486 494.369 41.2527C494.417 41.2569 494.466 41.2508 494.511 41.2349C494.557 41.219 494.599 41.1937 494.633 41.1607Z" fill="#CDC9C9"/>
<path d="M526.945 70.7902C526.974 70.8276 527.01 70.8588 527.052 70.8816C527.094 70.9044 527.141 70.9184 527.189 70.9225C527.237 70.9266 527.285 70.9209 527.331 70.9056C527.376 70.8903 527.418 70.8659 527.453 70.8339C527.525 70.7667 527.57 70.6765 527.578 70.5802C527.587 70.4839 527.558 70.3879 527.498 70.3101C527.47 70.2723 527.434 70.2406 527.393 70.2172C527.351 70.1938 527.305 70.1793 527.256 70.1745C527.208 70.1698 527.16 70.175 527.114 70.1898C527.068 70.2046 527.026 70.2286 526.991 70.2602C526.918 70.3285 526.873 70.4197 526.865 70.5171C526.856 70.6145 526.885 70.7115 526.945 70.7902Z" fill="#CDC9C9"/>
<path d="M477.713 39.4642C477.788 39.3974 477.835 39.3059 477.843 39.2077C477.852 39.1095 477.822 39.0119 477.758 38.9342C477.729 38.8976 477.693 38.8672 477.651 38.845C477.609 38.8227 477.562 38.8091 477.515 38.805C477.467 38.8009 477.419 38.8064 477.373 38.8211C477.328 38.8359 477.286 38.8595 477.251 38.8905C477.178 38.9589 477.133 39.0507 477.126 39.1484C477.119 39.2461 477.149 39.343 477.212 39.4205C477.24 39.4569 477.276 39.4872 477.318 39.5094C477.359 39.5316 477.405 39.5452 477.452 39.5493C477.499 39.5534 477.547 39.548 477.592 39.5333C477.637 39.5186 477.678 39.4951 477.713 39.4642Z" fill="#CDC9C9"/>
<path d="M501.46 57.3388C501.387 57.407 501.342 57.4982 501.333 57.5956C501.325 57.693 501.354 57.79 501.414 57.8688C501.443 57.9054 501.48 57.9357 501.522 57.958C501.564 57.9802 501.61 57.9938 501.658 57.9979C501.706 58.002 501.754 57.9965 501.799 57.9818C501.844 57.9671 501.886 57.9435 501.922 57.9124C501.995 57.8442 502.039 57.753 502.048 57.6556C502.056 57.5582 502.027 57.4612 501.967 57.3824C501.938 57.3458 501.901 57.3155 501.859 57.2932C501.817 57.271 501.771 57.2574 501.723 57.2533C501.676 57.2492 501.628 57.2547 501.582 57.2694C501.537 57.2841 501.495 57.3077 501.46 57.3388Z" fill="#CDC9C9"/>
<path d="M516.743 46.7489C516.67 46.8173 516.625 46.9091 516.618 47.0068C516.611 47.1045 516.642 47.2014 516.704 47.2789C516.733 47.3153 516.769 47.3456 516.81 47.3678C516.851 47.39 516.897 47.4036 516.944 47.4077C516.992 47.4118 517.039 47.4064 517.084 47.3917C517.129 47.377 517.17 47.3535 517.205 47.3226C517.281 47.2558 517.327 47.1643 517.336 47.0661C517.344 46.9679 517.314 46.8703 517.251 46.7926C517.222 46.756 517.185 46.7256 517.143 46.7034C517.101 46.6811 517.055 46.6675 517.007 46.6634C516.959 46.6593 516.911 46.6648 516.866 46.6795C516.82 46.6943 516.778 46.7179 516.743 46.7489Z" fill="#CDC9C9"/>
<path d="M499.584 65.8883C499.812 65.677 499.952 65.3931 499.977 65.0899C500.002 64.7867 499.911 64.4851 499.721 64.2419C499.633 64.1248 499.52 64.0271 499.389 63.9553C499.259 63.8835 499.114 63.8394 498.964 63.8258C498.814 63.8122 498.663 63.8295 498.521 63.8765C498.379 63.9236 498.249 63.9992 498.14 64.0984C497.911 64.3097 497.771 64.5937 497.746 64.8969C497.721 65.2001 497.812 65.5017 498.003 65.7449C498.092 65.8603 498.206 65.9564 498.336 66.027C498.466 66.0976 498.611 66.1411 498.76 66.1547C498.909 66.1682 499.06 66.1515 499.202 66.1056C499.344 66.0597 499.474 65.9857 499.584 65.8883Z" fill="#CDC9C9"/>
<path d="M485.941 62.296C485.853 62.1799 485.74 62.0831 485.61 62.0119C485.48 61.9408 485.336 61.897 485.187 61.8834C485.038 61.8699 484.888 61.8868 484.746 61.9332C484.605 61.9796 484.475 62.0544 484.366 62.1526C484.138 62.3638 483.998 62.6478 483.973 62.951C483.948 63.2542 484.039 63.5558 484.23 63.799C484.317 63.9159 484.429 64.0136 484.559 64.0853C484.689 64.157 484.833 64.2012 484.983 64.2148C485.132 64.2284 485.282 64.2111 485.424 64.1641C485.566 64.1171 485.695 64.0415 485.804 63.9424C486.032 63.7312 486.172 63.4472 486.197 63.144C486.222 62.8408 486.131 62.5392 485.941 62.296Z" fill="#CDC9C9"/>
<path d="M526.603 17.3246C526.766 17.1755 526.865 16.9743 526.883 16.7593C526.901 16.5442 526.836 16.3304 526.701 16.1583C526.638 16.0769 526.558 16.009 526.466 15.9592C526.375 15.9094 526.273 15.8788 526.168 15.8693C526.063 15.8599 525.957 15.8719 525.857 15.9045C525.757 15.9371 525.665 15.9896 525.588 16.0586C525.425 16.2076 525.326 16.4088 525.308 16.6239C525.29 16.8389 525.355 17.0528 525.491 17.2248C525.553 17.3063 525.633 17.3741 525.725 17.4239C525.817 17.4737 525.918 17.5044 526.023 17.5138C526.128 17.5232 526.234 17.5112 526.334 17.4786C526.434 17.446 526.526 17.3935 526.603 17.3246Z" fill="#CDC9C9"/>
<path d="M492.468 49.586C492.39 49.6551 492.342 49.75 492.333 49.8518C492.325 49.9535 492.357 50.0545 492.423 50.1347C492.452 50.1732 492.489 50.2054 492.532 50.2289C492.575 50.2524 492.623 50.2667 492.672 50.2708C492.722 50.2749 492.772 50.2688 492.818 50.2529C492.865 50.2369 492.908 50.2115 492.943 50.1783C493.021 50.1091 493.07 50.0142 493.078 49.9125C493.086 49.8108 493.055 49.7098 492.989 49.6296C492.96 49.591 492.922 49.5589 492.879 49.5354C492.836 49.5119 492.788 49.4976 492.739 49.4934C492.69 49.4893 492.64 49.4954 492.593 49.5114C492.546 49.5274 492.504 49.5528 492.468 49.586Z" fill="#CDC9C9"/>
<path d="M471.793 54.8869C471.823 54.9256 471.861 54.9578 471.904 54.9814C471.948 55.0049 471.996 55.0192 472.046 55.0234C472.096 55.0275 472.147 55.0214 472.194 55.0053C472.241 54.9893 472.284 54.9638 472.32 54.9306C472.396 54.8599 472.442 54.7653 472.451 54.6644C472.459 54.5635 472.429 54.4631 472.366 54.3819C472.336 54.3431 472.298 54.3109 472.255 54.2874C472.211 54.2638 472.163 54.2495 472.113 54.2454C472.063 54.2413 472.012 54.2474 471.965 54.2634C471.918 54.2794 471.875 54.3049 471.839 54.3382C471.763 54.4088 471.717 54.5034 471.708 54.6044C471.7 54.7053 471.73 54.8057 471.793 54.8869Z" fill="#CDC9C9"/>
<path d="M482.266 25.7134C482.341 25.6427 482.388 25.5482 482.396 25.4472C482.404 25.3463 482.374 25.2459 482.311 25.1647C482.281 25.1263 482.244 25.0944 482.2 25.0708C482.157 25.0473 482.109 25.0327 482.059 25.028C482.01 25.0233 481.959 25.0286 481.912 25.0436C481.865 25.0585 481.821 25.0828 481.784 25.1148C481.708 25.1854 481.662 25.28 481.654 25.3809C481.645 25.4819 481.676 25.5823 481.739 25.6635C481.768 25.7027 481.805 25.7354 481.849 25.7595C481.892 25.7836 481.94 25.7986 481.99 25.8033C482.04 25.808 482.091 25.8024 482.138 25.7869C482.186 25.7714 482.229 25.7463 482.266 25.7134Z" fill="#CDC9C9"/>
<path d="M532.64 43.8178C532.627 43.9169 532.655 44.0169 532.718 44.0962C532.782 44.1756 532.875 44.2278 532.978 44.2418C533.081 44.2452 533.18 44.2098 533.256 44.1433C533.331 44.0768 533.376 43.9845 533.381 43.8864C533.394 43.7873 533.366 43.6873 533.303 43.608C533.24 43.5286 533.146 43.4764 533.043 43.4624C532.992 43.4599 532.941 43.4671 532.893 43.4837C532.845 43.5003 532.801 43.5259 532.764 43.559C532.726 43.5921 532.696 43.632 532.675 43.6764C532.653 43.7209 532.641 43.7689 532.64 43.8178Z" fill="#CDC9C9"/>
<path d="M516.255 31.5934C516.306 31.5959 516.357 31.5886 516.405 31.572C516.453 31.5555 516.497 31.5299 516.535 31.4968C516.573 31.4637 516.603 31.4238 516.624 31.3793C516.645 31.3349 516.657 31.2868 516.659 31.238C516.672 31.1389 516.644 31.0389 516.58 30.9595C516.517 30.8802 516.424 30.8279 516.321 30.814C516.27 30.8115 516.219 30.8187 516.171 30.8353C516.123 30.8519 516.079 30.8774 516.041 30.9105C516.003 30.9436 515.973 30.9836 515.952 31.028C515.931 31.0724 515.919 31.1205 515.917 31.1694C515.904 31.2685 515.932 31.3685 515.996 31.4478C516.059 31.5271 516.152 31.5794 516.255 31.5934Z" fill="#CDC9C9"/>
<path d="M516.548 17.799C516.599 17.8024 516.65 17.7958 516.699 17.7795C516.747 17.7633 516.791 17.7378 516.829 17.7045C516.867 17.6712 516.897 17.6309 516.918 17.5861C516.939 17.5412 516.95 17.4928 516.951 17.4436C516.964 17.3453 516.936 17.246 516.872 17.1677C516.809 17.0893 516.715 17.0383 516.613 17.0259C516.562 17.0234 516.511 17.0306 516.463 17.0472C516.415 17.0638 516.371 17.0894 516.333 17.1224C516.296 17.1555 516.265 17.1955 516.244 17.2399C516.223 17.2844 516.211 17.3324 516.209 17.3813C516.198 17.4794 516.227 17.5778 516.29 17.6557C516.354 17.7337 516.446 17.7851 516.548 17.799Z" fill="#CDC9C9"/>
<path d="M529.206 23.5181L529.303 23.5492C529.411 23.5543 529.52 23.5387 529.621 23.5034C529.723 23.4681 529.817 23.4138 529.897 23.3436C529.977 23.2735 530.041 23.1888 530.087 23.0946C530.132 23.0003 530.158 22.8984 530.162 22.7946C530.192 22.5815 530.133 22.3657 529.997 22.194C529.862 22.0224 529.662 21.9088 529.44 21.8779C529.332 21.8729 529.224 21.8885 529.123 21.9238C529.021 21.9592 528.928 22.0136 528.849 22.0839C528.769 22.1541 528.705 22.2388 528.66 22.333C528.616 22.4272 528.591 22.529 528.588 22.6325C528.578 22.7925 528.614 22.9521 528.692 23.094C528.739 23.1967 528.81 23.288 528.899 23.3613C528.988 23.4346 529.093 23.4882 529.206 23.5181Z" fill="#CDC9C9"/>
<path d="M529.345 27.6027C529.348 27.5784 529.347 27.5537 529.34 27.5301C529.334 27.5064 529.322 27.4843 529.306 27.465C529.29 27.4458 529.271 27.4298 529.248 27.4181C529.226 27.4064 529.201 27.3992 529.176 27.3969C529.15 27.3952 529.125 27.3985 529.101 27.4064C529.077 27.4143 529.055 27.4268 529.036 27.4431C529.017 27.4594 529.002 27.4792 528.991 27.5012C528.981 27.5233 528.975 27.5472 528.974 27.5715C528.968 27.6209 528.983 27.6705 529.014 27.71C529.046 27.7495 529.092 27.7758 529.143 27.7835C529.169 27.7852 529.195 27.7818 529.219 27.7735C529.244 27.7652 529.266 27.7521 529.285 27.7352C529.304 27.7182 529.319 27.6977 529.329 27.6749C529.339 27.6521 529.345 27.6275 529.345 27.6027Z" fill="#CDC9C9"/>
<path d="M532.418 25.1386C532.443 25.1402 532.468 25.137 532.492 25.1291C532.516 25.1211 532.538 25.1087 532.557 25.0924C532.576 25.0761 532.591 25.0563 532.602 25.0342C532.613 25.0122 532.619 24.9883 532.619 24.964C532.621 24.9285 532.611 24.8935 532.591 24.8633C532.572 24.8331 532.544 24.809 532.51 24.7941C532.477 24.7792 532.439 24.7741 532.403 24.7794C532.366 24.7847 532.332 24.8002 532.304 24.824C532.277 24.8478 532.257 24.8788 532.248 24.9131C532.239 24.9475 532.24 24.9837 532.253 25.0172C532.265 25.0507 532.287 25.0801 532.316 25.1017C532.345 25.1233 532.381 25.1361 532.418 25.1386Z" fill="#CDC9C9"/>
<path d="M526.332 25.2954C526.281 25.2929 526.23 25.3001 526.182 25.3167C526.134 25.3333 526.09 25.3589 526.052 25.392C526.014 25.4251 525.984 25.465 525.963 25.5094C525.942 25.5539 525.93 25.6019 525.928 25.6508C525.917 25.7489 525.946 25.8473 526.009 25.9253C526.072 26.0032 526.165 26.0546 526.266 26.0686C526.318 26.072 526.369 26.0653 526.417 26.0491C526.466 26.0328 526.51 26.0073 526.548 25.974C526.586 25.9408 526.616 25.9005 526.637 25.8556C526.658 25.8108 526.669 25.7623 526.67 25.7132C526.683 25.6148 526.654 25.5155 526.591 25.4372C526.527 25.3589 526.434 25.3079 526.332 25.2954Z" fill="#CDC9C9"/>
<path d="M508.788 75C530.21 75 547.575 58.2107 547.575 37.5C547.575 16.7893 530.21 0 508.788 0C487.366 0 470 16.7893 470 37.5C470 58.2107 487.366 75 508.788 75Z" fill="#EBEBEB"/>
<path d="M523.436 14.3122L522.343 13.5077C522.219 13.4262 522.115 13.3198 522.038 13.1959C521.984 13.0449 521.954 12.8874 521.947 12.7282C521.888 12.4448 521.724 12.1917 521.484 12.017C521.244 11.8422 520.946 11.758 520.645 11.7802C520.411 11.2065 520.359 10.5828 520.144 10.0028C520.06 9.70406 519.896 9.43169 519.667 9.21285C519.439 8.994 519.155 8.83632 518.843 8.75552C518.595 8.75034 518.348 8.71684 518.108 8.65573C517.871 8.51565 517.652 8.34809 517.458 8.15682C516.722 7.62048 515.447 7.91359 514.985 7.15274C514.903 6.95895 514.809 6.76951 514.706 6.58522C514.532 6.39805 514.306 6.26183 514.055 6.19232C513.144 5.87426 512.103 5.56867 511.225 5.91168C510.912 6.0689 510.583 6.19431 510.243 6.28587C509.859 6.342 509.442 6.20479 509.091 6.35447C508.876 6.44178 508.701 6.63511 508.473 6.64759C508.309 6.6356 508.152 6.58176 508.018 6.49167C507.131 5.97419 506.089 5.75475 505.057 5.86803C505.174 5.78717 505.301 5.72016 505.435 5.66846C505.532 5.66846 505.643 5.61856 505.747 5.59362C506.004 5.52853 506.231 5.38648 506.398 5.18825L506.339 5.03857C506.202 5.12588 506.014 5.03857 505.884 4.94502C505.775 4.82559 505.625 4.74804 505.461 4.72675C505.379 4.7409 505.298 4.76177 505.22 4.78911C504.875 4.86395 504.57 4.57707 504.205 4.57707C504.089 4.57608 503.974 4.59728 503.867 4.63944C503.37 4.79331 502.909 5.03674 502.507 5.35663C502.46 5.39032 502.42 5.43272 502.39 5.48136C502.367 5.55461 502.367 5.63263 502.39 5.70588C502.409 5.83697 502.46 5.96187 502.539 6.0703C502.619 6.17872 502.723 6.26757 502.845 6.32952C503.115 6.43965 503.415 6.45942 503.698 6.38565C503.726 6.38918 503.754 6.38918 503.782 6.38565C503.593 6.53165 503.438 6.71443 503.327 6.92199C503.219 7.11826 503.172 7.34009 503.192 7.56117C503.211 7.78224 503.297 7.9933 503.438 8.16929C503.099 8.38757 502.735 7.88241 502.332 7.84499C502.032 7.84499 501.785 8.05079 501.59 8.26283L500.777 9.14218L499.833 8.86777C499.681 8.81835 499.517 8.81835 499.365 8.86777C499.226 8.94569 499.1 9.04467 498.994 9.16089C498.903 9.24143 498.794 9.29994 498.674 9.33152C498.555 9.3631 498.43 9.36683 498.309 9.3424C498.188 9.31797 498.074 9.26609 497.979 9.19111C497.883 9.11613 497.807 9.02022 497.758 8.91143C497.825 8.88168 497.886 8.83934 497.936 8.78687C497.987 8.73441 498.026 8.67286 498.051 8.60584C498.024 8.54093 497.976 8.48623 497.913 8.45017C497.851 8.4141 497.778 8.39868 497.706 8.40628C497.742 8.21067 497.857 8.03627 498.025 7.91983C498.252 7.77015 498.584 7.70779 498.675 7.46456L499.189 7.14027C499.255 7.10838 499.311 7.06119 499.352 7.00307C499.371 6.97538 499.381 6.94282 499.381 6.90952C499.381 6.87622 499.371 6.84366 499.352 6.81597C499.671 6.49791 499.28 5.71835 499.625 5.31921C499.758 5.21105 499.924 5.14614 500.098 5.13381C500.272 5.12149 500.446 5.16238 500.594 5.25061C500.888 5.43436 501.215 5.56538 501.557 5.63727C502.084 5.67469 502.52 5.26932 502.917 4.93879C503.096 4.75584 503.325 4.62404 503.578 4.55799C503.83 4.49195 504.097 4.49423 504.348 4.5646C504.205 4.50847 504.622 3.87235 504.869 3.89106C505.012 3.89106 505.025 4.12804 505.142 4.19041C505.858 4.5646 506.762 4.06568 507.543 3.98461C508.534 3.87317 509.536 3.90893 510.516 4.09063C510.581 3.84117 510.295 3.66031 510.047 3.55429C509.19 3.15643 508.292 2.84501 507.367 2.62505C505.704 2.30841 503.98 2.49812 502.436 3.16763C502.07 3.36398 501.663 3.47708 501.245 3.49816C501.037 3.49816 500.842 3.41709 500.633 3.41709C500.271 3.44096 499.932 3.59987 499.69 3.85988C499.387 3.86401 499.092 3.95051 498.838 4.10933C498.721 4.17794 498.604 4.25277 498.5 4.32761C498.571 4.42116 498.721 4.36503 498.825 4.32761C499.013 4.23004 499.218 4.16462 499.43 4.13428L499.306 4.26525C499.059 4.54589 498.701 4.47729 498.324 4.52094C498.192 4.52388 498.061 4.54274 497.934 4.57707C497.803 4.62452 497.687 4.70157 497.595 4.80158L497.96 4.38998C498.008 4.34757 498.047 4.2955 498.073 4.23735C498.099 4.17921 498.111 4.11638 498.109 4.05321C498.297 4.04968 498.481 4.00311 498.647 3.91741C498.812 3.8317 498.953 3.70933 499.059 3.56052C499.088 3.50402 499.133 3.45648 499.189 3.42332C499.293 3.37343 499.43 3.42332 499.541 3.42332C499.651 3.42332 499.677 3.28612 499.729 3.19881C499.884 2.99443 500.096 2.83651 500.341 2.74354L501.486 2.16979L501.037 2.10742C500.927 2.10834 500.818 2.12089 500.712 2.14484H500.673C499.406 2.21361 498.168 2.53881 497.042 3.09902C496.948 3.15098 496.85 3.19682 496.75 3.23623C496.652 3.23623 496.554 3.28612 496.457 3.31106C495.824 3.46585 495.211 3.68757 494.629 3.97213L491.376 5.51254C491.259 5.56867 491.122 5.66222 491.155 5.78695L491.805 5.85555C491.305 5.97011 490.836 6.18243 490.426 6.4792C490.308 6.58792 490.165 6.66903 490.009 6.71619C489.912 6.71619 489.821 6.71619 489.723 6.71619C489.594 6.75248 489.475 6.81407 489.372 6.89704L485.976 9.30433C485.317 9.74061 484.705 10.2378 484.148 10.7886C483.469 11.4049 482.841 12.07 482.268 12.7781C481.864 13.4017 481.617 14.0752 481.175 14.649L482.118 13.9318C482.269 13.8246 482.408 13.7034 482.534 13.5701C482.632 13.4578 482.71 13.3331 482.795 13.2146C483.022 12.9125 483.27 12.625 483.536 12.354C483.65 12.217 483.786 12.099 483.94 12.0047C484.037 11.9424 484.148 11.9049 484.245 11.8363C484.343 11.7677 484.447 11.6368 484.558 11.5432C484.608 11.4919 484.673 11.4545 484.743 11.4348C484.814 11.415 484.889 11.4137 484.961 11.431C484.85 11.6243 484.72 11.8176 484.59 12.0047C484.547 12.0705 484.49 12.126 484.421 12.1669C484.341 12.1951 484.258 12.2139 484.174 12.223C483.816 12.2978 483.627 12.6658 483.484 12.9901H483.914C483.925 13.028 483.927 13.0677 483.92 13.1065C483.913 13.1453 483.898 13.1822 483.874 13.2146C483.538 13.9098 483.121 14.5666 482.632 15.1729C482.967 14.7521 483.176 14.2519 483.237 13.726C482.738 14.0624 482.299 14.4729 481.936 14.9421C481.709 15.2592 481.365 15.482 480.973 15.5658C480.982 15.4015 481.036 15.2424 481.129 15.1043C480.732 15.1043 480.478 15.4847 480.283 15.8277C479.925 16.5199 479.561 17.2122 479.197 17.9044L478.501 19.2328L477.954 20.2743C477.911 20.3346 477.882 20.4036 477.871 20.476C477.86 20.5484 477.866 20.6224 477.889 20.6922C478.418 20.1945 478.885 19.6399 479.281 19.0395C479.345 18.9314 479.419 18.8292 479.503 18.7339C479.6 18.6404 479.717 18.5655 479.815 18.4782C480.212 18.1352 480.387 17.5864 480.83 17.3057C480.83 17.7174 480.42 18.0105 480.127 18.3223C479.828 18.642 479.606 19.021 479.477 19.4324C479.446 19.5684 479.397 19.7003 479.333 19.8253C479.255 19.9438 479.145 20.0373 479.067 20.1558C478.935 20.4286 478.897 20.734 478.956 21.0289C478.956 21.0289 478.956 21.0663 478.956 21.0788C478.956 21.0913 479.041 21.0788 479.073 21.0788L479.899 20.5799C479.883 20.8228 479.916 21.0664 479.997 21.2971C480.039 21.4135 480.052 21.5374 480.036 21.6595C480.02 21.7816 479.976 21.8987 479.906 22.0018C479.432 22.4009 479.128 22.954 479.054 23.5547C479.074 23.8032 479.043 24.0531 478.961 24.2898C478.88 24.5265 478.75 24.7451 478.579 24.933C478.488 25.0016 478.384 25.0639 478.351 25.1637C478.337 25.2677 478.353 25.3733 478.397 25.4693C478.475 25.856 478.143 26.1865 477.902 26.5046C477.826 26.5888 477.773 26.6894 477.746 26.7977C477.736 26.8972 477.736 26.9975 477.746 27.097C477.763 27.3292 477.716 27.5616 477.609 27.7706L478.136 28.0762C478.226 28.1184 478.306 28.1778 478.371 28.2508C478.422 28.3482 478.467 28.4481 478.507 28.5501C478.592 28.6936 478.748 28.7996 478.793 28.9555C478.806 29.0382 478.806 29.1223 478.793 29.205C478.759 29.6387 478.859 30.0725 479.08 30.4523C479.158 30.5637 479.22 30.6856 479.262 30.814C479.327 31.1133 479.132 31.4376 479.262 31.7183C479.151 31.7183 479.21 31.9116 479.262 31.9864C479.353 32.0486 479.462 32.0814 479.574 32.08C479.63 32.0776 479.686 32.087 479.737 32.1075C479.789 32.128 479.836 32.159 479.873 32.1985C479.997 32.3544 479.828 32.5664 479.763 32.7535C479.734 32.847 479.732 32.9461 479.758 33.0405C479.783 33.1349 479.834 33.221 479.906 33.2899C479.984 33.3647 480.095 33.4333 480.082 33.5393C480.069 33.6453 479.912 33.6952 479.802 33.7514C479.477 33.9073 479.483 34.375 479.626 34.6868C479.823 34.9841 479.951 35.3177 480.004 35.666C480.152 35.684 480.292 35.7423 480.407 35.8339C480.523 35.9256 480.608 36.0469 480.654 36.1836C480.654 36.2709 480.706 36.3832 480.797 36.4143C480.888 36.4455 481.018 36.3395 481.064 36.2272C481.214 35.8406 481.064 35.3728 481.298 35.0236C481.421 34.874 481.555 34.7343 481.702 34.6058C481.774 34.5398 481.825 34.4555 481.849 34.3628C481.873 34.2701 481.869 34.1727 481.838 34.0819C481.786 33.9821 481.682 33.9073 481.623 33.8137C481.565 33.7202 481.591 33.5456 481.708 33.5331C481.876 33.6526 481.999 33.8211 482.059 34.0133H482.508V34.6993C482.374 34.799 482.275 34.935 482.223 35.0896C482.171 35.2442 482.168 35.4102 482.216 35.5662C482.229 35.6172 482.254 35.665 482.287 35.7068C482.321 35.7486 482.363 35.7835 482.411 35.8094C482.482 35.8406 482.56 35.8468 482.625 35.8718C483.009 36.0152 482.866 36.7449 483.276 36.8197C483.439 36.8197 483.601 36.7386 483.764 36.7511C483.927 36.7636 484.05 36.8322 484.135 36.7511C484.219 36.67 484.135 36.5827 484.135 36.5016C484.05 36.2438 484.05 35.9674 484.135 35.7096C483.984 35.3676 483.888 35.0061 483.848 34.6369L483.959 34.5808C484.163 34.7221 484.332 34.9053 484.453 35.1172C484.519 35.2606 484.538 35.4227 484.616 35.5599C484.651 35.6305 484.71 35.6875 484.783 35.7215C484.857 35.7555 484.94 35.7645 485.02 35.747C485.083 35.7073 485.133 35.6509 485.164 35.5846C485.196 35.5183 485.206 35.4448 485.195 35.3728C485.173 35.2281 485.173 35.081 485.195 34.9363C485.254 34.6557 485.579 34.5122 485.846 34.4124C485.846 34.5122 485.748 34.5746 485.664 34.6432C485.584 34.7256 485.527 34.8257 485.497 34.9346C485.468 35.0434 485.467 35.1576 485.494 35.2668C485.511 35.6324 485.642 35.9847 485.872 36.2771C485.986 36.4194 486.146 36.5216 486.327 36.5678C486.509 36.614 486.701 36.6018 486.874 36.5328C487.29 36.327 487.355 35.7969 487.362 35.3417C487.492 35.2793 487.687 35.2294 487.758 35.3417C487.83 35.4539 487.758 35.535 487.758 35.6348C487.758 35.7346 488.006 35.9341 488.019 36.115C488.017 36.22 487.978 36.3213 487.908 36.4019C487.758 36.6451 487.654 37.0255 487.908 37.1627C487.975 37.1978 488.048 37.223 488.123 37.2376C488.298 37.2948 488.45 37.402 488.559 37.5447C488.669 37.6874 488.73 37.8588 488.734 38.0358C488.8 38.0527 488.857 38.0902 488.897 38.1423C488.937 38.1944 488.958 38.258 488.956 38.3227C488.952 38.3868 488.927 38.448 488.883 38.4966C488.84 38.5452 488.78 38.5784 488.715 38.5909C488.657 38.589 488.6 38.6043 488.552 38.6345C488.461 38.7218 488.585 38.9027 488.487 38.9838C488.451 39.0047 488.411 39.0195 488.37 39.0274C488.162 39.096 488.188 39.3829 488.214 39.595C488.231 39.833 488.187 40.0715 488.085 40.2891C487.982 40.5067 487.826 40.6968 487.628 40.8423C487.495 40.9576 487.327 41.0279 487.148 41.0425C486.97 41.0572 486.791 41.0153 486.639 40.9233C486.517 40.8117 486.41 40.686 486.321 40.5491C486.291 40.4973 486.249 40.4532 486.198 40.4209C486.146 40.3886 486.087 40.3691 486.026 40.3642C485.964 40.3592 485.903 40.369 485.846 40.3926C485.79 40.4161 485.741 40.4528 485.703 40.4992C485.353 40.7703 485.094 41.135 484.961 41.547C484.951 41.6897 484.921 41.8304 484.87 41.9648C484.762 42.1107 484.638 42.2446 484.499 42.364C484.424 42.4498 484.369 42.5496 484.337 42.6569C484.304 42.7642 484.295 42.8768 484.31 42.9876C484.434 43.1373 484.252 43.3306 484.167 43.5052C484.064 43.6661 483.97 43.8327 483.887 44.0042C483.786 44.3907 483.83 44.7992 484.011 45.1579C484.147 45.6697 484.421 46.1385 484.805 46.5175C484.912 46.6033 485.025 46.6825 485.143 46.7544C485.638 47.0221 486.05 47.4091 486.34 47.877C486.626 47.9518 486.952 47.7086 487.205 47.877C487.292 47.9447 487.36 48.0328 487.401 48.1327C487.537 48.3884 487.674 48.6503 487.804 48.906C487.895 49.1233 488.043 49.3144 488.233 49.4611C488.331 49.5311 488.453 49.5624 488.574 49.5484C488.695 49.5345 488.806 49.4764 488.884 49.3862C489.04 49.1492 488.845 48.8187 488.943 48.5505C489.04 48.2824 489.665 48.1077 489.71 47.7273C489.71 47.5714 489.652 47.3719 489.775 47.2658C489.828 47.2233 489.89 47.1934 489.957 47.1785C490.062 47.1334 490.146 47.0539 490.195 46.9544C490.244 46.855 490.254 46.742 490.224 46.6359C490.712 46.5985 491.304 46.6359 491.525 47.0226C491.577 47.1162 491.675 47.2346 491.753 47.166C491.658 46.6595 491.647 46.1417 491.721 45.6319C491.762 45.4922 491.776 45.3461 491.76 45.2016C491.668 44.7899 491.05 44.7026 490.842 44.3284C490.634 43.9543 491.044 43.2745 490.725 42.8816C490.536 42.6384 490.127 42.6072 489.99 42.3328C489.956 42.2326 489.914 42.1346 489.866 42.0396C489.792 41.9633 489.704 41.9 489.606 41.8526C489.451 41.7079 489.335 41.5284 489.27 41.3301C489.206 41.1319 489.194 40.9213 489.235 40.7175C489.329 40.3066 489.329 39.8811 489.235 39.4702C489.164 39.3317 489.112 39.185 489.079 39.0337C489.074 38.9674 489.083 38.9009 489.105 38.8379C489.127 38.775 489.162 38.7171 489.208 38.6676C489.255 38.618 489.311 38.578 489.374 38.5498C489.436 38.5216 489.504 38.5059 489.574 38.5036C489.643 38.5068 489.71 38.5242 489.771 38.5546C489.832 38.585 489.886 38.6277 489.929 38.6797C489.971 38.7318 490.002 38.792 490.018 38.8563C490.034 38.9206 490.036 38.9874 490.022 39.0524C489.953 39.2199 489.846 39.3709 489.71 39.4952C489.642 39.5599 489.597 39.6433 489.581 39.7338C489.564 39.8243 489.578 39.9175 489.619 40.0003C489.687 40.0156 489.748 40.0483 489.798 40.0949C489.847 40.1415 489.882 40.2003 489.899 40.2647C489.915 40.3291 489.913 40.3967 489.893 40.46C489.872 40.5234 489.834 40.5801 489.782 40.624C489.717 40.6676 489.632 40.6926 489.561 40.7425C489.491 40.8231 489.453 40.9246 489.453 41.0293C489.453 41.1341 489.491 41.2356 489.561 41.3162C489.699 41.4795 489.847 41.6356 490.003 41.784C490.058 41.8815 490.139 41.9633 490.237 42.0209C490.298 42.0299 490.359 42.0299 490.419 42.0209H490.914C490.974 42.0332 491.036 42.0332 491.096 42.0209C491.191 41.9843 491.276 41.9266 491.343 41.8526C491.613 41.6369 491.919 41.4661 492.247 41.3474C492.357 41.2898 492.48 41.2577 492.605 41.2539C492.892 41.2539 493.067 41.5532 493.256 41.759C493.56 42.042 493.927 42.2552 494.329 42.3827C494.59 41.7417 494.626 41.0371 494.433 40.3745C494.158 39.9118 493.811 39.4914 493.406 39.1272C493.21 38.9453 493.065 38.7192 492.984 38.4697C492.904 38.2201 492.89 37.9551 492.944 37.6991L493.217 37.5619C493.415 37.6454 493.593 37.7672 493.739 37.9196C493.886 38.0719 493.998 38.2516 494.069 38.4474C494.148 38.7555 494.206 39.0679 494.245 39.3829C494.348 39.8565 494.595 40.2904 494.954 40.6302V39.5326C494.944 39.4812 494.946 39.4284 494.959 39.3778C494.973 39.3272 494.998 39.28 495.032 39.2395C495.076 39.2102 495.126 39.19 495.179 39.1804C495.231 39.1707 495.286 39.1717 495.338 39.1833C495.65 39.2201 495.958 39.2891 496.255 39.3891C496.348 39.4149 496.433 39.462 496.502 39.5263C496.571 39.6243 496.609 39.7389 496.613 39.8569C496.665 40.2997 496.671 40.8422 496.281 41.1042C495.995 41.2788 495.565 41.2289 495.364 41.4971C495.162 41.7652 495.26 41.9461 495.084 42.1207C494.908 42.2953 494.837 42.2267 494.772 42.3265C494.707 42.4263 494.811 42.707 494.772 42.894C494.733 43.0811 494.629 43.131 494.674 43.2495C494.72 43.368 494.772 43.3618 494.83 43.4117C495.104 43.6424 495.045 44.0353 494.96 44.4033C494.876 44.7712 494.83 44.9646 494.759 45.2452C494.814 44.6719 494.652 44.0986 494.303 43.63C493.98 43.6539 493.656 43.6003 493.36 43.474C493.212 43.4126 493.048 43.3935 492.889 43.419C492.73 43.4444 492.582 43.5133 492.462 43.6175C492.394 43.7289 492.354 43.8543 492.346 43.9833C492.338 44.1123 492.362 44.2413 492.417 44.3596C492.529 44.5952 492.593 44.8493 492.605 45.108C492.605 45.4261 492.365 45.7317 492.54 46.031L492.931 46.1932C493.139 46.2805 493.392 46.5112 493.236 46.6734C493.08 46.8355 492.735 46.7607 492.761 46.9478C492.774 46.9957 492.801 47.039 492.84 47.0725C493.132 47.3719 493.49 47.7647 493.321 48.1514C493.437 48.1373 493.554 48.1461 493.666 48.1772C493.778 48.2083 493.882 48.2611 493.972 48.3323C494.48 48.6643 494.905 49.1011 495.214 49.6107C495.312 49.7667 495.396 49.9288 495.494 50.0847C495.715 50.0847 495.774 49.7978 495.754 49.5858L495.637 48.6191C495.615 48.3724 495.569 48.1282 495.5 47.8895C495.396 47.5527 495.208 47.2658 495.091 46.9166C495.016 46.7566 494.978 46.5835 494.978 46.4083C494.978 46.2332 495.016 46.06 495.091 45.9C495.305 46.0296 495.487 46.202 495.625 46.4055C495.763 46.6089 495.854 46.8386 495.891 47.0787C495.891 47.2534 495.891 47.428 495.949 47.5964C496.034 48.1327 496.405 48.6004 496.47 49.1368C496.469 49.3229 496.506 49.5073 496.58 49.6793C496.646 49.7732 496.73 49.8538 496.828 49.9163L497.914 50.7271C498.005 50.7957 498.064 50.9391 498.168 50.8955C498.031 50.434 497.888 49.9787 497.751 49.5172L498.636 50.2406C498.612 50.1337 498.611 50.0231 498.634 49.9159C498.656 49.8086 498.701 49.7068 498.766 49.617C498.837 49.5205 498.941 49.4508 499.06 49.4201C499.179 49.3893 499.305 49.3994 499.417 49.4486C499.468 49.4747 499.512 49.5114 499.546 49.5558C499.581 49.6003 499.604 49.6515 499.615 49.7058C499.627 49.7601 499.625 49.8161 499.611 49.8697C499.597 49.9234 499.571 49.9734 499.534 50.0161C499.761 49.8255 500.044 49.7084 500.345 49.6815C500.645 49.6546 500.946 49.7194 501.206 49.8664C501.324 49.9587 501.462 50.0247 501.609 50.0598C501.889 50.0972 502.175 49.8353 502.429 49.96C502.683 50.0847 502.735 50.54 503.021 50.515C503.197 50.515 503.327 50.2905 503.49 50.3404L503.548 50.7396C504.004 50.6959 504.57 50.5525 504.641 50.1159C504.644 50.0357 504.657 49.9561 504.68 49.8789C504.731 49.7776 504.81 49.6914 504.908 49.6295C505.28 49.3721 505.549 49 505.669 48.5755C505.723 48.3624 505.7 48.138 505.605 47.9388C505.509 47.7395 505.346 47.5771 505.142 47.4779C505.031 47.3843 505.142 47.2097 505.253 47.1224C505.363 47.0351 505.506 46.9041 505.441 46.7794C505.376 46.6547 505.305 46.6671 505.253 46.5985C505.103 46.4239 505.324 46.1183 505.175 45.9375C505.109 45.8501 504.992 45.8314 504.901 45.7753C504.84 45.7282 504.789 45.6697 504.752 45.6033C504.714 45.537 504.691 45.464 504.684 45.389C504.677 45.3139 504.685 45.2381 504.709 45.1663C504.733 45.0944 504.772 45.028 504.823 44.9708C505.041 44.7455 505.321 44.5835 505.63 44.5031L506.502 44.1912C506.729 44.1102 506.996 43.9792 507.003 43.7422C507.009 43.5052 506.879 43.368 507.003 43.2682C507.126 43.1685 507.198 43.2682 507.295 43.2183C507.523 43.1622 507.562 42.8629 507.543 42.6321C507.523 42.4014 507.543 42.3016 507.51 42.1332C507.494 42.0613 507.494 41.9868 507.51 41.9149C507.562 41.784 507.705 41.7091 507.822 41.6218C507.94 41.5345 508.037 41.3723 507.953 41.2539L506.768 41.3037C506.595 41.3271 506.419 41.301 506.261 41.2289C506.223 41.2088 506.19 41.1816 506.163 41.149C506.136 41.1163 506.116 41.0788 506.105 41.0387C506.093 40.9986 506.09 40.9567 506.096 40.9155C506.101 40.8742 506.116 40.8345 506.137 40.7986L505.851 40.705V40.0814C505.846 40.0215 505.857 39.9612 505.884 39.9068C505.92 39.8492 505.972 39.8018 506.033 39.7696L506.586 39.4141C506.572 39.5126 506.59 39.6129 506.638 39.7011C506.686 39.7894 506.761 39.8612 506.853 39.9068C507.029 39.9068 507.055 39.6636 506.977 39.5139C506.899 39.3642 506.762 39.2145 506.834 39.0586C506.834 39.0087 506.905 38.9651 506.938 38.9089C507.081 38.647 506.658 38.3476 506.742 38.0608L505.78 37.8176C505.704 37.7013 505.619 37.5908 505.526 37.487C504.597 37.6851 503.648 37.7855 502.696 37.7864H502.468C502.447 38.0284 502.463 38.2719 502.514 38.5098L502.976 38.1418C502.937 38.6062 502.988 39.0733 503.125 39.5201C503.149 39.5755 503.162 39.6348 503.162 39.6947C503.162 39.7547 503.149 39.814 503.125 39.8694C503.06 39.9629 502.924 39.9941 502.845 40.0814C502.605 40.3371 503.067 40.7549 502.904 41.0605C502.546 41.0605 502.253 40.5866 501.935 40.7425C501.863 40.7799 501.805 40.8547 501.726 40.8734C501.648 40.8921 501.401 40.7113 501.414 40.5304C501.427 40.3496 501.538 40.1937 501.557 40.0128C501.543 39.7497 501.483 39.4906 501.382 39.2457C501.363 38.9978 501.324 38.7518 501.265 38.5098C501.173 38.2728 500.881 38.0795 500.66 38.2042C500.654 37.9785 500.575 37.7601 500.432 37.5806C498.404 37.2396 496.491 36.4352 494.856 35.2356L494.778 35.2918C494.599 35.5436 494.527 35.8514 494.577 36.1524C494.577 36.4518 494.485 36.8197 494.186 36.9008C493.926 36.7075 493.972 36.2771 493.705 36.0838C493.581 35.9965 493.412 35.984 493.282 35.8967C493.195 35.8161 493.127 35.7189 493.082 35.6115C493.038 35.504 493.017 35.3887 493.022 35.2731C492.977 35.0831 492.977 34.886 493.023 34.6961C493.068 34.5062 493.156 34.3283 493.282 34.1754C493.333 34.1317 493.39 34.094 493.451 34.0632C491.128 31.7931 502.696 33.0841 502.696 29.6415C502.696 27.2592 502.123 26.0742 501.655 25.5504C502.74 25.8427 503.866 25.969 504.992 25.9246C509.364 25.9246 510.913 14.755 513.268 17.9481C513.388 17.8315 513.536 17.745 513.7 17.6961C513.863 17.6472 514.036 17.6373 514.205 17.6675C515.252 17.892 515.33 19.4137 516.241 19.9562H517.458C517.565 20.1309 517.723 20.272 517.912 20.3627C518.102 20.4534 518.314 20.4899 518.525 20.4676C518.816 20.4436 519.091 20.3297 519.309 20.1431C519.527 19.9564 519.677 19.7071 519.735 19.4324C519.784 19.1515 519.716 18.8633 519.546 18.6299C519.375 18.3966 519.116 18.2368 518.824 18.1851C518.643 18.1811 518.462 18.1645 518.284 18.1352C518.115 18.0791 517.958 17.9044 518.024 17.7423C518.323 17.3432 518.986 17.4928 519.377 17.7984C519.767 18.104 520.092 18.5406 520.574 18.684C520.841 18.0042 521.934 17.8296 522.051 17.1124C522.044 16.9298 522.063 16.7472 522.109 16.5698C522.265 16.1956 522.883 16.1458 522.981 15.7591C522.998 15.5915 522.983 15.4224 522.935 15.2602C522.901 15.0715 522.931 14.8771 523.021 14.7062C523.111 14.5353 523.257 14.397 523.436 14.3122Z" fill="#CDC9C9"/>
<path d="M514.99 20.0067C514.83 19.8922 514.649 19.8056 514.457 19.751C514.83 20.5008 515.124 21.2842 515.335 22.0897C515.446 22.0193 515.548 21.9377 515.641 21.8464C515.676 21.513 515.636 21.1763 515.524 20.8589C515.412 20.5416 515.23 20.251 514.99 20.0067Z" fill="#CDC9C9"/>
<path d="M492.478 21.541C492.503 21.547 492.53 21.547 492.556 21.541C492.579 21.5445 492.603 21.5445 492.627 21.541C492.675 21.5365 492.723 21.5432 492.767 21.5606C492.811 21.578 492.85 21.6055 492.881 21.6408C492.959 21.6969 493.057 21.7468 493.141 21.6969C493.226 21.647 493.206 21.541 493.174 21.4599C493.128 21.3853 493.099 21.3025 493.089 21.2167C493.085 21.1773 493.085 21.1376 493.089 21.0982C493.098 21.0268 493.085 20.9545 493.051 20.8902C493.018 20.826 492.965 20.7725 492.9 20.7365C492.839 20.6957 492.767 20.6738 492.692 20.6738C492.618 20.6738 492.545 20.6957 492.484 20.7365C492.545 20.7997 492.588 20.8771 492.608 20.961C492.615 21.0039 492.605 21.048 492.58 21.084C492.555 21.1201 492.515 21.1453 492.471 21.1543C492.406 21.1543 492.347 21.1107 492.289 21.0982C492.242 21.0871 492.193 21.0923 492.15 21.1129C492.107 21.1335 492.073 21.1681 492.055 21.2104C492.162 21.3551 492.308 21.4693 492.478 21.541Z" fill="#CDC9C9"/>
<path d="M511.951 4.1535L512.946 4.26575C513.115 4.26575 513.343 4.40919 513.252 4.5464C513.018 4.50274 512.822 4.78338 512.881 5.0079C512.921 5.11654 512.985 5.21539 513.069 5.29734C513.154 5.37929 513.256 5.44231 513.369 5.48187C514.794 6.10552 516.518 5.05155 518.008 5.51929C518.801 5.76875 519.4 6.42358 520.187 6.69798C520.512 6.81024 520.935 6.93497 520.948 7.2655C520.948 7.35282 520.948 7.43389 520.948 7.5212C520.968 7.65003 521.031 7.76899 521.129 7.85932C521.227 7.94966 521.353 8.00623 521.488 8.02012C521.757 8.03765 522.028 8.0272 522.295 7.98894C522.859 7.95784 523.414 8.13153 523.85 8.47538C523.973 8.5814 523.765 8.72484 523.655 8.8371C523.401 9.08032 523.687 9.53559 524.038 9.59171C524.398 9.60327 524.755 9.52368 525.073 9.36096C525.696 9.12074 526.389 9.10303 527.025 9.31107C527.339 9.42193 527.619 9.60871 527.837 9.85341C528.055 10.0981 528.203 10.3925 528.267 10.708C528.282 10.7554 528.286 10.8056 528.277 10.8544C528.268 10.9032 528.246 10.9492 528.215 10.9887C528.149 11.0448 528.063 11.0739 527.974 11.0698C527.565 11.0815 527.162 10.977 526.815 10.7695C526.467 10.562 526.192 10.2607 526.023 9.90354C525.995 9.8124 525.938 9.73182 525.86 9.67279C525.816 9.649 525.767 9.63613 525.717 9.63537C525.222 9.63537 524.975 10.2902 525.216 10.708C525.508 11.0948 525.935 11.369 526.42 11.4814C527.612 11.9949 528.936 12.1598 530.225 11.9553C531.525 11.8897 532.815 11.7165 534.083 11.4377L533.498 10.6644C533.215 10.2221 532.838 9.84182 532.392 9.54806C531.494 9.04914 530.258 9.27989 529.458 8.64377C529.253 8.43003 529.021 8.24149 528.768 8.08248C528.563 7.99833 528.341 7.95586 528.118 7.95775C527.064 7.90159 526.008 7.91409 524.956 7.99517C524.6 8.05883 524.233 8.02644 523.895 7.90163C523.342 7.63346 523.199 6.95368 522.822 6.47971C522.488 6.11064 522.075 5.81494 521.612 5.61283L520.851 5.21994C520.694 5.12706 520.526 5.05371 520.35 5.00166C519.985 4.90187 519.595 5.00166 519.231 4.90187C518.888 4.82557 518.564 4.68805 518.274 4.4965L516.511 3.49867C516.332 3.37705 516.128 3.29407 515.913 3.25544C515.444 3.21802 514.995 3.58598 514.546 3.45501C514.392 3.39536 514.245 3.31788 514.111 3.22426C513.719 2.99982 513.261 2.90678 512.809 2.95987C512.356 3.01295 511.935 3.20913 511.612 3.51738C511.566 3.55419 511.527 3.59969 511.499 3.65113C511.471 3.70257 511.454 3.7589 511.45 3.81673C511.437 4.04124 511.723 4.12232 511.951 4.1535Z" fill="#CDC9C9"/>
<path d="M544.665 47.8833C544.566 47.5988 544.416 47.3329 544.223 47.0975C544.023 46.9118 543.805 46.7447 543.572 46.5986C542.819 46.0779 542.267 45.332 542.004 44.4782C542.144 44.3831 542.262 44.2606 542.35 44.1187C542.437 43.9768 542.492 43.8187 542.511 43.6549C542.693 42.7472 542.68 41.8136 542.472 40.9109C542.206 39.8943 541.588 39.121 540.365 39.4453C540.227 39.4863 540.085 39.5093 539.942 39.5139C539.382 39.4765 538.94 38.6845 538.452 38.9526C538.029 38.7593 538.419 38.0733 538.159 37.7053C538.042 37.5307 537.795 37.4247 537.801 37.2189C537.808 37.0131 537.899 37.0131 537.944 36.9071C537.957 36.8365 537.955 36.7642 537.939 36.6944C537.922 36.6246 537.891 36.5586 537.847 36.5005C537.804 36.4424 537.748 36.3932 537.685 36.3559C537.621 36.3187 537.55 36.294 537.476 36.2834C537.319 36.2741 537.162 36.2947 537.013 36.3439C536.865 36.3932 536.728 36.4701 536.611 36.5703C536.376 36.7723 536.121 36.9519 535.85 37.1066C536.128 37.3887 536.333 37.7305 536.446 38.1037C536.559 38.4769 536.578 38.8706 536.5 39.252C535.964 39.3455 535.411 39.2479 534.945 38.9776C534.856 38.8946 534.75 38.8308 534.633 38.7905C534.527 38.7718 534.418 38.7848 534.321 38.8279C533.731 39.0773 533.217 39.4682 532.831 39.9629L532.733 40.0752C532.479 39.5321 532.06 39.0754 531.53 38.7655C531.12 38.8154 530.938 39.3019 531.003 39.6948C531.068 40.0877 531.282 40.4369 531.321 40.8298C531.152 41.2788 530.326 40.9047 530.02 41.2539C529.95 41.3557 529.913 41.475 529.913 41.5969C529.913 41.7188 529.95 41.8381 530.02 41.9399C530.15 42.1457 530.346 42.3141 530.469 42.5261C530.15 43.0126 529.819 43.5053 529.519 43.998C529.454 43.7922 529.357 43.5489 529.142 43.5053C528.927 43.4616 528.648 43.7984 528.589 44.0853C528.53 44.3721 528.433 44.7089 528.134 44.7775C528.257 45.1455 528.882 44.9334 529.188 45.1704C529.493 45.4074 529.363 45.7005 529.383 45.9936C529.402 46.2867 529.702 46.6173 529.942 46.4489C530.038 46.3535 530.092 46.226 530.092 46.0934C530.248 45.1185 530.665 44.1989 531.302 43.4242C531.513 43.2317 531.65 42.977 531.692 42.7008C531.692 42.4638 531.536 42.2268 531.627 42.0023C531.718 41.7778 532.193 41.7279 532.519 41.6031C532.448 41.7316 532.36 41.851 532.258 41.9586C532.083 42.1332 531.855 42.2767 531.777 42.5074C531.699 42.7382 531.822 43.1311 531.673 43.3556C531.583 43.4724 531.476 43.5755 531.354 43.6612C531.062 43.9886 530.896 44.4028 530.886 44.8336C530.671 45.7051 530.702 46.6158 530.977 47.4717C531.219 47.8871 531.419 48.3235 531.575 48.7751C531.321 48.9622 530.957 48.7751 530.723 48.5444C530.489 48.3136 530.209 48.0641 529.897 48.1515C529.584 48.2388 529.448 48.482 529.214 48.3822C529.293 48.0643 529.259 47.7304 529.119 47.4325C528.979 47.1346 528.74 46.8896 528.439 46.7358C528.364 46.7055 528.3 46.6529 528.258 46.5856C528.216 46.5182 528.197 46.4398 528.205 46.3616C527.854 46.3616 527.698 46.7732 527.626 47.1037C527.555 47.4343 527.353 47.8521 527.008 47.796C526.891 47.796 526.787 47.7024 526.67 47.7087C526.403 47.7087 526.325 48.0829 526.097 48.2076C525.87 48.3323 525.661 48.2076 525.447 48.3198C525.232 48.4321 525.225 48.5568 525.102 48.6504C524.783 48.8936 524.328 48.6504 524.002 48.4383C523.677 48.2263 523.202 48.0018 522.903 48.2637C522.604 48.5256 522.714 48.8874 522.526 49.1119C522.337 49.3364 521.732 49.4985 521.673 49.879C521.545 49.7783 521.38 49.7286 521.215 49.7402C521.049 49.7518 520.894 49.8238 520.782 49.9413C520.791 50.3872 520.935 50.8208 521.198 51.1886C520.954 51.4404 520.654 51.6364 520.32 51.7624C520.461 52.1159 520.64 52.4545 520.854 52.7727C520.528 52.9723 520.626 53.5148 520.314 53.7331C520.131 53.8641 519.884 53.8267 519.663 53.8766C519.442 53.9264 519.227 54.1697 519.37 54.3381C519.348 54.4118 519.307 54.4792 519.251 54.5343C519.195 54.5895 519.126 54.6308 519.05 54.6548C518.974 54.6787 518.893 54.6845 518.814 54.6717C518.734 54.6589 518.66 54.6279 518.596 54.5813C518.401 54.3505 518.336 54.02 518.102 53.8204C517.757 53.5273 517.217 53.6458 516.8 53.4712C516.676 53.4036 516.545 53.3473 516.41 53.3028C515.974 53.1968 515.571 53.6458 515.525 54.0824C515.537 54.5215 515.607 54.9573 515.733 55.3795C515.795 55.5904 515.793 55.8138 515.728 56.0237C515.662 56.2335 515.535 56.4211 515.363 56.5645C515.167 56.6767 514.92 56.7079 514.771 56.8763C514.471 57.2131 514.855 57.6995 514.933 58.1236C514.965 58.4245 514.921 58.7284 514.803 59.0092C514.641 59.4956 514.341 60.0819 513.814 60.0444C513.404 60.0444 513.164 59.6017 513.014 59.2212C512.931 58.822 512.7 58.4651 512.363 58.2171C511.713 57.8617 510.874 58.5726 510.158 58.3419L510.334 58.8034C510.002 58.8782 509.924 59.3023 509.989 59.6204C510.11 59.9267 510.139 60.2593 510.073 60.5808C509.924 60.9425 509.468 61.0735 509.078 61.1608C509.204 61.5805 509.226 62.0224 509.143 62.4517C509.293 62.6014 508.961 62.9818 508.746 63.0192C508.527 63.025 508.308 63.0019 508.096 62.9506C507.871 62.9393 507.649 63.0044 507.469 63.1345C507.29 63.2645 507.164 63.4512 507.113 63.6616L508.414 64.0233C508.565 64.0796 508.729 64.0968 508.889 64.0732C509.051 64.0239 509.196 63.9358 509.312 63.8175C510.334 62.9818 511.915 62.6014 513.008 63.356C513.222 63.5119 513.45 63.7115 513.717 63.6865C513.891 63.6558 514.052 63.5754 514.179 63.4558C514.628 63.1066 515.128 62.6638 515.102 62.1025C515.08 61.9536 515.08 61.8023 515.102 61.6535C515.187 61.3354 515.597 61.2231 515.851 61.0298C516.449 60.4997 516.026 59.5455 515.577 58.8907L517.262 57.8804C517.401 57.7821 517.565 57.7218 517.737 57.7058C517.915 57.7283 518.085 57.7856 518.238 57.8741C519.214 58.2857 520.288 57.5935 521.036 56.8701C521.339 57.2321 521.758 57.489 522.227 57.6016C522.697 57.7142 523.193 57.6763 523.638 57.4937C523.797 57.6324 523.894 57.8241 523.91 58.0295C523.926 58.2348 523.859 58.4382 523.723 58.5976C523.439 58.9048 523.075 59.135 522.669 59.2649C522.95 59.58 523.144 59.9572 523.235 60.3625C523.273 60.5641 523.235 60.7722 523.128 60.9494C523.021 61.1266 522.851 61.2612 522.649 61.3292L522.89 61.7532C523.228 61.6826 523.579 61.7042 523.905 61.8156C524.065 61.8785 524.2 61.9899 524.288 62.1329C524.376 62.2759 524.413 62.4427 524.393 62.6076C523.827 62.907 523.131 62.6825 522.506 62.5203C521.882 62.3582 521.088 62.3395 520.736 62.8571C520.5 63.3959 520.096 63.8513 519.578 64.1605C519.688 63.9761 519.731 63.7627 519.703 63.5524C519.675 63.3421 519.577 63.1463 519.422 62.9943C518.967 62.7448 518.446 63.1876 518.121 63.6179C517.796 64.0483 517.392 64.5222 516.892 64.3726C516.716 64.3227 516.553 64.1979 516.371 64.2042C516.276 64.2212 516.186 64.2572 516.106 64.3099C516.027 64.3625 515.96 64.4306 515.909 64.5098C515.742 64.6618 515.608 64.8444 515.515 65.0469C515.422 65.2493 515.373 65.4674 515.369 65.6885C515.428 66.1313 516.085 66.4493 516.352 66.0876C516.228 65.6573 516.163 65.071 516.579 64.8403C516.996 64.6095 517.542 65.1646 517.432 65.6386C517.349 65.865 517.206 66.0667 517.016 66.2232C516.827 66.3798 516.597 66.4857 516.352 66.5304C515.863 66.6148 515.382 66.7379 514.914 66.8983C514.725 66.9794 514.549 67.2476 514.732 67.3474C514.911 67.4459 515.124 67.4728 515.324 67.4222C515.394 67.6099 515.402 67.8141 515.346 68.0064C515.29 68.1986 515.173 68.3694 515.011 68.4949C514.844 68.6087 514.644 68.6699 514.439 68.6699C514.234 68.6699 514.034 68.6087 513.866 68.4949C513.157 67.996 513.424 66.8672 512.903 66.1874C512.796 66.0471 512.658 65.9316 512.498 65.8496C512.338 65.7675 512.161 65.721 511.98 65.7134C511.602 65.7448 511.242 65.8789 510.941 66.0998C510.64 66.3208 510.411 66.6194 510.282 66.9607C510.218 67.1088 510.122 67.2426 510.002 67.3536C509.709 67.5781 509.293 67.4471 508.935 67.3536C508.577 67.2601 508.076 67.3099 507.985 67.6592C508.754 68.5493 509.742 69.2416 510.861 69.6736C510.973 69.7036 511.072 69.7696 511.14 69.8607C511.173 69.9834 511.173 70.1121 511.14 70.2349C511.153 70.4083 511.204 70.5773 511.289 70.7309C511.374 70.8845 511.492 71.0193 511.635 71.1267C511.858 71.3925 512.156 71.5916 512.494 71.7004C512.578 71.7187 512.666 71.7205 512.751 71.7058C512.837 71.6911 512.918 71.6602 512.991 71.6149C513.064 71.5695 513.126 71.5107 513.175 71.4419C513.224 71.373 513.257 71.2955 513.274 71.214C513.274 70.5903 512.051 70.4843 512.071 69.8544C512.301 69.749 512.553 69.698 512.808 69.7056C513.063 69.7132 513.312 69.7792 513.535 69.8981C513.676 70.1334 513.867 70.3375 514.096 70.497C514.325 70.6565 514.586 70.7679 514.863 70.8238C515.14 70.8797 515.426 70.8789 515.703 70.8215C515.98 70.7641 516.241 70.6513 516.469 70.4906C516.853 70.185 517.119 69.7297 517.62 69.5925C518.381 69.3805 519.045 70.0914 519.767 70.4095C520.684 70.8149 521.758 70.5841 522.74 70.3409L525.225 69.7172L523.827 69.5488C524.592 69.3369 525.316 69.0039 525.967 68.5635C525.947 68.3773 525.863 68.203 525.727 68.0685C525.591 67.9339 525.412 67.8469 525.219 67.8213C526.273 67.6155 526.566 66.2248 527.49 65.6885C527.804 65.5562 528.106 65.3998 528.394 65.2207C528.563 65.0466 528.692 64.8395 528.77 64.6135C528.849 64.3875 528.876 64.1479 528.849 63.9111C528.83 63.3562 528.693 62.8109 528.446 62.3089C528.199 61.8069 527.847 61.3588 527.411 60.9924C528.087 61.2726 528.827 61.38 529.558 61.3042C529.558 61.7283 529.871 62.3395 530.241 62.0962C530.339 62.0157 530.409 61.9094 530.443 61.7907L531.094 60.1816C531.222 59.7755 531.444 59.4023 531.744 59.0903C532.278 58.61 533.156 58.5477 533.585 57.9739C533.52 58.2296 533.859 58.4292 534.112 58.3544C534.236 58.3019 534.347 58.2264 534.44 58.1322C534.533 58.0379 534.605 57.9269 534.652 57.8055C534.965 57.238 535.082 56.3524 534.464 56.1217C533.846 55.8909 533.026 56.3961 532.805 55.8598C532.756 55.7159 532.756 55.5609 532.805 55.417C533.003 54.66 533.376 53.9554 533.896 53.3553C534.416 52.7551 535.07 52.2746 535.81 51.9495C536.305 51.7374 536.929 51.4755 536.929 50.9516C537.017 50.9663 537.101 50.998 537.175 51.0449C537.249 51.0917 537.313 51.1527 537.362 51.224C537.41 51.2953 537.443 51.3755 537.459 51.4595C537.474 51.5435 537.471 51.6296 537.45 51.7125C537.836 51.7567 538.226 51.6561 538.536 51.4318C538.276 51.251 538.354 50.8082 538.575 50.6149C538.824 50.4175 539.082 50.2322 539.35 50.0598C540 49.4798 540.111 48.2263 541.009 48.0891C541.659 48.3448 541.601 49.3052 541.314 49.96C541.028 50.6149 540.664 51.4318 541.191 51.9432C541.294 51.7171 541.447 51.5154 541.641 51.3526C541.834 51.1898 542.063 51.07 542.31 51.0015C542.082 51.2828 541.942 51.6206 541.908 51.9752C541.873 52.3298 541.945 52.6866 542.115 53.0034C542.453 52.2114 543.083 51.5657 543.884 51.1886C543.845 50.9828 543.806 50.777 543.761 50.565C544.353 50.7022 544.925 50.1534 545.023 49.5671C545.064 48.9852 544.94 48.4035 544.665 47.8833Z" fill="#CDC9C9"/>
<path d="M490.852 60.3196C490.559 60.1138 490.201 59.9329 490.123 59.5899C490.078 59.4277 490.091 59.2282 489.967 59.1159C489.843 59.0037 489.583 59.0099 489.356 59.0161C488.743 59.031 488.137 58.8912 487.599 58.6108C487.451 58.5138 487.289 58.4382 487.118 58.3862C486.929 58.3491 486.734 58.3491 486.545 58.3862C486.01 58.5058 485.511 58.7426 485.088 59.078C484.665 59.4135 484.328 59.8384 484.105 60.3196C484.039 60.6132 483.896 60.8857 483.689 61.1116C483.564 61.1927 483.452 61.2915 483.357 61.4047C483.33 61.4516 483.316 61.5041 483.316 61.5575C483.316 61.6109 483.33 61.6635 483.357 61.7103C483.431 61.9462 483.562 62.1619 483.739 62.3398C483.917 62.5176 484.136 62.6524 484.379 62.7331C484.561 62.8017 484.775 62.8578 484.821 63.0262C484.837 63.1776 484.837 63.3301 484.821 63.4815C484.821 63.8619 485.335 63.9367 485.621 64.155C485.907 64.3733 485.999 64.9845 486.33 65.2963C486.649 65.5224 487.028 65.6585 487.423 65.6892L488.523 65.8825C488.97 66.0046 489.44 66.0276 489.897 65.9498C490.355 65.872 490.788 65.6954 491.164 65.4335C491.377 65.265 491.554 65.0575 491.682 64.8229C491.81 64.5884 491.889 64.3316 491.912 64.0677C491.912 63.6543 491.812 63.2466 491.62 62.8765C491.758 62.8368 491.885 62.7656 491.989 62.669C492.094 62.5724 492.172 62.4532 492.218 62.3215C492.272 62.1101 492.239 61.887 492.127 61.6978C491.833 61.1405 491.394 60.6656 490.852 60.3196Z" fill="#CDC9C9"/>
<path d="M527.815 69.4062C528.075 69.4778 528.351 69.4796 528.613 69.4115C528.874 69.3433 529.111 69.2078 529.298 69.0196C529.37 68.9576 529.418 68.8741 529.434 68.7826C529.44 68.7374 529.428 68.6917 529.4 68.6547C529.373 68.6177 529.331 68.5921 529.285 68.583C528.829 68.9198 528.055 68.7327 527.723 69.2067C527.705 69.2243 527.692 69.2462 527.685 69.2703C527.678 69.2944 527.678 69.3197 527.684 69.3439C527.7 69.3626 527.72 69.3778 527.742 69.3886C527.765 69.3993 527.789 69.4053 527.815 69.4062Z" fill="#CDC9C9"/>
<path d="M525.261 70.2416C525.176 70.2531 525.094 70.2807 525.02 70.3227C524.708 70.4474 524.37 70.4349 524.031 70.5472C523.831 70.6325 523.641 70.7392 523.465 70.8652L522.457 71.5637L524.663 71.1147C524.853 71.078 525.04 71.0259 525.222 70.9588C525.515 70.8278 525.749 70.5971 526.035 70.4474L525.476 70.279C525.408 70.2516 525.335 70.2388 525.261 70.2416Z" fill="#CDC9C9"/>
<path d="M533.205 12.3731C533.169 12.2827 533.108 12.2038 533.027 12.1454C532.947 12.087 532.851 12.0514 532.75 12.0426C532.546 12.0282 532.342 12.058 532.152 12.1299C531.572 12.3037 531.019 12.549 530.506 12.8596C530.371 12.9336 530.25 13.0284 530.148 13.1402C529.93 13.4745 529.851 13.8752 529.927 14.2628L531.163 14.2254C531.275 14.216 531.388 14.216 531.501 14.2254C531.726 14.2786 531.944 14.356 532.152 14.4561C532.422 14.5609 532.713 14.6077 533.004 14.5933C533.059 14.5176 533.089 14.4272 533.089 14.3345C533.089 14.2418 533.059 14.1514 533.004 14.0757C532.897 13.9247 532.822 13.7553 532.783 13.5768C532.737 13.1464 533.342 12.7972 533.205 12.3731Z" fill="#CDC9C9"/>
<path d="M531.618 18.5911C531.909 18.6174 532.198 18.6591 532.484 18.7159C532.771 18.7707 533.069 18.7311 533.329 18.6036C533.456 18.5349 533.555 18.4275 533.61 18.2987C533.666 18.1698 533.674 18.0269 533.635 17.8926C533.52 17.699 533.338 17.5492 533.121 17.4686L532.594 17.2129C532.472 17.1649 532.367 17.0822 532.295 16.9759C532.197 16.7825 532.341 16.558 532.49 16.3896C532.64 16.2213 532.802 16.0217 532.744 15.8159C532.701 15.7014 532.621 15.603 532.516 15.5352C532.226 15.3015 531.902 15.1102 531.553 14.9677C531.421 14.9058 531.277 14.8677 531.13 14.8555C530.933 14.8634 530.739 14.9057 530.558 14.9802L529.686 15.3045C529.593 15.3274 529.505 15.3678 529.428 15.4235C529.351 15.4791 529.286 15.5489 529.237 15.6288C529.172 15.7972 529.354 16.0404 529.523 15.9469C529.667 16.2961 529.263 16.6204 529.166 16.9821C529.153 17.2977 529.217 17.6118 529.352 17.8997C529.488 18.1875 529.691 18.4413 529.946 18.641C530.054 18.6809 530.169 18.702 530.285 18.7034C530.734 18.7221 531.176 18.5787 531.618 18.5911Z" fill="#CDC9C9"/>
<path d="M537.628 13.4082C537.714 13.4841 537.82 13.5377 537.934 13.5641C537.993 13.573 538.053 13.5617 538.104 13.532C538.155 13.5023 538.194 13.4563 538.213 13.402C538.214 13.318 538.184 13.2364 538.129 13.1712L537.79 12.6474C537.695 12.4907 537.574 12.3496 537.433 12.2295C537.36 12.1727 537.273 12.1357 537.18 12.1226C537.087 12.1094 536.992 12.1205 536.906 12.1547C536.868 12.2775 536.861 12.4072 536.886 12.533C536.911 12.6588 536.967 12.7772 537.049 12.8781C537.21 13.0839 537.406 13.2629 537.628 13.4082Z" fill="#CDC9C9"/>
<path d="M539.955 16.3335C540.136 16.4233 540.306 16.5321 540.462 16.6578C540.546 16.764 540.615 16.8791 540.671 17.0008C540.858 17.346 541.133 17.64 541.471 17.8552C541.499 17.6193 541.481 17.3803 541.419 17.1505C541.401 17.0645 541.363 16.9835 541.308 16.9135C541.226 16.8364 541.128 16.775 541.022 16.7327C540.791 16.6123 540.6 16.4331 540.469 16.215C540.421 16.1168 540.365 16.0229 540.3 15.9344C540.111 15.6849 539.786 15.5789 539.571 15.3482C539.474 15.2484 539.402 15.1236 539.298 15.0363C539.25 14.9877 539.187 14.954 539.119 14.9395C539.051 14.9251 538.979 14.9306 538.914 14.9553C539.064 15.1923 539.213 15.4355 539.369 15.6725C539.516 15.9288 539.715 16.1538 539.955 16.3335Z" fill="#CDC9C9"/>
<path d="M537.766 57.3694C537.722 57.3351 537.67 57.3106 537.615 57.2977C537.56 57.2847 537.503 57.2837 537.447 57.2946C537.343 57.332 537.278 57.4754 537.356 57.5503C537.184 57.6071 537.004 57.6386 536.822 57.6438C536.64 57.6438 536.445 57.7748 536.432 57.9556C536.439 58.0137 536.439 58.0722 536.432 58.1303C536.393 58.2425 536.23 58.2862 536.211 58.4047C536.211 58.4516 536.23 58.4966 536.264 58.5304C536.298 58.5641 536.344 58.5839 536.393 58.5855C536.49 58.5828 536.584 58.55 536.66 58.492C536.814 58.3654 536.993 58.2699 537.187 58.2113C537.388 58.2113 537.636 58.3173 537.616 58.5107C537.743 58.4925 537.861 58.439 537.955 58.3569C538.05 58.2749 538.118 58.1678 538.15 58.0492C538.145 57.915 538.108 57.7837 538.042 57.6657C537.975 57.5476 537.881 57.4462 537.766 57.3694Z" fill="#CDC9C9"/>
<path d="M533.782 28.6257C533.763 28.9426 533.807 29.2601 533.912 29.5611C533.99 29.8293 534.061 30.0975 534.139 30.3656C534.218 30.6338 534.309 30.902 534.562 30.9893C534.709 31.0151 534.856 31.0318 535.005 31.0392C535.317 31.1078 535.532 31.4321 535.851 31.457C536.169 31.482 536.501 31.0953 536.501 30.7398C536.501 30.3843 536.43 30.0226 536.501 29.6671C536.527 29.454 536.624 29.2546 536.778 29.0984C536.931 28.9423 537.133 28.8377 537.353 28.8003C537.512 28.805 537.67 28.7839 537.822 28.7379C537.908 28.6733 537.979 28.5923 538.03 28.4999C538.082 28.4076 538.113 28.306 538.121 28.2016C538.222 27.8696 538.222 27.517 538.121 27.185C538.004 26.8794 537.718 26.6425 537.646 26.3306C537.513 26.3017 537.373 26.3206 537.253 26.3838C537.133 26.447 537.042 26.5501 536.996 26.6736C536.908 26.9336 536.894 27.2115 536.957 27.4781C536.957 27.316 536.306 27.7713 536.306 27.8024C536.132 27.9521 535.922 28.0578 535.695 28.1101C535.468 28.1624 535.231 28.1595 535.005 28.1018C534.426 27.9646 533.892 27.8274 533.782 28.6257Z" fill="#CDC9C9"/>
<path d="M530.094 39.4329C530.247 39.2914 530.346 39.1046 530.374 38.9028C530.48 38.4898 530.457 38.0562 530.309 37.6555C530.16 37.317 529.897 37.0363 529.562 36.8587C529.227 36.6811 528.839 36.6168 528.461 36.6763C528.26 36.7138 528.032 36.7886 527.856 36.6763C527.681 36.5641 527.655 36.3895 527.511 36.271C527.368 36.1525 526.893 36.1961 526.646 36.3832C526.434 36.6117 526.172 36.7926 525.878 36.9133C525.815 36.7926 525.712 36.6951 525.585 36.6354C525.458 36.5758 525.315 36.5573 525.176 36.5828C525.034 36.6193 524.909 36.7009 524.822 36.8141C524.734 36.9274 524.689 37.0656 524.694 37.2064C524.694 37.5619 525.033 37.8301 525.189 38.1481C525.274 38.3489 525.311 38.5657 525.295 38.782C525.279 38.9982 525.212 39.2081 525.098 39.3954C524.861 39.7738 524.536 40.0941 524.148 40.3309C524.039 40.3911 523.944 40.4717 523.868 40.5679C523.784 40.7679 523.784 40.9916 523.868 41.1916C524.011 41.7154 524.18 42.233 524.369 42.7382C524.662 42.5698 525.02 42.8754 525.163 43.1748C525.306 43.4741 525.469 43.8421 525.813 43.8982C526.158 43.9543 526.562 43.6425 526.841 43.8545C526.932 43.9169 526.984 44.0292 527.089 44.0728C527.134 44.091 527.183 44.1004 527.232 44.1004C527.281 44.1004 527.329 44.091 527.375 44.0728C527.556 43.986 527.714 43.862 527.839 43.7097C527.964 43.5573 528.052 43.3804 528.098 43.1915C528.143 43.0026 528.144 42.8065 528.102 42.6171C528.059 42.4277 527.973 42.2497 527.85 42.0958C528.084 41.6604 528.449 41.302 528.897 41.0668C529.02 41.016 529.129 40.9393 529.216 40.8423C529.437 40.5554 529.157 40.1002 529.379 39.8071C529.6 39.5139 529.86 39.6012 530.094 39.4329Z" fill="#CDC9C9"/>
<path d="M531.441 26.025C531.129 24.073 529.522 21.7281 526.985 21.3227C526.078 21.0908 525.118 21.1543 524.253 21.5031C523.389 21.852 522.67 22.4664 522.209 23.2498C521.776 24.051 521.586 24.9527 521.66 25.8524C521.735 26.752 522.072 27.6135 522.632 28.3388C523.208 29.0481 523.951 29.616 524.8 29.9955C525.65 30.3751 526.581 30.5554 527.518 30.5215C528.112 30.5573 528.705 30.4583 529.251 30.2327C529.797 30.007 530.28 29.6611 530.66 29.223C531.041 28.7849 531.308 28.267 531.44 27.7113C531.572 27.1557 531.566 26.5779 531.422 26.025H531.441Z" fill="#CDC9C9"/>
<path d="M0 187C0.422119 178.936 3.92314 171.341 9.7809 165.782C15.6387 160.223 23.4064 157.125 31.4818 157.126C32.44 157.126 33.3861 157.176 34.3224 157.259C38.0048 150.924 43.2848 145.666 49.6351 142.01C55.9855 138.354 63.1839 136.428 70.5114 136.425C77.8389 136.421 85.0391 138.34 91.3929 141.99C97.7467 145.64 103.032 150.894 106.72 157.225C107.51 157.166 108.305 157.126 109.11 157.126C117.185 157.125 124.953 160.223 130.811 165.782C136.668 171.341 140.169 178.936 140.592 187" fill="#F2F2F2"/>
<path d="M6.5625 184.575C6.98462 176.511 10.4856 168.916 16.3433 163.357C22.2011 157.799 29.9688 154.7 38.0442 154.701C39.0024 154.701 39.9485 154.751 40.8849 154.834C44.5672 148.499 49.8473 143.241 56.1976 139.585C62.5479 135.929 69.7463 134.003 77.0739 134C84.4014 133.997 91.6016 135.916 97.9554 139.566C104.309 143.216 109.594 148.469 113.282 154.8C114.072 154.741 114.867 154.701 115.672 154.701C123.748 154.7 131.515 157.799 137.373 163.357C143.231 168.916 146.732 176.511 147.154 184.575" stroke="#3F3D56" stroke-miterlimit="10"/>
<path d="M265.553 95.0807L260.887 90.7003L286.95 63.3949L353.128 63.4802L353.159 87.5389L310.326 121.383L265.553 95.0807Z" fill="#3F3D56"/>
<path d="M365.169 78.8304L365.15 64.0411L356.364 64.0298L356.368 67.6514L353.084 63.479L331.681 90.7904L323.3 97.3411L310.433 208.818L330.078 231.861L375.666 231.92L375.486 91.94L365.169 78.8304Z" fill="#CCCCCC"/>
<path d="M331.713 90.7924L260.875 90.7012L261.056 231.77L331.894 231.861L331.713 90.7924Z" fill="#F2F2F2"/>
<path d="M301.541 197.376L288.492 197.359L288.536 231.806L301.585 231.823L301.541 197.376Z" fill="#CCCCCC"/>
<path d="M274.552 207.181L274.545 201.713L268.953 201.706L268.96 207.174L274.552 207.181Z" fill="#3F3D56"/>
<path d="M283.823 201.726L278.23 201.719L278.237 207.186L283.83 207.193L283.823 201.726Z" fill="#3F3D56"/>
<path d="M351.74 97.9229L351.733 92.4554L346.141 92.4482L346.148 97.9157L351.74 97.9229Z" fill="#3F3D56"/>
<path d="M351.283 102.301L346.156 102.294L346.163 107.761L351.756 107.769L351.749 102.301L351.283 102.301Z" fill="#3F3D56"/>
<path d="M361.077 92.4672L355.484 92.46L355.491 97.9274L361.084 97.9346L361.077 92.4672Z" fill="#3F3D56"/>
<path d="M361.085 102.312L355.492 102.305L355.499 107.772L361.092 107.779L361.085 102.312Z" fill="#3F3D56"/>
<path d="M351.772 128.543L351.765 123.076L346.172 123.068L346.179 128.536L351.772 128.543Z" fill="#3F3D56"/>
<path d="M351.322 132.918L346.195 132.911L346.202 138.379L351.795 138.386L351.788 132.918L351.322 132.918Z" fill="#3F3D56"/>
<path d="M361.116 123.089L355.523 123.082L355.53 128.549L361.123 128.557L361.116 123.089Z" fill="#3F3D56"/>
<path d="M361.132 132.929L355.539 132.922L355.546 138.389L361.139 138.397L361.132 132.929Z" fill="#3F3D56"/>
<path d="M351.819 159.165L351.812 153.698L346.219 153.69L346.226 159.158L351.819 159.165Z" fill="#3F3D56"/>
<path d="M351.353 163.536L346.227 163.529L346.234 168.997L351.826 169.004L351.819 163.537L351.353 163.536Z" fill="#3F3D56"/>
<path d="M361.147 153.708L355.555 153.701L355.562 159.169L361.155 159.176L361.147 153.708Z" fill="#3F3D56"/>
<path d="M361.171 163.549L355.578 163.542L355.585 169.009L361.178 169.017L361.171 163.549Z" fill="#3F3D56"/>
<path d="M322.881 97.888L268.82 97.8184L268.837 110.941L322.898 111.011L322.881 97.888Z" fill="#3F3D56"/>
<path d="M322.912 124.132L268.852 124.062L268.868 137.185L322.929 137.255L322.912 124.132Z" fill="#3F3D56"/>
<path d="M322.943 150.378L268.883 150.309L268.9 163.432L322.96 163.501L322.943 150.378Z" fill="#3F3D56"/>
<path d="M322.967 176.625L268.906 176.556L268.923 189.679L322.984 189.748L322.967 176.625Z" fill="#3F3D56"/>
<path d="M233.372 169.364L232.031 169.362L232.111 231.486L233.452 231.488L233.372 169.364Z" fill="#3F3D56"/>
<path d="M425.849 167.164L424.508 167.162L424.588 229.286L425.928 229.288L425.849 167.164Z" fill="#3F3D56"/>
<path d="M245.743 177.296C245.859 199.019 232.852 216.684 232.852 216.684C232.852 216.684 219.665 199.128 219.551 177.403C219.437 155.679 232.442 138.016 232.442 138.016C232.442 138.016 245.634 155.572 245.743 177.296Z" fill="#232F3E"/>
<path opacity="0.1" d="M245.743 177.296C245.859 199.019 232.852 216.684 232.852 216.684C232.852 216.684 219.665 199.128 219.551 177.403C219.437 155.679 232.442 138.016 232.442 138.016C232.442 138.016 245.634 155.572 245.743 177.296Z" fill="black"/>
<path d="M215.95 169.339L214.609 169.337L214.689 231.461L216.03 231.462L215.95 169.339Z" fill="#3F3D56"/>
<path d="M228.298 177.273C228.414 198.997 215.407 216.661 215.407 216.661C215.407 216.661 202.219 199.104 202.106 177.381C201.992 155.658 214.997 137.993 214.997 137.993C214.997 137.993 228.184 155.549 228.298 177.273Z" fill="#232F3E"/>
<path d="M438.489 177.545C438.605 199.268 425.598 216.933 425.598 216.933C425.598 216.933 412.411 199.377 412.297 177.652C412.183 155.928 425.188 138.265 425.188 138.265C425.188 138.265 438.375 155.821 438.489 177.545Z" fill="#232F3E"/>
<path d="M469.348 180.596L466.049 174.545L497.255 145.731L577.137 146.123L577.095 154.572L548.083 188.224L514.764 195.302L469.348 180.596Z" fill="#3F3D56"/>
<path d="M590.854 163.152L590.946 144.265L580.487 144.214L580.458 150.168L577.185 146.082L550.417 174.917L545.955 179.723L540.289 203.833L550.144 230.434L601.18 230.685L601.446 176.375L590.854 163.152Z" fill="#CCCCCC"/>
<path d="M550.035 174.957L465.715 174.544L465.443 230.062L549.763 230.475L550.035 174.957Z" fill="#F2F2F2"/>
<path d="M538.263 192.413L520.512 192.326L520.429 209.223L538.18 209.31L538.263 192.413Z" fill="#3F3D56"/>
<path d="M513.31 191.678L497.777 191.602L497.588 230.223L513.12 230.299L513.31 191.678Z" fill="#CCCCCC"/>
<path d="M480.382 197.568L480.411 191.534L473.754 191.501L473.724 197.536L480.382 197.568Z" fill="#3F3D56"/>
<path d="M479.809 202.398L473.707 202.368L473.677 208.403L480.335 208.435L480.364 202.401L479.809 202.398Z" fill="#3F3D56"/>
<path d="M491.129 191.564L484.473 191.531L484.443 197.566L491.1 197.598L491.129 191.564Z" fill="#3F3D56"/>
<path d="M491.074 202.42L484.418 202.388L484.388 208.422L491.045 208.455L491.074 202.42Z" fill="#3F3D56"/>
<path d="M574.193 198.583L574.223 192.548L567.566 192.516L567.537 198.55L574.193 198.583Z" fill="#3F3D56"/>
<path d="M573.618 203.413L567.516 203.383L567.486 209.417L574.143 209.45L574.172 203.415L573.618 203.413Z" fill="#3F3D56"/>
<path d="M584.832 192.664L578.176 192.632L578.146 198.666L584.803 198.699L584.832 192.664Z" fill="#3F3D56"/>
<path d="M584.778 203.523L578.121 203.49L578.092 209.525L584.748 209.557L584.778 203.523Z" fill="#3F3D56"/>
<path d="M609.647 194.973L608.812 194.969L608.637 230.843L609.471 230.847L609.647 194.973Z" fill="#3F3D56"/>
<path d="M617.905 199.518C617.897 212.063 609.737 222.233 609.737 222.233C609.737 222.233 601.588 212.064 601.596 199.523C601.604 186.982 609.763 176.808 609.763 176.808C609.763 176.808 617.913 186.973 617.905 199.518Z" fill="#232F3E"/>
<path d="M446.936 193.199L446.102 193.195L445.926 229.07L446.76 229.074L446.936 193.199Z" fill="#3F3D56"/>
<path d="M455.003 197.897C454.994 210.442 446.835 220.612 446.835 220.612C446.835 220.612 438.685 210.443 438.693 197.902C438.701 185.361 446.861 175.187 446.861 175.187C446.861 175.187 455.011 185.352 455.003 197.897Z" fill="#232F3E"/>
<path d="M605 90.0002C605.271 84.8268 607.517 79.9547 611.275 76.3887C615.032 72.8227 620.015 70.835 625.196 70.8354C625.811 70.8354 626.417 70.8676 627.018 70.9211C629.38 66.8571 632.768 63.484 636.841 61.1387C640.915 58.7933 645.533 57.5579 650.234 57.5557C654.934 57.5535 659.553 58.7846 663.629 61.1261C667.705 63.4676 671.096 66.8375 673.462 70.8993C673.969 70.8614 674.478 70.8354 674.995 70.8354C680.175 70.835 685.158 72.8227 688.916 76.3887C692.674 79.9547 694.92 84.8268 695.191 90.0002" fill="#F2F2F2"/>
<path d="M609.211 88.4445C609.482 83.2711 611.728 78.399 615.485 74.833C619.243 71.2671 624.226 69.2793 629.407 69.2797C630.021 69.2797 630.628 69.3119 631.229 69.3654C633.591 65.3014 636.979 61.9283 641.052 59.583C645.126 57.2377 649.744 56.0022 654.445 56C659.145 55.9978 663.764 57.2289 667.84 59.5704C671.916 61.9119 675.307 65.2818 677.673 69.3436C678.179 69.3057 678.689 69.2797 679.206 69.2797C684.386 69.2793 689.369 71.2671 693.127 74.833C696.885 78.399 699.131 83.2711 699.402 88.4445" stroke="#3F3D56" stroke-miterlimit="10"/>
</svg>
