<?xml version="1.0" standalone="no"?>
<!DOCTYPE svg PUBLIC "-//W3C//DTD SVG 20010904//EN"
 "http://www.w3.org/TR/2001/REC-SVG-20010904/DTD/svg10.dtd">
<svg version="1.0" xmlns="http://www.w3.org/2000/svg"
 width="192.000000pt" height="192.000000pt" viewBox="0 0 192.000000 192.000000"
 preserveAspectRatio="xMidYMid meet">
<metadata>
Created by potrace 1.14, written by Peter Selinger 2001-2017
</metadata>
<g transform="translate(0.000000,192.000000) scale(0.100000,-0.100000)"
fill="#000000" stroke="none">
<path d="M661 1902 c-18 -8 -39 -25 -47 -37 -13 -19 -12 -27 7 -69 16 -37 21
-69 21 -150 0 -56 -4 -118 -11 -138 -27 -83 -117 -121 -185 -78 -20 12 -36 25
-36 29 0 14 -70 80 -101 97 -17 8 -65 22 -107 31 -42 8 -94 19 -115 23 -80 16
-97 -7 -73 -100 24 -93 79 -174 163 -241 31 -25 141 -75 198 -89 174 -44 325
-187 353 -334 8 -42 7 -142 -2 -191 -3 -22 -9 -51 -11 -65 -2 -14 -14 -79 -25
-145 -38 -215 -40 -241 -26 -276 44 -105 189 -178 334 -166 121 9 252 99 268
183 4 23 0 77 -11 138 -9 56 -19 112 -21 126 -3 14 -14 72 -25 129 -29 149
-32 193 -19 258 35 168 154 283 351 339 128 37 183 66 255 138 58 58 95 120
108 182 19 89 17 109 -13 119 -29 9 -251 -44 -296 -70 -22 -13 -49 -36 -60
-51 -55 -77 -74 -89 -141 -85 -35 2 -82 58 -89 105 -16 114 -13 221 6 276 24
68 24 64 -8 94 -37 35 -117 44 -168 20 -53 -25 -63 -53 -41 -118 26 -77 26
-251 0 -297 -37 -65 -133 -90 -207 -54 -60 28 -67 47 -72 186 -3 110 -1 130
17 173 23 53 20 66 -23 98 -33 25 -108 30 -148 10z"/>
<path d="M487 1034 c-2 -2 -41 -6 -86 -8 -46 -3 -85 -6 -87 -9 -2 -2 20 -9 50
-16 53 -12 55 -13 46 -37 -35 -90 151 -166 229 -93 42 39 16 101 -59 139 -27
15 -87 30 -93 24z"/>
<path d="M1378 1026 c-57 -15 -116 -58 -124 -92 -16 -63 73 -110 158 -85 69
21 125 103 87 127 -17 10 8 22 64 29 26 4 46 9 44 11 -2 3 -41 7 -86 9 -45 3
-85 6 -89 9 -4 2 -28 -2 -54 -8z"/>
<path d="M1490 816 c-26 -29 -57 -37 -140 -39 -79 -3 -94 -18 -93 -94 0 -32 8
-80 18 -108 27 -81 67 -165 78 -165 18 0 67 65 78 103 12 44 9 72 -17 145 -19
54 -19 54 2 70 61 49 72 59 89 85 22 34 16 35 -15 3z"/>
<path d="M417 800 c10 -17 34 -41 53 -53 49 -29 51 -34 29 -89 -26 -68 -30
-115 -13 -157 15 -37 61 -91 76 -91 20 0 87 184 95 262 5 52 3 59 -21 83 -23
23 -34 26 -79 24 -55 -2 -117 8 -117 19 0 4 -9 13 -21 20 l-21 13 19 -31z"/>
</g>
</svg>
