<svg width="312" height="274" viewBox="0 0 312 274" fill="none" xmlns="http://www.w3.org/2000/svg">
<path d="M86.4224 54.0003C86.8445 45.9359 90.3455 38.3411 96.2033 32.7824C102.061 27.2237 109.829 24.1252 117.904 24.1258C118.862 24.1258 119.808 24.176 120.745 24.2594C124.427 17.9243 129.707 12.6662 136.058 9.0103C142.408 5.35436 149.606 3.42849 156.934 3.42505C164.261 3.42161 171.462 5.34071 177.815 8.99069C184.169 12.6407 189.454 17.8938 193.142 24.2254C193.932 24.1663 194.727 24.1258 195.532 24.1258C203.608 24.1252 211.375 27.2237 217.233 32.7824C223.091 38.3411 226.592 45.9359 227.014 54.0003" fill="#F2F2F2"/>
<path d="M92.9863 51.5753C93.4084 43.5109 96.9094 35.9161 102.767 30.3574C108.625 24.7987 116.393 21.7001 124.468 21.7008C125.426 21.7008 126.372 21.751 127.309 21.8343C130.991 15.4993 136.271 10.2412 142.621 6.58525C148.972 2.92931 156.17 1.00344 163.498 1C170.825 0.996564 178.025 2.91566 184.379 6.56564C190.733 10.2156 196.018 15.4687 199.706 21.8003C200.496 21.7412 201.291 21.7008 202.096 21.7008C210.172 21.7001 217.939 24.7987 223.797 30.3574C229.655 35.9161 233.156 43.5109 233.578 51.5753" stroke="#3F3D56" stroke-miterlimit="10"/>
<path d="M72.0268 150.662L69.0473 147.865L85.6885 130.431L127.943 130.485L127.962 145.847L100.614 167.456L72.0268 150.662Z" fill="#3F3D56"/>
<path d="M135.629 140.286L135.617 130.843L130.007 130.836L130.01 133.148L127.913 130.484L114.247 147.923L108.896 152.105L100.681 223.282L113.224 237.995L142.332 238.033L142.217 148.657L135.629 140.286Z" fill="#CCCCCC"/>
<path d="M114.27 147.924L69.04 147.866L69.1556 237.937L114.385 237.995L114.27 147.924Z" fill="#F2F2F2"/>
<path d="M95.0039 215.977L86.6724 215.966L86.7006 237.961L95.0321 237.971L95.0039 215.977Z" fill="#CCCCCC"/>
<path d="M77.7726 222.237L77.7682 218.746L74.1978 218.741L74.2022 222.232L77.7726 222.237Z" fill="#3F3D56"/>
<path d="M83.6906 218.754L80.1196 218.75L80.1241 222.241L83.6951 222.245L83.6906 218.754Z" fill="#3F3D56"/>
<path d="M127.056 152.477L127.051 148.986L123.48 148.981L123.485 152.472L127.056 152.477Z" fill="#3F3D56"/>
<path d="M126.763 155.272L123.49 155.268L123.495 158.759L127.066 158.763L127.061 155.272L126.763 155.272Z" fill="#3F3D56"/>
<path d="M133.018 148.994L129.447 148.989L129.452 152.48L133.023 152.485L133.018 148.994Z" fill="#3F3D56"/>
<path d="M133.023 155.279L129.452 155.275L129.457 158.766L133.028 158.77L133.023 155.279Z" fill="#3F3D56"/>
<path d="M127.076 172.028L127.071 168.537L123.5 168.532L123.505 172.023L127.076 172.028Z" fill="#3F3D56"/>
<path d="M126.788 174.821L123.515 174.817L123.52 178.308L127.091 178.312L127.086 174.821L126.788 174.821Z" fill="#3F3D56"/>
<path d="M133.043 168.546L129.472 168.541L129.477 172.032L133.048 172.037L133.043 168.546Z" fill="#3F3D56"/>
<path d="M133.053 174.828L129.482 174.823L129.486 178.314L133.057 178.319L133.053 174.828Z" fill="#3F3D56"/>
<path d="M127.106 191.58L127.101 188.089L123.53 188.084L123.535 191.575L127.106 191.58Z" fill="#3F3D56"/>
<path d="M126.808 194.371L123.535 194.366L123.54 197.857L127.111 197.862L127.106 194.371L126.808 194.371Z" fill="#3F3D56"/>
<path d="M133.063 188.095L129.492 188.091L129.497 191.582L133.068 191.586L133.063 188.095Z" fill="#3F3D56"/>
<path d="M133.078 194.379L129.507 194.374L129.511 197.865L133.082 197.87L133.078 194.379Z" fill="#3F3D56"/>
<path d="M108.631 152.455L74.1133 152.41L74.124 160.789L108.641 160.834L108.631 152.455Z" fill="#3F3D56"/>
<path d="M108.651 169.211L74.1333 169.167L74.1441 177.546L108.661 177.59L108.651 169.211Z" fill="#3F3D56"/>
<path d="M108.67 185.969L74.1528 185.925L74.1636 194.304L108.681 194.348L108.67 185.969Z" fill="#3F3D56"/>
<path d="M108.685 202.728L74.168 202.683L74.1787 211.062L108.696 211.106L108.685 202.728Z" fill="#3F3D56"/>
<path d="M51.4797 198.091L50.6235 198.09L50.6744 237.756L51.5306 237.757L51.4797 198.091Z" fill="#3F3D56"/>
<path d="M174.374 196.687L173.518 196.686L173.569 236.351L174.425 236.353L174.374 196.687Z" fill="#3F3D56"/>
<path d="M59.3775 203.156C59.4518 217.026 51.1466 228.305 51.1466 228.305C51.1466 228.305 42.7267 217.095 42.6541 203.224C42.5815 189.354 50.885 178.076 50.885 178.076C50.885 178.076 59.3077 189.285 59.3775 203.156Z" fill="#232F3E"/>
<path opacity="0.1" d="M59.3775 203.156C59.4518 217.026 51.1466 228.305 51.1466 228.305C51.1466 228.305 42.7267 217.095 42.6541 203.224C42.5815 189.354 50.885 178.076 50.885 178.076C50.885 178.076 59.3077 189.285 59.3775 203.156Z" fill="black"/>
<path d="M40.3552 198.076L39.499 198.074L39.5499 237.74L40.4061 237.741L40.3552 198.076Z" fill="#3F3D56"/>
<path d="M48.2378 203.142C48.3121 217.012 40.007 228.29 40.007 228.29C40.007 228.29 31.5871 217.08 31.5145 203.21C31.4419 189.34 39.7453 178.061 39.7453 178.061C39.7453 178.061 48.1652 189.271 48.2378 203.142Z" fill="#232F3E"/>
<path d="M182.446 203.315C182.52 217.185 174.215 228.463 174.215 228.463C174.215 228.463 165.795 217.254 165.722 203.383C165.65 189.513 173.953 178.235 173.953 178.235C173.953 178.235 182.373 189.444 182.446 203.315Z" fill="#232F3E"/>
<path d="M218.721 233.836L216.768 230.254L235.244 213.193L282.541 213.425L282.517 218.428L265.339 238.353L245.611 242.543L218.721 233.836Z" fill="#3F3D56"/>
<path d="M290.664 223.508L290.719 212.325L284.526 212.295L284.509 215.82L282.571 213.401L266.722 230.474L264.08 233.319L260.725 247.595L266.561 263.345L296.778 263.493L296.936 231.337L290.664 223.508Z" fill="#CCCCCC"/>
<path d="M266.495 230.497L216.57 230.252L216.409 263.124L266.334 263.369L266.495 230.497Z" fill="#F2F2F2"/>
<path d="M259.524 240.833L249.014 240.781L248.965 250.786L259.475 250.837L259.524 240.833Z" fill="#3F3D56"/>
<path d="M244.751 240.397L235.555 240.352L235.443 263.219L244.639 263.264L244.751 240.397Z" fill="#CCCCCC"/>
<path d="M225.256 243.885L225.273 240.312L221.332 240.292L221.314 243.865L225.256 243.885Z" fill="#3F3D56"/>
<path d="M224.916 246.745L221.303 246.727L221.285 250.3L225.227 250.319L225.245 246.746L224.916 246.745Z" fill="#3F3D56"/>
<path d="M231.617 240.33L227.676 240.311L227.659 243.883L231.6 243.903L231.617 240.33Z" fill="#3F3D56"/>
<path d="M231.585 246.758L227.644 246.739L227.626 250.311L231.567 250.331L231.585 246.758Z" fill="#3F3D56"/>
<path d="M280.798 244.486L280.816 240.913L276.875 240.893L276.857 244.466L280.798 244.486Z" fill="#3F3D56"/>
<path d="M280.459 247.346L276.846 247.328L276.828 250.901L280.769 250.92L280.787 247.347L280.459 247.346Z" fill="#3F3D56"/>
<path d="M287.097 240.981L283.156 240.962L283.139 244.535L287.08 244.554L287.097 240.981Z" fill="#3F3D56"/>
<path d="M287.065 247.41L283.124 247.391L283.106 250.964L287.047 250.983L287.065 247.41Z" fill="#3F3D56"/>
<path d="M301.792 242.348L301.298 242.346L301.194 263.587L301.688 263.589L301.792 242.348Z" fill="#3F3D56"/>
<path d="M306.681 245.039C306.676 252.467 301.845 258.488 301.845 258.488C301.845 258.488 297.02 252.468 297.024 245.042C297.029 237.617 301.86 231.593 301.86 231.593C301.86 231.593 306.686 237.611 306.681 245.039Z" fill="#232F3E"/>
<path d="M205.452 241.299L204.958 241.296L204.853 262.537L205.348 262.539L205.452 241.299Z" fill="#3F3D56"/>
<path d="M210.228 244.079C210.223 251.507 205.392 257.528 205.392 257.528C205.392 257.528 200.567 251.508 200.571 244.082C200.576 236.657 205.407 230.633 205.407 230.633C205.407 230.633 210.233 236.651 210.228 244.079Z" fill="#232F3E"/>
<path d="M-23 93.9999C-22.7292 88.8266 -20.4833 83.9544 -16.7255 80.3885C-12.9677 76.8225 -7.9846 74.8347 -2.80415 74.8352C-2.18944 74.8352 -1.58253 74.8674 -0.981842 74.9208C1.38043 70.8568 4.76761 67.4837 8.84142 65.1384C12.9152 62.7931 17.5331 61.5576 22.2337 61.5554C26.9344 61.5532 31.5534 62.7843 35.6294 65.1258C39.7054 67.4673 43.0957 70.8372 45.4618 74.899C45.9685 74.8611 46.4784 74.8352 46.9949 74.8352C52.1754 74.8347 57.1585 76.8225 60.9163 80.3885C64.6741 83.9544 66.92 88.8266 67.1908 93.9999" fill="#F2F2F2"/>
<path d="M-18.79 92.4445C-18.5192 87.2711 -16.2733 82.399 -12.5155 78.833C-8.75773 75.2671 -3.77467 73.2793 1.40578 73.2797C2.02049 73.2797 2.6274 73.3119 3.22809 73.3654C5.59036 69.3014 8.97754 65.9283 13.0513 63.583C17.1251 61.2377 21.743 60.0022 26.4437 60C31.1443 59.9978 35.7634 61.2289 39.8394 63.5704C43.9154 65.9119 47.3057 69.2818 49.6718 73.3436C50.1785 73.3057 50.6883 73.2797 51.2049 73.2797C56.3854 73.2793 61.3684 75.2671 65.1262 78.833C68.884 82.399 71.13 87.2711 71.4008 92.4445" stroke="#3F3D56" stroke-miterlimit="10"/>
<path d="M259.115 134.648C258.964 134.635 258.812 134.666 258.68 134.737C258.548 134.808 258.441 134.916 258.374 135.046C258.307 135.177 258.283 135.323 258.304 135.467C258.325 135.611 258.392 135.745 258.494 135.853C258.596 135.96 258.73 136.035 258.878 136.068C259.026 136.1 259.18 136.09 259.321 136.037C259.463 135.984 259.584 135.892 259.669 135.772C259.755 135.652 259.8 135.51 259.8 135.364C259.808 135.182 259.74 135.005 259.612 134.87C259.483 134.736 259.305 134.656 259.115 134.648Z" fill="#CDC9C9"/>
<path d="M267.254 123.204C267.332 123.21 267.411 123.194 267.479 123.157C267.548 123.119 267.603 123.064 267.637 122.996C267.672 122.928 267.685 122.852 267.674 122.778C267.663 122.703 267.628 122.634 267.575 122.578C267.522 122.522 267.453 122.483 267.376 122.466C267.3 122.449 267.22 122.454 267.146 122.481C267.073 122.509 267.01 122.556 266.966 122.618C266.921 122.68 266.897 122.754 266.897 122.829C266.893 122.924 266.929 123.016 266.996 123.086C267.062 123.156 267.155 123.198 267.254 123.204Z" fill="#CDC9C9"/>
<path d="M267.254 130.997C267.155 131.002 267.062 131.044 266.996 131.114C266.929 131.184 266.893 131.276 266.897 131.371C266.897 131.462 266.934 131.549 267.001 131.613C267.068 131.677 267.159 131.713 267.254 131.713C267.349 131.713 267.44 131.677 267.507 131.613C267.574 131.549 267.611 131.462 267.611 131.371C267.615 131.276 267.579 131.184 267.512 131.114C267.446 131.044 267.353 131.002 267.254 130.997Z" fill="#CDC9C9"/>
<path d="M255.429 109.39C255.461 109.389 255.492 109.382 255.52 109.369C255.549 109.357 255.575 109.339 255.596 109.317C255.617 109.294 255.634 109.268 255.644 109.24C255.655 109.212 255.66 109.181 255.658 109.151C255.66 109.121 255.655 109.091 255.644 109.063C255.634 109.034 255.617 109.008 255.596 108.986C255.575 108.964 255.549 108.946 255.52 108.933C255.492 108.92 255.461 108.913 255.429 108.912C255.398 108.913 255.367 108.92 255.338 108.933C255.31 108.946 255.284 108.964 255.263 108.986C255.242 109.008 255.225 109.034 255.215 109.063C255.204 109.091 255.199 109.121 255.201 109.151C255.199 109.212 255.221 109.271 255.264 109.316C255.307 109.36 255.366 109.387 255.429 109.39Z" fill="#CDC9C9"/>
<path d="M259.802 121.957C259.787 121.958 259.771 121.961 259.757 121.968C259.743 121.974 259.73 121.983 259.72 121.994C259.709 122.005 259.701 122.018 259.696 122.033C259.691 122.047 259.689 122.062 259.69 122.077C259.689 122.107 259.7 122.136 259.721 122.158C259.742 122.18 259.771 122.194 259.802 122.196C259.834 122.194 259.864 122.181 259.885 122.158C259.907 122.136 259.919 122.107 259.919 122.077C259.919 122.062 259.917 122.046 259.911 122.032C259.906 122.018 259.897 122.005 259.886 121.994C259.876 121.983 259.863 121.974 259.848 121.968C259.834 121.961 259.818 121.958 259.802 121.957Z" fill="#CDC9C9"/>
<path d="M255.773 122.471C255.776 122.455 255.775 122.438 255.771 122.422C255.767 122.407 255.759 122.392 255.748 122.379C255.737 122.366 255.723 122.356 255.708 122.349C255.692 122.342 255.675 122.339 255.658 122.339C255.641 122.339 255.624 122.342 255.609 122.349C255.593 122.356 255.58 122.366 255.569 122.379C255.558 122.392 255.55 122.407 255.546 122.422C255.541 122.438 255.541 122.455 255.544 122.471C255.541 122.487 255.541 122.504 255.546 122.52C255.55 122.536 255.558 122.55 255.569 122.563C255.58 122.576 255.593 122.586 255.609 122.593C255.624 122.6 255.641 122.604 255.658 122.604C255.675 122.604 255.692 122.6 255.708 122.593C255.723 122.586 255.737 122.576 255.748 122.563C255.759 122.55 255.767 122.536 255.771 122.52C255.775 122.504 255.776 122.487 255.773 122.471Z" fill="#CDC9C9"/>
<path d="M273.317 134.887C273.38 134.884 273.44 134.857 273.482 134.812C273.525 134.767 273.548 134.708 273.546 134.648C273.547 134.618 273.543 134.588 273.532 134.559C273.521 134.531 273.505 134.505 273.484 134.482C273.462 134.46 273.437 134.442 273.408 134.43C273.38 134.417 273.349 134.41 273.317 134.409C273.286 134.41 273.255 134.417 273.226 134.43C273.198 134.442 273.172 134.46 273.151 134.482C273.129 134.505 273.113 134.531 273.102 134.559C273.092 134.588 273.087 134.618 273.089 134.648C273.087 134.678 273.092 134.708 273.102 134.736C273.113 134.765 273.129 134.791 273.151 134.813C273.172 134.835 273.198 134.853 273.226 134.866C273.255 134.879 273.286 134.886 273.317 134.887Z" fill="#CDC9C9"/>
<path d="M266.894 132.617C266.89 132.575 266.874 132.534 266.846 132.501C266.819 132.468 266.782 132.443 266.74 132.429C266.698 132.416 266.653 132.414 266.61 132.425C266.567 132.435 266.528 132.457 266.499 132.489C266.469 132.52 266.449 132.559 266.442 132.601C266.434 132.643 266.44 132.686 266.458 132.724C266.475 132.763 266.505 132.796 266.541 132.82C266.578 132.843 266.622 132.855 266.666 132.856C266.729 132.853 266.789 132.826 266.831 132.781C266.874 132.736 266.897 132.677 266.894 132.617Z" fill="#CDC9C9"/>
<path d="M245.076 133.959C245.233 133.972 245.39 133.939 245.527 133.865C245.664 133.79 245.774 133.678 245.843 133.543C245.913 133.407 245.938 133.255 245.915 133.106C245.893 132.956 245.824 132.817 245.717 132.706C245.611 132.595 245.472 132.518 245.318 132.484C245.165 132.45 245.005 132.461 244.858 132.516C244.711 132.571 244.586 132.667 244.497 132.791C244.408 132.916 244.361 133.063 244.361 133.214C244.354 133.404 244.424 133.588 244.558 133.728C244.692 133.868 244.878 133.951 245.076 133.959Z" fill="#CDC9C9"/>
<path d="M247.788 110.481C247.945 110.494 248.102 110.461 248.239 110.387C248.376 110.313 248.486 110.201 248.556 110.066C248.625 109.931 248.65 109.779 248.628 109.63C248.606 109.481 248.537 109.341 248.431 109.23C248.325 109.119 248.186 109.041 248.033 109.007C247.88 108.972 247.72 108.983 247.574 109.037C247.427 109.091 247.301 109.187 247.212 109.311C247.123 109.435 247.075 109.582 247.074 109.733C247.07 109.827 247.085 109.921 247.118 110.01C247.152 110.098 247.203 110.18 247.269 110.249C247.336 110.319 247.416 110.375 247.505 110.415C247.594 110.455 247.69 110.477 247.788 110.481Z" fill="#CDC9C9"/>
<path d="M268.901 105.878C269.011 105.888 269.123 105.865 269.22 105.813C269.317 105.761 269.395 105.682 269.445 105.586C269.495 105.491 269.513 105.383 269.498 105.278C269.482 105.172 269.434 105.073 269.359 104.994C269.284 104.915 269.186 104.86 269.078 104.835C268.97 104.811 268.856 104.818 268.752 104.856C268.648 104.895 268.559 104.962 268.496 105.05C268.432 105.138 268.398 105.242 268.398 105.348C268.392 105.482 268.442 105.613 268.536 105.712C268.63 105.811 268.761 105.871 268.901 105.878Z" fill="#CDC9C9"/>
<path d="M256.263 105.978C256.347 105.986 256.431 105.971 256.505 105.933C256.579 105.895 256.639 105.836 256.678 105.765C256.716 105.693 256.731 105.612 256.721 105.532C256.71 105.452 256.675 105.377 256.619 105.317C256.563 105.257 256.49 105.214 256.408 105.195C256.327 105.176 256.241 105.181 256.162 105.209C256.084 105.238 256.016 105.288 255.968 105.354C255.92 105.42 255.894 105.499 255.893 105.579C255.89 105.629 255.897 105.679 255.914 105.725C255.931 105.772 255.957 105.816 255.991 105.853C256.026 105.89 256.068 105.92 256.114 105.941C256.161 105.963 256.211 105.975 256.263 105.978Z" fill="#CDC9C9"/>
<path d="M262.81 128.352C262.819 128.42 262.848 128.484 262.893 128.536C262.939 128.588 262.999 128.627 263.067 128.647C263.135 128.667 263.207 128.668 263.276 128.65C263.344 128.632 263.406 128.595 263.453 128.544C263.5 128.493 263.531 128.43 263.542 128.363C263.553 128.296 263.543 128.227 263.515 128.165C263.486 128.102 263.439 128.049 263.379 128.012C263.32 127.975 263.251 127.955 263.18 127.954C263.128 127.957 263.077 127.969 263.031 127.99C262.984 128.012 262.942 128.042 262.908 128.079C262.873 128.116 262.847 128.159 262.83 128.206C262.813 128.253 262.807 128.303 262.81 128.352Z" fill="#CDC9C9"/>
<path d="M263.792 108.49C263.74 108.485 263.687 108.496 263.64 108.521C263.594 108.545 263.557 108.583 263.533 108.628C263.51 108.674 263.501 108.725 263.508 108.775C263.516 108.825 263.539 108.872 263.575 108.91C263.611 108.947 263.658 108.973 263.709 108.984C263.761 108.996 263.815 108.992 263.864 108.973C263.913 108.954 263.955 108.922 263.985 108.88C264.014 108.837 264.03 108.788 264.029 108.737C264.031 108.706 264.026 108.675 264.015 108.645C264.004 108.616 263.987 108.589 263.965 108.566C263.943 108.543 263.916 108.524 263.887 108.511C263.857 108.498 263.825 108.491 263.792 108.49Z" fill="#CDC9C9"/>
<path d="M262.574 109.235C262.634 109.233 262.692 109.21 262.735 109.169C262.778 109.128 262.803 109.074 262.806 109.016C262.735 108.998 262.669 108.966 262.613 108.921C262.556 108.877 262.51 108.821 262.478 108.757C262.435 108.779 262.398 108.813 262.373 108.854C262.349 108.894 262.336 108.941 262.337 108.988C262.335 109.051 262.358 109.112 262.403 109.158C262.447 109.204 262.508 109.232 262.574 109.235Z" fill="#CDC9C9"/>
<path d="M258.39 123.451C258.395 123.495 258.412 123.538 258.441 123.573C258.47 123.609 258.509 123.635 258.554 123.649C258.598 123.664 258.646 123.665 258.691 123.654C258.737 123.643 258.778 123.619 258.809 123.586C258.841 123.552 258.861 123.511 258.869 123.466C258.876 123.422 258.869 123.376 258.85 123.336C258.831 123.295 258.799 123.26 258.76 123.236C258.72 123.212 258.674 123.199 258.627 123.2C258.594 123.201 258.562 123.209 258.533 123.222C258.503 123.236 258.477 123.255 258.455 123.278C258.433 123.301 258.416 123.329 258.405 123.358C258.394 123.388 258.389 123.419 258.39 123.451Z" fill="#CDC9C9"/>
<path d="M249.525 122.953C249.473 122.949 249.42 122.96 249.374 122.985C249.328 123.01 249.292 123.048 249.269 123.094C249.246 123.139 249.238 123.191 249.246 123.241C249.254 123.291 249.277 123.337 249.313 123.374C249.349 123.411 249.396 123.437 249.448 123.448C249.499 123.459 249.553 123.454 249.602 123.435C249.651 123.417 249.693 123.384 249.722 123.342C249.751 123.3 249.767 123.25 249.766 123.2C249.767 123.168 249.762 123.137 249.75 123.107C249.739 123.078 249.721 123.051 249.699 123.028C249.677 123.005 249.65 122.987 249.62 122.974C249.59 122.961 249.558 122.954 249.525 122.953Z" fill="#CDC9C9"/>
<path d="M255.68 107.124C255.733 107.128 255.785 107.117 255.831 107.092C255.876 107.067 255.913 107.029 255.936 106.984C255.959 106.939 255.968 106.888 255.96 106.838C255.952 106.788 255.929 106.742 255.894 106.704C255.858 106.667 255.811 106.641 255.76 106.63C255.709 106.619 255.655 106.622 255.606 106.641C255.557 106.659 255.515 106.691 255.485 106.732C255.455 106.774 255.439 106.823 255.439 106.874C255.438 106.905 255.443 106.937 255.454 106.967C255.465 106.997 255.482 107.024 255.505 107.047C255.527 107.071 255.554 107.09 255.584 107.103C255.615 107.116 255.647 107.123 255.68 107.124Z" fill="#CDC9C9"/>
<path d="M249.286 123.697C249.234 123.693 249.181 123.703 249.135 123.728C249.088 123.752 249.051 123.789 249.027 123.835C249.004 123.88 248.995 123.931 249.002 123.981C249.009 124.031 249.032 124.078 249.067 124.115C249.103 124.153 249.149 124.179 249.2 124.191C249.252 124.203 249.305 124.199 249.355 124.181C249.404 124.163 249.446 124.131 249.476 124.09C249.506 124.048 249.523 123.999 249.523 123.948C249.525 123.917 249.52 123.885 249.509 123.856C249.498 123.826 249.481 123.799 249.459 123.776C249.437 123.752 249.41 123.734 249.381 123.72C249.351 123.707 249.319 123.699 249.286 123.697Z" fill="#CDC9C9"/>
<path d="M262.331 124.195C262.384 124.2 262.437 124.189 262.483 124.165C262.529 124.14 262.567 124.102 262.59 124.057C262.614 124.012 262.622 123.96 262.615 123.91C262.607 123.86 262.584 123.813 262.548 123.776C262.513 123.738 262.466 123.712 262.414 123.701C262.363 123.69 262.309 123.694 262.259 123.712C262.21 123.731 262.168 123.763 262.138 123.806C262.109 123.848 262.093 123.897 262.094 123.948C262.092 123.979 262.097 124.011 262.108 124.04C262.119 124.069 262.136 124.096 262.158 124.119C262.18 124.142 262.207 124.161 262.237 124.174C262.266 124.187 262.298 124.194 262.331 124.195Z" fill="#CDC9C9"/>
<path d="M266.301 127.452C266.353 127.456 266.406 127.445 266.452 127.42C266.497 127.395 266.534 127.357 266.557 127.311C266.58 127.266 266.588 127.214 266.58 127.164C266.572 127.114 266.549 127.068 266.512 127.031C266.476 126.994 266.43 126.968 266.378 126.957C266.326 126.946 266.273 126.951 266.224 126.97C266.175 126.988 266.133 127.021 266.104 127.063C266.074 127.105 266.059 127.155 266.06 127.205C266.059 127.237 266.064 127.268 266.075 127.297C266.087 127.327 266.104 127.354 266.127 127.377C266.149 127.4 266.176 127.418 266.206 127.431C266.236 127.444 266.268 127.451 266.301 127.452Z" fill="#CDC9C9"/>
<path d="M243.483 132.123C243.55 132.12 243.612 132.092 243.657 132.045C243.702 131.998 243.726 131.936 243.724 131.872C243.72 131.828 243.703 131.785 243.674 131.75C243.645 131.715 243.606 131.688 243.562 131.674C243.518 131.659 243.47 131.657 243.425 131.668C243.379 131.68 243.338 131.703 243.307 131.736C243.275 131.769 243.254 131.81 243.246 131.854C243.239 131.898 243.245 131.944 243.263 131.985C243.282 132.026 243.313 132.061 243.352 132.085C243.391 132.11 243.436 132.123 243.483 132.123Z" fill="#CDC9C9"/>
<path d="M265.754 140.302C265.807 140.307 265.859 140.296 265.906 140.272C265.952 140.247 265.989 140.21 266.013 140.165C266.036 140.12 266.045 140.069 266.038 140.019C266.031 139.968 266.008 139.922 265.973 139.884C265.938 139.847 265.891 139.82 265.84 139.808C265.789 139.797 265.735 139.8 265.685 139.818C265.636 139.836 265.594 139.868 265.564 139.91C265.534 139.951 265.517 140.001 265.517 140.051C265.515 140.114 265.538 140.176 265.583 140.223C265.627 140.269 265.688 140.298 265.754 140.302Z" fill="#CDC9C9"/>
<path d="M250.617 102.513C250.671 102.585 250.74 102.644 250.82 102.688C250.9 102.731 250.989 102.758 251.08 102.767C251.172 102.775 251.264 102.764 251.351 102.736C251.438 102.707 251.518 102.661 251.585 102.601C251.725 102.471 251.811 102.297 251.827 102.111C251.843 101.925 251.788 101.739 251.672 101.59C251.618 101.518 251.549 101.459 251.469 101.415C251.389 101.371 251.3 101.345 251.209 101.336C251.117 101.328 251.025 101.338 250.938 101.367C250.851 101.396 250.771 101.442 250.704 101.502C250.564 101.632 250.478 101.806 250.462 101.992C250.446 102.178 250.501 102.363 250.617 102.513Z" fill="#CDC9C9"/>
<path d="M259.419 113.46C259.56 113.33 259.646 113.156 259.662 112.97C259.678 112.784 259.623 112.599 259.506 112.449C259.452 112.377 259.383 112.318 259.303 112.274C259.223 112.231 259.135 112.204 259.043 112.195C258.952 112.187 258.859 112.198 258.772 112.226C258.685 112.255 258.606 112.301 258.539 112.361C258.398 112.49 258.311 112.664 258.295 112.851C258.279 113.037 258.334 113.223 258.451 113.372C258.505 113.444 258.575 113.503 258.655 113.547C258.734 113.591 258.823 113.617 258.915 113.626C259.006 113.634 259.099 113.624 259.186 113.595C259.273 113.566 259.352 113.52 259.419 113.46Z" fill="#CDC9C9"/>
<path d="M245.525 113.066C245.564 113.116 245.613 113.158 245.669 113.189C245.726 113.22 245.789 113.239 245.853 113.245C245.918 113.251 245.983 113.244 246.045 113.224C246.107 113.204 246.163 113.172 246.211 113.129C246.31 113.037 246.371 112.914 246.382 112.782C246.393 112.65 246.352 112.518 246.269 112.413C246.231 112.362 246.182 112.32 246.126 112.289C246.07 112.258 246.007 112.239 245.943 112.234C245.878 112.228 245.813 112.236 245.752 112.256C245.69 112.277 245.635 112.31 245.588 112.353C245.488 112.444 245.427 112.566 245.415 112.698C245.404 112.829 245.443 112.96 245.525 113.066Z" fill="#CDC9C9"/>
<path d="M247.089 119.962C247.162 119.895 247.206 119.804 247.214 119.707C247.221 119.61 247.192 119.514 247.131 119.437C247.103 119.4 247.066 119.369 247.025 119.346C246.983 119.324 246.937 119.31 246.89 119.306C246.842 119.302 246.794 119.307 246.749 119.322C246.704 119.337 246.663 119.361 246.628 119.393C246.556 119.461 246.511 119.551 246.504 119.648C246.496 119.745 246.525 119.841 246.587 119.918C246.615 119.955 246.651 119.985 246.693 120.007C246.735 120.029 246.78 120.043 246.828 120.047C246.875 120.051 246.923 120.046 246.968 120.031C247.013 120.017 247.054 119.993 247.089 119.962Z" fill="#CDC9C9"/>
<path d="M232.199 139.725C232.17 139.688 232.134 139.658 232.092 139.636C232.051 139.614 232.005 139.6 231.957 139.596C231.91 139.592 231.862 139.597 231.817 139.612C231.772 139.627 231.731 139.65 231.696 139.681C231.623 139.749 231.579 139.839 231.571 139.936C231.564 140.033 231.593 140.129 231.654 140.207C231.683 140.243 231.719 140.274 231.76 140.297C231.802 140.319 231.848 140.333 231.895 140.337C231.943 140.341 231.991 140.336 232.036 140.321C232.081 140.306 232.122 140.282 232.157 140.25C232.23 140.183 232.274 140.092 232.282 139.995C232.289 139.898 232.26 139.802 232.199 139.725Z" fill="#CDC9C9"/>
<path d="M254.015 103.533C254.061 103.49 254.09 103.432 254.095 103.371C254.1 103.309 254.082 103.248 254.044 103.198C254.026 103.174 254.003 103.154 253.977 103.139C253.95 103.124 253.92 103.115 253.89 103.112C253.859 103.109 253.828 103.112 253.799 103.122C253.769 103.131 253.743 103.146 253.72 103.167C253.674 103.21 253.645 103.268 253.64 103.331C253.634 103.393 253.653 103.455 253.691 103.505C253.709 103.529 253.732 103.549 253.759 103.563C253.786 103.578 253.816 103.587 253.846 103.589C253.877 103.592 253.908 103.588 253.937 103.579C253.966 103.569 253.993 103.553 254.015 103.533Z" fill="#CDC9C9"/>
<path d="M244.931 113.595C244.883 113.637 244.853 113.695 244.848 113.757C244.843 113.819 244.862 113.881 244.902 113.93C244.919 113.954 244.942 113.974 244.968 113.989C244.995 114.004 245.024 114.013 245.054 114.016C245.085 114.019 245.115 114.016 245.144 114.006C245.173 113.997 245.2 113.982 245.222 113.962C245.27 113.919 245.3 113.86 245.305 113.798C245.311 113.735 245.291 113.673 245.251 113.623C245.233 113.599 245.21 113.58 245.184 113.565C245.157 113.55 245.128 113.542 245.098 113.539C245.067 113.536 245.037 113.54 245.008 113.55C244.979 113.559 244.953 113.575 244.931 113.595Z" fill="#CDC9C9"/>
<path d="M241.648 109.163C241.6 109.206 241.57 109.264 241.565 109.327C241.559 109.39 241.579 109.452 241.619 109.502C241.638 109.525 241.661 109.544 241.688 109.559C241.715 109.573 241.744 109.582 241.775 109.584C241.805 109.587 241.836 109.583 241.865 109.574C241.894 109.564 241.921 109.549 241.943 109.53C241.971 109.508 241.993 109.481 242.01 109.45C242.026 109.42 242.036 109.387 242.039 109.352C242.042 109.318 242.037 109.284 242.026 109.251C242.014 109.219 241.996 109.189 241.972 109.163C241.952 109.141 241.928 109.122 241.9 109.11C241.872 109.098 241.841 109.091 241.81 109.091C241.779 109.091 241.749 109.098 241.721 109.11C241.693 109.122 241.668 109.141 241.648 109.163Z" fill="#CDC9C9"/>
<path d="M245.073 108.633C245.121 108.592 245.15 108.534 245.156 108.472C245.161 108.41 245.142 108.348 245.102 108.299C245.084 108.275 245.061 108.255 245.034 108.24C245.008 108.225 244.978 108.216 244.947 108.213C244.917 108.209 244.886 108.213 244.856 108.222C244.827 108.232 244.8 108.247 244.778 108.267C244.731 108.311 244.703 108.369 244.698 108.432C244.693 108.494 244.713 108.556 244.753 108.606C244.77 108.629 244.793 108.649 244.82 108.664C244.846 108.678 244.876 108.687 244.906 108.69C244.936 108.693 244.967 108.689 244.996 108.679C245.024 108.669 245.051 108.654 245.073 108.633Z" fill="#CDC9C9"/>
<path d="M239.448 111.576C239.401 111.62 239.372 111.678 239.367 111.74C239.362 111.803 239.38 111.865 239.419 111.915C239.437 111.938 239.461 111.958 239.487 111.972C239.514 111.986 239.544 111.995 239.574 111.997C239.605 112 239.635 111.996 239.664 111.987C239.693 111.978 239.72 111.963 239.743 111.943C239.789 111.899 239.818 111.841 239.823 111.779C239.828 111.717 239.81 111.655 239.772 111.604C239.753 111.581 239.73 111.562 239.703 111.547C239.676 111.533 239.647 111.524 239.616 111.522C239.586 111.519 239.555 111.523 239.526 111.532C239.497 111.542 239.47 111.557 239.448 111.576Z" fill="#CDC9C9"/>
<path d="M265.078 113.993C265.126 113.951 265.156 113.892 265.161 113.83C265.166 113.767 265.147 113.705 265.107 113.655C265.09 113.631 265.067 113.61 265.04 113.595C265.014 113.58 264.984 113.571 264.954 113.568C264.923 113.566 264.892 113.57 264.864 113.58C264.835 113.59 264.809 113.606 264.787 113.627C264.739 113.669 264.709 113.727 264.704 113.789C264.699 113.851 264.718 113.912 264.758 113.961C264.775 113.986 264.798 114.006 264.824 114.021C264.85 114.036 264.88 114.045 264.91 114.048C264.941 114.051 264.971 114.048 265 114.038C265.029 114.029 265.056 114.013 265.078 113.993Z" fill="#CDC9C9"/>
<path d="M247.944 110.637C247.922 110.659 247.91 110.689 247.91 110.72C247.91 110.751 247.922 110.781 247.944 110.804C247.954 110.815 247.966 110.824 247.98 110.83C247.993 110.836 248.008 110.839 248.023 110.839C248.038 110.839 248.053 110.836 248.067 110.83C248.08 110.824 248.092 110.815 248.102 110.804C248.124 110.78 248.137 110.75 248.137 110.718C248.137 110.687 248.124 110.656 248.102 110.633C248.092 110.623 248.079 110.615 248.065 110.609C248.052 110.604 248.037 110.601 248.022 110.602C248.007 110.602 247.993 110.606 247.979 110.611C247.966 110.617 247.954 110.626 247.944 110.637Z" fill="#CDC9C9"/>
<path d="M227.018 129.169C227.04 129.145 227.051 129.114 227.051 129.083C227.051 129.052 227.04 129.021 227.018 128.997C227.008 128.986 226.996 128.978 226.982 128.972C226.968 128.966 226.953 128.962 226.937 128.962C226.922 128.962 226.907 128.966 226.893 128.972C226.879 128.978 226.866 128.986 226.856 128.997C226.835 129.021 226.824 129.05 226.824 129.081C226.824 129.112 226.835 129.141 226.856 129.165C226.867 129.175 226.879 129.184 226.893 129.19C226.906 129.196 226.921 129.199 226.936 129.2C226.952 129.2 226.967 129.198 226.981 129.192C226.995 129.187 227.008 129.179 227.018 129.169Z" fill="#CDC9C9"/>
<path d="M238.234 121.694C238.255 121.67 238.267 121.64 238.267 121.609C238.267 121.577 238.255 121.547 238.234 121.523C238.224 121.512 238.212 121.503 238.198 121.497C238.184 121.491 238.168 121.488 238.153 121.488C238.138 121.488 238.123 121.491 238.109 121.497C238.095 121.503 238.082 121.512 238.072 121.523C238.05 121.546 238.038 121.576 238.038 121.607C238.038 121.638 238.05 121.668 238.072 121.69C238.082 121.702 238.094 121.711 238.108 121.717C238.122 121.723 238.137 121.727 238.152 121.727C238.168 121.728 238.183 121.725 238.197 121.719C238.211 121.714 238.224 121.705 238.234 121.694Z" fill="#CDC9C9"/>
<path d="M245.567 110.481C245.589 110.458 245.601 110.427 245.601 110.396C245.601 110.364 245.589 110.334 245.567 110.31C245.557 110.299 245.544 110.29 245.53 110.284C245.516 110.278 245.501 110.275 245.486 110.275C245.47 110.275 245.455 110.278 245.441 110.284C245.427 110.29 245.415 110.299 245.405 110.31C245.383 110.333 245.371 110.363 245.371 110.394C245.371 110.425 245.383 110.455 245.405 110.477C245.414 110.489 245.426 110.499 245.44 110.506C245.454 110.513 245.469 110.516 245.485 110.517C245.5 110.517 245.516 110.514 245.53 110.508C245.544 110.502 245.557 110.493 245.567 110.481Z" fill="#CDC9C9"/>
<path d="M228.894 124.968C228.915 124.945 228.927 124.915 228.927 124.884C228.927 124.853 228.915 124.824 228.894 124.8C228.884 124.79 228.871 124.782 228.857 124.776C228.843 124.77 228.828 124.767 228.813 124.767C228.798 124.767 228.783 124.77 228.769 124.776C228.755 124.782 228.743 124.79 228.732 124.8C228.711 124.824 228.699 124.855 228.699 124.886C228.699 124.917 228.711 124.948 228.732 124.972C228.743 124.982 228.755 124.991 228.77 124.997C228.784 125.002 228.799 125.005 228.814 125.005C228.83 125.004 228.845 125.001 228.858 124.994C228.872 124.988 228.884 124.979 228.894 124.968Z" fill="#CDC9C9"/>
<path d="M248.314 112.667C248.268 112.711 248.239 112.769 248.234 112.831C248.228 112.893 248.247 112.955 248.285 113.006C248.304 113.029 248.327 113.048 248.354 113.063C248.381 113.077 248.41 113.085 248.441 113.088C248.471 113.091 248.502 113.087 248.531 113.078C248.56 113.068 248.587 113.053 248.609 113.034C248.656 112.99 248.684 112.932 248.69 112.87C248.695 112.807 248.677 112.745 248.638 112.695C248.62 112.672 248.596 112.652 248.57 112.638C248.543 112.624 248.513 112.615 248.483 112.613C248.452 112.61 248.422 112.614 248.393 112.623C248.364 112.632 248.337 112.647 248.314 112.667Z" fill="#CDC9C9"/>
<path d="M240.727 120.281C240.774 120.238 240.802 120.18 240.807 120.118C240.811 120.057 240.792 119.995 240.752 119.947C240.735 119.923 240.712 119.902 240.686 119.887C240.66 119.873 240.63 119.863 240.6 119.86C240.57 119.857 240.539 119.861 240.51 119.87C240.481 119.879 240.455 119.895 240.432 119.915C240.384 119.957 240.354 120.016 240.349 120.079C240.344 120.141 240.363 120.204 240.403 120.253C240.421 120.278 240.444 120.298 240.471 120.313C240.498 120.328 240.528 120.337 240.559 120.34C240.589 120.342 240.621 120.339 240.65 120.328C240.679 120.318 240.705 120.302 240.727 120.281Z" fill="#CDC9C9"/>
<path d="M261.36 139.199C261.379 139.223 261.402 139.243 261.429 139.257C261.455 139.272 261.485 139.281 261.516 139.284C261.547 139.286 261.577 139.283 261.607 139.273C261.636 139.263 261.662 139.247 261.684 139.227C261.731 139.184 261.759 139.127 261.765 139.065C261.77 139.004 261.752 138.942 261.714 138.893C261.696 138.868 261.673 138.848 261.646 138.833C261.62 138.818 261.59 138.809 261.559 138.806C261.528 138.803 261.497 138.806 261.468 138.816C261.439 138.825 261.412 138.841 261.39 138.861C261.343 138.904 261.314 138.963 261.309 139.025C261.304 139.087 261.322 139.149 261.36 139.199Z" fill="#CDC9C9"/>
<path d="M229.926 119.198C229.974 119.155 230.004 119.096 230.009 119.034C230.014 118.971 229.995 118.909 229.955 118.859C229.936 118.836 229.913 118.816 229.886 118.802C229.859 118.788 229.83 118.779 229.799 118.777C229.769 118.774 229.738 118.778 229.709 118.787C229.68 118.796 229.653 118.811 229.631 118.831C229.584 118.875 229.556 118.934 229.551 118.996C229.546 119.058 229.566 119.12 229.606 119.17C229.624 119.193 229.647 119.212 229.673 119.226C229.7 119.241 229.729 119.249 229.759 119.252C229.789 119.255 229.82 119.251 229.848 119.242C229.877 119.232 229.903 119.217 229.926 119.198Z" fill="#CDC9C9"/>
<path d="M245.087 130.61C245.041 130.654 245.012 130.712 245.007 130.774C245.001 130.836 245.02 130.898 245.058 130.949C245.077 130.972 245.1 130.991 245.127 131.005C245.154 131.02 245.183 131.028 245.214 131.031C245.244 131.034 245.275 131.03 245.304 131.021C245.333 131.011 245.36 130.996 245.382 130.976C245.429 130.933 245.457 130.875 245.463 130.812C245.468 130.75 245.45 130.688 245.411 130.638C245.393 130.615 245.369 130.595 245.343 130.581C245.316 130.567 245.286 130.558 245.256 130.556C245.225 130.553 245.195 130.556 245.166 130.566C245.137 130.575 245.11 130.59 245.087 130.61Z" fill="#CDC9C9"/>
<path d="M254.846 123.849C254.799 123.892 254.771 123.951 254.766 124.013C254.762 124.076 254.781 124.138 254.821 124.187C254.839 124.21 254.862 124.23 254.889 124.244C254.915 124.258 254.944 124.267 254.975 124.269C255.005 124.272 255.035 124.268 255.064 124.259C255.092 124.25 255.119 124.235 255.141 124.215C255.189 124.172 255.219 124.114 255.224 124.051C255.23 123.988 255.21 123.926 255.17 123.877C255.152 123.853 255.128 123.834 255.101 123.82C255.075 123.805 255.045 123.797 255.014 123.794C254.984 123.791 254.953 123.795 254.924 123.804C254.895 123.814 254.869 123.829 254.846 123.849Z" fill="#CDC9C9"/>
<path d="M243.89 136.07C244.036 135.935 244.125 135.753 244.141 135.56C244.157 135.366 244.099 135.174 243.978 135.018C243.921 134.944 243.849 134.881 243.766 134.835C243.683 134.79 243.59 134.761 243.495 134.753C243.399 134.744 243.302 134.755 243.212 134.785C243.121 134.815 243.038 134.863 242.968 134.927C242.822 135.062 242.733 135.243 242.717 135.437C242.701 135.63 242.759 135.823 242.881 135.978C242.938 136.052 243.01 136.113 243.094 136.158C243.177 136.203 243.269 136.231 243.364 136.24C243.459 136.248 243.556 136.238 243.646 136.208C243.737 136.179 243.82 136.132 243.89 136.07Z" fill="#CDC9C9"/>
<path d="M235.177 133.776C235.121 133.702 235.049 133.64 234.966 133.594C234.883 133.549 234.791 133.521 234.696 133.512C234.601 133.504 234.505 133.515 234.415 133.544C234.324 133.574 234.241 133.622 234.172 133.684C234.026 133.819 233.937 134 233.921 134.194C233.905 134.388 233.963 134.58 234.084 134.735C234.14 134.81 234.212 134.872 234.295 134.918C234.378 134.964 234.47 134.992 234.565 135.001C234.661 135.01 234.757 134.999 234.847 134.969C234.938 134.939 235.02 134.89 235.09 134.827C235.235 134.692 235.325 134.511 235.341 134.317C235.357 134.124 235.299 133.931 235.177 133.776Z" fill="#CDC9C9"/>
<path d="M261.141 105.062C261.245 104.967 261.309 104.838 261.32 104.701C261.332 104.564 261.29 104.427 261.203 104.317C261.163 104.265 261.112 104.222 261.054 104.19C260.995 104.158 260.93 104.139 260.863 104.133C260.796 104.127 260.728 104.134 260.665 104.155C260.601 104.176 260.542 104.209 260.493 104.253C260.389 104.349 260.325 104.477 260.314 104.614C260.302 104.752 260.344 104.888 260.431 104.998C260.471 105.05 260.522 105.093 260.58 105.125C260.639 105.157 260.704 105.177 260.771 105.183C260.838 105.189 260.906 105.181 260.969 105.16C261.033 105.139 261.092 105.106 261.141 105.062Z" fill="#CDC9C9"/>
<path d="M239.346 125.66C239.296 125.705 239.265 125.765 239.26 125.83C239.254 125.895 239.275 125.96 239.317 126.011C239.335 126.035 239.359 126.056 239.387 126.071C239.414 126.086 239.445 126.095 239.476 126.098C239.508 126.1 239.539 126.096 239.569 126.086C239.599 126.076 239.626 126.06 239.649 126.039C239.699 125.994 239.73 125.934 239.735 125.869C239.74 125.804 239.72 125.74 239.678 125.688C239.66 125.664 239.636 125.643 239.608 125.628C239.581 125.613 239.55 125.604 239.519 125.601C239.487 125.599 239.455 125.603 239.425 125.613C239.396 125.623 239.368 125.639 239.346 125.66Z" fill="#CDC9C9"/>
<path d="M226.145 129.045C226.164 129.07 226.188 129.09 226.216 129.105C226.244 129.121 226.275 129.13 226.307 129.132C226.338 129.135 226.37 129.131 226.401 129.121C226.431 129.111 226.458 129.094 226.481 129.073C226.53 129.028 226.559 128.968 226.565 128.903C226.57 128.839 226.551 128.775 226.51 128.723C226.492 128.698 226.467 128.677 226.439 128.662C226.412 128.647 226.381 128.638 226.349 128.636C226.317 128.633 226.285 128.637 226.255 128.647C226.225 128.657 226.197 128.674 226.174 128.695C226.126 128.74 226.096 128.8 226.091 128.865C226.085 128.929 226.105 128.993 226.145 129.045Z" fill="#CDC9C9"/>
<path d="M232.832 110.417C232.88 110.372 232.91 110.312 232.915 110.247C232.921 110.183 232.901 110.119 232.861 110.067C232.842 110.043 232.818 110.022 232.79 110.007C232.763 109.992 232.732 109.983 232.7 109.98C232.668 109.977 232.636 109.98 232.606 109.99C232.576 109.999 232.548 110.015 232.525 110.035C232.476 110.08 232.447 110.141 232.441 110.205C232.436 110.27 232.455 110.334 232.495 110.386C232.514 110.411 232.538 110.431 232.566 110.447C232.593 110.462 232.624 110.472 232.656 110.475C232.688 110.478 232.72 110.474 232.751 110.464C232.781 110.454 232.809 110.438 232.832 110.417Z" fill="#CDC9C9"/>
<path d="M264.995 121.977C264.987 122.041 265.005 122.105 265.045 122.155C265.086 122.206 265.145 122.239 265.211 122.248C265.277 122.25 265.34 122.228 265.388 122.185C265.437 122.143 265.465 122.084 265.469 122.021C265.477 121.958 265.459 121.894 265.419 121.844C265.378 121.793 265.319 121.759 265.253 121.751C265.22 121.749 265.188 121.754 265.157 121.764C265.126 121.775 265.098 121.791 265.074 121.812C265.05 121.833 265.031 121.859 265.017 121.887C265.004 121.916 264.996 121.946 264.995 121.977Z" fill="#CDC9C9"/>
<path d="M254.535 114.173C254.567 114.174 254.6 114.169 254.631 114.159C254.661 114.148 254.689 114.132 254.713 114.111C254.737 114.09 254.757 114.064 254.77 114.036C254.784 114.007 254.791 113.977 254.792 113.946C254.801 113.882 254.783 113.818 254.742 113.768C254.702 113.717 254.642 113.684 254.576 113.675C254.544 113.673 254.511 113.678 254.481 113.688C254.45 113.699 254.422 113.715 254.398 113.737C254.374 113.758 254.355 113.783 254.341 113.812C254.327 113.84 254.32 113.871 254.319 113.902C254.311 113.965 254.329 114.029 254.369 114.08C254.409 114.13 254.469 114.164 254.535 114.173Z" fill="#CDC9C9"/>
<path d="M254.721 105.364C254.754 105.367 254.787 105.362 254.818 105.352C254.849 105.342 254.877 105.325 254.901 105.304C254.925 105.283 254.945 105.257 254.958 105.228C254.971 105.2 254.978 105.169 254.979 105.137C254.987 105.075 254.969 105.011 254.929 104.961C254.888 104.911 254.828 104.879 254.763 104.871C254.73 104.869 254.698 104.874 254.667 104.884C254.637 104.895 254.608 104.911 254.584 104.932C254.561 104.953 254.541 104.979 254.528 105.007C254.514 105.036 254.506 105.066 254.505 105.098C254.498 105.16 254.517 105.223 254.557 105.273C254.597 105.323 254.656 105.355 254.721 105.364Z" fill="#CDC9C9"/>
<path d="M262.803 109.016L262.865 109.036C262.934 109.039 263.003 109.029 263.068 109.006C263.133 108.984 263.193 108.949 263.244 108.904C263.295 108.86 263.336 108.806 263.365 108.745C263.394 108.685 263.411 108.62 263.413 108.554C263.432 108.418 263.395 108.28 263.308 108.17C263.222 108.061 263.094 107.988 262.952 107.969C262.884 107.965 262.815 107.975 262.75 107.998C262.685 108.021 262.626 108.055 262.575 108.1C262.524 108.145 262.483 108.199 262.455 108.259C262.426 108.319 262.41 108.384 262.408 108.45C262.402 108.553 262.425 108.655 262.475 108.745C262.505 108.811 262.55 108.869 262.607 108.916C262.664 108.963 262.731 108.997 262.803 109.016Z" fill="#CDC9C9"/>
<path d="M262.892 111.624C262.895 111.609 262.894 111.593 262.889 111.578C262.885 111.563 262.878 111.548 262.868 111.536C262.858 111.524 262.845 111.514 262.831 111.506C262.816 111.499 262.801 111.494 262.784 111.493C262.768 111.492 262.752 111.494 262.737 111.499C262.721 111.504 262.707 111.512 262.695 111.522C262.683 111.533 262.673 111.545 262.667 111.559C262.66 111.573 262.656 111.589 262.656 111.604C262.652 111.636 262.661 111.667 262.681 111.693C262.701 111.718 262.731 111.735 262.764 111.74C262.78 111.741 262.797 111.738 262.812 111.733C262.828 111.728 262.842 111.72 262.854 111.709C262.866 111.698 262.876 111.685 262.882 111.67C262.889 111.656 262.892 111.64 262.892 111.624Z" fill="#CDC9C9"/>
<path d="M264.853 110.051C264.869 110.052 264.885 110.05 264.901 110.045C264.916 110.04 264.93 110.032 264.942 110.022C264.954 110.011 264.964 109.999 264.97 109.985C264.977 109.97 264.981 109.955 264.982 109.94C264.982 109.917 264.976 109.895 264.964 109.875C264.951 109.856 264.933 109.841 264.912 109.831C264.89 109.822 264.867 109.818 264.843 109.822C264.82 109.825 264.798 109.835 264.78 109.85C264.763 109.866 264.75 109.885 264.745 109.907C264.739 109.929 264.74 109.952 264.747 109.974C264.755 109.995 264.769 110.014 264.788 110.028C264.807 110.041 264.829 110.05 264.853 110.051Z" fill="#CDC9C9"/>
<path d="M260.969 110.151C260.936 110.149 260.903 110.154 260.873 110.164C260.842 110.175 260.814 110.191 260.79 110.212C260.766 110.233 260.747 110.259 260.733 110.287C260.72 110.316 260.712 110.346 260.711 110.378C260.704 110.44 260.722 110.503 260.763 110.553C260.803 110.603 260.862 110.635 260.927 110.644C260.96 110.647 260.992 110.642 261.023 110.632C261.054 110.622 261.083 110.605 261.107 110.584C261.131 110.563 261.15 110.537 261.164 110.508C261.177 110.48 261.184 110.449 261.185 110.417C261.193 110.355 261.175 110.291 261.134 110.241C261.094 110.191 261.034 110.159 260.969 110.151Z" fill="#CDC9C9"/>
<path d="M249.766 141.887C263.443 141.887 274.531 131.167 274.531 117.944C274.531 104.72 263.443 94 249.766 94C236.088 94 225 104.72 225 117.944C225 131.167 236.088 141.887 249.766 141.887Z" fill="#EBEBEB"/>
<path d="M259.119 103.138L258.421 102.625C258.342 102.573 258.275 102.505 258.226 102.426C258.192 102.329 258.172 102.229 258.168 102.127C258.131 101.946 258.026 101.784 257.873 101.673C257.719 101.561 257.529 101.508 257.337 101.522C257.188 101.155 257.154 100.757 257.017 100.387C256.963 100.196 256.858 100.022 256.713 99.8825C256.567 99.7427 256.385 99.6421 256.186 99.5905C256.028 99.5872 255.87 99.5658 255.717 99.5268C255.566 99.4373 255.426 99.3303 255.302 99.2082C254.832 98.8658 254.018 99.0529 253.723 98.5671C253.67 98.4434 253.611 98.3224 253.545 98.2047C253.434 98.0852 253.29 97.9983 253.129 97.9539C252.548 97.7508 251.883 97.5557 251.322 97.7747C251.122 97.8751 250.912 97.9552 250.695 98.0136C250.45 98.0495 250.184 97.9618 249.96 98.0574C249.823 98.1132 249.711 98.2366 249.565 98.2446C249.461 98.2369 249.36 98.2025 249.274 98.145C248.708 97.8146 248.043 97.6745 247.384 97.7468C247.459 97.6952 247.54 97.6524 247.625 97.6194C247.688 97.6194 247.758 97.5875 247.825 97.5716C247.988 97.5301 248.134 97.4394 248.24 97.3128L248.203 97.2172C248.115 97.273 247.995 97.2172 247.912 97.1575C247.842 97.0812 247.746 97.0317 247.642 97.0181C247.59 97.0272 247.538 97.0405 247.488 97.0579C247.268 97.1057 247.073 96.9226 246.84 96.9226C246.766 96.9219 246.693 96.9355 246.624 96.9624C246.307 97.0606 246.012 97.2161 245.756 97.4203C245.726 97.4418 245.7 97.4689 245.681 97.4999C245.667 97.5467 245.667 97.5965 245.681 97.6433C245.693 97.727 245.726 97.8067 245.777 97.876C245.827 97.9452 245.894 98.0019 245.972 98.0415C246.144 98.1118 246.336 98.1244 246.516 98.0773C246.534 98.0796 246.552 98.0796 246.57 98.0773C246.449 98.1705 246.35 98.2872 246.279 98.4198C246.21 98.5451 246.18 98.6867 246.193 98.8279C246.205 98.969 246.26 99.1038 246.35 99.2162C246.134 99.3555 245.901 99.033 245.644 99.0091C245.453 99.0091 245.295 99.1405 245.17 99.2759L244.651 99.8374L244.049 99.6621C243.952 99.6306 243.847 99.6306 243.75 99.6621C243.661 99.7119 243.581 99.7751 243.513 99.8493C243.455 99.9007 243.385 99.9381 243.309 99.9582C243.233 99.9784 243.153 99.9808 243.075 99.9652C242.998 99.9496 242.926 99.9165 242.865 99.8686C242.803 99.8207 242.755 99.7595 242.724 99.69C242.767 99.671 242.805 99.644 242.838 99.6105C242.87 99.577 242.894 99.5377 242.911 99.4949C242.893 99.4535 242.863 99.4185 242.823 99.3955C242.783 99.3725 242.737 99.3626 242.69 99.3675C242.714 99.2426 242.787 99.1312 242.894 99.0569C243.039 98.9613 243.251 98.9215 243.309 98.7662L243.637 98.5591C243.679 98.5388 243.715 98.5087 243.741 98.4715C243.754 98.4539 243.76 98.4331 243.76 98.4118C243.76 98.3905 243.754 98.3698 243.741 98.3521C243.945 98.149 243.696 97.6513 243.916 97.3964C244.001 97.3273 244.107 97.2859 244.218 97.278C244.329 97.2702 244.44 97.2963 244.535 97.3526C244.722 97.4699 244.931 97.5536 245.149 97.5995C245.486 97.6234 245.764 97.3646 246.018 97.1535C246.132 97.0367 246.278 96.9525 246.439 96.9104C246.601 96.8682 246.771 96.8697 246.932 96.9146C246.84 96.8788 247.106 96.4726 247.264 96.4845C247.355 96.4845 247.364 96.6359 247.438 96.6757C247.895 96.9146 248.473 96.596 248.971 96.5443C249.604 96.4731 250.244 96.496 250.869 96.612C250.911 96.4527 250.728 96.3372 250.57 96.2695C250.023 96.0155 249.449 95.8167 248.859 95.6762C247.797 95.474 246.696 95.5952 245.71 96.0226C245.477 96.148 245.217 96.2202 244.95 96.2337C244.817 96.2337 244.693 96.1819 244.56 96.1819C244.328 96.1972 244.112 96.2986 243.957 96.4646C243.764 96.4673 243.575 96.5225 243.413 96.6239C243.338 96.6677 243.264 96.7155 243.197 96.7633C243.243 96.823 243.338 96.7872 243.405 96.7633C243.525 96.701 243.656 96.6592 243.791 96.6398L243.712 96.7235C243.554 96.9026 243.326 96.8588 243.085 96.8867C243.001 96.8886 242.917 96.9006 242.836 96.9226C242.753 96.9529 242.679 97.0021 242.62 97.0659L242.852 96.8031C242.884 96.776 242.908 96.7428 242.925 96.7056C242.941 96.6685 242.949 96.6284 242.948 96.5881C243.068 96.5858 243.185 96.5561 243.291 96.5014C243.396 96.4466 243.487 96.3685 243.554 96.2735C243.573 96.2374 243.602 96.2071 243.637 96.1859C243.704 96.154 243.791 96.1859 243.862 96.1859C243.932 96.1859 243.949 96.0983 243.982 96.0425C244.081 95.9121 244.216 95.8112 244.373 95.7519L245.104 95.3855L244.817 95.3457C244.747 95.3463 244.678 95.3543 244.609 95.3696H244.585C243.776 95.4135 242.986 95.6211 242.267 95.9788C242.206 96.012 242.144 96.0413 242.08 96.0664C242.017 96.0664 241.955 96.0983 241.893 96.1142C241.489 96.2131 241.097 96.3546 240.726 96.5363L238.649 97.5199C238.574 97.5557 238.487 97.6154 238.507 97.6951L238.923 97.7389C238.604 97.812 238.304 97.9476 238.042 98.1371C237.967 98.2065 237.876 98.2583 237.776 98.2884C237.714 98.2884 237.656 98.2884 237.593 98.2884C237.511 98.3115 237.435 98.3509 237.369 98.4038L235.201 99.9409C234.78 100.219 234.389 100.537 234.034 100.889C233.6 101.282 233.199 101.707 232.833 102.159C232.576 102.557 232.418 102.987 232.135 103.353L232.738 102.895C232.834 102.827 232.923 102.75 233.003 102.665C233.066 102.593 233.116 102.513 233.17 102.438C233.315 102.245 233.473 102.061 233.643 101.888C233.716 101.801 233.803 101.725 233.901 101.665C233.963 101.625 234.034 101.601 234.096 101.558C234.158 101.514 234.225 101.43 234.295 101.37C234.328 101.338 234.369 101.314 234.414 101.301C234.459 101.289 234.507 101.288 234.553 101.299C234.482 101.422 234.399 101.546 234.316 101.665C234.289 101.707 234.252 101.742 234.208 101.769C234.157 101.787 234.104 101.799 234.05 101.804C233.822 101.852 233.701 102.087 233.61 102.294H233.884C233.891 102.318 233.893 102.344 233.888 102.369C233.884 102.393 233.874 102.417 233.859 102.438C233.644 102.881 233.378 103.301 233.066 103.688C233.279 103.419 233.413 103.1 233.452 102.764C233.134 102.979 232.853 103.241 232.621 103.541C232.476 103.743 232.257 103.885 232.006 103.939C232.012 103.834 232.047 103.732 232.106 103.644C231.853 103.644 231.691 103.887 231.566 104.106C231.338 104.548 231.105 104.99 230.872 105.432L230.428 106.28L230.079 106.945C230.051 106.984 230.033 107.028 230.026 107.074C230.019 107.12 230.023 107.167 230.038 107.212C230.375 106.894 230.674 106.54 230.926 106.157C230.967 106.088 231.015 106.022 231.068 105.962C231.13 105.902 231.205 105.854 231.267 105.798C231.52 105.579 231.633 105.229 231.915 105.05C231.915 105.313 231.653 105.5 231.466 105.699C231.275 105.903 231.134 106.145 231.051 106.408C231.031 106.494 231.001 106.579 230.96 106.658C230.91 106.734 230.839 106.794 230.789 106.869C230.706 107.044 230.681 107.239 230.719 107.427C230.719 107.427 230.719 107.451 230.719 107.459C230.719 107.467 230.773 107.459 230.794 107.459L231.321 107.14C231.311 107.295 231.332 107.451 231.383 107.598C231.41 107.673 231.419 107.752 231.408 107.83C231.398 107.908 231.37 107.982 231.325 108.048C231.022 108.303 230.829 108.656 230.781 109.04C230.794 109.198 230.774 109.358 230.722 109.509C230.67 109.66 230.587 109.8 230.478 109.92C230.42 109.963 230.353 110.003 230.332 110.067C230.324 110.133 230.334 110.201 230.362 110.262C230.411 110.509 230.2 110.72 230.046 110.923C229.997 110.977 229.963 111.041 229.946 111.11C229.94 111.174 229.94 111.238 229.946 111.301C229.957 111.45 229.927 111.598 229.859 111.731L230.195 111.927C230.253 111.954 230.304 111.991 230.345 112.038C230.377 112.1 230.407 112.164 230.432 112.229C230.486 112.321 230.586 112.388 230.615 112.488C230.623 112.541 230.623 112.595 230.615 112.647C230.593 112.924 230.656 113.201 230.798 113.444C230.848 113.515 230.887 113.593 230.914 113.675C230.956 113.866 230.831 114.073 230.914 114.252C230.843 114.252 230.881 114.375 230.914 114.423C230.972 114.463 231.042 114.484 231.113 114.483C231.149 114.481 231.185 114.487 231.218 114.501C231.251 114.514 231.28 114.533 231.304 114.559C231.383 114.658 231.275 114.794 231.234 114.913C231.216 114.973 231.214 115.036 231.231 115.096C231.247 115.157 231.279 115.212 231.325 115.255C231.375 115.303 231.446 115.347 231.437 115.415C231.429 115.482 231.329 115.514 231.259 115.55C231.051 115.65 231.055 115.948 231.147 116.147C231.272 116.337 231.354 116.55 231.388 116.773C231.482 116.784 231.572 116.821 231.645 116.88C231.719 116.938 231.774 117.016 231.803 117.103C231.803 117.159 231.836 117.231 231.894 117.25C231.952 117.27 232.036 117.203 232.065 117.131C232.16 116.884 232.065 116.585 232.214 116.362C232.292 116.267 232.378 116.178 232.472 116.096C232.518 116.054 232.55 116 232.566 115.941C232.581 115.881 232.579 115.819 232.559 115.761C232.526 115.697 232.459 115.65 232.422 115.59C232.384 115.53 232.401 115.419 232.476 115.411C232.583 115.487 232.662 115.595 232.7 115.717H232.987V116.155C232.901 116.219 232.838 116.306 232.805 116.405C232.771 116.503 232.77 116.609 232.8 116.709C232.809 116.741 232.824 116.772 232.846 116.799C232.867 116.825 232.894 116.848 232.924 116.864C232.97 116.884 233.02 116.888 233.062 116.904C233.307 116.996 233.215 117.461 233.477 117.509C233.581 117.509 233.685 117.458 233.788 117.465C233.892 117.473 233.971 117.517 234.025 117.465C234.079 117.414 234.025 117.358 234.025 117.306C233.971 117.142 233.971 116.965 234.025 116.8C233.929 116.582 233.868 116.351 233.843 116.116L233.913 116.08C234.044 116.17 234.152 116.287 234.229 116.422C234.27 116.514 234.283 116.617 234.333 116.705C234.355 116.75 234.393 116.786 234.44 116.808C234.486 116.83 234.54 116.836 234.59 116.824C234.631 116.799 234.663 116.763 234.683 116.721C234.703 116.678 234.709 116.631 234.702 116.585C234.688 116.493 234.688 116.399 234.702 116.307C234.74 116.128 234.947 116.036 235.118 115.972C235.118 116.036 235.055 116.076 235.001 116.12C234.95 116.172 234.914 116.236 234.895 116.306C234.876 116.375 234.876 116.448 234.893 116.518C234.904 116.751 234.988 116.976 235.134 117.163C235.207 117.254 235.31 117.319 235.425 117.348C235.541 117.378 235.664 117.37 235.774 117.326C236.04 117.195 236.081 116.856 236.086 116.566C236.169 116.526 236.293 116.494 236.339 116.566C236.385 116.637 236.339 116.689 236.339 116.753C236.339 116.816 236.497 116.944 236.505 117.059C236.504 117.126 236.479 117.191 236.435 117.242C236.339 117.398 236.273 117.641 236.435 117.728C236.478 117.751 236.524 117.767 236.572 117.776C236.683 117.813 236.78 117.881 236.85 117.972C236.92 118.063 236.959 118.173 236.962 118.286C237.004 118.297 237.04 118.32 237.066 118.354C237.092 118.387 237.105 118.428 237.103 118.469C237.101 118.51 237.085 118.549 237.057 118.58C237.029 118.611 236.992 118.632 236.95 118.64C236.913 118.639 236.877 118.649 236.846 118.668C236.788 118.724 236.867 118.839 236.804 118.891C236.781 118.904 236.756 118.914 236.729 118.919C236.597 118.963 236.613 119.146 236.63 119.281C236.641 119.433 236.612 119.586 236.547 119.724C236.482 119.863 236.382 119.985 236.256 120.078C236.171 120.151 236.063 120.196 235.949 120.206C235.835 120.215 235.721 120.188 235.625 120.129C235.547 120.058 235.478 119.978 235.421 119.89C235.402 119.857 235.375 119.829 235.342 119.809C235.31 119.788 235.272 119.776 235.233 119.772C235.194 119.769 235.154 119.775 235.118 119.791C235.082 119.806 235.051 119.829 235.026 119.859C234.803 120.032 234.638 120.265 234.553 120.528C234.547 120.619 234.527 120.709 234.495 120.794C234.426 120.888 234.346 120.973 234.258 121.049C234.21 121.104 234.175 121.168 234.154 121.236C234.134 121.305 234.128 121.377 234.137 121.447C234.216 121.543 234.1 121.666 234.046 121.778C233.98 121.881 233.92 121.987 233.867 122.096C233.803 122.343 233.831 122.604 233.946 122.833C234.033 123.16 234.208 123.459 234.453 123.701C234.522 123.756 234.594 123.807 234.669 123.853C234.985 124.023 235.248 124.271 235.433 124.569C235.616 124.617 235.824 124.462 235.986 124.569C236.041 124.613 236.084 124.669 236.111 124.733C236.198 124.896 236.285 125.063 236.368 125.226C236.426 125.365 236.521 125.487 236.642 125.581C236.705 125.625 236.783 125.645 236.86 125.636C236.937 125.628 237.008 125.591 237.058 125.533C237.157 125.382 237.033 125.171 237.095 124.999C237.157 124.828 237.556 124.717 237.585 124.474C237.585 124.374 237.548 124.247 237.627 124.179C237.66 124.152 237.7 124.133 237.743 124.123C237.81 124.094 237.864 124.044 237.895 123.98C237.926 123.917 237.933 123.845 237.913 123.777C238.225 123.753 238.603 123.777 238.744 124.024C238.777 124.083 238.84 124.159 238.89 124.115C238.829 123.792 238.822 123.461 238.869 123.136C238.896 123.047 238.904 122.953 238.894 122.861C238.836 122.598 238.441 122.542 238.308 122.304C238.175 122.065 238.437 121.631 238.233 121.38C238.113 121.224 237.851 121.205 237.764 121.029C237.742 120.965 237.715 120.903 237.685 120.842C237.637 120.793 237.581 120.753 237.519 120.723C237.419 120.63 237.346 120.516 237.304 120.389C237.263 120.263 237.255 120.128 237.282 119.998C237.342 119.736 237.342 119.464 237.282 119.202C237.236 119.113 237.203 119.019 237.182 118.923C237.179 118.881 237.184 118.838 237.199 118.798C237.213 118.758 237.235 118.721 237.265 118.689C237.294 118.657 237.33 118.632 237.37 118.614C237.41 118.596 237.454 118.586 237.498 118.584C237.542 118.586 237.585 118.598 237.624 118.617C237.663 118.636 237.698 118.664 237.725 118.697C237.752 118.73 237.771 118.769 237.782 118.81C237.792 118.851 237.793 118.893 237.785 118.935C237.74 119.042 237.672 119.138 237.585 119.218C237.542 119.259 237.513 119.312 237.502 119.37C237.492 119.428 237.501 119.487 237.527 119.54C237.57 119.55 237.609 119.571 237.641 119.6C237.672 119.63 237.695 119.668 237.705 119.709C237.716 119.75 237.715 119.793 237.702 119.834C237.689 119.874 237.664 119.91 237.631 119.938C237.589 119.966 237.535 119.982 237.49 120.014C237.445 120.065 237.421 120.13 237.421 120.197C237.421 120.264 237.445 120.329 237.49 120.38C237.578 120.485 237.673 120.584 237.772 120.679C237.807 120.741 237.859 120.793 237.922 120.83C237.96 120.836 237.999 120.836 238.038 120.83H238.354C238.392 120.838 238.432 120.838 238.47 120.83C238.531 120.807 238.585 120.77 238.628 120.723C238.8 120.585 238.995 120.476 239.205 120.4C239.275 120.363 239.354 120.343 239.434 120.34C239.616 120.34 239.729 120.532 239.849 120.663C240.043 120.844 240.278 120.98 240.534 121.061C240.701 120.652 240.724 120.202 240.601 119.779C240.425 119.484 240.204 119.215 239.945 118.983C239.82 118.866 239.727 118.722 239.676 118.563C239.624 118.403 239.615 118.234 239.65 118.071L239.824 117.983C239.951 118.037 240.064 118.114 240.158 118.212C240.251 118.309 240.323 118.424 240.368 118.549C240.418 118.745 240.456 118.945 240.48 119.146C240.546 119.448 240.704 119.725 240.933 119.942V119.241C240.927 119.209 240.928 119.175 240.937 119.143C240.945 119.11 240.961 119.08 240.983 119.054C241.011 119.036 241.043 119.023 241.077 119.017C241.11 119.01 241.145 119.011 241.178 119.018C241.378 119.042 241.574 119.086 241.764 119.15C241.823 119.166 241.878 119.196 241.922 119.237C241.966 119.3 241.99 119.373 241.993 119.448C242.026 119.731 242.03 120.078 241.781 120.245C241.598 120.356 241.324 120.325 241.195 120.496C241.066 120.667 241.128 120.782 241.016 120.894C240.904 121.005 240.858 120.962 240.817 121.025C240.775 121.089 240.842 121.268 240.817 121.388C240.792 121.507 240.726 121.539 240.755 121.615C240.784 121.69 240.817 121.686 240.854 121.718C241.029 121.866 240.991 122.116 240.937 122.351C240.883 122.586 240.854 122.71 240.809 122.889C240.844 122.523 240.741 122.157 240.518 121.858C240.312 121.873 240.105 121.839 239.916 121.758C239.821 121.719 239.717 121.707 239.615 121.723C239.513 121.739 239.419 121.783 239.342 121.85C239.299 121.921 239.273 122.001 239.268 122.083C239.263 122.166 239.279 122.248 239.313 122.323C239.385 122.474 239.426 122.636 239.434 122.801C239.434 123.004 239.28 123.199 239.392 123.391L239.641 123.494C239.774 123.55 239.936 123.697 239.837 123.801C239.737 123.904 239.517 123.857 239.533 123.976C239.542 124.007 239.559 124.034 239.583 124.056C239.77 124.247 239.999 124.498 239.891 124.744C239.964 124.736 240.039 124.741 240.111 124.761C240.182 124.781 240.249 124.815 240.306 124.86C240.631 125.072 240.902 125.351 241.099 125.676C241.162 125.776 241.216 125.879 241.278 125.979C241.419 125.979 241.457 125.796 241.444 125.66L241.369 125.043C241.355 124.886 241.326 124.73 241.282 124.577C241.216 124.362 241.095 124.179 241.02 123.956C240.973 123.854 240.948 123.743 240.948 123.632C240.948 123.52 240.973 123.409 241.02 123.307C241.157 123.39 241.274 123.5 241.362 123.63C241.45 123.76 241.508 123.906 241.531 124.06C241.531 124.171 241.531 124.283 241.569 124.39C241.623 124.733 241.86 125.031 241.901 125.374C241.9 125.492 241.924 125.61 241.972 125.72C242.013 125.78 242.067 125.831 242.13 125.871L242.823 126.389C242.881 126.433 242.919 126.524 242.985 126.497C242.898 126.202 242.807 125.911 242.719 125.617L243.284 126.078C243.269 126.01 243.268 125.94 243.283 125.871C243.297 125.803 243.326 125.738 243.367 125.68C243.413 125.619 243.479 125.574 243.555 125.555C243.631 125.535 243.711 125.541 243.783 125.573C243.815 125.589 243.844 125.613 243.865 125.641C243.887 125.67 243.902 125.702 243.91 125.737C243.917 125.772 243.916 125.807 243.907 125.842C243.898 125.876 243.881 125.908 243.858 125.935C244.002 125.813 244.184 125.739 244.375 125.721C244.567 125.704 244.759 125.746 244.925 125.84C245 125.898 245.088 125.941 245.183 125.963C245.361 125.987 245.544 125.82 245.706 125.899C245.868 125.979 245.901 126.27 246.084 126.254C246.196 126.254 246.279 126.11 246.383 126.142L246.421 126.397C246.711 126.369 247.073 126.278 247.118 125.999C247.12 125.948 247.129 125.897 247.143 125.847C247.176 125.783 247.226 125.728 247.289 125.688C247.526 125.524 247.698 125.286 247.775 125.015C247.809 124.879 247.795 124.736 247.734 124.609C247.673 124.481 247.569 124.378 247.438 124.314C247.368 124.255 247.438 124.143 247.509 124.087C247.58 124.032 247.671 123.948 247.629 123.868C247.588 123.789 247.542 123.797 247.509 123.753C247.413 123.641 247.555 123.446 247.459 123.331C247.418 123.275 247.343 123.263 247.285 123.227C247.245 123.197 247.213 123.16 247.189 123.118C247.165 123.075 247.151 123.029 247.146 122.981C247.141 122.933 247.147 122.884 247.162 122.839C247.177 122.793 247.202 122.75 247.235 122.714C247.374 122.57 247.552 122.466 247.75 122.415L248.306 122.216C248.452 122.164 248.622 122.081 248.626 121.929C248.63 121.778 248.547 121.69 248.626 121.627C248.705 121.563 248.751 121.627 248.813 121.595C248.959 121.559 248.984 121.368 248.971 121.22C248.959 121.073 248.971 121.009 248.95 120.902C248.94 120.856 248.94 120.808 248.95 120.763C248.984 120.679 249.075 120.631 249.15 120.575C249.224 120.52 249.287 120.416 249.233 120.34L248.477 120.372C248.366 120.387 248.254 120.371 248.153 120.325C248.129 120.312 248.107 120.294 248.09 120.273C248.073 120.253 248.06 120.229 248.053 120.203C248.046 120.177 248.044 120.151 248.047 120.124C248.051 120.098 248.06 120.073 248.074 120.05L247.891 119.99V119.592C247.887 119.554 247.895 119.515 247.912 119.48C247.935 119.444 247.968 119.413 248.007 119.393L248.36 119.166C248.351 119.229 248.363 119.293 248.393 119.349C248.424 119.405 248.472 119.451 248.531 119.48C248.643 119.48 248.66 119.325 248.61 119.229C248.56 119.134 248.473 119.038 248.518 118.939C248.518 118.907 248.564 118.879 248.585 118.843C248.676 118.676 248.406 118.485 248.46 118.302L247.845 118.146C247.797 118.072 247.743 118.002 247.683 117.935C247.09 118.062 246.484 118.126 245.876 118.126H245.731C245.718 118.281 245.728 118.437 245.76 118.588L246.055 118.353C246.031 118.65 246.063 118.948 246.151 119.233C246.166 119.269 246.174 119.307 246.174 119.345C246.174 119.383 246.166 119.421 246.151 119.456C246.109 119.516 246.022 119.536 245.972 119.592C245.818 119.755 246.113 120.022 246.009 120.217C245.781 120.217 245.594 119.914 245.39 120.014C245.345 120.038 245.307 120.086 245.257 120.098C245.208 120.109 245.05 119.994 245.058 119.879C245.066 119.763 245.137 119.664 245.149 119.548C245.14 119.38 245.102 119.215 245.037 119.058C245.025 118.9 245 118.743 244.963 118.588C244.904 118.437 244.717 118.314 244.576 118.393C244.573 118.249 244.522 118.11 244.431 117.995C243.136 117.777 241.915 117.264 240.871 116.498L240.821 116.534C240.707 116.694 240.661 116.891 240.692 117.083C240.692 117.274 240.634 117.509 240.443 117.561C240.277 117.438 240.306 117.163 240.136 117.039C240.057 116.984 239.949 116.976 239.866 116.92C239.81 116.869 239.767 116.806 239.738 116.738C239.71 116.669 239.696 116.596 239.7 116.522C239.671 116.4 239.671 116.275 239.7 116.153C239.729 116.032 239.785 115.919 239.866 115.821C239.899 115.793 239.935 115.769 239.974 115.749C238.491 114.3 245.876 115.124 245.876 112.926C245.876 111.405 245.511 110.648 245.212 110.314C245.905 110.501 246.624 110.581 247.343 110.553C250.134 110.553 251.123 103.421 252.627 105.46C252.703 105.385 252.798 105.33 252.902 105.299C253.007 105.268 253.117 105.261 253.225 105.281C253.894 105.424 253.943 106.396 254.525 106.742H255.302C255.37 106.854 255.471 106.944 255.592 107.002C255.713 107.06 255.849 107.083 255.983 107.069C256.169 107.053 256.345 106.98 256.484 106.861C256.623 106.742 256.719 106.583 256.756 106.408C256.787 106.228 256.744 106.044 256.635 105.895C256.526 105.746 256.361 105.644 256.174 105.611C256.058 105.609 255.943 105.598 255.829 105.579C255.721 105.543 255.622 105.432 255.663 105.328C255.854 105.074 256.278 105.169 256.527 105.364C256.776 105.559 256.984 105.838 257.291 105.93C257.462 105.496 258.16 105.384 258.234 104.926C258.23 104.81 258.242 104.693 258.272 104.58C258.371 104.341 258.766 104.309 258.828 104.062C258.839 103.955 258.829 103.847 258.799 103.744C258.777 103.623 258.796 103.499 258.854 103.39C258.912 103.281 259.005 103.193 259.119 103.138Z" fill="#CDC9C9"/>
<path d="M253.727 106.774C253.624 106.701 253.509 106.646 253.386 106.611C253.624 107.09 253.812 107.59 253.947 108.104C254.018 108.059 254.083 108.007 254.142 107.949C254.165 107.736 254.139 107.521 254.067 107.318C253.996 107.116 253.88 106.93 253.727 106.774Z" fill="#CDC9C9"/>
<path d="M239.351 107.754C239.367 107.757 239.385 107.757 239.401 107.754C239.416 107.756 239.431 107.756 239.447 107.754C239.477 107.751 239.508 107.755 239.536 107.766C239.564 107.777 239.589 107.795 239.609 107.817C239.658 107.853 239.721 107.885 239.775 107.853C239.829 107.821 239.816 107.754 239.796 107.702C239.767 107.654 239.748 107.601 239.742 107.547C239.739 107.521 239.739 107.496 239.742 107.471C239.747 107.425 239.739 107.379 239.717 107.338C239.696 107.297 239.662 107.263 239.621 107.24C239.582 107.214 239.536 107.2 239.488 107.2C239.441 107.2 239.394 107.214 239.355 107.24C239.394 107.28 239.421 107.33 239.434 107.383C239.439 107.411 239.433 107.439 239.416 107.462C239.4 107.485 239.375 107.501 239.347 107.507C239.305 107.507 239.268 107.479 239.231 107.471C239.201 107.464 239.169 107.467 239.142 107.48C239.115 107.493 239.093 107.516 239.081 107.543C239.15 107.635 239.243 107.708 239.351 107.754Z" fill="#CDC9C9"/>
<path d="M251.784 96.652L252.42 96.7237C252.528 96.7237 252.673 96.8153 252.615 96.9029C252.466 96.875 252.341 97.0542 252.378 97.1976C252.404 97.2669 252.445 97.33 252.499 97.3824C252.553 97.4347 252.618 97.4749 252.69 97.5002C253.6 97.8984 254.701 97.2254 255.652 97.5241C256.159 97.6834 256.541 98.1015 257.043 98.2767C257.251 98.3483 257.521 98.428 257.529 98.639C257.529 98.6948 257.529 98.7465 257.529 98.8023C257.542 98.8845 257.582 98.9605 257.645 99.0182C257.707 99.0759 257.788 99.112 257.874 99.1208C258.046 99.132 258.219 99.1254 258.389 99.1009C258.749 99.0811 259.104 99.192 259.382 99.4115C259.461 99.4792 259.328 99.5708 259.257 99.6425C259.095 99.7978 259.278 100.088 259.502 100.124C259.732 100.132 259.96 100.081 260.163 99.977C260.561 99.8236 261.003 99.8123 261.409 99.9451C261.61 100.016 261.789 100.135 261.928 100.291C262.067 100.448 262.161 100.636 262.203 100.837C262.212 100.867 262.214 100.899 262.209 100.931C262.203 100.962 262.189 100.991 262.169 101.016C262.127 101.052 262.072 101.071 262.016 101.068C261.754 101.076 261.497 101.009 261.275 100.876C261.053 100.744 260.877 100.551 260.769 100.323C260.751 100.265 260.715 100.214 260.666 100.176C260.638 100.161 260.606 100.153 260.574 100.152C260.258 100.152 260.101 100.57 260.254 100.837C260.441 101.084 260.714 101.259 261.023 101.331C261.784 101.659 262.629 101.764 263.453 101.633C264.282 101.592 265.107 101.481 265.916 101.303L265.542 100.809C265.362 100.527 265.121 100.284 264.836 100.096C264.263 99.7779 263.474 99.9252 262.963 99.519C262.832 99.3826 262.684 99.2622 262.522 99.1607C262.391 99.1069 262.25 99.0798 262.107 99.081C261.434 99.0452 260.76 99.0531 260.088 99.1049C259.861 99.1456 259.627 99.1249 259.411 99.0452C259.058 98.874 258.967 98.4399 258.726 98.1373C258.513 97.9017 258.249 97.7129 257.953 97.5838L257.467 97.3329C257.367 97.2736 257.26 97.2268 257.147 97.1936C256.915 97.1299 256.665 97.1936 256.433 97.1299C256.214 97.0811 256.007 96.9933 255.822 96.871L254.696 96.2339C254.582 96.1563 254.452 96.1033 254.314 96.0786C254.015 96.0547 253.729 96.2897 253.442 96.2061C253.343 96.168 253.25 96.1185 253.164 96.0587C252.914 95.9154 252.621 95.856 252.333 95.8899C252.044 95.9238 251.775 96.0491 251.568 96.2459C251.539 96.2694 251.514 96.2984 251.496 96.3313C251.478 96.3641 251.468 96.4001 251.465 96.437C251.456 96.5804 251.639 96.6321 251.784 96.652Z" fill="#CDC9C9"/>
<path d="M272.672 124.573C272.609 124.392 272.514 124.222 272.39 124.072C272.262 123.953 272.123 123.846 271.974 123.753C271.493 123.421 271.141 122.944 270.973 122.399C271.063 122.339 271.138 122.26 271.194 122.17C271.25 122.079 271.285 121.978 271.297 121.874C271.413 121.294 271.405 120.698 271.272 120.122C271.102 119.472 270.707 118.979 269.927 119.186C269.839 119.212 269.748 119.227 269.657 119.23C269.299 119.206 269.017 118.7 268.705 118.871C268.435 118.748 268.684 118.31 268.518 118.075C268.444 117.963 268.286 117.896 268.29 117.764C268.294 117.633 268.352 117.633 268.381 117.565C268.39 117.52 268.388 117.474 268.378 117.429C268.367 117.385 268.347 117.343 268.319 117.306C268.291 117.268 268.256 117.237 268.215 117.213C268.175 117.189 268.129 117.174 268.082 117.167C267.982 117.161 267.882 117.174 267.787 117.206C267.692 117.237 267.605 117.286 267.53 117.35C267.38 117.479 267.217 117.594 267.044 117.693C267.222 117.873 267.352 118.091 267.425 118.329C267.497 118.567 267.509 118.819 267.459 119.062C267.117 119.122 266.764 119.06 266.466 118.887C266.409 118.834 266.341 118.793 266.267 118.768C266.199 118.756 266.13 118.764 266.068 118.792C265.691 118.951 265.363 119.2 265.116 119.516L265.054 119.588C264.892 119.241 264.624 118.95 264.285 118.752C264.024 118.784 263.907 119.094 263.949 119.345C263.991 119.596 264.128 119.819 264.153 120.07C264.045 120.356 263.517 120.118 263.322 120.341C263.277 120.406 263.253 120.482 263.253 120.56C263.253 120.637 263.277 120.714 263.322 120.779C263.405 120.91 263.529 121.017 263.608 121.153C263.405 121.463 263.193 121.778 263.002 122.093C262.96 121.961 262.898 121.806 262.761 121.778C262.624 121.75 262.445 121.965 262.408 122.148C262.371 122.332 262.308 122.547 262.117 122.59C262.196 122.825 262.595 122.69 262.79 122.841C262.985 122.993 262.902 123.18 262.915 123.367C262.927 123.554 263.118 123.765 263.272 123.658C263.333 123.597 263.368 123.515 263.367 123.431C263.467 122.808 263.733 122.221 264.14 121.726C264.275 121.603 264.363 121.441 264.389 121.264C264.389 121.113 264.29 120.962 264.348 120.818C264.406 120.675 264.709 120.643 264.917 120.564C264.872 120.646 264.816 120.722 264.751 120.79C264.639 120.902 264.493 120.994 264.443 121.141C264.393 121.288 264.472 121.539 264.377 121.682C264.32 121.757 264.251 121.823 264.173 121.878C263.987 122.087 263.881 122.351 263.874 122.626C263.737 123.183 263.757 123.764 263.932 124.311C264.087 124.576 264.215 124.854 264.315 125.143C264.153 125.262 263.92 125.143 263.77 124.995C263.621 124.848 263.442 124.689 263.243 124.745C263.043 124.8 262.956 124.956 262.807 124.892C262.857 124.689 262.836 124.476 262.747 124.286C262.657 124.095 262.504 123.939 262.312 123.841C262.264 123.821 262.224 123.788 262.197 123.745C262.17 123.702 262.158 123.652 262.163 123.602C261.939 123.602 261.839 123.865 261.793 124.076C261.747 124.287 261.619 124.553 261.399 124.518C261.324 124.518 261.257 124.458 261.183 124.462C261.012 124.462 260.962 124.701 260.817 124.78C260.672 124.86 260.539 124.78 260.402 124.852C260.264 124.924 260.26 125.003 260.181 125.063C259.978 125.218 259.687 125.063 259.479 124.928C259.272 124.792 258.968 124.649 258.777 124.816C258.586 124.983 258.657 125.214 258.536 125.358C258.416 125.501 258.03 125.605 257.992 125.848C257.91 125.783 257.805 125.752 257.699 125.759C257.594 125.766 257.495 125.812 257.423 125.887C257.429 126.172 257.521 126.449 257.689 126.684C257.533 126.845 257.341 126.97 257.128 127.05C257.218 127.276 257.332 127.492 257.469 127.695C257.261 127.823 257.324 128.169 257.124 128.308C257.008 128.392 256.85 128.368 256.709 128.4C256.567 128.432 256.43 128.587 256.522 128.695C256.507 128.742 256.481 128.785 256.446 128.82C256.41 128.855 256.366 128.882 256.317 128.897C256.269 128.912 256.217 128.916 256.166 128.908C256.116 128.9 256.068 128.88 256.027 128.85C255.903 128.703 255.861 128.492 255.712 128.364C255.492 128.177 255.147 128.253 254.881 128.141C254.802 128.098 254.718 128.062 254.632 128.034C254.353 127.966 254.096 128.253 254.067 128.531C254.074 128.812 254.119 129.09 254.2 129.36C254.239 129.494 254.238 129.637 254.196 129.771C254.154 129.905 254.073 130.025 253.963 130.116C253.838 130.188 253.681 130.208 253.585 130.315C253.394 130.53 253.639 130.841 253.689 131.112C253.709 131.304 253.681 131.498 253.606 131.677C253.502 131.988 253.311 132.362 252.974 132.338C252.713 132.338 252.559 132.055 252.463 131.813C252.411 131.558 252.263 131.33 252.048 131.171C251.633 130.944 251.097 131.398 250.64 131.251L250.752 131.546C250.54 131.594 250.49 131.864 250.532 132.067C250.609 132.263 250.628 132.475 250.586 132.681C250.49 132.912 250.2 132.995 249.95 133.051C250.03 133.319 250.045 133.601 249.992 133.875C250.087 133.971 249.876 134.214 249.738 134.238C249.599 134.241 249.459 134.226 249.323 134.194C249.179 134.187 249.038 134.228 248.923 134.311C248.808 134.394 248.728 134.513 248.696 134.648L249.527 134.879C249.623 134.915 249.728 134.926 249.83 134.911C249.933 134.879 250.026 134.823 250.1 134.747C250.752 134.214 251.761 133.971 252.459 134.453C252.596 134.552 252.742 134.68 252.912 134.664C253.024 134.644 253.126 134.593 253.207 134.516C253.494 134.293 253.813 134.011 253.797 133.652C253.782 133.557 253.782 133.461 253.797 133.366C253.851 133.162 254.113 133.091 254.275 132.967C254.657 132.629 254.387 132.02 254.1 131.602L255.176 130.956C255.265 130.894 255.369 130.855 255.479 130.845C255.592 130.859 255.701 130.896 255.799 130.952C256.422 131.215 257.108 130.773 257.585 130.311C257.779 130.542 258.046 130.707 258.346 130.778C258.646 130.85 258.962 130.826 259.247 130.71C259.348 130.798 259.41 130.921 259.42 131.052C259.43 131.183 259.388 131.313 259.301 131.414C259.119 131.611 258.887 131.757 258.628 131.84C258.807 132.042 258.931 132.282 258.989 132.541C259.014 132.67 258.99 132.803 258.921 132.916C258.853 133.029 258.744 133.115 258.615 133.158L258.769 133.429C258.985 133.384 259.209 133.398 259.417 133.469C259.519 133.509 259.605 133.58 259.662 133.672C259.718 133.763 259.741 133.869 259.729 133.975C259.367 134.166 258.923 134.023 258.524 133.919C258.125 133.815 257.618 133.804 257.394 134.134C257.243 134.478 256.985 134.769 256.655 134.966C256.724 134.849 256.752 134.712 256.734 134.578C256.716 134.444 256.654 134.319 256.555 134.222C256.264 134.062 255.932 134.345 255.724 134.62C255.517 134.895 255.259 135.197 254.939 135.102C254.827 135.07 254.723 134.99 254.607 134.994C254.546 135.005 254.489 135.028 254.438 135.062C254.387 135.095 254.344 135.139 254.312 135.189C254.205 135.286 254.119 135.403 254.06 135.532C254.001 135.661 253.969 135.801 253.967 135.942C254.005 136.225 254.424 136.428 254.594 136.197C254.515 135.922 254.474 135.548 254.74 135.4C255.006 135.253 255.355 135.607 255.284 135.91C255.231 136.055 255.14 136.183 255.019 136.283C254.898 136.383 254.751 136.451 254.594 136.479C254.282 136.533 253.975 136.612 253.676 136.714C253.556 136.766 253.444 136.937 253.56 137.001C253.675 137.064 253.81 137.081 253.938 137.049C253.983 137.169 253.988 137.299 253.952 137.422C253.917 137.545 253.842 137.654 253.739 137.734C253.632 137.806 253.504 137.845 253.373 137.845C253.242 137.845 253.114 137.806 253.008 137.734C252.555 137.415 252.725 136.694 252.393 136.26C252.324 136.171 252.236 136.097 252.134 136.045C252.032 135.992 251.919 135.963 251.803 135.958C251.562 135.978 251.332 136.063 251.14 136.205C250.948 136.346 250.802 136.536 250.719 136.754C250.678 136.849 250.617 136.934 250.54 137.005C250.353 137.148 250.087 137.065 249.859 137.005C249.63 136.945 249.311 136.977 249.252 137.2C249.743 137.768 250.374 138.211 251.088 138.486C251.16 138.505 251.223 138.548 251.267 138.606C251.288 138.684 251.288 138.766 251.267 138.845C251.275 138.955 251.308 139.063 251.362 139.161C251.416 139.259 251.492 139.346 251.583 139.414C251.725 139.584 251.916 139.711 252.131 139.78C252.185 139.792 252.241 139.793 252.296 139.784C252.35 139.774 252.402 139.755 252.449 139.726C252.495 139.697 252.535 139.659 252.566 139.615C252.597 139.571 252.619 139.522 252.63 139.47C252.63 139.072 251.849 139.004 251.861 138.602C252.008 138.534 252.169 138.502 252.332 138.507C252.495 138.512 252.654 138.554 252.796 138.63C252.886 138.78 253.008 138.91 253.154 139.012C253.3 139.114 253.467 139.185 253.644 139.221C253.821 139.256 254.004 139.256 254.18 139.219C254.357 139.183 254.524 139.111 254.669 139.008C254.914 138.813 255.085 138.522 255.404 138.435C255.89 138.299 256.314 138.753 256.775 138.956C257.361 139.215 258.046 139.068 258.674 138.912L260.26 138.514L259.367 138.407C259.856 138.271 260.318 138.059 260.734 137.778C260.721 137.659 260.667 137.547 260.58 137.461C260.494 137.376 260.38 137.32 260.256 137.304C260.929 137.172 261.116 136.284 261.706 135.942C261.906 135.857 262.1 135.758 262.283 135.643C262.392 135.532 262.474 135.4 262.524 135.255C262.574 135.111 262.591 134.958 262.574 134.807C262.562 134.453 262.474 134.105 262.317 133.784C262.159 133.463 261.934 133.177 261.656 132.943C262.087 133.122 262.56 133.191 263.027 133.143C263.027 133.413 263.226 133.804 263.463 133.648C263.525 133.597 263.57 133.529 263.592 133.453L264.007 132.426C264.089 132.166 264.231 131.928 264.423 131.729C264.763 131.422 265.324 131.382 265.598 131.016C265.557 131.179 265.773 131.307 265.935 131.259C266.014 131.226 266.085 131.177 266.144 131.117C266.203 131.057 266.249 130.986 266.279 130.909C266.479 130.546 266.554 129.981 266.159 129.834C265.764 129.686 265.241 130.009 265.1 129.666C265.069 129.574 265.069 129.475 265.1 129.384C265.226 128.9 265.464 128.45 265.796 128.067C266.129 127.684 266.546 127.377 267.019 127.17C267.334 127.034 267.733 126.867 267.733 126.532C267.789 126.542 267.843 126.562 267.89 126.592C267.937 126.622 267.978 126.661 268.009 126.706C268.04 126.752 268.061 126.803 268.071 126.857C268.081 126.91 268.079 126.965 268.066 127.018C268.312 127.046 268.561 126.982 268.759 126.839C268.593 126.724 268.643 126.441 268.784 126.317C268.943 126.191 269.108 126.073 269.279 125.963C269.694 125.593 269.765 124.792 270.338 124.705C270.753 124.868 270.716 125.481 270.533 125.899C270.35 126.317 270.118 126.839 270.454 127.166C270.52 127.021 270.618 126.892 270.741 126.788C270.865 126.685 271.011 126.608 271.169 126.564C271.023 126.744 270.934 126.96 270.912 127.186C270.89 127.412 270.936 127.64 271.044 127.843C271.26 127.337 271.662 126.925 272.174 126.684C272.149 126.552 272.124 126.421 272.095 126.286C272.473 126.373 272.838 126.023 272.901 125.648C272.927 125.277 272.848 124.906 272.672 124.573Z" fill="#CDC9C9"/>
<path d="M238.313 132.513C238.126 132.382 237.898 132.267 237.848 132.048C237.819 131.944 237.827 131.817 237.748 131.745C237.669 131.673 237.503 131.677 237.358 131.681C236.967 131.691 236.58 131.601 236.236 131.422C236.142 131.36 236.038 131.312 235.929 131.279C235.808 131.255 235.684 131.255 235.563 131.279C235.222 131.355 234.903 131.507 234.633 131.721C234.363 131.935 234.148 132.206 234.006 132.513C233.963 132.701 233.872 132.875 233.74 133.019C233.66 133.071 233.588 133.134 233.528 133.206C233.511 133.236 233.502 133.27 233.502 133.304C233.502 133.338 233.511 133.371 233.528 133.401C233.575 133.552 233.659 133.69 233.772 133.803C233.885 133.917 234.025 134.003 234.18 134.054C234.296 134.098 234.434 134.134 234.463 134.242C234.473 134.338 234.473 134.436 234.463 134.532C234.463 134.775 234.791 134.823 234.974 134.962C235.156 135.102 235.214 135.492 235.426 135.691C235.63 135.835 235.872 135.922 236.124 135.942L236.826 136.065C237.112 136.143 237.412 136.158 237.704 136.108C237.996 136.059 238.273 135.946 238.513 135.779C238.649 135.671 238.761 135.539 238.843 135.389C238.925 135.239 238.975 135.075 238.99 134.907C238.99 134.643 238.926 134.382 238.803 134.146C238.892 134.121 238.973 134.075 239.04 134.014C239.106 133.952 239.156 133.876 239.186 133.792C239.22 133.657 239.199 133.514 239.127 133.393C238.94 133.038 238.66 132.734 238.313 132.513Z" fill="#CDC9C9"/>
<path d="M261.913 138.315C262.08 138.361 262.256 138.362 262.423 138.319C262.59 138.275 262.741 138.188 262.86 138.068C262.906 138.029 262.937 137.975 262.948 137.917C262.951 137.888 262.944 137.859 262.926 137.835C262.908 137.812 262.882 137.795 262.852 137.79C262.561 138.005 262.067 137.885 261.855 138.188C261.843 138.199 261.835 138.213 261.831 138.228C261.826 138.244 261.826 138.26 261.83 138.275C261.84 138.287 261.853 138.297 261.867 138.304C261.882 138.311 261.897 138.315 261.913 138.315Z" fill="#CDC9C9"/>
<path d="M260.284 138.849C260.229 138.856 260.177 138.874 260.13 138.901C259.93 138.98 259.714 138.972 259.498 139.044C259.37 139.098 259.249 139.167 259.137 139.247L258.493 139.693L259.901 139.406C260.023 139.383 260.143 139.35 260.259 139.307C260.446 139.223 260.595 139.076 260.778 138.98L260.421 138.873C260.377 138.855 260.33 138.847 260.284 138.849Z" fill="#CDC9C9"/>
<path d="M265.356 101.9C265.333 101.842 265.293 101.792 265.242 101.755C265.19 101.717 265.129 101.695 265.065 101.689C264.935 101.68 264.804 101.699 264.683 101.745C264.313 101.856 263.96 102.012 263.632 102.211C263.546 102.258 263.469 102.318 263.403 102.39C263.264 102.603 263.214 102.859 263.262 103.107L264.051 103.083C264.123 103.077 264.195 103.077 264.267 103.083C264.411 103.117 264.55 103.166 264.683 103.23C264.855 103.297 265.041 103.327 265.227 103.318C265.262 103.269 265.282 103.212 265.282 103.152C265.282 103.093 265.262 103.035 265.227 102.987C265.159 102.891 265.111 102.783 265.086 102.669C265.057 102.394 265.443 102.171 265.356 101.9Z" fill="#CDC9C9"/>
<path d="M264.343 105.87C264.529 105.887 264.713 105.913 264.896 105.95C265.079 105.985 265.269 105.959 265.436 105.878C265.517 105.834 265.58 105.766 265.615 105.683C265.651 105.601 265.656 105.51 265.631 105.424C265.557 105.3 265.442 105.205 265.303 105.153L264.967 104.99C264.888 104.959 264.822 104.907 264.775 104.839C264.713 104.715 264.805 104.572 264.9 104.464C264.996 104.357 265.099 104.229 265.062 104.098C265.035 104.025 264.984 103.962 264.917 103.919C264.732 103.77 264.524 103.648 264.302 103.557C264.217 103.517 264.126 103.493 264.032 103.485C263.906 103.49 263.782 103.517 263.666 103.565L263.11 103.772C263.05 103.786 262.994 103.812 262.945 103.848C262.896 103.883 262.854 103.928 262.823 103.979C262.782 104.086 262.898 104.241 263.006 104.182C263.097 104.405 262.84 104.612 262.777 104.843C262.769 105.044 262.81 105.245 262.897 105.429C262.983 105.612 263.113 105.774 263.276 105.902C263.345 105.927 263.418 105.941 263.492 105.942C263.778 105.954 264.061 105.862 264.343 105.87Z" fill="#CDC9C9"/>
<path d="M268.179 102.561C268.235 102.609 268.302 102.644 268.375 102.66C268.412 102.666 268.451 102.659 268.484 102.64C268.516 102.621 268.541 102.592 268.553 102.557C268.554 102.503 268.535 102.451 268.499 102.41L268.283 102.075C268.222 101.975 268.145 101.885 268.055 101.808C268.008 101.772 267.953 101.748 267.893 101.74C267.834 101.732 267.774 101.739 267.718 101.761C267.694 101.839 267.69 101.922 267.706 102.002C267.722 102.082 267.757 102.158 267.81 102.222C267.913 102.354 268.038 102.468 268.179 102.561Z" fill="#CDC9C9"/>
<path d="M269.666 104.429C269.781 104.486 269.89 104.556 269.99 104.636C270.043 104.704 270.087 104.777 270.123 104.855C270.242 105.075 270.418 105.263 270.633 105.4C270.651 105.25 270.64 105.097 270.6 104.95C270.589 104.896 270.565 104.844 270.53 104.799C270.477 104.75 270.415 104.711 270.347 104.684C270.2 104.607 270.077 104.492 269.994 104.353C269.963 104.29 269.927 104.23 269.886 104.174C269.765 104.015 269.558 103.947 269.421 103.8C269.358 103.736 269.313 103.656 269.246 103.601C269.215 103.569 269.175 103.548 269.132 103.539C269.088 103.53 269.043 103.533 269.001 103.549C269.097 103.7 269.192 103.855 269.292 104.007C269.385 104.17 269.512 104.314 269.666 104.429Z" fill="#CDC9C9"/>
<path d="M268.268 130.63C268.24 130.608 268.207 130.593 268.172 130.584C268.137 130.576 268.1 130.575 268.065 130.582C267.998 130.606 267.957 130.698 268.006 130.746C267.897 130.782 267.782 130.802 267.666 130.805C267.55 130.805 267.425 130.889 267.417 131.004C267.421 131.042 267.421 131.079 267.417 131.116C267.392 131.188 267.288 131.216 267.275 131.291C267.275 131.321 267.287 131.35 267.309 131.371C267.331 131.393 267.36 131.406 267.392 131.407C267.454 131.405 267.513 131.384 267.562 131.347C267.66 131.266 267.775 131.205 267.898 131.168C268.027 131.168 268.185 131.235 268.173 131.359C268.253 131.347 268.329 131.313 268.389 131.261C268.45 131.208 268.493 131.14 268.513 131.064C268.511 130.979 268.487 130.895 268.444 130.819C268.402 130.744 268.341 130.679 268.268 130.63Z" fill="#CDC9C9"/>
<path d="M265.725 112.277C265.713 112.479 265.741 112.682 265.809 112.874C265.858 113.046 265.904 113.217 265.954 113.388C266.004 113.559 266.062 113.73 266.224 113.786C266.317 113.803 266.412 113.813 266.506 113.818C266.706 113.862 266.843 114.069 267.046 114.085C267.25 114.101 267.462 113.854 267.462 113.627C267.462 113.4 267.416 113.169 267.462 112.942C267.478 112.806 267.54 112.679 267.638 112.579C267.736 112.479 267.865 112.412 268.006 112.389C268.107 112.392 268.208 112.378 268.305 112.349C268.36 112.307 268.405 112.256 268.438 112.197C268.471 112.138 268.491 112.073 268.496 112.006C268.56 111.794 268.56 111.569 268.496 111.357C268.421 111.162 268.239 111.011 268.193 110.812C268.108 110.793 268.018 110.805 267.942 110.846C267.865 110.886 267.807 110.952 267.777 111.031C267.721 111.197 267.713 111.374 267.753 111.544C267.753 111.441 267.337 111.732 267.337 111.751C267.226 111.847 267.092 111.914 266.947 111.948C266.802 111.981 266.651 111.979 266.506 111.943C266.137 111.855 265.796 111.767 265.725 112.277Z" fill="#CDC9C9"/>
<path d="M263.369 119.178C263.467 119.088 263.53 118.968 263.548 118.839C263.616 118.576 263.601 118.299 263.506 118.043C263.412 117.827 263.244 117.648 263.03 117.534C262.816 117.421 262.568 117.38 262.327 117.418C262.198 117.442 262.053 117.49 261.94 117.418C261.828 117.346 261.812 117.235 261.72 117.159C261.629 117.083 261.326 117.111 261.168 117.231C261.032 117.377 260.865 117.492 260.678 117.569C260.637 117.492 260.571 117.43 260.49 117.392C260.409 117.354 260.318 117.342 260.229 117.358C260.138 117.381 260.059 117.434 260.003 117.506C259.947 117.578 259.918 117.666 259.922 117.756C259.922 117.983 260.138 118.154 260.237 118.358C260.292 118.486 260.315 118.624 260.305 118.762C260.295 118.9 260.252 119.034 260.179 119.154C260.028 119.396 259.82 119.6 259.573 119.751C259.503 119.79 259.442 119.841 259.394 119.903C259.34 120.03 259.34 120.173 259.394 120.301C259.485 120.635 259.593 120.966 259.714 121.288C259.901 121.181 260.129 121.376 260.221 121.567C260.312 121.758 260.416 121.993 260.636 122.029C260.856 122.065 261.114 121.866 261.292 122.001C261.351 122.041 261.384 122.113 261.45 122.14C261.479 122.152 261.51 122.158 261.542 122.158C261.573 122.158 261.604 122.152 261.633 122.14C261.748 122.085 261.85 122.006 261.929 121.909C262.009 121.811 262.066 121.698 262.095 121.578C262.124 121.457 262.124 121.332 262.097 121.211C262.07 121.09 262.015 120.976 261.936 120.878C262.086 120.6 262.319 120.371 262.605 120.221C262.683 120.189 262.753 120.14 262.809 120.078C262.95 119.895 262.771 119.604 262.912 119.417C263.054 119.23 263.22 119.285 263.369 119.178Z" fill="#CDC9C9"/>
<path d="M264.229 110.617C264.029 109.37 263.003 107.873 261.383 107.614C260.805 107.466 260.191 107.507 259.639 107.73C259.087 107.952 258.628 108.345 258.334 108.845C258.057 109.356 257.936 109.932 257.984 110.507C258.032 111.081 258.247 111.631 258.604 112.094C258.972 112.547 259.446 112.91 259.989 113.152C260.531 113.394 261.126 113.509 261.724 113.488C262.103 113.511 262.482 113.447 262.831 113.303C263.179 113.159 263.487 112.938 263.73 112.659C263.973 112.379 264.144 112.048 264.228 111.694C264.313 111.339 264.308 110.97 264.216 110.617H264.229Z" fill="#CDC9C9"/>
</svg>
