<svg width="593" height="372" viewBox="0 0 593 372" fill="none" xmlns="http://www.w3.org/2000/svg">
<path d="M331.43 92.6621C331.194 92.642 330.956 92.6909 330.749 92.8024C330.542 92.9138 330.375 93.0827 330.27 93.2867C330.165 93.4908 330.127 93.7205 330.16 93.9459C330.194 94.1712 330.298 94.3815 330.458 94.5493C330.618 94.717 330.828 94.8344 331.059 94.886C331.29 94.9375 331.533 94.9209 331.754 94.8382C331.975 94.7555 332.165 94.6107 332.299 94.4227C332.433 94.2347 332.504 94.0123 332.504 93.7847C332.516 93.4995 332.41 93.2213 332.209 93.0109C332.007 92.8005 331.728 92.6751 331.43 92.6621Z" fill="#CDC9C9"/>
<path d="M344.177 74.7382C344.3 74.7482 344.423 74.7226 344.53 74.6646C344.637 74.6066 344.723 74.5189 344.778 74.413C344.832 74.3072 344.852 74.1881 344.835 74.0713C344.817 73.9545 344.763 73.8454 344.68 73.7584C344.597 73.6713 344.489 73.6103 344.369 73.5834C344.249 73.5564 344.123 73.5647 344.009 73.6073C343.894 73.6498 343.795 73.7245 343.725 73.8217C343.656 73.9189 343.618 74.034 343.618 74.152C343.612 74.3004 343.668 74.445 343.772 74.5546C343.877 74.6642 344.022 74.7301 344.177 74.7382Z" fill="#CDC9C9"/>
<path d="M344.177 86.9434C344.022 86.9514 343.877 87.0173 343.772 87.127C343.668 87.2366 343.612 87.3811 343.618 87.5296C343.618 87.6718 343.676 87.8083 343.781 87.9088C343.886 88.0094 344.029 88.0659 344.177 88.0659C344.325 88.0659 344.468 88.0094 344.573 87.9088C344.678 87.8083 344.737 87.6718 344.737 87.5296C344.742 87.3811 344.686 87.2366 344.582 87.127C344.477 87.0173 344.332 86.9514 344.177 86.9434Z" fill="#CDC9C9"/>
<path d="M325.659 53.1042C325.708 53.1026 325.757 53.0916 325.802 53.0718C325.846 53.0521 325.887 53.024 325.92 52.9891C325.953 52.9543 325.979 52.9134 325.996 52.869C326.012 52.8245 326.02 52.7773 326.017 52.7301C326.02 52.6829 326.012 52.6357 325.996 52.5912C325.979 52.5467 325.953 52.5058 325.92 52.471C325.887 52.4362 325.846 52.4081 325.802 52.3883C325.757 52.3685 325.708 52.3575 325.659 52.356C325.61 52.3575 325.561 52.3685 325.517 52.3883C325.472 52.4081 325.432 52.4362 325.398 52.471C325.365 52.5058 325.339 52.5467 325.323 52.5912C325.306 52.6357 325.299 52.6829 325.301 52.7301C325.298 52.825 325.333 52.9174 325.4 52.9874C325.467 53.0574 325.56 53.0993 325.659 53.1042Z" fill="#CDC9C9"/>
<path d="M332.508 72.7866C332.484 72.7874 332.46 72.7929 332.437 72.8028C332.415 72.8127 332.395 72.8269 332.379 72.8443C332.362 72.8618 332.35 72.8822 332.342 72.9045C332.334 72.9267 332.331 72.9502 332.333 72.9737C332.331 73.0206 332.348 73.0664 332.381 73.1013C332.414 73.1362 332.459 73.1575 332.508 73.1607C332.558 73.1576 332.604 73.1365 332.638 73.1017C332.672 73.067 332.69 73.0212 332.69 72.9737C332.691 72.9499 332.687 72.9263 332.678 72.904C332.67 72.8817 332.657 72.8613 332.64 72.844C332.623 72.8266 332.602 72.8126 332.58 72.8027C332.557 72.7929 332.533 72.7874 332.508 72.7866Z" fill="#CDC9C9"/>
<path d="M326.197 73.5912C326.202 73.566 326.201 73.54 326.195 73.5151C326.188 73.4901 326.176 73.467 326.158 73.4471C326.141 73.4273 326.12 73.4114 326.096 73.4004C326.071 73.3895 326.045 73.3838 326.018 73.3838C325.991 73.3838 325.965 73.3895 325.941 73.4004C325.916 73.4114 325.895 73.4273 325.878 73.4471C325.861 73.467 325.848 73.4901 325.842 73.5151C325.835 73.54 325.834 73.566 325.839 73.5912C325.834 73.6165 325.835 73.6425 325.842 73.6674C325.848 73.6923 325.861 73.7155 325.878 73.7353C325.895 73.7551 325.916 73.7711 325.941 73.782C325.965 73.793 325.991 73.7987 326.018 73.7987C326.045 73.7987 326.071 73.793 326.096 73.782C326.12 73.7711 326.141 73.7551 326.158 73.7353C326.176 73.7155 326.188 73.6923 326.195 73.6674C326.201 73.6425 326.202 73.6165 326.197 73.5912Z" fill="#CDC9C9"/>
<path d="M353.675 93.0363C353.774 93.0315 353.867 92.9895 353.934 92.9195C354.001 92.8495 354.036 92.7571 354.033 92.6622C354.035 92.615 354.028 92.5678 354.011 92.5233C353.995 92.4788 353.969 92.438 353.936 92.4031C353.902 92.3683 353.862 92.3402 353.817 92.3204C353.772 92.3007 353.724 92.2897 353.675 92.2881C353.625 92.2897 353.577 92.3007 353.532 92.3204C353.487 92.3402 353.447 92.3683 353.414 92.4031C353.381 92.438 353.355 92.4788 353.338 92.5233C353.322 92.5678 353.314 92.615 353.317 92.6622C353.314 92.7094 353.322 92.7566 353.338 92.8011C353.355 92.8456 353.381 92.8864 353.414 92.9213C353.447 92.9561 353.487 92.9842 353.532 93.004C353.577 93.0237 353.625 93.0347 353.675 93.0363Z" fill="#CDC9C9"/>
<path d="M343.613 89.4812C343.606 89.415 343.58 89.352 343.537 89.2999C343.494 89.2477 343.436 89.2087 343.371 89.1874C343.305 89.1662 343.234 89.1637 343.167 89.1802C343.1 89.1968 343.039 89.2317 342.992 89.2806C342.946 89.3296 342.915 89.3906 342.903 89.4561C342.892 89.5216 342.901 89.5889 342.928 89.6498C342.956 89.7107 343.002 89.7625 343.06 89.799C343.118 89.8355 343.185 89.855 343.255 89.8553C343.354 89.8505 343.447 89.8085 343.514 89.7385C343.581 89.6685 343.616 89.5761 343.613 89.4812Z" fill="#CDC9C9"/>
<path d="M309.44 91.5829C309.686 91.603 309.932 91.5515 310.146 91.4352C310.361 91.3189 310.534 91.1432 310.642 90.9311C310.751 90.7191 310.79 90.4805 310.755 90.2467C310.72 90.0129 310.611 89.7948 310.445 89.6209C310.278 89.4471 310.06 89.3256 309.82 89.2723C309.58 89.2191 309.329 89.2367 309.099 89.3227C308.869 89.4087 308.672 89.5591 308.534 89.7544C308.395 89.9496 308.321 90.1804 308.321 90.4166C308.309 90.7134 308.42 91.0027 308.629 91.2213C308.839 91.4399 309.131 91.5699 309.44 91.5829Z" fill="#CDC9C9"/>
<path d="M313.691 54.8128C313.936 54.8329 314.182 54.7816 314.396 54.6656C314.61 54.5495 314.783 54.3742 314.892 54.1625C315.001 53.9508 315.04 53.7126 315.005 53.479C314.971 53.2454 314.863 53.0273 314.697 52.8532C314.531 52.6791 314.314 52.5571 314.074 52.5032C313.834 52.4493 313.583 52.4659 313.354 52.551C313.124 52.636 312.927 52.7855 312.787 52.9798C312.648 53.1742 312.572 53.4044 312.572 53.6404C312.565 53.7878 312.588 53.9352 312.64 54.0739C312.693 54.2127 312.773 54.3402 312.877 54.4491C312.981 54.558 313.107 54.6462 313.246 54.7086C313.386 54.771 313.537 54.8064 313.691 54.8128Z" fill="#CDC9C9"/>
<path d="M346.757 47.6033C346.93 47.6184 347.105 47.5828 347.257 47.5013C347.409 47.4198 347.532 47.2962 347.609 47.1465C347.687 46.9969 347.716 46.8283 347.692 46.6628C347.668 46.4973 347.592 46.3426 347.475 46.219C347.357 46.0954 347.204 46.0087 347.034 45.9701C346.865 45.9316 346.687 45.943 346.524 46.003C346.361 46.063 346.221 46.1686 346.122 46.3062C346.023 46.4437 345.97 46.6067 345.969 46.7738C345.961 46.9835 346.038 47.1881 346.186 47.3434C346.333 47.4986 346.538 47.592 346.757 47.6033Z" fill="#CDC9C9"/>
<path d="M326.963 47.7591C327.094 47.773 327.226 47.7485 327.342 47.689C327.458 47.6294 327.552 47.5376 327.613 47.4255C327.673 47.3135 327.697 47.1865 327.68 47.0614C327.664 46.9363 327.608 46.8189 327.521 46.7247C327.433 46.6304 327.318 46.5639 327.19 46.5337C327.063 46.5036 326.928 46.5112 326.805 46.5557C326.682 46.6002 326.576 46.6795 326.501 46.783C326.426 46.8865 326.385 47.0094 326.384 47.1355C326.379 47.213 326.39 47.2908 326.416 47.3642C326.442 47.4377 326.484 47.5054 326.538 47.5634C326.591 47.6214 326.657 47.6686 326.73 47.7022C326.803 47.7358 326.882 47.7552 326.963 47.7591Z" fill="#CDC9C9"/>
<path d="M337.216 82.8019C337.23 82.9077 337.275 83.0075 337.347 83.0894C337.418 83.1712 337.512 83.2315 337.619 83.2632C337.725 83.2949 337.838 83.2966 337.946 83.2681C338.053 83.2395 338.149 83.1819 338.223 83.1023C338.297 83.0226 338.346 82.9242 338.363 82.8188C338.38 82.7134 338.365 82.6055 338.32 82.508C338.275 82.4105 338.201 82.3275 338.108 82.2691C338.015 82.2106 337.906 82.179 337.795 82.1782C337.714 82.1822 337.635 82.2015 337.562 82.2351C337.489 82.2687 337.423 82.3159 337.37 82.3739C337.316 82.432 337.274 82.4997 337.248 82.5731C337.222 82.6466 337.211 82.7244 337.216 82.8019Z" fill="#CDC9C9"/>
<path d="M338.757 51.6947C338.675 51.6871 338.592 51.7037 338.519 51.7423C338.447 51.7809 338.388 51.8397 338.351 51.9108C338.315 51.982 338.301 52.0622 338.313 52.1409C338.324 52.2196 338.361 52.293 338.417 52.3516C338.473 52.4101 338.546 52.4509 338.627 52.4686C338.708 52.4863 338.792 52.4802 338.869 52.4509C338.947 52.4216 339.013 52.3706 339.059 52.3046C339.105 52.2386 339.129 52.1607 339.128 52.0812C339.131 52.0324 339.123 51.9836 339.106 51.9376C339.089 51.8916 339.062 51.8494 339.028 51.8134C338.993 51.7774 338.951 51.7483 338.905 51.7279C338.859 51.7076 338.808 51.6962 338.757 51.6947Z" fill="#CDC9C9"/>
<path d="M336.848 52.8605C336.942 52.8575 337.032 52.8206 337.1 52.7571C337.167 52.6936 337.207 52.6081 337.212 52.5176C337.101 52.4897 336.997 52.439 336.909 52.3691C336.82 52.2991 336.748 52.2115 336.698 52.1123C336.63 52.147 336.573 52.1992 336.534 52.263C336.495 52.3269 336.475 52.3999 336.477 52.4739C336.473 52.5721 336.51 52.6677 336.58 52.7401C336.649 52.8124 336.745 52.8557 336.848 52.8605Z" fill="#CDC9C9"/>
<path d="M330.293 75.1253C330.3 75.1954 330.327 75.2623 330.373 75.3176C330.418 75.3729 330.479 75.4144 330.549 75.4368C330.619 75.4593 330.694 75.4618 330.765 75.444C330.836 75.4262 330.9 75.3889 330.949 75.3367C330.999 75.2845 331.031 75.2196 331.042 75.1501C331.054 75.0805 331.044 75.0093 331.013 74.9451C330.983 74.881 330.934 74.8267 330.872 74.7889C330.81 74.7511 330.738 74.7315 330.664 74.7325C330.613 74.7349 330.563 74.7469 330.516 74.768C330.47 74.789 330.428 74.8186 330.394 74.8551C330.359 74.8916 330.333 74.9343 330.316 74.9806C330.298 75.027 330.291 75.0761 330.293 75.1253Z" fill="#CDC9C9"/>
<path d="M316.411 74.3455C316.329 74.3392 316.246 74.3569 316.175 74.3964C316.103 74.4358 316.045 74.4952 316.009 74.5665C315.973 74.6379 315.961 74.718 315.973 74.7964C315.986 74.8747 316.023 74.9476 316.079 75.0054C316.136 75.0633 316.209 75.1034 316.29 75.1206C316.371 75.1377 316.455 75.1311 316.532 75.1015C316.608 75.0719 316.674 75.0208 316.72 74.9549C316.766 74.889 316.79 74.8113 316.788 74.7321C316.79 74.6829 316.782 74.6339 316.764 74.5879C316.746 74.5419 316.718 74.4997 316.683 74.4638C316.648 74.4279 316.606 74.399 316.56 74.3787C316.513 74.3584 316.462 74.3471 316.411 74.3455Z" fill="#CDC9C9"/>
<path d="M326.05 49.5554C326.132 49.5617 326.214 49.5441 326.286 49.5049C326.357 49.4657 326.415 49.4068 326.451 49.3358C326.487 49.2648 326.5 49.185 326.488 49.1069C326.476 49.0287 326.44 48.9559 326.384 48.8978C326.328 48.8397 326.255 48.799 326.175 48.7812C326.095 48.7633 326.011 48.7691 325.934 48.7976C325.857 48.8262 325.791 48.8764 325.744 48.9414C325.698 49.0065 325.673 49.0836 325.672 49.1626C325.67 49.2122 325.677 49.2619 325.695 49.3086C325.713 49.3554 325.74 49.3983 325.775 49.4349C325.81 49.4714 325.853 49.5009 325.9 49.5216C325.947 49.5423 325.998 49.5538 326.05 49.5554Z" fill="#CDC9C9"/>
<path d="M316.035 75.5116C315.953 75.504 315.87 75.5205 315.797 75.5588C315.725 75.5971 315.667 75.6555 315.63 75.7263C315.592 75.7971 315.579 75.877 315.59 75.9555C315.601 76.034 315.636 76.1074 315.692 76.1661C315.747 76.2249 315.82 76.2662 315.9 76.2846C315.981 76.3031 316.065 76.2978 316.142 76.2695C316.219 76.2412 316.286 76.1911 316.333 76.126C316.38 76.0608 316.405 75.9836 316.406 75.9044C316.408 75.8552 316.401 75.8061 316.384 75.7597C316.366 75.7134 316.34 75.6707 316.305 75.6342C316.271 75.5977 316.229 75.5681 316.183 75.5471C316.136 75.526 316.086 75.5139 316.035 75.5116Z" fill="#CDC9C9"/>
<path d="M336.465 76.2912C336.548 76.2987 336.631 76.2821 336.703 76.2435C336.776 76.2049 336.834 76.1462 336.871 76.075C336.908 76.0038 336.922 75.9236 336.91 75.8449C336.898 75.7662 336.862 75.6928 336.806 75.6343C336.75 75.5758 336.676 75.535 336.596 75.5172C336.515 75.4995 336.43 75.5057 336.353 75.535C336.276 75.5642 336.21 75.6153 336.164 75.6813C336.118 75.7472 336.093 75.8251 336.094 75.9046C336.092 75.9534 336.099 76.0023 336.116 76.0483C336.134 76.0943 336.16 76.1365 336.195 76.1725C336.23 76.2085 336.271 76.2375 336.318 76.2579C336.364 76.2783 336.414 76.2896 336.465 76.2912Z" fill="#CDC9C9"/>
<path d="M342.682 81.3923C342.765 81.3986 342.847 81.3808 342.919 81.3414C342.991 81.3019 343.048 81.2426 343.084 81.1713C343.12 81.0999 343.132 81.0198 343.12 80.9414C343.107 80.8631 343.071 80.7902 343.014 80.7324C342.958 80.6745 342.884 80.6344 342.803 80.6172C342.723 80.6001 342.639 80.6067 342.562 80.6363C342.485 80.6658 342.42 80.717 342.374 80.7829C342.328 80.8488 342.304 80.9265 342.305 81.0057C342.303 81.0549 342.312 81.1039 342.33 81.1499C342.348 81.1959 342.375 81.2381 342.41 81.274C342.445 81.3099 342.487 81.3388 342.534 81.3591C342.581 81.3794 342.631 81.3907 342.682 81.3923Z" fill="#CDC9C9"/>
<path d="M306.946 88.7081C307.05 88.7033 307.148 88.6594 307.219 88.5859C307.29 88.5124 307.327 88.4152 307.324 88.3153C307.317 88.2454 307.29 88.1788 307.245 88.1236C307.2 88.0684 307.139 88.0269 307.07 88.0042C307 87.9816 306.926 87.9787 306.855 87.996C306.784 88.0133 306.72 88.05 306.67 88.1016C306.62 88.1532 306.588 88.2175 306.576 88.2866C306.563 88.3558 306.573 88.4269 306.602 88.4911C306.631 88.5554 306.679 88.6102 306.74 88.6487C306.802 88.6872 306.873 88.7079 306.946 88.7081Z" fill="#CDC9C9"/>
<path d="M341.828 101.518C341.91 101.525 341.993 101.509 342.065 101.47C342.138 101.432 342.196 101.374 342.233 101.303C342.271 101.232 342.284 101.152 342.273 101.074C342.262 100.995 342.227 100.922 342.171 100.863C342.116 100.804 342.043 100.763 341.963 100.745C341.882 100.726 341.798 100.732 341.721 100.76C341.643 100.788 341.577 100.838 341.53 100.903C341.483 100.968 341.458 101.046 341.457 101.125C341.454 101.224 341.49 101.32 341.56 101.393C341.629 101.467 341.725 101.511 341.828 101.518Z" fill="#CDC9C9"/>
<path d="M318.123 42.3332C318.207 42.4449 318.316 42.538 318.441 42.6064C318.566 42.6748 318.705 42.7169 318.848 42.7298C318.992 42.7428 319.136 42.7264 319.272 42.6817C319.409 42.6369 319.533 42.5649 319.638 42.4704C319.858 42.2674 319.993 41.9946 320.018 41.703C320.043 41.4115 319.957 41.1212 319.775 40.8863C319.69 40.7746 319.582 40.6815 319.457 40.6131C319.332 40.5447 319.193 40.5026 319.049 40.4897C318.906 40.4767 318.761 40.4931 318.625 40.5378C318.489 40.5826 318.364 40.6546 318.259 40.7491C318.039 40.9521 317.904 41.2249 317.879 41.5165C317.854 41.808 317.941 42.0983 318.123 42.3332Z" fill="#CDC9C9"/>
<path d="M331.906 59.4777C332.126 59.2747 332.261 59.0019 332.286 58.7104C332.311 58.4188 332.225 58.1285 332.043 57.8936C331.958 57.782 331.85 57.6888 331.724 57.6204C331.599 57.552 331.461 57.51 331.317 57.497C331.174 57.484 331.029 57.5004 330.893 57.5452C330.757 57.5899 330.632 57.6619 330.527 57.7564C330.306 57.9588 330.17 58.2317 330.145 58.5236C330.12 58.8155 330.207 59.1061 330.39 59.3405C330.475 59.4522 330.583 59.5453 330.709 59.6137C330.834 59.6821 330.973 59.7242 331.116 59.7372C331.259 59.7501 331.404 59.7337 331.54 59.689C331.676 59.6442 331.801 59.5722 331.906 59.4777Z" fill="#CDC9C9"/>
<path d="M310.145 58.86C310.205 58.9388 310.282 59.0046 310.37 59.0529C310.459 59.1013 310.557 59.1312 310.658 59.1406C310.76 59.15 310.862 59.1388 310.958 59.1076C311.055 59.0765 311.143 59.0261 311.218 58.9598C311.374 58.8157 311.469 58.6219 311.486 58.4151C311.503 58.2082 311.44 58.0026 311.309 57.8372C311.25 57.7581 311.174 57.6922 311.086 57.6438C310.997 57.5955 310.899 57.5659 310.798 57.557C310.697 57.5482 310.595 57.5602 310.499 57.5924C310.403 57.6246 310.316 57.6762 310.242 57.7437C310.086 57.8859 309.99 58.0782 309.972 58.284C309.954 58.4898 310.015 58.6948 310.145 58.86Z" fill="#CDC9C9"/>
<path d="M312.595 69.6618C312.708 69.5557 312.778 69.4135 312.79 69.2619C312.802 69.1103 312.756 68.9598 312.66 68.8385C312.616 68.7807 312.559 68.7326 312.494 68.6973C312.429 68.662 312.357 68.6404 312.282 68.6339C312.208 68.6274 312.133 68.6362 312.062 68.6596C311.992 68.6831 311.927 68.7207 311.873 68.7699C311.759 68.876 311.69 69.0181 311.678 69.1697C311.666 69.3213 311.712 69.4719 311.808 69.5932C311.852 69.6501 311.909 69.6975 311.974 69.7322C312.039 69.7669 312.111 69.7882 312.185 69.7947C312.259 69.8011 312.334 69.7926 312.405 69.7697C312.475 69.7469 312.54 69.7101 312.595 69.6618Z" fill="#CDC9C9"/>
<path d="M289.273 100.614C289.228 100.557 289.172 100.509 289.106 100.475C289.041 100.44 288.97 100.419 288.895 100.412C288.821 100.406 288.746 100.414 288.676 100.437C288.605 100.46 288.541 100.497 288.486 100.545C288.372 100.651 288.303 100.793 288.291 100.945C288.279 101.097 288.325 101.247 288.421 101.368C288.465 101.426 288.522 101.474 288.587 101.51C288.652 101.545 288.724 101.567 288.798 101.573C288.873 101.579 288.948 101.571 289.018 101.547C289.089 101.524 289.154 101.486 289.208 101.437C289.322 101.331 289.391 101.189 289.403 101.037C289.415 100.886 289.369 100.735 289.273 100.614Z" fill="#CDC9C9"/>
<path d="M323.441 43.9301C323.514 43.8629 323.558 43.7727 323.566 43.6764C323.575 43.5801 323.546 43.4841 323.487 43.4063C323.459 43.3685 323.423 43.3368 323.381 43.3134C323.339 43.29 323.293 43.2755 323.245 43.2707C323.197 43.266 323.148 43.2712 323.102 43.286C323.056 43.3008 323.014 43.3248 322.979 43.3564C322.906 43.4247 322.861 43.5159 322.853 43.6133C322.845 43.7107 322.873 43.8077 322.934 43.8864C322.962 43.9238 322.998 43.955 323.04 43.9778C323.082 44.0006 323.129 44.0146 323.177 44.0187C323.225 44.0228 323.273 44.0171 323.319 44.0018C323.365 43.9865 323.406 43.9621 323.441 43.9301Z" fill="#CDC9C9"/>
<path d="M309.213 59.6897C309.138 59.7554 309.092 59.8459 309.083 59.943C309.075 60.0402 309.105 60.1367 309.168 60.2135C309.195 60.2512 309.23 60.2828 309.272 60.3061C309.313 60.3295 309.359 60.344 309.406 60.3488C309.454 60.3535 309.502 60.3483 309.547 60.3336C309.593 60.3188 309.634 60.2949 309.669 60.2634C309.744 60.1966 309.791 60.105 309.799 60.0069C309.808 59.9087 309.777 59.8111 309.714 59.7334C309.687 59.6961 309.651 59.665 309.609 59.6423C309.568 59.6195 309.522 59.6055 309.474 59.6014C309.427 59.5973 309.379 59.603 309.334 59.6182C309.289 59.6335 309.248 59.6579 309.213 59.6897Z" fill="#CDC9C9"/>
<path d="M304.073 52.7483C303.998 52.8151 303.951 52.9067 303.943 53.0048C303.934 53.103 303.965 53.2006 304.028 53.2783C304.057 53.3149 304.093 53.3453 304.135 53.3675C304.177 53.3898 304.224 53.4034 304.272 53.4075C304.319 53.4116 304.367 53.4061 304.413 53.3914C304.458 53.3767 304.5 53.353 304.535 53.322C304.579 53.2878 304.614 53.2456 304.64 53.1979C304.666 53.1502 304.681 53.098 304.685 53.0445C304.69 52.9909 304.683 52.937 304.665 52.8862C304.647 52.8353 304.618 52.7884 304.581 52.7483C304.55 52.7129 304.511 52.6844 304.467 52.6649C304.423 52.6454 304.375 52.6353 304.327 52.6353C304.279 52.6353 304.231 52.6454 304.187 52.6649C304.143 52.6844 304.105 52.7129 304.073 52.7483Z" fill="#CDC9C9"/>
<path d="M309.436 51.9189C309.511 51.8531 309.557 51.7626 309.565 51.6655C309.574 51.5684 309.544 51.4718 309.481 51.3951C309.453 51.3572 309.417 51.3256 309.375 51.3022C309.334 51.2788 309.287 51.2642 309.239 51.2595C309.191 51.2548 309.143 51.26 309.097 51.2748C309.051 51.2896 309.009 51.3136 308.974 51.3452C308.9 51.4136 308.856 51.5053 308.849 51.6031C308.841 51.7008 308.872 51.7977 308.935 51.8752C308.962 51.9125 308.998 51.9435 309.04 51.9663C309.081 51.9891 309.127 52.003 309.175 52.0072C309.222 52.0113 309.27 52.0056 309.315 51.9903C309.36 51.9751 309.401 51.9507 309.436 51.9189Z" fill="#CDC9C9"/>
<path d="M300.628 56.5277C300.555 56.596 300.51 56.6872 300.501 56.7846C300.493 56.882 300.522 56.979 300.582 57.0577C300.611 57.0943 300.648 57.1247 300.69 57.1469C300.732 57.1692 300.778 57.1828 300.826 57.1869C300.873 57.191 300.922 57.1855 300.967 57.1708C301.012 57.1561 301.054 57.1324 301.089 57.1014C301.162 57.0332 301.207 56.9419 301.216 56.8445C301.224 56.7472 301.195 56.6502 301.135 56.5714C301.106 56.5348 301.069 56.5044 301.027 56.4822C300.985 56.46 300.939 56.4463 300.891 56.4422C300.844 56.4381 300.795 56.4436 300.75 56.4583C300.705 56.4731 300.663 56.4967 300.628 56.5277Z" fill="#CDC9C9"/>
<path d="M340.77 60.3132C340.846 60.2464 340.892 60.1548 340.901 60.0567C340.909 59.9585 340.879 59.8609 340.816 59.7832C340.789 59.745 340.753 59.7131 340.712 59.6897C340.67 59.6662 340.624 59.6519 340.576 59.6478C340.528 59.6436 340.48 59.6497 340.435 59.6655C340.39 59.6814 340.349 59.7067 340.315 59.7395C340.24 59.8052 340.193 59.8957 340.185 59.9928C340.177 60.09 340.207 60.1865 340.269 60.2633C340.297 60.301 340.332 60.3326 340.373 60.3559C340.414 60.3793 340.46 60.3938 340.508 60.3986C340.555 60.4033 340.604 60.3981 340.649 60.3834C340.694 60.3686 340.736 60.3447 340.77 60.3132Z" fill="#CDC9C9"/>
<path d="M313.936 55.0561C313.902 55.0918 313.883 55.1385 313.883 55.1871C313.883 55.2356 313.902 55.2823 313.936 55.318C313.951 55.3351 313.97 55.3488 313.992 55.3583C314.013 55.3677 314.036 55.3726 314.06 55.3726C314.083 55.3726 314.106 55.3677 314.128 55.3583C314.149 55.3488 314.168 55.3351 314.183 55.318C314.218 55.2813 314.237 55.2335 314.237 55.1839C314.237 55.1344 314.218 55.0866 314.183 55.0499C314.167 55.034 314.148 55.0216 314.126 55.0132C314.105 55.0049 314.082 55.0009 314.058 55.0015C314.035 55.0021 314.012 55.0073 313.991 55.0166C313.97 55.026 313.952 55.0395 313.936 55.0561Z" fill="#CDC9C9"/>
<path d="M281.16 84.0803C281.194 84.043 281.212 83.9955 281.212 83.9463C281.212 83.8971 281.194 83.8495 281.16 83.8122C281.144 83.795 281.125 83.7811 281.103 83.7717C281.081 83.7622 281.057 83.7573 281.033 83.7573C281.009 83.7573 280.986 83.7622 280.964 83.7717C280.942 83.7811 280.922 83.795 280.907 83.8122C280.874 83.8485 280.855 83.895 280.855 83.9431C280.855 83.9913 280.874 84.0378 280.907 84.0741C280.923 84.0909 280.942 84.1045 280.963 84.1139C280.985 84.1234 281.008 84.1286 281.032 84.1291C281.056 84.1297 281.079 84.1257 281.101 84.1173C281.123 84.1089 281.143 84.0963 281.16 84.0803Z" fill="#CDC9C9"/>
<path d="M298.729 72.3748C298.762 72.3374 298.781 72.2899 298.781 72.2407C298.781 72.1915 298.762 72.144 298.729 72.1066C298.713 72.0894 298.694 72.0756 298.672 72.0661C298.65 72.0567 298.626 72.0518 298.602 72.0518C298.578 72.0518 298.554 72.0567 298.532 72.0661C298.511 72.0756 298.491 72.0894 298.475 72.1066C298.441 72.1423 298.422 72.1891 298.422 72.2376C298.422 72.2861 298.441 72.3328 298.475 72.3685C298.491 72.3862 298.51 72.4005 298.531 72.4105C298.553 72.4205 298.577 72.426 298.601 72.4266C298.625 72.4271 298.648 72.4228 298.671 72.4139C298.693 72.405 298.713 72.3916 298.729 72.3748Z" fill="#CDC9C9"/>
<path d="M310.209 54.8127C310.244 54.776 310.263 54.7283 310.263 54.6787C310.263 54.6291 310.244 54.5813 310.209 54.5446C310.194 54.5274 310.174 54.5136 310.152 54.5041C310.13 54.4946 310.107 54.4897 310.083 54.4897C310.059 54.4897 310.035 54.4946 310.013 54.5041C309.991 54.5136 309.972 54.5274 309.956 54.5446C309.921 54.5803 309.902 54.6271 309.902 54.6756C309.902 54.7241 309.921 54.7708 309.956 54.8065C309.97 54.8251 309.989 54.8403 310.011 54.8509C310.033 54.8616 310.057 54.8674 310.081 54.868C310.105 54.8686 310.13 54.8639 310.152 54.8544C310.174 54.8448 310.194 54.8306 310.209 54.8127Z" fill="#CDC9C9"/>
<path d="M284.099 77.5008C284.131 77.4645 284.15 77.418 284.15 77.3699C284.15 77.3217 284.131 77.2752 284.099 77.2389C284.082 77.2225 284.062 77.2095 284.041 77.2005C284.019 77.1916 283.995 77.187 283.972 77.187C283.948 77.187 283.924 77.1916 283.903 77.2005C283.881 77.2095 283.861 77.2225 283.845 77.2389C283.811 77.2762 283.793 77.3238 283.793 77.373C283.793 77.4222 283.811 77.4697 283.845 77.507C283.861 77.5239 283.881 77.5372 283.903 77.5462C283.925 77.5551 283.949 77.5594 283.973 77.5588C283.997 77.5582 284.021 77.5528 284.042 77.5428C284.064 77.5328 284.083 77.5185 284.099 77.5008Z" fill="#CDC9C9"/>
<path d="M314.514 58.2367C314.441 58.305 314.397 58.3962 314.388 58.4936C314.38 58.591 314.408 58.688 314.469 58.7667C314.498 58.8033 314.534 58.8337 314.576 58.8559C314.618 58.8782 314.665 58.8918 314.712 58.8959C314.76 58.9 314.808 58.8945 314.854 58.8798C314.899 58.8651 314.941 58.8414 314.976 58.8104C315.049 58.7421 315.094 58.6509 315.102 58.5535C315.111 58.4561 315.082 58.3591 315.022 58.2804C314.993 58.2438 314.956 58.2134 314.914 58.1912C314.872 58.1689 314.826 58.1553 314.778 58.1512C314.73 58.1471 314.682 58.1526 314.637 58.1673C314.591 58.182 314.55 58.2057 314.514 58.2367Z" fill="#CDC9C9"/>
<path d="M302.633 70.1607C302.706 70.0934 302.75 70.0027 302.757 69.906C302.764 69.8093 302.734 69.7135 302.672 69.637C302.645 69.5993 302.609 69.5677 302.568 69.5443C302.527 69.521 302.481 69.5064 302.433 69.5017C302.386 69.497 302.338 69.5021 302.292 69.5169C302.247 69.5316 302.206 69.5556 302.171 69.5871C302.095 69.6539 302.049 69.7454 302.04 69.8436C302.032 69.9418 302.062 70.0394 302.125 70.1171C302.153 70.1554 302.189 70.1874 302.231 70.2108C302.273 70.2342 302.32 70.2486 302.369 70.2527C302.417 70.2569 302.466 70.2508 302.511 70.2349C302.557 70.219 302.599 70.1937 302.633 70.1607Z" fill="#CDC9C9"/>
<path d="M334.945 99.7902C334.974 99.8276 335.01 99.8588 335.052 99.8816C335.094 99.9044 335.141 99.9184 335.189 99.9225C335.237 99.9266 335.285 99.9209 335.331 99.9056C335.376 99.8903 335.418 99.8659 335.453 99.8339C335.525 99.7667 335.57 99.6765 335.578 99.5802C335.587 99.4839 335.558 99.3879 335.498 99.3101C335.47 99.2723 335.434 99.2406 335.393 99.2172C335.351 99.1938 335.305 99.1793 335.256 99.1745C335.208 99.1698 335.16 99.175 335.114 99.1898C335.068 99.2046 335.026 99.2286 334.991 99.2602C334.918 99.3285 334.873 99.4197 334.865 99.5171C334.856 99.6145 334.885 99.7115 334.945 99.7902Z" fill="#CDC9C9"/>
<path d="M285.713 68.4642C285.788 68.3974 285.835 68.3059 285.843 68.2077C285.852 68.1095 285.822 68.0119 285.758 67.9342C285.729 67.8976 285.693 67.8672 285.651 67.845C285.609 67.8227 285.562 67.8091 285.515 67.805C285.467 67.8009 285.419 67.8064 285.373 67.8211C285.328 67.8359 285.286 67.8595 285.251 67.8905C285.178 67.9589 285.133 68.0507 285.126 68.1484C285.119 68.2461 285.149 68.343 285.212 68.4205C285.24 68.4569 285.276 68.4872 285.318 68.5094C285.359 68.5316 285.405 68.5452 285.452 68.5493C285.499 68.5534 285.547 68.548 285.592 68.5333C285.637 68.5186 285.678 68.4951 285.713 68.4642Z" fill="#CDC9C9"/>
<path d="M309.46 86.3383C309.387 86.4065 309.342 86.4977 309.333 86.5951C309.325 86.6925 309.354 86.7895 309.414 86.8683C309.443 86.9049 309.48 86.9352 309.522 86.9575C309.564 86.9797 309.61 86.9933 309.658 86.9974C309.706 87.0015 309.754 86.9961 309.799 86.9813C309.844 86.9666 309.886 86.943 309.922 86.9119C309.995 86.8437 310.039 86.7525 310.048 86.6551C310.056 86.5577 310.027 86.4607 309.967 86.3819C309.938 86.3454 309.901 86.315 309.859 86.2927C309.817 86.2705 309.771 86.2569 309.723 86.2528C309.676 86.2487 309.628 86.2542 309.582 86.2689C309.537 86.2836 309.495 86.3072 309.46 86.3383Z" fill="#CDC9C9"/>
<path d="M324.743 75.7489C324.67 75.8173 324.625 75.9091 324.618 76.0068C324.611 76.1045 324.642 76.2014 324.704 76.2789C324.733 76.3153 324.769 76.3456 324.81 76.3678C324.851 76.39 324.897 76.4036 324.944 76.4077C324.992 76.4118 325.039 76.4064 325.084 76.3917C325.129 76.377 325.17 76.3535 325.205 76.3226C325.281 76.2558 325.327 76.1643 325.336 76.0661C325.344 75.9679 325.314 75.8703 325.251 75.7926C325.222 75.756 325.185 75.7256 325.143 75.7034C325.101 75.6811 325.055 75.6675 325.007 75.6634C324.959 75.6593 324.911 75.6648 324.866 75.6795C324.82 75.6943 324.778 75.7179 324.743 75.7489Z" fill="#CDC9C9"/>
<path d="M307.584 94.8888C307.812 94.6775 307.952 94.3936 307.977 94.0904C308.002 93.7872 307.911 93.4856 307.721 93.2424C307.633 93.1253 307.52 93.0276 307.389 92.9558C307.259 92.884 307.114 92.8399 306.964 92.8263C306.814 92.8127 306.663 92.83 306.521 92.877C306.379 92.9241 306.249 92.9997 306.14 93.0989C305.911 93.3102 305.771 93.5941 305.746 93.8974C305.721 94.2006 305.812 94.5022 306.003 94.7454C306.092 94.8608 306.206 94.9569 306.336 95.0275C306.466 95.0981 306.611 95.1416 306.76 95.1551C306.909 95.1687 307.06 95.1519 307.202 95.1061C307.344 95.0602 307.474 94.9862 307.584 94.8888Z" fill="#CDC9C9"/>
<path d="M293.941 91.296C293.853 91.1799 293.74 91.0831 293.61 91.0119C293.48 90.9408 293.336 90.897 293.187 90.8834C293.038 90.8699 292.888 90.8868 292.746 90.9332C292.605 90.9796 292.475 91.0544 292.366 91.1526C292.138 91.3638 291.998 91.6478 291.973 91.951C291.948 92.2542 292.039 92.5558 292.23 92.799C292.317 92.9159 292.429 93.0136 292.559 93.0853C292.689 93.157 292.833 93.2012 292.983 93.2148C293.132 93.2284 293.282 93.2111 293.424 93.1641C293.566 93.1171 293.695 93.0415 293.804 92.9424C294.032 92.7312 294.172 92.4472 294.197 92.144C294.222 91.8408 294.131 91.5392 293.941 91.296Z" fill="#CDC9C9"/>
<path d="M334.603 46.3251C334.766 46.176 334.865 45.9748 334.883 45.7598C334.901 45.5447 334.836 45.3309 334.701 45.1588C334.638 45.0774 334.558 45.0095 334.466 44.9597C334.375 44.9099 334.273 44.8792 334.168 44.8698C334.063 44.8604 333.957 44.8724 333.857 44.905C333.757 44.9376 333.665 44.9901 333.588 45.059C333.425 45.2081 333.326 45.4093 333.308 45.6243C333.29 45.8394 333.355 46.0532 333.491 46.2253C333.553 46.3067 333.633 46.3746 333.725 46.4244C333.817 46.4742 333.918 46.5049 334.023 46.5143C334.128 46.5237 334.234 46.5117 334.334 46.4791C334.434 46.4465 334.526 46.394 334.603 46.3251Z" fill="#CDC9C9"/>
<path d="M300.468 78.5864C300.39 78.6556 300.342 78.7505 300.333 78.8522C300.325 78.954 300.357 79.055 300.423 79.1351C300.452 79.1737 300.489 79.2058 300.532 79.2293C300.575 79.2528 300.623 79.2671 300.672 79.2713C300.722 79.2754 300.772 79.2693 300.818 79.2534C300.865 79.2374 300.908 79.212 300.943 79.1788C301.021 79.1096 301.07 79.0147 301.078 78.913C301.086 78.8113 301.055 78.7102 300.989 78.6301C300.96 78.5915 300.922 78.5594 300.879 78.5359C300.836 78.5124 300.788 78.4981 300.739 78.4939C300.69 78.4898 300.64 78.4959 300.593 78.5119C300.546 78.5278 300.504 78.5533 300.468 78.5864Z" fill="#CDC9C9"/>
<path d="M279.793 83.8869C279.823 83.9256 279.861 83.9578 279.904 83.9814C279.948 84.0049 279.996 84.0192 280.046 84.0234C280.096 84.0275 280.147 84.0214 280.194 84.0053C280.241 83.9893 280.284 83.9638 280.32 83.9306C280.396 83.8599 280.442 83.7653 280.451 83.6644C280.459 83.5635 280.429 83.4631 280.366 83.3819C280.336 83.3431 280.298 83.3109 280.255 83.2874C280.211 83.2638 280.163 83.2495 280.113 83.2454C280.063 83.2413 280.012 83.2474 279.965 83.2634C279.918 83.2794 279.875 83.3049 279.839 83.3382C279.763 83.4088 279.717 83.5034 279.708 83.6044C279.7 83.7053 279.73 83.8057 279.793 83.8869Z" fill="#CDC9C9"/>
<path d="M290.266 54.7129C290.341 54.6423 290.388 54.5477 290.396 54.4467C290.404 54.3458 290.374 54.2454 290.311 54.1642C290.281 54.1258 290.244 54.0939 290.2 54.0704C290.157 54.0468 290.109 54.0322 290.059 54.0275C290.01 54.0228 289.959 54.0281 289.912 54.0431C289.865 54.058 289.821 54.0823 289.784 54.1143C289.708 54.185 289.662 54.2795 289.654 54.3805C289.645 54.4814 289.676 54.5818 289.739 54.663C289.768 54.7022 289.805 54.7349 289.849 54.759C289.892 54.7831 289.94 54.7981 289.99 54.8028C290.04 54.8075 290.091 54.8019 290.138 54.7864C290.186 54.7709 290.229 54.7459 290.266 54.7129Z" fill="#CDC9C9"/>
<path d="M340.64 72.8178C340.627 72.9169 340.655 73.0169 340.718 73.0962C340.782 73.1756 340.875 73.2278 340.978 73.2418C341.081 73.2452 341.18 73.2098 341.256 73.1433C341.331 73.0768 341.376 72.9845 341.381 72.8864C341.394 72.7873 341.366 72.6873 341.303 72.608C341.24 72.5286 341.146 72.4764 341.043 72.4624C340.992 72.4599 340.941 72.4671 340.893 72.4837C340.845 72.5003 340.801 72.5259 340.764 72.559C340.726 72.5921 340.696 72.632 340.675 72.6764C340.653 72.7209 340.641 72.7689 340.64 72.8178Z" fill="#CDC9C9"/>
<path d="M324.255 60.5939C324.306 60.5964 324.357 60.5891 324.405 60.5725C324.453 60.556 324.497 60.5304 324.535 60.4973C324.573 60.4642 324.603 60.4243 324.624 60.3798C324.645 60.3354 324.657 60.2873 324.659 60.2384C324.672 60.1394 324.644 60.0394 324.58 59.96C324.517 59.8807 324.424 59.8284 324.321 59.8145C324.27 59.8119 324.219 59.8192 324.171 59.8358C324.123 59.8523 324.079 59.8779 324.041 59.911C324.003 59.9441 323.973 59.984 323.952 60.0285C323.931 60.0729 323.919 60.121 323.917 60.1699C323.904 60.2689 323.932 60.3689 323.996 60.4483C324.059 60.5276 324.152 60.5799 324.255 60.5939Z" fill="#CDC9C9"/>
<path d="M324.548 46.799C324.599 46.8024 324.65 46.7958 324.699 46.7795C324.747 46.7633 324.791 46.7378 324.829 46.7045C324.867 46.6712 324.897 46.6309 324.918 46.5861C324.939 46.5412 324.95 46.4928 324.951 46.4436C324.964 46.3453 324.936 46.246 324.872 46.1677C324.809 46.0893 324.715 46.0383 324.613 46.0259C324.562 46.0234 324.511 46.0306 324.463 46.0472C324.415 46.0638 324.371 46.0894 324.333 46.1224C324.296 46.1555 324.265 46.1955 324.244 46.2399C324.223 46.2844 324.211 46.3324 324.209 46.3813C324.198 46.4794 324.227 46.5778 324.29 46.6557C324.354 46.7337 324.446 46.7851 324.548 46.799Z" fill="#CDC9C9"/>
<path d="M337.206 52.5181L337.303 52.5492C337.411 52.5543 337.52 52.5387 337.621 52.5034C337.723 52.4681 337.817 52.4138 337.897 52.3436C337.977 52.2735 338.041 52.1888 338.087 52.0946C338.132 52.0003 338.158 51.8984 338.162 51.7946C338.192 51.5815 338.133 51.3657 337.997 51.194C337.862 51.0224 337.662 50.9088 337.44 50.8779C337.332 50.8729 337.224 50.8885 337.123 50.9238C337.021 50.9592 336.928 51.0136 336.849 51.0839C336.769 51.1541 336.705 51.2388 336.66 51.333C336.616 51.4272 336.591 51.529 336.588 51.6325C336.578 51.7925 336.614 51.9521 336.692 52.094C336.739 52.1967 336.81 52.288 336.899 52.3613C336.988 52.4346 337.093 52.4882 337.206 52.5181Z" fill="#CDC9C9"/>
<path d="M337.345 56.6027C337.348 56.5784 337.347 56.5537 337.34 56.5301C337.334 56.5064 337.322 56.4843 337.306 56.465C337.29 56.4458 337.271 56.4298 337.248 56.4181C337.226 56.4064 337.201 56.3992 337.176 56.3969C337.15 56.3952 337.125 56.3985 337.101 56.4064C337.077 56.4143 337.055 56.4268 337.036 56.4431C337.017 56.4594 337.002 56.4792 336.991 56.5012C336.981 56.5233 336.975 56.5472 336.974 56.5715C336.968 56.6209 336.983 56.6705 337.014 56.71C337.046 56.7495 337.092 56.7758 337.143 56.7835C337.169 56.7852 337.195 56.7818 337.219 56.7735C337.244 56.7652 337.266 56.7521 337.285 56.7352C337.304 56.7182 337.319 56.6977 337.329 56.6749C337.339 56.6521 337.345 56.6275 337.345 56.6027Z" fill="#CDC9C9"/>
<path d="M340.418 54.139C340.443 54.1407 340.468 54.1375 340.492 54.1296C340.516 54.1216 340.538 54.1091 340.557 54.0928C340.576 54.0765 340.591 54.0568 340.602 54.0347C340.613 54.0127 340.619 53.9888 340.619 53.9644C340.621 53.929 340.611 53.894 340.591 53.8638C340.572 53.8336 340.544 53.8095 340.51 53.7946C340.477 53.7797 340.439 53.7746 340.403 53.7799C340.366 53.7852 340.332 53.8007 340.304 53.8245C340.277 53.8482 340.257 53.8792 340.248 53.9136C340.239 53.948 340.24 53.9841 340.253 54.0177C340.265 54.0512 340.287 54.0806 340.316 54.1022C340.345 54.1238 340.381 54.1366 340.418 54.139Z" fill="#CDC9C9"/>
<path d="M334.332 54.2949C334.281 54.2924 334.23 54.2996 334.182 54.3162C334.134 54.3328 334.09 54.3584 334.052 54.3915C334.014 54.4246 333.984 54.4645 333.963 54.509C333.942 54.5534 333.93 54.6015 333.928 54.6503C333.917 54.7484 333.946 54.8468 334.009 54.9248C334.072 55.0027 334.165 55.0541 334.266 55.0681C334.318 55.0715 334.369 55.0648 334.417 55.0486C334.466 55.0323 334.51 55.0068 334.548 54.9735C334.586 54.9403 334.616 54.9 334.637 54.8551C334.658 54.8103 334.669 54.7618 334.67 54.7127C334.683 54.6143 334.654 54.515 334.591 54.4367C334.527 54.3584 334.434 54.3074 334.332 54.2949Z" fill="#CDC9C9"/>
<path d="M316.788 104C338.21 104 355.575 87.2107 355.575 66.5C355.575 45.7893 338.21 29 316.788 29C295.366 29 278 45.7893 278 66.5C278 87.2107 295.366 104 316.788 104Z" fill="#EBEBEB"/>
<path d="M331.436 43.3127L330.343 42.5082C330.219 42.4267 330.115 42.3203 330.038 42.1964C329.984 42.0454 329.954 41.8879 329.947 41.7287C329.888 41.4453 329.724 41.1922 329.484 41.0175C329.244 40.8427 328.946 40.7585 328.645 40.7807C328.411 40.2069 328.359 39.5833 328.144 39.0033C328.06 38.7045 327.896 38.4322 327.667 38.2133C327.439 37.9945 327.155 37.8368 326.843 37.756C326.595 37.7508 326.348 37.7173 326.108 37.6562C325.871 37.5161 325.652 37.3486 325.458 37.1573C324.722 36.621 323.447 36.9141 322.985 36.1532C322.903 35.9594 322.809 35.77 322.706 35.5857C322.532 35.3985 322.306 35.2623 322.055 35.1928C321.144 34.8747 320.103 34.5692 319.225 34.9122C318.912 35.0694 318.583 35.1948 318.243 35.2864C317.859 35.3425 317.442 35.2053 317.091 35.355C316.876 35.4423 316.701 35.6356 316.473 35.6481C316.309 35.6361 316.152 35.5822 316.018 35.4922C315.131 34.9747 314.089 34.7552 313.057 34.8685C313.174 34.7877 313.301 34.7206 313.435 34.6689C313.532 34.6689 313.643 34.6191 313.747 34.5941C314.004 34.529 314.231 34.387 314.398 34.1887L314.339 34.0391C314.202 34.1264 314.014 34.0391 313.884 33.9455C313.775 33.8261 313.625 33.7485 313.461 33.7272C313.379 33.7414 313.298 33.7623 313.22 33.7896C312.875 33.8644 312.57 33.5776 312.205 33.5776C312.089 33.5766 311.974 33.5978 311.867 33.6399C311.37 33.7938 310.909 34.0372 310.507 34.3571C310.46 34.3908 310.42 34.4332 310.39 34.4818C310.367 34.5551 310.367 34.6331 310.39 34.7064C310.409 34.8375 310.46 34.9624 310.539 35.0708C310.619 35.1792 310.723 35.2681 310.845 35.33C311.115 35.4401 311.415 35.4599 311.698 35.3861C311.726 35.3897 311.754 35.3897 311.782 35.3861C311.593 35.5321 311.438 35.7149 311.327 35.9225C311.219 36.1188 311.172 36.3406 311.192 36.5617C311.211 36.7827 311.297 36.9938 311.438 37.1698C311.099 37.3881 310.735 36.8829 310.332 36.8455C310.032 36.8455 309.785 37.0513 309.59 37.2633L308.777 38.1427L307.833 37.8683C307.681 37.8188 307.517 37.8188 307.365 37.8683C307.226 37.9462 307.1 38.0452 306.994 38.1614C306.903 38.2419 306.794 38.3004 306.674 38.332C306.555 38.3636 306.43 38.3673 306.309 38.3429C306.188 38.3185 306.074 38.2666 305.979 38.1916C305.883 38.1166 305.807 38.0207 305.758 37.9119C305.825 37.8822 305.886 37.8398 305.936 37.7874C305.987 37.7349 306.026 37.6734 306.051 37.6063C306.024 37.5414 305.976 37.4867 305.913 37.4507C305.851 37.4146 305.778 37.3992 305.706 37.4068C305.742 37.2112 305.857 37.0368 306.025 36.9203C306.252 36.7706 306.584 36.7083 306.675 36.4651L307.189 36.1408C307.255 36.1089 307.311 36.0617 307.352 36.0036C307.371 35.9759 307.381 35.9433 307.381 35.91C307.381 35.8767 307.371 35.8441 307.352 35.8165C307.671 35.4984 307.28 34.7188 307.625 34.3197C307.758 34.2115 307.924 34.1466 308.098 34.1343C308.272 34.122 308.446 34.1629 308.594 34.2511C308.888 34.4349 309.215 34.5659 309.557 34.6378C310.084 34.6752 310.52 34.2698 310.917 33.9393C311.096 33.7563 311.325 33.6245 311.578 33.5585C311.83 33.4924 312.097 33.4947 312.348 33.5651C312.205 33.509 312.622 32.8728 312.869 32.8915C313.012 32.8915 313.025 33.1285 313.142 33.1909C313.858 33.5651 314.762 33.0662 315.543 32.9851C316.534 32.8737 317.536 32.9094 318.516 33.0911C318.581 32.8417 318.295 32.6608 318.047 32.5548C317.19 32.1569 316.292 31.8455 315.367 31.6255C313.704 31.3089 311.98 31.4986 310.436 32.1681C310.07 32.3645 309.663 32.4776 309.245 32.4986C309.037 32.4986 308.842 32.4176 308.633 32.4176C308.271 32.4414 307.932 32.6004 307.69 32.8604C307.387 32.8645 307.092 32.951 306.838 33.1098C306.721 33.1784 306.604 33.2533 306.5 33.3281C306.571 33.4216 306.721 33.3655 306.825 33.3281C307.013 33.2305 307.218 33.1651 307.43 33.1348L307.306 33.2657C307.059 33.5464 306.701 33.4778 306.324 33.5214C306.192 33.5244 306.061 33.5432 305.934 33.5776C305.803 33.625 305.687 33.7021 305.595 33.8021L305.96 33.3905C306.008 33.3481 306.047 33.296 306.073 33.2378C306.099 33.1797 306.111 33.1169 306.109 33.0537C306.297 33.0502 306.481 33.0036 306.647 32.9179C306.812 32.8322 306.953 32.7098 307.059 32.561C307.088 32.5045 307.133 32.457 307.189 32.4238C307.293 32.3739 307.43 32.4238 307.541 32.4238C307.651 32.4238 307.677 32.2866 307.729 32.1993C307.884 31.9949 308.096 31.837 308.341 31.744L309.486 31.1703L309.037 31.1079C308.927 31.1088 308.818 31.1214 308.712 31.1453H308.673C307.406 31.2141 306.168 31.5393 305.042 32.0995C304.948 32.1515 304.85 32.1973 304.75 32.2367C304.652 32.2367 304.554 32.2866 304.457 32.3116C303.824 32.4663 303.211 32.6881 302.629 32.9726L299.376 34.513C299.259 34.5692 299.122 34.6627 299.155 34.7874L299.805 34.856C299.305 34.9706 298.836 35.1829 298.426 35.4797C298.308 35.5884 298.165 35.6695 298.009 35.7167C297.912 35.7167 297.821 35.7167 297.723 35.7167C297.594 35.753 297.475 35.8146 297.372 35.8975L293.976 38.3048C293.317 38.7411 292.705 39.2382 292.148 39.7891C291.469 40.4054 290.841 41.0705 290.268 41.7785C289.864 42.4022 289.617 43.0757 289.175 43.6495L290.118 42.9323C290.269 42.8251 290.408 42.7039 290.534 42.5706C290.632 42.4583 290.71 42.3336 290.795 42.2151C291.022 41.913 291.27 41.6255 291.536 41.3545C291.65 41.2175 291.786 41.0995 291.94 41.0052C292.037 40.9429 292.148 40.9054 292.245 40.8368C292.343 40.7682 292.447 40.6373 292.558 40.5437C292.608 40.4924 292.673 40.455 292.743 40.4353C292.814 40.4155 292.889 40.4142 292.961 40.4315C292.85 40.6248 292.72 40.8181 292.59 41.0052C292.547 41.071 292.49 41.1265 292.421 41.1674C292.341 41.1956 292.258 41.2144 292.174 41.2235C291.816 41.2983 291.627 41.6663 291.484 41.9906H291.914C291.925 42.0285 291.927 42.0682 291.92 42.107C291.913 42.1458 291.898 42.1827 291.874 42.2151C291.538 42.9103 291.121 43.5671 290.632 44.1734C290.967 43.7526 291.176 43.2524 291.237 42.7265C290.738 43.0629 290.299 43.4734 289.936 43.9426C289.709 44.2597 289.365 44.4825 288.973 44.5663C288.982 44.402 289.036 44.2429 289.129 44.1048C288.732 44.1048 288.478 44.4852 288.283 44.8282C287.925 45.5204 287.561 46.2127 287.197 46.9049L286.501 48.2333L285.954 49.2748C285.911 49.3351 285.882 49.4041 285.871 49.4765C285.86 49.5489 285.866 49.6229 285.889 49.6926C286.418 49.195 286.885 48.6404 287.281 48.04C287.345 47.9319 287.419 47.8296 287.503 47.7344C287.6 47.6408 287.717 47.566 287.815 47.4787C288.212 47.1357 288.387 46.5869 288.83 46.3062C288.83 46.7178 288.42 47.011 288.127 47.3228C287.828 47.6425 287.606 48.0215 287.477 48.4329C287.446 48.5689 287.397 48.7008 287.333 48.8258C287.255 48.9443 287.145 49.0378 287.067 49.1563C286.935 49.4291 286.897 49.7345 286.956 50.0294C286.956 50.0294 286.956 50.0668 286.956 50.0793C286.956 50.0918 287.041 50.0793 287.073 50.0793L287.899 49.5804C287.883 49.8233 287.916 50.0669 287.997 50.2976C288.039 50.414 288.052 50.5379 288.036 50.66C288.02 50.7821 287.976 50.8992 287.906 51.0023C287.432 51.4014 287.128 51.9545 287.054 52.5552C287.074 52.8037 287.043 53.0536 286.961 53.2903C286.88 53.527 286.75 53.7456 286.579 53.9335C286.488 54.0021 286.384 54.0644 286.351 54.1642C286.337 54.2681 286.353 54.3737 286.397 54.4698C286.475 54.8565 286.143 55.187 285.902 55.505C285.826 55.5893 285.773 55.6898 285.746 55.7982C285.736 55.8977 285.736 55.998 285.746 56.0975C285.763 56.3297 285.716 56.5621 285.609 56.7711L286.136 57.0766C286.226 57.1188 286.306 57.1783 286.371 57.2513C286.422 57.3487 286.467 57.4486 286.507 57.5506C286.592 57.6941 286.748 57.8001 286.793 57.956C286.806 58.0387 286.806 58.1228 286.793 58.2055C286.759 58.6391 286.859 59.073 287.08 59.4527C287.158 59.5642 287.22 59.686 287.262 59.8145C287.327 60.1138 287.132 60.4381 287.262 60.7188C287.151 60.7188 287.21 60.9121 287.262 60.9869C287.353 61.0491 287.462 61.0818 287.574 61.0805C287.63 61.0781 287.686 61.0875 287.737 61.108C287.789 61.1285 287.836 61.1595 287.873 61.199C287.997 61.3549 287.828 61.5669 287.763 61.754C287.734 61.8475 287.732 61.9466 287.758 62.041C287.783 62.1354 287.834 62.2215 287.906 62.2903C287.984 62.3652 288.095 62.4338 288.082 62.5398C288.069 62.6458 287.912 62.6957 287.802 62.7519C287.477 62.9078 287.483 63.3755 287.626 63.6873C287.823 63.9845 287.951 64.3182 288.004 64.6665C288.152 64.6845 288.292 64.7427 288.407 64.8344C288.523 64.9261 288.608 65.0474 288.654 65.1841C288.654 65.2714 288.706 65.3836 288.797 65.4148C288.888 65.446 289.018 65.34 289.064 65.2277C289.214 64.8411 289.064 64.3733 289.298 64.0241C289.421 63.8745 289.555 63.7348 289.702 63.6063C289.774 63.5403 289.825 63.456 289.849 63.3633C289.873 63.2706 289.869 63.1731 289.838 63.0824C289.786 62.9826 289.682 62.9078 289.623 62.8142C289.565 62.7207 289.591 62.546 289.708 62.5336C289.876 62.6531 289.999 62.8216 290.059 63.0138H290.508V63.6998C290.374 63.7995 290.275 63.9355 290.223 64.0901C290.171 64.2446 290.168 64.4107 290.216 64.5667C290.229 64.6177 290.254 64.6655 290.287 64.7073C290.321 64.7491 290.363 64.784 290.411 64.8099C290.482 64.8411 290.56 64.8473 290.625 64.8723C291.009 65.0157 290.866 65.7454 291.276 65.8202C291.439 65.8202 291.601 65.7391 291.764 65.7516C291.927 65.7641 292.05 65.8327 292.135 65.7516C292.219 65.6705 292.135 65.5832 292.135 65.5021C292.05 65.2443 292.05 64.9679 292.135 64.7101C291.984 64.3681 291.888 64.0066 291.848 63.6374L291.959 63.5813C292.163 63.7225 292.332 63.9058 292.453 64.1176C292.519 64.2611 292.538 64.4232 292.616 64.5604C292.651 64.631 292.71 64.688 292.783 64.722C292.857 64.756 292.94 64.765 293.02 64.7475C293.083 64.7078 293.133 64.6514 293.164 64.5851C293.196 64.5188 293.206 64.4453 293.195 64.3733C293.173 64.2286 293.173 64.0815 293.195 63.9368C293.254 63.6561 293.579 63.5127 293.846 63.4129C293.846 63.5127 293.748 63.5751 293.664 63.6437C293.584 63.7261 293.527 63.8262 293.497 63.9351C293.468 64.0439 293.467 64.1581 293.494 64.2673C293.511 64.6329 293.642 64.9852 293.872 65.2776C293.986 65.4199 294.146 65.5221 294.327 65.5683C294.509 65.6145 294.701 65.6022 294.874 65.5333C295.29 65.3275 295.355 64.7974 295.362 64.3422C295.492 64.2798 295.687 64.2299 295.758 64.3422C295.83 64.4544 295.758 64.5355 295.758 64.6353C295.758 64.7351 296.006 64.9346 296.019 65.1155C296.017 65.2205 295.978 65.3218 295.908 65.4024C295.758 65.6456 295.654 66.026 295.908 66.1632C295.975 66.1983 296.048 66.2235 296.123 66.238C296.298 66.2953 296.45 66.4025 296.559 66.5452C296.669 66.6879 296.73 66.8593 296.734 67.0363C296.8 67.0532 296.857 67.0907 296.897 67.1428C296.937 67.1949 296.958 67.2585 296.956 67.3232C296.952 67.3873 296.927 67.4485 296.883 67.4971C296.84 67.5457 296.78 67.5789 296.715 67.5914C296.657 67.5895 296.6 67.6048 296.552 67.635C296.461 67.7223 296.585 67.9032 296.487 67.9843C296.451 68.0052 296.411 68.02 296.37 68.0279C296.162 68.0965 296.188 68.3834 296.214 68.5954C296.231 68.8335 296.187 69.072 296.085 69.2896C295.982 69.5072 295.826 69.6972 295.628 69.8427C295.495 69.958 295.327 70.0284 295.148 70.043C294.97 70.0577 294.791 70.0158 294.639 69.9238C294.517 69.8122 294.41 69.6865 294.321 69.5496C294.291 69.4978 294.249 69.4537 294.198 69.4214C294.146 69.3891 294.087 69.3696 294.026 69.3647C293.964 69.3597 293.903 69.3695 293.846 69.3931C293.79 69.4166 293.741 69.4533 293.703 69.4997C293.353 69.7708 293.094 70.1355 292.961 70.5475C292.951 70.6902 292.921 70.8309 292.87 70.9653C292.762 71.1112 292.638 71.2451 292.499 71.3644C292.424 71.4503 292.369 71.55 292.337 71.6574C292.304 71.7647 292.295 71.8773 292.31 71.9881C292.434 72.1378 292.252 72.3311 292.167 72.5057C292.064 72.6666 291.97 72.8332 291.887 73.0046C291.786 73.3912 291.83 73.7997 292.011 74.1584C292.147 74.6702 292.421 75.139 292.805 75.5179C292.912 75.6038 293.025 75.683 293.143 75.7549C293.638 76.0226 294.05 76.4096 294.34 76.8775C294.626 76.9523 294.952 76.7091 295.205 76.8775C295.292 76.9452 295.36 77.0333 295.401 77.1332C295.537 77.3889 295.674 77.6508 295.804 77.9065C295.895 78.1237 296.043 78.3149 296.233 78.4616C296.331 78.5316 296.453 78.5629 296.574 78.5489C296.695 78.535 296.806 78.4769 296.884 78.3867C297.04 78.1497 296.845 77.8192 296.943 77.551C297.04 77.2829 297.665 77.1082 297.71 76.7278C297.71 76.5719 297.652 76.3723 297.775 76.2663C297.828 76.2238 297.89 76.1939 297.957 76.179C298.062 76.1339 298.146 76.0544 298.195 75.9549C298.244 75.8554 298.254 75.7425 298.224 75.6364C298.712 75.599 299.304 75.6364 299.525 76.0231C299.577 76.1166 299.675 76.2351 299.753 76.1665C299.658 75.66 299.647 75.1422 299.721 74.6324C299.762 74.4927 299.776 74.3466 299.76 74.202C299.668 73.7904 299.05 73.7031 298.842 73.3289C298.634 72.9547 299.044 72.275 298.725 71.8821C298.536 71.6388 298.127 71.6077 297.99 71.3333C297.956 71.2331 297.914 71.1351 297.866 71.0401C297.792 70.9638 297.704 70.9005 297.606 70.853C297.451 70.7084 297.335 70.5288 297.27 70.3306C297.206 70.1324 297.194 69.9218 297.235 69.718C297.329 69.3071 297.329 68.8816 297.235 68.4707C297.164 68.3322 297.112 68.1855 297.079 68.0342C297.074 67.9679 297.083 67.9013 297.105 67.8384C297.127 67.7755 297.162 67.7176 297.208 67.668C297.255 67.6185 297.311 67.5785 297.374 67.5503C297.436 67.5221 297.504 67.5064 297.574 67.5041C297.643 67.5073 297.71 67.5247 297.771 67.5551C297.832 67.5855 297.886 67.6282 297.929 67.6802C297.971 67.7323 298.002 67.7925 298.018 67.8568C298.034 67.9211 298.036 67.9879 298.022 68.0529C297.953 68.2204 297.846 68.3714 297.71 68.4957C297.642 68.5604 297.597 68.6438 297.581 68.7343C297.564 68.8248 297.578 68.9179 297.619 69.0008C297.687 69.016 297.748 69.0488 297.798 69.0954C297.847 69.142 297.882 69.2007 297.899 69.2651C297.915 69.3295 297.913 69.3971 297.893 69.4605C297.872 69.5239 297.834 69.5806 297.782 69.6245C297.717 69.6681 297.632 69.6931 297.561 69.743C297.491 69.8236 297.453 69.925 297.453 70.0298C297.453 70.1346 297.491 70.2361 297.561 70.3167C297.699 70.48 297.847 70.6361 298.003 70.7844C298.058 70.882 298.139 70.9638 298.237 71.0214C298.298 71.0303 298.359 71.0303 298.419 71.0214H298.914C298.974 71.0337 299.036 71.0337 299.096 71.0214C299.191 70.9848 299.276 70.9271 299.343 70.853C299.613 70.6374 299.919 70.4666 300.247 70.3479C300.357 70.2903 300.48 70.2582 300.605 70.2543C300.892 70.2543 301.067 70.5537 301.256 70.7595C301.56 71.0425 301.927 71.2557 302.329 71.3831C302.59 70.7422 302.626 70.0376 302.433 69.375C302.158 68.9123 301.811 68.4919 301.406 68.1277C301.21 67.9458 301.065 67.7197 300.984 67.4702C300.904 67.2206 300.89 66.9556 300.944 66.6995L301.217 66.5623C301.415 66.6459 301.593 66.7677 301.739 66.9201C301.886 67.0724 301.998 67.2521 302.069 67.4479C302.148 67.756 302.206 68.0684 302.245 68.3834C302.348 68.857 302.595 69.2909 302.954 69.6307V68.5331C302.944 68.4817 302.946 68.4289 302.959 68.3783C302.973 68.3277 302.998 68.2805 303.032 68.24C303.076 68.2106 303.126 68.1905 303.179 68.1808C303.231 68.1712 303.286 68.1722 303.338 68.1838C303.65 68.2206 303.958 68.2896 304.255 68.3896C304.348 68.4153 304.433 68.4624 304.502 68.5268C304.571 68.6248 304.609 68.7394 304.613 68.8574C304.665 69.3002 304.671 69.8427 304.281 70.1047C303.995 70.2793 303.565 70.2294 303.364 70.4976C303.162 70.7657 303.26 70.9466 303.084 71.1212C302.908 71.2958 302.837 71.2272 302.772 71.327C302.707 71.4268 302.811 71.7074 302.772 71.8945C302.733 72.0816 302.629 72.1315 302.674 72.25C302.72 72.3685 302.772 72.3623 302.83 72.4122C303.104 72.6429 303.045 73.0358 302.96 73.4038C302.876 73.7717 302.83 73.9651 302.759 74.2457C302.814 73.6723 302.652 73.0991 302.303 72.6304C301.98 72.6543 301.656 72.6008 301.36 72.4745C301.212 72.4131 301.048 72.394 300.889 72.4194C300.73 72.4449 300.582 72.5138 300.462 72.618C300.394 72.7294 300.354 72.8548 300.346 72.9838C300.338 73.1128 300.362 73.2418 300.417 73.3601C300.529 73.5957 300.593 73.8498 300.605 74.1085C300.605 74.4266 300.365 74.7321 300.54 75.0315L300.931 75.1936C301.139 75.281 301.392 75.5117 301.236 75.6739C301.08 75.836 300.735 75.7612 300.761 75.9483C300.774 75.9962 300.801 76.0395 300.84 76.073C301.132 76.3723 301.49 76.7652 301.321 77.1519C301.437 77.1378 301.554 77.1466 301.666 77.1777C301.778 77.2088 301.882 77.2616 301.972 77.3328C302.48 77.6647 302.905 78.1016 303.214 78.6112C303.312 78.7671 303.396 78.9293 303.494 79.0852C303.715 79.0852 303.774 78.7983 303.754 78.5863L303.637 77.6196C303.615 77.3729 303.569 77.1287 303.5 76.89C303.396 76.5532 303.208 76.2663 303.091 75.9171C303.016 75.7571 302.978 75.584 302.978 75.4088C302.978 75.2337 303.016 75.0605 303.091 74.9005C303.305 75.0301 303.487 75.2025 303.625 75.406C303.763 75.6094 303.854 75.8391 303.891 76.0792C303.891 76.2538 303.891 76.4285 303.949 76.5969C304.034 77.1332 304.405 77.6009 304.47 78.1373C304.469 78.3234 304.506 78.5078 304.58 78.6798C304.646 78.7737 304.73 78.8543 304.828 78.9168L305.914 79.7276C306.005 79.7962 306.064 79.9396 306.168 79.896C306.031 79.4344 305.888 78.9792 305.751 78.5177L306.636 79.2411C306.612 79.1342 306.611 79.0236 306.634 78.9163C306.656 78.8091 306.701 78.7073 306.766 78.6175C306.837 78.521 306.941 78.4513 307.06 78.4206C307.179 78.3898 307.305 78.3999 307.417 78.4491C307.468 78.4752 307.512 78.5119 307.546 78.5563C307.581 78.6008 307.604 78.652 307.615 78.7063C307.627 78.7606 307.625 78.8166 307.611 78.8702C307.597 78.9239 307.571 78.9739 307.534 79.0166C307.761 78.826 308.044 78.7089 308.345 78.682C308.645 78.6551 308.946 78.7199 309.206 78.8669C309.324 78.9592 309.462 79.0252 309.609 79.0603C309.889 79.0977 310.175 78.8357 310.429 78.9605C310.683 79.0852 310.735 79.5405 311.021 79.5155C311.197 79.5155 311.327 79.291 311.49 79.3409L311.548 79.74C312.004 79.6964 312.57 79.5529 312.641 79.1164C312.644 79.0362 312.657 78.9566 312.68 78.8794C312.731 78.7781 312.81 78.6919 312.908 78.6299C313.28 78.3725 313.549 78.0005 313.669 77.576C313.723 77.3629 313.7 77.1385 313.605 76.9392C313.509 76.74 313.346 76.5776 313.142 76.4784C313.031 76.3848 313.142 76.2102 313.253 76.1229C313.363 76.0356 313.506 75.9046 313.441 75.7799C313.376 75.6551 313.305 75.6676 313.253 75.599C313.103 75.4244 313.324 75.1188 313.175 74.9379C313.109 74.8506 312.992 74.8319 312.901 74.7758C312.84 74.7287 312.789 74.6702 312.752 74.6038C312.714 74.5374 312.691 74.4645 312.684 74.3894C312.677 74.3144 312.685 74.2386 312.709 74.1668C312.733 74.0949 312.772 74.0284 312.823 73.9713C313.041 73.746 313.321 73.584 313.63 73.5036L314.502 73.1917C314.729 73.1107 314.996 72.9797 315.003 72.7427C315.009 72.5057 314.879 72.3685 315.003 72.2687C315.126 72.1689 315.198 72.2687 315.295 72.2188C315.523 72.1627 315.562 71.8634 315.543 71.6326C315.523 71.4019 315.543 71.3021 315.51 71.1337C315.494 71.0618 315.494 70.9873 315.51 70.9154C315.562 70.7844 315.705 70.7096 315.822 70.6223C315.94 70.535 316.037 70.3728 315.953 70.2543L314.768 70.3042C314.595 70.3275 314.419 70.3015 314.261 70.2294C314.223 70.2093 314.19 70.1821 314.163 70.1494C314.136 70.1168 314.116 70.0793 314.105 70.0392C314.093 69.9991 314.09 69.9572 314.096 69.916C314.101 69.8747 314.116 69.835 314.137 69.7991L313.851 69.7055V69.0819C313.846 69.0219 313.857 68.9616 313.884 68.9073C313.92 68.8496 313.972 68.8023 314.033 68.7701L314.586 68.4146C314.572 68.5131 314.59 68.6134 314.638 68.7016C314.686 68.7899 314.761 68.8617 314.853 68.9073C315.029 68.9073 315.055 68.664 314.977 68.5144C314.899 68.3647 314.762 68.215 314.834 68.0591C314.834 68.0092 314.905 67.9655 314.938 67.9094C315.081 67.6475 314.658 67.3481 314.742 67.0613L313.78 66.818C313.704 66.7018 313.619 66.5912 313.526 66.4875C312.597 66.6856 311.648 66.786 310.696 66.7869H310.468C310.447 67.0289 310.463 67.2724 310.514 67.5103L310.976 67.1423C310.937 67.6067 310.988 68.0738 311.125 68.5206C311.149 68.5759 311.162 68.6353 311.162 68.6952C311.162 68.7552 311.149 68.8145 311.125 68.8698C311.06 68.9634 310.924 68.9946 310.845 69.0819C310.605 69.3376 311.067 69.7554 310.904 70.061C310.546 70.061 310.253 69.587 309.935 69.743C309.863 69.7804 309.805 69.8552 309.726 69.8739C309.648 69.8926 309.401 69.7118 309.414 69.5309C309.427 69.3501 309.538 69.1941 309.557 69.0133C309.543 68.7501 309.483 68.491 309.382 68.2462C309.363 67.9983 309.324 67.7523 309.265 67.5103C309.173 67.2733 308.881 67.08 308.66 67.2047C308.654 66.979 308.575 66.7606 308.432 66.5811C306.404 66.2401 304.491 65.4357 302.856 64.2361L302.778 64.2923C302.599 64.5441 302.527 64.8519 302.577 65.1529C302.577 65.4522 302.485 65.8202 302.186 65.9013C301.926 65.7079 301.972 65.2776 301.705 65.0843C301.581 64.997 301.412 64.9845 301.282 64.8972C301.195 64.8166 301.127 64.7194 301.082 64.612C301.038 64.5045 301.017 64.3892 301.022 64.2736C300.977 64.0836 300.977 63.8864 301.023 63.6966C301.068 63.5067 301.156 63.3288 301.282 63.1759C301.333 63.1321 301.39 63.0945 301.451 63.0637C299.128 60.7936 310.696 62.0845 310.696 58.642C310.696 56.2597 310.123 55.0747 309.655 54.5509C310.74 54.8432 311.866 54.9695 312.992 54.9251C317.364 54.9251 318.913 43.7555 321.268 46.9486C321.388 46.832 321.536 46.7455 321.7 46.6966C321.863 46.6476 322.036 46.6378 322.205 46.6679C323.252 46.8925 323.33 48.4142 324.241 48.9567H325.458C325.565 49.1314 325.723 49.2725 325.912 49.3632C326.102 49.4539 326.314 49.4903 326.525 49.4681C326.816 49.444 327.091 49.3302 327.309 49.1435C327.527 48.9569 327.677 48.7076 327.735 48.4329C327.784 48.152 327.716 47.8638 327.546 47.6304C327.375 47.397 327.116 47.2373 326.824 47.1856C326.643 47.1816 326.462 47.165 326.284 47.1357C326.115 47.0796 325.958 46.9049 326.024 46.7428C326.323 46.3436 326.986 46.4933 327.377 46.7989C327.767 47.1045 328.092 47.5411 328.574 47.6845C328.841 47.0047 329.934 46.8301 330.051 46.1129C330.044 45.9303 330.063 45.7477 330.109 45.5703C330.265 45.1961 330.883 45.1462 330.981 44.7596C330.998 44.592 330.983 44.4229 330.935 44.2607C330.901 44.072 330.931 43.8776 331.021 43.7067C331.111 43.5357 331.257 43.3975 331.436 43.3127Z" fill="#CDC9C9"/>
<path d="M322.99 49.0067C322.83 48.8922 322.649 48.8056 322.457 48.751C322.83 49.5008 323.124 50.2842 323.335 51.0897C323.446 51.0193 323.548 50.9377 323.641 50.8464C323.676 50.513 323.636 50.1763 323.524 49.8589C323.412 49.5416 323.23 49.251 322.99 49.0067Z" fill="#CDC9C9"/>
<path d="M300.478 50.5405C300.503 50.5466 300.53 50.5466 300.556 50.5405C300.579 50.544 300.603 50.544 300.627 50.5405C300.675 50.536 300.723 50.5427 300.767 50.5601C300.811 50.5775 300.85 50.605 300.881 50.6403C300.959 50.6964 301.057 50.7463 301.141 50.6964C301.226 50.6465 301.206 50.5405 301.174 50.4594C301.128 50.3848 301.099 50.302 301.089 50.2162C301.085 50.1768 301.085 50.1371 301.089 50.0977C301.098 50.0263 301.085 49.954 301.051 49.8898C301.018 49.8255 300.965 49.772 300.9 49.736C300.839 49.6952 300.767 49.6733 300.692 49.6733C300.618 49.6733 300.545 49.6952 300.484 49.736C300.545 49.7992 300.588 49.8766 300.608 49.9605C300.615 50.0034 300.605 50.0475 300.58 50.0835C300.555 50.1196 300.515 50.1448 300.471 50.1538C300.406 50.1538 300.347 50.1102 300.289 50.0977C300.242 50.0866 300.193 50.0919 300.15 50.1124C300.107 50.133 300.073 50.1676 300.055 50.2099C300.162 50.3546 300.308 50.4688 300.478 50.5405Z" fill="#CDC9C9"/>
<path d="M319.951 33.1535L320.946 33.2658C321.115 33.2658 321.343 33.4092 321.252 33.5464C321.018 33.5027 320.822 33.7834 320.881 34.0079C320.921 34.1165 320.985 34.2154 321.069 34.2973C321.154 34.3793 321.256 34.4423 321.369 34.4819C322.794 35.1055 324.518 34.0516 326.008 34.5193C326.801 34.7687 327.4 35.4236 328.187 35.698C328.512 35.8102 328.935 35.935 328.948 36.2655C328.948 36.3528 328.948 36.4339 328.948 36.5212C328.968 36.65 329.031 36.769 329.129 36.8593C329.227 36.9497 329.353 37.0062 329.488 37.0201C329.757 37.0377 330.028 37.0272 330.295 36.9889C330.859 36.9578 331.414 37.1315 331.85 37.4754C331.973 37.5814 331.765 37.7248 331.655 37.8371C331.401 38.0803 331.687 38.5356 332.038 38.5917C332.398 38.6033 332.755 38.5237 333.073 38.361C333.696 38.1207 334.389 38.103 335.025 38.3111C335.339 38.4219 335.619 38.6087 335.837 38.8534C336.055 39.0981 336.203 39.3925 336.267 39.708C336.282 39.7554 336.286 39.8056 336.277 39.8544C336.268 39.9032 336.246 39.9492 336.215 39.9887C336.149 40.0448 336.063 40.0739 335.974 40.0698C335.565 40.0815 335.162 39.977 334.815 39.7695C334.467 39.562 334.192 39.2607 334.023 38.9035C333.995 38.8124 333.938 38.7318 333.86 38.6728C333.816 38.649 333.767 38.6361 333.717 38.6354C333.222 38.6354 332.975 39.2902 333.216 39.708C333.508 40.0948 333.935 40.369 334.42 40.4814C335.612 40.9949 336.936 41.1598 338.225 40.9553C339.525 40.8897 340.815 40.7165 342.083 40.4377L341.498 39.6644C341.215 39.2221 340.838 38.8418 340.392 38.5481C339.494 38.0491 338.258 38.2799 337.458 37.6438C337.253 37.43 337.021 37.2415 336.768 37.0825C336.563 36.9983 336.341 36.9559 336.118 36.9578C335.064 36.9016 334.008 36.9141 332.956 36.9952C332.6 37.0588 332.233 37.0264 331.895 36.9016C331.342 36.6335 331.199 35.9537 330.822 35.4797C330.488 35.1106 330.075 34.8149 329.612 34.6128L328.851 34.2199C328.694 34.1271 328.526 34.0537 328.35 34.0017C327.985 33.9019 327.595 34.0017 327.231 33.9019C326.888 33.8256 326.564 33.688 326.274 33.4965L324.511 32.4987C324.332 32.3771 324.128 32.2941 323.913 32.2554C323.444 32.218 322.995 32.586 322.546 32.455C322.392 32.3954 322.245 32.3179 322.111 32.2243C321.719 31.9998 321.261 31.9068 320.809 31.9599C320.356 32.013 319.935 32.2091 319.612 32.5174C319.566 32.5542 319.527 32.5997 319.499 32.6511C319.471 32.7026 319.454 32.7589 319.45 32.8167C319.437 33.0412 319.723 33.1223 319.951 33.1535Z" fill="#CDC9C9"/>
<path d="M352.665 76.8833C352.566 76.5988 352.416 76.3329 352.223 76.0975C352.023 75.9118 351.805 75.7447 351.572 75.5986C350.819 75.0779 350.267 74.332 350.004 73.4782C350.144 73.3831 350.262 73.2606 350.35 73.1187C350.437 72.9768 350.492 72.8187 350.511 72.6549C350.693 71.7472 350.68 70.8136 350.472 69.9109C350.206 68.8943 349.588 68.121 348.365 68.4453C348.227 68.4863 348.085 68.5093 347.942 68.5139C347.382 68.4765 346.94 67.6845 346.452 67.9526C346.029 67.7593 346.419 67.0733 346.159 66.7053C346.042 66.5307 345.795 66.4247 345.801 66.2189C345.808 66.0131 345.899 66.0131 345.944 65.9071C345.957 65.8365 345.955 65.7642 345.939 65.6944C345.922 65.6246 345.891 65.5586 345.847 65.5005C345.804 65.4424 345.748 65.3932 345.685 65.3559C345.621 65.3187 345.55 65.294 345.476 65.2834C345.319 65.2741 345.162 65.2947 345.013 65.3439C344.865 65.3932 344.728 65.4701 344.611 65.5703C344.376 65.7723 344.121 65.9519 343.85 66.1066C344.128 66.3887 344.333 66.7305 344.446 67.1037C344.559 67.4769 344.578 67.8706 344.5 68.252C343.964 68.3455 343.411 68.2479 342.945 67.9776C342.856 67.8946 342.75 67.8308 342.633 67.7905C342.527 67.7718 342.418 67.7848 342.321 67.8279C341.731 68.0773 341.217 68.4682 340.831 68.9629L340.733 69.0752C340.479 68.5321 340.06 68.0754 339.53 67.7655C339.12 67.8154 338.938 68.3019 339.003 68.6948C339.068 69.0877 339.282 69.4369 339.321 69.8298C339.152 70.2788 338.326 69.9047 338.02 70.2539C337.95 70.3557 337.913 70.475 337.913 70.5969C337.913 70.7188 337.95 70.8381 338.02 70.9399C338.15 71.1457 338.346 71.3141 338.469 71.5261C338.15 72.0126 337.819 72.5053 337.519 72.998C337.454 72.7922 337.357 72.5489 337.142 72.5053C336.927 72.4616 336.648 72.7984 336.589 73.0853C336.53 73.3721 336.433 73.7089 336.134 73.7775C336.257 74.1455 336.882 73.9334 337.188 74.1704C337.493 74.4074 337.363 74.7005 337.383 74.9936C337.402 75.2867 337.702 75.6173 337.942 75.4489C338.038 75.3535 338.092 75.226 338.092 75.0934C338.248 74.1185 338.665 73.1989 339.302 72.4242C339.513 72.2317 339.65 71.977 339.692 71.7008C339.692 71.4638 339.536 71.2268 339.627 71.0023C339.718 70.7778 340.193 70.7279 340.519 70.6031C340.448 70.7316 340.36 70.851 340.258 70.9586C340.083 71.1332 339.855 71.2767 339.777 71.5074C339.699 71.7382 339.822 72.1311 339.673 72.3556C339.583 72.4724 339.476 72.5755 339.354 72.6612C339.062 72.9886 338.896 73.4028 338.886 73.8336C338.671 74.7051 338.702 75.6158 338.977 76.4717C339.219 76.8871 339.419 77.3235 339.575 77.7751C339.321 77.9622 338.957 77.7751 338.723 77.5444C338.489 77.3136 338.209 77.0641 337.897 77.1515C337.584 77.2388 337.448 77.482 337.214 77.3822C337.293 77.0643 337.259 76.7304 337.119 76.4325C336.979 76.1346 336.74 75.8896 336.439 75.7358C336.364 75.7055 336.3 75.6529 336.258 75.5856C336.216 75.5182 336.197 75.4398 336.205 75.3616C335.854 75.3616 335.698 75.7732 335.626 76.1037C335.555 76.4343 335.353 76.8521 335.008 76.796C334.891 76.796 334.787 76.7024 334.67 76.7087C334.403 76.7087 334.325 77.0829 334.097 77.2076C333.87 77.3323 333.661 77.2076 333.447 77.3198C333.232 77.4321 333.225 77.5568 333.102 77.6504C332.783 77.8936 332.328 77.6504 332.002 77.4383C331.677 77.2263 331.202 77.0018 330.903 77.2637C330.604 77.5256 330.714 77.8874 330.526 78.1119C330.337 78.3364 329.732 78.4985 329.673 78.879C329.545 78.7783 329.38 78.7286 329.215 78.7402C329.049 78.7518 328.894 78.8238 328.782 78.9413C328.791 79.3872 328.935 79.8208 329.198 80.1886C328.954 80.4404 328.654 80.6364 328.32 80.7624C328.461 81.1159 328.64 81.4545 328.854 81.7727C328.528 81.9723 328.626 82.5148 328.314 82.7331C328.131 82.8641 327.884 82.8267 327.663 82.8766C327.442 82.9264 327.227 83.1697 327.37 83.3381C327.348 83.4118 327.307 83.4792 327.251 83.5343C327.195 83.5895 327.126 83.6308 327.05 83.6548C326.974 83.6787 326.893 83.6845 326.814 83.6717C326.734 83.6589 326.66 83.6279 326.596 83.5813C326.401 83.3505 326.336 83.02 326.102 82.8204C325.757 82.5273 325.217 82.6458 324.8 82.4712C324.676 82.4036 324.545 82.3473 324.41 82.3028C323.974 82.1968 323.571 82.6458 323.525 83.0824C323.537 83.5215 323.607 83.9573 323.733 84.3795C323.795 84.5904 323.793 84.8138 323.728 85.0237C323.662 85.2335 323.535 85.4211 323.363 85.5645C323.167 85.6767 322.92 85.7079 322.771 85.8763C322.471 86.2131 322.855 86.6995 322.933 87.1236C322.965 87.4245 322.921 87.7284 322.803 88.0092C322.641 88.4956 322.341 89.0819 321.814 89.0444C321.404 89.0444 321.164 88.6017 321.014 88.2212C320.931 87.822 320.7 87.4651 320.363 87.2171C319.713 86.8617 318.874 87.5726 318.158 87.3419L318.334 87.8034C318.002 87.8782 317.924 88.3023 317.989 88.6204C318.11 88.9267 318.139 89.2593 318.073 89.5808C317.924 89.9425 317.468 90.0735 317.078 90.1608C317.204 90.5805 317.226 91.0224 317.143 91.4517C317.293 91.6014 316.961 91.9818 316.746 92.0192C316.527 92.025 316.308 92.0019 316.096 91.9506C315.871 91.9393 315.649 92.0044 315.469 92.1345C315.29 92.2645 315.164 92.4512 315.113 92.6616L316.414 93.0233C316.565 93.0796 316.729 93.0968 316.889 93.0732C317.051 93.0239 317.196 92.9358 317.312 92.8175C318.334 91.9818 319.915 91.6014 321.008 92.356C321.222 92.5119 321.45 92.7115 321.717 92.6865C321.891 92.6558 322.052 92.5754 322.179 92.4558C322.628 92.1066 323.128 91.6638 323.102 91.1025C323.08 90.9536 323.08 90.8023 323.102 90.6535C323.187 90.3354 323.597 90.2231 323.851 90.0298C324.449 89.4997 324.026 88.5455 323.577 87.8907L325.262 86.8804C325.401 86.7821 325.565 86.7218 325.737 86.7058C325.915 86.7283 326.085 86.7856 326.238 86.8741C327.214 87.2857 328.288 86.5935 329.036 85.8701C329.339 86.2321 329.758 86.489 330.227 86.6016C330.697 86.7142 331.193 86.6763 331.638 86.4937C331.797 86.6324 331.894 86.8241 331.91 87.0295C331.926 87.2348 331.859 87.4382 331.723 87.5976C331.439 87.9048 331.075 88.135 330.669 88.2649C330.95 88.58 331.144 88.9572 331.235 89.3625C331.273 89.5641 331.235 89.7722 331.128 89.9494C331.021 90.1266 330.851 90.2612 330.649 90.3292L330.89 90.7532C331.228 90.6826 331.579 90.7042 331.905 90.8156C332.065 90.8785 332.2 90.9899 332.288 91.1329C332.376 91.2759 332.413 91.4427 332.393 91.6076C331.827 91.907 331.131 91.6825 330.506 91.5203C329.882 91.3582 329.088 91.3395 328.736 91.8571C328.5 92.3959 328.096 92.8513 327.578 93.1605C327.688 92.9761 327.731 92.7627 327.703 92.5524C327.675 92.3421 327.577 92.1463 327.422 91.9943C326.967 91.7448 326.446 92.1876 326.121 92.6179C325.796 93.0483 325.392 93.5222 324.892 93.3726C324.716 93.3227 324.553 93.1979 324.371 93.2042C324.276 93.2212 324.186 93.2572 324.106 93.3099C324.027 93.3625 323.96 93.4306 323.909 93.5098C323.742 93.6618 323.608 93.8444 323.515 94.0469C323.422 94.2493 323.373 94.4674 323.369 94.6885C323.428 95.1313 324.085 95.4493 324.352 95.0876C324.228 94.6573 324.163 94.071 324.579 93.8403C324.996 93.6095 325.542 94.1646 325.432 94.6386C325.349 94.865 325.206 95.0667 325.016 95.2232C324.827 95.3798 324.597 95.4857 324.352 95.5304C323.863 95.6148 323.382 95.7379 322.914 95.8983C322.725 95.9794 322.549 96.2476 322.732 96.3474C322.911 96.4459 323.124 96.4728 323.324 96.4222C323.394 96.6099 323.402 96.8141 323.346 97.0064C323.29 97.1986 323.173 97.3694 323.011 97.4949C322.844 97.6087 322.644 97.6699 322.439 97.6699C322.234 97.6699 322.034 97.6087 321.866 97.4949C321.157 96.996 321.424 95.8672 320.903 95.1874C320.796 95.0471 320.658 94.9316 320.498 94.8496C320.338 94.7675 320.161 94.721 319.98 94.7134C319.602 94.7448 319.242 94.8789 318.941 95.0998C318.64 95.3208 318.411 95.6194 318.282 95.9607C318.218 96.1088 318.122 96.2426 318.002 96.3536C317.709 96.5781 317.293 96.4471 316.935 96.3536C316.577 96.2601 316.076 96.3099 315.985 96.6592C316.754 97.5493 317.742 98.2416 318.861 98.6736C318.973 98.7036 319.072 98.7696 319.14 98.8607C319.173 98.9834 319.173 99.1121 319.14 99.2349C319.153 99.4083 319.204 99.5773 319.289 99.7309C319.374 99.8845 319.492 100.019 319.635 100.127C319.858 100.393 320.156 100.592 320.494 100.7C320.578 100.719 320.666 100.721 320.751 100.706C320.837 100.691 320.918 100.66 320.991 100.615C321.064 100.57 321.126 100.511 321.175 100.442C321.224 100.373 321.257 100.296 321.274 100.214C321.274 99.5903 320.051 99.4843 320.071 98.8544C320.301 98.749 320.553 98.698 320.808 98.7056C321.063 98.7132 321.312 98.7792 321.535 98.8981C321.676 99.1334 321.867 99.3375 322.096 99.497C322.325 99.6565 322.586 99.7679 322.863 99.8238C323.14 99.8797 323.426 99.8789 323.703 99.8215C323.98 99.7641 324.241 99.6513 324.469 99.4906C324.853 99.185 325.119 98.7297 325.62 98.5925C326.381 98.3805 327.045 99.0914 327.767 99.4095C328.684 99.8149 329.758 99.5841 330.74 99.3409L333.225 98.7172L331.827 98.5488C332.592 98.3369 333.316 98.0039 333.967 97.5635C333.947 97.3773 333.863 97.203 333.727 97.0685C333.591 96.9339 333.412 96.8469 333.219 96.8213C334.273 96.6155 334.566 95.2248 335.49 94.6885C335.804 94.5562 336.106 94.3998 336.394 94.2207C336.563 94.0466 336.692 93.8395 336.77 93.6135C336.849 93.3875 336.876 93.1479 336.849 92.9111C336.83 92.3562 336.693 91.8109 336.446 91.3089C336.199 90.8069 335.847 90.3588 335.411 89.9924C336.087 90.2726 336.827 90.38 337.558 90.3042C337.558 90.7283 337.871 91.3395 338.241 91.0962C338.339 91.0157 338.409 90.9094 338.443 90.7907L339.094 89.1816C339.222 88.7755 339.444 88.4023 339.744 88.0903C340.278 87.61 341.156 87.5477 341.585 86.9739C341.52 87.2296 341.859 87.4292 342.112 87.3544C342.236 87.3019 342.347 87.2264 342.44 87.1322C342.533 87.0379 342.605 86.9269 342.652 86.8055C342.965 86.238 343.082 85.3524 342.464 85.1217C341.846 84.8909 341.026 85.3961 340.805 84.8598C340.756 84.7159 340.756 84.5609 340.805 84.417C341.003 83.66 341.376 82.9554 341.896 82.3553C342.416 81.7551 343.07 81.2746 343.81 80.9495C344.305 80.7374 344.929 80.4755 344.929 79.9516C345.017 79.9663 345.101 79.998 345.175 80.0449C345.249 80.0917 345.313 80.1527 345.362 80.224C345.41 80.2953 345.443 80.3755 345.459 80.4595C345.474 80.5435 345.471 80.6296 345.45 80.7125C345.836 80.7567 346.226 80.6561 346.536 80.4318C346.276 80.251 346.354 79.8082 346.575 79.6149C346.824 79.4175 347.082 79.2322 347.35 79.0598C348 78.4798 348.111 77.2263 349.009 77.0891C349.659 77.3448 349.601 78.3052 349.314 78.96C349.028 79.6149 348.664 80.4318 349.191 80.9432C349.294 80.7171 349.447 80.5154 349.641 80.3526C349.834 80.1898 350.063 80.07 350.31 80.0015C350.082 80.2828 349.942 80.6206 349.908 80.9752C349.873 81.3298 349.945 81.6866 350.115 82.0034C350.453 81.2114 351.083 80.5657 351.884 80.1886C351.845 79.9828 351.806 79.777 351.761 79.565C352.353 79.7022 352.925 79.1534 353.023 78.5671C353.064 77.9852 352.94 77.4035 352.665 76.8833Z" fill="#CDC9C9"/>
<path d="M298.852 89.3196C298.559 89.1138 298.201 88.9329 298.123 88.5899C298.078 88.4277 298.091 88.2282 297.967 88.1159C297.843 88.0037 297.583 88.0099 297.356 88.0161C296.743 88.031 296.137 87.8912 295.599 87.6108C295.451 87.5138 295.289 87.4382 295.118 87.3862C294.929 87.3491 294.734 87.3491 294.545 87.3862C294.01 87.5058 293.511 87.7426 293.088 88.078C292.665 88.4135 292.328 88.8384 292.105 89.3196C292.039 89.6132 291.896 89.8857 291.689 90.1116C291.564 90.1927 291.452 90.2915 291.357 90.4047C291.33 90.4516 291.316 90.5041 291.316 90.5575C291.316 90.6109 291.33 90.6635 291.357 90.7103C291.431 90.9462 291.562 91.1619 291.739 91.3398C291.917 91.5176 292.136 91.6524 292.379 91.7331C292.561 91.8017 292.775 91.8578 292.821 92.0262C292.837 92.1776 292.837 92.3301 292.821 92.4815C292.821 92.8619 293.335 92.9367 293.621 93.155C293.907 93.3733 293.999 93.9845 294.33 94.2963C294.649 94.5224 295.028 94.6585 295.423 94.6892L296.523 94.8825C296.97 95.0046 297.44 95.0276 297.897 94.9498C298.355 94.872 298.788 94.6954 299.164 94.4335C299.377 94.265 299.554 94.0575 299.682 93.8229C299.81 93.5884 299.889 93.3316 299.912 93.0677C299.912 92.6543 299.812 92.2466 299.62 91.8765C299.758 91.8368 299.885 91.7656 299.989 91.669C300.094 91.5724 300.172 91.4532 300.218 91.3215C300.272 91.1101 300.239 90.887 300.127 90.6978C299.833 90.1405 299.394 89.6656 298.852 89.3196Z" fill="#CDC9C9"/>
<path d="M335.815 98.4062C336.075 98.4778 336.351 98.4796 336.613 98.4115C336.874 98.3433 337.111 98.2078 337.298 98.0196C337.37 97.9576 337.418 97.8741 337.434 97.7826C337.44 97.7374 337.428 97.6917 337.4 97.6547C337.373 97.6177 337.331 97.5921 337.285 97.583C336.829 97.9198 336.055 97.7327 335.723 98.2067C335.705 98.2243 335.692 98.2462 335.685 98.2703C335.678 98.2944 335.678 98.3197 335.684 98.3439C335.7 98.3626 335.72 98.3778 335.742 98.3886C335.765 98.3993 335.789 98.4053 335.815 98.4062Z" fill="#CDC9C9"/>
<path d="M333.261 99.2416C333.176 99.2531 333.094 99.2807 333.02 99.3227C332.708 99.4474 332.37 99.4349 332.031 99.5472C331.831 99.6325 331.641 99.7392 331.465 99.8652L330.457 100.564L332.663 100.115C332.853 100.078 333.04 100.026 333.222 99.9588C333.515 99.8278 333.749 99.5971 334.035 99.4474L333.476 99.279C333.408 99.2516 333.335 99.2388 333.261 99.2416Z" fill="#CDC9C9"/>
<path d="M341.205 41.3731C341.169 41.2827 341.108 41.2038 341.027 41.1454C340.947 41.087 340.851 41.0514 340.75 41.0426C340.546 41.0282 340.342 41.058 340.152 41.1299C339.572 41.3037 339.019 41.549 338.506 41.8596C338.371 41.9336 338.25 42.0284 338.148 42.1402C337.93 42.4745 337.851 42.8752 337.927 43.2628L339.163 43.2254C339.275 43.216 339.388 43.216 339.501 43.2254C339.726 43.2786 339.944 43.356 340.152 43.4561C340.422 43.5609 340.713 43.6077 341.004 43.5933C341.059 43.5176 341.089 43.4272 341.089 43.3345C341.089 43.2418 341.059 43.1514 341.004 43.0757C340.897 42.9247 340.822 42.7553 340.783 42.5768C340.737 42.1464 341.342 41.7972 341.205 41.3731Z" fill="#CDC9C9"/>
<path d="M339.618 47.5906C339.909 47.6169 340.198 47.6586 340.484 47.7154C340.771 47.7702 341.069 47.7307 341.329 47.6031C341.456 47.5344 341.555 47.427 341.61 47.2982C341.666 47.1693 341.674 47.0264 341.635 46.8921C341.52 46.6985 341.338 46.5488 341.121 46.4681L340.594 46.2124C340.472 46.1644 340.367 46.0817 340.295 45.9754C340.197 45.7821 340.341 45.5575 340.49 45.3892C340.64 45.2208 340.802 45.0212 340.744 44.8154C340.701 44.7009 340.621 44.6025 340.516 44.5348C340.226 44.301 339.902 44.1097 339.553 43.9672C339.421 43.9053 339.277 43.8672 339.13 43.855C338.933 43.8629 338.739 43.9052 338.558 43.9797L337.686 44.304C337.593 44.3269 337.505 44.3673 337.428 44.423C337.351 44.4787 337.286 44.5484 337.237 44.6283C337.172 44.7967 337.354 45.0399 337.523 44.9464C337.667 45.2956 337.263 45.6199 337.166 45.9816C337.153 46.2972 337.217 46.6113 337.352 46.8992C337.488 47.1871 337.691 47.4408 337.946 47.6405C338.054 47.6804 338.169 47.7015 338.285 47.7029C338.734 47.7216 339.176 47.5782 339.618 47.5906Z" fill="#CDC9C9"/>
<path d="M345.628 42.4082C345.714 42.4841 345.82 42.5377 345.934 42.5641C345.993 42.573 346.053 42.5617 346.104 42.532C346.155 42.5023 346.194 42.4563 346.213 42.402C346.214 42.318 346.184 42.2364 346.129 42.1712L345.79 41.6474C345.695 41.4907 345.574 41.3496 345.433 41.2295C345.36 41.1727 345.273 41.1357 345.18 41.1226C345.087 41.1094 344.992 41.1205 344.906 41.1547C344.868 41.2775 344.861 41.4072 344.886 41.533C344.911 41.6588 344.967 41.7772 345.049 41.8781C345.21 42.0839 345.406 42.2629 345.628 42.4082Z" fill="#CDC9C9"/>
<path d="M347.955 45.333C348.136 45.4228 348.306 45.5316 348.462 45.6573C348.546 45.7635 348.615 45.8786 348.671 46.0003C348.858 46.3455 349.133 46.6395 349.471 46.8547C349.499 46.6188 349.481 46.3798 349.419 46.15C349.401 46.064 349.363 45.983 349.308 45.913C349.226 45.8359 349.128 45.7745 349.022 45.7322C348.791 45.6118 348.6 45.4326 348.469 45.2145C348.421 45.1164 348.365 45.0224 348.3 44.9339C348.111 44.6844 347.786 44.5784 347.571 44.3477C347.474 44.2479 347.402 44.1232 347.298 44.0359C347.25 43.9872 347.187 43.9535 347.119 43.939C347.051 43.9246 346.979 43.9301 346.914 43.9548C347.064 44.1918 347.213 44.435 347.369 44.672C347.516 44.9283 347.715 45.1533 347.955 45.333Z" fill="#CDC9C9"/>
<path d="M345.766 86.3694C345.722 86.3351 345.67 86.3106 345.615 86.2977C345.56 86.2847 345.503 86.2837 345.447 86.2946C345.343 86.332 345.278 86.4754 345.356 86.5503C345.184 86.6071 345.004 86.6386 344.822 86.6438C344.64 86.6438 344.445 86.7748 344.432 86.9556C344.439 87.0137 344.439 87.0722 344.432 87.1303C344.393 87.2425 344.23 87.2862 344.211 87.4047C344.211 87.4516 344.23 87.4966 344.264 87.5304C344.298 87.5641 344.344 87.5839 344.393 87.5855C344.49 87.5828 344.584 87.55 344.66 87.492C344.814 87.3654 344.993 87.2699 345.187 87.2113C345.388 87.2113 345.636 87.3173 345.616 87.5107C345.743 87.4925 345.861 87.439 345.955 87.3569C346.05 87.2749 346.118 87.1678 346.15 87.0492C346.145 86.915 346.108 86.7837 346.042 86.6657C345.975 86.5476 345.881 86.4462 345.766 86.3694Z" fill="#CDC9C9"/>
<path d="M341.782 57.6252C341.763 57.9421 341.807 58.2596 341.912 58.5606C341.99 58.8288 342.061 59.097 342.139 59.3651C342.218 59.6333 342.309 59.9015 342.562 59.9888C342.709 60.0146 342.856 60.0313 343.005 60.0387C343.317 60.1073 343.532 60.4316 343.851 60.4565C344.169 60.4815 344.501 60.0948 344.501 59.7393C344.501 59.3839 344.43 59.0221 344.501 58.6667C344.527 58.4535 344.624 58.2541 344.778 58.0979C344.931 57.9418 345.133 57.8372 345.353 57.7998C345.512 57.8045 345.67 57.7834 345.822 57.7374C345.908 57.6728 345.979 57.5918 346.03 57.4994C346.082 57.4071 346.113 57.3055 346.121 57.2011C346.222 56.8691 346.222 56.5165 346.121 56.1845C346.004 55.879 345.718 55.642 345.646 55.3301C345.513 55.3012 345.373 55.3201 345.253 55.3833C345.133 55.4465 345.042 55.5496 344.996 55.6731C344.908 55.9331 344.894 56.211 344.957 56.4777C344.957 56.3155 344.306 56.7708 344.306 56.802C344.132 56.9516 343.922 57.0573 343.695 57.1096C343.468 57.1619 343.231 57.159 343.005 57.1013C342.426 56.9641 341.892 56.8269 341.782 57.6252Z" fill="#CDC9C9"/>
<path d="M338.094 68.4334C338.247 68.2919 338.346 68.1051 338.374 67.9033C338.48 67.4903 338.457 67.0567 338.309 66.656C338.16 66.3175 337.897 66.0368 337.562 65.8592C337.227 65.6815 336.839 65.6173 336.461 65.6768C336.26 65.7142 336.032 65.7891 335.856 65.6768C335.681 65.5646 335.655 65.3899 335.511 65.2715C335.368 65.153 334.893 65.1966 334.646 65.3837C334.434 65.6122 334.172 65.7931 333.878 65.9138C333.815 65.7931 333.712 65.6956 333.585 65.6359C333.458 65.5763 333.315 65.5578 333.176 65.5833C333.034 65.6198 332.909 65.7014 332.822 65.8146C332.734 65.9278 332.689 66.0661 332.694 66.2069C332.694 66.5624 333.033 66.8306 333.189 67.1486C333.274 67.3493 333.311 67.5662 333.295 67.7824C333.279 67.9987 333.212 68.2086 333.098 68.3959C332.861 68.7743 332.536 69.0946 332.148 69.3314C332.039 69.3916 331.944 69.4722 331.868 69.5684C331.784 69.7684 331.784 69.9921 331.868 70.192C332.011 70.7159 332.18 71.2335 332.369 71.7387C332.662 71.5703 333.02 71.8759 333.163 72.1752C333.306 72.4746 333.469 72.8425 333.813 72.8987C334.158 72.9548 334.562 72.643 334.841 72.855C334.932 72.9174 334.984 73.0296 335.089 73.0733C335.134 73.0915 335.183 73.1008 335.232 73.1008C335.281 73.1008 335.329 73.0915 335.375 73.0733C335.556 72.9865 335.714 72.8625 335.839 72.7102C335.964 72.5578 336.052 72.3809 336.098 72.192C336.143 72.0031 336.144 71.807 336.102 71.6176C336.059 71.4282 335.973 71.2502 335.85 71.0963C336.084 70.6609 336.449 70.3025 336.897 70.0673C337.02 70.0165 337.129 69.9397 337.216 69.8428C337.437 69.5559 337.157 69.1007 337.379 68.8075C337.6 68.5144 337.86 68.6017 338.094 68.4334Z" fill="#CDC9C9"/>
<path d="M339.441 55.025C339.129 53.073 337.522 50.7281 334.985 50.3227C334.078 50.0908 333.118 50.1543 332.253 50.5031C331.389 50.852 330.67 51.4664 330.209 52.2498C329.776 53.051 329.586 53.9527 329.66 54.8524C329.735 55.752 330.072 56.6135 330.632 57.3388C331.208 58.0481 331.951 58.616 332.8 58.9955C333.65 59.3751 334.581 59.5554 335.518 59.5215C336.112 59.5573 336.705 59.4583 337.251 59.2327C337.797 59.007 338.28 58.6611 338.66 58.223C339.041 57.7849 339.308 57.267 339.44 56.7113C339.572 56.1557 339.566 55.5779 339.422 55.025H339.441Z" fill="#CDC9C9"/>
<path d="M498 163C498.271 157.827 500.517 152.955 504.275 149.389C508.032 145.823 513.015 143.835 518.196 143.835C518.811 143.835 519.417 143.868 520.018 143.921C522.38 139.857 525.768 136.484 529.841 134.139C533.915 131.793 538.533 130.558 543.234 130.556C547.934 130.553 552.553 131.785 556.629 134.126C560.705 136.468 564.096 139.837 566.462 143.899C566.969 143.861 567.478 143.835 567.995 143.835C573.175 143.835 578.158 145.823 581.916 149.389C585.674 152.955 587.92 157.827 588.191 163" fill="#F2F2F2"/>
<path d="M502.211 161.445C502.482 156.271 504.728 151.399 508.485 147.833C512.243 144.267 517.226 142.279 522.407 142.28C523.021 142.28 523.628 142.312 524.229 142.365C526.591 138.301 529.979 134.928 534.052 132.583C538.126 130.238 542.744 129.002 547.445 129C552.145 128.998 556.764 130.229 560.84 132.57C564.916 134.912 568.307 138.282 570.673 142.344C571.179 142.306 571.689 142.28 572.206 142.28C577.386 142.279 582.369 144.267 586.127 147.833C589.885 151.399 592.131 156.271 592.402 161.445" stroke="#3F3D56" stroke-miterlimit="10"/>
<path d="M0 54.0001C0.422119 45.9357 3.92314 38.3409 9.7809 32.7822C15.6387 27.2235 23.4064 24.1249 31.4818 24.1256C32.44 24.1256 33.3861 24.1758 34.3224 24.2591C38.0048 17.9241 43.2848 12.666 49.6351 9.01006C55.9855 5.35411 63.1839 3.42825 70.5114 3.42481C77.8389 3.42137 85.0391 5.34047 91.3929 8.99045C97.7467 12.6404 103.032 17.8935 106.72 24.2251C107.51 24.166 108.305 24.1256 109.11 24.1256C117.185 24.1249 124.953 27.2235 130.811 32.7822C136.668 38.3409 140.169 45.9357 140.592 54.0001" fill="#F2F2F2"/>
<path d="M6.5625 51.5753C6.98462 43.5109 10.4856 35.9161 16.3433 30.3574C22.2011 24.7987 29.9688 21.7001 38.0442 21.7008C39.0024 21.7008 39.9485 21.751 40.8849 21.8343C44.5672 15.4993 49.8473 10.2412 56.1976 6.58525C62.5479 2.92931 69.7463 1.00344 77.0739 1C84.4014 0.996564 91.6016 2.91566 97.9554 6.56564C104.309 10.2156 109.594 15.4687 113.282 21.8003C114.072 21.7412 114.867 21.7008 115.672 21.7008C123.748 21.7001 131.515 24.7987 137.373 30.3574C143.231 35.9161 146.732 43.5109 147.154 51.5753" stroke="#3F3D56" stroke-miterlimit="10"/>
<path d="M166.553 179.081L161.887 174.7L187.95 147.395L254.128 147.48L254.159 171.539L211.326 205.383L166.553 179.081Z" fill="#3F3D56"/>
<path d="M266.169 162.83L266.15 148.041L257.364 148.03L257.368 151.651L254.084 147.479L232.681 174.79L224.3 181.341L211.433 292.818L231.078 315.861L276.666 315.92L276.486 175.94L266.169 162.83Z" fill="#CCCCCC"/>
<path d="M232.713 174.792L161.875 174.701L162.056 315.77L232.894 315.861L232.713 174.792Z" fill="#F2F2F2"/>
<path d="M202.541 281.377L189.492 281.36L189.536 315.807L202.585 315.824L202.541 281.377Z" fill="#CCCCCC"/>
<path d="M175.552 291.181L175.545 285.714L169.953 285.707L169.96 291.174L175.552 291.181Z" fill="#3F3D56"/>
<path d="M184.823 285.726L179.23 285.719L179.237 291.187L184.83 291.194L184.823 285.726Z" fill="#3F3D56"/>
<path d="M252.74 181.923L252.733 176.456L247.141 176.449L247.148 181.916L252.74 181.923Z" fill="#3F3D56"/>
<path d="M252.283 186.301L247.156 186.294L247.163 191.762L252.756 191.769L252.749 186.302L252.283 186.301Z" fill="#3F3D56"/>
<path d="M262.077 176.468L256.484 176.46L256.491 181.928L262.084 181.935L262.077 176.468Z" fill="#3F3D56"/>
<path d="M262.085 186.312L256.492 186.305L256.499 191.773L262.092 191.78L262.085 186.312Z" fill="#3F3D56"/>
<path d="M252.772 212.543L252.765 207.076L247.172 207.068L247.179 212.536L252.772 212.543Z" fill="#3F3D56"/>
<path d="M252.322 216.919L247.195 216.912L247.202 222.38L252.795 222.387L252.788 216.919L252.322 216.919Z" fill="#3F3D56"/>
<path d="M262.116 207.09L256.523 207.083L256.53 212.55L262.123 212.558L262.116 207.09Z" fill="#3F3D56"/>
<path d="M262.132 216.93L256.539 216.922L256.546 222.39L262.139 222.397L262.132 216.93Z" fill="#3F3D56"/>
<path d="M252.819 243.166L252.812 237.698L247.219 237.691L247.226 243.158L252.819 243.166Z" fill="#3F3D56"/>
<path d="M252.353 247.537L247.227 247.53L247.234 252.998L252.826 253.005L252.819 247.537L252.353 247.537Z" fill="#3F3D56"/>
<path d="M262.147 237.708L256.555 237.701L256.562 243.169L262.155 243.176L262.147 237.708Z" fill="#3F3D56"/>
<path d="M262.171 247.55L256.578 247.542L256.585 253.01L262.178 253.017L262.171 247.55Z" fill="#3F3D56"/>
<path d="M223.881 181.888L169.82 181.819L169.837 194.942L223.898 195.011L223.881 181.888Z" fill="#3F3D56"/>
<path d="M223.912 208.133L169.852 208.063L169.868 221.186L223.929 221.256L223.912 208.133Z" fill="#3F3D56"/>
<path d="M223.943 234.379L169.883 234.309L169.9 247.432L223.96 247.502L223.943 234.379Z" fill="#3F3D56"/>
<path d="M223.967 260.625L169.906 260.556L169.923 273.679L223.984 273.748L223.967 260.625Z" fill="#3F3D56"/>
<path d="M134.372 253.365L133.031 253.363L133.111 315.487L134.452 315.488L134.372 253.365Z" fill="#3F3D56"/>
<path d="M326.849 251.165L325.508 251.163L325.588 313.287L326.928 313.289L326.849 251.165Z" fill="#3F3D56"/>
<path d="M146.743 261.296C146.859 283.019 133.852 300.684 133.852 300.684C133.852 300.684 120.665 283.128 120.551 261.403C120.437 239.679 133.442 222.016 133.442 222.016C133.442 222.016 146.634 239.572 146.743 261.296Z" fill="#232F3E"/>
<path opacity="0.1" d="M146.743 261.296C146.859 283.019 133.852 300.684 133.852 300.684C133.852 300.684 120.665 283.128 120.551 261.403C120.437 239.679 133.442 222.016 133.442 222.016C133.442 222.016 146.634 239.572 146.743 261.296Z" fill="black"/>
<path d="M116.95 253.34L115.609 253.338L115.689 315.462L117.03 315.463L116.95 253.34Z" fill="#3F3D56"/>
<path d="M129.298 261.274C129.414 282.997 116.407 300.662 116.407 300.662C116.407 300.662 103.219 283.105 103.106 261.381C102.992 239.658 115.997 221.994 115.997 221.994C115.997 221.994 129.184 239.55 129.298 261.274Z" fill="#232F3E"/>
<path d="M339.489 261.545C339.605 283.268 326.598 300.933 326.598 300.933C326.598 300.933 313.411 283.377 313.297 261.652C313.183 239.928 326.188 222.265 326.188 222.265C326.188 222.265 339.375 239.821 339.489 261.545Z" fill="#232F3E"/>
<path d="M370.348 264.597L367.049 258.546L398.255 229.732L478.137 230.124L478.095 238.573L449.083 272.225L415.764 279.303L370.348 264.597Z" fill="#3F3D56"/>
<path d="M491.854 247.153L491.946 228.266L481.487 228.215L481.458 234.169L478.185 230.082L451.417 258.918L446.955 263.723L441.289 287.834L451.144 314.435L502.18 314.685L502.446 260.375L491.854 247.153Z" fill="#CCCCCC"/>
<path d="M451.035 258.958L366.715 258.544L366.443 314.062L450.763 314.476L451.035 258.958Z" fill="#F2F2F2"/>
<path d="M439.263 276.414L421.512 276.327L421.429 293.224L439.18 293.311L439.263 276.414Z" fill="#3F3D56"/>
<path d="M414.31 275.678L398.777 275.602L398.588 314.223L414.12 314.299L414.31 275.678Z" fill="#CCCCCC"/>
<path d="M381.382 281.569L381.411 275.534L374.754 275.501L374.724 281.536L381.382 281.569Z" fill="#3F3D56"/>
<path d="M380.809 286.399L374.707 286.369L374.677 292.403L381.335 292.436L381.364 286.401L380.809 286.399Z" fill="#3F3D56"/>
<path d="M392.129 275.564L385.473 275.532L385.443 281.566L392.1 281.599L392.129 275.564Z" fill="#3F3D56"/>
<path d="M392.074 286.421L385.418 286.388L385.388 292.423L392.045 292.455L392.074 286.421Z" fill="#3F3D56"/>
<path d="M475.193 282.583L475.223 276.549L468.566 276.516L468.537 282.551L475.193 282.583Z" fill="#3F3D56"/>
<path d="M474.618 287.414L468.516 287.384L468.486 293.418L475.143 293.451L475.172 287.416L474.618 287.414Z" fill="#3F3D56"/>
<path d="M485.832 276.665L479.176 276.632L479.146 282.667L485.803 282.699L485.832 276.665Z" fill="#3F3D56"/>
<path d="M485.778 287.523L479.121 287.49L479.092 293.525L485.748 293.557L485.778 287.523Z" fill="#3F3D56"/>
<path d="M510.647 278.973L509.812 278.969L509.637 314.844L510.471 314.848L510.647 278.973Z" fill="#3F3D56"/>
<path d="M518.905 283.518C518.897 296.063 510.737 306.233 510.737 306.233C510.737 306.233 502.588 296.064 502.596 283.523C502.604 270.982 510.763 260.808 510.763 260.808C510.763 260.808 518.913 270.973 518.905 283.518Z" fill="#232F3E"/>
<path d="M347.936 277.2L347.102 277.196L346.926 313.071L347.76 313.075L347.936 277.2Z" fill="#3F3D56"/>
<path d="M356.003 281.897C355.994 294.442 347.835 304.612 347.835 304.612C347.835 304.612 339.685 294.443 339.693 281.902C339.701 269.361 347.861 259.187 347.861 259.187C347.861 259.187 356.011 269.352 356.003 281.897Z" fill="#232F3E"/>
<path d="M569 315L83 315" stroke="black" stroke-opacity="0.2"/>
</svg>
