<svg width="295" height="257" viewBox="0 0 295 257" fill="none" xmlns="http://www.w3.org/2000/svg">
<path d="M112.562 213.237C93.7859 207.396 65.0115 164.431 87.8749 149.178C110.738 133.924 115.948 180.923 132.912 191.464C149.875 202.006 168.889 205.496 167.86 212.67C166.831 219.845 131.337 219.079 112.562 213.237Z" fill="#52379D"/>
<path opacity="0.299" d="M100.569 214.519C81.7937 208.677 53.0193 165.712 75.8827 150.459C98.7461 135.205 103.956 182.204 120.919 192.745C137.883 203.287 156.897 206.777 155.868 213.951C154.839 221.126 119.345 220.36 100.569 214.519Z" fill="#52379D"/>
<path d="M148.871 128.872C169.548 151.938 175.59 170.813 196.325 163.69C217.061 156.566 268.407 95.791 233.173 76.7691C197.939 57.7472 43.7166 63.4461 55.3923 87.6017C67.0681 111.757 128.194 105.808 148.871 128.872Z" fill="#FAEC57"/>
<path opacity="0.299" d="M145.879 136.887C166.555 159.952 172.598 178.827 193.333 171.704C214.068 164.58 265.415 103.805 230.181 84.7834C194.947 65.7615 40.7244 71.4604 52.4001 95.616C64.0759 119.772 125.202 113.822 145.879 136.887Z" fill="#FAEC57"/>
</svg>
