<svg width="228" height="281" viewBox="0 0 228 281" fill="none" xmlns="http://www.w3.org/2000/svg">
<path d="M47.4732 145.384C49.5398 129.321 85.9201 92.6505 105.246 104.283C124.571 115.916 79.6857 136.455 72.6785 152.833C65.6714 169.211 65.9473 184.618 58.7419 186.394C51.5366 188.169 45.4066 161.447 47.4732 145.384Z" fill="#52379D"/>
<path opacity="0.299" d="M43.9459 136.837C46.0125 120.775 82.3928 84.1036 101.718 95.7362C121.044 107.369 76.1584 127.908 69.1512 144.286C62.144 160.664 62.42 176.071 55.2146 177.847C48.0092 179.622 41.8792 152.9 43.9459 136.837Z" fill="#52379D"/>
<path d="M136.875 143.009C118.214 166.563 100.884 177.681 111.781 190.745C122.679 203.809 191.883 221.108 203.831 188.048C215.779 154.988 181.006 41.3232 159.573 58.5077C138.141 75.6922 155.536 119.455 136.875 143.009Z" fill="#FAEC57"/>
<path opacity="0.299" d="M128.469 143.565C109.808 167.119 92.4773 178.236 103.375 191.3C114.273 204.364 183.477 221.663 195.425 188.604C207.373 155.544 172.599 41.8788 151.167 59.0634C129.735 76.2479 147.13 120.011 128.469 143.565Z" fill="#FAEC57"/>
</svg>
