<svg width="320" height="438" viewBox="0 0 320 438" fill="none" xmlns="http://www.w3.org/2000/svg">
<path d="M136.924 117.871C119.382 119.512 108.153 123.773 105.775 115.992C103.397 108.212 119.202 75.5048 138.895 79.0272C158.588 82.5496 200.051 125.686 184.548 130.081C169.044 134.476 154.467 116.229 136.924 117.871Z" fill="#FFEA17"/>
<path opacity="0.299" d="M135.014 122.319C117.472 123.961 106.243 128.222 103.865 120.441C101.487 112.661 117.292 79.9537 136.985 83.4761C156.678 86.9984 198.141 130.135 182.638 134.53C167.134 138.925 152.556 120.678 135.014 122.319Z" fill="#FFEA17"/>
<path d="M77.6653 228.132C44.8736 195.13 16.0182 179.27 31.183 161.672C46.3478 144.074 152.407 122.592 176.073 168.438C199.74 214.285 162.044 369.393 125.849 345.056C89.6537 320.719 110.456 261.133 77.6653 228.132Z" fill="#52379D"/>
<path opacity="0.299" d="M62.6653 230.952C29.8736 197.951 1.01819 182.091 16.183 164.493C31.3478 146.895 137.407 125.412 161.073 171.259C184.74 217.105 147.044 372.214 110.849 347.877C74.6537 323.54 95.4561 263.954 62.6653 230.952Z" fill="#52379D"/>
</svg>
