<svg width="354" height="290" viewBox="0 0 354 290" fill="none" xmlns="http://www.w3.org/2000/svg">
<path d="M75.694 165.79C84.0004 181.328 92.2769 190.032 86.0241 195.237C79.7713 200.442 43.4962 198.535 39.1179 179.015C34.7396 159.494 58.4549 104.562 68.5107 117.154C78.5664 129.746 67.3879 150.252 75.694 165.79Z" fill="#FFEA17"/>
<path opacity="0.299" d="M80.5378 165.828C88.8441 181.366 97.1207 190.069 90.8679 195.274C84.6151 200.48 48.3399 198.573 43.9617 179.052C39.5834 159.532 63.2987 104.6 73.3544 117.192C83.4102 129.784 72.2317 150.29 80.5378 165.828Z" fill="#FFEA17"/>
<path d="M200.298 177.727C182.569 220.74 179.12 253.486 157.022 246.318C134.925 239.151 74.0494 149.685 107.155 110.112C140.26 70.5386 297.864 45.2306 289.442 88.026C281.019 130.821 218.027 134.715 200.298 177.727Z" fill="#52379D"/>
<path opacity="0.299" d="M208.708 190.464C190.979 233.476 187.53 266.222 165.433 259.055C143.335 251.887 82.4595 162.421 115.565 122.848C148.67 83.2748 306.274 57.9668 297.852 100.762C289.43 143.558 226.437 147.452 208.708 190.464Z" fill="#52379D"/>
</svg>
