<svg width="292" height="252" viewBox="0 0 292 252" fill="none" xmlns="http://www.w3.org/2000/svg">
<path d="M50.7757 130.015C55.3999 141.552 60.9161 148.398 55.1702 151.304C49.4243 154.21 20.3919 149.056 19.4728 135.204C18.5537 121.353 45.0618 86.1969 51.4933 95.8989C57.9247 105.601 46.1516 118.478 50.7757 130.015Z" fill="#FFEA17"/>
<path opacity="0.299" d="M54.678 130.554C59.3023 142.091 64.8184 148.937 59.0725 151.843C53.3267 154.75 24.2943 149.595 23.3751 135.744C22.456 121.892 48.9641 86.7362 55.3956 96.4382C61.8271 106.14 50.054 119.017 54.678 130.554Z" fill="#FFEA17"/>
<path d="M149.781 151.417C129.703 179.034 122.53 201.125 105.65 193.866C88.7695 186.607 51.6081 118.796 83.6395 95.1687C115.671 71.5413 246.309 70.9013 233.774 99.3564C221.239 127.811 169.859 123.801 149.781 151.417Z" fill="#52379D"/>
<path opacity="0.299" d="M154.863 161.043C134.785 188.66 127.613 210.751 110.732 203.492C93.8515 196.233 56.6901 128.422 88.7215 104.795C120.753 81.1675 251.391 80.5276 238.856 108.983C226.321 137.438 174.941 133.427 154.863 161.043Z" fill="#52379D"/>
</svg>
