<svg xmlns="http://www.w3.org/2000/svg" width="27" height="26" viewBox="0 0 27 26" fill="none">
    <path fill-rule="evenodd" clip-rule="evenodd" d="M9.58281 24.5029C10.0556 24.9833 10.6206 25.3634 11.2436 25.6206C11.8667 25.8778 12.5352 26.0065 13.2092 25.9995C13.8816 26.0091 14.5489 25.8814 15.1702 25.6241C15.7915 25.3667 16.3536 24.9851 16.8223 24.5029C17.0665 24.2576 17.2478 23.9569 17.3507 23.6264C17.4536 23.296 17.4751 22.9457 17.4134 22.6051C17.1675 21.2599 16.711 18.8191 16.3034 16.5413C15.7488 13.5584 17.9324 10.7068 21.2862 10.023C23.8276 9.51321 25.7631 7.71293 26.2069 5.46732C26.256 5.20727 26.3056 4.96857 26.3426 4.7623C26.3604 4.66577 26.3516 4.56641 26.3169 4.47458C26.2822 4.38275 26.223 4.30203 26.1458 4.2414C26.0632 4.17611 25.9674 4.12977 25.865 4.10547C25.7625 4.08117 25.6561 4.07962 25.553 4.10086C24.8142 4.26339 23.7776 4.48096 22.9263 4.66447C22.4615 4.75036 22.0215 4.93777 21.6377 5.21365C21.2539 5.48953 20.9357 5.84688 20.7062 6.26007C20.5893 6.47499 20.4165 6.65419 20.2057 6.77838C19.995 6.90257 19.7543 6.96701 19.5097 6.96509C19.2635 6.97784 19.0184 6.92673 18.798 6.81647C18.5776 6.70621 18.3894 6.54058 18.252 6.33597C18.2024 6.24939 18.1412 6.16228 18.1042 6.08692C17.9609 5.86631 17.8799 5.61103 17.8699 5.34813C17.833 4.79523 17.7839 3.75227 17.7464 3.04924C17.7251 2.53936 17.831 2.03215 18.0546 1.5734C18.0929 1.50369 18.1259 1.43136 18.1533 1.35667C18.2227 1.21633 18.241 1.05621 18.205 0.903877C18.1689 0.751542 18.0808 0.616469 17.9559 0.522075C17.9559 0.51055 17.9438 0.500687 17.9317 0.489753C17.5337 0.174414 17.0415 0.0021091 16.5337 1.92067e-05C16.026 -0.00207068 15.5323 0.166446 15.1318 0.478498C14.9689 0.601173 14.8556 0.778187 14.8126 0.977467C14.7696 1.17675 14.7997 1.38495 14.8974 1.56388C14.9008 1.56629 14.9034 1.56926 14.9055 1.57282C14.9076 1.57639 14.9091 1.58026 14.9096 1.58437C15.141 2.00339 15.264 2.4736 15.2674 2.95228C15.2795 3.53769 15.2795 4.37263 15.2795 4.99144C15.2749 5.26224 15.2081 5.52835 15.0842 5.76918C14.9603 6.01002 14.7826 6.2192 14.565 6.38041C14.1679 6.67015 13.6892 6.82702 13.1977 6.82888C12.7061 6.83074 12.2265 6.67753 11.8272 6.3908C11.789 6.36923 11.7642 6.33676 11.7273 6.31548C11.5839 6.21085 11.4656 6.07581 11.3804 5.92012C11.2952 5.76442 11.2452 5.59166 11.2344 5.41451C11.2096 4.78536 11.1599 3.7552 11.1363 3.0504C11.117 2.5552 11.2319 2.06413 11.4687 1.62881C11.4936 1.58537 11.5184 1.55275 11.5432 1.51049C11.6312 1.35087 11.6597 1.16535 11.6234 0.986702C11.5871 0.808058 11.4885 0.647992 11.3452 0.53535C10.9631 0.227813 10.4905 0.0546419 10.0001 0.0427303C9.50975 0.0308186 9.02908 0.180931 8.63249 0.469552C8.63249 0.480191 8.62039 0.480248 8.60709 0.491773C8.47178 0.585223 8.37401 0.72346 8.3312 0.882233C8.2884 1.04101 8.30334 1.20989 8.37333 1.35869C8.4351 1.51059 8.52107 1.67344 8.58343 1.82534C8.73279 2.14472 8.8123 2.49236 8.81661 2.84492V4.75422C8.81351 5.29763 8.63653 5.82567 8.31158 6.26123C8.14432 6.47007 7.93021 6.63673 7.68678 6.74779C7.44336 6.85885 7.17726 6.91129 6.9099 6.90074C6.64255 6.89019 6.38137 6.81708 6.14745 6.68718C5.91354 6.55729 5.71363 6.37409 5.56335 6.15272C5.31426 5.75477 4.98474 5.41341 4.596 5.15016C4.20727 4.88692 3.76771 4.70764 3.30573 4.62407C2.49188 4.46094 1.50555 4.26544 0.789815 4.11384C0.68617 4.09741 0.580367 4.1022 0.478717 4.12827C0.377068 4.15435 0.281727 4.20106 0.198787 4.26535C0.120867 4.32492 0.0618858 4.4058 0.0290969 4.49824C-0.00369203 4.59068 -0.00887677 4.69061 0.0140903 4.78596C0.0504386 4.95973 0.0879735 5.16556 0.137029 5.38305C0.618422 7.57429 2.45632 9.34152 4.89816 9.9491C5.0205 9.9819 5.1319 10.0144 5.25543 10.0469C8.5114 10.8605 10.5583 13.6693 10.0526 16.6094C9.67053 18.8751 9.23823 21.3376 9.0166 22.6828C8.96254 23.008 8.98567 23.3413 9.08413 23.6559C9.18258 23.9705 9.35359 24.2576 9.58339 24.4939L9.58281 24.5029Z" fill="#52379D"/>
    <path fill-rule="evenodd" clip-rule="evenodd" d="M18.5103 20.5662C18.5103 20.5662 16.1671 16.2599 17.7458 15.5548C18.1475 15.4006 18.587 15.3741 19.0043 15.4789C19.7812 15.6415 20.6441 14.9907 20.9151 14.3618C20.8169 14.7367 20.6365 15.0852 20.3869 15.3817C20.1374 15.6782 19.8251 15.9154 19.4724 16.076C18.2898 16.5958 21.336 18.234 18.5103 20.5662Z" fill="#52379D"/>
    <path fill-rule="evenodd" clip-rule="evenodd" d="M7.7396 20.5659C7.7396 20.5659 10.0827 16.26 8.50439 15.5549C8.10277 15.4006 7.6633 15.3742 7.24609 15.4792C6.46918 15.6418 5.60599 14.991 5.3347 14.3619C5.43295 14.7368 5.61341 15.0851 5.863 15.3815C6.11259 15.678 6.42505 15.9152 6.7777 16.0759C7.96153 16.596 4.91537 18.234 7.7396 20.5659Z" fill="#52379D"/>
    <path d="M19.2776 14.5399C18.3196 14.7661 17.3888 14.4432 17.1987 13.8195C17.0085 13.1958 17.6306 12.5054 18.5887 12.2798C19.5468 12.0541 20.4777 12.3761 20.6682 13C20.8588 13.6239 20.2356 14.3136 19.2776 14.5399Z" fill="#52379D"/>
    <path d="M7.65844 12.2788C8.61641 12.5051 9.23936 13.1923 9.0488 13.8174C8.85824 14.4426 7.9273 14.7649 6.96954 14.539C6.01178 14.3131 5.38893 13.6244 5.57861 13.0002C5.76829 12.3761 6.70009 12.054 7.65844 12.2788Z" fill="#52379D"/>
    <path fill-rule="evenodd" clip-rule="evenodd" d="M17.3129 13.9681C17.3129 13.9681 16.6189 13.0906 18.4039 12.2599C18.8414 12.0569 19.3246 11.9726 19.805 12.0154C20.6402 12.1352 21.4848 12.1763 22.3276 12.1379C21.4793 12.4144 20.6019 12.5924 19.7129 12.6684C19.3139 12.6968 18.9238 12.8002 18.5633 12.9734C18.0768 13.2064 17.6493 13.5465 17.3129 13.9681V13.9681Z" fill="#52379D"/>
    <path fill-rule="evenodd" clip-rule="evenodd" d="M8.93965 13.969C8.93965 13.969 9.63547 13.0917 7.84877 12.2605C7.41124 12.0575 6.92803 11.9732 6.44762 12.016C5.61245 12.1359 4.76784 12.1771 3.92496 12.1388C4.77332 12.4153 5.65063 12.5933 6.53963 12.6693C6.93865 12.6977 7.32873 12.8011 7.68931 12.9743C8.17578 13.2073 8.60322 13.5474 8.93965 13.969Z" fill="#52379D"/>
    <path fill-rule="evenodd" clip-rule="evenodd" d="M14.4589 24.3181C14.6852 24.0001 14.8756 23.658 15.0266 23.2982C15.1529 22.9569 15.2479 22.605 15.3106 22.2466C15.0877 22.5379 14.8405 22.8099 14.5718 23.0595C14.307 23.2961 14.0175 23.5034 13.7083 23.678C13.6615 23.7186 13.6241 23.7691 13.5989 23.8257C13.5737 23.8824 13.5614 23.9438 13.5626 24.0058C13.5637 24.0678 13.5783 24.1288 13.6056 24.1845C13.6329 24.2401 13.6721 24.2893 13.7204 24.3282C13.8241 24.4156 13.9559 24.4628 14.0916 24.4609C14.2272 24.4591 14.3576 24.4083 14.4589 24.3181Z" fill="white"/>
    <path fill-rule="evenodd" clip-rule="evenodd" d="M12.5905 23.6346C12.2711 23.5106 11.9783 23.3268 11.7279 23.0929C11.472 22.8357 11.2446 22.5516 11.0497 22.2457C11.0846 22.6911 11.1928 23.1276 11.37 23.5377C11.5109 23.8458 11.7075 24.1253 11.9498 24.3622C12.0624 24.4387 12.1985 24.473 12.3339 24.4588C12.4694 24.4446 12.5954 24.383 12.6898 24.2847C12.7312 24.2377 12.7619 24.1821 12.7795 24.122C12.7972 24.0618 12.8014 23.9985 12.792 23.9365C12.7825 23.8745 12.7595 23.8153 12.7247 23.7632C12.6899 23.711 12.6441 23.6671 12.5905 23.6346Z" fill="white"/>
</svg>
