<svg xmlns="http://www.w3.org/2000/svg" width="61" height="60" viewBox="0 0 61 60" fill="none">
    <path fill-rule="evenodd" clip-rule="evenodd" d="M22.1064 56.5451C23.1975 57.6537 24.5012 58.531 25.939 59.1244C27.3768 59.7179 28.9196 60.015 30.475 59.9988C32.0267 60.0209 33.5665 59.7264 35.0003 59.1324C36.434 58.5385 37.7313 57.658 38.813 56.5451C39.3764 55.9791 39.7949 55.2851 40.0324 54.5226C40.2698 53.76 40.3193 52.9516 40.1769 52.1657C39.6095 49.0614 38.556 43.4288 37.6155 38.1723C36.3355 31.2886 41.3747 24.708 49.1142 23.1299C54.979 21.9536 59.4454 17.7991 60.4697 12.6169C60.5829 12.0168 60.6975 11.4659 60.7827 10.9899C60.8239 10.7672 60.8035 10.5379 60.7235 10.3259C60.6434 10.114 60.5067 9.92776 60.3285 9.78784C60.138 9.63717 59.9169 9.53025 59.6805 9.47417C59.4442 9.41809 59.1985 9.4145 58.9606 9.46351C57.2557 9.83859 54.8637 10.3407 52.8989 10.7642C51.8264 10.9624 50.811 11.3949 49.9254 12.0315C49.0397 12.6682 48.3052 13.4928 47.7756 14.4463C47.506 14.9423 47.1072 15.3558 46.6208 15.6424C46.1345 15.929 45.579 16.0777 45.0145 16.0733C44.4465 16.1027 43.8809 15.9848 43.3722 15.7303C42.8635 15.4759 42.4293 15.0936 42.1122 14.6215C41.9976 14.4217 41.8564 14.2206 41.7712 14.0467C41.4404 13.5376 41.2536 12.9485 41.2304 12.3418C41.1452 11.0659 41.032 8.65908 40.9454 7.03671C40.8963 5.86005 41.1407 4.68957 41.6567 3.63093C41.7451 3.47006 41.8212 3.30314 41.8844 3.13078C42.0445 2.80692 42.0868 2.43741 42.0036 2.08587C41.9205 1.73433 41.7171 1.42262 41.4289 1.20479C41.4289 1.17819 41.4009 1.15543 41.373 1.1302C40.4546 0.402494 39.3187 0.00486715 38.147 4.43233e-05C36.9753 -0.0047785 35.836 0.384105 34.9117 1.10423C34.5359 1.38732 34.2744 1.79582 34.1751 2.25569C34.0758 2.71557 34.1454 3.19604 34.3709 3.60895C34.3787 3.61451 34.3847 3.62137 34.3896 3.62959C34.3944 3.63782 34.3978 3.64676 34.3989 3.65623C34.933 4.62321 35.2168 5.7083 35.2247 6.81294C35.2527 8.1639 35.2527 10.0907 35.2527 11.5187C35.242 12.1436 35.0877 12.7577 34.8018 13.3135C34.5159 13.8693 34.1059 14.352 33.6037 14.724C32.6873 15.3926 31.5827 15.7547 30.4483 15.759C29.3139 15.7632 28.2071 15.4097 27.2856 14.748C27.1977 14.6982 27.1404 14.6233 27.0552 14.5742C26.7244 14.3327 26.4513 14.0211 26.2547 13.6618C26.0581 13.3025 25.9427 12.9038 25.9177 12.495C25.8604 11.0431 25.7458 8.66584 25.6913 7.03937C25.6469 5.89661 25.912 4.76338 26.4585 3.75879C26.5158 3.65855 26.573 3.58326 26.6303 3.48574C26.8335 3.1174 26.8992 2.68926 26.8155 2.277C26.7318 1.86475 26.5042 1.49537 26.1735 1.23542C25.2917 0.525721 24.2009 0.126097 23.0694 0.0986083C21.9378 0.0711198 20.8285 0.417533 19.9133 1.08358C19.9133 1.10813 19.8854 1.10827 19.8547 1.13486C19.5425 1.35051 19.3168 1.66952 19.218 2.03592C19.1193 2.40232 19.1537 2.79206 19.3153 3.13544C19.4578 3.48597 19.6562 3.8618 19.8001 4.21232C20.1448 4.94936 20.3283 5.75161 20.3382 6.5652V10.9713C20.331 12.2253 19.9226 13.4438 19.1728 14.449C18.7868 14.9309 18.2927 15.3155 17.7309 15.5718C17.1692 15.8281 16.5551 15.9491 15.9381 15.9248C15.3211 15.9004 14.7184 15.7317 14.1786 15.432C13.6388 15.1322 13.1775 14.7094 12.8307 14.1986C12.2559 13.2802 11.4954 12.4925 10.5984 11.885C9.70128 11.2775 8.6869 10.8638 7.62079 10.6709C5.74268 10.2945 3.46654 9.84333 1.81484 9.49348C1.57566 9.45556 1.3315 9.46661 1.09692 9.52678C0.862344 9.58695 0.642326 9.69475 0.450926 9.84312C0.271111 9.98059 0.135001 10.1672 0.0593342 10.3806C-0.0163326 10.5939 -0.0282974 10.8245 0.0247036 11.0445C0.108584 11.4455 0.195203 11.9205 0.308408 12.4224C1.41931 17.4791 5.66062 21.5573 11.2956 22.9594C11.578 23.0351 11.835 23.1102 12.1201 23.1852C19.6339 25.0626 24.3574 31.5447 23.1906 38.3294C22.3088 43.558 21.3112 49.2406 20.7997 52.3448C20.675 53.0953 20.7284 53.8645 20.9556 54.5905C21.1828 55.3165 21.5774 55.979 22.1077 56.5245L22.1064 56.5451Z" fill="white"/>
    <path fill-rule="evenodd" clip-rule="evenodd" d="M42.713 47.4613C42.713 47.4613 37.3058 37.5238 40.9488 35.8967C41.8759 35.5408 42.89 35.4797 43.8531 35.7215C45.646 36.0966 47.6372 34.5948 48.2625 33.1436C48.0361 34.0087 47.6197 34.8129 47.0438 35.4971C46.4679 36.1813 45.7471 36.7287 44.9333 37.0994C42.2041 38.299 49.2338 42.0793 42.713 47.4613Z" fill="white"/>
    <path fill-rule="evenodd" clip-rule="evenodd" d="M17.8531 47.46C17.8531 47.46 23.2603 37.5232 19.618 35.896C18.6912 35.5401 17.677 35.4791 16.7142 35.7215C14.9214 36.0965 12.9294 34.5949 12.3033 33.143C12.5301 34.0081 12.9465 34.8119 13.5225 35.496C14.0985 36.1802 14.8195 36.7275 15.6333 37.0983C18.3653 38.2986 11.3356 42.0786 17.8531 47.46Z" fill="white"/>
    <path d="M44.4826 33.5537C42.2719 34.0758 40.1239 33.3306 39.685 31.8912C39.2461 30.4519 40.6818 28.8588 42.8928 28.338C45.1039 27.8172 47.252 28.5603 47.6917 30.0001C48.1314 31.4399 46.6933 33.0316 44.4826 33.5537Z" fill="white"/>
    <path d="M17.667 28.3351C19.8777 28.8572 21.3153 30.4431 20.8755 31.8857C20.4358 33.3283 18.2875 34.0721 16.0772 33.5508C13.867 33.0295 12.4297 31.4402 12.8674 29.9998C13.3051 28.5595 15.4554 27.8163 17.667 28.3351Z" fill="white"/>
    <path fill-rule="evenodd" clip-rule="evenodd" d="M39.9478 32.2346C39.9478 32.2346 38.3462 30.2096 42.4654 28.2926C43.4751 27.8242 44.5902 27.6296 45.6988 27.7284C47.6261 28.005 49.5751 28.0997 51.5201 28.0112C49.5624 28.6491 47.5378 29.0599 45.4863 29.2355C44.5655 29.3008 43.6653 29.5396 42.8332 29.9393C41.7106 30.477 40.7242 31.2617 39.9478 32.2346V32.2346Z" fill="white"/>
    <path fill-rule="evenodd" clip-rule="evenodd" d="M20.6209 32.2352C20.6209 32.2352 22.2267 30.2106 18.1035 28.2925C17.0939 27.8241 15.9787 27.6295 14.8701 27.7283C12.9428 28.0051 10.9937 28.1001 9.04859 28.0118C11.0063 28.6497 13.0309 29.0605 15.0824 29.236C16.0033 29.3014 16.9034 29.5402 17.7356 29.9399C18.8582 30.4775 19.8446 31.2622 20.6209 32.2352Z" fill="white"/>
    <path fill-rule="evenodd" clip-rule="evenodd" d="M33.3617 56.1192C33.8838 55.3855 34.3231 54.5961 34.6716 53.7657C34.9631 52.9781 35.1824 52.1661 35.3269 51.3389C34.8126 52.0112 34.2422 52.6388 33.622 53.2149C33.011 53.7608 32.343 54.2392 31.6295 54.6421C31.5214 54.7359 31.4352 54.8523 31.3771 54.9831C31.3189 55.1138 31.2905 55.2556 31.2931 55.3986C31.2958 55.5417 31.3294 55.6824 31.3924 55.8109C31.4554 55.9394 31.5459 56.0528 31.6574 56.1425C31.8968 56.3443 32.2008 56.4531 32.5139 56.4489C32.8269 56.4446 33.1279 56.3274 33.3617 56.1192Z" fill="#52379D"/>
    <path fill-rule="evenodd" clip-rule="evenodd" d="M29.0471 54.5405C28.31 54.2545 27.6343 53.8302 27.0565 53.2905C26.4661 52.6969 25.9414 52.0414 25.4914 51.3353C25.572 52.3631 25.8218 53.3705 26.2306 54.3169C26.5559 55.0279 27.0095 55.6729 27.5686 56.2195C27.8285 56.3962 28.1426 56.4752 28.4551 56.4425C28.7677 56.4098 29.0586 56.2675 29.2763 56.0408C29.3719 55.9323 29.4427 55.804 29.4834 55.6652C29.5241 55.5263 29.5339 55.3802 29.5121 55.2372C29.4902 55.0941 29.4373 54.9576 29.357 54.8372C29.2766 54.7169 29.1709 54.6156 29.0471 54.5405Z" fill="#52379D"/>
</svg>