<svg width="143" height="130" viewBox="0 0 143 130" fill="none" xmlns="http://www.w3.org/2000/svg">
<path d="M36.4775 123.583C37.4905 127.396 40.9584 129.758 40.9584 129.758C40.9584 129.758 42.7847 125.939 41.7724 122.12C40.7602 118.301 37.2915 115.943 37.2915 115.943C37.2915 115.943 35.4653 119.772 36.4775 123.583Z" fill="#3F3D56"/>
<path d="M37.966 122.762C40.7447 125.518 41.0844 129.754 41.0844 129.754C41.0844 129.754 36.9189 129.525 34.1402 126.766C31.3615 124.008 31.0195 119.777 31.0195 119.777C31.0195 119.777 35.1872 120.012 37.966 122.762Z" fill="#9974FF"/>
<path d="M45.3794 24.3596L41.2578 20.9987L64.341 0H122.872V18.4796L84.9495 44.5188L45.3794 24.3596Z" fill="#3F3D56"/>
<path d="M133.549 11.7799V0.420102H125.778V3.20203L122.878 0L103.916 20.9987L96.4967 26.04L84.9922 111.677L102.342 129.354H142.66V21.8397L133.549 11.7799Z" fill="#CCCCCC"/>
<path d="M103.913 21H41.2578V129.354H103.913V21Z" fill="#F2F2F2"/>
<path d="M77.1158 102.896H65.5742V129.354H77.1158V102.896Z" fill="#CCCCCC"/>
<path d="M53.2118 110.456V106.255H48.2656V110.456H53.2118Z" fill="#3F3D56"/>
<path d="M52.7995 113.814H48.2656V118.016H53.2118V113.814H52.7995Z" fill="#3F3D56"/>
<path d="M61.4579 106.256H56.5117V110.455H61.4579V106.256Z" fill="#3F3D56"/>
<path d="M61.4579 113.814H56.5117V118.014H61.4579V113.814Z" fill="#3F3D56"/>
<path d="M87.0087 110.456V106.255H82.0625V110.456H87.0087Z" fill="#3F3D56"/>
<path d="M86.5971 113.814H82.0625V118.016H87.0087V113.814H86.5971Z" fill="#3F3D56"/>
<path d="M95.2509 106.256H90.3047V110.455H95.2509V106.256Z" fill="#3F3D56"/>
<path d="M95.2509 113.814H90.3047V118.014H95.2509V113.814Z" fill="#3F3D56"/>
<path d="M121.642 26.4599V22.2588H116.695V26.4599H121.642Z" fill="#3F3D56"/>
<path d="M121.229 29.8203H116.695V34.0214H121.641V29.8203H121.229Z" fill="#3F3D56"/>
<path d="M129.876 22.2588H124.93V26.4584H129.876V22.2588Z" fill="#3F3D56"/>
<path d="M129.876 29.8193H124.93V34.0189H129.876V29.8193Z" fill="#3F3D56"/>
<path d="M121.642 49.9794V45.7783H116.695V49.9794H121.642Z" fill="#3F3D56"/>
<path d="M121.229 53.3398H116.695V57.541H121.641V53.3398H121.229Z" fill="#3F3D56"/>
<path d="M129.876 45.7793H124.93V49.9789H129.876V45.7793Z" fill="#3F3D56"/>
<path d="M129.876 53.3369H124.93V57.5365H129.876V53.3369Z" fill="#3F3D56"/>
<path d="M121.642 73.497V69.2959H116.695V73.497H121.642Z" fill="#3F3D56"/>
<path d="M121.229 76.8574H116.695V81.0585H121.641V76.8574H121.229Z" fill="#3F3D56"/>
<path d="M129.876 69.2969H124.93V73.4965H129.876V69.2969Z" fill="#3F3D56"/>
<path d="M129.876 76.8574H124.93V81.057H129.876V76.8574Z" fill="#3F3D56"/>
<path d="M121.642 97.0165V92.8154H116.695V97.0165H121.642Z" fill="#3F3D56"/>
<path d="M121.229 100.375H116.695V104.576H121.641V100.375H121.229Z" fill="#3F3D56"/>
<path d="M129.876 92.8164H124.93V97.016H129.876V92.8164Z" fill="#3F3D56"/>
<path d="M129.876 100.375H124.93V104.575H129.876V100.375Z" fill="#3F3D56"/>
<path d="M96.0812 26.46H48.2656V36.5396H96.0812V26.46Z" fill="#3F3D56"/>
<path d="M96.0812 46.6182H48.2656V56.6978H96.0812V46.6182Z" fill="#3F3D56"/>
<path d="M96.0812 66.7773H48.2656V76.857H96.0812V66.7773Z" fill="#3F3D56"/>
<path d="M96.0812 86.9375H48.2656V97.0171H96.0812V86.9375Z" fill="#3F3D56"/>
<path d="M18.9121 99.2608C18.1636 98.4936 17.601 97.5618 17.2684 96.5386C16.9358 95.5153 16.8423 94.4282 16.9951 93.3624C17.1735 92.2815 17.5877 91.2543 18.2078 90.355C18.8279 89.4558 19.6383 88.707 20.5803 88.1629C20.0845 87.4664 19.817 86.6307 19.8154 85.7729C19.8278 84.6908 20.2374 83.6518 20.965 82.8572C21.6926 82.0626 22.6864 81.5689 23.7539 81.4717C24.8297 81.295 25.9328 81.5077 26.8685 82.0721C27.8042 82.6366 28.5124 83.5166 28.868 84.5569C29.5163 83.5827 30.3947 82.7868 31.4238 82.2411C32.453 81.6954 33.6005 81.4171 34.7629 81.4312C38.5644 81.4312 41.6473 84.3292 41.6473 87.901C41.648 88.6658 41.5053 89.4239 41.2266 90.1352C41.3651 90.1352 41.5066 90.1146 41.6473 90.1146C43.0613 90.0659 44.4367 90.5853 45.472 91.559C46.5073 92.5327 47.1179 93.8811 47.1699 95.3087C47.175 95.4838 47.1653 95.6591 47.1412 95.8326C48.3418 96.2861 49.3796 97.0935 50.1199 98.1501C50.8602 99.2068 51.2686 100.464 51.2922 101.758C51.2922 105.32 48.2192 108.207 44.4313 108.207C44.0334 108.206 43.6362 108.173 43.2436 108.108C43.264 108.314 43.2769 108.54 43.2769 108.76C43.2769 112.757 39.8309 115.996 35.5769 115.996C34.0219 116.002 32.498 115.555 31.189 114.707C30.1266 115.549 28.8135 116.003 27.4632 115.996C25.9912 116.046 24.5595 115.505 23.4817 114.492C22.404 113.478 21.7682 112.075 21.7136 110.588C21.7104 110.461 21.7172 110.333 21.734 110.207H21.7136C20.1371 110.261 18.6033 109.683 17.4487 108.598C16.2942 107.512 15.613 106.009 15.5547 104.417C15.5714 103.325 15.8961 102.259 16.4907 101.346C17.0853 100.433 17.9252 99.7096 18.9121 99.2608Z" fill="url(#paint0_linear_843_1733)"/>
<path d="M19.7964 99.2283C19.093 98.5083 18.5644 97.6336 18.2517 96.6729C17.9391 95.7121 17.851 94.6914 17.9943 93.6905C18.1618 92.6755 18.5508 91.7109 19.1332 90.8666C19.7156 90.0222 20.4768 89.3193 21.3616 88.8088C20.896 88.1557 20.6449 87.3716 20.6437 86.5669C20.6561 85.5515 21.0411 84.5768 21.7242 83.8314C22.4072 83.0859 23.3398 82.6228 24.3416 82.5316C25.3511 82.3657 26.3862 82.5649 27.2644 83.094C28.1427 83.6232 28.8078 84.4484 29.1425 85.4242C29.7508 84.5097 30.5752 83.7626 31.541 83.2502C32.5069 82.7379 33.584 82.4765 34.675 82.4896C38.2533 82.4896 41.1357 85.2088 41.1357 88.5621C41.136 89.2797 41.0017 89.9908 40.7401 90.658C40.8717 90.658 41.0018 90.6397 41.1357 90.6397C42.4632 90.5935 43.7547 91.0807 44.7269 91.9946C45.6991 92.9085 46.2726 94.1743 46.3217 95.5145C46.3264 95.6787 46.3176 95.843 46.2953 96.0057C47.4221 96.4312 48.3961 97.189 49.0909 98.1807C49.7857 99.1723 50.1691 100.352 50.1913 101.566C50.1913 104.91 47.309 107.618 43.7503 107.618C43.3757 107.618 43.0018 107.587 42.6321 107.526C42.6525 107.731 42.6632 107.937 42.6632 108.142C42.6632 111.893 39.4275 114.934 35.4353 114.934C33.9766 114.94 32.5474 114.519 31.3198 113.724C30.3241 114.513 29.0936 114.94 27.8277 114.934C26.4457 114.983 25.101 114.476 24.0888 113.525C23.0766 112.573 22.4798 111.255 22.4291 109.86C22.4258 109.74 22.4326 109.62 22.4495 109.5H22.4291C20.9494 109.552 19.5098 109.009 18.4262 107.99C17.3426 106.971 16.7032 105.56 16.6484 104.066C16.6643 103.042 16.9687 102.042 17.5261 101.186C18.0836 100.329 18.871 99.65 19.7964 99.2283Z" fill="#9974FF"/>
<path d="M32.8826 91.4756H31.2031V129.846H32.8826V91.4756Z" fill="url(#paint1_linear_843_1733)"/>
<path d="M32.4036 92.0137H31.5586V129.846H32.4036V92.0137Z" fill="#795548"/>
<path d="M24.9258 96.832L25.546 96.3042L32.4728 103.182L31.8526 103.71L24.9258 96.832Z" fill="#795548"/>
<path d="M31.9141 109.024L39.1006 104.123L39.6045 104.747L32.418 109.648L31.9141 109.024Z" fill="#795548"/>
<path d="M29.4495 103.527C30.0013 102.999 30.4421 102.365 30.7456 101.662C31.0491 100.958 31.2091 100.2 31.216 99.4333C31.1908 98.3515 30.8761 97.2967 30.3052 96.3809C29.7343 95.4651 28.9286 94.7224 27.9735 94.2316C28.4074 93.6568 28.6431 92.9545 28.6445 92.2318C28.6445 90.226 26.8129 88.5982 24.554 88.5982C23.7119 88.5683 22.8815 88.8039 22.1781 89.2723C21.4748 89.7408 20.9333 90.4187 20.6291 91.2121C20.0312 90.3848 19.2446 89.7153 18.3359 89.2603C17.4272 88.8052 16.4232 88.5781 15.4091 88.5982C12.041 88.5982 9.31297 91.0212 9.31297 94.0116C9.31322 94.6533 9.44029 95.2884 9.68671 95.8799C9.56339 95.8799 9.43855 95.8631 9.31297 95.8631C6.61141 95.8631 4.41974 97.8071 4.41974 100.208C4.41961 100.354 4.42772 100.5 4.44398 100.646C3.40407 100.995 2.49481 101.657 1.83806 102.543C1.18132 103.429 0.808479 104.496 0.769531 105.602C0.769531 108.581 3.49302 110.997 6.84594 110.997C7.19778 110.997 7.54906 110.969 7.89674 110.915C7.87815 111.096 7.86858 111.277 7.86802 111.459C7.86802 114.803 10.9206 117.513 14.6866 117.513C16.0544 117.52 17.3976 117.147 18.5691 116.434C19.5255 117.15 20.6861 117.533 21.8766 117.526C24.6901 117.526 26.9711 115.501 26.9711 113.004C26.9738 112.897 26.9677 112.79 26.9529 112.684H26.9711C29.9836 112.684 32.4256 110.516 32.4256 107.84C32.3973 106.907 32.1007 106.003 31.5722 105.237C31.0436 104.471 30.3065 103.877 29.4495 103.527Z" fill="url(#paint2_linear_843_1733)"/>
<path d="M28.9036 103.508C29.4334 103.004 29.857 102.397 30.1491 101.723C30.4412 101.05 30.5957 100.324 30.6035 99.5886C30.5782 98.5547 30.2765 97.5469 29.7305 96.6718C29.1845 95.7968 28.4145 95.087 27.5017 94.6175C27.9182 94.0693 28.1458 93.3988 28.1501 92.7079C28.1501 90.7884 26.3964 89.2309 24.2343 89.2309C23.4281 89.2023 22.6331 89.428 21.9598 89.8765C21.2865 90.3251 20.7683 90.9744 20.4774 91.7341C19.9055 90.9425 19.1531 90.3017 18.284 89.866C17.4148 89.4303 16.4545 89.2125 15.4843 89.2309C12.2615 89.2309 9.64919 91.5515 9.64919 94.4121C9.64952 95.0262 9.77119 95.6341 10.007 96.2002C9.88827 96.2002 9.77023 96.1834 9.64919 96.1834C7.06187 96.1834 4.96628 98.0456 4.96628 100.341C4.9668 100.478 4.97487 100.616 4.99048 100.752C3.99505 101.086 3.12461 101.72 2.49584 102.567C1.86708 103.415 1.51008 104.437 1.47266 105.495C1.47266 108.348 4.07585 110.66 7.2873 110.66C7.62413 110.66 7.96051 110.635 8.2935 110.583C8.27565 110.757 8.26678 110.931 8.26699 111.105C8.26699 114.305 11.1902 116.9 14.7928 116.9C16.1017 116.909 17.3875 116.553 18.5096 115.873C19.4244 116.55 20.5311 116.91 21.6651 116.9C24.3485 116.9 26.5402 114.962 26.5402 112.572C26.5431 112.47 26.537 112.368 26.522 112.267H26.5402C29.4226 112.267 31.7602 110.191 31.7602 107.63C31.7306 106.738 31.4449 105.873 30.9378 105.141C30.4307 104.409 29.724 103.842 28.9036 103.508Z" fill="#4F3499"/>
<path d="M18.8204 97.4492H16.9102V129.655H18.8204V97.4492Z" fill="url(#paint3_linear_843_1733)"/>
<path d="M18.3639 97.4492H17.3086V129.655H18.3639V97.4492Z" fill="#795548"/>
<path d="M17.3594 106.754L23.6166 100.889L24.3705 101.568L18.1133 107.433L17.3594 106.754Z" fill="#795548"/>
<path d="M10.9336 108.352L11.5399 107.558L18.0277 111.741L17.4215 112.535L10.9336 108.352Z" fill="#795548"/>
<defs>
<linearGradient id="paint0_linear_843_1733" x1="-68.8217" y1="81.4111" x2="-68.8217" y2="81.4111" gradientUnits="userSpaceOnUse">
<stop stop-color="#808080" stop-opacity="0.251"/>
<stop offset="0.54" stop-color="#808080" stop-opacity="0.122"/>
<stop offset="1" stop-color="#808080" stop-opacity="0.102"/>
</linearGradient>
<linearGradient id="paint1_linear_843_1733" x1="-32.3219" y1="142.163" x2="-32.3219" y2="103.793" gradientUnits="userSpaceOnUse">
<stop stop-color="#808080" stop-opacity="0.251"/>
<stop offset="0.54" stop-color="#808080" stop-opacity="0.122"/>
<stop offset="1" stop-color="#808080" stop-opacity="0.102"/>
</linearGradient>
<linearGradient id="paint2_linear_843_1733" x1="-52.0012" y1="88.5957" x2="-52.0012" y2="88.5957" gradientUnits="userSpaceOnUse">
<stop stop-color="#808080" stop-opacity="0.251"/>
<stop offset="0.54" stop-color="#808080" stop-opacity="0.122"/>
<stop offset="1" stop-color="#808080" stop-opacity="0.102"/>
</linearGradient>
<linearGradient id="paint3_linear_843_1733" x1="-18.1636" y1="141.99" x2="-18.1636" y2="109.784" gradientUnits="userSpaceOnUse">
<stop stop-color="#808080" stop-opacity="0.251"/>
<stop offset="0.54" stop-color="#808080" stop-opacity="0.122"/>
<stop offset="1" stop-color="#808080" stop-opacity="0.102"/>
</linearGradient>
</defs>
</svg>
