<svg width="374" height="400" viewBox="0 0 374 400" fill="none" xmlns="http://www.w3.org/2000/svg">
<path d="M358.362 315.491L144.614 185.33C142.617 184.265 140.41 183.709 138.172 183.709C135.934 183.709 133.727 184.265 131.729 185.33L10.9839 258.702C6.1762 261.631 6.16784 266.42 10.9839 269.349L223.202 398.574C224.964 399.512 226.91 400 228.883 400C230.857 400 232.803 399.512 234.565 398.574L358.371 323.341C361.908 321.18 361.908 317.643 358.362 315.491Z" fill="#EBEBEB"/>
<path d="M126.759 370.744L71.0645 358.351L53.7148 372.923L126.759 370.744Z" fill="#52379D"/>
<g opacity="0.15">
<path d="M126.759 370.744L71.0645 358.351L53.7148 372.923L126.759 370.744Z" fill="white"/>
</g>
<path d="M126.752 370.744L75.7812 352.115L80.6308 338.196L126.752 370.744Z" fill="#52379D"/>
<g opacity="0.15">
<path d="M126.76 370.745L75.7891 352.115L80.6386 338.196L126.76 370.745Z" fill="white"/>
</g>
<path d="M75.7812 352.115L78.6157 360.027L126.752 370.744L75.7812 352.115Z" fill="#52379D"/>
<g opacity="0.2">
<path d="M75.7891 352.115L78.6235 360.027L126.76 370.744L75.7891 352.115Z" fill="black"/>
</g>
<path d="M69.5205 353.209C69.6396 353.179 69.7439 353.103 69.8132 352.997C69.8944 352.869 69.929 352.715 69.9105 352.562C69.8921 352.41 69.8218 352.27 69.7128 352.168L68.5088 351.056C68.4602 351.006 68.4018 350.968 68.3378 350.944C68.2738 350.92 68.2056 350.911 68.138 350.918C68.0704 350.925 68.0049 350.947 67.9462 350.983C67.8876 351.019 67.837 351.068 67.7981 351.127C67.7176 351.254 67.6826 351.407 67.6995 351.559C67.7163 351.711 67.7839 351.852 67.8901 351.956L69.1108 353.085C69.1663 353.136 69.2318 353.174 69.3026 353.195C69.3734 353.216 69.4478 353.221 69.5205 353.209Z" fill="#455A64"/>
<path d="M64.0218 348.128C63.2609 347.334 62.5167 346.522 61.7893 345.711C61.6951 345.596 61.6433 345.448 61.6433 345.296C61.6433 345.144 61.6951 344.997 61.7893 344.882C61.8347 344.829 61.8902 344.786 61.9522 344.757C62.0141 344.728 62.0811 344.713 62.1488 344.713C62.2166 344.713 62.2836 344.728 62.3455 344.757C62.4074 344.786 62.4629 344.829 62.5084 344.882C63.2274 345.693 63.9716 346.487 64.7157 347.272C64.8206 347.38 64.8844 347.525 64.8951 347.679C64.9059 347.834 64.8629 347.987 64.7743 348.11C64.7295 348.164 64.6743 348.208 64.6123 348.238C64.5502 348.267 64.4829 348.283 64.4147 348.283C64.3466 348.283 64.2792 348.267 64.2172 348.238C64.1552 348.208 64.0999 348.164 64.0552 348.11L64.0218 348.128ZM58.2274 341.486C57.5334 340.604 56.8561 339.721 56.1956 338.839C56.0998 338.725 56.0469 338.578 56.0469 338.425C56.0469 338.272 56.0998 338.125 56.1956 338.01C56.2461 337.962 56.3058 337.925 56.3706 337.903C56.4355 337.88 56.5041 337.873 56.5719 337.88C56.6398 337.888 56.7054 337.91 56.7645 337.946C56.8235 337.982 56.8747 338.031 56.9147 338.09C57.5668 338.972 58.2274 339.854 58.913 340.736C59.0078 340.853 59.0599 341.001 59.0599 341.155C59.0599 341.309 59.0078 341.457 58.913 341.574C58.8471 341.643 58.7624 341.69 58.6705 341.706C58.5839 341.714 58.4967 341.697 58.4186 341.657C58.3405 341.616 58.2744 341.554 58.2274 341.477V341.486ZM53.0267 334.2C52.4163 333.238 51.8226 332.268 51.2541 331.298C51.1759 331.169 51.1463 331.015 51.171 330.864C51.1958 330.714 51.2732 330.579 51.3878 330.486C51.4438 330.445 51.5074 330.417 51.5743 330.404C51.6412 330.391 51.7101 330.392 51.7763 330.409C51.8426 330.426 51.9048 330.457 51.9589 330.5C52.0129 330.544 52.0577 330.599 52.0902 330.662C52.642 331.624 53.2273 332.577 53.8293 333.52C53.9118 333.646 53.9471 333.799 53.9286 333.951C53.9101 334.102 53.839 334.241 53.729 334.341C53.6751 334.392 53.6083 334.426 53.5367 334.438C53.438 334.456 53.3363 334.442 53.2451 334.398C53.154 334.354 53.0778 334.282 53.0267 334.191V334.2ZM48.5701 326.261C48.0684 325.229 47.5751 324.179 47.1236 323.138C47.0614 323.004 47.0492 322.849 47.0895 322.706C47.1297 322.562 47.2194 322.439 47.341 322.362C47.4031 322.33 47.4709 322.312 47.5399 322.309C47.609 322.307 47.6778 322.319 47.7422 322.345C47.8066 322.372 47.8651 322.412 47.914 322.463C47.9629 322.515 48.0013 322.577 48.0266 322.644C48.4697 323.659 48.9463 324.691 49.448 325.714C49.5181 325.846 49.5382 326.002 49.504 326.149C49.4699 326.296 49.3842 326.425 49.2641 326.508L49.1136 326.57C49.0045 326.587 48.893 326.567 48.7953 326.514C48.6975 326.46 48.6186 326.374 48.5701 326.27V326.261ZM45.0165 317.775C44.6403 316.699 44.2807 315.579 43.9463 314.476C43.8966 314.335 43.9012 314.178 43.9589 314.04C44.0166 313.902 44.123 313.792 44.2557 313.735C44.3898 313.697 44.5327 313.717 44.6533 313.79C44.7738 313.862 44.8623 313.982 44.8995 314.123C45.2256 315.217 45.5851 316.311 45.953 317.369C46.0077 317.509 46.0095 317.666 45.9582 317.807C45.9069 317.948 45.8063 318.063 45.6771 318.128H45.5935C45.4746 318.147 45.3531 318.124 45.2484 318.062C45.1438 317.999 45.0621 317.901 45.0165 317.784V317.775ZM42.5081 308.849C42.3158 307.966 42.1319 307.084 41.9647 306.202L41.8309 305.461C41.7981 305.316 41.821 305.164 41.8946 305.036C41.9683 304.909 42.0866 304.818 42.2239 304.782C42.3643 304.764 42.5058 304.805 42.6182 304.896C42.7306 304.986 42.8051 305.12 42.8259 305.267L42.9513 305.999C43.1185 306.882 43.2941 307.764 43.4864 308.646C43.5254 308.788 43.5095 308.942 43.4422 309.072C43.3749 309.202 43.2616 309.3 43.1269 309.343C43.0541 309.359 42.9788 309.359 42.9059 309.343C42.833 309.327 42.764 309.296 42.7034 309.25C42.6428 309.204 42.5919 309.146 42.554 309.078C42.516 309.011 42.4919 308.935 42.4831 308.857L42.5081 308.849ZM41.5968 300.195C41.4559 300.198 41.3195 300.144 41.2153 300.044C41.1112 299.944 41.0472 299.805 41.0365 299.657C40.9195 298.502 40.8192 297.329 40.7523 296.173C40.7442 296.1 40.7499 296.027 40.7692 295.957C40.7885 295.887 40.8209 295.821 40.8646 295.764C40.9082 295.708 40.9622 295.661 41.0233 295.626C41.0845 295.592 41.1515 295.571 41.2205 295.564C41.364 295.567 41.501 295.628 41.6024 295.735C41.7039 295.842 41.7618 295.986 41.764 296.138C41.8309 297.276 41.9228 298.431 42.0399 299.56C42.0606 299.698 42.0316 299.838 41.9589 299.954C41.8861 300.07 41.7748 300.153 41.6469 300.186L41.5968 300.195ZM41.1034 290.978C40.9623 290.96 40.8328 290.886 40.7412 290.772C40.6496 290.657 40.6028 290.51 40.6101 290.36C40.6101 289.205 40.6603 288.031 40.7355 286.876C40.7439 286.743 40.7993 286.619 40.8907 286.527C40.9821 286.436 41.1029 286.384 41.2289 286.382C41.3699 286.41 41.496 286.492 41.5825 286.613C41.6691 286.733 41.7099 286.884 41.6971 287.035C41.6218 288.164 41.58 289.31 41.5717 290.448C41.5748 290.574 41.5365 290.698 41.4634 290.797C41.3902 290.897 41.2867 290.967 41.1703 290.995L41.1034 290.978ZM41.7473 281.83C41.6089 281.789 41.4903 281.695 41.4145 281.566C41.3387 281.437 41.3113 281.283 41.3376 281.133C41.5048 280.004 41.7055 278.858 41.9312 277.737C41.9418 277.667 41.9664 277.599 42.0032 277.54C42.04 277.48 42.0884 277.428 42.1451 277.389C42.2018 277.35 42.2656 277.324 42.3325 277.313C42.3993 277.301 42.4677 277.305 42.5332 277.323C42.6699 277.373 42.7845 277.475 42.8553 277.608C42.9261 277.741 42.9484 277.897 42.9178 278.046C42.6921 279.149 42.4998 280.269 42.3326 281.38C42.3286 281.453 42.3093 281.525 42.2762 281.589C42.243 281.653 42.1968 281.708 42.1408 281.752C42.0848 281.795 42.0205 281.824 41.9524 281.838C41.8844 281.851 41.8143 281.849 41.7473 281.83ZM43.6202 272.965C43.4887 272.902 43.3838 272.789 43.3252 272.65C43.2667 272.51 43.2586 272.352 43.3025 272.207C43.6286 271.122 43.9797 270.037 44.356 268.987C44.3767 268.919 44.4112 268.856 44.457 268.802C44.5028 268.749 44.5589 268.707 44.6215 268.679C44.6841 268.65 44.7518 268.636 44.8199 268.638C44.8881 268.639 44.9551 268.656 45.0165 268.687C45.1437 268.762 45.2414 268.882 45.2919 269.026C45.3425 269.17 45.3427 269.328 45.2925 269.472C44.9246 270.504 44.5734 271.563 44.264 272.63C44.2381 272.722 44.1895 272.804 44.1234 272.869C44.0573 272.934 43.976 272.98 43.8878 273.001C43.7902 273.028 43.6868 273.019 43.5951 272.974L43.6202 272.965Z" fill="#455A64"/>
<path d="M349.99 180.302L319.129 147.727L337.173 184.219L349.99 180.302Z" fill="#52379D"/>
<path opacity="0.15" d="M349.99 180.302L319.129 147.727L337.173 184.219L349.99 180.302Z" fill="white"/>
<path d="M319.129 147.727L355.417 176.686L368.235 172.769L319.129 147.727Z" fill="#52379D"/>
<path opacity="0.15" d="M319.129 147.727L355.417 176.686L368.235 172.769L319.129 147.727Z" fill="white"/>
<path d="M355.417 176.686L350.241 187.059L349.99 180.302L319.129 147.727L355.417 176.686Z" fill="#52379D"/>
<path opacity="0.2" d="M355.417 176.686L350.241 187.059L349.99 180.302L319.129 147.727L355.417 176.686Z" fill="black"/>
<path d="M350.242 187.059L345.719 181.608L349.991 180.302L350.242 187.059Z" fill="#52379D"/>
<path opacity="0.2" d="M349.991 180.302L345.719 181.608L346.438 182.481L349.991 180.302Z" fill="black"/>
<path d="M356.458 185.295C356.341 185.296 356.228 185.343 356.141 185.427C356.047 185.532 355.991 185.667 355.982 185.81C355.973 185.954 356.011 186.096 356.091 186.212L357.01 187.483C357.046 187.539 357.093 187.585 357.148 187.62C357.203 187.655 357.264 187.677 357.327 187.685C357.391 187.692 357.455 187.685 357.516 187.664C357.577 187.643 357.632 187.608 357.679 187.562C357.779 187.462 357.84 187.326 357.851 187.181C357.861 187.037 357.821 186.893 357.738 186.777C357.437 186.345 357.127 185.895 356.818 185.489C356.777 185.429 356.723 185.38 356.66 185.346C356.598 185.313 356.529 185.295 356.458 185.295Z" fill="#455A64"/>
<path d="M360.641 191.117C361.21 191.999 361.753 192.881 362.313 193.763C362.385 193.887 362.411 194.033 362.388 194.176C362.365 194.318 362.294 194.447 362.188 194.539C362.137 194.579 362.078 194.608 362.016 194.623C361.954 194.637 361.89 194.638 361.828 194.625C361.765 194.611 361.706 194.584 361.654 194.545C361.603 194.506 361.559 194.456 361.527 194.398C361 193.516 360.465 192.634 359.905 191.752C359.83 191.63 359.799 191.484 359.818 191.34C359.836 191.196 359.903 191.063 360.005 190.967C360.086 190.898 360.186 190.861 360.29 190.861C360.364 190.87 360.434 190.899 360.495 190.943C360.556 190.988 360.606 191.047 360.641 191.117ZM364.822 198.412C365.307 199.364 365.775 200.317 366.226 201.278C366.287 201.406 366.301 201.554 366.266 201.692C366.231 201.83 366.148 201.95 366.034 202.028C365.979 202.064 365.918 202.087 365.854 202.095C365.79 202.103 365.725 202.096 365.664 202.075C365.602 202.054 365.546 202.02 365.499 201.973C365.452 201.927 365.415 201.87 365.39 201.808C364.947 200.864 364.487 199.92 364.002 198.994C363.938 198.867 363.919 198.72 363.949 198.579C363.978 198.439 364.053 198.314 364.161 198.226C364.234 198.172 364.322 198.144 364.412 198.147C364.494 198.147 364.574 198.169 364.646 198.21C364.717 198.252 364.778 198.312 364.822 198.385V198.412ZM368.342 206.191C368.735 207.188 369.111 208.211 369.462 209.217C369.512 209.352 369.512 209.502 369.463 209.638C369.413 209.773 369.318 209.884 369.195 209.949C369.135 209.974 369.071 209.986 369.007 209.984C368.943 209.982 368.88 209.966 368.822 209.937C368.764 209.908 368.712 209.866 368.67 209.815C368.627 209.765 368.595 209.705 368.576 209.64C368.236 208.641 367.868 207.644 367.472 206.65C367.42 206.519 367.414 206.372 367.457 206.237C367.501 206.102 367.589 205.989 367.706 205.918C367.771 205.883 367.843 205.865 367.915 205.865C368.01 205.862 368.104 205.889 368.185 205.942C368.265 205.996 368.328 206.073 368.367 206.165L368.342 206.191ZM371.059 214.395C371.343 215.453 371.603 216.521 371.837 217.57C371.874 217.707 371.86 217.854 371.798 217.98C371.736 218.107 371.63 218.203 371.502 218.25C371.439 218.268 371.373 218.272 371.308 218.261C371.243 218.251 371.181 218.226 371.126 218.189C371.071 218.151 371.024 218.102 370.988 218.044C370.952 217.986 370.928 217.921 370.917 217.853C370.691 216.829 370.432 215.78 370.148 214.73C370.106 214.594 370.115 214.447 370.172 214.317C370.23 214.188 370.332 214.087 370.457 214.033H370.608C370.71 214.03 370.811 214.06 370.897 214.12C370.982 214.18 371.048 214.267 371.084 214.368L371.059 214.395ZM372.84 222.951C372.999 224.036 373.133 225.13 373.25 226.224C373.269 226.364 373.237 226.506 373.159 226.621C373.081 226.736 372.964 226.815 372.832 226.841C372.767 226.847 372.701 226.839 372.639 226.818C372.577 226.796 372.52 226.762 372.47 226.717C372.421 226.671 372.381 226.616 372.353 226.554C372.324 226.492 372.308 226.425 372.305 226.356C372.188 225.289 372.054 224.204 371.895 223.145C371.872 223.005 371.9 222.861 371.972 222.742C372.045 222.623 372.158 222.537 372.288 222.501H372.372C372.488 222.501 372.6 222.543 372.69 222.62C372.78 222.697 372.842 222.805 372.865 222.925L372.84 222.951ZM373.601 231.719C373.601 232.583 373.601 233.448 373.601 234.312V235.027C373.604 235.096 373.595 235.165 373.572 235.23C373.55 235.295 373.516 235.355 373.471 235.406C373.427 235.457 373.374 235.498 373.314 235.527C373.254 235.555 373.19 235.571 373.124 235.574C372.993 235.56 372.871 235.494 372.784 235.389C372.697 235.285 372.651 235.148 372.656 235.009V234.312C372.656 233.43 372.656 232.601 372.656 231.754C372.647 231.614 372.69 231.476 372.776 231.369C372.861 231.262 372.984 231.194 373.116 231.181C373.248 231.179 373.375 231.231 373.47 231.327C373.566 231.422 373.622 231.554 373.626 231.693L373.601 231.719ZM372.907 239.914C373.038 239.939 373.154 240.017 373.234 240.129C373.313 240.242 373.348 240.383 373.333 240.522C373.233 241.616 373.116 242.719 372.974 243.804C372.969 243.872 372.95 243.94 372.92 244.001C372.89 244.062 372.848 244.116 372.797 244.16C372.746 244.204 372.687 244.236 372.624 244.255C372.561 244.274 372.495 244.28 372.43 244.271C372.301 244.239 372.188 244.157 372.113 244.041C372.039 243.925 372.009 243.783 372.029 243.645C372.171 242.569 372.288 241.484 372.389 240.416C372.395 240.285 372.447 240.161 372.535 240.068C372.623 239.975 372.741 239.92 372.865 239.914H372.907ZM371.728 248.549C371.856 248.594 371.963 248.688 372.028 248.812C372.093 248.936 372.111 249.082 372.079 249.22C371.862 250.287 371.611 251.363 371.343 252.413C371.329 252.479 371.302 252.542 371.264 252.597C371.226 252.652 371.178 252.699 371.122 252.734C371.067 252.77 371.006 252.793 370.942 252.803C370.878 252.813 370.812 252.809 370.75 252.792C370.625 252.737 370.524 252.636 370.465 252.507C370.407 252.379 370.395 252.232 370.432 252.095C370.691 251.063 370.934 250.005 371.151 248.955C371.17 248.838 371.228 248.732 371.313 248.655C371.399 248.577 371.507 248.534 371.619 248.531C371.662 248.517 371.709 248.514 371.753 248.523L371.728 248.549ZM369.504 256.885C369.626 256.951 369.719 257.063 369.767 257.198C369.815 257.333 369.814 257.483 369.763 257.617C369.412 258.623 369.019 259.646 368.618 260.634C368.594 260.698 368.558 260.756 368.512 260.804C368.467 260.853 368.412 260.891 368.351 260.916C368.29 260.94 368.226 260.952 368.161 260.949C368.096 260.946 368.032 260.929 367.974 260.898C367.858 260.825 367.771 260.708 367.731 260.572C367.691 260.435 367.7 260.287 367.756 260.157C368.158 259.187 368.534 258.181 368.885 257.194C368.916 257.094 368.975 257.007 369.054 256.944C369.133 256.881 369.229 256.845 369.328 256.841C369.396 256.831 369.464 256.837 369.529 256.858L369.504 256.885ZM366.201 264.727C366.31 264.811 366.386 264.935 366.415 265.074C366.445 265.214 366.425 265.36 366.36 265.485C365.867 266.429 365.348 267.364 364.813 268.264C364.782 268.323 364.739 268.374 364.688 268.414C364.636 268.454 364.577 268.481 364.514 268.495C364.451 268.508 364.386 268.507 364.324 268.492C364.262 268.476 364.203 268.446 364.153 268.405C364.047 268.313 363.975 268.184 363.952 268.041C363.929 267.899 363.956 267.752 364.027 267.629C364.554 266.747 365.064 265.864 365.541 264.912C365.58 264.83 365.64 264.762 365.714 264.714C365.787 264.666 365.872 264.64 365.959 264.638C366.052 264.629 366.146 264.65 366.226 264.7L366.201 264.727Z" fill="#455A64"/>
<path d="M142.483 111.508L359.801 291.674C365.253 296.199 364.625 300.989 364.132 305.293C363.639 309.598 361.356 315.473 356.699 318.313L237.4 390.944C232.743 393.784 225.761 393.431 221.815 390.159L4.44587 210.046C0.490981 206.774 0.114722 201.605 0.6164 197.3C1.11808 192.995 2.88231 186.247 7.54791 183.407L126.872 110.723C131.538 107.892 136.981 106.957 142.483 111.508Z" fill="#37474F"/>
<path d="M136.094 117.136L13.3925 191.875L231.681 372.702L229.365 392.849C226.655 392.782 224.03 391.843 221.84 390.158L4.44587 210.046C0.490981 206.773 0.114723 201.604 0.6164 197.3C1.11808 192.995 2.88231 186.247 7.54791 183.407L126.872 110.723C129.782 108.959 133.293 107.724 137.064 108.668L136.997 109.294L136.094 117.136Z" fill="#263238"/>
<path d="M357.705 292.662L140.737 112.849C137.61 110.256 132.033 109.982 128.346 112.223L11.8313 183.178C6.81452 186.221 6.19578 191.602 10.435 195.112L226.064 373.805C228.824 376.098 233.74 376.345 237.001 374.352L356.676 301.465C360.364 299.216 360.832 295.255 357.705 292.662Z" fill="#455A64"/>
<path d="M70.0796 249.052C70.9114 249.86 71.5554 250.86 71.9614 251.974C72.3674 253.087 72.5246 254.285 72.4207 255.473C72.4125 255.9 72.3081 256.318 72.1162 256.694C71.9242 257.07 71.6503 257.392 71.317 257.634C70.9157 257.872 69.4023 258.825 68.9842 259.072C68.6241 259.243 68.223 259.295 67.8345 259.219C67.446 259.143 67.0887 258.944 66.8103 258.649L49.5275 244.332C48.697 243.521 48.0541 242.519 47.6483 241.404C47.2424 240.29 47.0844 239.091 47.1863 237.902C47.2009 237.493 47.3006 237.092 47.4783 236.727C47.656 236.363 47.9074 236.044 48.2148 235.794C48.6328 235.52 50.2048 234.559 50.6228 234.321C50.9829 234.145 51.3855 234.091 51.776 234.165C52.1665 234.239 52.5258 234.438 52.8051 234.735L70.0796 249.052Z" fill="#455A64"/>
<path d="M67.7635 250.472L50.4807 236.147C48.9255 234.859 47.4539 235.644 47.1863 237.911C47.0844 239.1 47.2424 240.298 47.6483 241.413C48.0541 242.528 48.697 243.53 49.5275 244.341L66.8103 258.658C68.3655 259.945 69.8371 259.16 70.1047 256.893C70.2066 255.705 70.0485 254.508 69.6426 253.395C69.2367 252.282 68.5938 251.282 67.7635 250.472Z" fill="#37474F"/>
<path d="M39.8378 224C40.6712 224.808 41.3162 225.807 41.7224 226.922C42.1285 228.036 42.2848 229.234 42.179 230.422C42.1664 230.846 42.061 231.26 41.871 231.634C41.6809 232.007 41.4114 232.329 41.0837 232.574C40.6823 232.804 39.1689 233.756 38.7509 234.003C38.3895 234.175 37.9869 234.227 37.597 234.151C37.2071 234.076 36.8483 233.876 36.5686 233.58L19.2941 219.272C18.4623 218.464 17.8183 217.464 17.4123 216.35C17.0063 215.237 16.8491 214.039 16.953 212.851C16.9657 212.44 17.0646 212.037 17.2424 211.671C17.4202 211.305 17.6726 210.985 17.9814 210.734C18.3911 210.46 19.963 209.499 20.3811 209.261C20.7412 209.085 21.1438 209.031 21.5343 209.105C21.9247 209.179 22.284 209.378 22.5634 209.675L39.8378 224Z" fill="#455A64"/>
<path d="M37.5218 225.412L20.2473 211.096C18.6921 209.808 17.2122 210.593 16.953 212.86C16.8491 214.048 17.0063 215.245 17.4123 216.359C17.8183 217.473 18.4623 218.473 19.2941 219.281L36.5686 233.598C38.1238 234.885 39.6037 234.1 39.8629 231.833C39.9668 230.645 39.8096 229.448 39.4036 228.334C38.9975 227.22 38.3536 226.22 37.5218 225.412Z" fill="#37474F"/>
<path d="M144.657 122.72L347.259 290.633C350.244 293.112 349.818 296.887 346.289 299.03L238.044 364.975C234.524 367.136 229.231 366.872 226.23 364.384L22.1638 195.271C19.7306 193.26 19.5467 190.402 21.4781 188.214C21.6286 188.047 21.7708 187.879 21.938 187.72C22.3122 187.391 22.7122 187.096 23.1337 186.838L53.5855 168.315L55.5755 167.106C56.1429 166.778 56.7851 166.622 57.4314 166.654C58.0776 166.687 58.7027 166.908 59.2378 167.291C59.8026 167.674 60.4561 167.885 61.1271 167.902C61.798 167.919 62.4605 167.741 63.0421 167.388L98.5358 145.777C99.6981 145.063 99.9071 143.863 98.979 143.131C98.7815 142.992 98.6212 142.802 98.5136 142.579C98.4061 142.356 98.3548 142.108 98.3649 141.857C98.375 141.607 98.4461 141.364 98.5712 141.152C98.6964 140.939 98.8714 140.764 99.0793 140.644L99.2716 140.52L129.071 122.376L129.698 121.988C134.163 119.253 140.886 119.597 144.657 122.72Z" fill="black"/>
<path d="M58.6356 172.478C58.1006 172.094 57.4754 171.874 56.8292 171.841C56.1829 171.808 55.5407 171.965 54.9733 172.293L52.9833 173.475L22.5315 191.998C22.11 192.256 21.71 192.551 21.3358 192.88C21.1686 193.048 21.0265 193.207 20.876 193.374C20.7255 193.542 20.7924 193.489 20.7422 193.551C21.1148 194.197 21.5965 194.765 22.1636 195.227L226.229 364.384C229.231 366.871 234.524 367.136 238.044 364.975L346.314 299.03C346.984 298.626 347.589 298.111 348.104 297.504C347.735 296.848 347.253 296.271 346.682 295.802L144.08 127.889C140.309 124.766 133.586 124.422 129.121 127.139L128.494 127.527L99.4805 145.169C99.4805 145.169 99.029 149.085 98.9788 149.579C98.9195 149.876 98.7969 150.156 98.6202 150.395C98.4434 150.635 98.2172 150.83 97.9587 150.964L62.44 172.593C61.8568 172.943 61.1935 173.118 60.5225 173.097C59.8516 173.077 59.1989 172.863 58.6356 172.478Z" fill="#EBEBEB"/>
<path d="M51.0488 190.084C50.996 190.076 50.9466 190.051 50.9067 190.014L50.4802 189.59L49.1257 190.411C49.0981 190.437 49.0624 190.451 49.0254 190.451C48.9884 190.451 48.9526 190.437 48.925 190.411L48.7578 190.234C48.73 190.21 48.7072 190.18 48.6909 190.146C48.6888 190.114 48.6888 190.081 48.6909 190.049L48.5822 187.676C48.5768 187.644 48.5768 187.611 48.5822 187.579C48.6016 187.544 48.6308 187.516 48.6658 187.5L48.8498 187.394C48.9013 187.375 48.9572 187.375 49.0087 187.394C49.0639 187.4 49.1148 187.429 49.1508 187.473L50.6642 188.938L50.9652 188.752C51.0096 188.722 51.0629 188.71 51.1152 188.718C51.1676 188.726 51.2153 188.754 51.2495 188.797L51.3582 188.894C51.4 188.938 51.4251 188.973 51.4167 189.008C51.4084 189.043 51.4167 189.079 51.3331 189.114L51.0321 189.29L51.4669 189.714C51.4669 189.714 51.5338 189.793 51.5254 189.829C51.517 189.864 51.5254 189.899 51.4334 189.934L51.2077 190.076C51.1565 190.094 51.1015 190.097 51.0488 190.084ZM50.2127 189.202L49.1424 188.161L49.2344 189.802L50.2127 189.202Z" fill="#455A64"/>
<path d="M52.3923 188.849C51.866 188.77 51.377 188.517 50.996 188.126C50.8151 187.987 50.6674 187.805 50.5644 187.595C50.4614 187.386 50.4059 187.154 50.4023 186.918C50.4402 186.693 50.5303 186.482 50.6646 186.304C50.7988 186.125 50.9731 185.984 51.1716 185.894C51.3582 185.778 51.5576 185.686 51.7652 185.621C51.9482 185.554 52.1401 185.518 52.3338 185.515C52.3465 185.507 52.3609 185.503 52.3756 185.503C52.3903 185.503 52.4047 185.507 52.4174 185.515V185.568L52.4843 185.833C52.4843 185.833 52.4843 185.886 52.4843 185.894H52.4091C52.1134 185.919 51.8273 186.016 51.5729 186.177C51.4359 186.234 51.3158 186.329 51.2248 186.451C51.1338 186.574 51.075 186.719 51.0545 186.873C51.0643 187.047 51.1107 187.217 51.1902 187.369C51.2698 187.522 51.3805 187.654 51.5144 187.756C51.7902 188.05 52.1473 188.244 52.5345 188.311C52.874 188.363 53.22 188.288 53.5127 188.1C53.6208 188.035 53.7218 187.958 53.8138 187.87C53.8918 187.806 53.9596 187.728 54.0144 187.641L53.3121 186.962L52.7435 187.306C52.7006 187.34 52.6467 187.356 52.593 187.35C52.5429 187.335 52.497 187.308 52.4592 187.27L52.3589 187.173C52.3087 187.12 52.292 187.085 52.292 187.05C52.3104 187.007 52.3431 186.972 52.384 186.953L53.2786 186.406C53.3315 186.373 53.3928 186.357 53.4542 186.362C53.5177 186.376 53.5758 186.41 53.6214 186.459L54.6248 187.429L54.6917 187.517C54.6917 187.517 54.6917 187.57 54.6917 187.606C54.5101 187.987 54.2169 188.296 53.8556 188.488C53.4213 188.781 52.9049 188.909 52.3923 188.849Z" fill="#455A64"/>
<path d="M63.615 181.766C63.6922 181.839 63.7504 181.931 63.7841 182.034C63.8178 182.137 63.8257 182.247 63.8073 182.354C63.7888 182.462 63.7445 182.562 63.6786 182.646C63.6127 182.73 63.5275 182.794 63.4311 182.834C63.2152 182.962 62.9678 183.02 62.7205 183C62.4732 182.979 62.2374 182.882 62.0431 182.719C61.9679 182.646 61.9114 182.555 61.879 182.453C61.8465 182.351 61.8391 182.242 61.8575 182.136C61.8759 182.03 61.9195 181.931 61.9841 181.848C62.0487 181.765 62.1323 181.7 62.2271 181.66C62.4428 181.533 62.6894 181.475 62.9361 181.493C63.1829 181.512 63.419 181.607 63.615 181.766Z" fill="#455A64"/>
<path d="M61.2297 180.699C60.8897 180.865 60.6102 181.143 60.4337 181.492C60.2572 181.84 60.1932 182.24 60.2514 182.631C60.2831 182.708 60.3375 182.774 60.4067 182.816C60.4759 182.859 60.5562 182.878 60.636 182.869C60.8785 182.869 61.0625 182.701 61.0207 182.516C60.9797 182.242 61.0245 181.961 61.1481 181.716C61.2718 181.471 61.4677 181.275 61.7063 181.158C62.2843 180.834 62.9594 180.761 63.5876 180.955C63.6836 180.996 63.7907 180.998 63.888 180.96C63.9853 180.923 64.066 180.849 64.1143 180.752C64.1645 180.611 64.1143 180.461 63.897 180.408C63.4561 180.269 62.9935 180.223 62.5358 180.273C62.0781 180.323 61.6342 180.468 61.2297 180.699Z" fill="#455A64"/>
<path d="M60.2672 179.764C59.758 180.013 59.3316 180.418 59.0438 180.926C58.7559 181.434 58.6199 182.022 58.6534 182.613C58.6751 182.7 58.7261 182.776 58.7969 182.826C58.8676 182.877 58.9534 182.898 59.038 182.886C59.2722 182.886 59.4477 182.728 59.431 182.551C59.4013 182.07 59.5098 181.59 59.7425 181.175C59.9752 180.759 60.3212 180.427 60.7354 180.223C61.7316 179.65 62.8941 179.49 63.9963 179.773C64.0915 179.803 64.1935 179.798 64.2861 179.76C64.3786 179.722 64.4561 179.652 64.5063 179.561C64.5565 179.411 64.4394 179.261 64.2555 179.208C62.9069 178.862 61.4843 179.06 60.2672 179.764Z" fill="#455A64"/>
<path d="M36.4489 199.478L35.6211 198.667L37.0592 197.794L37.8954 198.605L36.4489 199.478Z" fill="#455A64"/>
<path d="M38.617 198.164L36.9531 196.55L38.3913 195.668L40.0552 197.282L38.617 198.164Z" fill="#455A64"/>
<path d="M40.7813 196.85L38.2812 194.424L39.7278 193.542L42.2278 195.968L40.7813 196.85Z" fill="#455A64"/>
<path d="M42.9377 195.527L39.6016 192.298L41.0481 191.416L44.3759 194.654L42.9377 195.527Z" fill="#455A64"/>
<path d="M130.704 137.865C130.443 137.799 130.168 137.831 129.926 137.953L124.542 141.226C124.19 141.437 124.199 141.878 124.542 142.222L126.055 143.696C126.277 143.901 126.549 144.035 126.841 144.084C126.969 144.101 127.098 144.101 127.225 144.084C127.363 144.08 127.498 144.041 127.618 143.969L133.003 140.696C133.354 140.485 133.346 140.044 133.003 139.7L131.49 138.227C131.264 138.033 130.992 137.908 130.704 137.865ZM126.858 143.845C126.732 143.818 126.616 143.754 126.523 143.66L125.01 142.196C124.742 141.94 124.734 141.587 125.01 141.437L130.394 138.165C130.458 138.126 130.53 138.102 130.603 138.094H130.704C130.83 138.122 130.945 138.186 131.038 138.28L132.552 139.753C132.811 140.008 132.819 140.352 132.552 140.511L127.167 143.784C127.117 143.818 127.06 143.841 127.002 143.852C126.943 143.862 126.882 143.86 126.824 143.845H126.858Z" fill="#455A64"/>
<path d="M126.242 141.067L128.031 142.831L127.195 143.343C127.155 143.364 127.111 143.376 127.066 143.376C127.02 143.376 126.976 143.364 126.936 143.343L125.598 142.055C125.414 141.87 125.406 141.605 125.598 141.49L126.242 141.067Z" fill="#455A64"/>
<path d="M126.641 140.829L127.652 140.211L129.442 141.949L128.43 142.566L126.641 140.829Z" fill="#455A64"/>
<path d="M128.043 139.982L129.055 139.365L130.852 141.111L129.841 141.72L128.043 139.982Z" fill="#455A64"/>
<path d="M130.574 138.624L131.87 139.876C132.104 140.114 131.996 140.414 131.577 140.661L131.243 140.873L129.445 139.109L130.281 138.624C130.376 138.586 130.48 138.586 130.574 138.624Z" fill="#455A64"/>
<path d="M131.666 138.191C131.816 138.094 132.193 138.271 132.502 138.571L132.778 138.844C133.096 139.144 133.23 139.47 133.087 139.567L132.828 139.744L131.398 138.359L131.666 138.191Z" fill="#455A64"/>
<path d="M116.719 147.559L121.142 143.59L122.471 147.427L120.063 146.298L116.719 147.559Z" fill="#455A64"/>
<path d="M62.7722 159.441L79.0433 149.526C79.5265 149.237 80.0755 149.092 80.631 149.108C81.1865 149.123 81.7274 149.298 82.1955 149.614C82.9647 150.25 82.8058 151.255 81.8359 151.846L65.5648 161.752C65.0822 162.043 64.5329 162.189 63.977 162.174C63.4211 162.158 62.88 161.982 62.4126 161.664C61.6434 161.029 61.8023 160.032 62.7722 159.441Z" fill="#263238"/>
<path d="M86.822 143.969C87.3905 143.645 88.0321 143.491 88.6776 143.523C89.323 143.556 89.9478 143.774 90.4842 144.154C91.4123 144.922 91.2702 146.086 90.1832 146.801C89.6148 147.125 88.9731 147.279 88.3276 147.246C87.6822 147.214 87.0575 146.995 86.521 146.615C85.6012 145.804 85.735 144.639 86.822 143.969Z" fill="#263238"/>
<path d="M110.288 176.183L108.365 174.595C108.01 174.312 107.588 174.138 107.145 174.093C106.702 174.048 106.256 174.133 105.856 174.339L103.498 175.768C103.351 175.857 103.228 175.985 103.142 176.14C103.057 176.295 103.012 176.471 103.012 176.65C103.012 176.829 103.057 177.006 103.142 177.16C103.228 177.315 103.351 177.444 103.498 177.532L105.422 179.12C105.302 179.186 105.203 179.284 105.133 179.406C105.063 179.527 105.026 179.666 105.026 179.808C105.026 179.95 105.063 180.089 105.133 180.21C105.203 180.332 105.302 180.43 105.422 180.496L109.293 183.707C109.566 183.92 109.89 184.051 110.229 184.086C110.568 184.12 110.909 184.056 111.216 183.901L116.141 180.902C116.26 180.836 116.36 180.737 116.429 180.616C116.499 180.495 116.536 180.356 116.536 180.214C116.536 180.072 116.499 179.933 116.429 179.812C116.36 179.69 116.26 179.591 116.141 179.526L112.261 176.315C111.977 176.099 111.642 175.972 111.293 175.949C110.943 175.925 110.595 176.006 110.288 176.183ZM104 177.25C103.615 176.924 103.615 176.465 104 176.227L106.358 174.789C106.586 174.673 106.84 174.624 107.092 174.649C107.344 174.674 107.584 174.771 107.788 174.93L109.703 176.527L105.906 178.838L104 177.25Z" fill="#455A64"/>
<path d="M124.409 228.164C124.827 228.508 124.785 228.825 124.301 229.125L123.665 229.513C123.463 229.663 123.219 229.737 122.972 229.725C122.725 229.712 122.49 229.613 122.302 229.443L105.387 215.435L103.305 222.324C103.146 222.774 102.762 222.96 102.151 222.863L101.382 222.766C101.148 222.746 100.927 222.643 100.755 222.474C100.686 222.411 100.638 222.327 100.617 222.234C100.596 222.141 100.603 222.043 100.638 221.954L103.146 213.751C103.197 213.591 103.29 213.45 103.414 213.345C103.544 213.238 103.681 213.14 103.824 213.054L104.459 212.666C104.662 212.519 104.906 212.446 105.152 212.459C105.398 212.472 105.633 212.569 105.822 212.736L124.409 228.164Z" fill="#455A64"/>
<path d="M115.579 213.91C114.955 213.364 114.431 212.703 114.032 211.96C113.629 211.233 113.424 210.403 113.438 209.561C113.476 208.643 113.766 207.757 114.274 207.012C114.995 205.984 115.927 205.143 117 204.551C118.159 203.825 119.417 203.292 120.729 202.972C121.87 202.701 123.042 202.609 124.208 202.698C125.267 202.775 126.307 203.038 127.285 203.474C128.184 203.865 129.028 204.384 129.793 205.018C130.829 205.79 131.606 206.89 132.009 208.158C132.324 209.47 132.347 210.841 132.076 212.163L130.997 222.527L142.218 215.7C142.429 215.544 142.683 215.466 142.94 215.479C143.197 215.492 143.443 215.594 143.639 215.771L144.066 216.124C144.484 216.468 144.434 216.794 143.915 217.111L130.228 225.518C130.024 225.664 129.781 225.737 129.535 225.724C129.289 225.712 129.054 225.614 128.865 225.447L128.438 225.094C128.258 224.953 128.128 224.75 128.071 224.521C128.008 224.216 128.008 223.9 128.071 223.595L129.392 212.225C129.512 211.549 129.582 210.865 129.601 210.178C129.612 209.659 129.544 209.14 129.4 208.643C129.271 208.202 129.06 207.791 128.781 207.435C128.464 207.033 128.105 206.669 127.711 206.35C126.499 205.323 125.008 204.73 123.455 204.656C121.778 204.607 120.125 205.077 118.697 206.006C117.151 206.95 116.323 207.991 116.189 209.137C116.157 209.782 116.265 210.426 116.506 211.019C116.746 211.612 117.113 212.14 117.577 212.56C117.659 212.631 117.72 212.725 117.753 212.831C117.785 212.938 117.788 213.052 117.761 213.16C117.709 213.328 117.603 213.472 117.46 213.566L116.791 213.971C116.61 214.101 116.394 214.165 116.175 214.154C115.957 214.142 115.747 214.057 115.579 213.91Z" fill="#455A64"/>
<path d="M141.573 203.404C141.656 203.455 141.722 203.531 141.763 203.622C141.805 203.713 141.82 203.815 141.807 203.916C141.779 204.019 141.73 204.115 141.663 204.198C141.597 204.28 141.515 204.346 141.422 204.392L139.817 205.371C139.614 205.518 139.37 205.59 139.124 205.578C138.878 205.565 138.643 205.467 138.454 205.3L137.091 204.171C137.011 204.116 136.944 204.04 136.899 203.951C136.854 203.861 136.831 203.761 136.832 203.66C136.846 203.556 136.884 203.458 136.944 203.374C137.004 203.291 137.084 203.225 137.175 203.183L138.789 202.204C139.01 202.064 139.267 201.999 139.524 202.019C139.773 202.023 140.014 202.113 140.21 202.275L141.573 203.404ZM151.506 211.634C151.589 211.685 151.655 211.761 151.697 211.852C151.738 211.943 151.754 212.045 151.74 212.145C151.712 212.248 151.665 212.343 151.6 212.425C151.535 212.507 151.455 212.574 151.364 212.622L149.75 213.601C149.547 213.748 149.304 213.82 149.058 213.807C148.812 213.795 148.576 213.697 148.387 213.53L147.033 212.401C146.949 212.348 146.881 212.273 146.834 212.183C146.787 212.094 146.763 211.992 146.765 211.89C146.779 211.785 146.818 211.685 146.88 211.601C146.942 211.518 147.023 211.453 147.116 211.413L148.722 210.434C148.944 210.297 149.2 210.233 149.458 210.249C149.706 210.255 149.946 210.345 150.143 210.505L151.506 211.634Z" fill="#455A64"/>
<path d="M150.516 184.554C150.726 184.398 150.98 184.32 151.238 184.333C151.495 184.345 151.741 184.448 151.937 184.624L152.363 184.977C152.462 185.048 152.538 185.15 152.581 185.268C152.608 185.372 152.628 185.478 152.639 185.586L152.581 195.694L153.25 195.289C154.345 194.612 155.509 194.068 156.72 193.666C157.843 193.286 159.011 193.075 160.19 193.039C161.324 193.015 162.453 193.188 163.534 193.551C164.639 193.939 165.668 194.537 166.569 195.315C167.397 195.945 168.057 196.79 168.484 197.767C168.805 198.574 168.863 199.471 168.651 200.317C168.387 201.257 167.907 202.114 167.255 202.813C166.439 203.713 165.501 204.48 164.471 205.089C163.288 205.815 162.024 206.384 160.708 206.782C159.541 207.141 158.336 207.348 157.121 207.4C156.072 207.446 155.022 207.336 154.002 207.073C153.142 206.869 152.329 206.485 151.611 205.944C151.539 205.897 151.481 205.828 151.445 205.747C151.41 205.665 151.398 205.574 151.41 205.486C151.441 205.393 151.49 205.307 151.553 205.234C151.616 205.161 151.693 205.103 151.778 205.062L152.246 204.78C152.438 204.661 152.652 204.586 152.874 204.559C153.196 204.534 153.518 204.607 153.802 204.771C154.556 205.163 155.372 205.405 156.21 205.486C156.997 205.558 157.79 205.52 158.568 205.371C159.331 205.233 160.077 205.005 160.792 204.692C161.469 204.398 162.128 204.059 162.765 203.677C163.54 203.224 164.254 202.663 164.889 202.01C165.38 201.524 165.75 200.918 165.967 200.246C166.145 199.639 166.109 198.984 165.867 198.402C165.552 197.696 165.067 197.088 164.462 196.638C163.206 195.53 161.599 194.963 159.964 195.051C158.184 195.217 156.466 195.821 154.947 196.815L152.004 198.579C151.801 198.727 151.559 198.801 151.313 198.79C151.067 198.779 150.831 198.683 150.641 198.517L150.215 198.164C150.089 198.067 149.985 197.94 149.914 197.794C149.868 197.673 149.842 197.545 149.838 197.415V187.412L139.721 193.586C139.52 193.734 139.278 193.807 139.033 193.794C138.788 193.781 138.553 193.683 138.367 193.516L137.94 193.163C137.505 192.801 137.531 192.475 138.024 192.175L150.516 184.554Z" fill="#455A64"/>
<path d="M183.191 192.316C183.609 192.66 183.567 192.978 183.083 193.278L182.439 193.666C182.235 193.812 181.992 193.885 181.746 193.872C181.5 193.86 181.265 193.762 181.076 193.595L164.144 179.579L162.062 186.477C161.903 186.927 161.519 187.103 160.908 187.015L160.139 186.909C159.903 186.894 159.679 186.794 159.504 186.627C159.438 186.561 159.393 186.477 159.374 186.384C159.354 186.291 159.362 186.195 159.395 186.106L161.903 177.894C161.955 177.738 162.048 177.6 162.171 177.497C162.296 177.387 162.43 177.289 162.572 177.206L163.216 176.818C163.418 176.67 163.66 176.597 163.905 176.61C164.15 176.623 164.384 176.721 164.571 176.888L183.191 192.316Z" fill="#455A64"/>
<path d="M127.414 255.835L213.301 203.518C214.502 202.833 215.858 202.508 217.221 202.578C218.584 202.648 219.904 203.11 221.036 203.915L240.568 220.093C242.524 221.716 242.24 224.177 239.932 225.579L154.037 277.896C152.837 278.585 151.482 278.913 150.118 278.845C148.754 278.776 147.434 278.314 146.302 277.508L126.77 261.33C124.856 259.707 125.098 257.273 127.414 255.835Z" fill="white"/>
<path d="M162.595 285.005L248.49 232.689C249.69 232.001 251.045 231.673 252.409 231.741C253.773 231.81 255.093 232.272 256.225 233.077L275.748 249.255C277.713 250.878 277.42 253.339 275.113 254.75L189.234 307.066C188.034 307.753 186.679 308.079 185.315 308.011C183.952 307.943 182.632 307.482 181.5 306.678L161.976 290.492C159.969 288.869 160.287 286.381 162.595 285.005Z" fill="white"/>
<path d="M197.783 314.167L283.712 261.851C284.911 261.161 286.267 260.833 287.631 260.901C288.995 260.97 290.314 261.433 291.446 262.239L310.936 278.443C312.893 280.066 312.609 282.518 310.292 283.929L224.405 336.228C223.206 336.917 221.851 337.246 220.487 337.177C219.123 337.109 217.803 336.646 216.671 335.84L197.139 319.654C195.182 318.031 195.467 315.578 197.783 314.167Z" fill="white"/>
<path d="M232.709 316.487H232.667C230.73 316.655 228.797 316.116 227.191 314.961L224.682 312.879C221.823 310.506 216.764 310.233 213.386 312.315C210.042 314.37 209.59 317.96 212.45 320.333L214.691 322.185C215.334 322.641 215.829 323.294 216.108 324.056C216.388 324.818 216.439 325.652 216.254 326.446L216.722 327.557C217.138 327.855 217.623 328.025 218.125 328.05C218.627 328.075 219.125 327.953 219.565 327.698L233.846 319.019C234.033 318.945 234.196 318.819 234.32 318.654C234.443 318.489 234.521 318.292 234.545 318.084C234.569 317.875 234.538 317.664 234.457 317.472C234.375 317.281 234.245 317.117 234.081 316.999C233.683 316.685 233.205 316.507 232.709 316.487ZM230.201 326.234C231.823 325.246 232.024 323.517 230.644 322.379L224.791 325.961C225.585 326.519 226.507 326.84 227.46 326.888C228.413 326.937 229.36 326.71 230.201 326.234Z" fill="#E0E0E0"/>
<path d="M197.591 286.637H197.549C195.612 286.808 193.678 286.269 192.073 285.111L189.564 283.03C186.696 280.657 181.638 280.383 178.26 282.465C174.915 284.52 174.464 288.11 177.332 290.483L179.573 292.336C180.213 292.794 180.706 293.447 180.985 294.208C181.264 294.969 181.317 295.802 181.136 296.596L181.596 297.707C182.012 298.004 182.497 298.174 182.999 298.199C183.5 298.224 183.998 298.103 184.439 297.849L198.728 289.151C198.915 289.078 199.078 288.952 199.202 288.787C199.325 288.622 199.403 288.425 199.427 288.216C199.451 288.008 199.42 287.797 199.339 287.605C199.257 287.414 199.127 287.25 198.962 287.131C198.564 286.824 198.085 286.651 197.591 286.637ZM195.083 296.34C196.705 295.352 196.906 293.632 195.534 292.494L189.681 296.023C190.465 296.597 191.383 296.933 192.335 296.996C193.288 297.058 194.238 296.843 195.083 296.376V296.34Z" fill="#E0E0E0"/>
<g opacity="0.3">
<path d="M227.949 191.725L202.071 170.29L160.699 310.056L186.569 331.5L227.949 191.725Z" fill="white"/>
<path d="M306.064 262.15L262.209 225.8L222.184 361.023L226.23 364.384C229.232 366.871 234.525 367.136 238.045 364.975L283.898 337.039L306.064 262.15Z" fill="white"/>
<path d="M137.15 290.554L178.522 150.779L144.658 122.72C140.887 119.597 134.165 119.253 129.7 121.97L129.073 122.358L111.121 133.287L78.8633 242.277L137.15 290.554Z" fill="white"/>
</g>
<path opacity="0.2" d="M204.955 286.938C236.065 286.938 261.285 272.993 261.285 255.791C261.285 238.59 236.065 224.645 204.955 224.645C173.845 224.645 148.625 238.59 148.625 255.791C148.625 272.993 173.845 286.938 204.955 286.938Z" fill="black"/>
<path d="M229.557 273.151C229.557 273.151 247.074 266.491 252.785 256.726C252.258 245.903 251.271 226.471 251.112 226.594L218.094 230.202L225.075 260.74L229.557 273.151Z" fill="#37474F"/>
<path d="M242.43 254.036C245.524 248.382 248.216 234.806 248.225 230.219H158.918C158.918 230.219 157.245 250.578 157.387 258.764C157.387 258.764 157.387 258.825 157.387 258.852C159.252 263.712 163.642 266.694 173.642 271.272C192.154 279.731 217.271 278.443 229.545 273.142V268.828C229.545 268.828 239.337 259.69 242.43 254.036Z" fill="#455A64"/>
<path d="M265.366 138.121C279.914 151.511 282.582 154.246 282.582 154.246C286.587 136.666 289.898 124.378 290.408 116.916C290.918 109.454 300.057 93.0997 300.057 93.0997C307.34 95.0844 313.059 107.213 309.371 119.562C306.687 128.551 311.763 150.435 306.545 179.341C303.811 194.478 295.868 198.059 280.45 188.876C269.647 182.446 250.14 167.548 250.14 167.548L235.332 115.593C247.749 117.904 251.193 125.075 265.366 138.121Z" fill="#9974FF"/>
<path d="M237.711 115.363C244.751 116.828 249.592 120.656 257.628 129.089C265.663 137.521 282.661 153.787 282.661 153.787C280.08 161.88 279.818 170.597 281.909 178.847C284.919 191.055 289.576 193.11 289.576 193.11C289.576 193.11 285.905 194.23 276.198 187.624C266.491 181.017 244.877 164.69 244.877 164.69L237.711 115.363Z" fill="#455A64"/>
<path d="M283.496 150.241C283.496 150.241 281.824 178.265 289.968 186.071C298.112 193.878 303.346 188.718 303.346 188.718C303.346 188.718 302.919 196.656 297.97 196.418C293.02 196.18 292.25 196.568 289.341 196.471C286.431 196.374 281.866 195.951 279.8 189.82C273.713 177.409 275.954 161.117 280.185 151.308C281.598 152.067 281.59 149.924 283.496 150.241Z" fill="#37474F"/>
<path d="M320.998 93.8493C320.805 98.886 318.949 102.309 317.979 104.893C314.217 114.922 312.126 113.714 308.364 121.459L300.479 99.9446C297.043 93.5847 299.752 90.7621 305.061 89.4301L320.998 93.8493Z" fill="#52379D"/>
<path d="M274.569 85.1344C276.468 86.4736 278.7 87.189 280.983 87.1901C283.267 87.1912 285.499 86.4779 287.399 85.1404C289.298 83.803 290.779 81.9014 291.654 79.6761C292.529 77.4509 292.759 75.0018 292.315 72.6387C291.87 70.2756 290.772 68.1046 289.158 66.4C287.544 64.6955 285.488 63.534 283.248 63.0625C281.009 62.591 278.687 62.8307 276.577 63.7511C274.466 64.6715 272.662 66.2315 271.392 68.2336C270.548 69.5634 269.962 71.0554 269.665 72.6245C269.368 74.1935 269.367 75.8089 269.662 77.3784C269.957 78.9478 270.542 80.4406 271.384 81.7713C272.226 83.1021 273.309 84.2449 274.569 85.1344Z" fill="#455A64"/>
<path d="M278.992 80.9357L292.495 73.879C292.75 76.7856 292.008 79.6922 290.403 82.0697C288.797 84.4473 286.436 86.1377 283.749 86.8334C281.062 87.529 278.227 87.1835 275.761 85.8599C273.295 84.5363 271.362 82.3224 270.312 79.6214C272.177 82.25 274.652 83.185 278.992 80.9357Z" fill="#37474F"/>
<path d="M288.883 77.6984L289.485 67.9161C297.095 76.6524 305.841 84.2049 315.463 90.3475L315.221 94.264C309.092 92.3234 298.431 85.3196 288.883 77.6984Z" fill="#37474F"/>
<path d="M283.383 86.2282L288.851 85.7871L299.411 93.1261C301.736 94.7392 304.416 95.6916 307.192 95.891C309.968 96.0903 312.746 95.5299 315.256 94.264C308.099 91.6177 297.63 84.561 288.885 77.6984L283.383 86.2282Z" fill="#455A64"/>
<path d="M301.296 85.2668V85.5579C301.267 85.8067 301.183 86.0447 301.051 86.253C300.918 86.4614 300.742 86.6341 300.535 86.7576L298.62 87.7543C298.227 87.9572 298.211 88.3277 298.57 88.5835L298.796 88.7422C299.001 88.8708 299.232 88.9465 299.471 88.9634C299.709 88.9802 299.947 88.9377 300.167 88.8393L302.107 87.8337C302.314 87.7115 302.49 87.5388 302.621 87.3301C302.752 87.1215 302.834 86.8828 302.86 86.6341V86.3606C302.86 86.1084 302.805 85.8596 302.697 85.6343C302.59 85.409 302.433 85.2136 302.241 85.0639L302.015 84.8964C301.639 84.6582 301.321 84.8258 301.296 85.2668Z" fill="#52379D"/>
<path d="M304.905 87.463V87.7453C304.875 87.9962 304.79 88.2363 304.657 88.4462C304.523 88.6561 304.344 88.8299 304.135 88.9537L302.229 89.9417C301.836 90.1534 301.811 90.5239 302.179 90.7797L302.405 90.9384C302.61 91.0669 302.841 91.1427 303.079 91.1596C303.318 91.1764 303.556 91.1339 303.776 91.0355L305.716 90.0299C305.923 89.9069 306.099 89.7327 306.229 89.5223C306.358 89.3118 306.438 89.0713 306.46 88.8214V88.548C306.461 88.2958 306.405 88.0469 306.297 87.8217C306.19 87.5964 306.034 87.401 305.841 87.2513L305.615 87.0926C305.248 86.8367 304.93 87.0308 304.905 87.463Z" fill="#52379D"/>
<path d="M308.506 89.6772V89.9683C308.474 90.2184 308.388 90.4574 308.255 90.6669C308.121 90.8764 307.944 91.0508 307.737 91.1767L305.831 92.1647C305.438 92.3676 305.413 92.738 305.78 93.0027L306.006 93.1526C306.209 93.2831 306.439 93.36 306.676 93.3769C306.914 93.3938 307.151 93.3502 307.369 93.2496L309.309 92.2441C309.517 92.123 309.694 91.9506 309.825 91.7417C309.956 91.5328 310.037 91.2936 310.061 91.0444V90.771C310.058 90.5195 310.001 90.2721 309.894 90.0474C309.787 89.8228 309.632 89.6268 309.443 89.4743L309.217 89.3155C308.849 89.0068 308.531 89.1744 308.506 89.6772Z" fill="#52379D"/>
<path d="M283.58 57.7368C281.983 58.566 280.863 60.3831 280.512 63.0999C280.512 63.3822 280.445 63.6732 280.428 63.982C280.412 64.2907 280.428 64.6965 280.428 65.0669C280.43 65.6776 280.469 66.2875 280.545 66.8928C280.679 68.0554 280.908 69.2035 281.231 70.3241C282.126 73.4356 283.611 76.3226 285.596 78.8098C286.534 79.9715 287.614 80.9977 288.806 81.8618C291.248 83.626 293.539 83.9259 295.295 83.0879L289.275 86.2193C288.096 86.7536 286.807 86.9611 285.531 86.8222C284.255 86.6832 283.034 86.2024 281.983 85.4254C280.84 84.6067 279.805 83.6308 278.907 82.5234C276.852 80.0045 275.32 77.0599 274.408 73.8789C274.082 72.7624 273.852 71.6169 273.723 70.4565C273.647 69.8481 273.608 69.2353 273.605 68.6217C273.605 68.2601 273.605 67.8984 273.605 67.5456C273.605 67.1928 273.656 66.9546 273.697 66.6635C273.872 65.4742 274.301 64.3425 274.951 63.3538C275.602 62.3651 276.457 61.5453 277.452 60.9564L277.619 60.8682C277.689 60.8276 277.762 60.7923 277.836 60.7624L283.58 57.7368Z" fill="#52379D"/>
<path opacity="0.1" d="M289.247 86.2195C288.068 86.7538 286.78 86.9613 285.504 86.8224C284.227 86.6834 283.006 86.2026 281.956 85.4257C280.812 84.607 279.778 83.631 278.879 82.5236L285.568 78.8188C286.506 79.9806 287.586 81.0068 288.779 81.8709C291.22 83.635 293.511 83.9349 295.267 83.097L289.247 86.2195Z" fill="black"/>
<path d="M290.212 58.9011C295.229 62.4295 298.967 70.4388 298.574 76.7721C298.381 79.9653 297.169 82.1264 295.38 83.0349L295.279 83.0879C293.523 83.9699 291.232 83.5907 288.791 81.8618C283.774 78.3334 280.045 70.3241 280.43 63.9819C280.63 60.8241 281.818 58.6894 283.582 57.7456C285.346 56.8018 287.704 57.1281 290.212 58.9011Z" fill="#52379D"/>
<path opacity="0.2" d="M290.212 58.9011C295.229 62.4295 298.967 70.4388 298.574 76.7721C298.381 79.9653 297.169 82.1264 295.38 83.0349L295.279 83.0879C293.523 83.9699 291.232 83.5907 288.791 81.8618C283.774 78.3334 280.045 70.3241 280.43 63.9819C280.63 60.8241 281.818 58.6894 283.582 57.7456C285.346 56.8018 287.704 57.1281 290.212 58.9011Z" fill="black"/>
<path d="M305.021 32.5887C305.021 32.5887 303.759 43.8088 310.983 59.2188C312.272 61.9849 313.739 64.655 315.373 67.2105C321.435 76.6752 327.363 80.4417 327.363 80.4417C320.005 78.854 312.053 77.7249 304.194 79.6567C301.127 80.4185 298.102 81.3519 295.13 82.4529C293.508 83.2908 291.367 82.938 289.118 81.3503C287.558 80.2088 286.198 78.7913 285.096 77.1604C284.341 76.076 283.681 74.9217 283.123 73.7114C281.652 70.7187 280.932 67.3781 281.033 64.0085C281.217 61.1594 282.253 59.1482 283.867 58.3102C286.506 56.4954 289.051 54.5344 291.493 52.4356C297.73 47.046 301.727 39.7071 305.021 32.5887Z" fill="#52379D"/>
<path opacity="0.6" d="M305.021 32.5887C305.021 32.5887 303.759 43.8088 310.983 59.2188C312.272 61.9849 313.739 64.655 315.373 67.2105C321.435 76.6752 327.363 80.4417 327.363 80.4417C320.005 78.854 312.053 77.7249 304.194 79.6567C301.127 80.4185 298.102 81.3519 295.13 82.4529C293.508 83.2908 291.367 82.938 289.118 81.3503C287.558 80.2088 286.198 78.7913 285.096 77.1604C284.341 76.076 283.681 74.9217 283.123 73.7114C281.652 70.7187 280.932 67.3781 281.033 64.0085C281.217 61.1594 282.253 59.1482 283.867 58.3102C286.506 56.4954 289.051 54.5344 291.493 52.4356C297.73 47.046 301.727 39.7071 305.021 32.5887Z" fill="white"/>
<path opacity="0.1" d="M315.37 67.2105C321.432 76.6752 327.36 80.4417 327.36 80.4417C320.002 78.854 312.051 77.7249 304.191 79.6567C301.125 80.4185 298.099 81.3519 295.127 82.4529C293.505 83.2909 291.365 82.938 289.116 81.3503C287.556 80.2088 286.195 78.7913 285.094 77.1604C292.117 72.9176 304.158 66.593 315.37 67.2105Z" fill="black"/>
<path d="M326.334 24.8175C331.551 28.5046 336.2 34.2293 339.712 40.7744C344.177 49.163 346.752 58.8836 346.225 67.3516C345.28 82.444 334.854 87.86 322.939 79.4538C320.101 77.4079 317.538 74.9658 315.322 72.1942C309.462 64.8765 305.463 56.1073 303.699 46.7108C303.474 45.4318 303.298 44.1704 303.181 42.909C303.131 42.3886 303.089 41.8594 303.064 41.3389C303.022 40.598 302.997 39.8659 303.006 39.1425C303.014 38.4192 303.005 37.643 303.072 36.9109C303.967 21.8272 314.385 16.4113 326.334 24.8175Z" fill="#52379D"/>
<path opacity="0.1" d="M339.667 40.7834C344.132 49.172 346.707 58.8926 346.181 67.3606C345.236 82.453 334.809 87.869 322.894 79.4627C320.056 77.4169 317.494 74.9748 315.277 72.2032C317.284 72.5472 321.13 71.4534 320.369 69.1865C322.348 71.6334 324.625 73.7927 327.142 75.6081C330.562 78.025 333.831 79.1364 336.607 78.9247C337.762 78.8283 338.878 78.4457 339.866 77.8081C340.854 77.1704 341.686 76.2958 342.293 75.2552C343.812 72.5861 344.651 69.547 344.726 66.4344C345.177 59.2278 343.095 50.8391 339.45 43.3591C339.45 43.4032 340.428 43.1121 339.667 40.7834Z" fill="black"/>
<path d="M326.111 26.6345C331.371 30.3481 336.078 36.4874 339.439 43.3941C343.085 50.8742 345.167 59.2716 344.715 66.4694C344.64 69.5821 343.802 72.6211 342.282 75.2903C341.675 76.3308 340.844 77.2055 339.856 77.8431C338.868 78.4808 337.751 78.8633 336.596 78.9597C333.829 79.2067 330.551 78.0776 327.131 75.6431C324.615 73.8278 322.337 71.6684 320.359 69.2215C319.567 68.263 318.804 67.2515 318.068 66.1872C316.773 64.3203 315.594 62.3668 314.539 60.3389C314.322 59.9155 314.113 59.4569 313.904 59.0687C313.553 58.3631 313.218 57.6486 312.9 56.9341C311.815 54.4932 310.907 51.9691 310.183 49.3835V49.2953C309.714 47.6351 309.337 45.9474 309.054 44.2409C308.854 43.0413 308.703 41.8505 308.611 40.7126C308.611 40.2186 308.536 39.7335 308.519 39.2483C308.502 38.7632 308.519 38.084 308.519 37.4842C308.519 36.8843 308.519 36.3727 308.578 35.8258C308.655 32.7135 309.493 29.675 311.011 27.005C313.987 22.2065 319.64 22.083 326.111 26.6345Z" fill="#52379D"/>
<path opacity="0.4" d="M326.111 26.6345C331.371 30.3481 336.078 36.4874 339.439 43.3941C343.085 50.8742 345.167 59.2716 344.715 66.4694C344.64 69.5821 343.802 72.6211 342.282 75.2903C341.675 76.3308 340.844 77.2055 339.856 77.8431C338.868 78.4808 337.751 78.8633 336.596 78.9597C333.829 79.2067 330.551 78.0776 327.131 75.6431C324.615 73.8278 322.337 71.6684 320.359 69.2215C319.567 68.263 318.804 67.2515 318.068 66.1872C316.773 64.3203 315.594 62.3668 314.539 60.3389C314.322 59.9155 314.113 59.4569 313.904 59.0687C313.553 58.3631 313.218 57.6486 312.9 56.9341C311.815 54.4932 310.907 51.9691 310.183 49.3835V49.2953C309.714 47.6351 309.337 45.9474 309.054 44.2409C308.854 43.0413 308.703 41.8505 308.611 40.7126C308.611 40.2186 308.536 39.7335 308.519 39.2483C308.502 38.7632 308.519 38.084 308.519 37.4842C308.519 36.8843 308.519 36.3727 308.578 35.8258C308.655 32.7135 309.493 29.675 311.011 27.005C313.987 22.2065 319.64 22.083 326.111 26.6345Z" fill="black"/>
<path d="M321.617 44.0909L328.624 58.8041C325.421 60.63 321.483 62.8264 318.816 67.2368C318.565 66.8928 318.323 66.5488 318.08 66.196C316.783 64.3312 315.604 62.3775 314.552 60.3477C314.326 59.9243 314.117 59.4657 313.908 59.0775C313.557 58.3719 313.222 57.6574 312.905 56.9429C311.82 54.502 310.911 51.9779 310.187 49.3923V49.3041C310.087 48.9336 309.987 48.5631 309.895 48.1838C314.886 48.5543 321.617 44.0909 321.617 44.0909Z" fill="#37474F"/>
<path d="M329.397 57.9222C328.461 59.3953 326.789 59.4746 324.907 58.1515H324.849C323.294 56.9218 322.036 55.3223 321.177 53.483C320.318 51.6437 319.883 49.6166 319.907 47.5665V47.4959C319.931 46.6229 320.17 45.7715 320.601 45.0261C321.529 43.5618 323.21 43.4736 325.091 44.8056H325.15C326.701 46.0387 327.955 47.6391 328.812 49.4778C329.669 51.3164 330.104 53.3418 330.083 55.3906V55.4612C330.051 56.3328 329.813 57.1821 329.389 57.931L329.397 57.9222Z" fill="#52379D"/>
<path d="M303.324 81.4385C303.324 81.4385 305.69 80.6976 306.527 80.5565C308.517 80.0978 309.997 79.3392 311.485 80.8828C311.995 81.4121 312.321 82.4088 312.873 82.8322C313.425 83.2556 314.829 83.1145 315.615 83.2909C316.539 83.4558 317.37 83.9779 317.948 84.7552C318.324 85.3109 318.425 86.3253 318.935 86.6516C319.445 86.978 320.607 86.9957 321.351 87.322C322.957 88.0542 323.408 90.3123 324.002 91.8559C324.595 93.3996 325.716 95.8253 325.03 97.6159C324.458 98.9243 323.555 100.041 322.421 100.844C321.128 101.901 319.777 102.876 318.375 103.764C317.827 104.062 317.194 104.137 316.597 103.974C316 103.812 315.481 103.423 315.139 102.882C314.135 101.515 312.229 102 311.025 100.827C310.498 100.306 310.348 99.5301 309.838 99.0008C309.2 98.5086 308.717 97.8267 308.45 97.0426C308.04 95.446 308.776 93.7171 309.085 92.1647C309.255 90.7236 309.112 89.2608 308.667 87.8866C308.391 86.8722 307.948 85.2932 307.095 84.5964L303.324 81.4385Z" fill="#9974FF"/>
<path d="M290.389 116.916C290.59 107.522 290.046 103.482 290.063 99.045C290.063 93.9906 293.407 91.1062 297.362 87.7455C299.488 85.9973 301.465 84.0583 303.274 81.9502C304.754 80.186 306.066 85.5667 305.782 87.5779C305.423 89.9948 303.274 92.7557 301.877 94.908C298.658 99.8124 311.342 106.657 308.366 121.459C305.439 126.275 290.389 116.916 290.389 116.916Z" fill="#9974FF"/>
<path d="M249.713 154.528C248.935 125.198 236.619 117.154 231.769 115.037L212.02 110.847C205.992 111.544 180.314 119.668 173.232 121.52C168.683 122.702 168.892 132.052 166.593 147.453C164.729 159.961 163.683 170.502 162.563 187.941C161.618 202.557 160.506 219.202 162.956 239.878C194.194 249.934 224.169 254.75 247.405 235.97C246.862 231.851 249.228 197.538 249.42 187.456C249.612 177.374 249.922 162.466 249.713 154.528Z" fill="#FAFAFA"/>
<path d="M167.905 122.217L192.905 113.846C192.905 113.846 195.021 120.709 199.686 133.94C204.352 147.171 204.084 155.322 202.688 177.48C201.292 199.638 200.84 247.288 198.842 267.117C189.494 267.576 163.858 259.708 156.199 248.779C156.199 248.779 158.85 208.608 160.045 185.939C161.241 163.269 156.86 127.607 167.905 122.217Z" fill="#52379D"/>
<path opacity="0.15" d="M167.905 122.217L192.905 113.846C192.905 113.846 195.021 120.709 199.686 133.94C204.352 147.171 204.084 155.322 202.688 177.48C201.292 199.638 200.84 247.288 198.842 267.117C189.494 267.576 163.858 259.708 156.199 248.779C156.199 248.779 158.85 208.608 160.045 185.939C161.241 163.269 156.86 127.607 167.905 122.217Z" fill="black"/>
<path d="M220.785 114.666C228.963 118.971 233.937 129.477 234.74 143.413C235.543 157.35 238.469 185.233 238.921 195.739C240.953 241.404 243.16 253.674 243.16 253.674C247.224 251.469 252.274 248.858 252.993 242.577C252.081 232.804 251.513 195.448 251.438 186.724C251.362 178 250.894 157.827 250.602 147.162C250.309 136.498 247.859 123.055 239.406 115.822C233.445 113.933 227.303 112.75 221.095 112.294L220.785 114.666Z" fill="#52379D"/>
<path opacity="0.15" d="M220.785 114.666C228.963 118.971 233.937 129.477 234.74 143.413C235.543 157.35 238.469 185.233 238.921 195.739C240.953 241.404 243.16 253.674 243.16 253.674C247.224 251.469 252.274 248.858 252.993 242.577C252.081 232.804 251.513 195.448 251.438 186.724C251.362 178 250.894 157.827 250.602 147.162C250.309 136.498 247.859 123.055 239.406 115.822C233.445 113.933 227.303 112.75 221.095 112.294L220.785 114.666Z" fill="black"/>
<path d="M235.333 151.476C235.057 141.252 231.152 122.632 221.119 117.957C220.815 116.9 220.701 115.793 220.784 114.693L221.344 109.453C224.352 110.907 227.189 112.724 229.798 114.869C233.978 118.398 240.885 128.877 242.197 136.921C238.059 132.449 235.701 138.827 235.333 151.476Z" fill="#52379D"/>
<path opacity="0.45" d="M235.333 151.476C235.057 141.252 231.152 122.632 221.119 117.957C220.815 116.9 220.701 115.793 220.784 114.693L221.344 109.453C224.352 110.907 227.189 112.724 229.798 114.869C233.978 118.398 240.885 128.877 242.197 136.921C238.059 132.449 235.701 138.827 235.333 151.476Z" fill="white"/>
<path d="M194.234 103.737C192.453 96.7778 185.12 90.0652 181.558 84.1993C178.121 78.5452 175.981 74.1083 175.805 68.4806C175.705 65.1551 177.277 60.4624 179.518 59.2893C175.722 47.2577 183.958 40.6685 188.506 39.0013C190.642 38.3045 192.731 37.4587 194.76 36.4698C197.194 35.1025 197.57 32.9414 199.443 30.8685C202.67 27.3402 208.573 26.7139 211.249 31.239C213.297 27.8253 216.475 27.5872 220.221 28.2046C221.799 28.4186 223.241 29.2575 224.255 30.5515C225.269 31.8454 225.778 33.4975 225.68 35.1731C230.313 31.7947 235.129 34.9879 235.848 37.9781C236.383 40.1833 236.099 42.1151 237.671 43.9763C239.435 46.0845 242.395 45.7405 243.122 43.8352C243.916 46.9666 242.955 49.507 239.677 49.6569C240.312 50.4897 240.764 51.4597 241.002 52.498C241.241 53.5363 241.26 54.6172 241.057 55.6639C240.778 56.977 240.127 58.1696 239.191 59.0834C238.255 59.9971 237.077 60.5889 235.814 60.78C235.63 62.5442 235.697 64.1672 234.794 65.7726C233.952 67.4021 232.746 68.7915 231.283 69.8213C226.558 72.8028 221.157 74.1612 215.923 75.8636L209.727 77.8748C209.359 77.9983 207.461 78.307 207.269 78.6775L194.234 103.737Z" fill="#263238"/>
<path d="M185.275 95.4017C190.291 97.898 193.168 94.3697 193.168 94.3697L193.711 106.834L193.979 120.329C193.979 120.329 207.357 135.413 225.526 134.504C226.446 130.2 225.116 122.649 222.181 118.945L221.73 107.91C224.398 107.689 227.051 107.295 229.673 106.728C234.865 105.449 238.912 100.615 239.865 94.4579C240.869 88.0187 240.376 77.6983 238.411 70.3241C237.875 68.4435 237.593 66.4924 237.574 64.5288C237.616 59.3157 236.462 56.4048 234.815 52.1796C228.586 47.8486 212.131 48.4661 200.375 57.7103C203.686 64.176 202.591 71.1532 197.49 74.6816C197.934 76.7721 198.661 82.0911 195.358 82.3204C192.975 82.488 192.532 79.3654 189.848 76.8427C187.164 74.3199 181.412 74.1435 179.572 78.4481C177.005 84.4727 179.823 92.6673 185.275 95.4017Z" fill="#9974FF"/>
<path d="M221.74 107.91C213.312 107.707 206.89 107.38 201.974 101.444C198.889 97.7127 196.004 91.5205 196.004 91.5205C196.004 91.5205 197.559 99.2211 200.761 104.231C203.22 108.086 208.68 110.962 221.865 110.838L221.74 107.91Z" fill="#52379D"/>
<path d="M215.132 73.4379C215.151 73.9269 215.032 74.4109 214.791 74.8292C214.551 75.2476 214.198 75.5818 213.779 75.7899C213.359 75.998 212.89 76.0708 212.431 75.9993C211.972 75.9277 211.543 75.7149 211.199 75.3875C210.854 75.0601 210.608 74.6326 210.492 74.1587C210.377 73.6847 210.396 73.1853 210.548 72.7229C210.7 72.2606 210.978 71.8558 211.348 71.5594C211.717 71.2629 212.16 71.0879 212.623 71.0563C213.255 71.0226 213.874 71.2543 214.344 71.7006C214.814 72.147 215.097 72.7716 215.132 73.4379Z" fill="#263238"/>
<path d="M212.678 66.2401L207.804 69.4685C207.405 68.7623 207.281 67.9208 207.457 67.1202C207.633 66.3196 208.096 65.6218 208.748 65.1728C209.071 64.962 209.43 64.8222 209.805 64.7619C210.18 64.7015 210.562 64.7218 210.929 64.8215C211.296 64.9212 211.641 65.0983 211.941 65.3421C212.242 65.5859 212.492 65.8914 212.678 66.2401Z" fill="#263238"/>
<path d="M234.602 65.2521L228.883 64.1936C228.93 63.7981 229.053 63.4169 229.245 63.0731C229.436 62.7292 229.691 62.4299 229.995 62.1932C230.299 61.9565 230.646 61.7874 231.014 61.6961C231.382 61.6048 231.763 61.5932 232.135 61.662C232.904 61.813 233.589 62.2697 234.048 62.9377C234.507 63.6058 234.705 64.4342 234.602 65.2521Z" fill="#263238"/>
<path d="M234.089 70.8976C234.107 71.3846 233.989 71.8665 233.75 72.2835C233.511 72.7004 233.16 73.0339 232.743 73.2427C232.325 73.4515 231.859 73.5263 231.402 73.4578C230.944 73.3893 230.516 73.1806 230.17 72.8575C229.824 72.5345 229.576 72.1113 229.456 71.6406C229.336 71.1699 229.35 70.6725 229.496 70.21C229.641 69.7475 229.913 69.3404 230.276 69.0392C230.639 68.7381 231.078 68.5561 231.539 68.516C231.855 68.4945 232.172 68.5392 232.471 68.6474C232.771 68.7557 233.047 68.9254 233.284 69.1468C233.521 69.3682 233.714 69.6368 233.852 69.9373C233.99 70.2378 234.071 70.5642 234.089 70.8976Z" fill="#263238"/>
<path d="M231.857 80.5916L224.023 85.2667L219.984 68.6306C222.911 67.1575 227.518 74.5229 231.857 80.5916Z" fill="#52379D" fill-opacity="0.5"/>
<path d="M216.02 90.0563L226.054 91.2824C226.007 91.9831 225.827 92.6666 225.524 93.2922C225.222 93.9179 224.803 94.4728 224.292 94.9239C223.782 95.375 223.191 95.7131 222.554 95.918C221.917 96.1228 221.248 96.1903 220.586 96.1163C219.229 95.9264 217.995 95.1887 217.144 94.0585C216.292 92.9282 215.889 91.4935 216.02 90.0563Z" fill="#B16668"/>
<path d="M217.365 91.6176C216.955 91.6193 216.546 91.6666 216.145 91.7587C216.361 92.8799 216.903 93.9021 217.696 94.6831C218.489 95.4641 219.493 95.965 220.568 96.1162C221.108 96.1719 221.653 96.1331 222.181 96.0015C222.114 93.6022 219.999 91.6528 217.365 91.6176Z" fill="#52379D"/>
<path d="M203.559 155.198C202.974 135.122 195.198 133.331 192.79 139.674C186.887 128.206 187.405 118.883 187.84 115.187C190.006 111.958 190.859 109.894 191.594 108.712C192.049 107.823 192.809 107.151 193.718 106.834L193.944 111.879C193.944 111.879 194.537 117.763 199.521 125.604C203.183 131.364 204.044 138.359 203.559 155.198Z" fill="#52379D"/>
<path opacity="0.45" d="M203.559 155.198C202.974 135.122 195.198 133.331 192.79 139.674C186.887 128.206 187.405 118.883 187.84 115.187C190.006 111.958 190.859 109.894 191.594 108.712C192.049 107.823 192.809 107.151 193.718 106.834L193.944 111.879C193.944 111.879 194.537 117.763 199.521 125.604C203.183 131.364 204.044 138.359 203.559 155.198Z" fill="white"/>
<path d="M172.925 120.55C157.749 125.393 150.977 128.066 146.044 138.413C141.11 148.759 132.532 174.357 127.749 189.935C123.644 203.255 121.403 215.383 124.12 221.514L153.669 211.405L169.271 171.12C169.271 171.12 179.405 146.131 172.925 120.55Z" fill="#455A64"/>
<path d="M153.005 199.382C155.162 199.1 157.319 199.453 159.368 198.659C159.873 198.525 160.346 198.279 160.756 197.939C161.165 197.598 161.501 197.17 161.743 196.683C162.202 195.351 161.324 193.94 160.38 192.934C157.72 190.24 154.377 188.417 150.756 187.686C143.758 186.197 136.487 187.415 130.271 191.117C126.567 193.225 122.035 196.083 121.776 201.058C121.692 202.558 122.01 204.101 121.583 205.53C121.299 206.483 120.697 207.294 120.371 208.238C120.107 209.094 119.963 209.985 119.944 210.884C119.8 211.963 119.895 213.062 120.22 214.095C120.471 214.73 120.906 215.286 121.165 215.921C121.443 216.923 121.66 217.942 121.817 218.973C122.369 221.02 124.476 223.384 126.24 221.328C127.837 219.458 128.381 216.918 129.426 214.704C130.639 212.155 132.904 210.196 135.037 208.529C137.938 206.305 141.038 204.385 144.293 202.796C146.742 201.433 149.331 200.37 152.01 199.629C152.344 199.488 152.671 199.426 153.005 199.382Z" fill="#37474F"/>
<path d="M164.02 189.353C161.219 192.881 152.774 193.931 146.829 195.686C140.884 197.441 133.568 200.423 129.505 206.977C125.926 212.737 122.147 217.482 123.928 222.016C125.157 225.139 131.929 226.797 139.873 226.859C147.816 226.921 154.923 219.282 163.284 213.936C170.458 209.35 173.753 207.215 173.753 207.215L164.02 189.353Z" fill="#52379D"/>
<path d="M174.103 194.39C171.52 191.549 171.093 188.7 167.222 186.275C163.351 183.849 160.892 183.884 156.77 181.564C152.648 179.244 149.295 178.036 146.135 179.041C142.974 180.047 143.434 181.961 145.767 183.575C148.1 185.19 152.113 187.333 154.889 189.556C157.665 191.779 160.391 193.084 160.332 196.824C160.108 202.777 159.583 208.713 158.76 214.607C157.924 220.896 156.603 225.977 157.038 226.665C157.473 227.353 160.031 227.715 161.67 224.231C163.309 220.746 165.583 207.956 165.583 207.956C165.583 207.956 166.578 216.874 166.946 223.013C167.314 229.153 167.414 233.845 167.556 235.151C167.699 236.456 171.837 235.539 172.573 230.934C173.309 226.33 172.699 212.596 172.699 212.596C172.699 212.596 176.043 218.903 178.142 222.996C180.24 227.089 182.899 232.646 183.769 234.022C184.638 235.398 187.297 233.043 186.737 229.356C186.177 225.668 181.871 216.574 181.871 216.574C181.871 216.574 187.164 222.643 188.1 223.243C189.037 223.843 191.913 223.428 191.001 219.353C190.391 216.618 188.777 214.863 184.53 209.535C180.282 204.207 180.349 202.046 179.07 199.62C177.364 196.41 175.985 196.41 174.103 194.39Z" fill="#9974FF"/>
<path d="M163.293 196.304C167.566 198.403 171.838 196.445 172.44 195.325C172.106 198.456 166.153 200.176 163.293 196.304Z" fill="#52379D"/>
<path d="M191.08 221.699C190.67 222.263 189.407 222.431 188.37 221.452C187.334 220.473 184.666 217.235 183.479 215.745C182.292 214.254 178.203 208.961 178.203 208.961L181.874 216.574C181.874 216.574 187.166 222.643 188.103 223.242C188.391 223.389 188.706 223.464 189.026 223.463C189.345 223.462 189.661 223.384 189.947 223.235C190.234 223.086 190.485 222.871 190.681 222.604C190.877 222.338 191.014 222.029 191.08 221.699Z" fill="#52379D"/>
<path d="M154.55 56.6608C149.592 74.4965 136.448 88.751 94.3486 97.3337L96.5811 109.877L80.3769 99.5389C80.0926 99.6006 48.604 100.95 33.4617 92.0147C14.2642 80.6799 10.5685 54.3938 21.5636 35.8701C31.0286 19.9044 45.1591 10.2103 75.6444 3.87692C108.772 -3.01215 135.01 2.26271 146.958 16.3761C157.351 28.6017 157.184 47.1608 154.55 56.6608Z" fill="white"/>
<path d="M96.5825 110.715C96.4389 110.714 96.2978 110.675 96.1728 110.6L80.1609 100.386C76.5238 100.545 47.4599 101.268 33.0785 92.7469C28.82 90.2292 25.0964 86.8166 22.1381 82.7201C19.1798 78.6236 17.0496 73.9304 15.8793 68.9306C14.534 63.2749 14.285 57.3909 15.147 51.6312C16.0091 45.8716 17.9645 40.3548 20.8961 35.4115C31.1219 18.1403 46.4315 9.06362 75.5037 3.02134C108.113 -3.75306 135.036 1.01901 147.561 15.7851C158.172 28.2842 158.013 47.2137 155.329 56.8902C149.334 78.4748 131.917 90.4094 95.2949 97.9953L97.3768 109.727C97.4143 109.892 97.4032 110.064 97.3449 110.222C97.2866 110.38 97.1839 110.515 97.0507 110.609C96.91 110.698 96.7454 110.735 96.5825 110.715ZM80.4285 98.6921C80.5594 98.6976 80.6865 98.7403 80.7964 98.8156L95.4705 108.201L93.5724 97.4925C93.5436 97.2764 93.5918 97.0566 93.7076 96.8758C93.8234 96.695 93.9987 96.5658 94.1995 96.5134C139.351 87.3221 149.51 71.815 153.782 56.4315C156.374 47.1079 156.533 28.9017 146.366 16.9142C134.208 2.59794 107.828 -1.98007 75.7963 4.67966C47.2258 10.6161 32.2089 19.481 22.284 36.2935C19.4605 41.0416 17.5742 46.3418 16.738 51.877C15.9019 57.4122 16.1331 63.0685 17.4178 68.5072C18.5406 73.2821 20.5783 77.7638 23.4054 81.6763C26.2326 85.5887 29.7892 88.849 33.8561 91.2562C48.7141 100.024 80.0021 98.701 80.2947 98.6745L80.4285 98.6921Z" fill="#455A64"/>
<path d="M135.816 27.1285L155.942 4.53839L171.795 9.875L135.816 27.1285Z" fill="#52379D"/>
<path d="M133.754 23.4417L147.324 3.57715L137.366 4.69739L133.754 23.4417Z" fill="#52379D"/>
<path d="M138.848 29.2544L166.465 24.0413L162.853 32.9415L138.848 29.2544Z" fill="#52379D"/>
<path d="M35.9787 77.1956L15.8614 99.7858L0 94.4492L35.9787 77.1956Z" fill="#52379D"/>
<path d="M38.0508 80.8828L24.4805 100.756L34.4304 99.6359L38.0508 80.8828Z" fill="#52379D"/>
<path d="M32.9611 75.0787L5.34375 80.283L8.95583 71.3916L32.9611 75.0787Z" fill="#52379D"/>
<path d="M140.013 52.312C139.938 52.312 139.88 52.2326 139.871 52.1268C139.83 51.4066 139.54 50.7273 139.056 50.2171C138.572 49.7068 137.929 49.4009 137.246 49.357C137.146 49.357 137.07 49.2865 137.07 49.2071C137.072 49.185 137.079 49.1636 137.089 49.1441C137.099 49.1246 137.112 49.1074 137.128 49.0934C137.145 49.0795 137.164 49.0691 137.184 49.0629C137.204 49.0566 137.225 49.0547 137.246 49.0571C137.933 49.0155 138.582 48.7099 139.071 48.198C139.559 47.6861 139.853 47.0033 139.896 46.2786C139.896 46.1815 139.963 46.0933 140.039 46.0933C140.114 46.0933 140.172 46.1815 140.181 46.2786C140.215 47.0034 140.499 47.69 140.98 48.2097C141.46 48.7293 142.103 49.0463 142.789 49.1012C142.831 49.0985 142.872 49.1124 142.905 49.1402C142.937 49.168 142.959 49.2076 142.965 49.2512C142.965 49.3306 142.881 49.3923 142.789 49.4011C142.106 49.4448 141.461 49.7504 140.976 50.2605C140.491 50.7705 140.199 51.4499 140.156 52.1709C140.147 52.2326 140.089 52.312 140.013 52.312Z" fill="#52379D"/>
<path d="M113.518 19.1723C113.476 19.1659 113.438 19.1435 113.41 19.1095C113.383 19.0754 113.367 19.0319 113.368 18.987C113.326 18.2495 113.031 17.5535 112.536 17.0303C112.042 16.5071 111.383 16.1928 110.684 16.1467C110.641 16.1518 110.598 16.139 110.563 16.111C110.529 16.083 110.506 16.042 110.5 15.9968C110.5 15.9174 110.584 15.8468 110.684 15.838C111.383 15.7959 112.043 15.484 112.537 14.9619C113.032 14.4397 113.328 13.7437 113.368 13.0065C113.368 12.9006 113.443 12.8124 113.518 12.8124C113.561 12.819 113.6 12.8429 113.627 12.8792C113.653 12.9154 113.665 12.961 113.661 13.0065C113.706 13.7432 114.004 14.4372 114.5 14.9584C114.996 15.4796 115.654 15.7923 116.353 15.838C116.395 15.8375 116.437 15.8534 116.469 15.8826C116.501 15.9118 116.522 15.9523 116.528 15.9968C116.526 16.0188 116.52 16.0402 116.51 16.0597C116.5 16.0792 116.487 16.0965 116.47 16.1104C116.454 16.1243 116.435 16.1347 116.415 16.141C116.395 16.1472 116.374 16.1492 116.353 16.1467C115.654 16.1944 114.995 16.509 114.499 17.0317C114.004 17.5544 113.706 18.2494 113.661 18.987C113.663 19.0091 113.661 19.0313 113.655 19.0526C113.649 19.0739 113.639 19.0937 113.626 19.1109C113.613 19.1282 113.597 19.1425 113.578 19.153C113.56 19.1635 113.539 19.1701 113.518 19.1723Z" fill="#52379D"/>
<path d="M30.1691 54.9671C30.0939 54.9671 30.027 54.8789 30.0186 54.7731C29.9752 54.0175 29.6717 53.3047 29.1651 52.7687C28.6586 52.2326 27.9838 51.9103 27.2678 51.8622C27.2456 51.8678 27.2226 51.8681 27.2004 51.8629C27.1781 51.8578 27.1573 51.8474 27.1394 51.8326C27.1215 51.8177 27.1071 51.7988 27.0971 51.7772C27.0872 51.7556 27.082 51.7319 27.082 51.7078C27.082 51.6838 27.0872 51.6601 27.0971 51.6385C27.1071 51.6169 27.1215 51.598 27.1394 51.5831C27.1573 51.5683 27.1781 51.5579 27.2004 51.5527C27.2226 51.5476 27.2456 51.5479 27.2678 51.5535C27.9838 51.5054 28.6586 51.183 29.1651 50.647C29.6717 50.111 29.9752 49.3982 30.0186 48.6426C30.0186 48.5368 30.0939 48.4485 30.1691 48.4485C30.1911 48.4508 30.2125 48.4575 30.232 48.4685C30.2515 48.4795 30.2688 48.4944 30.2828 48.5125C30.2967 48.5305 30.3072 48.5513 30.3135 48.5736C30.3199 48.596 30.3219 48.6194 30.3196 48.6426C30.365 49.3989 30.6703 50.1118 31.1782 50.6477C31.6862 51.1836 32.3619 51.5056 33.0789 51.5535C33.101 51.5479 33.124 51.5476 33.1463 51.5527C33.1685 51.5579 33.1893 51.5683 33.2072 51.5831C33.2251 51.598 33.2396 51.6169 33.2495 51.6385C33.2594 51.6601 33.2646 51.6838 33.2646 51.7078C33.2646 51.7319 33.2594 51.7556 33.2495 51.7772C33.2396 51.7988 33.2251 51.8177 33.2072 51.8326C33.1893 51.8474 33.1685 51.8578 33.1463 51.8629C33.124 51.8681 33.101 51.8678 33.0789 51.8622C32.3619 51.9101 31.6862 52.2321 31.1782 52.768C30.6703 53.3039 30.365 54.0168 30.3196 54.7731C30.3219 54.7963 30.3199 54.8197 30.3135 54.8421C30.3072 54.8644 30.2967 54.8852 30.2828 54.9032C30.2688 54.9213 30.2515 54.9362 30.232 54.9472C30.2125 54.9582 30.1911 54.9649 30.1691 54.9671Z" fill="#52379D"/>
<path d="M32.304 67.2104C32.2455 67.2104 32.2037 67.1575 32.2037 67.0781C32.1704 66.5586 31.9598 66.0695 31.6108 65.7013C31.2618 65.3331 30.7981 65.1109 30.3057 65.0758C30.2749 65.0786 30.2443 65.0694 30.2196 65.0498C30.1949 65.0303 30.1779 65.0019 30.1719 64.97C30.1719 64.9082 30.2304 64.8641 30.3057 64.8641C30.7981 64.829 31.2618 64.6068 31.6108 64.2386C31.9598 63.8704 32.1704 63.3813 32.2037 62.8618C32.2037 62.7824 32.2455 62.7206 32.304 62.7206C32.3343 62.727 32.3612 62.745 32.3797 62.771C32.3982 62.797 32.407 62.8293 32.4043 62.8618C32.4376 63.3813 32.6483 63.8704 32.9973 64.2386C33.3462 64.6068 33.8099 64.829 34.3024 64.8641C34.3776 64.8641 34.4278 64.8641 34.4278 64.97C34.4236 65.0011 34.4083 65.0295 34.385 65.0491C34.3617 65.0688 34.3321 65.0784 34.3024 65.0758C33.8093 65.1091 33.3446 65.3307 32.9953 65.6992C32.646 66.0678 32.4359 66.558 32.4043 67.0781C32.4068 67.1095 32.3977 67.1407 32.3791 67.1653C32.3604 67.1899 32.3336 67.206 32.304 67.2104Z" fill="#52379D"/>
<path d="M106.126 21.3509C106.085 21.3509 106.06 21.3509 106.051 21.2539C106.032 20.9 105.892 20.5655 105.656 20.3125C105.421 20.0594 105.107 19.905 104.772 19.8778C104.761 19.882 104.748 19.8832 104.737 19.8814C104.725 19.8797 104.713 19.8749 104.704 19.8676C104.694 19.8602 104.686 19.8505 104.68 19.8393C104.675 19.828 104.672 19.8155 104.672 19.8028C104.672 19.7902 104.675 19.7777 104.68 19.7664C104.686 19.7552 104.694 19.7455 104.704 19.7381C104.713 19.7308 104.725 19.726 104.737 19.7243C104.748 19.7225 104.761 19.7237 104.772 19.7279C105.111 19.7069 105.432 19.5552 105.672 19.3015C105.913 19.0479 106.056 18.7099 106.076 18.3518C106.076 18.2989 106.076 18.2636 106.151 18.2636C106.161 18.2647 106.171 18.2679 106.18 18.2729C106.188 18.2779 106.196 18.2848 106.202 18.293C106.209 18.3012 106.213 18.3106 106.216 18.3207C106.219 18.3308 106.22 18.3414 106.218 18.3518C106.238 18.7099 106.382 19.0479 106.623 19.3015C106.863 19.5552 107.183 19.7069 107.523 19.7279C107.534 19.7267 107.545 19.7277 107.555 19.7311C107.566 19.7344 107.576 19.7399 107.584 19.7473C107.593 19.7547 107.6 19.7638 107.605 19.7741C107.61 19.7844 107.614 19.7957 107.615 19.8073C107.615 19.8073 107.573 19.8778 107.523 19.8778C107.183 19.8988 106.863 20.0505 106.623 20.3042C106.382 20.5578 106.238 20.8958 106.218 21.2539C106.193 21.3068 106.16 21.3509 106.126 21.3509Z" fill="#52379D"/>
<path d="M144.741 57.3224C144.741 57.3224 144.683 57.3224 144.674 57.2342C144.655 56.9032 144.522 56.591 144.3 56.3557C144.079 56.1204 143.784 55.9781 143.47 55.9552C143.42 55.9552 143.387 55.9552 143.387 55.8934C143.387 55.8834 143.389 55.8734 143.392 55.8642C143.396 55.855 143.402 55.8468 143.409 55.8401C143.416 55.8334 143.425 55.8284 143.434 55.8255C143.443 55.8225 143.453 55.8216 143.462 55.8229C143.777 55.802 144.074 55.6606 144.297 55.4251C144.521 55.1896 144.655 54.8762 144.674 54.5438C144.674 54.5438 144.674 54.4556 144.741 54.4556C144.76 54.4598 144.778 54.4708 144.79 54.487C144.802 54.5031 144.809 54.5232 144.808 54.5438C144.828 54.8762 144.962 55.1896 145.185 55.4251C145.408 55.6606 145.705 55.802 146.021 55.8229C146.03 55.8216 146.04 55.8225 146.049 55.8255C146.058 55.8284 146.066 55.8334 146.073 55.8401C146.08 55.8468 146.086 55.855 146.09 55.8642C146.094 55.8734 146.096 55.8834 146.096 55.8934C146.095 55.9027 146.092 55.9117 146.088 55.9199C146.083 55.928 146.077 55.9352 146.07 55.9409C146.063 55.9467 146.055 55.9509 146.047 55.9533C146.038 55.9558 146.029 55.9564 146.021 55.9552C145.705 55.976 145.408 56.1174 145.185 56.3529C144.962 56.5884 144.828 56.9018 144.808 57.2342C144.809 57.2548 144.802 57.275 144.79 57.2911C144.778 57.3072 144.76 57.3183 144.741 57.3224Z" fill="#52379D"/>
<path d="M22.9067 60.974C22.9067 60.974 22.8565 60.974 22.8481 60.9035C22.8323 60.6259 22.7206 60.364 22.5342 60.1674C22.3478 59.9707 22.0996 59.8529 21.8364 59.8361C21.8364 59.8361 21.7695 59.8361 21.7695 59.7744C21.7695 59.7127 21.7695 59.7215 21.8364 59.7127C22.0966 59.6918 22.3408 59.5722 22.5237 59.3759C22.7067 59.1797 22.816 58.9201 22.8314 58.6453C22.8314 58.6453 22.8314 58.5748 22.8899 58.5748C22.9485 58.5748 22.9401 58.5748 22.9485 58.6453C22.9706 58.9211 23.0872 59.1789 23.2765 59.3705C23.4658 59.5621 23.7148 59.6743 23.9769 59.6862C23.9769 59.6862 24.0438 59.6862 24.0438 59.7479C24.0438 59.8097 24.0438 59.8009 23.9769 59.8097C23.7138 59.8264 23.4656 59.9443 23.2792 60.1409C23.0928 60.3376 22.9811 60.5994 22.9652 60.877C22.9652 60.877 22.9401 60.974 22.9067 60.974Z" fill="#52379D"/>
<path d="M261.623 41.3032C261.706 41.1949 261.81 41.1066 261.929 41.0443C262.047 40.9819 262.176 40.9469 262.309 40.9416C262.439 40.9264 262.571 40.9397 262.696 40.9807C262.821 41.0217 262.937 41.0894 263.036 41.1797L266.623 44.3994C266.725 44.4869 266.808 44.5954 266.869 44.7183C266.929 44.8412 266.965 44.9758 266.974 45.1138C266.986 45.2531 266.971 45.3934 266.931 45.5267C266.891 45.6599 266.826 45.7834 266.74 45.8901L264.299 48.9244C264.215 49.0319 264.11 49.1196 263.992 49.1819C263.874 49.2442 263.745 49.2797 263.613 49.2861C263.481 49.302 263.348 49.2891 263.221 49.2481C263.095 49.2071 262.978 49.139 262.877 49.0479L259.29 45.8283C259.189 45.739 259.106 45.6287 259.047 45.5043C258.988 45.3798 258.954 45.2439 258.947 45.105C258.932 44.9669 258.946 44.827 258.986 44.6947C259.026 44.5624 259.093 44.4407 259.181 44.3376L261.623 41.3032ZM274.792 24.9494C274.875 24.8411 274.979 24.7528 275.098 24.6904C275.216 24.6281 275.345 24.593 275.478 24.5878C275.609 24.5724 275.742 24.5856 275.869 24.6266C275.995 24.6675 276.113 24.7354 276.213 24.8259L279.792 28.0455C279.894 28.1344 279.978 28.2444 280.039 28.3688C280.099 28.4932 280.135 28.6294 280.143 28.7688C280.156 28.9069 280.143 29.0463 280.102 29.1784C280.062 29.3104 279.996 29.4323 279.909 29.5362L269.499 42.4764C269.415 42.5831 269.31 42.6702 269.192 42.7324C269.074 42.7946 268.945 42.8306 268.814 42.8381C268.681 42.8539 268.548 42.8401 268.421 42.7975C268.294 42.7549 268.177 42.6846 268.078 42.5911L264.482 39.3979C264.279 39.215 264.153 38.9546 264.131 38.6736C264.109 38.3927 264.193 38.114 264.365 37.8984L274.792 24.9494Z" fill="#52379D"/>
<path d="M251.101 29.7568C251.144 29.479 251.29 29.2304 251.506 29.0652C251.722 28.8999 251.991 28.8315 252.255 28.8748L256.895 29.6863C257.026 29.7075 257.152 29.7568 257.264 29.8312C257.376 29.9055 257.473 30.0033 257.548 30.1185C257.629 30.2284 257.686 30.3554 257.716 30.4909C257.747 30.6263 257.749 30.7671 257.723 30.9036L257.113 34.8288C257.091 34.9675 257.043 35.1001 256.971 35.2184C256.899 35.3367 256.805 35.4382 256.695 35.5169C256.591 35.6022 256.47 35.663 256.342 35.6949C256.213 35.7269 256.08 35.7293 255.951 35.7021L251.31 34.8906C251.179 34.8704 251.053 34.8215 250.941 34.747C250.829 34.6726 250.732 34.5743 250.658 34.4584C250.581 34.3464 250.525 34.2193 250.495 34.0845C250.465 33.9497 250.461 33.8099 250.482 33.6733L251.101 29.7568ZM254.446 8.58684C254.468 8.4485 254.517 8.31632 254.589 8.19814C254.66 8.07997 254.754 7.97818 254.864 7.89882C254.968 7.81345 255.088 7.75272 255.217 7.72076C255.345 7.68879 255.478 7.68635 255.608 7.71358L260.248 8.5251C260.38 8.54531 260.505 8.5942 260.618 8.66862C260.73 8.74305 260.826 8.84138 260.901 8.95732C260.981 9.06723 261.039 9.19423 261.069 9.32968C261.1 9.46514 261.102 9.60589 261.076 9.74237L258.451 26.502C258.43 26.641 258.382 26.7739 258.31 26.8924C258.238 27.0108 258.144 27.1122 258.033 27.19C257.928 27.2754 257.808 27.3361 257.68 27.368C257.551 27.4 257.418 27.4025 257.288 27.3752L252.648 26.5637C252.517 26.5435 252.391 26.4946 252.279 26.4202C252.166 26.3458 252.07 26.2474 251.996 26.1315C251.918 26.0195 251.863 25.8924 251.833 25.7576C251.803 25.6228 251.798 25.483 251.82 25.3464L254.446 8.58684Z" fill="#52379D"/>
<g opacity="0.3">
<path d="M251.097 29.7568C251.14 29.4789 251.286 29.2303 251.502 29.0651C251.718 28.8999 251.987 28.8314 252.251 28.8747L256.892 29.6862C257.022 29.7075 257.148 29.7568 257.26 29.8311C257.372 29.9054 257.469 30.0032 257.544 30.1184C257.625 30.2284 257.682 30.3554 257.713 30.4908C257.743 30.6263 257.745 30.767 257.719 30.9035L257.109 34.8288C257.087 34.9674 257.039 35.1 256.967 35.2183C256.895 35.3366 256.801 35.4382 256.691 35.5168C256.587 35.6022 256.466 35.6629 256.338 35.6949C256.21 35.7268 256.076 35.7293 255.947 35.702L251.306 34.8905C251.175 34.8703 251.049 34.8214 250.937 34.747C250.825 34.6726 250.728 34.5742 250.654 34.4583C250.577 34.3463 250.521 34.2192 250.491 34.0844C250.461 33.9496 250.457 33.8098 250.478 33.6732L251.097 29.7568ZM254.442 8.58678C254.464 8.44843 254.513 8.31626 254.585 8.19808C254.656 8.07991 254.75 7.97812 254.86 7.89876C254.964 7.81338 255.084 7.75266 255.213 7.72069C255.341 7.68873 255.475 7.68629 255.604 7.71352L260.244 8.52504C260.376 8.54525 260.501 8.59414 260.614 8.66856C260.726 8.74299 260.822 8.84131 260.897 8.95726C260.978 9.06717 261.035 9.19417 261.065 9.32962C261.096 9.46508 261.098 9.60583 261.072 9.74231L258.447 26.5019C258.426 26.6409 258.378 26.7738 258.306 26.8923C258.234 27.0107 258.14 27.1121 258.029 27.1899C257.925 27.2753 257.804 27.336 257.676 27.368C257.547 27.4 257.414 27.4024 257.285 27.3752L252.644 26.5636C252.513 26.5434 252.387 26.4945 252.275 26.4201C252.162 26.3457 252.066 26.2474 251.992 26.1314C251.915 26.0195 251.859 25.8924 251.829 25.7576C251.799 25.6228 251.795 25.483 251.816 25.3464L254.442 8.58678Z" fill="white"/>
</g>
<path d="M67.0065 18.0851C67.2598 18.0851 67.4798 18.1851 67.6665 18.3851C67.8665 18.5718 67.9665 18.8185 67.9665 19.1251C67.9665 19.1918 67.9598 19.2585 67.9465 19.3251C67.9331 19.3918 67.9131 19.4518 67.8865 19.5051L64.8265 28.0651C64.7465 28.2918 64.6065 28.4651 64.4065 28.5851C64.2065 28.6918 63.9998 28.7318 63.7865 28.7051C63.3998 28.6785 63.1131 28.4651 62.9265 28.0651L60.6665 22.0651L61.1265 22.1051L59.0465 28.0651C58.8598 28.4651 58.5731 28.6785 58.1865 28.7051C57.9865 28.7318 57.7798 28.6918 57.5665 28.5851C57.3665 28.4651 57.2265 28.2918 57.1465 28.0651L54.0665 19.5051C54.0131 19.3851 53.9865 19.2585 53.9865 19.1251C53.9865 18.8451 54.0731 18.6051 54.2465 18.4051C54.4331 18.1918 54.6798 18.0851 54.9865 18.0851C55.1998 18.0851 55.3865 18.1385 55.5465 18.2451C55.7198 18.3518 55.8398 18.5118 55.9065 18.7251L58.4665 25.9451L58.0065 25.9051L60.0865 20.4451C60.2598 20.0318 60.5665 19.8251 61.0065 19.8251C61.2465 19.8251 61.4331 19.8785 61.5665 19.9851C61.6998 20.0918 61.8065 20.2451 61.8865 20.4451L64.0065 25.9251L63.4665 25.9851L66.0465 18.7251C66.1798 18.2985 66.4998 18.0851 67.0065 18.0851ZM78.6985 18.0251C78.9918 18.0251 79.2318 18.1251 79.4185 18.3251C79.6052 18.5118 79.6985 18.7518 79.6985 19.0451V27.6851C79.6985 27.9785 79.6052 28.2251 79.4185 28.4251C79.2318 28.6118 78.9918 28.7051 78.6985 28.7051C78.4185 28.7051 78.1785 28.6118 77.9785 28.4251C77.7918 28.2251 77.6985 27.9785 77.6985 27.6851V26.2451L78.1185 26.3051C78.1185 26.5451 78.0185 26.8118 77.8185 27.1051C77.6318 27.3985 77.3718 27.6851 77.0385 27.9651C76.7052 28.2318 76.3118 28.4585 75.8585 28.6451C75.4052 28.8185 74.9185 28.9051 74.3985 28.9051C73.4785 28.9051 72.6518 28.6718 71.9185 28.2051C71.1852 27.7251 70.6052 27.0718 70.1785 26.2451C69.7518 25.4185 69.5385 24.4785 69.5385 23.4251C69.5385 22.3451 69.7518 21.3985 70.1785 20.5851C70.6052 19.7585 71.1785 19.1118 71.8985 18.6451C72.6318 18.1785 73.4452 17.9451 74.3385 17.9451C74.9118 17.9451 75.4385 18.0385 75.9185 18.2251C76.4118 18.4118 76.8385 18.6518 77.1985 18.9451C77.5585 19.2385 77.8318 19.5518 78.0185 19.8851C78.2185 20.2051 78.3185 20.5118 78.3185 20.8051L77.6985 20.8651V19.0451C77.6985 18.7651 77.7918 18.5251 77.9785 18.3251C78.1785 18.1251 78.4185 18.0251 78.6985 18.0251ZM74.6185 27.0651C75.2452 27.0651 75.7985 26.9051 76.2785 26.5851C76.7585 26.2651 77.1318 25.8318 77.3985 25.2851C77.6652 24.7251 77.7985 24.1051 77.7985 23.4251C77.7985 22.7318 77.6652 22.1118 77.3985 21.5651C77.1318 21.0185 76.7585 20.5851 76.2785 20.2651C75.7985 19.9451 75.2452 19.7851 74.6185 19.7851C74.0052 19.7851 73.4585 19.9451 72.9785 20.2651C72.5118 20.5851 72.1385 21.0185 71.8585 21.5651C71.5918 22.1118 71.4585 22.7318 71.4585 23.4251C71.4585 24.1051 71.5918 24.7251 71.8585 25.2851C72.1385 25.8318 72.5118 26.2651 72.9785 26.5851C73.4585 26.9051 74.0052 27.0651 74.6185 27.0651ZM84.3804 27.6851C84.3804 27.9785 84.2871 28.2251 84.1004 28.4251C83.9137 28.6118 83.6737 28.7051 83.3804 28.7051C83.1004 28.7051 82.8604 28.6118 82.6604 28.4251C82.4737 28.2251 82.3804 27.9785 82.3804 27.6851V19.1251C82.3804 18.8318 82.4737 18.5918 82.6604 18.4051C82.8604 18.2051 83.1004 18.1051 83.3804 18.1051C83.6737 18.1051 83.9137 18.2051 84.1004 18.4051C84.2871 18.5918 84.3804 18.8318 84.3804 19.1251V27.6851ZM83.3604 16.7851C82.9737 16.7851 82.6937 16.7185 82.5204 16.5851C82.3471 16.4385 82.2604 16.1985 82.2604 15.8651V15.5451C82.2604 15.2118 82.3537 14.9785 82.5404 14.8451C82.7271 14.7118 83.0071 14.6451 83.3804 14.6451C83.7804 14.6451 84.0671 14.7185 84.2404 14.8651C84.4137 14.9985 84.5004 15.2251 84.5004 15.5451V15.8651C84.5004 16.2118 84.4071 16.4518 84.2204 16.5851C84.0471 16.7185 83.7604 16.7851 83.3604 16.7851ZM94.9107 18.1851C95.1907 18.1851 95.424 18.2851 95.6107 18.4851C95.8107 18.6718 95.9107 18.9118 95.9107 19.2051V24.4651C95.9107 25.8518 95.524 26.9385 94.7507 27.7251C93.9774 28.4985 92.884 28.8851 91.4707 28.8851C90.0707 28.8851 88.984 28.4985 88.2107 27.7251C87.4507 26.9385 87.0707 25.8518 87.0707 24.4651V19.2051C87.0707 18.9118 87.164 18.6718 87.3507 18.4851C87.5374 18.2851 87.7774 18.1851 88.0707 18.1851C88.3507 18.1851 88.584 18.2851 88.7707 18.4851C88.9707 18.6718 89.0707 18.9118 89.0707 19.2051V24.4651C89.0707 25.3318 89.2707 25.9785 89.6707 26.4051C90.084 26.8318 90.684 27.0451 91.4707 27.0451C92.2707 27.0451 92.8774 26.8318 93.2907 26.4051C93.704 25.9785 93.9107 25.3318 93.9107 24.4651V19.2051C93.9107 18.9118 94.004 18.6718 94.1907 18.4851C94.3774 18.2851 94.6174 18.1851 94.9107 18.1851ZM99.6918 28.7051C99.3985 28.7051 99.1585 28.6118 98.9718 28.4251C98.7851 28.2251 98.6918 27.9785 98.6918 27.6851V19.2051C98.6918 18.9118 98.7851 18.6718 98.9718 18.4851C99.1585 18.2851 99.3985 18.1851 99.6918 18.1851C99.9718 18.1851 100.205 18.2851 100.392 18.4851C100.592 18.6718 100.692 18.9118 100.692 19.2051V21.4451L100.492 20.5851C100.598 20.2118 100.758 19.8651 100.972 19.5451C101.198 19.2251 101.465 18.9451 101.772 18.7051C102.078 18.4651 102.418 18.2785 102.792 18.1451C103.178 18.0118 103.578 17.9451 103.992 17.9451C104.338 17.9451 104.638 18.0385 104.892 18.2251C105.145 18.4118 105.272 18.6451 105.272 18.9251C105.272 19.2851 105.178 19.5518 104.992 19.7251C104.805 19.8851 104.598 19.9651 104.372 19.9651C104.172 19.9651 103.978 19.9251 103.792 19.8451C103.605 19.7518 103.385 19.7051 103.132 19.7051C102.852 19.7051 102.565 19.7785 102.272 19.9251C101.978 20.0718 101.712 20.2918 101.472 20.5851C101.232 20.8651 101.038 21.1985 100.892 21.5851C100.758 21.9718 100.692 22.4051 100.692 22.8851V27.6851C100.692 27.9785 100.592 28.2251 100.392 28.4251C100.205 28.6118 99.9718 28.7051 99.6918 28.7051ZM114.891 18.1851C115.171 18.1851 115.404 18.2851 115.591 18.4851C115.791 18.6718 115.891 18.9118 115.891 19.2051V24.4651C115.891 25.8518 115.504 26.9385 114.731 27.7251C113.958 28.4985 112.864 28.8851 111.451 28.8851C110.051 28.8851 108.964 28.4985 108.191 27.7251C107.431 26.9385 107.051 25.8518 107.051 24.4651V19.2051C107.051 18.9118 107.144 18.6718 107.331 18.4851C107.518 18.2851 107.758 18.1851 108.051 18.1851C108.331 18.1851 108.564 18.2851 108.751 18.4851C108.951 18.6718 109.051 18.9118 109.051 19.2051V24.4651C109.051 25.3318 109.251 25.9785 109.651 26.4051C110.064 26.8318 110.664 27.0451 111.451 27.0451C112.251 27.0451 112.858 26.8318 113.271 26.4051C113.684 25.9785 113.891 25.3318 113.891 24.4651V19.2051C113.891 18.9118 113.984 18.6718 114.171 18.4851C114.358 18.2851 114.598 18.1851 114.891 18.1851ZM67.4246 44.3051C67.7766 44.3051 68.0626 44.4225 68.2826 44.6571C68.5026 44.8918 68.6126 45.1851 68.6126 45.5371V58.3631C68.6126 58.7445 68.4806 59.0671 68.2166 59.3311C67.9672 59.5805 67.6519 59.7051 67.2706 59.7051C67.0799 59.7051 66.8819 59.6758 66.6766 59.6171C66.4859 59.5438 66.3392 59.4485 66.2366 59.3311L57.5906 48.3531L58.1626 48.0011V58.4731C58.1626 58.8251 58.0452 59.1185 57.8106 59.3531C57.5906 59.5878 57.2972 59.7051 56.9306 59.7051C56.5786 59.7051 56.2926 59.5878 56.0726 59.3531C55.8526 59.1185 55.7426 58.8251 55.7426 58.4731V45.6471C55.7426 45.2658 55.8672 44.9505 56.1166 44.7011C56.3806 44.4371 56.7032 44.3051 57.0846 44.3051C57.2899 44.3051 57.5026 44.3491 57.7226 44.4371C57.9426 44.5105 58.1039 44.6278 58.2066 44.7891L66.5886 55.4811L66.2146 55.7451V45.5371C66.2146 45.1851 66.3246 44.8918 66.5446 44.6571C66.7646 44.4225 67.0579 44.3051 67.4246 44.3051ZM73.2623 44.3051H80.6323C81.0136 44.3051 81.329 44.4298 81.5783 44.6791C81.8423 44.9138 81.9743 45.2218 81.9743 45.6031C81.9743 45.9698 81.8423 46.2705 81.5783 46.5051C81.329 46.7251 81.0136 46.8351 80.6323 46.8351H74.4723L74.6703 46.4611V50.7511L74.4943 50.5751H79.6423C80.0236 50.5751 80.339 50.6998 80.5883 50.9491C80.8523 51.1838 80.9843 51.4918 80.9843 51.8731C80.9843 52.2398 80.8523 52.5405 80.5883 52.7751C80.339 52.9951 80.0236 53.1051 79.6423 53.1051H74.5603L74.6703 52.9291V57.3731L74.4943 57.1751H80.6323C81.0136 57.1751 81.329 57.3071 81.5783 57.5711C81.8423 57.8205 81.9743 58.1138 81.9743 58.4511C81.9743 58.8178 81.8423 59.1185 81.5783 59.3531C81.329 59.5878 81.0136 59.7051 80.6323 59.7051H73.2623C72.881 59.7051 72.5583 59.5805 72.2943 59.3311C72.045 59.0671 71.9203 58.7445 71.9203 58.3631V45.6471C71.9203 45.2658 72.045 44.9505 72.2943 44.7011C72.5583 44.4371 72.881 44.3051 73.2623 44.3051ZM101.824 44.2391C102.161 44.2391 102.484 44.3711 102.792 44.6351C103.1 44.8845 103.254 45.2291 103.254 45.6691C103.254 45.8011 103.232 45.9478 103.188 46.1091L98.8542 58.8691C98.7662 59.1331 98.6048 59.3385 98.3702 59.4851C98.1502 59.6171 97.9155 59.6905 97.6662 59.7051C97.4168 59.7051 97.1675 59.6318 96.9182 59.4851C96.6835 59.3385 96.5001 59.1258 96.3681 58.8471L93.1121 51.4551L93.3101 51.5871L90.0981 58.8471C89.9661 59.1258 89.7755 59.3385 89.5261 59.4851C89.2915 59.6318 89.0495 59.7051 88.8001 59.7051C88.5655 59.6905 88.3308 59.6171 88.0961 59.4851C87.8615 59.3385 87.7001 59.1331 87.6121 58.8691L83.2781 46.1091C83.2341 45.9478 83.2121 45.8011 83.2121 45.6691C83.2121 45.2291 83.3661 44.8845 83.6741 44.6351C83.9968 44.3711 84.3268 44.2391 84.6641 44.2391C84.9428 44.2391 85.1995 44.3125 85.4341 44.4591C85.6835 44.6058 85.8521 44.8185 85.9401 45.0971L89.4381 55.7011L88.9541 55.6791L92.0782 48.1771C92.1955 47.9131 92.3641 47.7078 92.5842 47.5611C92.8041 47.3998 93.0535 47.3265 93.3321 47.3411C93.6108 47.3265 93.8602 47.3998 94.0802 47.5611C94.3002 47.7078 94.4615 47.9131 94.5641 48.1771L97.4242 55.3491L97.0721 55.5691L100.526 45.0971C100.614 44.8185 100.783 44.6058 101.032 44.4591C101.281 44.3125 101.545 44.2391 101.824 44.2391ZM109.999 59.9251C108.973 59.9251 108.049 59.8005 107.227 59.5511C106.406 59.2871 105.621 58.8325 104.873 58.1871C104.683 58.0258 104.536 57.8425 104.433 57.6371C104.331 57.4318 104.279 57.2265 104.279 57.0211C104.279 56.6838 104.397 56.3905 104.631 56.1411C104.881 55.8771 105.189 55.7451 105.555 55.7451C105.834 55.7451 106.083 55.8331 106.303 56.0091C106.861 56.4638 107.411 56.8085 107.953 57.0431C108.511 57.2778 109.193 57.3951 109.999 57.3951C110.542 57.3951 111.041 57.3145 111.495 57.1531C111.95 56.9771 112.317 56.7498 112.595 56.4711C112.874 56.1778 113.013 55.8478 113.013 55.4811C113.013 55.0411 112.881 54.6671 112.617 54.3591C112.353 54.0511 111.95 53.7945 111.407 53.5891C110.865 53.3691 110.175 53.2005 109.339 53.0831C108.547 52.9658 107.851 52.7898 107.249 52.5551C106.648 52.3058 106.142 51.9978 105.731 51.6311C105.335 51.2498 105.035 50.8098 104.829 50.3111C104.624 49.7978 104.521 49.2258 104.521 48.5951C104.521 47.6418 104.763 46.8278 105.247 46.1531C105.746 45.4785 106.413 44.9651 107.249 44.6131C108.085 44.2611 109.009 44.0851 110.021 44.0851C110.975 44.0851 111.855 44.2318 112.661 44.5251C113.483 44.8038 114.15 45.1631 114.663 45.6031C115.089 45.9405 115.301 46.3291 115.301 46.7691C115.301 47.0918 115.177 47.3851 114.927 47.6491C114.678 47.9131 114.385 48.0451 114.047 48.0451C113.827 48.0451 113.629 47.9791 113.453 47.8471C113.219 47.6418 112.903 47.4511 112.507 47.2751C112.111 47.0845 111.693 46.9305 111.253 46.8131C110.813 46.6811 110.403 46.6151 110.021 46.6151C109.391 46.6151 108.855 46.6958 108.415 46.8571C107.99 47.0185 107.667 47.2385 107.447 47.5171C107.227 47.7958 107.117 48.1185 107.117 48.4851C107.117 48.9251 107.242 49.2918 107.491 49.5851C107.755 49.8638 108.129 50.0911 108.613 50.2671C109.097 50.4285 109.677 50.5751 110.351 50.7071C111.231 50.8685 112.001 51.0591 112.661 51.2791C113.336 51.4991 113.893 51.7851 114.333 52.1371C114.773 52.4745 115.103 52.9071 115.323 53.4351C115.543 53.9485 115.653 54.5791 115.653 55.3271C115.653 56.2805 115.389 57.1018 114.861 57.7911C114.333 58.4805 113.637 59.0085 112.771 59.3751C111.921 59.7418 110.997 59.9251 109.999 59.9251Z" fill="black"/>
</svg>
