<svg width="266" height="169" viewBox="0 0 266 169" fill="none" xmlns="http://www.w3.org/2000/svg">
<path d="M45.2889 93.5449L44.1719 94.1898L49.1723 102.851L50.2894 102.206L45.2889 93.5449Z" fill="#E0E0E0"/>
<path d="M45.2011 92.0032L45.2476 93.4645L44.0327 94.1791L42.775 93.3967C42.7156 93.6908 42.7284 93.995 42.8124 94.2832C42.8965 94.5713 43.0491 94.8347 43.2574 95.0508C43.4657 95.2669 43.7233 95.4292 44.0081 95.5239C44.2929 95.6185 44.5964 95.6425 44.8926 95.594C45.1888 95.5455 45.4687 95.4258 45.7084 95.2452C45.9482 95.0646 46.1405 94.8286 46.2689 94.5573C46.3972 94.286 46.4579 93.9876 46.4455 93.6878C46.4332 93.3879 46.3482 93.0955 46.198 92.8357C45.9762 92.4477 45.6224 92.1523 45.2011 92.0032Z" fill="#E0E0E0"/>
<path d="M49.1819 94.4269L48.2227 94.9807L52.5174 102.419L53.4767 101.866L49.1819 94.4269Z" fill="#E0E0E0"/>
<path d="M49.1067 93.0957L49.146 94.3534L48.1027 94.9537L47.0308 94.2855C46.971 94.5847 46.9986 94.8948 47.1103 95.1787C47.2219 95.4626 47.4129 95.7085 47.6604 95.8868C47.9079 96.0652 48.2015 96.1686 48.5062 96.1847C48.8108 96.2008 49.1137 96.1289 49.3786 95.9776C49.6435 95.8263 49.8593 95.6019 50.0002 95.3313C50.1412 95.0607 50.2012 94.7553 50.1733 94.4515C50.1454 94.1477 50.0307 93.8583 49.8428 93.6179C49.655 93.3775 49.4019 93.1962 49.1139 93.0957H49.1067Z" fill="#E0E0E0"/>
<path d="M52.0938 54.4145C52.0938 54.4145 52.2974 53.6999 54.5591 52.8638C56.8209 52.0277 62.2483 50.1519 62.2483 50.1519C62.2483 50.1519 63.5203 52.0349 66.9218 52.1956C70.0375 52.3457 71.8705 49.8589 71.8705 49.8589C71.8705 49.8589 81.3855 52.2743 81.3962 52.5029C81.4069 52.7316 80.1385 67.3167 80.1385 67.3167L78.4377 84.5173L55.1201 84.8746L54.845 67.9813L52.0938 54.4145Z" fill="#E0E0E0"/>
<path d="M52.3551 54.0574C52.1264 54.2217 45.0625 67.2383 45.0625 67.2383C45.0625 67.2383 51.5618 71.7439 53.0482 71.8439L54.9062 68.4067L52.3551 54.0574Z" fill="#E0E0E0"/>
<path d="M81.3863 52.5023L81.6257 52.6703C82.8958 53.5441 83.9873 54.6526 84.8414 55.936L90.837 64.9579L83.5087 70.196L80.3144 65.0937L79.0781 59.5591L81.3863 52.5023Z" fill="#E0E0E0"/>
<path d="M81.3891 56.5836C81.3939 56.7036 81.3831 56.8237 81.3569 56.9409L81.2033 57.9449C81.0746 58.7882 80.9031 59.9601 80.7566 61.2536C80.6101 62.547 80.5137 63.7297 80.4529 64.5836C80.4243 64.9767 80.3993 65.2982 80.3779 65.5948C80.3792 65.7157 80.3623 65.8362 80.3279 65.9521C80.3082 65.8341 80.301 65.7143 80.3064 65.5948C80.3064 65.3554 80.3064 65.0088 80.3064 64.5801C80.335 63.7225 80.4101 62.5399 80.5565 61.2393C80.703 59.9387 80.9138 58.7667 81.0603 57.9235C81.1425 57.5055 81.214 57.166 81.2712 56.9302C81.2978 56.8107 81.3373 56.6945 81.3891 56.5836Z" fill="#263238"/>
<path d="M54.056 57.9906C54.1096 57.9906 54.3526 60.5453 54.6062 63.7074C54.8599 66.8696 55.0171 69.4243 54.9635 69.4243C54.9099 69.4243 54.667 66.8732 54.4169 63.7074C54.1668 60.5417 54.006 57.9977 54.056 57.9906Z" fill="#263238"/>
<path d="M59.4657 33.3512C59.0408 33.3942 58.6151 33.2777 58.2712 33.0244C57.9273 32.7712 57.6898 32.3992 57.6048 31.9807C57.5198 31.5622 57.5933 31.127 57.811 30.7596C58.0288 30.3922 58.3753 30.1189 58.7832 29.9926C58.5206 29.7204 58.3511 29.3718 58.2992 28.9971C58.2472 28.6224 58.3156 28.2409 58.4944 27.9076C58.6732 27.5742 58.9532 27.3062 59.2941 27.1422C59.6349 26.9782 60.019 26.9265 60.3911 26.9948C60.412 26.6248 60.5286 26.2665 60.7293 25.955C60.93 25.6434 61.208 25.3892 61.5363 25.2172C61.8645 25.0451 62.2318 24.9611 62.6022 24.9733C62.9726 24.9855 63.3335 25.0936 63.6497 25.2869C64.0731 24.956 64.5951 24.7762 65.1325 24.7762C65.6699 24.7762 66.1919 24.956 66.6153 25.2869C66.9771 25.2257 67.349 25.2821 67.6763 25.4479C68.0036 25.6137 68.2691 25.8801 68.4339 26.2079C68.5986 26.5358 68.6538 26.9078 68.5915 27.2694C68.5291 27.631 68.3524 27.963 68.0874 28.2168" fill="#263238"/>
<path d="M66.9581 26.974H66.5794C64.744 26.9488 62.9664 27.6157 61.6005 28.8419C60.2346 30.0681 59.3805 31.7637 59.2082 33.5912C58.8759 37.1178 58.5544 41.016 58.5508 42.9097C58.5508 46.84 62.4597 47.4939 62.4597 47.4939L62.0631 52.196L71.5816 52.0316L72.6535 34.9597C73.0609 30.8936 71.0242 27.2669 66.9581 26.974Z" fill="#AE7461"/>
<path d="M62.4297 47.4826C64.2498 47.5101 66.0394 47.014 67.5856 46.0533C67.5856 46.0533 66.3386 48.8582 62.4333 48.4544L62.4297 47.4826Z" fill="#6F4439"/>
<path d="M60.7501 37.146C60.7471 37.2922 60.8009 37.4338 60.9002 37.5411C60.9995 37.6484 61.1365 37.713 61.2825 37.7213C61.354 37.7276 61.426 37.7196 61.4943 37.6978C61.5627 37.676 61.626 37.6408 61.6805 37.5942C61.7351 37.5476 61.7798 37.4906 61.8121 37.4266C61.8444 37.3625 61.8635 37.2926 61.8685 37.221C61.8715 37.0752 61.8175 36.934 61.7182 36.8273C61.6188 36.7206 61.4817 36.6568 61.3361 36.6494C61.2649 36.643 61.1932 36.6508 61.1251 36.6724C61.0569 36.694 60.9938 36.729 60.9393 36.7752C60.8847 36.8214 60.84 36.8779 60.8075 36.9416C60.775 37.0053 60.7555 37.0747 60.7501 37.146Z" fill="#263238"/>
<path d="M60.0236 35.5169C60.0914 35.5919 60.5202 35.2847 61.124 35.2918C61.7279 35.2989 62.1638 35.6098 62.2317 35.5383C62.2996 35.4669 62.1924 35.374 62.003 35.2311C61.7457 35.0463 61.4372 34.9463 61.1205 34.9452C60.8065 34.9392 60.4987 35.033 60.2415 35.2132C60.0557 35.3525 59.9914 35.4847 60.0236 35.5169Z" fill="#263238"/>
<path d="M66.2385 37.0999C66.2346 37.2459 66.2882 37.3877 66.3878 37.4946C66.4873 37.6015 66.6249 37.665 66.7709 37.6715C66.8421 37.6784 66.9141 37.6709 66.9824 37.6495C67.0507 37.6281 67.1141 37.5932 67.1687 37.5469C67.2233 37.5006 67.2681 37.4438 67.3004 37.3799C67.3327 37.3161 67.3519 37.2463 67.3568 37.1749C67.3598 37.0291 67.3059 36.8879 67.2065 36.7812C67.1071 36.6744 66.9701 36.6106 66.8245 36.6032C66.7533 36.5969 66.6815 36.6047 66.6134 36.6263C66.5453 36.6479 66.4821 36.6828 66.4276 36.729C66.3731 36.7752 66.3283 36.8318 66.2958 36.8955C66.2634 36.9591 66.2439 37.0286 66.2385 37.0999Z" fill="#263238"/>
<path d="M65.9493 35.7094C66.0208 35.7844 66.4496 35.4772 67.0498 35.4843C67.6501 35.4914 68.0896 35.8023 68.1575 35.7308C68.2254 35.6594 68.1217 35.5629 67.9288 35.4236C67.6715 35.2388 67.363 35.1389 67.0463 35.1377C66.7323 35.1317 66.4245 35.2256 66.1673 35.4057C65.9815 35.545 65.9172 35.6772 65.9493 35.7094Z" fill="#263238"/>
<path d="M63.699 40.1471C63.3828 40.0445 63.0552 39.9809 62.7235 39.9577C62.5699 39.9399 62.427 39.9077 62.402 39.8041C62.3907 39.6443 62.4281 39.4849 62.5092 39.3468L62.9808 38.1819C63.6347 36.5241 64.1099 35.1592 64.0527 35.1306C63.9955 35.102 63.3988 36.4312 62.745 38.089L62.2948 39.261C62.1953 39.4456 62.1637 39.6593 62.2054 39.8648C62.227 39.9195 62.2607 39.9685 62.3041 40.0081C62.3474 40.0477 62.3992 40.0769 62.4556 40.0935C62.5402 40.119 62.628 40.1322 62.7164 40.1328C63.0418 40.1813 63.3723 40.1861 63.699 40.1471Z" fill="#263238"/>
<path d="M65.4565 33.3837C65.5351 33.5373 66.0532 33.3837 66.6892 33.3837C67.3252 33.3837 67.8576 33.4837 67.9183 33.3265C67.9433 33.2514 67.8326 33.1121 67.6039 32.9692C67.311 32.8167 66.9835 32.7428 66.6535 32.7548C66.328 32.7617 66.0101 32.8541 65.7316 33.0228C65.5172 33.1657 65.4208 33.3122 65.4565 33.3837Z" fill="#263238"/>
<path d="M60.0306 33.0338C60.1557 33.1732 60.6523 33.0338 61.2526 33.0338C61.8529 33.0338 62.3531 33.141 62.4746 32.9981C62.5246 32.9302 62.446 32.7909 62.228 32.6408C61.9246 32.4765 61.5832 32.3952 61.2383 32.405C60.8945 32.4024 60.5563 32.4925 60.2593 32.6658C60.0449 32.8266 59.9735 32.9659 60.0306 33.0338Z" fill="#263238"/>
<path d="M59.6125 31.7936C59.6125 31.7936 60.6844 29.3532 61.8706 28.7958C63.2998 28.1241 63.9108 29.7033 65.2793 29.3425C66.6478 28.9816 68.0305 28.3313 69.4097 29.4068C70.9247 30.5823 70.1958 31.3827 70.2672 33.1227C70.5531 40.183 71.8144 42.1947 72.2253 38.8753C72.2717 38.518 73.2972 38.2357 73.4544 36.7029C73.6759 34.7092 73.7867 32.2902 73.3615 30.8682C73.0042 29.6712 72.3325 28.8387 71.1248 27.9133C69.2203 26.4519 66.5763 26.3876 64.7791 26.5412C62.9818 26.6949 59.491 28.7172 59.6125 31.7936Z" fill="#263238"/>
<path d="M71.9776 38.7649C71.9857 38.6218 72.0224 38.4817 72.0856 38.353C72.1487 38.2244 72.2371 38.1097 72.3453 38.0157C72.4536 37.9218 72.5796 37.8505 72.7159 37.8061C72.8522 37.7617 72.996 37.7451 73.1389 37.7573C73.8535 37.8359 74.6788 38.2611 74.6109 39.7725C74.4859 42.4523 71.824 41.7769 71.8204 41.6983C71.8168 41.6197 71.9169 39.8868 71.9776 38.7649Z" fill="#AE7461"/>
<path d="M72.4609 40.719C72.4609 40.719 72.5074 40.7511 72.586 40.794C72.6977 40.8475 72.826 40.8551 72.9433 40.8154C73.2327 40.7261 73.49 40.2866 73.5257 39.8043C73.5434 39.5745 73.5092 39.3437 73.4257 39.129C73.4016 39.0473 73.3587 38.9723 73.3003 38.9103C73.242 38.8482 73.1699 38.8007 73.0898 38.7717C73.0364 38.756 72.9792 38.7592 72.9278 38.7806C72.8764 38.8021 72.8339 38.8406 72.8075 38.8896C72.7682 38.961 72.7861 39.0146 72.7718 39.0218C72.7575 39.0289 72.7146 38.9718 72.7396 38.861C72.759 38.7963 72.7992 38.7398 72.854 38.7002C72.9303 38.6482 73.0237 38.6277 73.1148 38.643C73.224 38.6699 73.3245 38.7244 73.4065 38.8014C73.4885 38.8784 73.5492 38.9752 73.5829 39.0825C73.6874 39.3193 73.7316 39.5784 73.7115 39.8364C73.6686 40.3724 73.3542 40.8655 72.9969 40.9619C72.9236 40.9792 72.8473 40.9799 72.7737 40.9638C72.7002 40.9477 72.6311 40.9153 72.5717 40.869C72.4609 40.7976 72.4609 40.7225 72.4609 40.719Z" fill="#6F4439"/>
<path d="M71.992 33.5722C71.6591 33.8339 71.2661 34.0084 70.8486 34.0795C70.6395 34.1082 70.4271 34.0603 70.2505 33.9448C70.0739 33.8292 69.945 33.6538 69.8875 33.4507C69.8589 33.2649 69.9054 33.0505 69.7874 32.904C69.6695 32.7575 69.373 32.779 69.1479 32.8004C68.3654 32.8719 67.4685 32 67.2792 31.239C67.173 31.3793 67.0187 31.4755 66.846 31.5091C66.6732 31.5427 66.4941 31.5114 66.343 31.4212C66.0983 31.2649 65.882 31.0679 65.7035 30.8388C65.6016 30.6907 65.4649 30.5699 65.3054 30.4871C65.1459 30.4042 64.9685 30.3618 64.7888 30.3636C64.5999 30.4262 64.4045 30.467 64.2064 30.4851C63.8491 30.4493 63.6883 30.0349 63.6383 29.6847C63.5882 29.3346 63.5525 28.9272 63.2595 28.7307C62.9665 28.5342 62.6271 28.6485 62.3019 28.6914C61.9768 28.7343 61.5588 28.6557 61.4801 28.3341C61.4669 28.2489 61.4712 28.1618 61.4927 28.0783C61.5142 27.9947 61.5525 27.9165 61.6052 27.8482C61.8276 27.5272 62.1517 27.2906 62.5251 27.1765C62.8985 27.0624 63.2995 27.0775 63.6633 27.2193C63.8019 26.7752 64.069 26.3822 64.4308 26.0897C64.7926 25.7972 65.2329 25.6185 65.6962 25.5761C66.1595 25.5337 66.6249 25.6294 67.0339 25.8513C67.4428 26.0732 67.7768 26.4112 67.9938 26.8227C68.2818 26.568 68.627 26.3867 69.0001 26.2941C69.3733 26.2015 69.7633 26.2004 70.1369 26.2909C70.5105 26.3815 70.8568 26.5609 71.1462 26.814C71.4356 27.0671 71.6596 27.3863 71.7991 27.7446C72.1288 27.6615 72.4757 27.6775 72.7964 27.7905C73.1171 27.9036 73.3974 28.1087 73.6022 28.3802C73.8069 28.6517 73.9271 28.9775 73.9477 29.3169C73.9682 29.6564 73.8883 29.9943 73.7178 30.2886C73.9636 30.4173 74.173 30.6059 74.3266 30.837C74.4802 31.068 74.5732 31.3341 74.5967 31.6106C74.5967 32.168 74.0501 32.7111 73.5248 32.561C73.6416 32.7822 73.6672 33.0404 73.5961 33.2802C73.5251 33.5201 73.3629 33.7226 73.1445 33.8444C72.926 33.9663 72.6685 33.9978 72.4271 33.9322C72.1856 33.8666 71.9795 33.7092 71.8527 33.4936" fill="#263238"/>
<path d="M63.4599 28.01C63.4599 28.01 63.4599 28.0279 63.4599 28.06C63.4561 28.1076 63.4561 28.1554 63.4599 28.203C63.4938 28.3845 63.5565 28.5594 63.6457 28.721C63.7917 28.9779 63.9946 29.1979 64.2388 29.3642C64.5585 29.5879 64.9421 29.702 65.3322 29.6893L65.3107 29.6322C65.2268 29.8747 65.2422 30.1406 65.3536 30.3718C65.4717 30.6134 65.6232 30.8371 65.8038 31.0364C65.8912 31.1503 65.9906 31.2545 66.1004 31.3472C66.2254 31.4355 66.3701 31.492 66.522 31.5116C66.6799 31.5365 66.8415 31.5225 66.9928 31.4709C67.1441 31.4192 67.2805 31.3314 67.3902 31.215L67.2902 31.1829C67.3225 31.4596 67.412 31.7267 67.5528 31.9672C67.6937 32.2076 67.8828 32.4163 68.1084 32.5799C68.3609 32.7703 68.6675 32.8755 68.9838 32.8801C69.2823 32.8694 69.577 32.809 69.8556 32.7014L69.7841 32.6692C69.9195 32.9948 70.133 33.282 70.4059 33.5053C70.5321 33.6156 70.6811 33.6968 70.8423 33.7432C71.0035 33.7895 71.1728 33.7998 71.3384 33.7733C71.6204 33.7162 71.8796 33.5779 72.084 33.3753C72.2884 33.1728 72.4292 32.915 72.4889 32.6335L72.4282 32.6585C72.7081 32.812 73.0322 32.865 73.3465 32.8086C73.581 32.7682 73.8027 32.6727 73.9932 32.5299C74.1137 32.4413 74.2167 32.331 74.2969 32.2047C74.3269 32.163 74.3509 32.1173 74.3683 32.069C74.2603 32.2326 74.125 32.3765 73.9682 32.4942C73.78 32.6237 73.565 32.7092 73.3393 32.7443C73.035 32.7929 72.7232 32.7348 72.4568 32.5799H72.421V32.6371C72.3628 32.9021 72.2287 33.1445 72.0353 33.3348C71.8418 33.5251 71.5972 33.6551 71.3313 33.709C71.1801 33.732 71.0258 33.7212 70.8793 33.6774C70.7329 33.6335 70.598 33.5576 70.4845 33.4553C70.2277 33.2423 70.0266 32.9701 69.8985 32.6621V32.6121H69.8485C69.5819 32.7135 69.3008 32.7714 69.0159 32.7836C68.7223 32.7787 68.4381 32.6798 68.2049 32.5013C67.9882 32.3484 67.8059 32.1517 67.6699 31.924C67.5339 31.6963 67.4471 31.4426 67.4152 31.1793V31.0542L67.3295 31.1507C67.2327 31.253 67.1127 31.3305 66.9795 31.3765C66.8464 31.4226 66.7042 31.4358 66.5648 31.4151C66.4369 31.3937 66.315 31.3449 66.2075 31.2722C66.1049 31.1843 66.0115 31.0861 65.9288 30.9792C65.7535 30.7887 65.6056 30.5746 65.4894 30.3432C65.3868 30.1341 65.3689 29.8935 65.4393 29.6715L65.4644 29.6072H65.3965C65.0244 29.6259 64.6565 29.5217 64.3496 29.3106C64.1121 29.1546 63.913 28.947 63.7672 28.7032C63.6219 28.4936 63.5176 28.2584 63.4599 28.01Z" fill="#455A64"/>
<path d="M63.8052 42.2269C63.8052 42.1268 64.4806 42.2733 65.0737 41.816C65.6668 41.3586 65.7526 40.644 65.8455 40.6583C65.9383 40.6726 65.9383 40.8441 65.8812 41.1407C65.7977 41.5263 65.583 41.8711 65.2738 42.1161C64.9702 42.354 64.5848 42.4619 64.2019 42.4162C63.9375 42.3662 63.7945 42.2554 63.8052 42.2269Z" fill="#263238"/>
<path d="M56.1555 69.7643L56.8558 62.5575L77.2293 62.4932L79.4124 85.8608L54.7656 86.8255L56.1555 69.7643Z" fill="#1AB06A"/>
<path d="M56.8945 51.9066C56.748 52.1174 58.0307 61.7967 58.0307 61.7967L61.2464 61.6717L60.1745 50.6667C60.1745 50.6667 57.7484 50.6667 56.8945 51.9066Z" fill="#1AB06A"/>
<path d="M77.2057 51.2526C77.4094 51.4098 76.1767 61.861 76.1767 61.861L72.9609 61.7359L73.8899 50.3486C73.8899 50.3486 75.8051 50.17 77.2057 51.2526Z" fill="#1AB06A"/>
<path d="M61.789 150.236L62.0963 157.85C62.0963 157.85 54.4572 160.708 54.375 162.112L69.1531 162.08L69.1888 150.203L61.789 150.236Z" fill="#263238"/>
<path d="M69.1327 162.081L69.0898 160.884L54.9477 161.363C54.9477 161.363 54.2903 161.649 54.3653 162.113L69.1327 162.081Z" fill="#455A64"/>
<path d="M62.0591 157.818C62.0591 157.889 62.4164 157.921 62.7737 158.15C63.131 158.379 63.3204 158.686 63.3847 158.657C63.449 158.629 63.3418 158.211 62.9059 157.943C62.47 157.675 62.0413 157.75 62.0591 157.818Z" fill="white"/>
<path d="M60.3757 158.551C60.3579 158.619 60.6723 158.74 60.9188 159.048C61.1654 159.355 61.2333 159.673 61.3047 159.669C61.3762 159.666 61.4226 159.259 61.1118 158.887C60.8009 158.515 60.3757 158.48 60.3757 158.551Z" fill="white"/>
<path d="M59.4122 160.43C59.4801 160.43 59.5802 160.073 59.4122 159.691C59.2443 159.309 58.887 159.137 58.8548 159.198C58.8227 159.258 59.0335 159.469 59.1836 159.794C59.3336 160.12 59.3408 160.423 59.4122 160.43Z" fill="white"/>
<path d="M62.0612 156.032C62.0934 156.1 62.4185 156 62.833 156.032C63.2474 156.064 63.5476 156.189 63.594 156.125C63.6405 156.061 63.326 155.807 62.8437 155.768C62.3613 155.728 62.0255 155.979 62.0612 156.032Z" fill="white"/>
<path d="M77.9494 156.462L78.3372 157.191L73.7731 160.116C73.6597 160.179 73.5603 160.264 73.4811 160.366C73.402 160.468 73.3447 160.586 73.3129 160.711C73.281 160.836 73.2754 160.967 73.2962 161.095C73.317 161.222 73.3638 161.344 73.4338 161.453C73.5147 161.58 73.6249 161.685 73.7551 161.761C73.8853 161.836 74.0316 161.878 74.1818 161.885C76.124 161.979 86.4194 162.327 86.8726 161.821C87.3911 161.238 86.4853 157.176 86.4853 157.176L77.9494 156.462Z" fill="#263238"/>
<path d="M73.4105 161.442L86.8881 161.442L86.8874 161.83C86.6424 162.061 83.6551 162.273 83.3187 162.292C82.4244 162.335 79.9229 162.42 74.5095 162.192C74.3544 162.185 74.2034 162.139 74.07 162.06C73.9365 161.981 73.7888 161.954 73.7083 161.821L73.4105 161.442Z" fill="#455A64"/>
<path d="M80.8087 162.917C80.5882 162.624 80.2932 162.396 79.9545 162.256C79.6158 162.116 79.2457 162.069 78.8828 162.12C78.8828 162.099 78.9864 162.02 79.2008 161.974C79.4815 161.926 79.7701 161.958 80.0333 162.067C80.2989 162.172 80.5267 162.355 80.6872 162.592C80.8087 162.774 80.8301 162.91 80.8087 162.917Z" fill="white"/>
<path d="M74.9657 159.502C75.027 159.8 75.1061 160.094 75.2025 160.383C75.3588 160.643 75.5297 160.894 75.7147 161.135C75.5547 161.087 75.4083 161.002 75.2877 160.887C75.1672 160.771 75.0759 160.629 75.0214 160.471C74.7866 159.951 74.9145 159.483 74.9657 159.502Z" fill="white"/>
<path d="M78.1995 157.95C78.345 158.396 78.5249 158.83 78.7376 159.248C79.1295 159.916 79.6617 160.285 79.6219 160.336C79.1825 160.114 78.8153 159.772 78.5634 159.35C78.3114 158.927 78.1852 158.442 78.1995 157.95Z" fill="white"/>
<path d="M76.3123 158.749C76.3732 158.745 76.4205 159.296 76.7107 159.89C77.0008 160.484 77.3842 160.876 77.3423 160.923C76.99 160.687 76.7081 160.361 76.5267 159.978C76.3453 159.595 76.2712 159.171 76.3123 158.749Z" fill="white"/>
<path d="M81.8339 156.635C81.4256 156.53 81.0048 156.482 80.5834 156.492C80.167 156.564 79.7629 156.693 79.3828 156.878C79.3828 156.86 79.4614 156.739 79.6651 156.599C79.9349 156.426 80.2426 156.32 80.5619 156.292C80.8818 156.259 81.205 156.302 81.5052 156.417C81.7517 156.513 81.8482 156.614 81.8339 156.635Z" fill="white"/>
<path d="M54.0776 88.5086C53.3645 91.6642 53.1237 94.9081 53.363 98.1344C53.5202 100.178 60.4233 156.764 60.4233 156.764H69.7418L67.1228 103.583L67.8874 103.748C67.8874 103.748 72.9718 126.429 73.3899 130.102C73.7472 133.404 78.0348 157.386 78.0348 157.386L86.5529 157.482L83.8338 125.761L80.6753 95.326L79.4819 86.4648L54.0776 88.5086Z" fill="#1AB06A"/>
<path d="M64.9512 92.5676C64.9874 92.7116 65.009 92.8588 65.0156 93.0071C65.0477 93.3287 65.0834 93.7217 65.1299 94.2041C65.2264 95.2117 65.3657 96.6087 65.5479 98.1344C65.7302 99.6601 65.9267 101.057 66.0696 102.065C66.1375 102.536 66.1947 102.937 66.2411 103.255C66.2702 103.399 66.2834 103.547 66.2804 103.694C66.2274 103.556 66.1903 103.412 66.1696 103.265C66.1089 102.99 66.0303 102.586 65.941 102.086C65.7623 101.086 65.5479 99.6994 65.3621 98.1558C65.1763 96.6123 65.062 95.2152 65.0048 94.2041C64.9727 93.6967 64.9548 93.2858 64.9477 93C64.933 92.8562 64.9342 92.7112 64.9512 92.5676Z" fill="#263238"/>
<path d="M60.5292 64.0224C60.5292 64.1779 60.4831 64.3299 60.3967 64.4591C60.3103 64.5884 60.1875 64.6891 60.0439 64.7486C59.9003 64.8081 59.7422 64.8237 59.5897 64.7934C59.4373 64.763 59.2972 64.6882 59.1873 64.5782C59.0773 64.4683 59.0025 64.3282 58.9721 64.1758C58.9418 64.0233 58.9574 63.8652 59.0169 63.7216C59.0764 63.578 59.1771 63.4552 59.3064 63.3688C59.4357 63.2824 59.5876 63.2363 59.7431 63.2363C59.8465 63.2359 59.9489 63.2559 60.0445 63.2952C60.1401 63.3345 60.2269 63.3924 60.3 63.4655C60.3731 63.5386 60.431 63.6254 60.4703 63.721C60.5096 63.8166 60.5296 63.919 60.5292 64.0224Z" fill="#263238"/>
<path d="M75.3729 64.0224C75.3729 64.178 75.3267 64.3301 75.2402 64.4595C75.1537 64.5888 75.0307 64.6896 74.8868 64.749C74.743 64.8084 74.5848 64.8237 74.4322 64.7931C74.2796 64.7625 74.1395 64.6872 74.0297 64.577C73.92 64.4667 73.8454 64.3263 73.8155 64.1736C73.7855 64.0208 73.8016 63.8627 73.8616 63.7191C73.9217 63.5755 74.023 63.453 74.1527 63.3671C74.2825 63.2811 74.4348 63.2356 74.5904 63.2363C74.6935 63.2363 74.7955 63.2567 74.8907 63.2962C74.9859 63.3358 75.0723 63.3937 75.145 63.4668C75.2177 63.5398 75.2753 63.6265 75.3144 63.7219C75.3535 63.8172 75.3734 63.9193 75.3729 64.0224Z" fill="#263238"/>
<path d="M61.4029 61.6716H57.8906V62.2826H61.4029V61.6716Z" fill="#263238"/>
<path d="M61.0269 62.1964C61.026 62.4843 60.979 62.7702 60.8876 63.0432C60.8079 63.347 60.6965 63.6416 60.5553 63.9222C60.4714 64.093 60.3631 64.2507 60.2337 64.3903C60.1633 64.4751 60.0763 64.5446 59.9779 64.5944C59.8796 64.6442 59.7721 64.6732 59.662 64.6797C59.5517 64.6736 59.4439 64.644 59.3459 64.5928C59.2479 64.5417 59.162 64.4702 59.0939 64.3831C58.9713 64.2385 58.8658 64.0803 58.7795 63.9115C58.6344 63.6322 58.5148 63.3404 58.4222 63.0396C58.3184 62.7704 58.2628 62.485 58.2578 62.1964C58.2793 62.1964 58.365 62.5073 58.5472 62.9968C58.6464 63.2824 58.7658 63.5606 58.9045 63.8293C58.9881 63.9831 59.0888 64.1269 59.2047 64.2581C59.2563 64.3245 59.321 64.3796 59.3947 64.4202C59.4684 64.4607 59.5497 64.4858 59.6334 64.4939C59.7187 64.4868 59.8017 64.4629 59.8777 64.4237C59.9538 64.3844 60.0213 64.3306 60.0765 64.2652C60.1965 64.1379 60.2987 63.9949 60.3802 63.84C60.5226 63.5731 60.6421 63.2946 60.7375 63.0075C60.8182 62.7318 60.9148 62.4609 61.0269 62.1964Z" fill="#263238"/>
<path d="M76.3248 61.6489H72.8125V62.2599H76.3248V61.6489Z" fill="#263238"/>
<path d="M75.941 62.1786C75.9401 62.4665 75.893 62.7524 75.8016 63.0254C75.7212 63.3278 75.6099 63.6212 75.4693 63.9008C75.3855 64.0716 75.2772 64.2293 75.1478 64.3689C75.0774 64.4537 74.9903 64.5232 74.892 64.573C74.7937 64.6228 74.6861 64.6518 74.5761 64.6583C74.4657 64.6522 74.3579 64.6226 74.2599 64.5714C74.162 64.5203 74.076 64.4488 74.008 64.3617C73.8853 64.2171 73.7798 64.0589 73.6935 63.8901C73.5484 63.6108 73.4288 63.319 73.3362 63.0183C73.2329 62.7501 73.1772 62.4659 73.1719 62.1786C73.1933 62.1786 73.2791 62.4859 73.4613 62.9754C73.5598 63.2613 73.6792 63.5395 73.8186 63.8079C73.9029 63.9623 74.0036 64.1072 74.1187 64.2402C74.1708 64.3067 74.2361 64.3617 74.3106 64.4017C74.385 64.4416 74.4669 64.4658 74.5511 64.4725C74.6359 64.4657 74.7185 64.442 74.794 64.4027C74.8695 64.3634 74.9363 64.3094 74.9905 64.2438C75.1105 64.1177 75.2127 63.9759 75.2943 63.8222C75.4368 63.5541 75.5564 63.2744 75.6516 62.9861C75.7311 62.7111 75.8277 62.4414 75.941 62.1786Z" fill="#263238"/>
<path d="M60.1719 70.9041C60.1719 70.8255 61.2438 68.7317 62.4515 68.2779C63.6592 67.8242 64.7239 68.2101 65.6994 68.5745L68.0754 69.7107L68.9294 69.6536L71.4305 71.0828L68.4756 75.5884L60.1719 70.9041Z" fill="#455A64"/>
<path d="M59.752 77.4106C59.6984 77.4714 58.2085 79.2472 57.5189 79.2507C56.8293 79.2543 62.9678 82.6416 62.9678 82.6416C62.745 82.4397 62.5768 82.1848 62.4788 81.9006C62.3807 81.6164 62.356 81.3121 62.4068 81.0158C62.5743 80.2569 62.9006 79.5421 63.3644 78.9185L67.9164 75.1882L62.8534 72.3619C62.8534 72.3619 60.9133 75.9921 59.752 77.4106Z" fill="#455A64"/>
<path d="M64.4362 82.7547L56.6602 78.2651L54.804 81.4802L62.58 85.9697L64.4362 82.7547Z" fill="#455A64"/>
<path d="M68.86 75.0736L73.6657 76.903L75.1806 74.3733L71.0967 71.5256C71.0967 71.5256 69.9247 71.2897 69.1565 72.6332C68.9467 72.9996 68.8123 73.4043 68.7614 73.8234C68.7104 74.2425 68.744 74.6676 68.86 75.0736Z" fill="#E0E0E0"/>
<path d="M73.4441 75.0993C73.0654 75.8139 73.1583 76.625 73.6478 76.8858C74.1373 77.1467 74.8448 76.7608 75.2235 76.0355C75.6023 75.3101 75.5129 74.5098 75.0234 74.2489C74.5339 73.9881 73.8265 74.3847 73.4441 75.0993Z" fill="#E0E0E0"/>
<path d="M74.6326 75.6771C74.4683 76.0701 74.5469 76.4774 74.8113 76.5918C75.0757 76.7061 75.4258 76.4739 75.5902 76.0844C75.7546 75.6949 75.6759 75.284 75.4115 75.1697C75.1471 75.0554 74.797 75.2876 74.6326 75.6771Z" fill="#263238"/>
<path d="M75.0081 76.1923C75.0081 76.2245 78.8813 77.8824 78.8813 77.8824L79.0814 77.4179L75.3583 75.6313C75.2962 75.6408 75.2369 75.6636 75.1845 75.6982C75.132 75.7327 75.0877 75.7782 75.0544 75.8314C75.0212 75.8847 74.9998 75.9445 74.9918 76.0068C74.9838 76.0691 74.9894 76.1324 75.0081 76.1923Z" fill="#263238"/>
<path d="M75.0384 74.2625C75.0384 74.291 74.8633 74.3446 74.6168 74.5054C74.2952 74.7121 74.0387 75.0057 73.8772 75.3522C73.728 75.7049 73.681 76.0925 73.7414 76.4706C73.7848 76.6269 73.8194 76.7856 73.845 76.9458C73.845 76.9458 73.6985 76.8029 73.6128 76.4956C73.5047 76.0907 73.5387 75.6609 73.709 75.2779C73.8793 74.895 74.1758 74.582 74.5489 74.3911C74.8348 74.2482 75.0348 74.241 75.0384 74.2625Z" fill="#263238"/>
<path d="M71.0964 71.5257C70.8624 71.5491 70.6306 71.591 70.4032 71.6508C69.884 71.8692 69.4553 72.2589 69.1884 72.7549C68.9424 73.2622 68.82 73.8205 68.8311 74.3842C68.8311 74.8237 68.9132 75.0988 68.8847 75.0988C68.7576 74.8825 68.6932 74.635 68.6989 74.3842C68.6819 74.1193 68.6939 73.8533 68.7346 73.591C68.7772 73.2628 68.8801 72.9454 69.0383 72.6548C69.2061 72.3714 69.4184 72.1168 69.6672 71.9009C69.8755 71.7242 70.1191 71.5939 70.3818 71.5186C70.6143 71.4428 70.8654 71.4453 71.0964 71.5257Z" fill="#263238"/>
<path d="M68.0775 69.7638C67.5709 70.0817 67.0808 70.4251 66.609 70.7928C66.1797 71.2103 65.773 71.6504 65.3906 72.1113C65.624 71.5386 66.0019 71.0363 66.4875 70.6535C66.9331 70.2263 67.4804 69.9201 68.0775 69.7638Z" fill="#263238"/>
<path d="M46.405 68.2524C46.43 68.4275 43.8538 73.8585 44.3898 76.1667C44.9258 78.4749 48.0915 80.265 50.196 79.779C52.3005 79.2931 56.924 77.085 56.924 77.085L57.2563 72.6187L51.1821 72.6508L51.618 71.3002L46.405 68.2524Z" fill="#AE7461"/>
<path d="M68.5557 76.6454C68.2378 76.0036 67.8417 75.4036 67.3766 74.8589C66.7227 74.1443 64.1858 72.5079 63.1389 72.2006C62.0921 71.8933 57.2542 72.6329 57.2542 72.6329L56.9219 77.0992L58.0259 77.4387C58.6353 77.9671 59.3759 78.3213 60.1698 78.4641C61.3953 78.6392 63.1068 79.8933 63.4355 79.8147C63.7642 79.7361 64.0358 79.0286 64.0358 79.0286C64.0358 79.0286 65.1649 79.5753 65.2971 78.314C65.2971 78.314 66.2868 78.0925 66.2582 77.3922C66.2296 76.6919 64.5396 74.984 64.5396 74.984C65.2803 75.2911 65.9603 75.7279 66.5476 76.2738C67.2408 77.0206 68.0376 77.5816 68.2913 77.3851C68.4503 77.2383 68.5474 77.0364 68.5628 76.8205" fill="#AE7461"/>
<path d="M65.4278 78.265C65.3813 78.2972 64.9669 77.7612 64.3559 77.2146C63.7449 76.6679 63.1482 76.3141 63.1768 76.2677C64.1347 76.6602 64.9327 77.3637 65.4421 78.265H65.4278Z" fill="#6F4439"/>
<path d="M64.3057 79.2652C63.956 78.91 63.5823 78.5793 63.1873 78.2754C62.8514 78.0468 62.4941 77.8967 62.2798 77.7037C62.0654 77.5108 61.9939 77.3464 62.0154 77.3464C62.0368 77.3464 62.1333 77.4715 62.3727 77.618C62.6121 77.7645 62.9443 77.8967 63.3052 78.1396C63.7464 78.4031 64.0957 78.7961 64.3057 79.2652Z" fill="#6F4439"/>
<path d="M51.1155 72.7115C50.8724 72.6345 50.6338 72.5438 50.4009 72.44C49.8265 72.2364 49.2236 72.1242 48.6144 72.1077C48.0098 72.0942 47.4069 72.1761 46.8279 72.3507C46.5941 72.4421 46.3556 72.5209 46.1133 72.5865C46.3141 72.4242 46.5447 72.3029 46.7922 72.2292C47.3794 72.0118 48.0028 71.9087 48.6287 71.9255C49.2537 71.9391 49.8701 72.0738 50.4438 72.3221C50.6906 72.4076 50.9187 72.5398 51.1155 72.7115Z" fill="#6F4439"/>
<path d="M76.4303 89.9165C76.4017 90.3345 75.2333 112.38 76.2874 113.352C77.3414 114.324 84.2767 112.441 84.3696 112.484C84.4625 112.527 89.6648 103.651 88.7287 101.661C87.7925 99.6709 81.1538 90.038 81.1538 90.038L80.207 87.4189L76.4303 89.9165Z" fill="#455A64"/>
<path d="M53.9781 88.8754C53.8173 88.9325 51.4162 94.5922 51.4162 94.5922C51.4162 94.5922 45.3921 98.8584 45.4457 100.248C45.4993 101.638 50.8302 112.443 52.5917 112.322C54.3532 112.2 54.4926 108.877 54.4926 108.877L54.7606 89.7472L53.9781 88.8754Z" fill="#455A64"/>
<path d="M80.8158 85.8084L53.7422 86.8674L53.9409 91.948L81.0145 90.889L80.8158 85.8084Z" fill="#455A64"/>
<path d="M54.1411 92.2854C54.0512 92.0498 53.9924 91.8036 53.966 91.5529C53.8838 91.0956 53.7945 90.4596 53.723 89.7664C53.6516 89.0732 53.6194 88.4194 53.6087 87.9513C53.5867 87.6997 53.5976 87.4462 53.6408 87.1974C53.6909 87.1974 53.7695 88.3408 53.9088 89.7485C54.0482 91.1563 54.1947 92.2782 54.1411 92.2854Z" fill="#263238"/>
<path d="M66.4607 91.5346C66.2822 90.7105 66.1628 89.8746 66.1034 89.0335C65.9783 88.1924 65.915 87.3433 65.9141 86.493C66.0927 87.3232 66.2121 88.165 66.2714 89.012C66.3935 89.8474 66.4568 90.6903 66.4607 91.5346Z" fill="#263238"/>
<path d="M88.665 102.143C88.6035 102.168 88.5402 102.188 88.4756 102.204C88.3506 102.239 88.1684 102.286 87.9254 102.34C87.2482 102.493 86.5601 102.595 85.8673 102.643C84.8308 102.725 83.7881 102.61 82.7945 102.304C81.5611 101.931 80.4896 101.153 79.7539 100.096C79.0526 99.0387 78.5052 97.8874 78.1282 96.6763C77.7458 95.5793 77.4421 94.5789 77.2099 93.7321C76.9776 92.8853 76.8133 92.1957 76.7097 91.7169C76.6561 91.4739 76.6203 91.2881 76.5953 91.1631C76.5791 91.0988 76.5707 91.0328 76.5703 90.9666C76.6011 91.0248 76.6228 91.0875 76.6346 91.1523C76.6704 91.2988 76.7204 91.4775 76.7811 91.699C76.9062 92.1707 77.0884 92.8567 77.3385 93.6963C77.5886 94.536 77.9031 95.5293 78.2925 96.6191C78.6715 97.8101 79.2138 98.9428 79.904 99.9849C80.2745 100.51 80.7297 100.97 81.251 101.346C81.74 101.691 82.2785 101.96 82.8481 102.143C83.8221 102.444 84.8428 102.565 85.8602 102.5C86.5484 102.464 87.2335 102.383 87.9111 102.257L88.4685 102.157C88.5328 102.142 88.5992 102.137 88.665 102.143Z" fill="#263238"/>
<path d="M89.7358 65.7343C89.9573 66.2666 92.5942 71.4511 92.7371 73.8951C92.8801 76.339 88.278 90.3953 88.278 90.3953L84.3477 88.3873L86.6737 74.1845L84.3798 69.5395L89.7358 65.7343Z" fill="#AE7461"/>
<path d="M81.1453 90.0369C81.2382 90.0369 83.5714 89.7832 84.3611 88.3862C85.1507 86.9891 88.2914 90.3942 88.2914 90.3942C88.2914 90.3942 88.3772 92.1521 87.9877 93.1526C87.5982 94.153 87.2517 94.8426 87.2517 94.8426C87.2517 94.8426 86.9658 96.9114 86.7371 97.3437C86.5085 97.7761 85.3687 98.9373 85.0614 98.7944C84.7541 98.6515 84.4433 98.4371 84.7505 98.0798C85.0578 97.7225 85.8224 96.9614 85.8224 96.6827C85.7308 96.1799 85.6116 95.6825 85.4651 95.1928C85.4651 95.1928 84.111 99.0874 83.7858 99.409C83.4702 99.6315 83.0993 99.7625 82.7139 99.7877C82.7139 99.7877 82.0315 100.431 81.5634 100.202C81.0953 99.9735 81.5134 98.9445 81.5134 98.9445C81.5134 98.9445 82.4566 94.7569 82.4531 94.6318C82.4495 94.5068 81.6634 94.9391 81.5455 95.8359C81.4276 96.7328 81.5884 98.48 80.8309 98.48C80.0734 98.48 80.2771 96.0396 80.2985 95.0248C80.32 94.0101 80.7416 93.7457 80.9595 93.0918C81.1775 92.438 81.1453 90.0369 81.1453 90.0369Z" fill="#AE7461"/>
<rect x="100.484" width="76.6765" height="162.596" rx="15" fill="#DFD7F9"/>
<rect x="101.484" y="1" width="74.6765" height="160.596" rx="14" stroke="black" stroke-opacity="0.3" stroke-width="2"/>
<rect x="102.074" y="1.64807" width="73.4937" height="159.449" rx="15" fill="#060405"/>
<rect x="104.535" y="3.89612" width="68.5748" height="154.953" rx="15" fill="url(#paint0_linear_1065_2451)"/>
<path d="M120.879 3.74683H156.902L156.365 3.75707C154.919 3.78462 153.785 5.00546 153.863 6.44916C153.942 7.91202 152.777 9.14171 151.312 9.14171H126.469C125.004 9.14171 123.839 7.91202 123.918 6.44916C123.997 5.00546 122.862 3.78462 121.417 3.75707L120.879 3.74683Z" fill="#060405"/>
<ellipse cx="127.818" cy="5.24472" rx="1.30205" ry="1.34872" fill="#393135"/>
<ellipse cx="127.387" cy="4.79462" rx="0.57869" ry="0.599431" fill="#66FFED" fill-opacity="0.2"/>
<path fill-rule="evenodd" clip-rule="evenodd" d="M135.24 93.2864C135.716 93.7871 136.284 94.1833 136.911 94.4514C137.538 94.7194 138.211 94.8536 138.889 94.8463C139.566 94.8563 140.237 94.7233 140.862 94.455C141.487 94.1867 142.053 93.7891 142.525 93.2864C142.77 93.0308 142.953 92.7173 143.056 92.3729C143.16 92.0285 143.181 91.6634 143.119 91.3084C142.872 89.9064 142.413 87.3624 142.002 84.9882C141.444 81.8792 143.642 78.907 147.016 78.1943C149.573 77.663 151.521 75.7866 151.968 73.446C152.017 73.175 152.067 72.9262 152.104 72.7112C152.122 72.6106 152.113 72.507 152.078 72.4113C152.043 72.3156 151.984 72.2315 151.906 72.1683C151.823 72.1002 151.726 72.0519 151.623 72.0266C151.52 72.0013 151.413 71.9997 151.309 72.0218C150.566 72.1912 149.523 72.418 148.666 72.6092C148.199 72.6988 147.756 72.8941 147.37 73.1816C146.984 73.4692 146.663 73.8416 146.433 74.2723C146.315 74.4963 146.141 74.6831 145.929 74.8125C145.717 74.942 145.475 75.0091 145.229 75.0071C144.981 75.0204 144.734 74.9672 144.513 74.8522C144.291 74.7373 144.101 74.5647 143.963 74.3514C143.913 74.2612 143.852 74.1704 143.814 74.0918C143.67 73.8619 143.589 73.5958 143.579 73.3218C143.541 72.7455 143.492 71.6585 143.454 70.9257C143.433 70.3943 143.54 69.8656 143.764 69.3875C143.803 69.3148 143.836 69.2394 143.864 69.1616C143.934 69.0153 143.952 68.8484 143.916 68.6897C143.88 68.5309 143.791 68.3901 143.665 68.2917C143.665 68.2797 143.653 68.2694 143.641 68.258C143.24 67.9293 142.745 67.7498 142.234 67.7476C141.723 67.7454 141.227 67.921 140.824 68.2463C140.66 68.3741 140.546 68.5586 140.502 68.7664C140.459 68.9741 140.489 69.1911 140.588 69.3776C140.591 69.3801 140.594 69.3832 140.596 69.3869C140.598 69.3906 140.599 69.3946 140.6 69.3989C140.833 69.8357 140.957 70.3257 140.96 70.8247C140.972 71.4348 140.972 72.3051 140.972 72.95C140.968 73.2323 140.9 73.5096 140.776 73.7607C140.651 74.0117 140.472 74.2297 140.253 74.3977C139.854 74.6997 139.372 74.8632 138.877 74.8652C138.383 74.8671 137.9 74.7074 137.498 74.4086C137.46 74.3861 137.435 74.3522 137.398 74.3301C137.254 74.221 137.135 74.0803 137.049 73.918C136.963 73.7557 136.913 73.5756 136.902 73.391C136.877 72.7352 136.827 71.6615 136.803 70.9269C136.784 70.4108 136.899 69.899 137.138 69.4452C137.163 69.4 137.188 69.366 137.213 69.3219C137.301 69.1555 137.33 68.9622 137.293 68.776C137.257 68.5898 137.158 68.4229 137.013 68.3055C136.629 67.985 136.153 67.8045 135.66 67.7921C135.167 67.7797 134.683 67.9361 134.284 68.237C134.284 68.2481 134.272 68.2481 134.258 68.2601C134.122 68.3575 134.024 68.5016 133.981 68.6671C133.938 68.8326 133.953 69.0086 134.023 69.1637C134.085 69.322 134.172 69.4918 134.234 69.6501C134.385 69.983 134.465 70.3453 134.469 70.7128V72.7028C134.466 73.2692 134.288 73.8195 133.961 74.2735C133.793 74.4912 133.577 74.6649 133.332 74.7806C133.087 74.8964 132.82 74.9511 132.551 74.9401C132.281 74.9291 132.019 74.8529 131.783 74.7175C131.548 74.5821 131.347 74.3911 131.196 74.1604C130.945 73.7456 130.613 73.3898 130.222 73.1155C129.831 72.8411 129.389 72.6542 128.924 72.5671C128.105 72.3971 127.113 72.1933 126.392 72.0353C126.288 72.0182 126.182 72.0232 126.079 72.0504C125.977 72.0776 125.881 72.1262 125.798 72.1933C125.719 72.2553 125.66 72.3396 125.627 72.436C125.594 72.5323 125.589 72.6365 125.612 72.7359C125.648 72.917 125.686 73.1315 125.736 73.3582C126.22 75.6421 128.069 77.484 130.526 78.1173C130.649 78.1515 130.761 78.1854 130.886 78.2193C134.162 79.0672 136.222 81.9949 135.713 85.0592C135.328 87.4207 134.893 89.9873 134.67 91.3893C134.616 91.7283 134.639 92.0757 134.738 92.4036C134.837 92.7315 135.009 93.0307 135.241 93.2771L135.24 93.2864Z" fill="white"/>
<path fill-rule="evenodd" clip-rule="evenodd" d="M144.225 89.1834C144.225 89.1834 141.868 84.695 143.456 83.9601C143.86 83.7994 144.303 83.7718 144.723 83.881C145.504 84.0504 146.373 83.3721 146.645 82.7167C146.546 83.1074 146.365 83.4707 146.114 83.7797C145.863 84.0887 145.548 84.3359 145.194 84.5034C144.004 85.0452 147.069 86.7525 144.225 89.1834Z" fill="white"/>
<path fill-rule="evenodd" clip-rule="evenodd" d="M133.384 89.184C133.384 89.184 135.741 84.696 134.153 83.9611C133.749 83.8003 133.307 83.7728 132.887 83.8822C132.105 84.0516 131.237 83.3734 130.964 82.7176C131.063 83.1084 131.244 83.4714 131.496 83.7804C131.747 84.0894 132.061 84.3366 132.416 84.5041C133.607 85.0462 130.542 86.7535 133.384 89.184Z" fill="white"/>
<path d="M144.998 82.9028C144.034 83.1386 143.097 82.802 142.906 82.1519C142.714 81.5018 143.34 80.7823 144.304 80.5471C145.269 80.3119 146.205 80.6475 146.397 81.2978C146.589 81.9481 145.962 82.667 144.998 82.9028Z" fill="white"/>
<path d="M133.302 80.5458C134.266 80.7816 134.893 81.4979 134.701 82.1494C134.509 82.801 133.573 83.1369 132.609 82.9015C131.645 82.666 131.019 81.9482 131.209 81.2977C131.4 80.6471 132.338 80.3115 133.302 80.5458Z" fill="white"/>
<path fill-rule="evenodd" clip-rule="evenodd" d="M143.019 82.3074C143.019 82.3074 142.321 81.3928 144.117 80.527C144.557 80.3154 145.043 80.2275 145.527 80.2721C146.367 80.3971 147.217 80.4398 148.065 80.3999C147.212 80.688 146.329 80.8735 145.434 80.9528C145.033 80.9823 144.64 81.0902 144.277 81.2707C143.788 81.5135 143.358 81.868 143.019 82.3074V82.3074Z" fill="white"/>
<path fill-rule="evenodd" clip-rule="evenodd" d="M134.594 82.3069C134.594 82.3069 135.294 81.3925 133.497 80.5261C133.056 80.3146 132.57 80.2267 132.087 80.2713C131.246 80.3963 130.397 80.4392 129.548 80.3993C130.402 80.6875 131.285 80.873 132.179 80.9523C132.581 80.9818 132.973 81.0897 133.336 81.2702C133.826 81.513 134.256 81.8674 134.594 82.3069Z" fill="white"/>
<path fill-rule="evenodd" clip-rule="evenodd" d="M140.152 93.0945C140.38 92.7631 140.571 92.4066 140.723 92.0315C140.85 91.6758 140.946 91.309 141.009 90.9354C140.785 91.2391 140.536 91.5225 140.266 91.7827C139.999 92.0293 139.708 92.2454 139.397 92.4273C139.35 92.4697 139.312 92.5223 139.287 92.5813C139.261 92.6404 139.249 92.7044 139.25 92.769C139.251 92.8337 139.266 92.8972 139.293 92.9552C139.321 93.0133 139.36 93.0645 139.409 93.105C139.513 93.1962 139.646 93.2453 139.782 93.2434C139.919 93.2415 140.05 93.1885 140.152 93.0945Z" fill="#52379D"/>
<path fill-rule="evenodd" clip-rule="evenodd" d="M138.265 92.381C137.944 92.2518 137.649 92.0602 137.397 91.8164C137.14 91.5483 136.911 91.2522 136.715 90.9334C136.75 91.3976 136.859 91.8525 137.037 92.28C137.179 92.6011 137.377 92.8924 137.62 93.1393C137.734 93.2191 137.871 93.2548 138.007 93.24C138.143 93.2253 138.27 93.161 138.365 93.0586C138.407 93.0096 138.437 92.9517 138.455 92.889C138.473 92.8262 138.477 92.7603 138.468 92.6956C138.458 92.631 138.435 92.5694 138.4 92.515C138.365 92.4606 138.319 92.4149 138.265 92.381Z" fill="#52379D"/>
<path d="M205.842 146.875L203.44 155.328C203.44 155.328 211.092 160.634 210.799 162.235L194.492 158.101L197.706 144.806L205.842 146.875Z" fill="#455A64"/>
<path d="M198.572 153.311C198.402 153.321 198.242 153.393 198.122 153.514C198.003 153.634 197.931 153.795 197.922 153.964C197.924 154.135 197.99 154.298 198.108 154.421C198.226 154.544 198.386 154.617 198.556 154.626C198.736 154.615 198.905 154.537 199.032 154.409C199.158 154.28 199.233 154.109 199.241 153.929C199.21 153.588 198.845 153.235 198.508 153.318" fill="#E0E0E0"/>
<path d="M194.488 158.102L194.865 156.774L210.359 161.233C210.359 161.233 211.005 161.74 210.795 162.235L194.488 158.102Z" fill="#6C6C6C"/>
<path d="M203.723 155.289C203.699 155.368 203.295 155.289 202.839 155.467C202.383 155.645 202.09 155.911 202.023 155.863C201.955 155.816 202.193 155.376 202.748 155.189C203.303 155.003 203.759 155.221 203.723 155.289Z" fill="#263238"/>
<path d="M205.257 156.442C205.257 156.521 204.861 156.572 204.524 156.838C204.187 157.103 204.001 157.452 203.922 157.428C203.843 157.405 203.922 156.933 204.354 156.604C204.786 156.275 205.273 156.362 205.257 156.442Z" fill="#263238"/>
<path d="M205.714 158.759C205.635 158.759 205.627 158.327 205.94 157.939C206.253 157.551 206.669 157.467 206.685 157.543C206.701 157.618 206.412 157.796 206.162 158.117C205.912 158.438 205.794 158.771 205.714 158.759Z" fill="#263238"/>
<path d="M204.061 153.307C204.009 153.37 203.664 153.168 203.213 153.085C202.761 153.001 202.368 153.057 202.345 152.978C202.321 152.898 202.741 152.692 203.268 152.799C203.795 152.906 204.116 153.251 204.061 153.307Z" fill="#263238"/>
<path d="M200.128 148.86L199.732 157.626C199.732 157.626 208.402 160.962 208.489 162.591L191.699 162.46L191.735 148.773L200.128 148.86Z" fill="#455A64"/>
<path d="M194.554 156.85C194.39 156.9 194.252 157.009 194.163 157.155C194.075 157.301 194.043 157.474 194.074 157.642C194.116 157.807 194.218 157.949 194.361 158.04C194.504 158.132 194.676 158.165 194.843 158.134C195.012 158.08 195.157 157.968 195.249 157.816C195.342 157.664 195.376 157.484 195.346 157.309C195.287 157.142 195.165 157.004 195.006 156.925C194.847 156.846 194.663 156.834 194.494 156.889" fill="#E0E0E0"/>
<path d="M191.691 162.461L191.747 161.082L207.84 161.724C207.84 161.724 208.585 162.061 208.498 162.596L191.691 162.461Z" fill="#6C6C6C"/>
<path d="M200.018 157.543C200.018 157.626 199.622 157.662 199.198 157.939C198.774 158.217 198.576 158.553 198.501 158.518C198.425 158.482 198.552 158.007 199.047 157.697C199.543 157.388 200.038 157.468 200.018 157.543Z" fill="#263238"/>
<path d="M201.776 158.295C201.776 158.374 201.435 158.513 201.154 158.866C200.872 159.218 200.789 159.587 200.71 159.579C200.631 159.571 200.579 159.107 200.936 158.68C201.292 158.252 201.772 158.216 201.776 158.295Z" fill="#263238"/>
<path d="M202.761 160.444C202.686 160.444 202.575 160.048 202.789 159.588C203.003 159.128 203.391 158.958 203.423 159.025C203.454 159.093 203.22 159.338 203.05 159.715C202.88 160.091 202.844 160.436 202.761 160.444Z" fill="#263238"/>
<path d="M199.888 155.534C199.852 155.609 199.492 155.494 199.012 155.534C198.533 155.574 198.188 155.708 198.144 155.637C198.101 155.566 198.453 155.269 199 155.241C199.547 155.213 199.943 155.471 199.888 155.534Z" fill="#263238"/>
<path d="M189.85 87.4922L189.728 91.6266L191.567 118.637C191.567 118.637 190.433 131.742 189.72 139.14C189.11 145.564 190.116 156.751 190.116 156.751H200.816L204.644 119.441L207.021 96.1719L211.143 85.5834L189.85 87.4922Z" fill="#263238"/>
<path d="M216.005 84.6914L217.039 112.847C216.968 118.129 215.513 127.993 213.623 132.918L205.028 151.801L204.533 153.501L198.141 151.936L202.892 85.1868L216.005 84.6914Z" fill="#263238"/>
<path d="M208.6 92.1488C208.605 92.2055 208.605 92.2625 208.6 92.3192C208.6 92.4381 208.6 92.6006 208.6 92.8106C208.6 93.2584 208.6 93.8964 208.6 94.7127C208.6 96.3652 208.6 98.7547 208.548 101.707C208.497 104.659 208.406 108.174 208.196 112.074C207.986 115.973 207.704 120.273 206.789 124.695C205.984 129.121 205.093 133.322 204.3 137.142C203.508 140.962 202.802 144.406 202.275 147.311C201.748 150.215 201.364 152.573 201.13 154.21C201.007 155.026 200.944 155.664 200.884 156.092C200.857 156.302 200.833 156.465 200.817 156.584C200.812 156.64 200.802 156.696 200.785 156.75C200.78 156.693 200.78 156.636 200.785 156.58C200.785 156.461 200.809 156.298 200.829 156.088C200.876 155.656 200.928 155.018 201.039 154.198C201.233 152.557 201.586 150.196 202.093 147.283C202.6 144.37 203.282 140.942 204.074 137.103C204.867 133.263 205.755 129.082 206.599 124.655C207.51 120.245 207.787 115.937 208.017 112.062C208.247 108.186 208.342 104.655 208.414 101.703C208.485 98.7508 208.513 96.3652 208.532 94.7127C208.532 93.8964 208.532 93.2584 208.532 92.8106C208.532 92.6006 208.532 92.4381 208.532 92.3192C208.551 92.2609 208.574 92.204 208.6 92.1488Z" fill="#455A64"/>
<path d="M222.074 77.4955C222.219 78.0228 222.272 78.5709 222.232 79.1163C222.153 79.9445 222.114 81.9893 219.902 82.6827C217.691 83.3762 215.603 81.7198 214.929 80.9708C214.255 80.2219 214.331 77.7689 214.331 77.7689L217.965 76.1521L222.074 77.4955Z" fill="#1AB06A"/>
<path d="M196.949 46.2966L195.11 49.2528L187.656 52.423L189.523 83.0196L189.849 88.654L216.174 87.1055L216.295 83.4476V62.8134C215.733 57.5192 213.177 54.2301 210.803 52.9263L209.253 51.8643L208.659 49.9186L206.472 47.8698L199.461 46.0509L196.949 46.2966Z" fill="#1AB06A"/>
<path d="M188.699 80.6937C189.499 81.9087 190.63 82.8688 191.959 83.4602C193.288 84.0516 194.759 84.2495 196.197 84.0303C198.689 83.6103 200.794 81.9657 203.183 81.1454C207.34 79.7109 212.084 80.8522 216.181 79.2552C216.26 78.5498 216.213 77.6701 216.26 77.2025C214.212 77.0955 212.028 76.9806 210.217 76.0137L208.573 75.4073L188.699 80.6937Z" fill="black"/>
<path d="M187.656 52.4263C187.656 52.4263 184.117 55.4538 185.144 63.3477C186.095 70.6788 187.783 80.8948 190.034 82.0797C192.285 83.2646 197.143 82.6702 200.698 80.6571C204.252 78.644 214.567 73.1912 214.567 73.1912L210.299 65.6065L196.553 70.9403C196.553 70.9403 194.773 58.7746 193.707 56.6744" fill="#1AB06A"/>
<path d="M193.71 56.6827C193.71 56.6827 193.75 56.758 193.817 56.9126C193.849 56.9918 193.896 57.0869 193.94 57.2058L194.074 57.6219C194.277 58.248 194.518 59.207 194.78 60.4236C195.311 62.8845 195.969 66.4668 196.627 70.9289L196.527 70.8694L210.266 65.5197L210.342 65.488L210.385 65.5593C211.733 67.9568 213.159 70.5049 214.653 73.1401L214.705 73.2313L214.606 73.2986L205.792 78.054L201.469 80.3801C200.76 80.7764 200.05 81.1727 199.317 81.4738C198.586 81.7868 197.836 82.0516 197.07 82.2664C195.579 82.6808 194.032 82.86 192.485 82.7974C191.73 82.768 190.985 82.6112 190.282 82.3337L190.025 82.2188C189.938 82.1725 189.855 82.1209 189.775 82.0643C189.63 81.9459 189.497 81.8131 189.379 81.668C189.154 81.3766 188.958 81.0633 188.796 80.7328C188.209 79.4602 187.748 78.1329 187.421 76.77C187.072 75.4504 186.799 74.1546 186.553 72.9023C186.066 70.3899 185.705 68.0361 185.404 65.8843C185.103 63.7325 184.837 61.7709 184.917 60.0392C184.957 58.5543 185.224 57.0843 185.709 55.6801C186.019 54.7948 186.458 53.9602 187.013 53.2034C187.157 53.0079 187.315 52.8225 187.484 52.6486C187.54 52.5881 187.601 52.5325 187.667 52.4822L187.496 52.6605C187.389 52.7833 187.231 52.9696 187.045 53.2272C186.512 53.9917 186.087 54.8266 185.784 55.7079C185.32 57.1058 185.07 58.5662 185.043 60.0392C184.976 61.759 185.249 63.7087 185.558 65.8605C185.868 68.0123 186.24 70.3582 186.747 72.8627C186.997 74.115 187.274 75.4068 187.623 76.7185C187.949 78.0737 188.408 79.3931 188.994 80.6575C189.152 80.9763 189.34 81.2789 189.557 81.561C189.667 81.6964 189.79 81.8199 189.925 81.9295C189.995 81.9799 190.067 82.025 190.143 82.0643L190.389 82.1752C191.072 82.4439 191.796 82.594 192.529 82.6191C194.051 82.6553 195.568 82.452 197.027 82.0167C197.783 81.8098 198.524 81.553 199.246 81.2479C199.971 80.9349 200.661 80.5426 201.374 80.1621L205.701 77.832L214.518 73.0767L214.479 73.2154L210.219 65.6544L210.334 65.6941L196.579 71.0081L196.496 71.0438V70.9487C195.838 66.4906 195.22 62.9003 194.716 60.4434C194.467 59.211 194.237 58.2639 194.051 57.6338C194.003 57.4753 193.964 57.3366 193.924 57.2137L193.813 56.9205C193.738 56.7659 193.71 56.6827 193.71 56.6827Z" fill="#263238"/>
<path d="M194.891 61.1769L203.819 60.5905L205.792 64.3036L195.786 66.1027L194.891 61.1769Z" fill="#1AB06A"/>
<path d="M194.895 61.1766C194.929 61.2938 194.957 61.4129 194.978 61.5332C195.025 61.7829 195.093 62.1118 195.176 62.5239C195.342 63.3918 195.572 64.6044 195.866 66.0904L195.774 66.027L204.782 64.3825L205.78 64.2042L205.705 64.3508C205.016 63.0431 204.35 61.7948 203.724 60.6377L203.815 60.6852L197.419 61.0577L195.564 61.1568H195.065H194.883C194.936 61.1523 194.989 61.1523 195.041 61.1568L195.517 61.1132L197.348 60.9666L203.803 60.495H203.866L203.894 60.5505L205.876 64.2596L205.943 64.3825L205.804 64.4102L204.81 64.5885L195.79 66.1737H195.715V66.0984C195.461 64.5846 195.251 63.3482 195.101 62.4645C195.033 62.0682 194.982 61.7314 194.942 61.4896C194.92 61.3863 194.905 61.2818 194.895 61.1766Z" fill="#263238"/>
<path d="M196.554 70.9403C196.61 70.9839 195.809 71.9231 195.143 73.2625C194.478 74.6019 194.192 75.8066 194.121 75.7868C194.132 75.5166 194.183 75.2496 194.272 74.9942C194.439 74.3654 194.669 73.7547 194.957 73.1713C195.248 72.5894 195.597 72.0384 195.999 71.5268C196.153 71.3042 196.341 71.1065 196.554 70.9403Z" fill="#263238"/>
<path d="M205.523 53.9284C205.347 53.8274 205.181 53.7093 205.028 53.5757L203.732 52.5454H203.843C203.343 53.354 202.748 54.1002 202.072 54.7685L202.008 54.8319L201.937 54.7724L200.57 53.6351C199.104 52.4463 197.733 51.4001 196.734 50.663L195.545 49.7873C195.394 49.6889 195.254 49.5761 195.125 49.4504C195.289 49.5262 195.446 49.6178 195.593 49.7239C195.886 49.9101 196.306 50.1875 196.817 50.5442C197.839 51.2535 199.226 52.2759 200.697 53.4766C201.176 53.8729 201.64 54.2692 202.064 54.6219H201.925C202.596 53.967 203.194 53.2415 203.708 52.4582L203.756 52.3829L203.819 52.4423L205.095 53.5083C205.248 53.6379 205.391 53.7783 205.523 53.9284Z" fill="#263238"/>
<path d="M209.192 52.0538C209.245 52.2134 209.269 52.3811 209.264 52.5491C209.29 52.9907 209.275 53.4338 209.22 53.8727L209.192 54.1065L209.058 53.9083C208.728 53.4328 208.374 52.9751 207.996 52.5372C207.837 52.351 207.675 52.1766 207.516 52.0102C207.443 51.9284 207.367 51.8504 207.286 51.7764C207.207 51.7249 207.219 51.7249 207.148 51.8001L206.49 52.7155C206.301 53.01 206.083 53.2848 205.84 53.5358C205.987 53.218 206.165 52.9154 206.371 52.6323L206.997 51.6852C207.016 51.6518 207.042 51.6231 207.074 51.6012C207.106 51.5793 207.142 51.5647 207.18 51.5587C207.218 51.5526 207.257 51.5551 207.294 51.566C207.331 51.577 207.365 51.596 207.393 51.6218C207.496 51.709 207.56 51.7803 207.647 51.8675C207.809 52.034 207.976 52.2123 208.138 52.4025C208.523 52.8458 208.875 53.3159 209.192 53.8093L209.026 53.8489C209.204 52.7829 209.149 52.0538 209.192 52.0538Z" fill="#263238"/>
<path d="M193.302 55.4658C193.098 55.2632 192.913 55.0431 192.747 54.8079C192.33 54.2678 191.837 53.7901 191.285 53.3893C190.715 53.0267 190.075 52.789 189.407 52.6918C189.121 52.6683 188.838 52.6246 188.559 52.561C188.846 52.5119 189.139 52.5119 189.426 52.561C190.135 52.6321 190.815 52.8757 191.408 53.2704C191.98 53.6806 192.476 54.1875 192.874 54.7683C193.048 54.9797 193.193 55.2145 193.302 55.4658Z" fill="#263238"/>
<path d="M212.697 60.9587C212.397 60.3505 212.161 59.7131 211.992 59.0566C211.755 58.4149 211.584 57.7511 211.48 57.0752C211.781 57.6848 212.019 58.3234 212.19 58.9813C212.425 59.6216 212.595 60.2841 212.697 60.9587Z" fill="#263238"/>
<path d="M216.207 78.4495C216.264 78.7097 216.291 78.9757 216.286 79.242C216.318 79.7255 216.373 80.3912 216.405 81.1323C216.441 81.7677 216.427 82.4049 216.365 83.0383C216.358 83.3108 216.3 83.5794 216.195 83.8309C216.182 83.5665 216.19 83.3015 216.219 83.0383C216.219 82.5549 216.219 81.8892 216.219 81.1521C216.219 80.415 216.155 79.7453 216.163 79.2579C216.134 78.9878 216.148 78.7147 216.207 78.4495Z" fill="#263238"/>
<path d="M200.011 63.7874C199.928 63.8749 199.881 63.9905 199.879 64.1111C199.877 64.2318 199.921 64.3486 200.002 64.4383C200.083 64.528 200.194 64.584 200.314 64.5951C200.434 64.6062 200.554 64.5716 200.65 64.4982C200.746 64.4248 200.81 64.318 200.831 64.1991C200.851 64.0801 200.826 63.9579 200.761 63.8567C200.695 63.7554 200.593 63.6827 200.477 63.653C200.36 63.6232 200.236 63.6387 200.13 63.6962" fill="#E0E0E0"/>
<path d="M194.301 58.5009L196.805 65.9192L205.06 64.4371L197.102 67.5558L196.433 70.1276L194.301 58.5009Z" fill="black"/>
<path d="M195.34 49.5815L202.719 56.2588L203.86 53.1362L205.049 53.5324L203.769 52.4704C203.769 52.4704 202.366 54.6262 201.993 54.6658L195.34 49.5815Z" fill="black"/>
<path d="M209.401 65.5749C209.335 65.4318 209.284 65.2816 209.251 65.1271C209.16 64.7943 209.041 64.3782 208.902 63.8868C208.609 62.8406 208.185 61.4021 207.666 59.8249C207.147 58.2478 206.624 56.8449 206.235 55.8265C206.057 55.351 205.902 54.9507 205.779 54.6377C205.714 54.4926 205.664 54.3412 205.629 54.1859C205.719 54.3171 205.793 54.458 205.851 54.606C205.982 54.8794 206.16 55.2836 206.374 55.7948C206.794 56.7974 207.337 58.2042 207.86 59.7813C208.383 61.3585 208.787 62.8129 209.049 63.8709C209.18 64.398 209.275 64.8299 209.334 65.1271C209.374 65.2732 209.397 65.4235 209.401 65.5749Z" fill="#263238"/>
<path d="M209.295 57.3365C210.69 58.7274 214.225 62.3573 214.225 62.3573L215.172 61.7867L210.191 56.4686C210.091 56.363 209.957 56.2957 209.812 56.2784C209.667 56.261 209.521 56.2947 209.399 56.3735C209.32 56.4238 209.255 56.4909 209.206 56.57C209.157 56.649 209.127 56.738 209.117 56.8304C209.107 56.9227 209.118 57.0161 209.149 57.1037C209.18 57.1912 209.23 57.2708 209.295 57.3365Z" fill="#263238"/>
<path d="M210.301 65.6067L211.49 62.2621C211.611 61.8987 211.84 61.5809 212.146 61.3515C212.453 61.122 212.823 60.9917 213.205 60.9782C213.265 60.9723 213.325 60.9723 213.384 60.9782C214.097 61.0575 217.743 61.2952 217.743 61.2952L219.15 62.8803C219.264 63.0133 219.326 63.1827 219.326 63.3578C219.326 63.533 219.264 63.7024 219.15 63.8354L219.546 66.6767L218.753 67.2196L218.833 69.201C218.833 69.201 218.119 69.6765 217.806 69.518L217.489 69.3595L217.014 68.8839L215.67 70.7821L213.812 71.856L210.301 65.6067Z" fill="#FFBE9D"/>
<path d="M219.154 63.982C218.995 63.7871 218.824 63.6019 218.643 63.4272C218.44 63.2591 218.211 63.1253 217.965 63.0309C217.643 62.9549 217.313 62.9098 216.982 62.8962C216.11 62.848 215.242 62.7328 214.387 62.5514C215.261 62.5266 216.136 62.5729 217.002 62.6901C217.349 62.7046 217.694 62.7591 218.029 62.8526C218.296 62.9634 218.538 63.1264 218.742 63.3321C218.944 63.4999 219.088 63.7274 219.154 63.982Z" fill="#EB996E"/>
<path d="M219.078 66.5979C218.997 66.3484 218.899 66.1047 218.784 65.8688C218.463 65.327 217.969 64.9085 217.382 64.68C216.785 64.4684 216.156 64.3624 215.523 64.3669C215.259 64.3853 214.993 64.3773 214.73 64.3431C214.986 64.2575 215.254 64.2173 215.523 64.2242C216.181 64.1722 216.842 64.2628 217.461 64.4897C218.09 64.7299 218.608 65.1924 218.919 65.7895C219.062 66.0332 219.118 66.3183 219.078 66.5979Z" fill="#EB996E"/>
<path d="M218.718 69.0391C218.584 68.7972 218.518 68.5231 218.528 68.2465C218.513 67.9666 218.452 67.691 218.35 67.4302C218.279 67.2827 218.174 67.1543 218.044 67.0557C217.914 66.9571 217.762 66.8912 217.601 66.8635C216.978 66.7293 216.346 66.638 215.711 66.5901C215.437 66.5822 215.168 66.5203 214.918 66.4078C215.183 66.4038 215.447 66.4171 215.711 66.4474C216.361 66.4513 217.009 66.5243 217.644 66.6654C217.837 66.7117 218.019 66.7952 218.179 66.9111C218.327 67.0277 218.442 67.1806 218.512 67.3549C218.614 67.6367 218.664 67.9349 218.659 68.2346C218.675 68.7379 218.742 69.0272 218.718 69.0391Z" fill="#EB996E"/>
<path d="M220.696 62.7576L205.027 78.9415L205.63 79.5518L216.856 78.2877L231.962 63.8949L231.946 63.2054L220.696 62.7576Z" fill="#455A64"/>
<path d="M221.707 72.9262C221.403 72.6495 221.045 72.4393 220.655 72.309C220.266 72.1787 219.853 72.1311 219.444 72.1693C218.623 72.2548 217.846 72.5832 217.213 73.1124C216.679 73.5044 216.289 74.0615 216.103 74.6976C215.842 75.819 216.587 76.992 217.601 77.5349L217.74 77.3724L221.6 74.2735C221.81 74.1403 221.968 73.9388 222.048 73.7029C222.059 73.5554 222.033 73.4075 221.974 73.2721C221.915 73.1366 221.823 73.0179 221.707 72.9262Z" fill="black"/>
<path d="M220.056 71.4126C220.056 71.4126 221.574 71.4443 222.069 71.69C222.565 71.9357 223.928 73.39 223.928 73.39C223.928 73.39 223.928 74.3768 223.532 74.4164C223.578 74.6368 223.605 74.8609 223.611 75.0861C223.651 75.6409 223.73 75.9579 222.977 76.4295C222.977 76.4295 223.056 77.3409 222.779 77.5747C222.592 77.7333 222.395 77.8789 222.188 78.0106C222.188 78.0106 221.321 79.0766 220.805 78.9973C220.29 78.9181 219.549 79.5521 219.549 79.5521C219.549 79.5521 216.775 78.395 217.053 78.0661L218.02 76.9961C218.02 76.9961 216.106 75.6012 216.145 75.1653C216.185 74.7294 216.343 74.6938 216.343 74.6938C216.343 74.6938 216.264 73.8616 216.934 73.7823C216.934 73.7823 217.449 72.756 217.96 72.7163C218.471 72.6767 221.951 73.9408 221.951 73.9408L220.647 72.8352C220.647 72.8352 219.343 72.6371 219.383 72.2052C219.422 71.7732 220.056 71.4126 220.056 71.4126Z" fill="#FFBE9D"/>
<path d="M219.824 76.6187C219.792 76.6663 219.031 76.2224 218.064 75.7628C217.46 75.5109 216.87 75.2265 216.297 74.9108C216.946 75.033 217.572 75.2577 218.151 75.5765C218.762 75.8301 219.327 76.1822 219.824 76.6187Z" fill="#EB996E"/>
<path d="M221.638 75.4067C220.862 75.2299 220.104 74.9845 219.371 74.6736C218.613 74.4286 217.879 74.117 217.176 73.7423C217.951 73.9265 218.709 74.1757 219.442 74.4873C220.199 74.7315 220.933 75.0391 221.638 75.4067Z" fill="#EB996E"/>
<path d="M231.902 63.8671C231.833 63.873 231.764 63.873 231.696 63.8671H231.098L228.851 63.8393L221.04 63.6888L221.111 63.661L217.184 67.7506C214.014 71.0199 211.141 73.9722 209.045 76.1319L206.56 78.6522L205.886 79.3259C205.809 79.4076 205.726 79.4831 205.637 79.5517C205.704 79.4602 205.778 79.3741 205.859 79.2942L206.512 78.5888L208.95 76.0209L217.046 67.6L220.981 63.5382L221.008 63.5065H221.052L228.863 63.7324L231.105 63.8156L231.704 63.8433C231.771 63.842 231.837 63.85 231.902 63.8671Z" fill="#263238"/>
<path d="M197.757 40.075C197.197 38.5595 196.766 36.9992 196.469 35.4108C196.176 33.8162 196.285 32.1736 196.786 30.6317C196.866 30.3979 197.579 28.8484 197.817 28.8722C197.991 28.8722 197.563 30.3266 197.654 30.4771C198.468 31.9478 198.818 33.6306 198.657 35.3038C198.532 36.9171 198.231 38.5118 197.757 40.0591" fill="#263238"/>
<path d="M206.927 50.6833V46.8473C206.927 46.8473 210.834 46.3956 211.033 42.516C211.132 40.6416 211.033 36.766 210.87 33.2629C210.795 31.4455 210.038 29.7231 208.75 28.4387C207.462 27.1543 205.737 26.4022 203.919 26.332H203.547C199.501 26.4073 197.306 29.8985 197.496 33.9326V47.0732L205.485 52.8271L206.927 50.6833Z" fill="#FFBE9D"/>
<path d="M206.942 46.8473C205.151 46.7747 203.418 46.1903 201.949 45.1631C201.949 45.1631 203.071 48.0361 206.958 47.838L206.942 46.8473Z" fill="#EB996E"/>
<path d="M209.617 36.5791C209.613 36.7241 209.552 36.8618 209.448 36.9626C209.344 37.0633 209.204 37.1191 209.059 37.118C208.988 37.1212 208.918 37.1102 208.851 37.0856C208.785 37.0611 208.725 37.0235 208.673 36.9751C208.622 36.9266 208.581 36.8684 208.552 36.8038C208.524 36.7392 208.509 36.6695 208.508 36.5989C208.509 36.4531 208.567 36.3136 208.67 36.2106C208.773 36.1075 208.913 36.0491 209.059 36.0481C209.131 36.0437 209.203 36.0543 209.271 36.079C209.339 36.1038 209.401 36.1423 209.453 36.1921C209.506 36.2419 209.547 36.302 209.576 36.3686C209.604 36.4351 209.618 36.5068 209.617 36.5791Z" fill="#263238"/>
<path d="M209.993 34.8595C209.922 34.9269 209.514 34.6019 208.915 34.5782C208.317 34.5544 207.869 34.8397 207.81 34.7644C207.75 34.6891 207.853 34.6019 208.051 34.4712C208.315 34.3016 208.626 34.2185 208.939 34.2334C209.249 34.2442 209.548 34.3539 209.791 34.5465C209.969 34.6733 210.029 34.808 209.993 34.8595Z" fill="#263238"/>
<path d="M204.27 36.6741C204.266 36.8185 204.205 36.9555 204.102 37.0562C203.998 37.1568 203.859 37.2131 203.715 37.213C203.644 37.2157 203.573 37.2042 203.507 37.1792C203.44 37.1543 203.38 37.1164 203.328 37.0677C203.276 37.019 203.235 36.9605 203.206 36.8957C203.177 36.8308 203.162 36.7609 203.16 36.6899C203.165 36.5452 203.226 36.4081 203.331 36.3076C203.435 36.2071 203.574 36.1509 203.719 36.151C203.79 36.1484 203.86 36.1599 203.926 36.1849C203.993 36.2099 204.053 36.2479 204.104 36.2966C204.156 36.3453 204.197 36.4038 204.225 36.4687C204.254 36.5335 204.269 36.6033 204.27 36.6741Z" fill="#263238"/>
<path d="M204.139 34.8593C204.068 34.9306 203.66 34.6017 203.061 34.5819C202.463 34.5621 202.019 34.8395 201.956 34.7642C201.892 34.6889 201.999 34.6017 202.197 34.4709C202.462 34.3023 202.772 34.2193 203.085 34.2332C203.396 34.2458 203.695 34.3553 203.941 34.5462C204.115 34.6889 204.175 34.8197 204.139 34.8593Z" fill="#263238"/>
<path d="M206.102 39.5195C206.42 39.4317 206.747 39.3851 207.077 39.3808C207.228 39.3808 207.374 39.3491 207.406 39.2461C207.423 39.0889 207.393 38.9302 207.319 38.7904C207.192 38.4152 207.06 38.019 206.922 37.6015C206.364 35.9253 205.963 34.5502 206.031 34.5264C206.098 34.5027 206.609 35.846 207.168 37.5223C207.303 37.9186 207.434 38.3148 207.564 38.7111C207.653 38.8991 207.674 39.1118 207.624 39.3135C207.599 39.3662 207.562 39.4127 207.517 39.4497C207.472 39.4867 207.419 39.5133 207.362 39.5275C207.276 39.5463 207.189 39.5543 207.101 39.5512C206.768 39.5812 206.433 39.5706 206.102 39.5195Z" fill="#263238"/>
<path d="M204.331 39.8643C204.426 39.8643 204.402 40.5102 204.937 40.9897C205.472 41.4692 206.165 41.4256 206.169 41.5168C206.173 41.6079 206.011 41.6357 205.718 41.6317C205.339 41.6264 204.975 41.4858 204.691 41.2354C204.418 40.9941 204.249 40.6559 204.22 40.2923C204.208 40.0109 204.303 39.8564 204.331 39.8643Z" fill="#263238"/>
<path d="M204.41 32.8027C204.347 32.9612 203.753 32.8622 203.051 32.9176C202.35 32.9731 201.775 33.1435 201.688 32.9969C201.648 32.9256 201.751 32.775 201.985 32.6284C202.296 32.4443 202.647 32.3369 203.008 32.3153C203.367 32.2844 203.729 32.3415 204.062 32.4817C204.299 32.5927 204.438 32.7274 204.41 32.8027Z" fill="#263238"/>
<path d="M209.821 32.8467C209.71 32.9775 209.305 32.8229 208.81 32.7952C208.315 32.7675 207.895 32.8507 207.804 32.7041C207.764 32.6367 207.835 32.502 208.025 32.3831C208.275 32.2338 208.564 32.1672 208.854 32.1929C209.142 32.2099 209.419 32.315 209.646 32.494C209.817 32.6407 209.868 32.7833 209.821 32.8467Z" fill="#263238"/>
<path d="M197.71 36.8051C197.646 36.7734 195.075 35.9095 195.055 38.5686C195.035 41.2276 197.706 40.6966 197.714 40.6213C197.722 40.546 197.71 36.8051 197.71 36.8051Z" fill="#FFBE9D"/>
<path d="M196.91 39.6153C196.91 39.6153 196.862 39.647 196.783 39.6826C196.728 39.7058 196.67 39.7178 196.61 39.7178C196.551 39.7178 196.492 39.7058 196.438 39.6826C196.266 39.5736 196.127 39.4204 196.035 39.2391C195.943 39.0579 195.902 38.8552 195.915 38.6523C195.91 38.4245 195.956 38.1984 196.05 37.9905C196.075 37.9081 196.12 37.8331 196.181 37.7717C196.242 37.7103 196.316 37.6644 196.398 37.6378C196.452 37.6244 196.509 37.6301 196.559 37.654C196.608 37.6779 196.649 37.7184 196.672 37.7686C196.707 37.8399 196.672 37.8954 196.703 37.8994C196.735 37.9033 196.763 37.8558 196.739 37.7448C196.726 37.6787 196.69 37.6195 196.636 37.5784C196.564 37.5231 196.473 37.4976 196.382 37.5071C196.274 37.5269 196.173 37.5736 196.088 37.6428C196.003 37.7121 195.936 37.8017 195.895 37.9033C195.78 38.1332 195.723 38.3875 195.729 38.6444C195.715 38.8811 195.771 39.1166 195.89 39.3217C196.009 39.5267 196.186 39.6922 196.398 39.7975C196.47 39.8175 196.545 39.8218 196.618 39.8101C196.691 39.7985 196.761 39.7712 196.822 39.7302C196.902 39.6707 196.917 39.6153 196.91 39.6153Z" fill="#EB996E"/>
<path d="M209.155 28.8629C209.587 28.6251 208.296 27.2342 207.237 26.7547C205.652 26.0335 203.199 25.5896 201.725 26.0097C199.954 26.5169 198.484 27.4006 197.596 29.0174C196.741 30.6616 196.338 32.5041 196.431 34.3553C196.416 34.9212 196.553 35.4809 196.827 35.9761C197.2 36.5625 197.913 36.9311 197.881 37.7434C197.868 38.0335 197.968 38.3175 198.159 38.536C198.646 39.0551 199.241 38.5677 199.514 38.0803C200.097 37.0381 200.16 35.7938 200.208 34.601C200.288 33.7559 200.231 32.9033 200.037 32.0767C199.906 31.6328 199.696 31.2168 199.589 30.765C199.524 30.5433 199.506 30.31 199.538 30.081C199.571 29.852 199.651 29.6326 199.776 29.4375C199.842 29.3589 199.915 29.286 199.994 29.2195C200.363 28.9032 200.809 28.6895 201.286 28.5998C201.764 28.5101 202.257 28.5475 202.716 28.7083C204.214 29.2354 206.77 30.02 207.436 29.5009C207.909 29.1904 208.314 28.7857 208.624 28.312L209.155 28.8629Z" fill="#263238"/>
<path d="M203.091 85.2723C203.091 85.3318 200.127 85.3754 196.469 85.3754C192.812 85.3754 189.848 85.3318 189.848 85.2723C189.848 85.2129 192.812 85.1693 196.469 85.1693C200.127 85.1693 203.091 85.2367 203.091 85.2723Z" fill="#263238"/>
<path d="M192.677 103.019C192.618 103.019 192.574 100.622 192.574 97.6658C192.574 94.7095 192.618 92.3081 192.677 92.3081C192.737 92.3081 192.78 94.7056 192.78 97.6658C192.78 100.626 192.733 103.019 192.677 103.019Z" fill="#263238"/>
<path d="M198.755 102.984C198.7 102.984 198.652 100.606 198.652 97.6814C198.652 94.7569 198.7 92.3752 198.755 92.3752C198.811 92.3752 198.858 94.7529 198.858 97.6814C198.858 100.61 198.811 102.984 198.755 102.984Z" fill="#263238"/>
<path d="M211.766 88.7924C211.502 87.2305 211.481 85.6372 211.703 84.0687C211.764 84.8597 211.783 85.6534 211.758 86.4464C211.803 87.2277 211.806 88.0108 211.766 88.7924Z" fill="#263238"/>
<path d="M265.728 162.134C265.728 161.966 206.448 161.821 133.335 161.821C60.2219 161.821 0.929688 161.966 0.929688 162.134C0.929688 162.302 60.1942 162.446 133.331 162.446C206.468 162.446 265.728 162.314 265.728 162.134Z" fill="#263238"/>
<path d="M189.738 86.7179H216.205V89.0407H189.812L189.738 86.7179Z" fill="#30444F"/>
<defs>
<linearGradient id="paint0_linear_1065_2451" x1="138.823" y1="3.89612" x2="138.823" y2="158.849" gradientUnits="userSpaceOnUse">
<stop stop-color="#24C76F"/>
<stop offset="0.932292" stop-color="#03795F"/>
</linearGradient>
</defs>
</svg>
