<svg width="1440" height="1648" viewBox="0 0 1440 1648" fill="none" xmlns="http://www.w3.org/2000/svg">
<path d="M0 248L50.1211 271.246C152.868 318.9 274.409 297.699 354.953 218.072C433.303 140.614 550.721 118.241 652.065 161.461L874.79 256.447C951.159 289.016 1037.61 288.481 1113.57 254.97L1172.73 228.871C1233.52 202.051 1301.49 196.172 1365.99 212.156L1440 230.5V1648H0V248Z" fill="#F9F9F9"/>
<path d="M1003.73 153.303C1066.88 141.88 1109.94 126.22 1111.93 145.486C1113.91 164.751 1031.36 256.256 964.867 255.127C898.377 253.997 787.736 158.721 845.97 140.968C904.204 123.215 940.572 164.725 1003.73 153.303Z" fill="#FAEC57"/>
<path opacity="0.299" d="M1014.11 140.965C1077.26 129.543 1120.33 113.882 1122.31 133.148C1124.3 152.413 1041.74 243.919 975.25 242.789C908.76 241.659 798.119 146.383 856.353 128.63C914.587 110.877 950.955 152.387 1014.11 140.965Z" fill="#FAEC57"/>
<path d="M216.612 254.923C180.942 276.298 66.5255 229.757 70.6685 151.579C74.8114 73.4016 164.426 173.267 205.9 166.228C247.374 159.189 279.237 131.888 290.448 150.533C301.658 169.179 252.282 233.548 216.612 254.923Z" fill="#52379D"/>
<path opacity="0.299" d="M220.987 264.742C185.317 286.116 70.9005 239.575 75.0435 161.398C79.1864 83.2199 168.801 183.085 210.275 176.046C251.749 169.007 283.612 141.706 294.823 160.352C306.033 178.997 256.657 243.367 220.987 264.742Z" fill="#52379D"/>
</svg>
