<svg width="320" height="723" viewBox="0 0 320 723" fill="none" xmlns="http://www.w3.org/2000/svg">
<path d="M182.927 50.5546C275.677 97.4848 312.923 42.5439 336.136 29.0012L337.731 355.696L-14.986 357.042C-32.0011 285.168 -16.5851 99.7967 -16.5851 99.7967L-38.3118 64.3872C-38.3118 64.3872 -32.2174 60.9449 -25.289 61.9571C-17.1386 63.1478 0.51164 32.6902 25.3512 61.9334C50.1907 91.1766 74.6021 87.9432 101.912 73.8668C129.221 59.7904 160.063 38.9854 182.927 50.5546Z" fill="#52379D"/>
<path d="M129.548 653.577C23.8038 593.06 -12.7086 687.181 -39.1731 704.642L-41 283.385L361.13 281.663C380.531 374.342 362.96 613.368 362.96 613.368L387.731 659.028C387.731 659.028 380.783 663.466 372.884 662.161C363.592 660.625 343.47 699.898 315.149 662.189C286.829 624.481 278.874 622.114 247.739 640.263C216.603 658.413 153.802 665.961 129.548 653.577Z" fill="#52379D"/>
<path d="M153.8 34.346C140.247 36.3249 131.065 39.1999 130.493 35.4588C129.922 31.7177 147.071 14.2904 161.437 14.7565C175.802 15.2226 200.399 34.0989 187.956 37.323C175.513 40.5472 167.352 32.3671 153.8 34.346Z" fill="#FAEC57"/>
<path opacity="0.299" d="M152.765 36.2684C139.212 38.2474 130.03 41.1224 129.458 37.3813C128.887 33.6402 146.036 16.2128 160.402 16.679C174.767 17.1451 199.364 36.0214 186.921 39.2455C174.478 42.4696 166.317 34.2896 152.765 36.2684Z" fill="#FAEC57"/>
<path d="M71.2742 70.9983C64.0675 72.967 45.8714 61.4844 49.9439 49.5516C54.0164 37.6188 65.5578 56.4174 73.1755 56.8827C80.7933 57.348 87.5815 54.3203 88.7623 57.6233C89.9431 60.9263 78.4807 69.0295 71.2742 70.9983Z" fill="#52379D"/>
<path opacity="0.299" d="M71.6272 72.6804C64.4205 74.6491 46.2244 63.1665 50.2969 51.2337C54.3694 39.3009 65.9108 58.0995 73.5286 58.5648C81.1463 59.0301 87.9345 56.0024 89.1153 59.3054C90.2961 62.6084 78.8338 70.7116 71.6272 72.6804Z" fill="#52379D"/>
<path d="M266.448 46.6004C279.706 43.9529 288.791 40.8534 289.093 43.997C289.394 47.1406 271.616 63.1925 257.735 63.8167C243.855 64.4408 221.306 50.1221 233.572 46.4937C245.839 42.8652 253.191 49.2478 266.448 46.6004Z" fill="#FAEC57"/>
<path opacity="0.299" d="M266.59 44.2131C279.847 41.5656 288.933 38.4661 289.234 41.6097C289.536 44.7533 271.757 60.8052 257.876 61.4293C243.996 62.0534 221.447 47.7348 233.714 44.1063C245.98 40.4779 253.332 46.8605 266.59 44.2131Z" fill="#FAEC57"/>
<path d="M165.265 685.875C176.529 683.448 183.814 680.25 185.152 684.02C186.491 687.79 175.608 705.971 163.089 705.948C150.571 705.925 125.055 687.583 135.079 683.929C145.103 680.276 154.001 688.303 165.265 685.875Z" fill="#FAEC57"/>
<path opacity="0.299" d="M171.728 683.9C182.992 681.473 190.278 678.275 191.616 682.044C192.954 685.814 182.071 703.995 169.553 703.973C157.034 703.95 131.518 685.608 141.542 681.954C151.566 678.301 160.464 686.327 171.728 683.9Z" fill="#FAEC57"/>
<path d="M265.779 657.477C273.613 653.302 297.597 661.451 295.934 676.103C294.27 690.755 276.117 672.504 267.185 674.025C258.253 675.545 251.173 680.811 248.963 677.377C246.754 673.942 257.945 661.652 265.779 657.477Z" fill="#52379D"/>
<path opacity="0.299" d="M264.942 655.683C272.777 651.507 296.761 659.657 295.097 674.309C293.434 688.961 275.28 670.71 266.348 672.231C257.417 673.751 250.337 679.017 248.127 675.583C245.917 672.148 257.108 659.858 264.942 655.683Z" fill="#52379D"/>
<path d="M48.5652 674.609C36.2322 676.725 27.8512 679.496 27.3926 676.253C26.9339 673.01 42.7779 657.33 55.81 657.321C68.8421 657.312 90.8664 673.047 79.5204 676.216C68.1745 679.384 60.8982 672.493 48.5652 674.609Z" fill="#FAEC57"/>
<path opacity="0.299" d="M46.5749 676.721C34.2418 678.837 25.8609 681.607 25.4022 678.365C24.9435 675.122 40.7876 659.442 53.8196 659.433C66.8517 659.424 88.876 675.159 77.5301 678.328C66.1842 681.496 58.9078 674.605 46.5749 676.721Z" fill="#FAEC57"/>
</svg>
