<svg width="196" height="425" viewBox="0 0 196 425" fill="none" xmlns="http://www.w3.org/2000/svg">
<path d="M21.2281 325.198C37.9373 319.56 47.8536 312.516 52.0614 320.316C56.2692 328.117 48.7975 366.616 28.737 367.203C8.67652 367.791 -42.232 330.801 -28.1798 322.667C-14.1275 314.533 4.51902 330.835 21.2281 325.198Z" fill="#FFEA17"/>
<path opacity="0.299" d="M22.0094 320.014C38.7186 314.377 48.6348 307.332 52.8426 315.133C57.0504 322.933 49.5787 361.432 29.5182 362.02C9.45778 362.607 -41.4508 325.617 -27.3985 317.484C-13.3462 309.35 5.30027 325.652 22.0094 320.014Z" fill="#FFEA17"/>
<path d="M52.2507 194.088C92.2421 222.151 124.233 232.74 113.717 254.928C103.2 277.116 4.98536 323.571 -29.2257 279.743C-63.4367 235.915 -64.3343 61.5816 -23.1272 79.6185C18.0798 97.6554 12.2599 166.026 52.2507 194.088Z" fill="#52379D"/>
<path opacity="0.299" d="M65.0944 187.334C105.086 215.396 137.077 225.985 126.561 248.173C116.044 270.361 17.8291 316.817 -16.3819 272.989C-50.5929 229.161 -51.4906 54.827 -10.2835 72.8638C30.9236 90.9007 25.1037 159.271 65.0944 187.334Z" fill="#52379D"/>
</svg>
