<svg xmlns="http://www.w3.org/2000/svg" width="134" height="200" viewBox="0 0 134 200" fill="none">
<path d="M111.019 148.672C100.275 160.791 49.5688 170.647 40.1336 150.159C30.6983 129.67 79.3631 137.936 94.3689 128.336C109.375 118.736 117.813 105.842 124.769 108.427C131.725 111.012 121.763 136.554 111.019 148.672Z" fill="#52379D"/>
<path opacity="0.299" d="M109.128 157.723C98.3846 169.842 47.6782 179.698 38.2429 159.21C28.8077 138.721 77.4725 146.987 92.4783 137.387C107.484 127.787 115.922 114.893 122.879 117.478C129.835 120.063 119.872 145.605 109.128 157.723Z" fill="#52379D"/>
<path d="M35.7689 100.351C64.4469 91.3728 85.0294 91.9291 83.3676 74.9979C81.7057 58.0667 34.2172 4.83721 5.74293 25.4506C-22.7313 46.064 -57.9153 159.603 -30.5289 157.45C-3.14239 155.297 7.09134 109.329 35.7689 100.351Z" fill="#FAEC57"/>
<path opacity="0.299" d="M43.0346 104.62C71.7125 95.6421 92.2951 96.1984 90.6332 79.2672C88.9713 62.336 41.4828 9.10651 13.0086 29.7199C-15.4657 50.3333 -50.6497 163.872 -23.2632 161.719C4.12324 159.566 14.357 113.599 43.0346 104.62Z" fill="#FAEC57"/>
</svg>
