<svg width="432" height="411" viewBox="0 0 432 411" fill="none" xmlns="http://www.w3.org/2000/svg">
<circle cx="221.172" cy="211" r="199.5" stroke="#9974FF" stroke-dasharray="15 15"/>
<path d="M336.04 188.147C337.021 193.104 337.688 198.174 338.022 203.334L337.523 203.366C337.686 205.89 337.769 208.435 337.769 211C337.769 213.565 337.686 216.11 337.523 218.633L338.022 218.666C337.688 223.826 337.021 228.896 336.04 233.853L335.549 233.755C334.553 238.792 333.232 243.712 331.61 248.492L332.083 248.653C330.431 253.521 328.468 258.245 326.217 262.801L325.768 262.58C323.506 267.158 320.952 271.567 318.13 275.782L318.546 276.06C315.698 280.314 312.578 284.371 309.212 288.207L308.836 287.877C305.479 291.702 301.876 295.306 298.051 298.663L298.38 299.038C294.545 302.405 290.488 305.524 286.233 308.372L285.955 307.957C281.741 310.779 277.332 313.333 272.753 315.595L272.975 316.043C268.418 318.294 263.694 320.258 258.826 321.91L258.666 321.437C253.885 323.059 248.965 324.38 243.929 325.376L244.026 325.866C239.069 326.847 234 327.515 228.839 327.848L228.807 327.349C226.284 327.512 223.738 327.595 221.173 327.595C218.609 327.595 216.063 327.512 213.54 327.349L213.508 327.848C208.347 327.515 203.278 326.847 198.321 325.866L198.418 325.376C193.382 324.38 188.462 323.059 183.681 321.437L183.521 321.91C178.653 320.258 173.929 318.294 169.372 316.043L169.594 315.595C165.015 313.333 160.606 310.779 156.392 307.957L156.113 308.372C151.859 305.524 147.802 302.405 143.967 299.038L144.296 298.663C140.471 295.306 136.868 291.702 133.511 287.877L133.135 288.207C129.769 284.371 126.649 280.314 123.801 276.06L124.217 275.782C121.395 271.567 118.841 267.158 116.579 262.58L116.13 262.801C113.879 258.245 111.915 253.521 110.263 248.653L110.737 248.492C109.114 243.712 107.794 238.792 106.797 233.755L106.307 233.853C105.326 228.896 104.659 223.826 104.325 218.666L104.824 218.633C104.661 216.11 104.578 213.565 104.578 211C104.578 208.435 104.661 205.89 104.824 203.367L104.325 203.334C104.659 198.174 105.326 193.104 106.307 188.147L106.797 188.244C107.794 183.208 109.114 178.288 110.737 173.508L110.263 173.347C111.915 168.479 113.879 163.755 116.13 159.199L116.579 159.42C118.841 154.842 121.395 150.433 124.217 146.218L123.801 145.94C126.649 141.686 129.769 137.628 133.135 133.793L133.511 134.123C136.868 130.298 140.471 126.694 144.296 123.337L143.967 122.962C147.802 119.595 151.859 116.476 156.113 113.628L156.392 114.043C160.606 111.221 165.015 108.667 169.594 106.405L169.372 105.957C173.929 103.706 178.653 101.742 183.521 100.09L183.681 100.563C188.462 98.941 193.381 97.6203 198.418 96.624L198.321 96.1335C203.278 95.1528 208.347 94.4851 213.508 94.1516L213.54 94.6505C216.063 94.4875 218.609 94.4047 221.173 94.4047C223.738 94.4047 226.284 94.4875 228.807 94.6505L228.839 94.1516C234 94.4851 239.069 95.1528 244.026 96.1335L243.929 96.624C248.965 97.6203 253.885 98.941 258.666 100.563L258.826 100.09C263.694 101.742 268.418 103.706 272.975 105.957L272.753 106.405C277.332 108.667 281.741 111.221 285.955 114.043L286.233 113.628C290.488 116.476 294.545 119.595 298.38 122.961L298.051 123.337C301.876 126.694 305.479 130.298 308.836 134.123L309.212 133.793C312.578 137.628 315.698 141.686 318.546 145.94L318.13 146.218C320.952 150.433 323.506 154.842 325.768 159.42L326.217 159.199C328.468 163.755 330.431 168.479 332.083 173.347L331.61 173.508C333.232 178.288 334.553 183.208 335.549 188.244L336.04 188.147Z" stroke="#9974FF" stroke-dasharray="15 15"/>
<circle cx="21.1722" cy="211.302" r="21.18" fill="#52379D"/>
<circle cx="220.992" cy="327" r="10" fill="#52379D"/>
<circle cx="105.992" cy="211" r="35" fill="#52379D"/>
<circle cx="104.078" cy="375.902" r="21.18" fill="#FAEC57"/>
<circle cx="362.477" cy="75.1452" r="21.18" fill="#52379D"/>
<circle cx="396.992" cy="306" r="35" fill="#FAEC57"/>
<mask id="mask0_1114_1252" style="mask-type:alpha" maskUnits="userSpaceOnUse" x="361" y="271" width="71" height="70">
<circle cx="396.992" cy="306" r="35" fill="#C4C4C4"/>
</mask>
<g mask="url(#mask0_1114_1252)">
</g>
<circle cx="220.992" cy="94" r="10" fill="#FAEC57"/>
<mask id="mask1_1114_1252" style="mask-type:alpha" maskUnits="userSpaceOnUse" x="210" y="84" width="21" height="20">
<circle cx="220.992" cy="94" r="10" fill="#C4C4C4"/>
</mask>
<g mask="url(#mask1_1114_1252)">
</g>
<circle cx="122.992" cy="40" r="40" fill="#52379D"/>
<g filter="url(#filter0_d_1114_1252)">
<path fill-rule="evenodd" clip-rule="evenodd" d="M212.095 241.969C213.333 243.263 214.813 244.286 216.445 244.979C218.077 245.671 219.829 246.018 221.594 245.999C223.356 246.024 225.104 245.681 226.731 244.988C228.359 244.295 229.831 243.268 231.059 241.969C231.699 241.309 232.174 240.499 232.443 239.61C232.713 238.72 232.769 237.777 232.607 236.86C231.963 233.238 230.767 226.667 229.7 220.534C228.247 212.503 233.967 204.826 242.752 202.985C249.41 201.612 254.48 196.766 255.642 190.72C255.771 190.02 255.901 189.377 255.998 188.822C256.044 188.562 256.021 188.294 255.93 188.047C255.84 187.8 255.684 187.582 255.482 187.419C255.266 187.243 255.015 187.119 254.747 187.053C254.478 186.988 254.199 186.984 253.929 187.041C251.994 187.478 249.279 188.064 247.049 188.558C245.831 188.789 244.678 189.294 243.673 190.037C242.668 190.78 241.834 191.742 241.233 192.854C240.927 193.433 240.474 193.915 239.922 194.249C239.37 194.584 238.739 194.757 238.099 194.752C237.454 194.786 236.812 194.649 236.234 194.352C235.657 194.055 235.164 193.609 234.804 193.058C234.674 192.825 234.514 192.591 234.417 192.388C234.042 191.794 233.829 191.107 233.803 190.399C233.706 188.91 233.578 186.102 233.48 184.209C233.424 182.837 233.701 181.471 234.287 180.236C234.387 180.048 234.474 179.854 234.546 179.653C234.727 179.275 234.775 178.844 234.681 178.434C234.586 178.023 234.356 177.66 234.028 177.406C234.028 177.375 233.997 177.348 233.965 177.319C232.923 176.47 231.633 176.006 230.303 176C228.973 175.994 227.68 176.448 226.631 177.288C226.204 177.619 225.907 178.095 225.794 178.632C225.682 179.168 225.761 179.729 226.017 180.21C226.025 180.217 226.032 180.225 226.038 180.235C226.043 180.244 226.047 180.255 226.048 180.266C226.655 181.394 226.977 182.66 226.986 183.948C227.018 185.525 227.018 187.772 227.018 189.438C227.005 190.168 226.83 190.884 226.506 191.532C226.181 192.181 225.716 192.744 225.146 193.178C224.106 193.958 222.852 194.38 221.564 194.385C220.276 194.39 219.02 193.978 217.974 193.206C217.874 193.148 217.809 193.061 217.712 193.003C217.337 192.722 217.027 192.358 216.804 191.939C216.58 191.52 216.45 191.054 216.421 190.578C216.356 188.884 216.226 186.11 216.164 184.213C216.114 182.879 216.415 181.557 217.035 180.385C217.1 180.268 217.165 180.18 217.23 180.067C217.461 179.637 217.535 179.137 217.44 178.657C217.345 178.176 217.087 177.745 216.711 177.441C215.711 176.613 214.472 176.147 213.188 176.115C211.903 176.083 210.644 176.487 209.605 177.264C209.605 177.293 209.574 177.293 209.539 177.324C209.184 177.576 208.928 177.948 208.816 178.375C208.704 178.803 208.743 179.257 208.926 179.658C209.088 180.067 209.314 180.505 209.477 180.914C209.868 181.774 210.076 182.71 210.088 183.659V188.8C210.08 190.263 209.616 191.684 208.765 192.857C208.327 193.419 207.766 193.868 207.128 194.167C206.49 194.466 205.793 194.607 205.093 194.579C204.393 194.551 203.708 194.354 203.096 194.004C202.483 193.654 201.959 193.161 201.566 192.565C200.913 191.494 200.05 190.575 199.032 189.866C198.013 189.157 196.862 188.674 195.652 188.449C193.52 188.01 190.936 187.484 189.061 187.076C188.79 187.031 188.512 187.044 188.246 187.115C187.98 187.185 187.73 187.311 187.513 187.484C187.309 187.644 187.154 187.862 187.068 188.111C186.983 188.36 186.969 188.629 187.029 188.885C187.124 189.353 187.223 189.907 187.351 190.493C188.612 196.392 193.427 201.15 199.823 202.786C200.144 202.874 200.435 202.962 200.759 203.049C209.288 205.24 214.65 212.802 213.325 220.718C212.325 226.818 211.192 233.447 210.612 237.069C210.47 237.944 210.531 238.842 210.788 239.689C211.046 240.536 211.494 241.309 212.096 241.945L212.095 241.969Z" fill="#52379D"/>
<path fill-rule="evenodd" clip-rule="evenodd" d="M235.489 231.37C235.489 231.37 229.351 219.776 233.486 217.878C234.539 217.463 235.69 217.391 236.783 217.674C238.818 218.111 241.079 216.359 241.788 214.666C241.531 215.675 241.059 216.614 240.405 217.412C239.751 218.21 238.933 218.849 238.009 219.281C234.911 220.681 242.891 225.091 235.489 231.37Z" fill="#52379D"/>
<path fill-rule="evenodd" clip-rule="evenodd" d="M207.261 231.37C207.261 231.37 213.399 219.777 209.264 217.878C208.212 217.463 207.061 217.392 205.968 217.675C203.933 218.112 201.672 216.36 200.961 214.666C201.218 215.676 201.691 216.614 202.345 217.412C202.999 218.21 203.817 218.848 204.741 219.281C207.842 220.681 199.862 225.091 207.261 231.37Z" fill="#52379D"/>
<path d="M237.473 215.124C234.955 215.745 232.517 214.895 232.028 213.228C231.538 211.56 233.182 209.702 235.7 209.082C238.218 208.462 240.657 209.309 241.147 210.977C241.637 212.645 239.991 214.502 237.473 215.124Z" fill="#52379D"/>
<path d="M207.041 209.08C209.559 209.701 211.204 211.551 210.714 213.223C210.223 214.894 207.785 215.742 205.268 215.122C202.75 214.501 201.105 212.647 201.593 210.978C202.081 209.31 204.522 208.462 207.041 209.08Z" fill="#52379D"/>
<path fill-rule="evenodd" clip-rule="evenodd" d="M232.329 213.605C232.329 213.605 230.525 211.278 235.213 209.037C236.362 208.489 237.629 208.257 238.887 208.363C241.073 208.669 243.285 208.765 245.493 208.649C243.267 209.399 240.966 209.887 238.636 210.104C237.59 210.186 236.567 210.468 235.62 210.935C234.342 211.564 233.217 212.477 232.329 213.605V213.605Z" fill="#52379D"/>
<path fill-rule="evenodd" clip-rule="evenodd" d="M210.424 213.609C210.424 213.609 212.233 211.282 207.54 209.039C206.391 208.492 205.124 208.259 203.866 208.366C201.68 208.672 199.469 208.768 197.26 208.653C199.487 209.403 201.788 209.891 204.117 210.108C205.163 210.19 206.186 210.472 207.134 210.939C208.412 211.567 209.536 212.48 210.424 213.609Z" fill="#52379D"/>
<path fill-rule="evenodd" clip-rule="evenodd" d="M224.864 241.472C225.457 240.616 225.955 239.695 226.351 238.726C226.682 237.807 226.931 236.86 227.095 235.895C226.511 236.679 225.863 237.411 225.159 238.083C224.466 238.72 223.708 239.278 222.898 239.748C222.775 239.858 222.677 239.994 222.611 240.146C222.545 240.299 222.513 240.464 222.516 240.631C222.519 240.798 222.557 240.962 222.628 241.112C222.7 241.262 222.803 241.394 222.929 241.499C223.201 241.734 223.546 241.861 223.902 241.856C224.257 241.851 224.599 241.715 224.864 241.472Z" fill="white"/>
<path fill-rule="evenodd" clip-rule="evenodd" d="M219.967 239.632C219.13 239.298 218.363 238.803 217.707 238.173C217.037 237.481 216.442 236.716 215.931 235.892C216.022 237.091 216.306 238.266 216.77 239.371C217.139 240.2 217.654 240.953 218.289 241.59C218.584 241.796 218.94 241.889 219.295 241.85C219.65 241.812 219.98 241.646 220.227 241.382C220.336 241.255 220.416 241.106 220.462 240.944C220.509 240.782 220.52 240.611 220.495 240.444C220.47 240.277 220.41 240.118 220.319 239.978C220.228 239.837 220.108 239.719 219.967 239.632Z" fill="white"/>
</g>
<circle cx="337.992" cy="208" r="35" fill="#52379D"/>
<path d="M351.804 204.884C351.804 204.833 351.804 204.787 351.773 204.736C350.997 200.936 347.274 198.335 343.477 199.15C343.318 199.185 343.155 199.228 342.992 199.274C341.096 199.837 339.482 201.093 338.469 202.791C337.457 201.093 335.842 199.837 333.947 199.274C333.784 199.228 333.621 199.185 333.461 199.15C329.665 198.335 325.961 200.936 325.165 204.736C325.165 204.787 325.146 204.833 325.134 204.884C324.043 210.656 329.307 217.722 338.469 222C347.631 217.722 352.895 210.656 351.804 204.884Z" fill="white"/>
<path d="M95.218 209.226H92.6373C92.2825 209.226 91.9922 209.516 91.9922 209.871C91.9922 210.226 92.2825 210.516 92.6373 210.516H95.218C95.5728 210.516 95.8631 210.226 95.8631 209.871C95.8631 209.516 95.5728 209.226 95.218 209.226Z" fill="white"/>
<path d="M119.093 209.226H116.512C116.158 209.226 115.867 209.516 115.867 209.871C115.867 210.226 116.158 210.516 116.512 210.516H119.093C119.448 210.516 119.738 210.226 119.738 209.871C119.738 209.516 119.448 209.226 119.093 209.226Z" fill="white"/>
<path d="M105.864 199.871C106.219 199.871 106.509 199.581 106.509 199.226V196.645C106.509 196.29 106.219 196 105.864 196C105.509 196 105.219 196.29 105.219 196.645V199.226C105.219 199.581 105.509 199.871 105.864 199.871Z" fill="white"/>
<path d="M97.8994 202.806C98.0285 202.935 98.1897 202.999 98.351 202.999C98.5123 202.999 98.6736 202.935 98.8026 202.806C99.0607 202.548 99.0607 202.161 98.8026 201.902L96.964 200.064C96.7059 199.806 96.3188 199.806 96.0607 200.064C95.8027 200.322 95.8027 200.709 96.0607 200.967L97.8994 202.806Z" fill="white"/>
<path d="M113.831 216.936C113.573 216.677 113.186 216.677 112.928 216.936C112.67 217.194 112.67 217.581 112.928 217.839L114.767 219.677C114.896 219.806 115.057 219.871 115.218 219.871C115.38 219.871 115.541 219.806 115.67 219.677C115.928 219.419 115.928 219.032 115.67 218.774L113.831 216.936Z" fill="white"/>
<path d="M114.767 200.064L112.928 201.902C112.67 202.161 112.67 202.548 112.928 202.806C113.057 202.935 113.218 202.999 113.38 202.999C113.541 202.999 113.702 202.935 113.831 202.806L115.67 200.967C115.928 200.709 115.928 200.322 115.67 200.064C115.412 199.806 115.025 199.806 114.767 200.064Z" fill="white"/>
<path d="M98.8026 216.935C98.5446 216.677 98.1575 216.677 97.8994 216.935L96.0607 218.774C95.8027 219.032 95.8027 219.419 96.0607 219.677C96.1898 219.806 96.3511 219.871 96.5123 219.871C96.6736 219.871 96.8349 219.806 96.964 219.677L98.8026 217.839C99.0607 217.613 99.0607 217.194 98.8026 216.935Z" fill="white"/>
<path d="M110.701 220.838V220.516H101.023V220.838V222.774H110.701V220.838Z" fill="white"/>
<path d="M99.8094 216.162C100.584 216.903 101.035 217.936 101.035 218.968V219.226H110.713V219C110.713 217.936 111.132 216.936 111.874 216.258C113.68 214.581 114.745 212.194 114.745 209.742C114.745 207.291 113.713 204.936 111.938 203.291C110.132 201.581 107.777 200.742 105.293 200.904C100.874 201.194 97.2288 204.871 97.003 209.291C96.874 211.839 97.9062 214.387 99.8094 216.162Z" fill="white"/>
<path d="M108.776 225.355C108.776 224.645 109.357 224.064 110.067 224.064H101.68C102.389 224.064 102.97 224.645 102.97 225.355V226H108.776V225.355Z" fill="white"/>
<path fill-rule="evenodd" clip-rule="evenodd" d="M397.16 314.085V298.914C395.206 299 393.359 299.836 392.006 301.249C390.653 302.663 389.898 304.544 389.898 306.5C389.898 308.456 390.653 310.337 392.006 311.751C393.359 313.164 395.206 314 397.16 314.085ZM397.16 293V296.992C394.695 297.077 392.36 298.117 390.647 299.89C388.933 301.664 387.976 304.034 387.976 306.5C387.976 308.966 388.933 311.336 390.647 313.11C392.36 314.883 394.695 315.922 397.16 316.008V320H395.383C395.324 320.001 395.266 319.982 395.219 319.945C395.173 319.908 395.14 319.856 395.128 319.798L394.56 317.341C394.549 317.281 394.522 317.225 394.481 317.18C394.44 317.134 394.387 317.101 394.329 317.084C393.61 316.87 392.914 316.583 392.254 316.226C392.202 316.196 392.143 316.18 392.083 316.181C392.022 316.182 391.963 316.199 391.912 316.231L389.762 317.574C389.712 317.607 389.652 317.621 389.593 317.614C389.534 317.607 389.479 317.58 389.438 317.537L386.454 314.555C386.411 314.513 386.384 314.458 386.377 314.399C386.371 314.34 386.385 314.28 386.417 314.23L387.761 312.08C387.792 312.031 387.809 311.974 387.811 311.915C387.813 311.857 387.799 311.799 387.772 311.748C387.412 311.085 387.123 310.386 386.908 309.663C386.892 309.607 386.86 309.556 386.817 309.516C386.775 309.476 386.722 309.448 386.665 309.435L384.194 308.865C384.136 308.853 384.084 308.82 384.047 308.774C384.01 308.727 383.991 308.669 383.992 308.61V304.391C383.991 304.332 384.01 304.274 384.047 304.227C384.084 304.18 384.136 304.148 384.194 304.136L386.651 303.568C386.711 303.557 386.767 303.529 386.812 303.489C386.858 303.448 386.891 303.395 386.909 303.336C387.122 302.617 387.41 301.922 387.767 301.262C387.797 301.21 387.813 301.151 387.812 301.09C387.811 301.03 387.793 300.971 387.761 300.92L386.418 298.77C386.385 298.72 386.371 298.66 386.378 298.601C386.385 298.542 386.412 298.487 386.455 298.445L389.438 295.463C389.479 295.42 389.534 295.393 389.593 295.386C389.652 295.379 389.712 295.393 389.762 295.426L391.913 296.769C391.962 296.8 392.019 296.817 392.077 296.819C392.135 296.821 392.193 296.807 392.244 296.78C392.907 296.421 393.606 296.131 394.329 295.917C394.385 295.9 394.436 295.868 394.476 295.826C394.516 295.783 394.544 295.73 394.557 295.673L395.127 293.202C395.14 293.144 395.172 293.092 395.219 293.056C395.265 293.019 395.323 292.999 395.382 293.001L397.16 293ZM402.129 316.481C401.753 316.563 401.421 316.781 401.196 317.093C400.971 317.405 400.869 317.79 400.91 318.172C400.951 318.555 401.133 318.909 401.419 319.166C401.705 319.423 402.076 319.565 402.461 319.565C402.846 319.565 403.217 319.423 403.504 319.166C403.79 318.909 403.971 318.555 404.012 318.172C404.053 317.79 403.952 317.405 403.727 317.093C403.502 316.781 403.169 316.563 402.793 316.481V314.978C402.793 314.744 402.7 314.519 402.534 314.353C402.368 314.187 402.143 314.093 401.908 314.093H397.824C397.828 314.222 397.8 314.351 397.742 314.467C397.684 314.582 397.598 314.682 397.492 314.757H401.908C401.967 314.757 402.023 314.78 402.065 314.822C402.106 314.863 402.129 314.92 402.13 314.978L402.129 316.481ZM405.249 314.073C405.051 313.875 404.91 313.627 404.841 313.355C404.771 313.083 404.776 312.798 404.855 312.529C404.934 312.26 405.084 312.017 405.29 311.826C405.495 311.635 405.748 311.503 406.022 311.443V309.725C406.021 309.667 405.998 309.611 405.956 309.569C405.915 309.528 405.859 309.504 405.8 309.504H397.824V308.84H405.8C406.035 308.84 406.26 308.934 406.426 309.1C406.592 309.266 406.685 309.491 406.686 309.725V311.443C406.923 311.495 407.145 311.601 407.333 311.753C407.522 311.905 407.673 312.1 407.774 312.32C407.875 312.541 407.923 312.782 407.914 313.025C407.905 313.267 407.84 313.504 407.724 313.717C407.608 313.93 407.443 314.113 407.244 314.251C407.045 314.39 406.816 314.48 406.576 314.514C406.336 314.549 406.091 314.527 405.861 314.45C405.63 314.374 405.421 314.245 405.249 314.073ZM397.824 312.142H402.326C402.371 312.143 402.415 312.136 402.457 312.12C402.498 312.104 402.536 312.079 402.568 312.048C402.6 312.017 402.625 311.98 402.642 311.94C402.66 311.899 402.668 311.855 402.668 311.81C402.668 311.766 402.66 311.722 402.642 311.681C402.625 311.64 402.6 311.603 402.568 311.572C402.536 311.541 402.498 311.517 402.457 311.501C402.415 311.484 402.371 311.477 402.326 311.478H397.824V312.142ZM407.02 306.832C407.103 307.287 407.353 307.695 407.721 307.974C408.089 308.254 408.548 308.387 409.009 308.345C409.469 308.303 409.898 308.091 410.21 307.75C410.522 307.408 410.695 306.962 410.695 306.5C410.695 306.038 410.522 305.592 410.21 305.25C409.898 304.909 409.469 304.697 409.009 304.655C408.548 304.613 408.089 304.746 407.721 305.025C407.353 305.305 407.103 305.713 407.02 306.168H397.824V306.832H407.02ZM406.426 303.9C406.509 303.818 406.574 303.721 406.619 303.613C406.663 303.506 406.686 303.391 406.686 303.275V301.557C407.062 301.475 407.395 301.257 407.62 300.945C407.845 300.633 407.946 300.248 407.905 299.866C407.864 299.483 407.683 299.129 407.396 298.872C407.11 298.615 406.739 298.473 406.354 298.473C405.969 298.473 405.598 298.615 405.312 298.872C405.025 299.129 404.844 299.483 404.803 299.866C404.762 300.248 404.864 300.633 405.089 300.945C405.314 301.257 405.646 301.475 406.022 301.557V303.275C406.022 303.333 405.998 303.389 405.957 303.431C405.915 303.472 405.859 303.496 405.801 303.496H397.824V304.16H405.8C405.917 304.16 406.032 304.137 406.139 304.092C406.246 304.048 406.344 303.983 406.426 303.9ZM402.326 301.522H397.824V300.858H402.326C402.371 300.857 402.415 300.864 402.457 300.88C402.498 300.896 402.536 300.921 402.568 300.952C402.6 300.982 402.625 301.02 402.642 301.06C402.66 301.101 402.668 301.145 402.668 301.19C402.668 301.234 402.66 301.278 402.642 301.319C402.625 301.36 402.6 301.397 402.568 301.428C402.536 301.459 402.498 301.483 402.457 301.499C402.415 301.516 402.371 301.523 402.326 301.522ZM401.908 298.907H397.824C397.717 298.509 397.606 298.287 397.492 298.243H401.908C401.967 298.243 402.023 298.219 402.065 298.178C402.106 298.137 402.129 298.08 402.13 298.022V296.519C401.754 296.437 401.421 296.219 401.196 295.907C400.971 295.595 400.869 295.21 400.911 294.828C400.952 294.445 401.133 294.091 401.419 293.834C401.705 293.577 402.077 293.435 402.462 293.435C402.846 293.435 403.218 293.577 403.504 293.834C403.79 294.091 403.971 294.445 404.013 294.828C404.054 295.21 403.952 295.595 403.727 295.907C403.502 296.219 403.17 296.437 402.794 296.519V298.022C402.793 298.256 402.7 298.481 402.534 298.647C402.368 298.813 402.143 298.907 401.908 298.907Z" fill="#52379D"/>
<path d="M138.221 52.75H136.451V33.2708C136.451 32.8012 136.264 32.3508 135.932 32.0187C135.6 31.6866 135.149 31.5 134.68 31.5H128.659V24.7708C128.659 24.3012 128.472 23.8508 128.14 23.5187C127.808 23.1866 127.358 23 126.888 23H110.596C110.127 23 109.676 23.1866 109.344 23.5187C109.012 23.8508 108.826 24.3012 108.826 24.7708V52.75H107.763C107.293 52.75 106.843 52.9366 106.511 53.2687C106.179 53.6008 105.992 54.0512 105.992 54.5208V55.2292C105.992 55.4617 106.038 55.692 106.127 55.9068C106.216 56.1217 106.346 56.3169 106.511 56.4813C106.675 56.6458 106.871 56.7762 107.085 56.8652C107.3 56.9542 107.53 57 107.763 57H138.221C138.454 57 138.684 56.9542 138.899 56.8652C139.114 56.7762 139.309 56.6458 139.474 56.4813C139.638 56.3169 139.768 56.1217 139.857 55.9068C139.946 55.692 139.992 55.4617 139.992 55.2292V54.5208C139.992 54.2883 139.946 54.058 139.857 53.8432C139.768 53.6283 139.638 53.4331 139.474 53.2687C139.309 53.1042 139.114 52.9738 138.899 52.8848C138.684 52.7958 138.454 52.75 138.221 52.75ZM121.576 26.8958C121.576 26.8019 121.613 26.7118 121.679 26.6454C121.746 26.579 121.836 26.5417 121.93 26.5417H124.055C124.149 26.5417 124.239 26.579 124.305 26.6454C124.372 26.7118 124.409 26.8019 124.409 26.8958V29.0208C124.409 29.1148 124.372 29.2048 124.305 29.2713C124.239 29.3377 124.149 29.375 124.055 29.375H121.93C121.836 29.375 121.746 29.3377 121.679 29.2713C121.613 29.2048 121.576 29.1148 121.576 29.0208V26.8958ZM121.576 33.2708C121.576 32.989 121.687 32.7188 121.887 32.5195C122.086 32.3203 122.356 32.2083 122.638 32.2083H134.68C134.961 32.2083 135.232 32.3203 135.431 32.5195C135.63 32.7188 135.742 32.989 135.742 33.2708V52.75H131.492V49.2083C131.492 48.4569 131.194 47.7362 130.662 47.2049C130.131 46.6735 129.41 46.375 128.659 46.375C127.907 46.375 127.187 46.6735 126.655 47.2049C126.124 47.7362 125.826 48.4569 125.826 49.2083V52.75H121.576V33.2708ZM113.076 26.8958C113.076 26.8019 113.113 26.7118 113.179 26.6454C113.246 26.579 113.336 26.5417 113.43 26.5417H115.555C115.649 26.5417 115.739 26.579 115.805 26.6454C115.872 26.7118 115.909 26.8019 115.909 26.8958V29.0208C115.909 29.1148 115.872 29.2048 115.805 29.2713C115.739 29.3377 115.649 29.375 115.555 29.375H113.43C113.336 29.375 113.246 29.3377 113.179 29.2713C113.113 29.2048 113.076 29.1148 113.076 29.0208V26.8958ZM113.076 33.9792C113.076 33.8852 113.113 33.7952 113.179 33.7287C113.246 33.6623 113.336 33.625 113.43 33.625H115.555C115.649 33.625 115.739 33.6623 115.805 33.7287C115.872 33.7952 115.909 33.8852 115.909 33.9792V36.1042C115.909 36.1981 115.872 36.2882 115.805 36.3546C115.739 36.421 115.649 36.4583 115.555 36.4583H113.43C113.336 36.4583 113.246 36.421 113.179 36.3546C113.113 36.2882 113.076 36.1981 113.076 36.1042V33.9792ZM113.076 41.0625C113.076 40.9686 113.113 40.8785 113.179 40.8121C113.246 40.7456 113.336 40.7083 113.43 40.7083H115.555C115.649 40.7083 115.739 40.7456 115.805 40.8121C115.872 40.8785 115.909 40.9686 115.909 41.0625V43.1875C115.909 43.2814 115.872 43.3715 115.805 43.4379C115.739 43.5044 115.649 43.5417 115.555 43.5417H113.43C113.336 43.5417 113.246 43.5044 113.179 43.4379C113.113 43.3715 113.076 43.2814 113.076 43.1875V41.0625ZM113.076 48.1458C113.076 48.0519 113.113 47.9618 113.179 47.8954C113.246 47.829 113.336 47.7917 113.43 47.7917H115.555C115.649 47.7917 115.739 47.829 115.805 47.8954C115.872 47.9618 115.909 48.0519 115.909 48.1458V50.2708C115.909 50.3648 115.872 50.4548 115.805 50.5213C115.739 50.5877 115.649 50.625 115.555 50.625H113.43C113.336 50.625 113.246 50.5877 113.179 50.5213C113.113 50.4548 113.076 50.3648 113.076 50.2708V48.1458ZM139.284 55.2292C139.284 55.511 139.172 55.7812 138.973 55.9805C138.773 56.1797 138.503 56.2917 138.221 56.2917H107.763C107.481 56.2917 107.211 56.1797 107.012 55.9805C106.812 55.7812 106.701 55.511 106.701 55.2292V54.5208C106.701 54.239 106.812 53.9688 107.012 53.7695C107.211 53.5703 107.481 53.4583 107.763 53.4583H138.221C138.503 53.4583 138.773 53.5703 138.973 53.7695C139.172 53.9688 139.284 54.239 139.284 54.5208V55.2292Z" fill="white"/>
<path d="M126.18 34.3331H124.055C123.468 34.3331 122.992 34.8088 122.992 35.3956V37.5206C122.992 38.1074 123.468 38.5831 124.055 38.5831H126.18C126.766 38.5831 127.242 38.1074 127.242 37.5206V35.3956C127.242 34.8088 126.766 34.3331 126.18 34.3331Z" fill="white"/>
<path d="M126.18 40.7081H124.055C123.468 40.7081 122.992 41.1838 122.992 41.7706V43.8956C122.992 44.4824 123.468 44.9581 124.055 44.9581H126.18C126.766 44.9581 127.242 44.4824 127.242 43.8956V41.7706C127.242 41.1838 126.766 40.7081 126.18 40.7081Z" fill="white"/>
<path d="M133.258 34.3331H131.133C130.546 34.3331 130.07 34.8088 130.07 35.3956V37.5206C130.07 38.1074 130.546 38.5831 131.133 38.5831H133.258C133.845 38.5831 134.32 38.1074 134.32 37.5206V35.3956C134.32 34.8088 133.845 34.3331 133.258 34.3331Z" fill="white"/>
<path d="M133.258 40.7081H131.133C130.546 40.7081 130.07 41.1838 130.07 41.7706V43.8956C130.07 44.4824 130.546 44.9581 131.133 44.9581H133.258C133.845 44.9581 134.32 44.4824 134.32 43.8956V41.7706C134.32 41.1838 133.845 40.7081 133.258 40.7081Z" fill="white"/>
<path d="M352.212 79.6062C352.776 80.0615 353.404 80.4328 354.074 80.7085C353.655 81.7943 353.478 84.0794 353.793 84.9287C353.903 84.9659 354.019 84.9859 354.136 84.9878C354.236 85.0041 354.338 85.0041 354.438 84.9878C354.874 84.2616 355.12 82.2201 354.978 81.0231C355.506 81.178 356.045 81.2934 356.591 81.3685C357.04 81.4332 357.493 81.4735 357.946 81.4892C358.183 81.4892 358.42 81.4892 358.656 81.4892L359.016 81.4726L359.198 81.4584L359.434 81.4276C359.908 81.3357 360.341 81.0998 360.675 80.7521C361.009 80.4045 361.228 79.9621 361.301 79.4855C361.327 79.3237 361.335 79.1594 361.324 78.9959C361.321 78.9165 361.312 78.8375 361.298 78.7593L361.275 78.6387C361.275 78.5665 361.281 78.4944 361.294 78.4234C361.309 78.3254 361.33 78.2283 361.355 78.1324C361.382 78.033 361.413 77.9351 361.45 77.8391L361.511 77.6688L361.526 77.6262L361.556 77.5245C361.574 77.4539 361.585 77.3819 361.589 77.3092C361.597 77.1633 361.575 77.0174 361.526 76.8798C361.477 76.7422 361.401 76.6156 361.303 76.5073C361.202 76.3956 361.079 76.3062 360.941 76.2447C360.907 76.2291 360.873 76.2157 360.837 76.2045L360.766 76.1832L360.691 76.1595C360.493 76.0993 360.302 76.0201 360.12 75.923C359.79 75.7667 359.514 75.5155 359.328 75.2015C359.286 75.1259 359.252 75.0467 359.224 74.9649V74.9271H359.238C359.368 74.9437 359.501 74.9508 359.631 74.9602C359.891 74.9744 360.151 74.9791 360.409 74.972C360.667 74.9649 360.922 74.946 361.178 74.9176C361.439 74.8888 361.699 74.8453 361.956 74.7875C362.088 74.7555 362.205 74.6813 362.291 74.5762C362.376 74.4712 362.425 74.341 362.429 74.2056L362.484 72.5308C362.847 72.427 363.191 72.2674 363.506 72.0577C363.621 71.9789 363.731 71.8919 363.834 71.7975C363.896 71.742 363.954 71.6819 364.007 71.6177C364.063 71.5499 364.113 71.4771 364.156 71.4C364.282 71.1769 364.35 70.9257 364.354 70.6694C364.358 70.4132 364.297 70.1601 364.177 69.9334C364.095 69.7872 363.988 69.6566 363.86 69.5478C363.762 69.4611 363.658 69.382 363.548 69.3113C363.451 69.2521 363.39 69.2024 363.312 69.1504C363.024 68.9554 362.765 68.7222 362.54 68.4573C362.137 67.9814 361.86 67.4121 361.734 66.8014C361.677 66.5347 361.647 66.2628 361.646 65.99C361.646 65.7014 361.63 65.427 361.601 65.1739C361.589 65.058 361.429 64.9823 361.251 65.0036C361.074 65.0249 360.972 65.1053 360.97 65.1999C360.97 65.4365 360.944 65.6872 360.915 65.9593C360.879 66.2831 360.879 66.61 360.915 66.9339C361.006 67.7059 361.299 68.4404 361.764 69.0629C362.024 69.4155 362.331 69.7301 362.678 69.9973C362.763 70.0635 362.862 70.1416 362.938 70.1936C363.001 70.2378 363.061 70.2869 363.118 70.3403C363.149 70.3681 363.173 70.4019 363.191 70.4396C363.209 70.4819 363.22 70.5265 363.224 70.5721C363.233 70.6651 363.211 70.7585 363.16 70.837C363.149 70.8558 363.135 70.8733 363.12 70.8891C363.101 70.9095 363.08 70.9285 363.058 70.9459C362.993 71.0003 362.925 71.0501 362.853 71.0949C362.524 71.2853 362.162 71.4091 361.786 71.4592C361.653 71.481 361.532 71.5472 361.442 71.6469C361.352 71.7466 361.299 71.874 361.291 72.008V72.0246L361.201 73.6331L361.022 73.6592C360.804 73.6804 360.582 73.6923 360.362 73.697C360.142 73.7017 359.917 73.697 359.697 73.6781C359.586 73.6781 359.475 73.6615 359.366 73.645L359.177 73.6237C359.009 73.6068 358.841 73.6258 358.681 73.6793C358.522 73.7328 358.376 73.8196 358.253 73.934C358.13 74.0483 358.032 74.1876 357.967 74.3426C357.902 74.4975 357.871 74.6645 357.875 74.8325C357.876 74.8983 357.883 74.964 357.894 75.0288C357.894 75.0856 357.913 75.1116 357.923 75.1542C357.932 75.1968 357.965 75.3079 357.989 75.3907C358.041 75.5404 358.106 75.6852 358.183 75.8236C358.493 76.3633 358.958 76.7976 359.517 77.0703C359.752 77.1931 359.997 77.2944 360.251 77.3731L360.236 77.4133C360.139 77.6798 360.07 77.9557 360.031 78.2365C360.005 78.4039 359.997 78.5737 360.009 78.7427V78.783C359.995 78.7144 360.028 78.8894 360.026 78.8705V78.8989L360.038 78.9556C360.045 78.9931 360.05 79.031 360.052 79.0692C360.062 79.1477 360.062 79.2272 360.052 79.3057C360.024 79.5324 359.927 79.745 359.773 79.9143C359.62 80.0837 359.418 80.2016 359.195 80.252L359.084 80.2709L358.926 80.2874L358.604 80.3111C358.391 80.3253 358.176 80.33 357.965 80.3324C357.55 80.3344 357.135 80.3155 356.721 80.2756C355.958 80.2105 355.204 80.0573 354.476 79.8191C353.13 79.3625 352.082 78.6103 351.567 77.8888C351.51 77.8083 351.33 77.8131 351.174 77.903C351.018 77.9929 350.959 78.1253 351.011 78.2247C351.315 78.7607 351.724 79.2304 352.212 79.6062Z" fill="white"/>
<path d="M365.161 75.0427C365.05 75.0762 364.944 75.1247 364.846 75.187C364.755 75.2317 364.668 75.2856 364.588 75.3479C364.56 75.5324 364.567 75.7524 364.553 75.9866C364.535 76.4801 364.412 76.9641 364.191 77.4059C364.091 77.6188 363.978 77.8104 363.914 77.9878C363.96 78.0925 364.016 78.1923 364.082 78.2859C364.129 78.3728 364.188 78.4525 364.257 78.5225C364.564 78.4813 364.849 78.3409 365.068 78.1227C365.378 77.8306 365.598 77.4574 365.706 77.0458C365.813 76.6342 365.802 76.2007 365.674 75.795C365.59 75.4946 365.41 75.2303 365.161 75.0427Z" fill="white"/>
<path d="M366.787 79.1282C366.518 79.6013 366.229 79.9893 366.047 80.2826C366.085 80.3902 366.146 80.4885 366.224 80.5712C366.326 80.6942 366.418 80.7817 366.44 80.7723C366.93 80.5429 367.362 80.2048 367.703 79.7835C368.18 79.2117 368.524 78.5413 368.71 77.8206C368.897 77.0998 368.921 76.3467 368.781 75.6154C368.688 75.0808 368.475 74.5744 368.157 74.1345C368.039 74.1369 367.924 74.1686 367.821 74.2268C367.723 74.2574 367.632 74.3091 367.556 74.3782C367.573 74.7212 367.644 75.1967 367.648 75.7431C367.658 76.3335 367.591 76.9227 367.45 77.496C367.3 78.0663 367.077 78.6149 366.787 79.1282Z" fill="white"/>
<path d="M370.544 73.4366C370.661 74.1279 370.74 74.8252 370.78 75.5254C370.81 76.4508 370.711 77.3759 370.487 78.2742C370.249 79.1698 369.887 80.028 369.413 80.8242C369.043 81.4201 368.64 81.9951 368.207 82.5463C368.185 82.5747 368.266 82.7119 368.384 82.8468C368.502 82.9816 368.59 83.0455 368.621 83.0266C369.291 82.6212 369.877 82.0913 370.347 81.4653C371.001 80.6136 371.477 79.6387 371.744 78.5988C372.012 77.559 372.067 76.4758 371.906 75.4142C371.798 74.6381 371.543 73.8898 371.154 73.2095C371.135 73.1764 370.979 73.2095 370.809 73.271C370.638 73.3325 370.539 73.4035 370.544 73.4366Z" fill="white"/>
<path fill-rule="evenodd" clip-rule="evenodd" d="M105.416 366C106.754 366.249 108.025 366.778 109.145 367.552C110.265 368.326 111.209 369.328 111.915 370.492H109.93C109.868 370.194 109.704 369.927 109.468 369.735C109.232 369.543 108.937 369.438 108.632 369.438C108.558 369.438 108.483 369.445 108.409 369.457C108.264 369.14 108.102 368.831 107.925 368.53C107.239 367.369 106.38 366.489 105.416 366ZM112.223 371.038C112.939 372.416 113.313 373.946 113.313 375.5C113.313 377.053 112.939 378.584 112.223 379.962H109.93C109.89 379.77 109.807 379.589 109.688 379.433C109.57 379.277 109.418 379.149 109.244 379.058C109.768 376.715 109.768 374.285 109.244 371.942C109.418 371.851 109.57 371.723 109.688 371.567C109.807 371.41 109.89 371.23 109.93 371.038H112.223ZM111.915 380.508C111.209 381.672 110.265 382.674 109.145 383.448C108.025 384.222 106.754 384.751 105.416 385C106.38 384.511 107.239 383.631 107.926 382.47C108.103 382.169 108.264 381.86 108.41 381.543C108.483 381.555 108.558 381.562 108.633 381.562C108.937 381.562 109.232 381.457 109.468 381.265C109.705 381.073 109.868 380.806 109.931 380.508L111.915 380.508ZM101.889 385C100.55 384.751 99.2791 384.222 98.1591 383.448C97.039 382.674 96.0951 381.672 95.389 380.508H97.3741C97.4368 380.806 97.6 381.073 97.8364 381.265C98.0728 381.457 98.3679 381.561 98.6724 381.561C98.747 381.561 98.8216 381.555 98.8953 381.543C99.0408 381.86 99.2024 382.169 99.3794 382.47C100.066 383.631 100.924 384.511 101.889 385H101.889ZM95.0829 379.962C94.3663 378.584 93.9922 377.053 93.9922 375.5C93.9922 373.946 94.3663 372.416 95.0829 371.038H97.3753C97.4159 371.23 97.4985 371.41 97.6172 371.567C97.736 371.723 97.8879 371.851 98.0621 371.942C97.538 374.285 97.538 376.715 98.0621 379.058C97.8879 379.149 97.736 379.277 97.6173 379.433C97.4985 379.589 97.4159 379.77 97.3753 379.962H95.0829ZM95.3903 370.492C96.0963 369.328 97.04 368.326 98.1598 367.552C99.2796 366.778 100.55 366.249 101.889 366C100.924 366.489 100.065 367.369 99.3789 368.53C99.2018 368.83 99.0402 369.14 98.8948 369.457C98.8212 369.444 98.7466 369.438 98.6719 369.438C98.3674 369.438 98.0723 369.543 97.8359 369.734C97.5996 369.926 97.4363 370.194 97.3736 370.491L95.3903 370.492ZM107.458 368.808C106.533 367.245 105.292 366.242 103.925 366.123V369.467C104.177 369.52 104.408 369.645 104.59 369.827C104.772 370.009 104.897 370.24 104.95 370.492H107.334C107.406 370.149 107.611 369.849 107.904 369.657C107.765 369.358 107.616 369.075 107.458 368.807V368.808ZM103.925 372.063V378.935C104.179 378.987 104.412 379.111 104.596 379.294C104.78 379.476 104.906 379.709 104.96 379.962H107.334C107.397 379.664 107.56 379.397 107.796 379.205C108.033 379.014 108.328 378.909 108.632 378.909C108.661 378.909 108.69 378.91 108.718 378.912C109.216 376.664 109.216 374.336 108.718 372.088C108.69 372.09 108.661 372.091 108.632 372.091C108.328 372.091 108.033 371.986 107.796 371.794C107.56 371.603 107.397 371.335 107.334 371.038H104.95C104.897 371.289 104.772 371.52 104.59 371.703C104.408 371.885 104.177 372.01 103.925 372.063H103.925ZM103.925 381.535V384.877C105.291 384.758 106.533 383.755 107.456 382.193C107.615 381.925 107.763 381.641 107.902 381.343C107.61 381.15 107.405 380.85 107.333 380.508H104.96C104.906 380.761 104.78 380.994 104.596 381.176C104.412 381.359 104.179 381.484 103.925 381.535ZM103.38 366.123C102.013 366.242 100.771 367.245 99.848 368.807C99.6897 369.075 99.5411 369.358 99.4022 369.657C99.6947 369.849 99.8994 370.149 99.9719 370.492H102.356C102.409 370.24 102.534 370.009 102.716 369.827C102.897 369.645 103.128 369.52 103.38 369.467V366.123ZM98.5859 372.088C98.0886 374.336 98.0886 376.664 98.5859 378.912C98.6144 378.91 98.6431 378.909 98.6724 378.909C98.9767 378.909 99.2718 379.014 99.5082 379.205C99.7445 379.397 99.9077 379.664 99.9704 379.962H102.364C102.417 379.712 102.541 379.482 102.721 379.301C102.901 379.119 103.13 378.994 103.38 378.939V372.063C103.128 372.01 102.897 371.885 102.715 371.702C102.533 371.52 102.408 371.289 102.354 371.038H99.9704C99.9077 371.335 99.7445 371.603 99.5082 371.794C99.2718 371.986 98.9767 372.091 98.6724 372.091C98.6431 372.091 98.6144 372.091 98.5859 372.088ZM99.402 381.343C99.5405 381.641 99.6891 381.925 99.8478 382.193C100.771 383.755 102.013 384.758 103.38 384.877V381.531C103.13 381.476 102.901 381.351 102.721 381.169C102.541 380.988 102.417 380.758 102.364 380.508H99.9704C99.8983 380.85 99.694 381.15 99.402 381.343Z" fill="#52379D"/>
<path d="M25.2983 216.478C25.7306 216.478 26.081 216.128 26.081 215.695C26.081 215.263 25.7306 214.913 25.2983 214.913C24.866 214.913 24.5156 215.263 24.5156 215.695C24.5156 216.128 24.866 216.478 25.2983 216.478Z" fill="white"/>
<path d="M17.4702 211.782C17.3154 211.782 17.1641 211.828 17.0353 211.914C16.9066 212 16.8063 212.122 16.7471 212.265C16.6878 212.408 16.6723 212.566 16.7025 212.717C16.7327 212.869 16.8073 213.009 16.9167 213.118C17.0262 213.228 17.1657 213.302 17.3175 213.332C17.4693 213.362 17.6267 213.347 17.7697 213.288C17.9127 213.229 18.0349 213.128 18.1209 212.999C18.2069 212.871 18.2528 212.719 18.2528 212.565C18.2528 212.357 18.1704 212.158 18.0236 212.011C17.8768 211.864 17.6778 211.782 17.4702 211.782Z" fill="white"/>
<path d="M30.6549 210.717L21.6541 202.108C21.5814 202.039 21.4847 202 21.3841 202C21.2836 202 21.1869 202.039 21.1141 202.108L12.1133 210.717C12.0571 210.771 12.0181 210.84 12.0013 210.916C11.9846 210.992 11.9909 211.072 12.0194 211.144C12.0484 211.217 12.0986 211.279 12.1635 211.323C12.2284 211.367 12.305 211.391 12.3834 211.391H14.3401V219.609C14.3401 219.712 14.3813 219.812 14.4547 219.885C14.5281 219.959 14.6276 220 14.7314 220H28.0368C28.1406 220 28.2402 219.959 28.3136 219.885C28.3869 219.812 28.4282 219.712 28.4282 219.609V211.391H30.3849C30.4632 211.391 30.5398 211.367 30.6047 211.323C30.6696 211.279 30.7198 211.217 30.7488 211.144C30.7773 211.072 30.7836 210.992 30.7669 210.916C30.7502 210.84 30.7112 210.771 30.6549 210.717ZM25.2975 217.261C24.9507 217.26 24.6137 217.145 24.3396 216.932C24.0655 216.72 23.8697 216.422 23.783 216.087H21.7755C21.6955 216.087 21.6174 216.063 21.5516 216.017C21.4858 215.972 21.4356 215.907 21.4076 215.832L20.3314 212.956H18.9852C18.89 213.325 18.6635 213.646 18.3481 213.86C18.0328 214.074 17.6503 214.165 17.2723 214.117C16.8944 214.069 16.5469 213.885 16.295 213.599C16.0432 213.314 15.9042 212.946 15.9042 212.565C15.9042 212.184 16.0432 211.816 16.295 211.53C16.5469 211.244 16.8944 211.06 17.2723 211.012C17.6503 210.964 18.0328 211.055 18.3481 211.269C18.6635 211.483 18.89 211.804 18.9852 212.173H20.6014C20.6814 212.173 20.7595 212.197 20.8253 212.243C20.8911 212.288 20.9413 212.353 20.9693 212.428L22.0455 215.304H23.783C23.8562 215.02 24.0075 214.763 24.2196 214.561C24.4318 214.359 24.6963 214.221 24.9831 214.162C25.2699 214.103 25.5675 214.126 25.8421 214.227C26.1167 214.329 26.3573 214.506 26.5365 214.737C26.7158 214.969 26.8264 215.246 26.856 215.537C26.8856 215.829 26.8328 216.122 26.7038 216.385C26.5747 216.648 26.3745 216.869 26.1259 217.024C25.8773 217.179 25.5903 217.261 25.2975 217.261Z" fill="white"/>
<defs>
<filter id="filter0_d_1114_1252" x="182.992" y="176" width="77.0273" height="78" filterUnits="userSpaceOnUse" color-interpolation-filters="sRGB">
<feFlood flood-opacity="0" result="BackgroundImageFix"/>
<feColorMatrix in="SourceAlpha" type="matrix" values="0 0 0 0 0 0 0 0 0 0 0 0 0 0 0 0 0 0 127 0" result="hardAlpha"/>
<feOffset dy="4"/>
<feGaussianBlur stdDeviation="2"/>
<feComposite in2="hardAlpha" operator="out"/>
<feColorMatrix type="matrix" values="0 0 0 0 0 0 0 0 0 0 0 0 0 0 0 0 0 0 0.07 0"/>
<feBlend mode="normal" in2="BackgroundImageFix" result="effect1_dropShadow_1114_1252"/>
<feBlend mode="normal" in="SourceGraphic" in2="effect1_dropShadow_1114_1252" result="shape"/>
</filter>
</defs>
</svg>
