<svg width="395" height="454" viewBox="0 0 395 454" fill="none" xmlns="http://www.w3.org/2000/svg">
<path d="M246.029 160.951C246.029 160.951 241.339 192.765 247.311 193.272C253.284 193.779 249.983 157.446 249.983 157.446C249.983 157.446 278.771 142.164 290.332 142.822C290.332 142.822 273.352 174.378 279.267 173.401C285.182 172.422 304.375 140.405 304.375 140.405C304.375 140.405 334.246 133.639 339.782 151.279C345.319 168.919 337.872 178.145 333.458 179.436C329.044 180.728 300.424 181.491 301.313 185.177C302.205 188.862 321.757 194.039 332.398 190.269C332.398 190.269 321.674 220.089 306.013 219.223C290.351 218.356 285.138 208.889 275.45 208.53C265.762 208.17 258.806 211.051 263.74 213.459C268.672 215.868 284.95 213.47 293.013 219.793C301.076 226.116 307.555 229.952 293.185 233.498C278.814 237.045 252.735 236.22 247.093 225.282C246.847 224.805 246.613 224.351 246.387 223.913C246.738 224.821 247.093 225.282 247.093 225.282C244.482 226.947 240.769 234.542 238.215 240.356C237.856 241.343 237.283 242.711 236.423 244.572C236.079 245.411 235.803 246.099 235.613 246.577C231.014 259.559 234.594 281.518 234.594 281.518L231.532 282.472C223.791 260.506 235.096 241.758 235.096 241.758C242.322 226.96 241.45 214.343 241.45 214.343C241.45 214.343 212.968 199.846 225.13 178.154C225.131 178.153 235.016 164.738 246.029 160.951Z" fill="#FAEC57"/>
<path d="M138.604 135.592C138.604 135.592 146.977 169.297 157.69 193.667C161.951 203.366 166.584 211.585 171.205 215.615C175.73 219.558 179.118 224.871 181.649 230.484C188.206 245.019 189.031 261.563 189.031 261.563L241.713 210.818C241.713 210.818 253.391 152.308 250.843 141.514C247.129 125.783 250.214 96.3694 248.845 90.0696C247.828 85.396 247.115 62.2701 246.937 60.5426C246.857 59.7981 245.23 58.318 242.808 57.7794C240.863 57.3444 237.142 58.4855 235.447 62.1597C226.872 80.7351 229.059 94.7401 228.874 95.3002C224.034 109.967 226.007 122.1 222.218 124.348C222.077 124.432 221.872 124.331 221.609 124.067C216.962 119.368 194.266 62.7345 190.355 60.7468C186.226 58.6485 138.604 135.592 138.604 135.592Z" fill="#EFA26F"/>
<path d="M179.828 247.128C179.828 247.128 174.445 273.71 168.006 309.694L267.293 331.904C255.424 278.431 244.804 233.284 244.804 233.284C244.804 233.284 187.885 222.364 179.828 247.128Z" fill="#8354BE"/>
<path d="M127.144 25.2971L135.335 45.8936L143.374 66.1049C143.906 67.1479 144.683 67.6425 145.616 67.7593C148.547 68.1293 153.025 64.7833 156.305 63.1109L156.637 62.9428C160.962 60.7407 162.697 55.3992 160.494 51.0768L147.155 24.8879L147.156 24.8863L143.199 17.1204C140.996 12.7948 135.655 11.0603 131.333 13.2631L131.001 13.4312C126.678 15.6304 124.941 20.9715 127.144 25.2971Z" fill="#FFB27D"/>
<path d="M135.33 45.8913L143.369 66.1027C143.901 67.1457 144.677 67.6402 145.61 67.757L147.151 24.886C147.082 25.1128 141.648 43.2879 135.33 45.8913Z" fill="#EFA26F"/>
<path d="M157.69 193.667C161.951 203.365 166.584 211.585 171.205 215.614C175.73 219.557 179.118 224.87 181.649 230.484C186.23 229.478 191.466 228.267 196.592 227.054C202.832 225.578 204.836 217.633 199.985 213.438C199.937 213.398 199.891 213.356 199.845 213.315C195.34 209.203 192.382 197.582 192.382 197.582L157.69 193.667Z" fill="#D38254"/>
<path d="M247.01 61.5084L247.319 75.0982C247.319 75.0982 244.276 75.6155 242.684 74.3287C241.09 73.0432 242.213 61.1639 247.01 61.5084Z" fill="#FFC197"/>
<path d="M121.526 191.967L190.106 207.308C196.852 208.817 203.606 204.533 205.115 197.786L238.834 47.0443C240.343 40.2989 236.06 33.5444 229.313 32.0352L160.732 16.6946C153.987 15.1857 147.233 19.4694 145.723 26.2164L112.004 176.958C110.497 183.704 114.781 190.459 121.526 191.967Z" fill="#FAEC57"/>
<path d="M150.087 28.4088L117.149 175.658C116.032 180.653 119.175 185.647 124.134 186.756L189.985 201.486C194.942 202.595 199.913 199.416 201.031 194.421L233.969 47.1722C235.086 42.1772 231.944 37.1835 226.985 36.0744L161.134 21.3442C156.176 20.2351 151.204 23.4138 150.087 28.4088Z" fill="#8354BE"/>
<path d="M161.134 21.3447L189.17 201.304L189.985 201.487C194.942 202.595 199.913 199.417 201.031 194.422L233.969 47.1727C235.086 42.1777 231.944 37.184 226.985 36.0749L161.134 21.3447Z" fill="#8354BE"/>
<path d="M179.07 31.1064L206.593 37.2629C208.835 37.7644 211.08 36.3401 211.581 34.098L211.725 33.4567C212.226 31.2146 210.802 28.9695 208.56 28.4679L181.037 22.3115C178.795 21.81 176.55 23.2343 176.049 25.4764L175.905 26.1177C175.405 28.3617 176.828 30.6049 179.07 31.1064Z" fill="#FAEC57"/>
<path d="M118.106 94.1337L119.769 95.2308L130.954 102.61C131.216 102.782 131.484 102.941 131.758 103.079C135.571 105.036 140.359 103.842 142.771 100.187L143.056 99.7581C145.639 95.8414 144.55 90.5232 140.633 87.9394L130.207 81.0606L129.45 80.5605L127.787 79.4634C123.87 76.8796 118.554 77.9694 115.97 81.8862L115.685 82.3154C113.1 86.2301 114.189 91.5499 118.106 94.1337Z" fill="#FFB27D"/>
<path d="M127.967 96.6337C129.834 97.8634 133.22 100.061 135.132 100.786C135.672 100.992 136.77 100.919 137.967 100.08C138.684 99.5789 139.436 98.8049 140.124 97.6521C140.447 97.1095 140.737 96.5627 140.938 95.9762C141.172 95.2899 141.309 94.5804 141.342 93.856C141.371 93.2025 141.07 92.5351 140.512 92.0929C140.511 92.091 140.506 92.0899 140.503 92.086C138.627 90.6137 136.07 88.7583 133.74 87.5204C132.131 86.6625 130.225 87.0316 129.345 88.412L128.932 89.0565L126.817 92.3563C125.94 93.7291 126.442 95.6325 127.967 96.6337Z" fill="#FFD3B6"/>
<path d="M127.968 96.6345C129.835 97.8642 133.221 100.062 135.133 100.787C135.673 100.993 136.771 100.919 137.968 100.081C138.124 99.8655 138.275 99.6335 138.424 99.3829C138.748 98.8404 139.037 98.2936 139.239 97.707C139.473 97.0208 139.609 96.3112 139.643 95.5868C139.672 94.9334 139.37 94.266 138.813 93.8238C138.811 93.8218 138.807 93.8208 138.804 93.8169C136.928 92.3445 134.37 90.4892 132.041 89.2513C131.009 88.7014 129.858 88.6545 128.933 89.0557L126.818 92.3555C125.941 93.7299 126.443 95.6333 127.968 96.6345Z" fill="#FFC197"/>
<path d="M119.817 112.559L128.67 117.235C131.36 118.655 134.723 117.616 136.144 114.926L136.673 113.925C138.094 111.235 137.055 107.872 134.365 106.451L125.513 101.776C122.823 100.356 119.459 101.394 118.039 104.084L117.509 105.085C116.088 107.777 117.128 111.139 119.817 112.559Z" fill="#FFB27D"/>
<path d="M125.027 113.239C126.654 114.089 129.602 115.604 131.223 116.06C131.812 116.227 133.12 115.99 134.25 114.596C134.528 114.258 134.789 113.855 135.03 113.375C135.248 112.937 135.436 112.498 135.55 112.036C135.683 111.491 135.734 110.937 135.701 110.375C135.67 109.869 135.368 109.37 134.876 109.059C134.871 109.057 134.87 109.056 134.867 109.052C133.213 108.016 130.97 106.719 128.963 105.887C127.578 105.312 126.056 105.7 125.453 106.813L125.02 107.608L123.724 109.995C123.125 111.101 123.696 112.547 125.027 113.239Z" fill="#FFD3B6"/>
<path d="M125.014 113.238C126.642 114.088 129.59 115.603 131.211 116.059C131.8 116.226 133.108 115.989 134.238 114.594C134.44 114.186 134.613 113.772 134.719 113.336C134.852 112.793 134.904 112.238 134.869 111.676C134.839 111.171 134.536 110.671 134.044 110.36C134.04 110.357 134.038 110.357 134.036 110.353C132.381 109.316 130.138 108.019 128.131 107.191C126.985 106.714 125.742 106.899 125.007 107.607L123.712 109.994C123.113 111.1 123.684 112.546 125.014 113.238Z" fill="#FFC197"/>
<path d="M249.976 255.522C249.976 255.522 226.417 269.765 211.733 274.014L203.402 264.775L201.084 275.138C201.084 275.138 180.838 274.225 175.465 269.407L181.785 241.151L242.62 225.965L249.976 255.522Z" fill="#8354BE"/>
<path d="M242.184 208.72C242.184 208.72 250.382 229.908 258.219 252.355C258.219 252.355 228.44 264.336 213.285 266.413L199.635 241.29L196.594 267.177C196.594 267.177 179.03 269.464 171.839 266.233C171.839 266.233 177.449 243.387 180.808 228.349C180.81 228.347 228.255 225.821 242.184 208.72Z" fill="#F3F8FF"/>
<path d="M228.682 254.818C229.044 253.128 227.967 251.464 226.277 251.102C224.587 250.741 222.922 251.817 222.561 253.507C222.2 255.198 223.276 256.862 224.966 257.223C226.656 257.586 228.319 256.508 228.682 254.818Z" fill="#8354BE"/>
<path d="M122.453 76.1363C122.515 76.1752 122.577 76.2124 122.641 76.2519L134.289 82.1892C139.411 84.8019 145.688 83.1181 148.239 78.4489L149.546 76.0578C151.995 71.5763 150.153 65.9043 145.467 63.1502L141.622 61.1889L133.819 57.2129C128.698 54.6002 122.421 56.284 119.871 60.9535L118.564 63.3447C116.147 67.7648 117.907 73.3416 122.453 76.1363Z" fill="#FFB27D"/>
<path d="M128.883 73.9526L134.282 78.0008C134.291 78.0045 134.301 78.0102 134.318 78.0188C134.545 78.1382 134.777 78.242 135.01 78.3307C135.107 78.3691 135.208 78.4033 135.305 78.4369C135.347 78.4513 135.389 78.4606 135.432 78.467C136.099 78.5928 136.71 77.9925 136.563 77.303C136.271 75.9411 136.437 74.4761 137.135 73.1568L137.395 72.6653C137.396 72.6605 137.399 72.6545 137.403 72.6504L138.249 71.0501C138.922 69.7738 139.961 68.8131 141.168 68.2193C141.313 68.1464 141.461 68.081 141.612 68.0211C142.983 67.464 143.097 65.5361 141.794 64.8387C141.782 64.8311 141.772 64.827 141.758 64.819L135.392 62.3489C133.861 61.5421 132.013 62.4454 131.204 63.9736L130.24 65.7964L128.187 69.6849C127.378 71.2166 127.352 73.1458 128.883 73.9526Z" fill="#FFD3B6"/>
<path d="M128.893 73.953L134.292 78.0012C134.301 78.0049 134.311 78.0106 134.328 78.0193C134.462 78.0776 134.886 78.2494 135.442 78.4674C136.109 78.5932 136.72 77.9929 136.573 77.3035C136.281 75.9416 136.447 74.4765 137.145 73.1572L137.405 72.6657C137.406 72.6609 137.409 72.6549 137.413 72.6509L138.259 71.0506C138.932 69.7742 139.971 68.8135 141.178 68.2197C141.036 67.8621 140.773 67.5442 140.384 67.3352C140.374 67.3279 140.361 67.3235 140.348 67.3155L133.981 64.8454C132.693 64.1662 131.18 64.7 130.25 65.7968L128.197 69.6853C127.388 71.217 127.363 73.1462 128.893 73.953Z" fill="#FFC197"/>
<path d="M212.709 163.82C212.709 163.82 220.669 140.888 224.182 136.857C227.696 132.823 231.857 124.104 229.558 116.42C227.259 108.733 228.875 95.2978 228.875 95.2978C224.036 109.965 226.008 122.097 222.219 124.346C222.078 124.43 221.874 124.329 221.61 124.064L212.709 163.82Z" fill="#D38254"/>
<path d="M42.5706 229.393C41.2028 212.533 68.8533 208.004 68.8533 208.004C68.8533 208.004 96.1306 228.553 101.483 227.351C106.835 226.149 81.5913 205.228 81.5913 205.228C91.1677 200.696 120.828 203.76 120.828 203.76C120.828 203.76 130.515 235.7 135.406 233.217C140.297 230.735 125.386 205.374 125.386 205.374C136.023 204.798 149.017 212.776 149.017 212.776C166.784 226.987 147.617 249.067 147.617 249.067C147.617 249.067 151.213 260.064 162.427 270.127C162.427 270.127 164.773 271.886 167.725 275.248L165.107 276.19C164.641 275.564 164.161 274.971 163.666 274.414C163.664 274.409 163.662 274.407 163.657 274.403C163.651 274.395 163.643 274.388 163.635 274.38C163.309 274.04 162.845 273.557 162.272 272.971C162.271 272.97 162.271 272.97 162.269 272.969C162.268 272.967 162.267 272.968 162.266 272.966C160.904 271.689 159.947 270.727 159.305 270.015C159.302 270.013 159.302 270.011 159.299 270.009C155.134 265.957 149.378 260.797 146.593 260.281C146.593 260.281 146.736 259.768 146.72 258.878C146.681 259.326 146.637 259.792 146.593 260.281C145.568 271.495 123.739 281.158 110.337 283.089C96.9338 285.02 101.108 279.543 105.772 271.408C110.438 263.276 125.061 259.715 128.416 255.976C131.77 252.238 124.883 252.187 116.792 255.821C108.701 259.456 107.536 269.275 94.5538 275.392C81.5726 281.509 62.2326 259.912 62.2326 259.912C72.5497 259.452 87.3508 248.342 86.8387 244.911C86.3267 241.481 61.7989 250.67 57.613 251.091C53.4225 251.515 43.9384 246.253 42.5706 229.393Z" fill="#9F78A5"/>
<path d="M283.69 241.301C269.318 218.773 231.022 239.429 231.022 239.429C231.022 239.429 217.061 291.299 209.338 294.888C201.616 298.477 212.722 248.076 212.722 248.076C196.638 251.5 163.1 283.629 163.1 283.629C163.1 283.629 181.605 333.073 173.229 334.61C164.854 336.147 159.035 290.006 159.035 290.006C145.412 299.422 137.038 321.851 137.038 321.851C128.732 356.677 173.312 366.204 173.312 366.204C173.312 366.204 179.363 383.474 175.162 406.832C175.162 406.832 173.952 411.283 173.525 418.329L177.639 417.02C177.616 415.787 177.642 414.583 177.72 413.41C177.718 413.403 177.719 413.397 177.721 413.388C177.721 413.372 177.724 413.355 177.726 413.338C177.802 412.599 177.914 411.549 178.06 410.265C178.059 410.263 178.059 410.263 178.061 410.259C178.06 410.257 178.063 410.256 178.062 410.254C178.521 407.347 178.78 405.224 178.892 403.715C178.893 403.71 178.892 403.707 178.893 403.702C180.154 394.631 182.316 382.648 185.248 379.343C185.248 379.343 184.584 378.835 183.755 377.699C184.231 378.225 184.728 378.77 185.248 379.343C197.184 392.483 233.214 383.84 251.526 373.495C269.837 363.15 259.492 360.233 246.014 354.44C232.537 348.65 211.173 358.106 203.49 356.597C195.808 355.09 204.225 348.459 217.629 345.323C231.035 342.185 241.814 353.436 263.596 348.761C285.375 344.088 288.582 298.463 288.582 298.463C275.463 307.719 246.694 307.842 244.057 303.035C241.419 298.228 280.315 286.416 285.862 282.956C291.415 279.495 298.062 263.83 283.69 241.301Z" fill="#9F78A5"/>
<path fill-rule="evenodd" clip-rule="evenodd" d="M164.569 137.134C165.205 138.293 166.054 139.291 167.067 140.068C168.08 140.846 169.235 141.387 170.464 141.661C171.682 141.966 172.955 141.997 174.204 141.749C175.454 141.501 176.654 140.981 177.732 140.22C178.29 139.836 178.76 139.314 179.102 138.7C179.443 138.086 179.646 137.397 179.692 136.693C179.873 133.909 180.183 128.853 180.505 124.143C180.89 117.966 186.191 113.217 192.608 113.285C197.467 113.353 201.826 110.592 203.682 106.309C203.893 105.812 204.094 105.358 204.258 104.963C204.335 104.778 204.366 104.577 204.345 104.379C204.325 104.181 204.255 103.995 204.143 103.842C204.023 103.676 203.871 103.543 203.696 103.451C203.521 103.359 203.328 103.311 203.131 103.309C201.712 103.318 199.726 103.309 198.092 103.312C197.207 103.285 196.319 103.471 195.493 103.857C194.666 104.242 193.921 104.818 193.31 105.544C192.998 105.922 192.6 106.205 192.159 106.362C191.717 106.52 191.25 106.546 190.806 106.438C190.352 106.358 189.931 106.152 189.581 105.838C189.232 105.525 188.967 105.115 188.813 104.649C188.763 104.455 188.693 104.255 188.661 104.09C188.503 103.589 188.475 103.046 188.579 102.518C188.77 101.402 189.168 99.3035 189.428 97.8874C189.628 96.8628 190.057 95.8978 190.678 95.0795C190.78 94.957 190.874 94.827 190.958 94.6899C191.15 94.44 191.258 94.1289 191.264 93.8101C191.269 93.4914 191.172 93.1848 190.989 92.9436C190.994 92.9207 190.977 92.8958 190.96 92.8689C190.384 92.0713 189.569 91.5183 188.647 91.2977C187.725 91.0771 186.749 91.2023 185.875 91.6531C185.521 91.828 185.233 92.1322 185.061 92.5108C184.89 92.8893 184.848 93.3168 184.942 93.7148C184.947 93.7211 184.95 93.7281 184.952 93.7361C184.955 93.7441 184.955 93.7524 184.954 93.7608C185.179 94.694 185.184 95.6828 184.966 96.6376C184.715 97.8087 184.325 99.4715 184.036 100.704C183.901 101.241 183.656 101.743 183.318 102.17C182.98 102.596 182.56 102.937 182.089 103.166C181.231 103.573 180.288 103.682 179.393 103.476C178.499 103.27 177.698 102.761 177.106 102.019C177.047 101.96 177.017 101.885 176.96 101.827C176.748 101.557 176.596 101.238 176.513 100.892C176.431 100.545 176.421 100.18 176.484 99.8224C176.733 98.5588 177.123 96.486 177.409 95.0722C177.606 94.0778 178.044 93.1488 178.678 92.3827C178.743 92.3068 178.803 92.2524 178.868 92.1788C179.103 91.8985 179.241 91.5411 179.259 91.1698C179.276 90.7986 179.171 90.4378 178.964 90.1524C178.412 89.377 177.634 88.8307 176.748 88.5979C175.862 88.3652 174.918 88.4593 174.062 88.8651C174.057 88.8863 174.035 88.8812 174.005 88.8985C173.716 89.0269 173.474 89.2606 173.322 89.5585C173.17 89.8565 173.118 90.1992 173.176 90.5254C173.217 90.8542 173.297 91.2152 173.34 91.5443C173.462 92.2441 173.445 92.9703 173.288 93.6743L172.396 97.4768C172.137 98.5577 171.569 99.5339 170.775 100.263C170.373 100.608 169.906 100.848 169.411 100.966C168.917 101.083 168.409 101.074 167.927 100.939C167.446 100.804 167.006 100.547 166.641 100.189C166.276 99.8304 165.998 99.3803 165.828 98.8754C165.561 97.9767 165.122 97.1564 164.538 96.4664C163.954 95.7764 163.238 95.2321 162.437 94.8687C161.034 94.1969 159.332 93.3872 158.101 92.7802C157.92 92.7033 157.726 92.6677 157.529 92.6763C157.332 92.6849 157.137 92.7373 156.956 92.83C156.786 92.9154 156.641 93.0514 156.539 93.2215C156.436 93.3916 156.38 93.5884 156.377 93.7881C156.362 94.1497 156.334 94.5756 156.322 95.0297C156.174 99.5989 158.691 103.902 162.847 106.153C163.054 106.27 163.241 106.382 163.45 106.5C168.991 109.508 171.401 115.974 169.109 121.614C167.356 125.964 165.42 130.684 164.389 133.268C164.139 133.893 164.026 134.566 164.058 135.235C164.09 135.904 164.267 136.548 164.574 137.117L164.569 137.134Z" fill="white"/>
<path fill-rule="evenodd" clip-rule="evenodd" d="M182.635 133.1C182.635 133.1 180.386 123.525 183.585 122.794C184.388 122.658 185.199 122.793 185.909 123.179C187.246 123.834 189.118 122.906 189.904 121.769C189.551 122.474 189.06 123.091 188.468 123.575C187.876 124.059 187.197 124.398 186.481 124.568C184.088 125.099 188.862 129.66 182.635 133.1Z" fill="white"/>
<path fill-rule="evenodd" clip-rule="evenodd" d="M163.05 128.507C163.05 128.507 169.32 120.93 166.78 118.853C166.122 118.375 165.335 118.135 164.527 118.166C163.039 118.159 161.773 116.495 161.574 115.126C161.577 115.915 161.743 116.685 162.058 117.382C162.374 118.079 162.831 118.684 163.397 119.155C165.307 120.695 159.003 122.659 163.05 128.507Z" fill="white"/>
<path d="M186.862 121.425C185.015 121.468 183.473 120.428 183.419 119.105C183.364 117.781 184.817 116.672 186.665 116.631C188.512 116.589 190.054 117.628 190.109 118.951C190.165 120.275 188.71 121.383 186.862 121.425Z" fill="white"/>
<path d="M166.772 111.968C168.408 112.827 169.22 114.461 168.582 115.625C167.943 116.789 166.1 117.034 164.464 116.176C162.828 115.318 162.017 113.681 162.654 112.519C163.29 111.356 165.135 111.112 166.772 111.968Z" fill="white"/>
<path fill-rule="evenodd" clip-rule="evenodd" d="M183.546 119.449C183.546 119.449 182.694 117.405 186.327 116.512C187.217 116.294 188.135 116.332 188.989 116.622C190.451 117.217 191.968 117.658 193.518 117.941C191.847 118.13 190.168 118.111 188.517 117.883C187.778 117.77 187.02 117.809 186.284 118.001C185.291 118.257 184.355 118.752 183.546 119.449V119.449Z" fill="white"/>
<path fill-rule="evenodd" clip-rule="evenodd" d="M168.316 115.88C168.316 115.88 169.991 114.429 167.13 112.012C166.429 111.422 165.59 111.048 164.697 110.928C163.122 110.811 161.567 110.533 160.053 110.098C161.466 111.01 162.978 111.738 164.559 112.269C165.271 112.495 165.932 112.867 166.507 113.366C167.283 114.037 167.901 114.897 168.316 115.88Z" fill="white"/>
<path fill-rule="evenodd" clip-rule="evenodd" d="M173.522 138.845C174.082 138.308 174.588 137.708 175.03 137.056C175.419 136.43 175.756 135.77 176.038 135.082C175.496 135.568 174.92 136.004 174.315 136.387C173.723 136.745 173.1 137.034 172.456 137.25C172.352 137.311 172.261 137.396 172.188 137.498C172.116 137.6 172.065 137.717 172.038 137.841C172.011 137.965 172.009 138.093 172.033 138.215C172.057 138.338 172.105 138.452 172.175 138.55C172.322 138.769 172.54 138.919 172.787 138.973C173.035 139.027 173.296 138.982 173.522 138.845Z" fill="#52379D"/>
<path fill-rule="evenodd" clip-rule="evenodd" d="M170.452 136.688C169.93 136.305 169.483 135.814 169.137 135.241C168.792 134.62 168.511 133.957 168.299 133.265C168.155 134.167 168.148 135.082 168.279 135.974C168.391 136.648 168.618 137.289 168.948 137.864C169.117 138.064 169.348 138.19 169.601 138.22C169.854 138.249 170.112 138.18 170.329 138.025C170.427 137.949 170.508 137.851 170.569 137.739C170.629 137.627 170.666 137.502 170.678 137.375C170.69 137.247 170.675 137.12 170.636 137.001C170.598 136.882 170.535 136.775 170.452 136.688Z" fill="#52379D"/>
</svg>
