<svg width="1607" height="478" viewBox="0 0 1607 478" fill="none" xmlns="http://www.w3.org/2000/svg">
<path d="M831.024 366.214C860.386 358.278 879.289 348.193 882.999 359.597C886.709 371.001 859.205 426.848 826.424 427.391C793.643 427.933 725.826 373.373 751.875 361.768C777.923 350.162 801.662 374.149 831.024 366.214Z" fill="#FAEC57"/>
<path opacity="0.299" d="M836.43 360.101C865.792 352.165 884.695 342.079 888.405 353.484C892.116 364.888 864.612 420.735 831.83 421.278C799.049 421.82 731.232 367.26 757.281 355.654C783.329 344.049 807.069 368.036 836.43 360.101Z" fill="#FAEC57"/>
<path d="M1171.94 262.589C1202.12 242.682 1303.27 278.828 1302.6 346.901C1301.93 414.975 1220.33 331.573 1184.57 339.243C1148.8 346.912 1122.14 371.825 1111.7 356.046C1101.26 340.268 1141.75 282.495 1171.94 262.589Z" fill="#52379D"/>
<path opacity="0.299" d="M1167.76 254.224C1197.95 234.317 1299.1 270.463 1298.43 338.537C1297.76 406.61 1216.16 323.209 1180.39 330.878C1144.63 338.548 1117.97 363.46 1107.53 347.682C1097.09 331.903 1137.58 274.131 1167.76 254.224Z" fill="#52379D"/>
<path d="M264.074 310.876C213.883 321.008 179.786 334.196 177.892 318.861C175.998 303.526 240.37 229.201 293.425 229.027C346.479 228.854 436.274 303.064 390.109 318.166C343.945 333.268 314.265 300.744 264.074 310.876Z" fill="#FAEC57"/>
<path opacity="0.299" d="M255.988 320.886C205.797 331.018 171.7 344.206 169.806 328.871C167.912 313.536 232.284 239.211 285.339 239.037C338.394 238.863 428.188 313.073 382.023 328.176C335.859 343.278 306.179 310.754 255.988 320.886Z" fill="#FAEC57"/>
<path d="M1.78041 313.037C100.942 255.685 245.028 95.7662 641.384 294.789C785.579 367.193 967.643 310.794 1084.31 251.188C1200.97 191.581 1265.69 212.181 1373.48 282.162C1481.28 352.143 1564.96 246.129 1599.78 251.188C1629.39 255.488 1543.5 6.00002 1543.5 6.00002L755.3 6.00001L1.77775 6L1.78041 313.037Z" fill="#52379D"/>
</svg>
